<?xml version="1.0" encoding="utf-8"?>
<!-- Generator: Adobe Illustrator 16.0.0, SVG Export Plug-In . SVG Version: 6.00 Build 0)  -->
<!DOCTYPE svg PUBLIC "-//W3C//DTD SVG 1.1//EN" "http://www.w3.org/Graphics/SVG/1.1/DTD/svg11.dtd">
<svg version="1.1" id="Layer_1" xmlns="http://www.w3.org/2000/svg" xmlns:xlink="http://www.w3.org/1999/xlink" x="0px" y="0px"
	 width="50px" height="50px" viewBox="0 0 50 50" enable-background="new 0 0 50 50" xml:space="preserve">
<g>
	<path fill-rule="evenodd" clip-rule="evenodd" fill="#C2CFCF" d="M50.099,13.004c-0.276,0.473-0.244,1.023-0.376,1.533
		c-1.167,4.515-4.94,7.929-9.556,8.61c-6.176,0.911-11.909-3.063-13.19-9.143c-1.331-6.32,2.799-12.588,9.129-13.857
		c0.308-0.062,0.647,0.007,0.915-0.222c0.853,0,1.704,0,2.557,0c0.377,0.207,0.809,0.146,1.209,0.246
		c4.65,1.156,7.656,4.008,8.961,8.639c0.144,0.509,0.108,1.055,0.352,1.539C50.099,11.234,50.099,12.119,50.099,13.004z
		 M32.118,15.14c-0.013,0.4,0.198,0.671,0.504,0.899c1.05,0.781,2.095,1.568,3.142,2.354c0.861,0.646,1.292,0.554,1.834-0.394
		c2.261-3.956,4.522-7.911,6.783-11.867c0.442-0.773,0.399-1.272-0.135-1.581c-0.528-0.305-0.989-0.083-1.431,0.689
		c-2.083,3.644-4.172,7.284-6.238,10.938c-0.208,0.367-0.341,0.345-0.63,0.118c-0.771-0.605-1.555-1.198-2.353-1.769
		C32.97,14.079,32.186,14.42,32.118,15.14z"/>
	<path fill-rule="evenodd" clip-rule="evenodd" fill="#C2CFCF" d="M-0.247,46.633c0.241-0.371,0.251-0.823,0.43-1.219
		c0.496-1.093,1.254-1.939,2.283-2.555c1.584-0.946,3.169-1.894,4.745-2.854c0.226-0.139,0.331-0.156,0.478,0.103
		c1.896,3.336,3.804,6.666,5.708,9.998c0.015,0.026,0.014,0.061,0.035,0.165c-4.57,0-9.124,0-13.679,0
		C-0.247,49.058-0.247,47.845-0.247,46.633z"/>
	<path fill-rule="evenodd" clip-rule="evenodd" fill="#C2CFCF" d="M19.054,5.335c0.849,0.049,2.097-0.116,3.335,0.088
		c1.141,0.188,2.137,0.68,3.027,1.413c0.24,0.198,0.279,0.371,0.187,0.66c-1.199,3.757-0.8,7.356,1.108,10.794
		c0.406,0.731,0.88,1.421,1.451,2.033c0.278,0.297,0.413,0.605,0.369,1.011c-0.027,0.259-0.021,0.525-0.002,0.786
		c0.076,1.052-0.21,1.958-0.968,2.725c-0.454,0.459-0.716,1.047-0.873,1.677c-0.435,1.745-1.117,3.378-2.195,4.83
		c-0.334,0.45-0.481,0.952-0.466,1.517c0.019,0.704-0.005,1.409,0.01,2.113c0.005,0.23-0.071,0.347-0.281,0.436
		c-1.624,0.686-3.245,1.379-4.864,2.078c-0.178,0.077-0.322,0.087-0.507,0.007c-1.617-0.702-3.238-1.396-4.863-2.079
		c-0.239-0.1-0.3-0.233-0.294-0.477c0.016-0.704-0.008-1.409,0.01-2.113c0.014-0.548-0.135-1.034-0.457-1.469
		c-1.057-1.426-1.75-3.019-2.17-4.734c-0.184-0.748-0.519-1.416-1.05-1.967c-0.607-0.63-0.841-1.376-0.825-2.233
		c0.016-0.819,0.009-1.639,0.002-2.458c-0.005-0.599,0.094-1.172,0.377-1.704c0.403-0.757,0.536-1.568,0.535-2.417
		c-0.001-1.556-0.029-3.114,0.032-4.668c0.122-3.108,2.828-5.758,5.933-5.844C16.629,5.311,17.645,5.335,19.054,5.335z"/>
	<path fill-rule="evenodd" clip-rule="evenodd" fill="#C2CFCF" d="M23.778,50.271c1.205-2.109,2.361-4.135,3.519-6.159
		c0.745-1.305,1.5-2.604,2.233-3.915c0.153-0.273,0.247-0.369,0.567-0.172c1.528,0.945,3.077,1.857,4.617,2.782
		c1.868,1.123,2.807,2.771,2.798,4.954c-0.003,0.688-0.022,1.376,0.009,2.063c0.016,0.36-0.072,0.459-0.448,0.457
		c-3.34-0.017-6.681-0.01-10.021-0.01C25.991,50.271,24.93,50.271,23.778,50.271z"/>
	<path fill-rule="evenodd" clip-rule="evenodd" fill="#C2CFCF" d="M10.001,40.55c0.22-0.037,0.34,0.097,0.477,0.171
		c1.306,0.708,2.611,1.419,3.913,2.135c0.377,0.207,0.753,0.333,1.145,0.052c0.131-0.095,0.229-0.107,0.312,0.049
		c0.008,0.014,0.018,0.027,0.028,0.04c0.874,1.038,0.875,1.038,0.399,2.309c-0.457,1.222-0.915,2.443-1.406,3.753
		C13.224,46.182,11.618,43.375,10.001,40.55z"/>
	<path fill-rule="evenodd" clip-rule="evenodd" fill="#C2CFCF" d="M22.399,49.06c-0.611-1.624-1.189-3.164-1.771-4.703
		c-0.065-0.172-0.044-0.308,0.075-0.449c0.147-0.174,0.277-0.363,0.412-0.549c0.23-0.318,0.408-0.673,0.92-0.332
		c0.278,0.186,0.594-0.044,0.866-0.191c1.305-0.71,2.608-1.42,3.913-2.129c0.109-0.06,0.219-0.118,0.418-0.106
		C25.636,43.393,24.041,46.186,22.399,49.06z"/>
	<path fill-rule="evenodd" clip-rule="evenodd" fill="#C2CFCF" d="M17.082,38.894c-0.709,0.701-1.362,1.345-2.013,1.99
		c-0.11,0.108-0.197,0.187-0.376,0.088c-1.556-0.857-3.118-1.705-4.756-2.598c0.824-0.493,1.589-0.946,2.347-1.41
		c0.124-0.076,0.21-0.032,0.316,0.014C14.069,37.607,15.54,38.234,17.082,38.894z"/>
	<path fill-rule="evenodd" clip-rule="evenodd" fill="#C2CFCF" d="M20.214,38.884c1.521-0.649,3.007-1.28,4.487-1.923
		c0.15-0.065,0.247-0.021,0.359,0.047c0.726,0.438,1.451,0.878,2.168,1.312c0.023,0.159-0.107,0.166-0.182,0.207
		c-1.445,0.793-2.896,1.575-4.337,2.376c-0.243,0.135-0.385,0.121-0.581-0.085C21.521,40.177,20.888,39.561,20.214,38.884z"/>
	<path fill-rule="evenodd" clip-rule="evenodd" fill="#C2CFCF" d="M20.925,50.257c-1.56,0-3.045,0-4.585,0
		c0.406-1.078,0.802-2.127,1.195-3.177c0.246-0.656,0.49-1.313,0.729-1.973c0.064-0.176,0.161-0.252,0.359-0.243
		c0.179,0.008,0.301,0.028,0.373,0.223C19.627,46.796,20.268,48.503,20.925,50.257z"/>
	<path fill-rule="evenodd" clip-rule="evenodd" fill="#C2CFCF" d="M18.605,43.071c-0.329,0.092-0.512-0.078-0.68-0.332
		c-0.279-0.42-0.812-0.821-0.814-1.233c-0.003-0.422,0.623-0.733,0.971-1.095c0.544-0.563,0.553-0.559,1.113,0.007
		c0.344,0.349,0.91,0.672,0.962,1.063c0.058,0.429-0.532,0.803-0.796,1.229C19.179,43.005,18.959,43.171,18.605,43.071z"/>
</g>
</svg>
