<?xml version="1.0" encoding="utf-8"?>
<!-- Generator: Adobe Illustrator 16.0.0, SVG Export Plug-In . SVG Version: 6.00 Build 0)  -->
<!DOCTYPE svg PUBLIC "-//W3C//DTD SVG 1.1//EN" "http://www.w3.org/Graphics/SVG/1.1/DTD/svg11.dtd">
<svg version="1.1" id="Layer_1" xmlns="http://www.w3.org/2000/svg" xmlns:xlink="http://www.w3.org/1999/xlink" x="0px" y="0px"
	 width="100px" height="100px" viewBox="0 0 100 100" enable-background="new 0 0 100 100" xml:space="preserve">
<path display="none" fill="#E86481" d="M8.767,73.18c0-15.463,0-30.926,0-46.388c0.128-0.018,0.153-0.115,0.19-0.219
	c1.416-3.984,3.671-5.58,7.884-5.58c16.122,0,32.244,0,48.365,0c6.224,0,12.446-0.01,18.67,0.004
	c3.442,0.008,6.173,2.11,7.125,5.413c0.052,0.181-0.049,0.453,0.231,0.543c0,15.409,0,30.818,0,46.227
	c-0.176,0.021-0.172,0.174-0.213,0.295c-1.297,3.797-3.688,5.504-7.701,5.504c-9.174,0-18.353,0-27.523,0
	c-13.198,0-26.397,0.004-39.595-0.004c-3.444-0.002-6.136-2.009-7.15-5.269C8.993,73.521,9.035,73.26,8.767,73.18z M82.816,26.035
	c-0.043-0.056-0.088-0.111-0.131-0.167c-21.797,0-43.596,0-65.393,0c-0.049,0.063-0.098,0.125-0.146,0.188
	c0.198,0.129,0.426,0.229,0.59,0.393c9.988,10.009,19.971,20.023,29.956,30.037c1.552,1.557,3.054,1.563,4.595,0.02
	c7.162-7.181,14.313-14.37,21.485-21.542C76.773,31.969,79.803,29.01,82.816,26.035z M17.05,74.096c22.072,0,43.868,0,65.722,0
	c-0.092-0.119-0.131-0.186-0.184-0.238c-6.648-6.67-13.303-13.336-19.938-20.021c-0.414-0.419-0.604-0.284-0.93,0.048
	c-2.035,2.064-4.089,4.112-6.135,6.164c-3.234,3.246-7.951,3.241-11.184-0.009c-1.987-1.998-3.992-3.978-5.954-5.999
	c-0.48-0.495-0.738-0.582-1.281-0.031c-4.787,4.852-9.605,9.672-14.425,14.49C20.911,70.334,19.045,72.137,17.05,74.096z
	 M13.658,29.396c0,13.71,0,27.506,0,41.4c0.7-0.706,1.32-1.335,1.944-1.962c6.083-6.102,12.163-12.209,18.262-18.295
	c0.444-0.443,0.466-0.68,0-1.11c-0.927-0.854-1.789-1.779-2.685-2.667C25.33,40.962,19.478,35.163,13.658,29.396z M86.376,29.316
	c-0.051-0.034-0.103-0.068-0.153-0.102c-0.17,0.203-0.328,0.418-0.514,0.605c-6.496,6.522-12.988,13.046-19.506,19.547
	c-0.492,0.49-0.52,0.721-0.01,1.229c6.574,6.555,13.125,13.137,19.675,19.719c0.139,0.143,0.212,0.349,0.315,0.521
	c0.063-0.061,0.129-0.115,0.188-0.174C86.376,56.879,86.376,43.098,86.376,29.316z"/>
<g>
	<path fill-rule="evenodd" clip-rule="evenodd" fill="#C2CFCF" d="M9.492,33.25c0.378-0.574,0.934-0.919,1.52-1.251
		c3.583-2.024,7.149-4.078,10.74-6.088c0.502-0.281,0.636-0.603,0.633-1.145c-0.022-3.664-0.014-7.329-0.011-10.993
		c0.001-1.507,0.549-2.05,2.067-2.052c2.552-0.003,5.103-0.005,7.654,0.001c1.394,0.003,1.97,0.583,1.975,1.98
		c0.006,1.674,0.001,3.348,0.001,5.033c0.387,0.021,0.61-0.206,0.856-0.345c3.65-2.071,7.303-4.138,10.932-6.244
		c0.844-0.49,1.577-0.516,2.427-0.025c3.704,2.139,7.427,4.245,11.147,6.355c0.614,0.349,1.14,0.754,1.192,1.524
		c0.042,0.617-0.2,1.126-0.716,1.461c-0.634,0.41-1.274,0.326-1.916-0.042c-2.653-1.521-5.314-3.031-7.973-4.545
		c-0.8-0.456-1.605-0.901-2.395-1.375c-0.355-0.213-0.635-0.243-1.029-0.018c-11.119,6.351-22.246,12.687-33.376,19.016
		c-0.308,0.175-0.488,0.332-0.482,0.731c0.026,1.682,0.011,3.364,0.011,5.053c0.328,0.067,0.516-0.166,0.736-0.292
		c10.757-6.168,21.516-12.332,32.256-18.529c0.966-0.558,1.745-0.548,2.709,0.008c10.739,6.198,21.498,12.361,32.251,18.534
		c0.736,0.423,0.738,0.422,0.739-0.436c0.002-1.33-0.03-2.661,0.015-3.989c0.021-0.586-0.15-0.908-0.679-1.204
		c-3.31-1.848-6.591-3.747-9.89-5.612c-0.728-0.412-1.198-0.954-1.056-1.826c0.198-1.207,1.409-1.702,2.58-1.046
		c2.503,1.403,4.992,2.832,7.486,4.25c1.247,0.709,2.484,1.436,3.742,2.125c0.717,0.393,1.063,0.963,1.063,1.774
		c-0.005,2.986,0.012,5.972-0.008,8.957c-0.011,1.605-1.276,2.302-2.693,1.504c-1.452-0.819-2.895-1.655-4.445-2.543
		c0,2.565,0.01,4.999-0.009,7.432c-0.003,0.444,0.236,0.441,0.556,0.483c7.077,0.935,12.716,6.044,14.336,13.036
		c1.013,4.371,0.402,8.564-1.93,12.372c-3.154,5.15-6.454,10.215-9.766,15.268c-2.396,3.653-7.315,3.597-9.709-0.081
		c-3.223-4.95-6.402-9.928-9.563-14.916c-0.315-0.497-0.638-0.608-1.163-0.608c-13.789,0.011-27.578,0.009-41.366,0.008
		c-1.852,0-2.3-0.449-2.3-2.304c0-9.88,0-19.76,0-29.64c0-0.298,0-0.597,0-0.954c-0.666,0.173-1.168,0.588-1.723,0.89
		c-0.809,0.439-1.6,0.911-2.399,1.368c-1.461,0.836-1.974,0.755-3.029-0.474C9.492,40.307,9.492,36.778,9.492,33.25z M19.902,55.815
		c0,5.047,0.012,10.095-0.016,15.143c-0.003,0.611,0.147,0.752,0.753,0.749c6.106-0.024,12.212-0.024,18.318-0.001
		c0.586,0.003,0.71-0.165,0.698-0.721c-0.038-1.682-0.014-3.364-0.014-5.047c0-3.908-0.004-7.816,0.003-11.724
		c0.002-1.179,0.598-1.895,1.651-1.9c3.854-0.021,7.707-0.01,11.561-0.008c0.726,0.001,1.248,0.354,1.539,1.004
		c0.167,0.375,0.134,0.797,0.134,1.205c-0.001,5.482,0.012,10.965-0.018,16.446c-0.003,0.625,0.165,0.771,0.762,0.744
		c1.138-0.05,2.279-0.015,3.419-0.015c0.996,0,0.996,0,0.758-0.954c-2.437-9.754,4.293-19.615,14.26-20.864
		c0.516-0.064,0.6-0.26,0.597-0.713c-0.017-2.822-0.021-5.645,0.005-8.467c0.004-0.481-0.169-0.715-0.568-0.944
		c-8.692-4.976-17.378-9.962-26.056-14.961c-0.423-0.244-0.725-0.265-1.163-0.012c-8.676,5.003-17.361,9.99-26.055,14.962
		c-0.441,0.252-0.579,0.523-0.577,1.016C19.909,45.774,19.902,50.794,19.902,55.815z M89.664,66.744
		c-0.061-0.62-0.105-1.241-0.184-1.859c-1.122-8.869-10.637-14.324-18.842-10.798c-7.304,3.139-11.294,12.267-5.979,20.445
		c3.04,4.678,6.024,9.392,9.044,14.082c1.186,1.842,3.234,1.844,4.421,0.002c3.051-4.735,6.081-9.483,9.133-14.218
		C88.762,72.064,89.606,69.537,89.664,66.744z M51.27,63.65c0-2.47-0.012-4.939,0.009-7.409c0.005-0.495-0.074-0.704-0.651-0.694
		c-2.361,0.038-4.723,0.034-7.083,0.001c-0.557-0.007-0.658,0.178-0.656,0.687c0.018,4.939,0.017,9.879,0.001,14.818
		c-0.001,0.469,0.068,0.661,0.606,0.654c2.388-0.032,4.777-0.031,7.165-0.001c0.522,0.006,0.624-0.163,0.62-0.646
		C51.257,68.59,51.27,66.12,51.27,63.65z M25.63,23.682c1.709-0.976,3.294-1.892,4.894-2.784c0.31-0.173,0.29-0.416,0.29-0.686
		c-0.001-1.544-0.013-3.088,0.008-4.632c0.005-0.426-0.067-0.626-0.562-0.614c-1.354,0.033-2.709,0.031-4.063,0
		c-0.478-0.011-0.578,0.159-0.575,0.602C25.64,18.224,25.63,20.878,25.63,23.682z"/>
	<path fill-rule="evenodd" clip-rule="evenodd" fill="#C2CFCF" d="M66.989,23.706c0.017,0.909-0.725,1.673-1.617,1.666
		c-0.867-0.006-1.608-0.729-1.628-1.586c-0.02-0.872,0.678-1.612,1.548-1.645C66.226,22.107,66.974,22.796,66.989,23.706z"/>
	<path fill-rule="evenodd" clip-rule="evenodd" fill="#C2CFCF" d="M40.414,39.08c-0.006-3.703,2.942-6.67,6.644-6.686
		c3.726-0.017,6.74,2.988,6.726,6.703c-0.014,3.654-3.053,6.68-6.702,6.671C43.414,45.76,40.42,42.756,40.414,39.08z M43.672,39.046
		c-0.008,1.913,1.542,3.476,3.436,3.463c1.856-0.012,3.405-1.561,3.417-3.418c0.013-1.904-1.536-3.447-3.454-3.438
		C45.173,35.661,43.68,37.151,43.672,39.046z"/>
	<path fill-rule="evenodd" clip-rule="evenodd" fill="#C2CFCF" d="M75.877,74.974c-4.608-0.02-8.289-3.745-8.262-8.361
		c0.027-4.555,3.755-8.265,8.303-8.262c4.57,0.003,8.331,3.773,8.321,8.343C84.229,71.281,80.479,74.994,75.877,74.974z
		 M75.945,71.716c2.8-0.013,5.062-2.3,5.034-5.092c-0.026-2.744-2.307-5.009-5.053-5.016c-2.784-0.007-5.058,2.276-5.054,5.076
		C70.877,69.498,73.125,71.729,75.945,71.716z"/>
</g>
</svg>
