<?xml version="1.0" encoding="utf-8"?>
<!-- Generator: Adobe Illustrator 16.0.0, SVG Export Plug-In . SVG Version: 6.00 Build 0)  -->
<!DOCTYPE svg PUBLIC "-//W3C//DTD SVG 1.1//EN" "http://www.w3.org/Graphics/SVG/1.1/DTD/svg11.dtd">
<svg version="1.1" id="Layer_1" xmlns="http://www.w3.org/2000/svg" xmlns:xlink="http://www.w3.org/1999/xlink" x="0px" y="0px"
	 width="100px" height="100px" viewBox="0 0 100 100" enable-background="new 0 0 100 100" xml:space="preserve">
<path display="none" fill="#E86481" d="M8.767,73.18c0-15.463,0-30.926,0-46.388c0.128-0.018,0.153-0.115,0.19-0.219
	c1.416-3.984,3.671-5.58,7.884-5.58c16.122,0,32.244,0,48.365,0c6.224,0,12.446-0.01,18.67,0.004
	c3.442,0.008,6.173,2.11,7.125,5.413c0.052,0.181-0.049,0.453,0.231,0.543c0,15.409,0,30.818,0,46.227
	c-0.176,0.021-0.172,0.174-0.213,0.295c-1.297,3.797-3.688,5.504-7.701,5.504c-9.174,0-18.354,0-27.523,0
	c-13.198,0-26.397,0.004-39.595-0.004c-3.444-0.002-6.136-2.009-7.15-5.269C8.993,73.521,9.035,73.26,8.767,73.18z M82.816,26.035
	c-0.043-0.056-0.088-0.111-0.131-0.167c-21.797,0-43.597,0-65.394,0c-0.049,0.063-0.098,0.125-0.146,0.188
	c0.198,0.129,0.426,0.229,0.59,0.393c9.988,10.009,19.971,20.023,29.956,30.037c1.552,1.557,3.054,1.563,4.595,0.02
	c7.162-7.181,14.313-14.37,21.484-21.542C76.773,31.969,79.803,29.01,82.816,26.035z M17.05,74.096c22.072,0,43.868,0,65.722,0
	c-0.092-0.119-0.131-0.186-0.184-0.238c-6.648-6.67-13.303-13.336-19.938-20.021c-0.414-0.419-0.604-0.284-0.93,0.048
	c-2.035,2.064-4.09,4.112-6.136,6.164c-3.233,3.246-7.951,3.241-11.184-0.009c-1.987-1.998-3.992-3.978-5.954-5.999
	c-0.48-0.495-0.738-0.582-1.281-0.031c-4.787,4.852-9.605,9.672-14.425,14.49C20.911,70.334,19.045,72.137,17.05,74.096z
	 M13.658,29.396c0,13.71,0,27.506,0,41.4c0.7-0.706,1.32-1.335,1.944-1.962c6.083-6.102,12.163-12.209,18.262-18.295
	c0.444-0.443,0.466-0.68,0-1.11c-0.927-0.854-1.789-1.779-2.685-2.667C25.33,40.962,19.478,35.163,13.658,29.396z M86.376,29.316
	c-0.051-0.034-0.103-0.068-0.153-0.102c-0.17,0.203-0.328,0.418-0.514,0.605c-6.496,6.522-12.988,13.046-19.506,19.547
	c-0.492,0.49-0.52,0.721-0.01,1.229c6.574,6.555,13.125,13.137,19.675,19.719c0.139,0.144,0.212,0.35,0.315,0.521
	c0.063-0.061,0.129-0.115,0.188-0.174C86.376,56.879,86.376,43.098,86.376,29.316z"/>
<g>
	<path fill="#C2CFCF" d="M53.818,9.424c0.9,0.37,1.873,0.3,2.813,0.436c6.719,0.981,12.842,3.438,18.403,7.318
		c0.132,0.091,0.278,0.162,0.481,0.279c-0.09-0.96-0.164-1.843-0.254-2.723c-0.152-1.522,0.848-2.801,2.305-2.934
		c1.354-0.124,2.531,0.913,2.674,2.399c0.273,2.853,0.541,5.706,0.785,8.562c0.154,1.799-0.711,2.831-2.508,3.063
		c-2.843,0.364-5.685,0.732-8.523,1.098c-1.489,0.192-2.78-0.747-2.967-2.154c-0.188-1.421,0.804-2.626,2.316-2.823
		c0.963-0.125,1.922-0.26,2.883-0.394c0.017-0.002,0.027-0.046,0.08-0.138c-1.494-1.127-3.106-2.08-4.783-2.921
		C46.598,7.986,21.386,18.683,14.389,41.029c-4.658,14.877,0.513,31.354,12.847,40.917c7.37,5.716,15.743,8.371,25.032,7.963
		c17.112-0.756,31.58-13.088,35.137-29.835c0.552-2.591,0.805-5.216,0.837-7.866c0.015-1.212,0.759-2.124,1.901-2.438
		c0.987-0.269,2.115,0.167,2.685,1.061c0.172,0.27,0.282,0.577,0.421,0.865c0,1.336,0,2.672,0,4.008
		c-0.264,0.093-0.155,0.326-0.174,0.498c-0.167,1.578-0.376,3.15-0.705,4.701c-3.736,17.66-17.816,30.918-35.658,33.613
		c-0.965,0.145-1.961,0.098-2.893,0.451c-2.284,0-4.567,0-6.852,0c-0.094-0.262-0.324-0.156-0.498-0.174
		c-1.856-0.188-3.699-0.467-5.517-0.88c-17.125-3.888-30.27-18.097-32.79-35.401c-0.129-0.882-0.05-1.806-0.459-2.642
		c0-2.396,0-4.789,0-7.185c0.221-0.07,0.151-0.264,0.171-0.416c0.159-1.157,0.283-2.319,0.478-3.471
		c3.031-17.992,17.705-32.286,35.804-34.916c0.938-0.136,1.912-0.078,2.811-0.46C49.251,9.424,51.534,9.424,53.818,9.424z"/>
	<path fill="#C2CFCF" d="M58.771,54.682c-0.932,0-1.765,0.012-2.597-0.004c-1.519-0.023-2.667-1.133-2.646-2.537
		c0.021-1.396,1.127-2.453,2.619-2.467c1.809-0.018,3.617-0.021,5.427,0.002c1.44,0.018,2.536,1.012,2.541,2.441
		c0.011,3.082-0.731,5.953-2.772,8.361c-3.244,3.832-9.033,4.627-13.681,1.905c-4.722-2.765-6.959-8.327-5.424-13.489
		c1.582-5.315,6.439-8.801,11.938-8.533c2.092,0.102,4.036,0.722,5.801,1.872c1.311,0.853,1.688,2.304,0.932,3.531
		c-0.745,1.206-2.28,1.559-3.579,0.714c-3.87-2.521-9.007-0.563-10.253,3.731c-0.743,2.56-0.181,4.87,1.712,6.753
		c1.813,1.805,4.036,2.439,6.515,1.729C57.248,58.132,58.218,56.624,58.771,54.682z"/>
	<path fill="#C2CFCF" d="M38.941,61.326c0.01,1.367-0.781,2.361-1.963,2.648c-1.122,0.272-2.322-0.304-2.814-1.416
		c-0.358-0.812-0.652-1.649-0.94-2.49c-0.144-0.418-0.336-0.613-0.826-0.605c-2.197,0.029-4.395,0.028-6.592,0
		c-0.48-0.007-0.688,0.168-0.834,0.596c-0.267,0.787-0.567,1.563-0.886,2.332c-0.569,1.367-1.972,1.99-3.271,1.478
		c-1.255-0.496-1.906-1.908-1.403-3.239c2.313-6.12,4.646-12.231,6.99-18.34c0.465-1.212,1.412-1.832,2.703-1.871
		c1.223-0.037,2.306,0.689,2.769,1.908c2.313,6.091,4.603,12.189,6.896,18.289C38.874,60.895,38.912,61.202,38.941,61.326z
		 M29.114,49.219c-0.668,1.745-1.259,3.288-1.854,4.831c-0.138,0.36,0.031,0.427,0.349,0.423c0.971-0.011,1.945-0.029,2.915,0.006
		c0.526,0.021,0.528-0.183,0.375-0.576C30.321,52.407,29.756,50.906,29.114,49.219z"/>
	<path fill="#C2CFCF" d="M68.926,52.229c0-2.922-0.004-5.848,0-8.771c0.004-2.018,0.951-2.961,2.965-2.963
		c2.366-0.002,4.733-0.007,7.1,0.002c1.617,0.006,2.738,1.052,2.729,2.519c-0.012,1.462-1.142,2.484-2.761,2.492
		c-1.479,0.006-2.954,0.02-4.429-0.01c-0.477-0.009-0.617,0.127-0.6,0.604c0.035,1.001,0.033,2.005,0,3.006
		c-0.016,0.464,0.107,0.628,0.594,0.616c1.281-0.034,2.563-0.016,3.844-0.01c1.617,0.006,2.76,1.031,2.779,2.484
		c0.02,1.452-1.117,2.514-2.726,2.524c-1.28,0.01-2.563,0.029-3.842-0.01c-0.529-0.014-0.668,0.158-0.649,0.664
		c0.035,1.001,0.031,2.005,0,3.006c-0.013,0.45,0.15,0.565,0.577,0.563c1.56-0.021,3.119-0.038,4.679,0.003
		c1.323,0.032,2.313,0.917,2.513,2.137c0.185,1.136-0.515,2.293-1.625,2.713c-0.375,0.142-0.763,0.152-1.152,0.153
		c-2.396,0.002-4.788,0.008-7.183-0.002c-1.842-0.008-2.805-0.991-2.813-2.863C68.918,58.131,68.926,55.18,68.926,52.229z"/>
</g>
</svg>
