<?xml version="1.0" encoding="utf-8"?>
<!-- Generator: Adobe Illustrator 16.0.0, SVG Export Plug-In . SVG Version: 6.00 Build 0)  -->
<!DOCTYPE svg PUBLIC "-//W3C//DTD SVG 1.1//EN" "http://www.w3.org/Graphics/SVG/1.1/DTD/svg11.dtd">
<svg version="1.1" id="Layer_1" xmlns="http://www.w3.org/2000/svg" xmlns:xlink="http://www.w3.org/1999/xlink" x="0px" y="0px"
	 width="100px" height="100px" viewBox="0 0 100 100" enable-background="new 0 0 100 100" xml:space="preserve">
<g>
	<path fill-rule="evenodd" clip-rule="evenodd" fill="#020202" stroke="#000000" stroke-width="4" stroke-miterlimit="10" d="
		M68.991,95c-0.888-0.423-1.875-0.424-2.811-0.647c-9.59-2.282-16.927-10.685-17.896-20.542c-1.242-12.63,7.593-23.855,20.115-25.54
		c0.411-0.057,0.604-0.14,0.602-0.613c-0.015-7.293-0.01-14.586-0.01-21.888c-0.313-0.06-0.4,0.208-0.543,0.348
		c-1.84,1.803-3.654,3.632-5.505,5.426c-0.916,0.886-2.195,0.976-3.182,0.304c-1.052-0.716-1.459-1.983-1.003-3.127
		c0.164-0.413,0.452-0.733,0.761-1.042c3.359-3.355,6.713-6.717,10.075-10.069c1.308-1.304,2.696-1.307,4.019,0.007
		c3.345,3.328,6.68,6.667,10.011,10.01c1.271,1.275,1.335,2.783,0.197,3.895c-1.115,1.092-2.595,1.024-3.828-0.229
		c-1.859-1.889-3.691-3.807-5.535-5.714c-0.085,0.053-0.169,0.105-0.254,0.158c0,0.274,0,0.55,0,0.825
		c0,6.891,0.013,13.781-0.017,20.671c-0.004,0.752,0.178,0.975,0.959,1.089c10.384,1.514,18.561,9.87,19.904,20.279
		c0.019,0.136-0.019,0.296,0.175,0.341c0,1.68,0,3.359,0,5.038c-0.301,0.116-0.172,0.395-0.209,0.598
		c-1.854,10.097-7.697,16.648-17.504,19.647c-1.187,0.362-2.436,0.522-3.656,0.777C72.234,95,70.613,95,68.991,95z M71.639,53.131
		c-10.041-0.019-18.249,8.137-18.282,18.162C53.323,81.404,61.539,89.76,71.54,89.787c10.053,0.027,18.442-8.31,18.473-18.354
		C90.042,61.417,81.742,53.149,71.639,53.131z"/>
	<path fill-rule="evenodd" clip-rule="evenodd" fill="#020202" stroke="#000000" stroke-width="4" stroke-miterlimit="10" d="
		M32.16,6.048c1.312,0.385,2.681,0.488,4.002,0.855C47.06,9.93,54.424,20.749,53.222,32.011C52.07,42.81,43.86,51.283,33.082,52.776
		c-0.43,0.06-0.585,0.178-0.583,0.629c0.015,4.952,0.019,9.903-0.003,14.854c-0.002,0.548,0.271,0.511,0.638,0.509
		c2.289-0.007,4.575-0.005,6.862-0.002c1.773,0.002,2.934,1.037,2.934,2.604c-0.001,1.569-1.161,2.603-2.934,2.606
		c-2.229,0.005-4.459,0.024-6.688-0.014c-0.615-0.011-0.834,0.096-0.819,0.781c0.052,2.258,0.024,4.517,0.018,6.775
		c-0.005,1.708-1.041,2.861-2.572,2.88c-1.568,0.02-2.634-1.147-2.638-2.9c-0.004-2.288-0.018-4.575,0.012-6.862
		c0.007-0.525-0.109-0.682-0.659-0.674c-2.316,0.034-4.633,0.021-6.949,0.013c-1.681-0.006-2.836-1.088-2.826-2.625
		c0.009-1.53,1.167-2.58,2.865-2.585c2.288-0.006,4.575-0.021,6.862,0.013c0.571,0.009,0.71-0.148,0.708-0.711
		c-0.024-4.808-0.025-9.614,0-14.42c0.003-0.611-0.124-0.816-0.779-0.896c-9.884-1.213-18.374-9.45-19.939-19.274
		c-0.063-0.398,0.017-0.86-0.317-1.195c0-1.737,0-3.476,0-5.213c0.342-0.397,0.264-0.908,0.336-1.367
		C8.029,16.707,15.512,8.733,24.401,6.71c1.02-0.233,2.087-0.254,3.067-0.662C29.032,6.048,30.597,6.048,32.16,6.048z
		 M48.143,29.653c-0.011-10.106-8.271-18.413-18.287-18.392c-10.044,0.021-18.385,8.397-18.369,18.451
		c0.015,10.003,8.366,18.234,18.473,18.206C39.99,47.89,48.152,39.691,48.143,29.653z"/>
</g>
</svg>
