<?xml version="1.0" encoding="utf-8"?>
<!-- Generator: Adobe Illustrator 16.0.0, SVG Export Plug-In . SVG Version: 6.00 Build 0)  -->
<!DOCTYPE svg PUBLIC "-//W3C//DTD SVG 1.1//EN" "http://www.w3.org/Graphics/SVG/1.1/DTD/svg11.dtd">
<svg version="1.1" id="Layer_1" xmlns="http://www.w3.org/2000/svg" xmlns:xlink="http://www.w3.org/1999/xlink" x="0px" y="0px"
	 width="250px" height="250px" viewBox="0 0 250 250" enable-background="new 0 0 250 250" xml:space="preserve">
<path fill-rule="evenodd" clip-rule="evenodd" fill="#040303" d="M149.021,228.365c-34.434,0-68.867,0-103.301,0
	c-0.324-0.615-1.013-0.536-1.526-0.779c-3.854-1.823-6-4.843-6.048-9.101c-0.089-7.796-0.077-15.595-0.004-23.392
	c0.056-5.979,4.075-11.038,9.856-12.566c2.371-0.627,4.765-0.83,6.924,0.659c0.741,0.511,1.137,0.417,1.576-0.296
	c0.312-0.508,0.699-0.972,1.073-1.438c2.9-3.623,6.596-6.209,10.949-8.124c-0.553-0.402-0.925-0.677-1.301-0.945
	c-8.68-6.208-14.997-14.258-18.857-24.216c-0.737-1.9-0.881-4.643-2.248-5.523c-1.515-0.978-4.119-0.282-6.25-0.284
	c-8.064-0.008-11.802-2.622-14.665-10.266c-0.037-0.099-0.197-0.149-0.3-0.223c0-1.869,0-3.737,0-5.605
	c0.135-0.124,0.335-0.223,0.396-0.376c2.854-7.291,6.772-9.984,14.549-9.987c5.096-0.001,5.051,0,4.937-5.144
	c-0.026-1.192-0.44-1.445-1.507-1.4c-1.664,0.071-3.336,0.07-5,0.001c-3.982-0.164-6.591-2.747-6.739-6.706
	c-0.08-2.131-0.07-4.27-0.005-6.401c0.112-3.628,2.124-6.065,5.67-6.664c1.096-0.185,1.345-0.574,1.463-1.568
	c0.636-5.358,1.026-10.772,2.092-16.048c4.377-21.678,20.363-37.158,42.433-41.394c0.512-0.098,1.225-0.014,1.23-0.729
	c0.025-3.229,2.188-4.916,4.545-6.485c5.605,0,11.211,0,16.816,0c2.8,1.161,4.824,2.986,5.079,6.201
	c0.091,1.145,0.902,0.932,1.575,1.055c10.3,1.883,19.26,6.407,26.873,13.606c3.943,3.73,7.16,8.025,9.935,12.889
	c1.552-1.585,3.046-3.018,4.423-4.554c0.737-0.822,1.181-0.702,1.875,0.03c1.698,1.791,3.513,3.471,5.21,5.262
	c1.192,1.26,2.498,2.071,4.241,1.386c1.759-0.691,2.136-2.174,2.087-3.92c-0.067-2.4,0.036-4.806-0.04-7.205
	c-0.036-1.134,0.135-1.627,1.478-1.615c7.873,0.072,15.747,0.062,23.62,0.007c1.191-0.008,1.425,0.402,1.395,1.478
	c-0.07,2.534-0.001,5.071-0.03,7.606c-0.019,1.601,0.457,2.921,2.002,3.59c1.623,0.703,2.953,0.133,4.127-1.088
	c2.075-2.162,4.191-4.285,6.381-6.518c6.033,6.063,11.895,11.992,17.817,17.86c0.869,0.862,0.636,1.291-0.104,1.994
	c-1.836,1.747-3.565,3.605-5.404,5.349c-1.251,1.186-1.761,2.54-1.1,4.135c0.643,1.554,2.023,2.009,3.602,2.006
	c2.536-0.004,5.073,0.044,7.606-0.022c1.045-0.027,1.516,0.127,1.507,1.364c-0.06,7.94-0.051,15.881-0.006,23.821
	c0.006,1.089-0.355,1.342-1.376,1.317c-2.668-0.065-5.339,0.015-8.007-0.034c-1.577-0.029-2.767,0.556-3.35,2.012
	c-0.573,1.429-0.222,2.719,0.912,3.821c1.818,1.767,3.51,3.672,5.413,5.34c1.209,1.06,0.94,1.621-0.064,2.606
	c-5.098,4.998-10.084,10.11-15.194,15.095c-1.152,1.124-1.569,2.244-1.565,3.835c0.049,24.155,0.043,48.31,0.027,72.465
	c-0.004,6.148-3.227,10.954-8.516,12.998c-0.903,0.35-1.94,0.189-2.74,0.828c-1.602,0-3.203,0-4.805,0
	c-0.061-0.314-0.314-0.357-0.568-0.451c-6.812-2.493-9.81-6.792-9.813-14.062c-0.003-5.336,0-10.672,0-16.008
	c0-16.74-0.023-33.48,0.037-50.221c0.006-1.567-0.393-2.011-1.956-1.949c-3.196,0.127-6.403-0.039-9.602,0.073
	c-1.452,0.051-1.81-0.445-1.729-1.805c0.112-1.879,0.028-3.77,0.028-6.065c-3.417,3.527-7.208,4.744-11.559,4.493
	c-1.596-0.093-3.21,0.092-4.799-0.046c-1.461-0.128-2.05,0.407-2.455,1.807c-2.974,10.268-8.655,18.793-16.83,25.659
	c-1.448,1.217-2.979,2.335-4.59,3.59c5.006,2.142,9.013,5.25,12.014,9.578c0.524,0.756,0.882,0.676,1.569,0.202
	c1.425-0.98,3.048-1.215,4.772-1.012c6.915,0.815,11.816,6.042,11.911,13.02c0.106,7.802,0.023,15.606,0.028,23.409
	c0.001,1.995-0.613,3.785-1.693,5.447C153.898,226.379,151.534,227.478,149.021,228.365z M143.895,121.953
	c0-3.469-0.093-6.943,0.039-10.407c0.063-1.686-0.286-2.233-2.13-2.217c-11.876,0.101-23.753,0.051-35.63,0.051
	c-17.548,0-35.097,0.034-52.644-0.049c-1.899-0.009-2.262,0.565-2.229,2.313c0.108,5.669,0.049,11.342,0.038,17.014
	c-0.005,2.809,0.233,5.59,0.714,8.358c3.713,21.369,21.586,37.221,43.334,38.416c21.03,1.155,40.469-12.671,46.629-33.06
	C144.041,135.67,143.972,128.823,143.895,121.953z M150.55,201.519c-1.515,0.172-2.881,0.427-4.286,0.426
	c-32.424-0.021-64.848-0.015-97.271-0.022c-0.864,0-1.78,0.075-2.581-0.175c-1.406-0.44-1.696,0.018-1.677,1.362
	c0.065,4.535,0.023,9.073,0.025,13.609c0.002,4.211,0.797,5.006,5.017,5.006c31.957,0.001,63.914,0.001,95.871,0
	c0.533,0,1.069,0.021,1.6-0.023c1.938-0.157,3.238-1.227,3.269-3.116C150.608,212.924,150.55,207.26,150.55,201.519z
	 M199.924,108.104c2.969-4.449,4.028-9.817,3.193-15.561c-1.486-10.24-10.017-18.369-20.437-19.478
	c-10.314-1.098-20.495,5.223-24.041,14.883c-0.402,1.097-0.604,1.818,0.925,2.088c0.976,0.173,1.769,0.896,2.455,1.647
	c2.633,2.878,2.614,12.628-0.032,15.494c-0.09,0.098-0.175,0.214-0.288,0.275c-1.204,0.658-0.769,1.393-0.152,2.199
	c5.059,6.619,11.701,9.849,20.068,9.532c1.382-0.052,2.062-0.473,2.514-1.874c2.777-8.606,5.667-17.176,8.547-25.749
	c0.239-0.712,0.21-1.596,1.022-2.084C195.753,95.624,197.796,101.735,199.924,108.104z M84.449,63.198
	c0-8.071-0.04-16.143,0.034-24.213c0.014-1.557-0.366-1.971-1.904-1.612c-14.847,3.47-25.572,12.036-32.143,25.809
	c-0.434,0.91-0.449,1.333,0.637,1.73c10.931,4.006,17.452,11.805,19.684,23.193c0.206,1.054,0.549,1.403,1.636,1.379
	c3.4-0.073,6.806-0.107,10.204,0.011c1.51,0.052,1.902-0.38,1.888-1.884C84.409,79.474,84.449,71.336,84.449,63.198z
	 M145.345,64.451c-0.932-2.513-2.176-4.789-3.595-6.963c-6.84-10.479-16.371-17.147-28.557-19.962
	c-0.763-0.176-2.305-1.316-2.301,0.992c0.031,16.538,0.025,33.077-0.005,49.615c-0.002,1.062,0.327,1.36,1.366,1.344
	c3.533-0.057,7.07-0.077,10.602,0.008c1.243,0.03,1.573-0.476,1.728-1.58c0.487-3.467,1.715-6.692,3.47-9.714
	C132.013,71.375,137.836,66.876,145.345,64.451z M206.927,130.396c2.431-2.476,4.524-4.818,6.85-6.903
	c1.475-1.322,1.334-2.046-0.027-3.368c-4.149-4.027-4.622-9.231-1.407-13.507c2.082-2.769,4.965-3.895,8.354-3.928
	c2.58-0.025,2.58-0.036,2.581-2.689c0-2.735-0.138-5.479,0.046-8.201c0.132-1.96-0.478-2.502-2.407-2.38
	c-4.161,0.263-7.396-1.468-9.409-5.166c-2.238-4.114-1.454-8.426,2.06-12.045c1.793-1.847,1.792-1.847-0.063-3.701
	c-1.98-1.98-4.071-3.866-5.903-5.977c-1.259-1.451-1.994-1.22-3.174,0.054c-2.908,3.143-6.461,4.38-10.674,2.998
	c-4.419-1.449-6.855-4.961-6.749-10.154c0.039-1.978-0.532-2.509-2.442-2.378c-2.522,0.173-5.066,0.043-7.601,0.043
	c-3.071,0-3.09-0.001-3.248,3.072c-0.224,4.332-2.187,7.54-6.236,9.188c-4.146,1.688-7.828,0.67-10.993-2.413
	c-0.43-0.419-0.854-0.842-1.283-1.262c-0.287-0.282-0.605-0.627-1.001-0.228c-1.02,1.03-2.436,1.771-1.536,3.767
	c0.782,1.738,1.198,3.666,1.591,5.548c0.569,2.735,0.972,5.504,1.479,8.459c0.825-1.017,1.452-1.874,2.164-2.653
	c7.33-8.04,16.464-11.562,27.167-9.804c22.547,3.704,32.551,29.813,18.461,47.821c-0.823,1.053-0.849,1.876-0.467,3.057
	C204.381,121.739,206.106,125.713,206.927,130.396z M104.221,59.831c0-9.263-0.047-18.526,0.042-27.789
	c0.017-1.706-0.479-2.13-2.116-2.063c-3.193,0.13-6.397,0.087-9.594,0.014c-1.232-0.028-1.573,0.382-1.571,1.595
	c0.034,18.792,0.038,37.585-0.006,56.377c-0.003,1.307,0.465,1.537,1.619,1.515c3.264-0.064,6.533-0.107,9.794,0.015
	c1.509,0.057,1.88-0.384,1.869-1.875C104.185,78.356,104.221,69.093,104.221,59.831z M97.588,102.686c18.478,0,36.955,0,55.433,0
	c4.103,0,3.989-0.004,4.146-4.191c0.073-1.947-0.475-2.399-2.402-2.396c-37.355,0.063-74.711,0.046-112.066,0.046
	c-4.59,0-4.507,0.002-4.62,4.504c-0.042,1.672,0.411,2.082,2.077,2.077C59.299,102.664,78.443,102.686,97.588,102.686z
	 M186.953,162.095c0,8.205,0.054,16.41-0.044,24.613c-0.021,1.722,0.498,2.108,2.12,2.042c3.196-0.132,6.403-0.093,9.604-0.012
	c1.235,0.031,1.57-0.354,1.567-1.576c-0.037-16.609-0.04-33.219,0.003-49.828c0.003-1.295-0.451-1.554-1.621-1.53
	c-3.268,0.068-6.54,0.111-9.804-0.015c-1.532-0.059-1.874,0.42-1.86,1.893C186.991,145.819,186.953,153.957,186.953,162.095z
	 M127.198,195.262c2.802,0,5.604-0.047,8.404,0.021c1.231,0.031,1.396-0.302,1.122-1.487c-1.799-7.796-9.61-15.142-17.379-16.143
	c-1.043-0.135-1.922,0.24-1.911,1.646c0.041,4.87,0.042,9.739-0.005,14.608c-0.01,1.048,0.323,1.394,1.365,1.373
	C121.595,195.226,124.397,195.262,127.198,195.262z M67.923,195.262c2.795,0,5.592-0.044,8.387,0.022
	c1.08,0.026,1.513-0.21,1.497-1.406c-0.066-4.792-0.015-9.585-0.034-14.378c-0.007-1.68-0.769-2.205-2.396-1.63
	c-1.752,0.618-3.513,1.233-5.202,2.001c-5.931,2.695-9.683,7.278-11.53,13.491c-0.425,1.432-0.183,2.025,1.491,1.937
	C62.726,195.161,65.327,195.262,67.923,195.262z M54.563,89.457c2.733,0,5.469-0.076,8.198,0.031c1.412,0.056,1.547-0.5,1.252-1.637
	c-2.071-7.968-6.865-13.505-14.548-16.571c-1.438-0.574-1.855-0.128-2.104,1.189c-0.981,5.176-1.339,10.432-2.055,15.641
	c-0.145,1.056,0.188,1.394,1.259,1.368C49.23,89.413,51.897,89.457,54.563,89.457z M140.438,89.457c2.797,0,5.595,0.008,8.392-0.006
	c0.616-0.003,1.355,0.218,1.19-0.96c-0.759-5.399-1.086-10.854-2.161-16.215c-0.255-1.271-0.709-1.499-1.88-1.041
	c-7.837,3.061-12.729,8.653-14.753,16.824c-0.325,1.315,0.142,1.435,1.22,1.415C135.108,89.424,137.773,89.457,140.438,89.457z
	 M186.95,212.625c0,0.733-0.013,1.467,0.002,2.2c0.08,4.04,2.732,6.861,6.485,6.908c3.726,0.046,6.564-2.766,6.728-6.723
	c0.063-1.53-0.081-3.073,0.042-4.598c0.118-1.463-0.304-2.025-1.858-1.942c-2.393,0.129-4.798,0.034-7.198,0.034
	C186.947,208.505,186.947,208.505,186.95,212.625z M44.76,129.994c0-0.755,0.012-0.955-0.002-1.154
	c-0.141-2.038,0.893-4.834-0.427-5.909c-1.258-1.024-3.944-0.353-6.001-0.328c-3.896,0.049-6.684,2.7-6.787,6.37
	c-0.105,3.731,2.671,6.652,6.586,6.828c1.928,0.087,3.864-0.039,5.792,0.048c1.184,0.053,1.267-0.421,1.139-1.427
	C44.85,132.774,44.827,131.103,44.76,129.994z M154.316,135.809c0.998,0,2,0.057,2.993-0.01c3.752-0.252,6.568-3.217,6.478-6.772
	c-0.094-3.631-2.938-6.347-6.766-6.43c-1.529-0.033-3.067,0.087-4.588-0.035c-1.43-0.115-1.988,0.232-1.904,1.811
	c0.132,2.452,0.086,4.925-0.071,7.378C150.197,135.83,150.136,135.826,154.316,135.809z M199.949,129.137
	c-2.128-6.379-4.182-12.531-6.422-19.245c-2.147,6.432-4.101,12.274-6.05,18.118c-0.222,0.665-0.225,1.145,0.725,1.138
	C192.047,129.122,195.891,129.137,199.949,129.137z M181.189,125.869c-4.179,0.116-7.958-0.763-11.871-2.1
	c0.828,2.649,0.871,5.201,2.847,7.13c0.983,0.961,1.16,2.487,1.444,3.879c0.288,1.41-0.612,3.408,0.552,4.101
	c1.14,0.678,2.985,0.095,4.508,0.224c1.334,0.112,1.625-0.367,1.649-1.652C180.39,133.673,179.742,129.841,181.189,125.869z
	 M193.483,201.93c0.532,0,1.063,0,1.596,0c5.392,0,5.357,0.002,5.131-5.343c-0.045-1.064-0.387-1.371-1.4-1.346
	c-2.259,0.056-4.521,0.017-6.78,0.017c-5.348,0-5.312-0.001-5.119,5.388c0.038,1.084,0.385,1.345,1.389,1.304
	C190.024,201.878,191.755,201.93,193.483,201.93z M110.901,181.413c-0.133-0.057-0.266-0.114-0.398-0.172
	c-0.703,0.872-1.408,1.742-2.108,2.616c-2.242,2.8-4.447,5.631-6.746,8.384c-0.682,0.816-0.909,1.699-0.606,2.569
	c0.308,0.884,1.269,0.412,1.925,0.431c2.192,0.06,4.386,0.006,6.579,0.03c0.825,0.009,1.383-0.082,1.372-1.153
	C110.875,189.884,110.901,185.648,110.901,181.413z M84.454,180.812c0,4.887,0.02,9.182-0.014,13.477
	c-0.008,1.034,0.616,0.978,1.305,0.976c2.192-0.007,4.387,0.035,6.577-0.024c0.649-0.018,1.587,0.452,1.901-0.487
	c0.274-0.821,0.095-1.657-0.518-2.411C90.733,188.685,87.804,184.995,84.454,180.812z M145.949,195.235
	c0.618,0,1.086,0.045,1.543-0.008c2.45-0.28,3.169-1.816,1.76-3.766c-0.835-1.155-1.934-1.947-3.296-2.426
	c-1.397-0.49-2.319-0.513-2.073,1.41c0.108,0.847,0.094,1.727,0.003,2.577C143.701,194.731,144.076,195.791,145.949,195.235z
	 M158.106,115.903c-1.668-2.074-2.943-3.913-4.021-5.893c-0.662-1.215-1.935-0.601-2.909-0.572
	c-1.049,0.031-0.541,1.021-0.577,1.582c-0.076,1.192,0.047,2.399-0.044,3.589c-0.083,1.096,0.362,1.349,1.371,1.313
	C153.843,115.854,155.764,115.903,158.106,115.903z M51.336,191.953c0-0.532-0.064-1.074,0.012-1.596
	c0.261-1.795-0.582-1.82-1.941-1.353c-1.517,0.522-2.697,1.427-3.568,2.74c-1.012,1.524-0.684,2.698,1.003,3.277
	c1.342,0.461,2.915,0.583,4.113,0.07c0.926-0.396,0.222-1.928,0.381-2.939C51.345,192.088,51.336,192.02,51.336,191.953z
	 M101.147,182.074c-2.397,0-4.677,0-7.043,0c3.422,5.107,3.423,5.107,6.883,0.424C101.057,182.404,101.074,182.272,101.147,182.074z
	"/>
<path fill-rule="evenodd" clip-rule="evenodd" fill="#EECEB2" d="M143.895,121.953c0.077,6.871,0.146,13.717-1.878,20.419
	c-6.16,20.389-25.599,34.215-46.629,33.06c-21.749-1.195-39.622-17.047-43.334-38.416c-0.481-2.769-0.72-5.55-0.714-8.358
	c0.011-5.671,0.071-11.344-0.038-17.014c-0.034-1.748,0.33-2.322,2.229-2.313c17.547,0.083,35.096,0.049,52.644,0.049
	c11.877,0,23.754,0.049,35.63-0.051c1.844-0.016,2.193,0.532,2.13,2.217C143.802,115.01,143.895,118.483,143.895,121.953z
	 M97.854,142.35c-7.331,0-14.663,0.062-21.992-0.045c-1.756-0.025-1.986,0.593-1.683,2.053c0.433,2.084,0.732,4.195,1.15,6.282
	c1.988,9.939,10.646,17.59,20.457,18.102c11.113,0.581,20.49-5.718,23.604-15.868c0.882-2.874,1.104-5.881,1.738-8.8
	c0.33-1.519-0.069-1.764-1.481-1.752C112.383,142.383,105.118,142.35,97.854,142.35z M118.499,115.922
	c-5.311,0.286-9.823,2.913-12.593,8.232c-1.97,3.785-1.91,3.817,2.096,5.162c2.545,0.854,2.526,0.847,3.557-1.566
	c1.287-3.01,3.54-4.811,6.831-5.094c3.455-0.297,6.021,1.175,7.877,4.096c0.675,1.063,0.403,2.982,1.794,3.169
	c1.189,0.159,2.515-0.707,3.78-1.117c0.316-0.103,0.633-0.209,0.954-0.295c0.763-0.203,0.977-0.487,0.729-1.399
	C131.738,120.539,125.857,115.918,118.499,115.922z M75.633,115.915c-5.323,0.26-9.917,2.838-12.704,8.257
	c-1.95,3.791-1.867,3.737,2.107,5.2c1.893,0.697,2.887,0.784,3.622-1.592c0.983-3.178,3.548-4.914,6.929-5.137
	c3.46-0.227,6.012,1.295,7.766,4.262c0.604,1.021,0.458,2.813,1.532,3.054c1.066,0.24,2.38-0.618,3.584-1.001
	c0.443-0.141,0.874-0.324,1.323-0.439c0.825-0.212,0.948-0.657,0.749-1.466C88.988,120.763,82.935,116.006,75.633,115.915z"/>
<path fill-rule="evenodd" clip-rule="evenodd" fill="#CBD0D8" d="M150.55,201.519c0,5.741,0.059,11.405-0.033,17.066
	c-0.03,1.89-1.33,2.959-3.269,3.116c-0.53,0.044-1.066,0.023-1.6,0.023c-31.957,0.001-63.914,0.001-95.871,0
	c-4.22,0-5.015-0.795-5.017-5.006c-0.002-4.536,0.04-9.074-0.025-13.609c-0.02-1.345,0.271-1.803,1.677-1.362
	c0.801,0.25,1.716,0.175,2.581,0.175c32.424,0.008,64.848,0.002,97.271,0.022C147.669,201.945,149.035,201.69,150.55,201.519z"/>
<path fill-rule="evenodd" clip-rule="evenodd" fill="#FC806D" d="M84.449,63.198c0,8.138-0.041,16.276,0.036,24.413
	c0.014,1.504-0.378,1.936-1.888,1.884c-3.397-0.118-6.803-0.084-10.204-0.011c-1.087,0.024-1.43-0.325-1.636-1.379
	c-2.231-11.388-8.752-19.187-19.684-23.193c-1.086-0.397-1.071-0.82-0.637-1.73c6.57-13.773,17.295-22.339,32.143-25.809
	c1.538-0.359,1.918,0.055,1.904,1.612C84.41,47.056,84.449,55.127,84.449,63.198z"/>
<path fill-rule="evenodd" clip-rule="evenodd" fill="#FD816D" d="M145.345,64.451c-7.509,2.425-13.332,6.924-17.292,13.741
	c-1.755,3.021-2.983,6.247-3.47,9.714c-0.155,1.104-0.485,1.61-1.728,1.58c-3.532-0.085-7.069-0.065-10.602-0.008
	c-1.039,0.016-1.368-0.283-1.366-1.344c0.03-16.538,0.036-33.077,0.005-49.615c-0.004-2.309,1.538-1.168,2.301-0.992
	c12.187,2.815,21.717,9.482,28.557,19.962C143.169,59.663,144.413,61.938,145.345,64.451z"/>
<path fill-rule="evenodd" clip-rule="evenodd" fill="#F7D36E" d="M206.927,130.396c-0.82-4.683-2.546-8.656-3.869-12.75
	c-0.382-1.181-0.356-2.004,0.467-3.057c14.09-18.008,4.086-44.118-18.461-47.821c-10.703-1.758-19.837,1.764-27.167,9.804
	c-0.712,0.78-1.339,1.637-2.164,2.653c-0.508-2.956-0.91-5.725-1.479-8.459c-0.393-1.883-0.809-3.811-1.591-5.548
	c-0.899-1.996,0.517-2.737,1.536-3.767c0.396-0.399,0.714-0.054,1.001,0.228c0.429,0.42,0.854,0.843,1.283,1.262
	c3.165,3.083,6.847,4.101,10.993,2.413c4.05-1.648,6.013-4.856,6.236-9.188c0.158-3.073,0.177-3.072,3.248-3.072
	c2.534,0,5.078,0.13,7.601-0.043c1.91-0.131,2.481,0.4,2.442,2.378c-0.106,5.193,2.33,8.705,6.749,10.154
	c4.213,1.382,7.766,0.145,10.674-2.998c1.18-1.274,1.915-1.505,3.174-0.054c1.832,2.111,3.923,3.996,5.903,5.977
	c1.855,1.854,1.856,1.854,0.063,3.701c-3.514,3.62-4.298,7.932-2.06,12.045c2.013,3.698,5.248,5.429,9.409,5.166
	c1.93-0.122,2.539,0.42,2.407,2.38c-0.184,2.723-0.046,5.466-0.046,8.201c-0.001,2.653-0.001,2.664-2.581,2.689
	c-3.39,0.033-6.272,1.159-8.354,3.928c-3.215,4.276-2.742,9.48,1.407,13.507c1.361,1.322,1.502,2.045,0.027,3.368
	C211.451,125.577,209.357,127.92,206.927,130.396z"/>
<path fill-rule="evenodd" clip-rule="evenodd" fill="#FA6D50" d="M104.221,59.831c0,9.263-0.036,18.526,0.036,27.789
	c0.012,1.491-0.359,1.932-1.869,1.875c-3.261-0.122-6.53-0.079-9.794-0.015c-1.154,0.022-1.622-0.208-1.619-1.515
	c0.043-18.792,0.04-37.584,0.006-56.377c-0.002-1.213,0.339-1.623,1.571-1.595c3.197,0.073,6.401,0.116,9.594-0.014
	c1.638-0.067,2.133,0.357,2.116,2.063C104.174,41.304,104.221,50.567,104.221,59.831z"/>
<path fill-rule="evenodd" clip-rule="evenodd" fill="#FB6E51" d="M97.588,102.686c-19.145,0-38.289-0.022-57.434,0.041
	c-1.666,0.005-2.119-0.405-2.077-2.077c0.113-4.502,0.029-4.504,4.62-4.504c37.355,0,74.711,0.016,112.066-0.046
	c1.928-0.003,2.476,0.448,2.402,2.396c-0.156,4.187-0.043,4.191-4.146,4.191C134.543,102.686,116.066,102.686,97.588,102.686z"/>
<path fill-rule="evenodd" clip-rule="evenodd" fill="#B1DA7D" d="M186.953,162.095c0-8.138,0.038-16.275-0.035-24.413
	c-0.014-1.473,0.328-1.951,1.86-1.893c3.264,0.126,6.536,0.083,9.804,0.015c1.17-0.023,1.624,0.235,1.621,1.53
	c-0.043,16.609-0.04,33.219-0.003,49.828c0.003,1.223-0.332,1.607-1.567,1.576c-3.2-0.081-6.407-0.12-9.604,0.012
	c-1.622,0.066-2.141-0.32-2.12-2.042C187.007,178.505,186.953,170.3,186.953,162.095z"/>
<path fill-rule="evenodd" clip-rule="evenodd" fill="#F8D46E" d="M127.198,195.262c-2.801,0-5.603-0.036-8.404,0.019
	c-1.042,0.021-1.375-0.325-1.365-1.373c0.047-4.869,0.046-9.738,0.005-14.608c-0.012-1.405,0.867-1.78,1.911-1.646
	c7.769,1.001,15.581,8.347,17.379,16.143c0.273,1.186,0.109,1.519-1.122,1.487C132.803,195.215,130,195.262,127.198,195.262z"/>
<path fill-rule="evenodd" clip-rule="evenodd" fill="#F8D46E" d="M67.923,195.262c-2.597,0-5.198-0.101-7.787,0.037
	c-1.674,0.089-1.917-0.505-1.491-1.937c1.847-6.213,5.599-10.796,11.53-13.491c1.689-0.768,3.45-1.383,5.202-2.001
	c1.627-0.575,2.389-0.05,2.396,1.63c0.019,4.793-0.032,9.586,0.034,14.378c0.016,1.196-0.417,1.433-1.497,1.406
	C73.516,195.218,70.719,195.262,67.923,195.262z"/>
<path fill-rule="evenodd" clip-rule="evenodd" fill="#FA6D50" d="M54.563,89.457c-2.666,0-5.333-0.043-7.999,0.021
	c-1.071,0.026-1.404-0.312-1.259-1.368c0.715-5.209,1.073-10.465,2.055-15.641c0.25-1.317,0.667-1.763,2.104-1.189
	c7.683,3.066,12.478,8.603,14.548,16.571c0.295,1.136,0.16,1.693-1.252,1.637C60.032,89.38,57.296,89.457,54.563,89.457z"/>
<path fill-rule="evenodd" clip-rule="evenodd" fill="#FA6D50" d="M140.438,89.457c-2.664,0-5.329-0.033-7.992,0.016
	c-1.078,0.02-1.545-0.1-1.22-1.415c2.023-8.171,6.916-13.764,14.753-16.824c1.171-0.458,1.625-0.23,1.88,1.041
	c1.075,5.361,1.402,10.816,2.161,16.215c0.165,1.179-0.574,0.957-1.19,0.96C146.032,89.464,143.234,89.457,140.438,89.457z"/>
<path fill-rule="evenodd" clip-rule="evenodd" fill="#A5ADB7" d="M186.949,212.625c-0.002-4.12-0.002-4.12,4.201-4.12
	c2.4,0,4.806,0.095,7.198-0.034c1.555-0.083,1.977,0.479,1.858,1.942c-0.123,1.524,0.021,3.067-0.042,4.598
	c-0.163,3.957-3.002,6.769-6.728,6.723c-3.753-0.047-6.405-2.868-6.485-6.908C186.938,214.092,186.95,213.358,186.949,212.625z"/>
<path fill-rule="evenodd" clip-rule="evenodd" fill="#EACBB0" d="M44.76,129.994c0.067,1.108,0.09,2.78,0.3,4.428
	c0.128,1.006,0.045,1.479-1.139,1.427c-1.928-0.087-3.864,0.039-5.792-0.048c-3.915-0.176-6.691-3.097-6.586-6.828
	c0.104-3.669,2.891-6.321,6.787-6.37c2.057-0.025,4.743-0.697,6.001,0.328c1.319,1.075,0.286,3.871,0.427,5.909
	C44.771,129.039,44.76,129.239,44.76,129.994z"/>
<path fill-rule="evenodd" clip-rule="evenodd" fill="#EACBB0" d="M154.316,135.809c-4.181,0.018-4.119,0.021-3.858-4.059
	c0.157-2.453,0.203-4.927,0.071-7.378c-0.084-1.578,0.475-1.925,1.904-1.811c1.521,0.122,3.059,0.002,4.588,0.035
	c3.828,0.083,6.672,2.799,6.766,6.43c0.091,3.556-2.726,6.521-6.478,6.772C156.316,135.865,155.314,135.809,154.316,135.809z"/>
<path fill-rule="evenodd" clip-rule="evenodd" fill="#A5ADB7" d="M199.949,129.137c-4.059,0-7.902-0.015-11.747,0.011
	c-0.949,0.007-0.946-0.473-0.725-1.138c1.949-5.844,3.902-11.687,6.05-18.118C195.768,116.605,197.821,122.758,199.949,129.137z"/>
<path fill-rule="evenodd" clip-rule="evenodd" fill="#F8D46E" d="M181.189,125.869c-1.447,3.972-0.8,7.804-0.871,11.581
	c-0.024,1.285-0.315,1.765-1.649,1.652c-1.522-0.129-3.368,0.454-4.508-0.224c-1.164-0.692-0.264-2.69-0.552-4.101
	c-0.284-1.392-0.461-2.918-1.444-3.879c-1.976-1.929-2.019-4.48-2.847-7.13C173.231,125.106,177.011,125.985,181.189,125.869z"/>
<path fill-rule="evenodd" clip-rule="evenodd" fill="#F5E1A0" d="M193.483,201.93c-1.729,0-3.459-0.052-5.185,0.02
	c-1.004,0.041-1.351-0.22-1.389-1.304c-0.192-5.389-0.229-5.388,5.119-5.388c2.26,0,4.521,0.039,6.78-0.017
	c1.014-0.025,1.355,0.281,1.4,1.346c0.227,5.345,0.261,5.343-5.131,5.343C194.547,201.93,194.016,201.93,193.483,201.93z"/>
<path fill-rule="evenodd" clip-rule="evenodd" fill="#F7D36E" d="M110.901,181.413c0,4.235-0.025,8.471,0.018,12.705
	c0.011,1.071-0.547,1.162-1.372,1.153c-2.193-0.024-4.387,0.029-6.579-0.03c-0.656-0.019-1.617,0.453-1.925-0.431
	c-0.303-0.87-0.076-1.753,0.606-2.569c2.299-2.753,4.503-5.584,6.746-8.384c0.7-0.874,1.405-1.744,2.108-2.616
	C110.635,181.299,110.768,181.356,110.901,181.413z"/>
<path fill-rule="evenodd" clip-rule="evenodd" fill="#F8D46E" d="M84.454,180.812c3.35,4.184,6.28,7.873,9.251,11.529
	c0.613,0.754,0.792,1.59,0.518,2.411c-0.313,0.939-1.251,0.47-1.901,0.487c-2.19,0.06-4.385,0.018-6.577,0.024
	c-0.689,0.002-1.313,0.059-1.305-0.976C84.474,189.993,84.454,185.698,84.454,180.812z"/>
<path fill-rule="evenodd" clip-rule="evenodd" fill="#CBD0D8" d="M145.949,195.235c-1.873,0.556-2.248-0.504-2.063-2.212
	c0.091-0.851,0.105-1.73-0.003-2.577c-0.246-1.923,0.676-1.9,2.073-1.41c1.362,0.479,2.461,1.271,3.296,2.426
	c1.409,1.949,0.69,3.485-1.76,3.766C147.035,195.28,146.567,195.235,145.949,195.235z"/>
<path fill-rule="evenodd" clip-rule="evenodd" fill="#F8D46E" d="M158.106,115.903c-2.343,0-4.264-0.049-6.181,0.02
	c-1.009,0.036-1.454-0.217-1.371-1.313c0.091-1.19-0.032-2.397,0.044-3.589c0.036-0.561-0.472-1.551,0.577-1.582
	c0.975-0.029,2.247-0.643,2.909,0.572C155.163,111.99,156.438,113.829,158.106,115.903z"/>
<path fill-rule="evenodd" clip-rule="evenodd" fill="#CBD0D8" d="M51.336,191.953c0,0.066,0.009,0.135-0.001,0.2
	c-0.159,1.012,0.545,2.544-0.381,2.939c-1.198,0.513-2.771,0.391-4.113-0.07c-1.687-0.579-2.015-1.753-1.003-3.277
	c0.871-1.313,2.052-2.218,3.568-2.74c1.36-0.468,2.203-0.442,1.941,1.353C51.272,190.879,51.336,191.421,51.336,191.953z"/>
<path fill-rule="evenodd" clip-rule="evenodd" fill="#EACBB0" d="M101.147,182.074c-0.073,0.198-0.09,0.33-0.16,0.424
	c-3.46,4.684-3.461,4.684-6.883-0.424C96.47,182.074,98.75,182.074,101.147,182.074z"/>
<path fill-rule="evenodd" clip-rule="evenodd" fill="#050403" d="M97.854,142.35c7.264,0,14.529,0.033,21.792-0.028
	c1.412-0.012,1.812,0.233,1.481,1.752c-0.634,2.919-0.856,5.926-1.738,8.8c-3.114,10.15-12.491,16.449-23.604,15.868
	c-9.811-0.512-18.468-8.162-20.457-18.102c-0.417-2.087-0.717-4.198-1.15-6.282c-0.303-1.46-0.074-2.078,1.683-2.053
	C83.191,142.411,90.523,142.35,97.854,142.35z M97.566,149.042c-4.735,0-9.471,0.044-14.205-0.028
	c-1.388-0.021-1.657,0.279-1.258,1.656c1.954,6.724,8.44,11.6,15.574,11.579c7.149-0.02,13.616-4.911,15.521-11.649
	c0.364-1.285,0.083-1.602-1.228-1.583C107.17,149.081,102.368,149.042,97.566,149.042z"/>
<path fill-rule="evenodd" clip-rule="evenodd" fill="#050403" d="M118.499,115.922c7.359-0.003,13.24,4.617,15.025,11.188
	c0.248,0.912,0.034,1.196-0.729,1.399c-0.321,0.086-0.638,0.192-0.954,0.295c-1.266,0.41-2.591,1.276-3.78,1.117
	c-1.391-0.187-1.119-2.106-1.794-3.169c-1.856-2.921-4.422-4.393-7.877-4.096c-3.291,0.284-5.543,2.084-6.831,5.094
	c-1.031,2.413-1.012,2.421-3.557,1.566c-4.006-1.345-4.066-1.377-2.096-5.162C108.675,118.834,113.188,116.208,118.499,115.922z"/>
<path fill-rule="evenodd" clip-rule="evenodd" fill="#040303" d="M75.633,115.915c7.302,0.091,13.355,4.849,14.908,11.137
	c0.2,0.809,0.076,1.254-0.749,1.466c-0.449,0.115-0.88,0.299-1.323,0.439c-1.204,0.383-2.518,1.241-3.584,1.001
	c-1.074-0.241-0.928-2.033-1.532-3.054c-1.754-2.966-4.306-4.489-7.766-4.262c-3.381,0.223-5.946,1.958-6.929,5.137
	c-0.735,2.376-1.729,2.289-3.622,1.592c-3.974-1.463-4.057-1.409-2.107-5.2C65.716,118.752,70.31,116.174,75.633,115.915z"/>
<path fill-rule="evenodd" clip-rule="evenodd" fill="#FC806D" d="M97.566,149.042c4.802,0,9.604,0.039,14.405-0.025
	c1.311-0.019,1.592,0.298,1.228,1.583c-1.905,6.738-8.372,11.63-15.521,11.649c-7.134,0.021-13.621-4.855-15.574-11.579
	c-0.399-1.377-0.13-1.677,1.258-1.656C88.095,149.086,92.831,149.042,97.566,149.042z"/>
</svg>
