<?xml version="1.0" encoding="utf-8"?>
<!-- Generator: Adobe Illustrator 16.0.0, SVG Export Plug-In . SVG Version: 6.00 Build 0)  -->
<!DOCTYPE svg PUBLIC "-//W3C//DTD SVG 1.1//EN" "http://www.w3.org/Graphics/SVG/1.1/DTD/svg11.dtd">
<svg version="1.1" id="Layer_1" xmlns="http://www.w3.org/2000/svg" xmlns:xlink="http://www.w3.org/1999/xlink" x="0px" y="0px"
	 width="400px" height="150px" viewBox="0 0 400 150" enable-background="new 0 0 400 150" xml:space="preserve">
<g>
	<g>
		<path fill="#D4F3F5" d="M0,148.663c9.681-36.42,37.501-67.533,72.617-81.209c35.116-13.676,76.651-9.574,108.415,10.706
			c9.726,6.209,19.705,14.17,31.214,13.354c6.008-0.426,11.529-3.254,17.113-5.504c29.414-11.859,63.287-8.039,92.793,3.592
			c29.506,11.629,62.611,44.434,88.27,63.076"/>
	</g>
	<g>
		<path fill="#9DE4E8" d="M29.597,151.358c6.282-23.633,24.334-43.82,47.121-52.695c22.786-8.875,49.738-6.213,70.349,6.945
			c6.312,4.029,12.787,9.195,20.255,8.666c3.897-0.275,7.48-2.111,11.104-3.572c19.086-7.695,41.067-5.217,60.211,2.332
			c19.146,7.547,40.631,28.832,57.279,40.928"/>
	</g>
</g>
</svg>
