<?xml version="1.0" encoding="utf-8"?>
<!-- Generator: Adobe Illustrator 16.0.0, SVG Export Plug-In . SVG Version: 6.00 Build 0)  -->
<!DOCTYPE svg PUBLIC "-//W3C//DTD SVG 1.1//EN" "http://www.w3.org/Graphics/SVG/1.1/DTD/svg11.dtd">
<svg version="1.1" id="Layer_1" xmlns="http://www.w3.org/2000/svg" xmlns:xlink="http://www.w3.org/1999/xlink" x="0px" y="0px"
	 width="150px" height="150px" viewBox="0 0 150 150" enable-background="new 0 0 150 150" xml:space="preserve">
<path fill="#A4D9F1" d="M73.826,2.068c-12.542-0.962-25.411,3.435-33.772,13.46c-8.5,10.193-4.211,23.66-11.189,34.972
	C20.39,64.239,12.388,74.826,12.581,92.053c0.2,17.907,7.093,32.808,20.297,45.034C45.926,149.17,68.1,150.624,84.78,147.729
	c20.352-3.532,40.746-16.632,50.048-35.516c5.624-11.415,7.217-25.036,1.281-36.462c-6.02-11.587-19.058-17.975-22.907-30.782
	C109.304,32,108.486,20.43,97.333,11.299C90.646,5.824,82.31,2.719,73.826,2.068z"/>
</svg>
