<?xml version="1.0" encoding="utf-8"?>
<!-- Generator: Adobe Illustrator 16.0.0, SVG Export Plug-In . SVG Version: 6.00 Build 0)  -->
<!DOCTYPE svg PUBLIC "-//W3C//DTD SVG 1.1//EN" "http://www.w3.org/Graphics/SVG/1.1/DTD/svg11.dtd">
<svg version="1.1" id="Layer_1" xmlns="http://www.w3.org/2000/svg" xmlns:xlink="http://www.w3.org/1999/xlink" x="0px" y="0px"
	 width="100px" height="100px" viewBox="0 0 100 100" enable-background="new 0 0 100 100" xml:space="preserve">
<path display="none" fill="#E86481" d="M8.767,73.18c0-15.463,0-30.926,0-46.388c0.128-0.018,0.153-0.115,0.19-0.219
	c1.416-3.984,3.671-5.58,7.884-5.58c16.122,0,32.244,0,48.365,0c6.224,0,12.446-0.01,18.67,0.004
	c3.442,0.008,6.173,2.11,7.125,5.413c0.052,0.181-0.049,0.453,0.231,0.543c0,15.409,0,30.818,0,46.227
	c-0.176,0.021-0.172,0.174-0.213,0.295c-1.297,3.797-3.686,5.504-7.701,5.504c-9.174,0-18.35,0-27.523,0
	c-13.198,0-26.397,0.004-39.595-0.004c-3.444-0.002-6.136-2.009-7.15-5.269C8.993,73.521,9.035,73.26,8.767,73.18z M82.816,26.035
	c-0.043-0.056-0.088-0.111-0.131-0.167c-21.797,0-43.593,0-65.39,0c-0.049,0.063-0.098,0.125-0.146,0.188
	c0.198,0.129,0.426,0.229,0.59,0.393c9.988,10.009,19.971,20.023,29.956,30.037c1.552,1.557,3.054,1.563,4.595,0.02
	c7.162-7.181,14.316-14.37,21.488-21.542C76.773,31.969,79.803,29.01,82.816,26.035z M17.05,74.096c22.072,0,43.868,0,65.722,0
	c-0.092-0.119-0.131-0.186-0.184-0.238c-6.648-6.67-13.303-13.336-19.938-20.021c-0.414-0.419-0.603-0.284-0.93,0.048
	c-2.035,2.064-4.086,4.112-6.132,6.164c-3.237,3.246-7.951,3.241-11.184-0.009c-1.987-1.998-3.992-3.978-5.954-5.999
	c-0.48-0.495-0.738-0.582-1.281-0.031c-4.787,4.852-9.605,9.672-14.425,14.49C20.911,70.334,19.045,72.137,17.05,74.096z
	 M13.658,29.396c0,13.71,0,27.506,0,41.4c0.7-0.706,1.32-1.335,1.944-1.962c6.083-6.102,12.163-12.209,18.262-18.295
	c0.444-0.443,0.466-0.68,0-1.11c-0.927-0.854-1.789-1.779-2.685-2.667C25.33,40.962,19.478,35.163,13.658,29.396z M86.376,29.316
	c-0.051-0.034-0.103-0.068-0.153-0.102c-0.17,0.203-0.328,0.418-0.514,0.605c-6.496,6.522-12.988,13.046-19.506,19.547
	c-0.492,0.49-0.52,0.721-0.01,1.229c6.574,6.556,13.125,13.138,19.675,19.72c0.139,0.14,0.212,0.346,0.315,0.52
	c0.063-0.059,0.129-0.116,0.191-0.174C86.376,56.879,86.376,43.098,86.376,29.316z"/>
<g display="none">
	<path display="inline" fill="#E86481" d="M54.406,13.948c1.113,0.303,2.252,0.542,3.339,0.92
		c7.006,2.439,11.505,7.257,12.938,14.532c1.424,7.211-0.855,13.342-6.344,18.253c-0.225,0.202-0.457,0.396-0.82,0.709
		c0.502,0.214,0.896,0.374,1.281,0.55c1.479,0.678,2.172,2.081,1.725,3.479c-0.473,1.471-1.916,2.232-3.553,1.828
		c-2.068-0.512-4.104-1.208-6.199-1.562c-15.881-2.664-31.538,7.938-35.027,23.661c-0.565,2.548,0.595,4.05,3.245,4.09
		c2.952,0.044,5.905-0.002,8.857,0.018c2.136,0.016,3.439,1.131,3.4,2.855c-0.037,1.672-1.325,2.736-3.361,2.746
		c-2.953,0.012-5.904,0.009-8.857,0c-4.611-0.012-7.499-2.176-8.883-6.633c-0.042-0.139-0.152-0.254-0.231-0.383
		c0-1.019,0-2.035,0-3.056c0.19-0.573,0.411-1.138,0.567-1.724c2.881-10.772,9.306-18.694,19.199-23.802
		c1.479-0.765,3.055-1.342,4.682-2.048c-0.309-0.287-0.554-0.523-0.806-0.75c-5.423-4.875-7.719-10.946-6.354-18.101
		c1.377-7.213,5.786-12.052,12.685-14.573c1.175-0.429,2.418-0.68,3.629-1.013C51.146,13.948,52.775,13.948,54.406,13.948z
		 M65.452,33.086c-0.011-7.458-6.068-13.518-13.501-13.505c-7.445,0.011-13.479,6.065-13.48,13.527
		c-0.002,7.451,6.05,13.5,13.501,13.496C59.422,46.6,65.463,40.54,65.452,33.086z"/>
	<path display="inline" fill="#E86481" d="M43.385,71.995c1.048,1.802,2.512,2.425,4.505,2.228c1.715-0.168,3.459-0.067,5.189-0.021
		c1.866,0.049,3.139,1.259,3.11,2.872c-0.029,1.558-1.26,2.747-3.045,2.778c-2.899,0.051-5.806,0.092-8.703-0.037
		c-0.827-0.035-1.782-0.496-2.412-1.062c-1.59-1.424-3.051-2.992-4.521-4.546c-1.421-1.5-1.404-2.904,0.028-4.422
		c1.362-1.445,2.789-2.827,4.133-4.288c0.862-0.937,1.872-1.288,3.123-1.281c5.446,0.028,10.893-0.007,16.339,0.028
		c0.979,0.009,1.515-0.195,1.897-1.234c1.207-3.263,3.712-4.891,7.143-4.988c2.9-0.084,5.807-0.096,8.704,0
		c3.425,0.111,5.847,1.791,7.199,4.979c2.586,6.092,2.532,12.164-0.091,18.222c-1.351,3.116-3.75,4.74-7.139,4.797
		c-2.902,0.049-5.806,0.039-8.707,0.004c-3.344-0.043-5.979-1.865-7.178-4.969c-0.419-1.087-0.756-2.214-1.027-3.348
		c-0.369-1.542,0.428-2.878,1.896-3.344c1.426-0.452,2.854,0.253,3.425,1.748c0.323,0.853,0.569,1.736,0.837,2.609
		c0.344,1.12,1.107,1.687,2.26,1.689c2.799,0.014,5.605,0.104,8.394-0.065c0.728-0.044,1.741-0.765,2.048-1.438
		c2.061-4.541,2.061-9.149,0.083-13.75c-0.433-1.005-1.129-1.498-2.237-1.489c-2.75,0.023-5.5,0.023-8.248,0.002
		c-1.191-0.011-1.843,0.561-2.254,1.654c-1.707,4.529-1.725,4.521-6.562,4.521c-4.632,0-9.269,0.112-13.894-0.051
		C45.711,69.727,44.385,70.352,43.385,71.995z"/>
	<path display="inline" fill="#E86481" d="M79.418,72.02c-0.035,1.519-1.348,2.771-2.872,2.737c-1.537-0.03-2.782-1.325-2.748-2.854
		c0.035-1.549,1.304-2.752,2.865-2.723C78.205,69.207,79.45,70.492,79.418,72.02z"/>
</g>
<g display="none" enable-background="new    ">
	<path display="inline" fill="#E86481" d="M27.789,41.329c0-0.312-0.001-0.632,0.001-0.953c0.019-3.385-0.084-6.776,0.082-10.155
		c0.495-10.065,7.74-18.401,17.619-20.424c12.454-2.55,24.396,5.635,26.423,18.146c0.223,1.368,0.268,2.772,0.289,4.161
		c0.044,2.784,0.013,5.57,0.013,8.354c0,0.294,0,0.588,0,0.82c0.974,0.226,1.872,0.342,2.704,0.643
		c2.957,1.072,4.688,3.732,4.705,7.166c0.018,3.687,0.004,7.372,0.004,11.06c0,6.799,0.008,13.599-0.004,20.396
		c-0.004,3.159-1.252,5.646-4.188,7.01c-0.982,0.456-2.15,0.715-3.235,0.719c-14.8,0.047-29.599,0.045-44.398,0.021
		c-4.319-0.007-7.389-3.17-7.419-7.585c-0.03-4.313-0.007-8.629-0.007-12.942c0-6.227-0.012-12.451,0.004-18.677
		c0.01-3.68,2.018-6.447,5.324-7.375C26.33,41.538,26.985,41.473,27.789,41.329z M50,46.353c-7.208,0-14.417-0.001-21.625,0
		c-2.275,0-3.058,0.773-3.059,3.041c-0.002,10.321-0.003,20.642,0.001,30.961c0.001,2.205,0.817,3.016,3.019,3.017
		c14.443,0.001,28.889,0.001,43.332,0c2.199-0.001,3.02-0.812,3.02-3.017c0.004-10.348,0.004-20.694,0-31.043
		c-0.002-2.161-0.813-2.958-2.979-2.958C64.471,46.352,57.234,46.353,50,46.353z M67.238,41.382c0-3.611,0.1-7.134-0.018-10.65
		c-0.354-10.658-10.459-18.411-20.875-16.081c-8.133,1.819-13.52,8.528-13.603,16.976c-0.029,3.003-0.006,6.008-0.003,9.012
		c0,0.236,0.035,0.472,0.058,0.743C44.285,41.382,55.715,41.382,67.238,41.382z"/>
	<path display="inline" fill="#E86481" d="M47.539,71.076c0-0.137-0.016-0.275,0.002-0.409c0.218-1.599-0.114-2.664-1.779-3.584
		c-2.93-1.62-3.897-5.457-2.641-8.724c1.191-3.102,4.512-5.035,7.805-4.549c3.523,0.521,5.958,2.926,6.418,6.34
		c0.447,3.313-1.234,6.248-4.394,7.748c-0.232,0.111-0.457,0.506-0.464,0.773c-0.045,1.555-0.014,3.111-0.025,4.667
		c-0.016,1.649-0.964,2.64-2.487,2.621c-1.497-0.019-2.411-0.987-2.434-2.592C47.531,72.605,47.54,71.84,47.539,71.076z
		 M49.976,63.6c1.489,0.008,2.474-0.951,2.485-2.423c0.01-1.465-0.979-2.478-2.435-2.491c-1.462-0.017-2.471,0.977-2.482,2.439
		C47.532,62.605,48.5,63.588,49.976,63.6z"/>
</g>
<g>
	<path fill="#0F117A" d="M10.995,74.499c9.582-9.604,19.154-19.22,28.763-28.801c0.835-0.833,1.145-1.513,0.813-2.759
		c-3.837-14.401,5.47-29.135,20.156-32.018C75.236,8.073,89.26,18,91.391,32.63c2.685,18.435-13.938,33.522-32.004,28.997
		c-1.271-0.318-2.123-0.225-2.945,0.8c-0.588,0.734-1.39,1.298-1.989,2.023c-1.908,2.313-4.101,3.893-7.32,3.243
		c-0.96-0.192-1.39,0.24-1.304,1.255c0.069,0.813,0.024,1.64,0.011,2.461c-0.034,2.332-1.033,3.233-3.297,2.993
		c-2.966-0.314-2.966-0.314-3.185,2.64c-0.267,3.575-0.719,4.021-4.345,4.281c-0.44,0.032-0.879,0.112-1.32,0.114
		c-1.322,0.008-1.625,0.623-1.495,1.91c0.431,4.226-2.935,7.82-7.19,7.822c-3.536,0-7.073-0.063-10.608,0.028
		c-1.456,0.036-2.583-0.327-3.402-1.54C10.995,84.607,10.995,79.553,10.995,74.499z M21.034,86.391c1.263,0,2.528,0.039,3.789-0.01
		c1.705-0.063,2.815-1.424,2.601-3.095c-0.139-1.063-0.272-2.128-0.383-3.193c-0.18-1.715,0.624-2.712,2.383-2.981
		c0.5-0.073,1-0.139,1.501-0.202c3.699-0.451,3.699-0.451,4.008-4.21c0.266-3.219,0.924-3.852,4.15-3.467
		c1.621,0.192,2.214-0.27,1.97-1.868c-0.066-0.431-0.02-0.882-0.01-1.323c0.054-2.247,0.888-3.366,3.103-3.068
		c3.961,0.531,6.786-0.983,9.07-3.998c0.226-0.3,0.572-0.509,0.796-0.81c1.5-2.013,3.232-2.165,5.633-1.421
		c15.027,4.656,29.717-8.361,27.053-23.851c-2.084-12.105-14.006-19.957-25.956-17.094c-12.044,2.881-19.077,15.338-15.209,27.16
		c0.67,2.039,0.364,3.356-1.142,4.845c-9.165,9.053-18.245,18.19-27.349,27.301c-0.613,0.613-1.311,1.127-1.285,2.186
		c0.063,2.589,0.052,5.179,0.008,7.768c-0.016,0.961,0.288,1.385,1.293,1.344C18.382,86.35,19.708,86.389,21.034,86.391z"/>
	<path fill="#0F117A" d="M79.518,29.829c-0.033,3.835-3.354,7.104-7.174,7.065c-3.826-0.039-7.117-3.381-7.064-7.18
		c0.05-3.848,3.355-7.1,7.178-7.061C76.282,22.691,79.555,26.015,79.518,29.829z M72.135,27.461
		c-1.125,0.117-1.963,0.819-2.049,2.232c-0.083,1.344,0.977,2.435,2.322,2.388c1.406-0.048,2.205-0.826,2.297-2.227
		C74.793,28.507,73.734,27.453,72.135,27.461z"/>
</g>
</svg>
