<?xml version="1.0" encoding="utf-8"?>
<!-- Generator: Adobe Illustrator 16.0.0, SVG Export Plug-In . SVG Version: 6.00 Build 0)  -->
<!DOCTYPE svg PUBLIC "-//W3C//DTD SVG 1.1//EN" "http://www.w3.org/Graphics/SVG/1.1/DTD/svg11.dtd">
<svg version="1.1" id="Layer_1" xmlns="http://www.w3.org/2000/svg" xmlns:xlink="http://www.w3.org/1999/xlink" x="0px" y="0px"
	 width="100px" height="100px" viewBox="0 0 100 100" enable-background="new 0 0 100 100" xml:space="preserve">
<path display="none" fill="#E86481" d="M8.767,73.18c0-15.463,0-30.926,0-46.388c0.128-0.018,0.153-0.115,0.19-0.219
	c1.416-3.984,3.671-5.58,7.884-5.58c16.122,0,32.244,0,48.365,0c6.224,0,12.446-0.01,18.67,0.004
	c3.442,0.008,6.173,2.11,7.125,5.413c0.052,0.181-0.049,0.453,0.231,0.543c0,15.409,0,30.818,0,46.227
	c-0.176,0.021-0.172,0.174-0.213,0.295c-1.297,3.797-3.688,5.504-7.701,5.504c-9.174,0-18.352,0-27.523,0
	c-13.198,0-26.397,0.004-39.595-0.004c-3.444-0.002-6.136-2.009-7.15-5.269C8.993,73.521,9.035,73.26,8.767,73.18z M82.816,26.035
	c-0.043-0.056-0.088-0.111-0.131-0.167c-21.797,0-43.595,0-65.392,0c-0.049,0.063-0.098,0.125-0.146,0.188
	c0.198,0.129,0.426,0.229,0.59,0.393c9.988,10.009,19.971,20.023,29.956,30.037c1.552,1.557,3.054,1.563,4.595,0.02
	c7.162-7.181,14.314-14.37,21.486-21.542C76.773,31.969,79.803,29.01,82.816,26.035z M17.05,74.096c22.072,0,43.868,0,65.722,0
	c-0.092-0.119-0.131-0.186-0.184-0.238c-6.648-6.67-13.303-13.336-19.938-20.021c-0.414-0.419-0.604-0.284-0.93,0.048
	c-2.035,2.064-4.088,4.112-6.134,6.164c-3.235,3.246-7.951,3.241-11.184-0.009c-1.987-1.998-3.992-3.978-5.954-5.999
	c-0.48-0.495-0.738-0.582-1.281-0.031c-4.787,4.852-9.605,9.672-14.425,14.49C20.911,70.334,19.045,72.137,17.05,74.096z
	 M13.658,29.396c0,13.71,0,27.506,0,41.4c0.7-0.706,1.32-1.335,1.944-1.962c6.083-6.102,12.163-12.209,18.262-18.295
	c0.444-0.443,0.466-0.68,0-1.11c-0.927-0.854-1.789-1.779-2.685-2.667C25.33,40.962,19.478,35.163,13.658,29.396z M86.376,29.316
	c-0.051-0.034-0.103-0.068-0.153-0.102c-0.17,0.203-0.328,0.418-0.514,0.605c-6.496,6.522-12.988,13.046-19.506,19.547
	c-0.492,0.49-0.52,0.721-0.01,1.229c6.574,6.556,13.125,13.138,19.675,19.72c0.139,0.142,0.212,0.348,0.315,0.521
	c0.063-0.061,0.129-0.115,0.189-0.174C86.376,56.879,86.376,43.098,86.376,29.316z"/>
<g>
	<path fill-rule="evenodd" clip-rule="evenodd" fill="#0F117A" d="M7.82,50.847c2.388-2.869,5.333-5.168,7.975-7.777
		c0.552-0.546,1.257-0.726,2.031-0.652c0.542,0.052,1.094,0.039,1.627,0.134c0.518,0.093,0.633-0.305,0.875-0.572
		c0.277-0.303,0.025-0.534-0.139-0.703c-1.522-1.572-1.59-3.321-0.974-5.347c0.718-2.36,1.152-4.805,1.725-7.21
		c0.373-1.568,1.431-2.501,2.794-2.501c1.379,0.001,2.389,0.891,2.776,2.507c0.704,2.933,1.363,5.875,2.085,8.803
		c0.235,0.952,0.078,1.764-0.492,2.535c-0.291,0.393-0.566,0.799-0.829,1.211c-0.129,0.204-0.43,0.388-0.145,0.693
		c0.244,0.26,0.347,0.623,0.866,0.594c0.836-0.048,1.669-0.257,2.519-0.092c0.525,0.103,0.31-0.334,0.312-0.533
		c0.015-2.341,0.006-4.683,0.01-7.026c0.003-1.789,0.802-2.616,2.576-2.619c6.236-0.008,12.472-0.008,18.708,0
		c1.762,0.002,2.585,0.852,2.588,2.62c0.004,3.158,0.002,6.316,0.002,9.576c1.895-0.877,3.732-1.727,5.57-2.578
		c2.068-0.958,4.133-1.929,6.207-2.874c1.678-0.764,3.205,0.18,3.221,2.018c0.025,3.513,0.006,7.026,0.008,10.539
		c0,0.619-0.18,1.133-0.799,1.382c-0.51,0.205-0.959,0.077-1.342-0.304c-0.32-0.32-0.314-0.732-0.314-1.145
		c0-3.132-0.016-6.263,0.014-9.395c0.006-0.67-0.15-0.705-0.711-0.443c-7.256,3.385-14.518,6.757-21.785,10.113
		c-0.447,0.206-0.572,0.456-0.572,0.921c0.012,8.497,0.015,16.993-0.005,25.489c-0.001,0.558,0.151,0.735,0.704,0.787
		c0.779,0.074,1.479,0.472,2.254,0.811c0-1.367-0.01-2.659,0.002-3.952c0.016-1.476,0.804-2.265,2.271-2.284
		c1.034-0.014,2.069-0.02,3.104,0.002c1.369,0.027,2.174,0.838,2.189,2.198c0.016,1.09,0.018,2.18-0.001,3.268
		c-0.021,1.22-0.729,2.054-1.923,2.113c-1.328,0.065-2.664,0.105-3.994-0.039c-0.063,0.01-0.172,0.005-0.178,0.029
		c-0.039,0.143,0.041,0.229,0.174,0.274c0.754,1.004,1.181,2.136,1.247,3.389c0.022,0.415,0.155,0.538,0.579,0.537
		c5.361-0.015,10.723-0.014,16.086-0.002c0.418,0.001,0.564-0.108,0.555-0.546c-0.027-1.197-0.016-2.395-0.006-3.593
		c0.002-0.261-0.043-0.452-0.279-0.619c-0.879-0.62-1.004-1.487-0.76-2.465c0.139-0.553,0.244-1.116,0.408-1.66
		c0.553-1.844,0.662-3.724,0.641-5.64c-0.045-4.299-0.008-8.601-0.018-12.9c-0.002-0.606,0.078-1.15,0.684-1.447
		c0.885-0.431,1.756,0.208,1.768,1.325c0.021,1.714,0.004,3.43,0.012,5.145c0,0.146-0.074,0.319,0.125,0.488
		c0.572-0.719,1.357-0.842,2.23-0.837c4.463,0.022,8.928,0.01,13.393,0.011c1.494,0.002,2.096,0.477,2.449,1.955
		c1.07,4.489,2.141,8.979,3.201,13.471c0.443,1.876-0.402,2.918-2.359,2.923c-1.824,0.005-3.648,0.019-5.471-0.011
		c-0.521-0.009-0.719,0.114-0.693,0.674c0.047,1.033,0.043,2.069,0.002,3.102c-0.021,0.507,0.127,0.637,0.629,0.63
		c2.178-0.029,4.355,0.012,6.533-0.026c0.746-0.013,1.313,0.194,1.719,0.818c0,0.327,0,0.654,0,0.981
		c-0.48,0.431-0.982,0.685-1.689,0.685c-26.758-0.021-53.514-0.021-80.27-0.005c-0.751,0-1.322-0.179-1.699-0.843
		c0-0.273,0-0.545,0-0.818c0.407-0.619,0.97-0.854,1.718-0.817c1.031,0.05,2.066,0.021,3.1,0.01
		c0.865-0.007,2.038,0.301,2.515-0.139c0.545-0.504,0.148-1.688,0.161-2.576c0.024-1.874,0.592-2.478,2.491-2.481
		c0.471-0.002,0.635-0.086,0.662-0.608c0.4-7.821,0.831-15.64,1.25-23.46c0.074-1.375,0.132-2.752,0.201-4.186
		c-0.311,0.081-0.546,0.133-0.776,0.202c-2.494,0.744-4.985,1.498-7.48,2.238c-1.627,0.482-2.732,0.039-3.571-1.407
		c-0.065-0.112-0.105-0.257-0.271-0.271C7.82,52.045,7.82,51.445,7.82,50.847z M42.818,34.743c-2.941,0-5.881,0.015-8.821-0.014
		c-0.572-0.006-0.727,0.15-0.721,0.722c0.029,2.859,0.02,5.718,0.005,8.576c-0.002,0.386,0.103,0.66,0.387,0.921
		c1.084,0.993,2.154,2,3.215,3.016c0.232,0.222,0.459,0.312,0.789,0.31c2.804-0.018,5.608-0.015,8.413-0.007
		c0.363,0.001,0.691-0.068,1.02-0.223c1.521-0.716,3.043-1.436,4.578-2.121c0.43-0.192,0.594-0.423,0.59-0.912
		c-0.025-3.186-0.027-6.371,0-9.556c0.004-0.564-0.137-0.732-0.715-0.726C48.645,34.758,45.73,34.743,42.818,34.743z M28.866,76.813
		c0.512-0.433,0.904-0.857,1.38-1.143c0.489-0.295,0.604-0.647,0.603-1.187c-0.018-6.396-0.009-12.794-0.014-19.19
		c-0.001-0.813,0.262-1.848-0.135-2.374c-0.399-0.528-1.469-0.554-2.247-0.791c-0.892-0.272-0.907-0.269-0.863,0.659
		c0.117,2.447,0.255,4.893,0.364,7.339c0.037,0.822-0.373,1.313-1.067,1.38c-0.736,0.07-1.244-0.373-1.363-1.196
		c-0.016-0.107-0.019-0.218-0.025-0.324c-0.17-3.235-0.343-6.47-0.509-9.703c-0.061-1.189-0.058-1.177-1.686-1.222
		c-0.926-0.026-0.782,0.674-0.811,1.186c-0.326,5.678-0.629,11.358-0.936,17.037c-0.217,4.022-0.415,8.045-0.66,12.065
		c-0.041,0.66,0.146,0.813,0.777,0.79c1.333-0.048,2.668-0.04,4-0.005c0.73,0.021,0.916-0.243,0.871-0.967
		c-0.265-4.291-0.484-8.585-0.708-12.88c-0.045-0.856,0.44-1.448,1.166-1.485c0.733-0.038,1.22,0.469,1.275,1.373
		c0.108,1.792,0.2,3.586,0.298,5.38C28.671,73.281,28.767,75.011,28.866,76.813z M33.322,53.578
		c-0.015,0.223-0.033,0.355-0.033,0.488c-0.001,6.59,0.005,13.18-0.012,19.771c-0.002,0.539,0.13,0.688,0.679,0.618
		c0.563-0.073,1.139,0.04,1.695,0.183c2.05,0.525,3.572,1.736,4.41,3.67c0.336,0.775,0.877,0.628,1.39,0.563
		c0.579-0.072,0.285-0.609,0.3-0.931c0.041-0.896-0.025-1.799,0.027-2.694c0.035-0.598-0.187-0.729-0.738-0.706
		c-1.061,0.041-2.124,0.016-3.186,0.011c-0.97-0.005-1.513-0.44-1.523-1.204c-0.01-0.757,0.554-1.235,1.495-1.244
		c1.116-0.009,2.233-0.022,3.349,0.009c0.458,0.012,0.611-0.117,0.601-0.59c-0.029-1.415-0.042-2.832,0.004-4.247
		c0.019-0.587-0.22-0.67-0.715-0.658c-1.116,0.027-2.233,0.027-3.349,0c-0.889-0.021-1.409-0.526-1.381-1.271
		c0.026-0.71,0.53-1.152,1.392-1.165c1.143-0.018,2.288-0.021,3.43,0.002c0.441,0.01,0.628-0.095,0.618-0.584
		c-0.03-1.443-0.027-2.887-0.001-4.33c0.008-0.455-0.114-0.614-0.588-0.602c-1.143,0.032-2.287,0.02-3.43,0.008
		c-0.875-0.009-1.429-0.499-1.426-1.229c0.002-0.738,0.54-1.207,1.43-1.216c1.117-0.012,2.234-0.036,3.349,0.011
		c0.565,0.023,0.653-0.188,0.67-0.695c0.052-1.604-0.264-3.23,0.327-4.832c-0.753,0-1.434,0.018-2.113-0.007
		c-0.398-0.015-0.496,0.081-0.431,0.503c0.333,2.201-1.414,3.751-3.571,3.178C35.128,54.157,34.28,53.871,33.322,53.578z
		 M36.87,85.334c3.376,0,6.753-0.012,10.13,0.012c0.559,0.005,0.672-0.141,0.584-0.686c-0.299-1.836-1.744-3.207-3.607-3.292
		c-1.086-0.05-2.177-0.017-3.267-0.021c-1.688-0.003-2.124-0.291-2.775-1.841c-0.691-1.642-2.252-2.675-3.966-2.623
		c-1.771,0.055-3.357,1.166-3.877,2.863c-0.298,0.974-0.858,1.581-1.767,1.979c-1.208,0.528-1.88,1.519-2.177,2.78
		c-0.133,0.563-0.074,0.86,0.674,0.85C30.17,85.309,33.521,85.334,36.87,85.334z M23.671,40.306
		c1.154,0.557,1.521-0.302,1.986-1.009c0.323-0.489,0.654-0.899,0.476-1.603c-0.708-2.783-1.332-5.586-1.992-8.381
		c-0.059-0.253-0.072-0.614-0.42-0.598c-0.335,0.015-0.334,0.364-0.396,0.627c-0.635,2.689-1.199,5.398-1.948,8.056
		c-0.359,1.273,0.544,1.873,1.007,2.727C22.717,40.741,23.277,40.211,23.671,40.306z M17.816,44.884
		c-0.374-0.121-0.572,0.181-0.804,0.398c-2.101,1.97-4.201,3.938-6.293,5.915c-0.2,0.188-0.598,0.368-0.372,0.709
		c0.198,0.301,0.549,0.094,0.825,0.012c2.724-0.814,5.446-1.632,8.167-2.455c1.078-0.326,1.412-1.328,0.793-2.259
		c-0.223-0.334-0.508-0.713-0.525-1.083c-0.05-1.115-0.716-1.281-1.607-1.213C17.949,44.912,17.894,44.895,17.816,44.884z
		 M29.156,44.971c-0.777-0.195-1.156,0.128-1.236,0.949c-0.053,0.542-0.374,1.01-0.7,1.449c-0.455,0.612-0.118,1.772,0.611,1.997
		c2.849,0.873,5.701,1.732,8.556,2.584c0.237,0.07,0.554,0.26,0.73-0.069c0.176-0.328-0.163-0.477-0.344-0.648
		c-2.053-1.94-4.123-3.864-6.162-5.819C30.184,45.003,29.784,44.72,29.156,44.971z M72.043,85.337c0.813,0,1.49-0.017,2.17,0.006
		c0.385,0.012,0.594-0.046,0.58-0.518c-0.035-1.111-0.029-2.226-0.002-3.337c0.012-0.446-0.158-0.556-0.568-0.544
		c-0.84,0.025-1.684,0.008-2.525,0.008c-1.982,0-1.988,0-1.982,1.953c0.004,0.782-0.27,1.836,0.127,2.273
		C70.301,85.688,71.373,85.264,72.043,85.337z M24.176,82.575c-1.488,0-2.876,0-4.264,0c-2.279,0-2.271-0.002-2.148,2.293
		c0.017,0.331,0.066,0.481,0.444,0.477c1.661-0.019,3.322-0.011,4.983-0.007c0.269,0.001,0.483-0.011,0.469-0.376
		C23.629,84.162,23.907,83.418,24.176,82.575z M78.707,78.5c0.68,0,1.359-0.017,2.035,0.008c0.359,0.013,0.484-0.096,0.443-0.46
		c-0.072-0.62-0.146-1.244-0.148-1.866c-0.002-0.457-0.197-0.53-0.59-0.518c-0.76,0.023-1.52,0.008-2.279,0.008
		c-1.764,0-1.764,0-1.922,1.791c-0.016,0.188-0.027,0.381-0.068,0.564c-0.078,0.356,0.049,0.488,0.412,0.479
		C77.295,78.487,78.002,78.5,78.707,78.5z M86.182,78.5c0.678,0,1.359-0.007,2.037,0.004c0.326,0.005,0.51-0.021,0.383-0.444
		c-0.195-0.648-0.32-1.319-0.469-1.979c-0.059-0.257-0.137-0.425-0.471-0.419c-1.277,0.022-2.555,0.016-3.832,0.005
		c-0.283-0.003-0.387,0.09-0.357,0.376c0.08,0.781-0.08,1.707,0.289,2.301c0.299,0.473,1.264,0.095,1.928,0.155
		C85.854,78.514,86.018,78.5,86.182,78.5z M71.199,78.5c0.654,0,1.309,0.006,1.961-0.003c0.176-0.003,0.471,0.09,0.498-0.135
		c0.104-0.861,0.271-1.751,0.141-2.587c-0.041-0.27-0.945-0.063-1.455-0.102c-0.271-0.021-0.543-0.002-0.816-0.002
		c-2.271,0-2.271,0-2.729,2.2c-0.01,0.053-0.014,0.108-0.029,0.161c-0.104,0.351,0.01,0.487,0.389,0.475
		C69.838,78.483,70.52,78.5,71.199,78.5z M77.23,83.198c0,0.408,0.041,0.821-0.01,1.224c-0.09,0.716,0.125,1.026,0.9,0.928
		c0.641-0.081,1.514,0.2,1.889-0.131c0.447-0.389,0.143-1.278,0.137-1.948c-0.006-0.75,0.346-1.738-0.148-2.189
		c-0.482-0.441-1.455-0.08-2.209-0.137c-0.418-0.03-0.592,0.099-0.568,0.54C77.254,82.054,77.23,82.627,77.23,83.198z
		 M78.705,73.222c0.461,0,0.926-0.038,1.383,0.01c0.588,0.062,0.758-0.13,0.654-0.715c-0.123-0.69,0.174-1.604-0.289-2.038
		c-0.457-0.429-1.344-0.121-2.041-0.131c-1.619-0.019-1.619-0.006-1.766,1.635c-0.109,1.239-0.109,1.239,1.16,1.239
		C78.105,73.222,78.406,73.222,78.705,73.222z M87.443,73.222c-0.201-0.885-0.389-1.7-0.568-2.519
		c-0.066-0.299-0.254-0.368-0.533-0.366c-0.953,0.012-1.906,0.007-2.857,0.004c-0.275-0.003-0.477,0.03-0.436,0.398
		c0.072,0.676,0.115,1.354,0.16,2.031c0.02,0.331,0.148,0.465,0.504,0.459C84.934,73.21,86.154,73.222,87.443,73.222z M72.086,73.25
		c0.613-0.028,1.471,0.18,1.906-0.159c0.451-0.351,0.152-1.271,0.293-1.929c0.016-0.079,0.002-0.165,0.02-0.244
		c0.104-0.483-0.113-0.604-0.566-0.586c-0.787,0.033-1.578,0.057-2.361-0.006c-0.652-0.052-0.908,0.192-0.992,0.816
		c-0.09,0.666-0.609,1.563-0.348,1.919C70.391,73.539,71.338,73.138,72.086,73.25z M25.644,44.705
		c-0.007-1.071-0.833-1.891-1.908-1.894c-1.075-0.003-1.904,0.813-1.914,1.884c-0.01,1.11,0.834,1.948,1.946,1.933
		C24.842,46.612,25.65,45.783,25.644,44.705z M78.672,67.894c0.379,0,0.764-0.031,1.139,0.009c0.496,0.052,0.568-0.16,0.543-0.603
		c-0.133-2.249-0.123-2.249-2.344-2.243c-0.025,0-0.055,0.005-0.082-0.002c-0.643-0.146-0.805,0.207-0.793,0.754
		c0.004,0.162-0.02,0.326-0.029,0.488C77.023,67.894,77.023,67.894,78.672,67.894z M84.533,67.894c0.326,0,0.656-0.033,0.977,0.008
		c0.604,0.077,0.66-0.185,0.545-0.691c-0.498-2.177-0.488-2.179-2.752-2.153c-0.055,0-0.109,0.006-0.164-0.002
		c-0.369-0.05-0.564,0.06-0.492,0.479c0.039,0.212,0.025,0.432,0.043,0.648C82.828,67.894,82.83,67.894,84.533,67.894z
		 M72.779,67.894c0.215,0,0.432,0,0.65,0c1.119,0,1.119,0,1.197-1.116c0.119-1.721,0.115-1.663-1.658-1.744
		c-0.902-0.042-1.367,0.206-1.404,1.121c0,0.056-0.012,0.108-0.023,0.161C71.182,67.894,71.182,67.894,72.779,67.894z
		 M52.281,77.451c0-1.431,0-1.431-1.355-1.431c-1.316,0-1.316,0-1.316,1.312c0,1.403,0,1.403,1.402,1.403
		C52.281,78.735,52.281,78.735,52.281,77.451z"/>
	<path fill-rule="evenodd" clip-rule="evenodd" fill="#0F117A" d="M84.48,26.77c0.008,3.99-3.238,7.228-7.215,7.202
		c-3.924-0.027-7.154-3.278-7.16-7.208c-0.006-3.972,3.236-7.183,7.246-7.176C81.307,19.594,84.473,22.784,84.48,26.77z
		 M77.289,22.037c-2.611,0.012-4.734,2.132-4.732,4.726c0.006,2.619,2.201,4.786,4.809,4.748c2.607-0.038,4.68-2.164,4.664-4.783
		C82.012,24.102,79.914,22.025,77.289,22.037z"/>
	<path fill-rule="evenodd" clip-rule="evenodd" fill="#0F117A" d="M56.697,77.306c0-0.517-0.014-1.034,0.002-1.552
		c0.043-1.311,0.848-2.144,2.146-2.176c1.113-0.03,2.229-0.031,3.344,0.001c1.23,0.033,2.055,0.809,2.111,2.036
		c0.053,1.168,0.053,2.341,0.002,3.509c-0.053,1.232-0.855,2.009-2.096,2.051c-1.141,0.04-2.285,0.044-3.426-0.001
		c-1.264-0.051-2.035-0.876-2.08-2.154C56.68,78.448,56.697,77.877,56.697,77.306z M60.449,78.739c1.42,0,1.42,0,1.42-1.391
		c0-1.329,0-1.329-1.307-1.329c-1.418,0-1.418,0-1.418,1.378C59.145,78.739,59.145,78.739,60.449,78.739z"/>
	<path fill-rule="evenodd" clip-rule="evenodd" fill="#0F117A" d="M60.549,53.474c0.543,0,1.088-0.017,1.631,0.004
		c1.232,0.046,2.063,0.802,2.121,2.028c0.057,1.168,0.051,2.341,0.004,3.508c-0.051,1.232-0.846,2.014-2.088,2.063
		c-1.139,0.044-2.285,0.045-3.426,0c-1.268-0.05-2.055-0.872-2.088-2.146c-0.027-1.115-0.031-2.232,0.002-3.346
		c0.039-1.259,0.867-2.061,2.129-2.106C59.404,53.457,59.977,53.474,60.549,53.474z M60.465,58.641c1.404,0,1.404,0,1.404-1.406
		c0-1.313,0-1.313-1.324-1.313c-1.4,0-1.4,0-1.4,1.396C59.145,58.641,59.145,58.641,60.465,58.641z"/>
	<path fill-rule="evenodd" clip-rule="evenodd" fill="#0F117A" d="M54.73,57.306c0,0.544,0.01,1.088-0.002,1.631
		c-0.029,1.22-0.721,2.047-1.916,2.116c-1.245,0.073-2.502,0.071-3.748,0c-1.164-0.066-1.867-0.871-1.895-2.047
		c-0.027-1.141-0.027-2.283-0.002-3.425c0.027-1.237,0.806-2.055,2.029-2.097c1.168-0.039,2.34-0.04,3.508,0.002
		c1.217,0.043,1.989,0.877,2.021,2.106C54.742,56.163,54.729,56.734,54.73,57.306z M52.28,57.23c0-1.308,0-1.308-1.231-1.308
		c-1.439,0-1.439,0-1.439,1.434c0,1.281,0,1.281,1.279,1.281C52.28,58.638,52.28,58.638,52.28,57.23z"/>
	<path fill-rule="evenodd" clip-rule="evenodd" fill="#0F117A" d="M60.52,71.12c-0.57-0.001-1.143,0.014-1.713-0.004
		c-1.219-0.036-2.051-0.814-2.098-2.038c-0.043-1.166-0.043-2.339,0-3.506c0.045-1.194,0.852-1.983,2.029-2.013
		c1.168-0.029,2.34-0.028,3.508-0.002c1.191,0.027,1.992,0.778,2.051,1.987c0.057,1.192,0.063,2.394-0.002,3.588
		c-0.063,1.232-0.895,1.956-2.145,1.985C61.609,71.13,61.064,71.12,60.52,71.12z M60.48,68.672c1.387,0,1.387,0,1.387-1.328
		c0-1.344,0-1.344-1.379-1.344c-1.342,0-1.342,0-1.342,1.375C59.146,68.672,59.146,68.672,60.48,68.672z"/>
	<path fill-rule="evenodd" clip-rule="evenodd" fill="#0F117A" d="M50.956,63.555c0.599,0.001,1.196-0.021,1.794,0.006
		c1.146,0.052,1.938,0.828,1.969,1.968c0.032,1.195,0.031,2.393,0.001,3.587c-0.03,1.169-0.851,1.969-2.034,1.997
		c-1.168,0.027-2.338,0.027-3.506-0.002c-1.148-0.028-1.963-0.808-2-1.938c-0.041-1.221-0.039-2.445-0.002-3.668
		c0.033-1.14,0.83-1.899,1.984-1.946C49.76,63.534,50.359,63.554,50.956,63.555z M50.932,68.668c1.346,0,1.346,0,1.346-1.336
		c0-0.026,0-0.055,0-0.081c0-1.248,0-1.248-1.275-1.248c-1.389,0-1.389,0-1.389,1.381C49.613,68.668,49.613,68.668,50.932,68.668z"
		/>
	<path fill-rule="evenodd" clip-rule="evenodd" fill="#0F117A" d="M88.145,34.32c-0.703-0.261-1.463-0.565-1.986-1.211
		c-0.342-0.419-0.287-0.922,0.029-1.36c0.316-0.437,0.775-0.633,1.283-0.466c0.59,0.194,1.139,0.514,1.607,0.922
		c0.4,0.35,0.494,0.827,0.283,1.334C89.15,34.044,88.738,34.26,88.145,34.32z"/>
	<path fill-rule="evenodd" clip-rule="evenodd" fill="#0F117A" d="M66.52,34.321c-0.631-0.055-1.051-0.264-1.258-0.77
		c-0.221-0.534-0.127-1.043,0.33-1.385c0.449-0.337,0.947-0.627,1.465-0.851c0.529-0.229,1.021-0.032,1.361,0.423
		c0.318,0.428,0.363,0.933,0.043,1.359C67.953,33.77,67.172,34.034,66.52,34.321z"/>
	<path fill-rule="evenodd" clip-rule="evenodd" fill="#0F117A" d="M88.115,19.237c0.641,0.02,1.039,0.25,1.248,0.755
		c0.223,0.542,0.102,1.039-0.35,1.381c-0.426,0.324-0.898,0.609-1.391,0.816c-0.508,0.215-1.018,0.105-1.389-0.352
		c-0.361-0.449-0.438-0.977-0.074-1.419C86.684,19.781,87.426,19.445,88.115,19.237z"/>
	<path fill-rule="evenodd" clip-rule="evenodd" fill="#0F117A" d="M68.643,21.21c-0.018,0.063-0.043,0.257-0.125,0.421
		c-0.367,0.727-1.098,0.828-2.037,0.295c-1.287-0.73-1.621-1.34-1.135-2.105c0.098-0.155,0.24-0.302,0.395-0.397
		c0.604-0.368,1.143-0.125,1.674,0.204C67.986,19.982,68.674,20.229,68.643,21.21z"/>
	<path fill-rule="evenodd" clip-rule="evenodd" fill="#0F117A" d="M78.543,38.839c0.002,0.35,0.039,0.703-0.121,1.035
		c-0.271,0.559-0.719,0.791-1.322,0.696c-0.574-0.091-0.922-0.449-0.982-1.021c-0.047-0.455-0.035-0.918-0.014-1.376
		c0.031-0.723,0.479-1.192,1.135-1.226c0.695-0.036,1.215,0.422,1.301,1.164C78.566,38.35,78.543,38.597,78.543,38.839z"/>
	<path fill-rule="evenodd" clip-rule="evenodd" fill="#0F117A" d="M76.1,14.742c0-0.217-0.014-0.434,0.004-0.648
		c0.057-0.69,0.436-1.1,1.121-1.154c0.697-0.055,1.15,0.325,1.275,0.986c0.09,0.47,0.07,0.97,0.037,1.452
		c-0.053,0.75-0.57,1.218-1.262,1.2c-0.699-0.018-1.139-0.489-1.178-1.269c-0.01-0.188,0-0.378,0-0.567H76.1z"/>
	<path fill-rule="evenodd" clip-rule="evenodd" fill="#0F117A" d="M42.702,40.347c1.657,0,3.314-0.006,4.971,0.002
		c1.003,0.005,1.5,0.408,1.511,1.191c0.012,0.81-0.521,1.256-1.549,1.259c-3.232,0.006-6.465,0.005-9.698,0
		c-1.018-0.002-1.592-0.445-1.607-1.216c-0.015-0.782,0.542-1.23,1.564-1.234C39.497,40.343,41.099,40.347,42.702,40.347z"/>
</g>
</svg>
