<?xml version="1.0" encoding="utf-8"?>
<!-- Generator: Adobe Illustrator 16.0.0, SVG Export Plug-In . SVG Version: 6.00 Build 0)  -->
<!DOCTYPE svg PUBLIC "-//W3C//DTD SVG 1.1//EN" "http://www.w3.org/Graphics/SVG/1.1/DTD/svg11.dtd">
<svg version="1.1" id="Layer_1" xmlns="http://www.w3.org/2000/svg" xmlns:xlink="http://www.w3.org/1999/xlink" x="0px" y="0px"
	 width="100px" height="100px" viewBox="0 0 100 100" enable-background="new 0 0 100 100" xml:space="preserve">
<path display="none" fill="#E86481" d="M8.767,73.18c0-15.463,0-30.926,0-46.388c0.128-0.018,0.153-0.115,0.19-0.219
	c1.416-3.984,3.671-5.58,7.884-5.58c16.122,0,32.244,0,48.365,0c6.224,0,12.446-0.01,18.67,0.004
	c3.442,0.008,6.173,2.11,7.125,5.413c0.052,0.181-0.049,0.453,0.231,0.543c0,15.409,0,30.818,0,46.227
	c-0.176,0.021-0.172,0.174-0.213,0.295c-1.297,3.797-3.687,5.504-7.701,5.504c-9.174,0-18.351,0-27.523,0
	c-13.198,0-26.397,0.004-39.595-0.004c-3.444-0.002-6.136-2.009-7.15-5.269C8.993,73.521,9.035,73.26,8.767,73.18z M82.816,26.035
	c-0.043-0.056-0.088-0.111-0.131-0.167c-21.797,0-43.594,0-65.391,0c-0.049,0.063-0.098,0.125-0.146,0.188
	c0.198,0.129,0.426,0.229,0.59,0.393c9.988,10.009,19.971,20.023,29.956,30.037c1.552,1.557,3.054,1.563,4.595,0.02
	c7.162-7.181,14.315-14.37,21.487-21.542C76.773,31.969,79.803,29.01,82.816,26.035z M17.05,74.096c22.072,0,43.868,0,65.722,0
	c-0.092-0.119-0.131-0.186-0.184-0.238c-6.648-6.67-13.303-13.336-19.938-20.021c-0.414-0.419-0.604-0.284-0.93,0.048
	c-2.035,2.064-4.087,4.112-6.133,6.164c-3.236,3.246-7.951,3.241-11.184-0.009c-1.987-1.998-3.992-3.978-5.954-5.999
	c-0.48-0.495-0.738-0.582-1.281-0.031c-4.787,4.852-9.605,9.672-14.425,14.49C20.911,70.334,19.045,72.137,17.05,74.096z
	 M13.658,29.396c0,13.71,0,27.506,0,41.4c0.7-0.706,1.32-1.335,1.944-1.962c6.083-6.102,12.163-12.209,18.262-18.295
	c0.444-0.443,0.466-0.68,0-1.11c-0.927-0.854-1.789-1.779-2.685-2.667C25.33,40.962,19.478,35.163,13.658,29.396z M86.376,29.316
	c-0.051-0.034-0.103-0.068-0.153-0.102c-0.17,0.203-0.328,0.418-0.514,0.605c-6.496,6.522-12.988,13.046-19.506,19.547
	c-0.492,0.49-0.52,0.721-0.01,1.229c6.574,6.556,13.125,13.138,19.675,19.72c0.139,0.141,0.212,0.347,0.315,0.521
	c0.063-0.06,0.129-0.116,0.19-0.174C86.376,56.879,86.376,43.098,86.376,29.316z"/>
<g>
	<path fill="#0F117A" d="M6.677,48.788c0.562-0.861,1.36-1.071,2.364-1.065c5.497,0.039,10.996,0.009,16.493,0.032
		c0.555,0.002,0.817-0.145,1.001-0.684c0.667-1.943,1.566-3.786,2.608-5.558c-0.255-0.232-0.51-0.13-0.736-0.131
		c-2.831-0.01-5.662-0.003-8.494-0.007c-1.21-0.002-1.966-0.615-1.994-1.603c-0.029-1.003,0.773-1.695,1.999-1.697
		c3.628-0.005,7.257-0.013,10.886,0.011c0.489,0.002,0.785-0.151,1.094-0.529c4.724-5.771,10.68-9.618,17.939-11.402
		c0.487-0.12,0.734-0.297,0.7-0.865c-0.057-0.903-0.051-1.816-0.002-2.72c0.032-0.579-0.155-0.834-0.715-1.045
		c-2.322-0.875-3.688-3.112-3.542-5.658c0.13-2.262,1.812-4.312,4.091-4.937c0.498-0.136,1.026-0.219,1.543-0.221
		c3.93-0.018,7.86-0.032,11.792-0.001c2.671,0.022,4.906,1.8,5.489,4.271c0.603,2.553-0.528,5.228-2.898,6.279
		c-1.058,0.468-1.345,1.018-1.214,2.052c0.08,0.622,0.07,1.269,0,1.893c-0.072,0.641,0.231,0.805,0.771,0.957
		c13.528,3.795,21.709,12.637,24.768,26.294c0.231,1.024,0.194,2.097,0.541,3.102c0,1.98,0,3.96,0,5.939
		c-0.383,0.856-0.324,1.796-0.488,2.691c-0.798,4.398-2.359,8.491-4.765,12.265c-0.431,0.675-1.011,1.012-1.799,0.869
		c-0.721-0.13-1.146-0.616-1.309-1.32c-0.138-0.588,0.159-1.064,0.453-1.533c1.93-3.075,3.254-6.389,3.969-9.951
		c2.838-14.161-4.501-28.07-17.813-33.732c-17.221-7.324-37.243,3.207-40.956,21.543c-2.867,14.153,4.267,28.083,17.541,33.69
		c9.399,3.97,18.643,3.263,27.491-1.912c0.259-0.151,0.507-0.328,0.773-0.467c0.847-0.441,1.765-0.203,2.233,0.562
		c0.473,0.768,0.281,1.692-0.521,2.238c-1.293,0.883-2.678,1.614-4.095,2.276c-17.202,8.013-37.763-0.061-44.884-17.64
		c-0.23-0.566-0.492-0.783-1.122-0.777c-3.437,0.033-6.874,0.018-10.311,0.015c-0.328-0.002-0.664-0.002-0.984-0.062
		c-0.761-0.141-1.295-0.813-1.296-1.586c0-0.736,0.494-1.402,1.215-1.568c0.317-0.074,0.653-0.082,0.981-0.083
		c3.135-0.005,6.269-0.021,9.403,0.012c0.646,0.007,0.719-0.213,0.577-0.754c-0.432-1.65-0.713-3.331-0.799-5.034
		c-0.024-0.479-0.211-0.58-0.652-0.576c-2.145,0.021-4.29,0.012-6.434,0.009c-1.215-0.003-1.958-0.615-1.98-1.614
		c-0.022-1.029,0.742-1.683,1.993-1.685c2.117-0.006,4.235-0.015,6.351,0.009c0.444,0.005,0.61-0.097,0.632-0.57
		c0.078-1.729,0.265-3.455,0.666-5.141c0.136-0.573-0.037-0.633-0.532-0.632c-3.711,0.016-7.423,0.009-11.135,0.009
		c-1.513,0-3.026-0.038-4.537,0.013c-1.009,0.037-1.809-0.235-2.354-1.112C6.677,49.559,6.677,49.174,6.677,48.788z M57.823,18.623
		c1.868,0,3.736,0.006,5.605-0.002c1.577-0.008,2.643-0.953,2.63-2.314c-0.012-1.342-1.057-2.295-2.582-2.3
		c-3.793-0.013-7.585-0.015-11.376,0c-1.517,0.006-2.539,0.975-2.53,2.334c0.007,1.368,1.012,2.27,2.567,2.279
		C54.032,18.629,55.928,18.623,57.823,18.623z M57.835,21.921c-1.153,0-2.306,0.018-3.46-0.008c-0.431-0.01-0.575,0.125-0.562,0.557
		c0.028,0.796,0.022,1.592,0.002,2.388c-0.008,0.364,0.045,0.556,0.486,0.506c2.354-0.266,4.711-0.264,7.063,0
		c0.415,0.046,0.44-0.147,0.434-0.467c-0.015-0.795-0.029-1.593,0.006-2.387c0.022-0.465-0.125-0.612-0.595-0.598
		C60.085,21.944,58.958,21.921,57.835,21.921z"/>
	<path fill="#0F117A" d="M6.677,68.094c0.115-0.144,0.227-0.291,0.345-0.433c0.649-0.782,1.758-0.855,2.458-0.166
		c0.688,0.678,0.657,1.764-0.068,2.399c-0.705,0.619-1.783,0.505-2.399-0.238c-0.112-0.135-0.096-0.378-0.334-0.408
		C6.677,68.864,6.677,68.479,6.677,68.094z"/>
	<path fill="#0F117A" d="M57.858,32.894c14.179,0.044,25.615,11.534,25.558,25.679C83.36,72.678,71.828,84.147,57.76,84.088
		C43.648,84.027,32.208,72.525,32.242,58.43C32.278,44.309,43.771,32.851,57.858,32.894z M57.839,36.198
		c-12.291-0.012-22.275,9.954-22.295,22.252c-0.02,12.275,9.958,22.299,22.237,22.336c12.261,0.038,22.303-9.96,22.335-22.235
		C80.147,46.213,70.179,36.209,57.839,36.198z"/>
	<path fill="#0F117A" d="M78.601,80.862c0.008-0.897,0.717-1.606,1.614-1.615c0.917-0.009,1.693,0.755,1.677,1.656
		c-0.016,0.878-0.753,1.606-1.636,1.617C79.322,82.531,78.592,81.8,78.601,80.862z"/>
	<path fill="#0F117A" d="M52.7,58.437c-0.003-0.593,0.083-1.171,0.331-1.694c0.205-0.433,0.076-0.679-0.238-0.98
		c-1.029-0.991-2.036-2.009-3.039-3.028c-0.817-0.831-0.883-1.766-0.2-2.479c0.689-0.719,1.705-0.663,2.543,0.162
		c1.038,1.021,2.069,2.051,3.085,3.096c0.266,0.272,0.485,0.337,0.851,0.192c1.168-0.468,2.372-0.474,3.538-0.019
		c0.451,0.176,0.676,0.052,0.979-0.253c2.478-2.499,4.977-4.978,7.459-7.473c0.404-0.406,0.837-0.735,1.423-0.723
		c0.65,0.011,1.171,0.303,1.46,0.905c0.283,0.589,0.259,1.184-0.151,1.706c-0.27,0.345-0.592,0.649-0.902,0.958
		c-2.293,2.296-4.58,4.6-6.893,6.877c-0.382,0.374-0.455,0.657-0.281,1.188c0.678,2.08,0.2,3.938-1.418,5.396
		c-1.616,1.457-3.519,1.771-5.514,0.868C53.744,62.234,52.786,60.599,52.7,58.437z M57.853,56.675
		c-1.027-0.011-1.84,0.785-1.84,1.807c-0.001,1.004,0.839,1.846,1.835,1.832c0.968-0.013,1.774-0.812,1.799-1.785
		C59.671,57.51,58.875,56.687,57.853,56.675z"/>
	<path fill="#0F117A" d="M41.024,56.805c0.3,0.015,0.604,0.007,0.902,0.043c0.825,0.104,1.39,0.729,1.417,1.546
		c0.028,0.83-0.463,1.5-1.285,1.656c-0.728,0.138-1.476,0.138-2.204,0.001c-0.811-0.15-1.348-0.855-1.319-1.644
		c0.029-0.826,0.644-1.479,1.503-1.563c0.325-0.032,0.656-0.004,0.985-0.004C41.024,56.826,41.024,56.816,41.024,56.805z"/>
	<path fill="#0F117A" d="M59.489,41.57c0,0.273,0.013,0.548-0.004,0.822c-0.052,0.917-0.677,1.567-1.543,1.613
		c-0.856,0.046-1.621-0.546-1.72-1.426c-0.069-0.623-0.066-1.263-0.01-1.888c0.081-0.925,0.841-1.535,1.747-1.484
		c0.866,0.049,1.477,0.695,1.525,1.623C59.499,41.076,59.489,41.323,59.489,41.57z"/>
	<path fill="#0F117A" d="M56.17,75.322c0-0.249-0.011-0.496,0.002-0.741c0.049-0.936,0.732-1.623,1.614-1.636
		c0.879-0.013,1.603,0.656,1.672,1.591c0.037,0.517,0.031,1.041,0.005,1.56c-0.051,0.981-0.771,1.694-1.67,1.682
		c-0.903-0.012-1.589-0.733-1.623-1.719C56.161,75.815,56.168,75.567,56.17,75.322z"/>
	<path fill="#0F117A" d="M74.756,56.861c0.246,0.002,0.494-0.01,0.741,0.003c0.904,0.05,1.57,0.682,1.625,1.539
		c0.056,0.869-0.597,1.647-1.514,1.737c-0.544,0.054-1.098,0.041-1.644,0.013c-1.001-0.051-1.66-0.737-1.648-1.677
		c0.013-0.938,0.682-1.58,1.7-1.614C74.262,56.854,74.509,56.861,74.756,56.861z"/>
</g>
</svg>
