<?xml version="1.0" encoding="utf-8"?>
<!-- Generator: Adobe Illustrator 16.0.0, SVG Export Plug-In . SVG Version: 6.00 Build 0)  -->
<!DOCTYPE svg PUBLIC "-//W3C//DTD SVG 1.1//EN" "http://www.w3.org/Graphics/SVG/1.1/DTD/svg11.dtd">
<svg version="1.1" id="Layer_1" xmlns="http://www.w3.org/2000/svg" xmlns:xlink="http://www.w3.org/1999/xlink" x="0px" y="0px"
	 width="100px" height="100px" viewBox="0 0 100 100" enable-background="new 0 0 100 100" xml:space="preserve">
<g>
	<path fill="#0F117A" d="M50.011,95.99C30.455,95.966,13.96,82.805,9.751,64.184c-2.206-9.758-0.708-19.072,3.586-28.007
		c0.302-0.629,0.349-1.056-0.135-1.624c-1.317-1.545-2.25-3.268-2.465-5.36c-0.338-3.271,1.447-6.643,4.494-8.257
		c2.839-1.503,6.543-1.07,8.959,1.12c0.488,0.442,0.758,0.483,1.288,0.08c1.419-1.084,2.913-2.072,4.485-2.919
		c0.622-0.335,0.559-0.574,0.216-1.093C27.193,13.58,28.975,7.57,33.87,5.592c4.832-1.953,10.272,1.148,11.113,6.343
		c0.093,0.575,0.176,1.167,0.135,1.742c-0.045,0.633,0.155,0.809,0.765,0.752c10.869-1.013,20.426,2.474,29.202,8.576
		c1.544,1.073,3.002,2.263,4.336,3.591c0.345,0.343,0.562,0.372,0.986,0.066c2.752-1.977,6.243-1.744,8.632,0.527
		c2.408,2.292,2.88,6.002,1.088,8.793c-0.499,0.775-1.021,1.552-1.639,2.23c-0.651,0.717-0.629,1.394-0.372,2.269
		c1.497,5.104,2.438,10.315,2.303,15.644c-0.467,18.223-12.724,33.609-29.843,38.381c-1.604,0.446-3.225,0.801-4.864,1.055
		C53.673,95.875,51.617,96.046,50.011,95.99z M80.834,29.377c-0.055,0.065-0.111,0.132-0.166,0.196
		c-0.395,0.426-0.625,0.929-0.706,1.501c-0.437,1.4-0.133,2.704,0.668,3.859c1.086,1.565,2.272,3.061,3.399,4.597
		c0.266,0.363,0.425,0.434,0.728,0.017c1.117-1.544,2.308-3.037,3.397-4.6c0.961-1.378,1.133-2.904,0.474-4.472
		c-0.665-1.586-1.83-2.643-3.552-2.884c-1.608-0.225-3.047,0.199-4.071,1.583C80.947,29.241,80.893,29.31,80.834,29.377z
		 M48.333,16.473c1.297,1.869,2.493,3.613,3.711,5.341c1.345,1.909,1.758,3.967,1.044,6.215c-0.382,1.201-1.234,2.112-1.934,3.124
		c-1.515,2.186-3.605,2.895-6.127,2.43c-1.73-0.319-2.95,0.253-3.935,1.699c-1.224,1.797-2.972,2.598-5.178,2.3
		c-1.219-0.165-2.44-0.335-3.666-0.405c-1.313-0.073-2.328,0.543-2.981,1.669c-0.625,1.075-0.419,2.121,0.245,3.125
		c0.696,1.053,1.342,2.139,2.043,3.188c0.813,1.218,1.966,1.516,3.293,0.874c0.526-0.254,1.042-0.532,1.543-0.833
		c1.656-0.996,3.45-1.331,5.324-0.963c0.773,0.152,1.013,0,1.255-0.747c1.356-4.165,5.728-6.533,9.826-5.396
		c4.28,1.189,6.89,5.595,5.923,9.928c-0.376,1.68-1.261,3.074-2.338,4.345c-0.52,0.613-0.447,1.021,0.021,1.566
		c1.104,1.283,2.164,2.606,3.256,3.9c1.544,1.831,1.379,3.992-0.473,5.523c-0.927,0.767-1.848,1.556-2.856,2.193
		c-1.972,1.243-3.101,2.983-3.593,5.241c-0.524,2.401-1.457,4.612-3.26,6.399c-0.851,0.845-1.196,1.996-1.335,3.184
		c-0.112,0.951-0.474,1.798-1.125,2.48c-1.011,1.063-2.226,1.686-3.729,1.248c-1.405-0.408-2.194-1.385-2.419-2.845
		c-0.267-1.731-0.546-3.462-0.877-5.183c-0.293-1.523-0.261-3.139-1.299-4.461c-1.407-1.793-2.739-3.645-4.159-5.426
		c-0.978-1.229-1.669-2.568-2.066-4.084c-0.419-1.605-0.892-3.197-1.317-4.804c-0.408-1.534-1.362-2.51-2.881-2.948
		c-0.893-0.258-1.779-0.568-2.474-1.197c-1.915-1.732-3.925-3.365-5.359-5.574c-1.038-1.6-2.979-2.222-4.791-1.661
		c-1.028,0.318-2.036,0.707-3.071,0.996c-0.567,0.158-0.767,0.475-0.87,1.023c-0.752,3.992-0.926,7.99-0.397,12.03
		c1.095,8.363,4.484,15.669,10.335,21.708c8.427,8.701,18.759,12.715,30.893,11.906c6.359-0.424,12.255-2.359,17.598-5.816
		c9.635-6.231,15.492-15.031,17.533-26.332c0.438-2.425,0.609-4.883,0.468-7.354c-0.014-0.248,0.087-0.548-0.317-0.66
		c-1.739-0.48-3.903,0.495-4.709,2.146C82.063,57.715,80.376,59,78.014,59.4c-1.227,0.207-2.459,0.098-3.688,0.104
		c-2.746,0.01-4.361-1.502-4.556-4.258c-0.082-1.178-0.477-2.114-1.516-2.79c-0.855-0.556-1.396-1.424-1.58-2.418
		c-0.46-2.499-0.143-4.764,1.982-6.523c1.684-1.393,3.289-2.881,4.919-4.339c0.877-0.784,1.09-1.796,0.741-2.868
		c-0.328-1.012-1.092-1.609-2.172-1.76c-0.334-0.047-0.67-0.099-1.002-0.167c-2.945-0.603-5.179-3.734-3.158-6.917
		c0.824-1.299,1.537-2.668,2.352-3.974c0.329-0.528,0.318-0.785-0.271-1.115c-1.828-1.023-3.688-1.979-5.627-2.773
		C59.344,17.522,54.079,16.294,48.333,16.473z M12.608,44.541c0.88-0.271,1.661-0.519,2.445-0.754
		c2.597-0.777,5.474,0.031,6.997,2.249c1.278,1.86,2.912,3.327,4.514,4.854c0.661,0.629,1.411,1.057,2.292,1.314
		c2.349,0.688,3.837,2.238,4.48,4.602c0.387,1.426,0.782,2.848,1.162,4.272c0.343,1.287,0.798,2.503,1.649,3.571
		c1.478,1.854,2.883,3.767,4.331,5.644c0.752,0.976,1.178,2.073,1.37,3.283c0.375,2.368,0.763,4.735,1.168,7.099
		c0.093,0.54,0.189,1.129,0.888,1.26c0.697,0.133,1.185-0.213,1.585-0.728c0.271-0.347,0.395-0.746,0.454-1.188
		c0.196-1.492,0.63-2.946,1.665-4.039c1.583-1.67,2.497-3.621,3.008-5.817c0.146-0.626,0.366-1.237,0.567-1.851
		c0.453-1.383,1.23-2.537,2.396-3.427c1.396-1.063,2.795-2.127,4.167-3.221c0.886-0.706,0.967-1.47,0.272-2.313
		c-1.074-1.31-2.188-2.586-3.256-3.9c-0.279-0.344-0.423-0.336-0.673,0.009c-0.702,0.974-1.432,1.929-2.151,2.89
		c-0.896,1.194-1.549,1.205-2.458-0.002c-1.778-2.363-3.542-4.736-5.302-7.111c-0.86-1.157-1.418-2.458-1.573-3.892
		c-0.059-0.55-0.318-0.761-0.785-0.842c-1.357-0.233-2.693-0.282-3.95,0.437c-0.614,0.353-1.243,0.679-1.872,1.004
		c-2.505,1.292-4.859,0.667-6.411-1.71c-0.673-1.032-1.324-2.078-1.985-3.116c-1.096-1.722-1.307-3.516-0.292-5.329
		c1.047-1.873,2.7-2.838,4.846-2.833c0.948,0.003,1.906,0.125,2.841,0.293c1.979,0.354,3.549,0.059,4.761-1.847
		c1.15-1.809,3.097-2.458,5.191-2.064c2.067,0.389,3.64-0.082,4.732-1.926c0.14-0.237,0.333-0.442,0.5-0.664
		c1.251-1.666,1.373-3.608,0.222-5.338c-1.414-2.128-2.891-4.214-4.354-6.311c-0.397-0.569-1.482-0.521-1.854,0.08
		c-1.864,3.021-4.176,5.716-6.246,8.586c-0.663,0.919-1.402,0.892-2.095-0.019c-1.138-1.495-2.272-2.993-3.37-4.517
		c-0.366-0.506-0.667-0.561-1.201-0.236c-1.5,0.912-2.967,1.873-4.42,2.857c-0.547,0.371-0.667,0.689-0.407,1.349
		c1.132,2.866,0.87,5.631-0.938,8.153c-1.795,2.502-3.663,4.952-5.517,7.412c-0.723,0.959-1.421,0.958-2.17,0.005
		c-0.741-0.944-1.451-1.915-2.158-2.886c-0.315-0.432-0.53-0.443-0.739,0.078c-0.457,1.143-0.957,2.269-1.385,3.42
		C13.178,42.374,12.771,43.365,12.608,44.541z M86.089,41.505c-0.214,0.263-0.312,0.38-0.403,0.498
		c-1.065,1.325-1.595,1.309-2.625-0.073c-1.324-1.777-2.672-3.539-3.979-5.33c-1.656-2.271-2.004-4.713-0.822-7.308
		c0.162-0.352,0.188-0.583-0.126-0.878c-1.594-1.505-3.302-2.865-5.092-4.125c-0.313-0.222-0.493-0.234-0.707,0.148
		c-0.858,1.529-1.78,3.024-2.63,4.56c-0.52,0.945-0.313,1.735,0.488,2.485c0.677,0.632,1.531,0.734,2.383,0.877
		c2.146,0.363,3.734,1.976,4.059,4.108c0.307,2.003-0.542,3.508-2.008,4.776c-1.654,1.431-3.309,2.862-4.904,4.356
		c-1.49,1.391-1.344,4.137,0.256,5.377c1.379,1.068,1.926,2.494,2.014,4.174c0.072,1.397,0.777,2.093,2.148,2.137
		c0.922,0.029,1.85,0.039,2.771-0.004c1.824-0.083,3.343-0.817,4.093-2.531c0.972-2.22,2.54-3.33,4.966-3.46
		c1.943-0.104,1.984-0.214,1.723-2.171C87.354,46.602,86.861,44.111,86.089,41.505z M24.871,28.545
		c0.018-3.741-3.169-6.731-6.55-6.236c-4.674,0.683-6.944,5.784-4.258,9.675c1.381,2,2.903,3.902,4.339,5.863
		c0.368,0.501,0.607,0.561,1.006,0.013c1.413-1.941,2.878-3.843,4.295-5.782C24.485,31.011,24.914,29.805,24.871,28.545z
		 M37.023,7.206c-2.41,0.041-4.207,1.125-5.334,3.214c-1.203,2.229-1.054,4.466,0.389,6.533c1.408,2.016,2.937,3.946,4.385,5.935
		c0.333,0.456,0.524,0.48,0.865,0.017c1.455-1.982,2.979-3.917,4.394-5.927c1.429-2.029,1.597-4.235,0.458-6.449
		C41.113,8.455,39.374,7.326,37.023,7.206z M44.759,46.451c-0.031,1.055,0.309,2.203,1.029,3.197
		c1.499,2.066,3.051,4.092,4.562,6.149c0.287,0.391,0.441,0.387,0.724,0.002c1.527-2.081,3.141-4.105,4.604-6.232
		c1.535-2.23,1.315-5.133-0.393-7.312c-1.527-1.949-4.217-2.714-6.568-1.871C46.339,41.236,44.72,43.641,44.759,46.451z"/>
	<path fill="#0F117A" d="M13.896,28.242c0.001-2.712,2.075-4.787,4.784-4.785c2.664,0.001,4.813,2.131,4.833,4.788
		c0.02,2.583-2.219,4.819-4.833,4.83C16.057,33.084,13.895,30.901,13.896,28.242z M16.118,28.233
		c-0.001,1.425,1.167,2.623,2.553,2.62c1.372-0.004,2.622-1.244,2.617-2.598c-0.005-1.42-1.167-2.571-2.599-2.577
		C17.215,25.671,16.119,26.761,16.118,28.233z"/>
	<path fill="#0F117A" d="M36.692,17.973c-2.691,0.003-4.824-2.105-4.825-4.771c-0.002-2.656,2.179-4.863,4.786-4.847
		c2.666,0.018,4.821,2.166,4.828,4.811C41.488,15.854,39.38,17.97,36.692,17.973z M36.717,15.75
		c1.439-0.016,2.562-1.157,2.544-2.587c-0.017-1.414-1.188-2.586-2.585-2.586c-1.432,0-2.615,1.222-2.588,2.674
		C34.114,14.68,35.257,15.768,36.717,15.75z"/>
	<path fill="#0F117A" d="M50.542,41.22c2.64,0.02,4.812,2.226,4.771,4.851c-0.041,2.568-2.248,4.757-4.804,4.764
		c-2.685,0.007-4.833-2.175-4.812-4.888C45.717,43.252,47.82,41.202,50.542,41.22z M50.518,43.439
		c-1.48-0.015-2.584,1.057-2.602,2.528c-0.016,1.432,1.105,2.609,2.523,2.646c1.363,0.037,2.624-1.184,2.647-2.563
		C53.107,44.646,51.938,43.455,50.518,43.439z"/>
	<path fill="#0F117A" d="M80.996,29.517c0.055-0.059,0.107-0.116,0.162-0.173c2.002-2.007,4.984-1.503,6.316,0.33
		c1.021,1.41,1.072,3.359,0.098,4.747c-1.061,1.507-2.926,2.14-4.637,1.576c-1.681-0.553-2.822-2.137-2.806-3.918
		c0.003-0.335,0.069-0.669,0.104-1.004c0.203-0.436,0.404-0.872,0.606-1.308C80.895,29.684,80.945,29.601,80.996,29.517z
		 M84.234,30.288c-1.072-0.014-1.877,0.762-1.892,1.821c-0.012,0.997,0.882,1.898,1.87,1.887c0.967-0.01,1.809-0.845,1.836-1.822
		C86.081,31.104,85.311,30.303,84.234,30.288z"/>
</g>
</svg>
