<?xml version="1.0" encoding="utf-8"?>
<!-- Generator: Adobe Illustrator 16.0.0, SVG Export Plug-In . SVG Version: 6.00 Build 0)  -->
<!DOCTYPE svg PUBLIC "-//W3C//DTD SVG 1.1//EN" "http://www.w3.org/Graphics/SVG/1.1/DTD/svg11.dtd">
<svg version="1.1" id="Layer_1" xmlns="http://www.w3.org/2000/svg" xmlns:xlink="http://www.w3.org/1999/xlink" x="0px" y="0px"
	 width="250px" height="250px" viewBox="0 0 250 250" enable-background="new 0 0 250 250" xml:space="preserve">
<path fill-rule="evenodd" clip-rule="evenodd" fill="#424552" d="M95.98,68.258c-2.501-7.958-3.547-16.034-1.244-24.195
	c1.843-6.527,5.796-9.556,12.503-10.097c0.612-0.049,1.152-0.036,1.512-0.718c2.357-4.464,6.158-6.997,11.003-8.091
	c0.276-0.063,0.505-0.158,0.567-0.469c2.968,0,5.936,0,8.904,0c2.168,0.555,4.379,0.979,6.496,1.685
	c12.089,4.029,20.145,11.796,22.381,24.719c0.95,5.487-0.155,10.682-2.968,15.499c-3.275-1.125-5.093-3.584-6.093-6.746
	c-0.835-2.638-1.629-5.284-3.5-7.428c-1.179-1.351-2.371-1.856-4.228-0.926c-3.869,1.938-8.023,2.701-12.357,1.999
	c-4.713-0.764-9.386-1.806-14.214-1.628C103.131,52.289,97.052,57.577,95.98,68.258z"/>
<path fill-rule="evenodd" clip-rule="evenodd" fill="#575B6D" d="M39.782,231.903c-0.026-1.742,0.023-3.491-0.103-5.228
	c-0.1-1.381,0.311-1.854,1.764-1.833c4.021,0.061,8.044-0.051,12.067-0.094c0.6,0.047,1.199,0.136,1.799,0.136
	c46.849,0.007,93.698,0.007,140.547,0c0.6,0,1.199-0.089,1.799-0.137c4.022,0.044,8.046,0.154,12.066,0.095
	c1.453-0.021,1.865,0.451,1.765,1.833c-0.126,1.736-0.077,3.484-0.103,5.228C154.183,231.903,96.982,231.903,39.782,231.903z"/>
<path fill-rule="evenodd" clip-rule="evenodd" fill="#EDEEED" d="M197.654,224.748c-0.6,0.048-1.199,0.137-1.799,0.137
	c-46.849,0.007-93.698,0.007-140.547,0c-0.6,0-1.199-0.089-1.799-0.136c-0.469-1.888-2.06-3.197-2.48-5.179
	c-0.478-2.253-0.4-4.529-0.645-6.783c-0.52-4.786-0.533-9.625-0.912-14.431c-0.617-7.805-1.135-15.615-1.656-23.427
	c-0.378-5.672-0.77-11.349-1.253-17.011c-0.221-2.588-0.589-5.256-0.539-7.781c0.113-5.66,3.93-9.206,9.357-9.691
	c0.601-0.054,1.211-0.011,1.817-0.013c13.626-0.013,27.252-0.026,40.878-0.04c5.114,0.025,10.23,0.021,15.344,0.096
	c1.175,0.018,1.345-0.309,1.034-1.397c-0.829-2.901-1.537-5.838-2.293-8.761c1.761-0.403,2.499-2.053,3.731-3.098
	c1.049-0.89,1.875-2.072,3.382-2.267c0.504,1.241,1.008,2.482,1.513,3.723c-0.343,3.471-0.625,6.948-1.064,10.406
	c-0.146,1.147,0.181,1.398,1.225,1.385c3.088-0.042,6.177-0.042,9.265,0c1.045,0.014,1.371-0.237,1.225-1.385
	c-0.439-3.458-0.721-6.937-1.063-10.406c0.446-1.209,0.892-2.419,1.338-3.628c1.472,0.041,2.314,1.13,3.331,1.958
	c1.317,1.073,2.101,2.776,3.884,3.299c-0.463,2.999-1.487,5.854-2.272,8.771c-0.291,1.084-0.086,1.418,1.074,1.4
	c5.118-0.074,10.239-0.07,15.358-0.096c13.62,0.012,27.241,0.023,40.861,0.036c5.514-0.479,10.66,3.036,11.12,8.911
	c0.165,2.111,0.172,4.313-0.246,6.371c-0.539,2.662-0.294,5.339-0.628,8.005c-0.59,4.708-0.58,9.487-0.921,14.229
	c-0.476,6.603-1.075,13.197-1.56,19.8c-0.338,4.607-0.521,9.227-0.874,13.834c-0.209,2.729-0.273,5.472-0.765,8.182
	C199.729,221.674,198.125,222.927,197.654,224.748z M139.754,186.793c0.714-7.839-6.689-14.294-13.776-14.505
	c-8.027-0.239-14.573,7.056-14.707,13.928c-0.167,8.547,6.704,14.81,14.226,14.862C133.199,201.131,140.29,194.691,139.754,186.793z
	"/>
<path fill-rule="evenodd" clip-rule="evenodd" fill="#FDD099" d="M95.98,68.258c1.072-10.681,7.151-15.969,18.762-16.396
	c4.829-0.178,9.501,0.864,14.214,1.628c4.334,0.702,8.488-0.061,12.357-1.999c1.856-0.931,3.049-0.425,4.228,0.926
	c1.871,2.144,2.665,4.79,3.5,7.428c1,3.162,2.817,5.621,6.093,6.746c0.002,0.855,0.004,1.71,0.006,2.565
	c-0.187,4.637,0.366,9.295-0.392,13.916c-0.904,6.618-3.604,12.379-8.21,17.234c-0.642,0.677-1.263,1.373-1.895,2.061
	c-0.171,0.106-0.354,0.197-0.512,0.321c-9.766,7.698-20.302,8.692-31.591,3.749c-2.236-0.979-3.968-2.754-6.25-3.609
	c-0.189-0.854-0.874-1.338-1.446-1.893c-4.696-4.555-7.538-10.051-8.462-16.535c-0.066-0.461-0.238-0.907-0.361-1.361
	c0-4.635-0.001-9.27-0.002-13.905C96.006,68.841,95.993,68.549,95.98,68.258z"/>
<path fill-rule="evenodd" clip-rule="evenodd" fill="#575B6D" d="M193.948,140.43c-13.62-0.013-27.241-0.024-40.861-0.036
	c-2.022-2.485-4.006-5.007-6.089-7.44c-0.83-0.97-1.01-1.529,0.208-2.365c2.809-1.929,5.445-4.111,8.281-5.994
	c1.266-0.84,1.267-1.486,0.396-2.472c-1.416-1.604-2.888-3.163-4.238-4.82c-2.058-2.525-4.558-4.684-6.246-7.515
	c8.405,2.798,16.894,5.417,25.027,8.914C180.747,123.138,188.697,130.384,193.948,140.43z"/>
<path fill-rule="evenodd" clip-rule="evenodd" fill="#424552" d="M145.398,109.787c1.688,2.831,4.188,4.989,6.246,7.515
	c1.351,1.658,2.822,3.217,4.238,4.82c0.871,0.986,0.87,1.631-0.396,2.472c-2.836,1.883-5.473,4.065-8.281,5.994
	c-1.218,0.836-1.038,1.396-0.208,2.365c2.083,2.434,4.066,4.955,6.089,7.44c-5.119,0.025-10.24,0.021-15.358,0.096
	c-1.16,0.018-1.365-0.316-1.074-1.4c0.785-2.916,1.81-5.771,2.272-8.771c2.196-6.797,3.966-13.712,5.751-20.624
	c0.112,0.017,0.21-0.016,0.29-0.097C145.111,109.661,145.255,109.724,145.398,109.787z"/>
<path fill-rule="evenodd" clip-rule="evenodd" fill="#F3BB88" d="M144.968,109.598c-0.08,0.081-0.178,0.113-0.29,0.097
	c-3.442,1.5-6.927,2.91-10.313,4.525c-2.837,1.354-5.883,2.274-8.517,4.052c-0.177,0-0.355,0-0.533-0.001
	c-1.255-1.207-2.963-1.531-4.469-2.222c-4.807-2.207-9.671-4.287-14.514-6.415l-0.165-0.057c0.041-2.25,0.081-4.5,0.121-6.75
	c2.283,0.854,4.015,2.63,6.251,3.609c11.289,4.943,21.826,3.95,31.591-3.749c0.157-0.124,0.341-0.215,0.512-0.321
	C145.333,104.75,144.745,107.192,144.968,109.598z"/>
<path fill-rule="evenodd" clip-rule="evenodd" fill="#F3BB88" d="M154.748,83.071c0.758-4.621,0.205-9.278,0.392-13.916
	c3.158-0.12,5.692,1.03,7.069,3.946c1.202,2.547,0.913,5.102-0.836,7.37C159.7,82.64,157.335,83.167,154.748,83.071z"/>
<path fill-rule="evenodd" clip-rule="evenodd" fill="#575B6D" d="M98.077,140.394c-13.626,0.014-27.252,0.027-40.878,0.04
	c4.312-8.387,10.785-14.686,18.857-19.406c6.382-3.732,13.559-5.489,20.405-8.061c3.208-1.205,6.469-2.264,9.707-3.39
	c0,0,0.165,0.057,0.163,0.057c0.044,0.104,0.07,0.214,0.074,0.328c-1.916,1.105-3.07,2.959-4.484,4.559
	c-2.129,2.409-4.27,4.808-6.376,7.237c-0.888,1.026-1.47,1.864,0.251,2.949c2.881,1.816,5.515,4.021,8.308,5.983
	c1.01,0.709,0.922,1.252,0.207,2.102C102.199,135.297,100.15,137.855,98.077,140.394z"/>
<path fill-rule="evenodd" clip-rule="evenodd" fill="#F3BB88" d="M96.019,69.133c0.001,4.635,0.002,9.27,0.002,13.905
	c-3.076,0.15-5.603-0.877-6.996-3.73c-1.272-2.607-1.059-5.229,0.755-7.572C91.349,69.713,93.543,69.052,96.019,69.133z"/>
<path fill-rule="evenodd" clip-rule="evenodd" fill="#DAD7DC" d="M139.754,186.793c0.536,7.898-6.555,14.338-14.257,14.285
	c-7.522-0.053-14.393-6.315-14.226-14.862c0.134-6.872,6.68-14.167,14.707-13.928C133.064,172.499,140.468,178.954,139.754,186.793z
	"/>
<path fill-rule="evenodd" clip-rule="evenodd" fill="#424552" d="M98.077,140.394c2.073-2.538,4.122-5.097,6.233-7.603
	c0.715-0.85,0.803-1.393-0.207-2.102c-2.792-1.963-5.427-4.167-8.308-5.983c-1.721-1.085-1.139-1.923-0.251-2.949
	c2.106-2.429,4.247-4.828,6.376-7.237c1.414-1.599,2.568-3.453,4.483-4.559c1.961,6.778,3.544,13.663,5.757,20.369
	c0.756,2.923,1.464,5.859,2.293,8.761c0.311,1.089,0.141,1.415-1.034,1.397C108.307,140.415,103.191,140.419,98.077,140.394z"/>
<path fill-rule="evenodd" clip-rule="evenodd" fill="#D9D6DB" d="M112.161,130.331c-2.213-6.707-3.795-13.591-5.757-20.369
	c-0.003-0.114-0.029-0.224-0.073-0.328c4.844,2.128,9.709,4.208,14.516,6.415c1.506,0.691,3.214,1.016,4.468,2.222
	c-1.469,1.445-2.96,2.868-4.397,4.344c-0.668,0.686-1.708,1.145-1.644,2.353c-1.507,0.195-2.333,1.377-3.382,2.267
	C114.66,128.278,113.922,129.928,112.161,130.331z"/>
<path fill-rule="evenodd" clip-rule="evenodd" fill="#D9D6DB" d="M125.849,118.271c2.634-1.777,5.68-2.698,8.517-4.052
	c3.386-1.616,6.87-3.026,10.313-4.525c-1.785,6.912-3.555,13.827-5.751,20.624c-1.783-0.522-2.566-2.226-3.884-3.299
	c-1.017-0.828-1.859-1.917-3.331-1.958c0.209-0.943-0.418-1.461-1-2.024C129.082,121.458,127.469,119.861,125.849,118.271z"/>
<path fill-rule="evenodd" clip-rule="evenodd" fill="#EE5362" d="M130.374,128.689c0.343,3.47,0.624,6.948,1.063,10.406
	c0.146,1.147-0.18,1.398-1.225,1.385c-3.088-0.042-6.177-0.042-9.265,0c-1.044,0.014-1.371-0.237-1.225-1.385
	c0.439-3.458,0.721-6.936,1.064-10.406C123.983,128.689,127.179,128.689,130.374,128.689z"/>
<path fill-rule="evenodd" clip-rule="evenodd" fill="#D9384E" d="M130.374,128.689c-3.195,0-6.391,0-9.586,0
	c-0.505-1.24-1.009-2.481-1.513-3.723c-0.064-1.208,0.976-1.667,1.644-2.353c1.437-1.476,2.928-2.898,4.397-4.344
	c0.178,0,0.357,0.001,0.534,0.001c1.62,1.589,3.233,3.187,4.863,4.765c0.582,0.563,1.209,1.082,1,2.024
	C131.266,126.271,130.82,127.48,130.374,128.689z"/>
</svg>
