<?xml version="1.0" encoding="utf-8"?>
<!-- Generator: Adobe Illustrator 16.0.0, SVG Export Plug-In . SVG Version: 6.00 Build 0)  -->
<!DOCTYPE svg PUBLIC "-//W3C//DTD SVG 1.1//EN" "http://www.w3.org/Graphics/SVG/1.1/DTD/svg11.dtd">
<svg version="1.1" id="Layer_1" xmlns="http://www.w3.org/2000/svg" xmlns:xlink="http://www.w3.org/1999/xlink" x="0px" y="0px"
	 width="100px" height="100px" viewBox="0 0 100 100" enable-background="new 0 0 100 100" xml:space="preserve">
<path display="none" fill="#E86481" d="M8.767,73.18c0-15.463,0-30.926,0-46.388c0.128-0.018,0.153-0.115,0.19-0.219
	c1.416-3.984,3.671-5.58,7.884-5.58c16.122,0,32.244,0,48.365,0c6.224,0,12.446-0.01,18.67,0.004
	c3.442,0.008,6.173,2.11,7.125,5.413c0.052,0.181-0.049,0.453,0.231,0.543c0,15.409,0,30.818,0,46.227
	c-0.176,0.021-0.172,0.174-0.213,0.295c-1.297,3.797-3.688,5.504-7.701,5.504c-9.174,0-18.352,0-27.523,0
	c-13.198,0-26.397,0.004-39.595-0.004c-3.444-0.002-6.136-2.009-7.15-5.269C8.993,73.521,9.035,73.26,8.767,73.18z M82.816,26.035
	c-0.043-0.056-0.088-0.111-0.131-0.167c-21.797,0-43.595,0-65.392,0c-0.049,0.063-0.098,0.125-0.146,0.188
	c0.198,0.129,0.426,0.229,0.59,0.393c9.988,10.009,19.971,20.023,29.956,30.037c1.552,1.557,3.054,1.563,4.595,0.02
	c7.162-7.181,14.314-14.37,21.486-21.542C76.773,31.969,79.803,29.01,82.816,26.035z M17.05,74.096c22.072,0,43.868,0,65.722,0
	c-0.092-0.119-0.131-0.186-0.184-0.238c-6.648-6.67-13.303-13.336-19.938-20.021c-0.414-0.419-0.604-0.284-0.93,0.048
	c-2.035,2.064-4.088,4.112-6.134,6.164c-3.235,3.246-7.951,3.241-11.184-0.009c-1.987-1.998-3.992-3.978-5.954-5.999
	c-0.48-0.495-0.738-0.582-1.281-0.031c-4.787,4.852-9.605,9.672-14.425,14.49C20.911,70.334,19.045,72.137,17.05,74.096z
	 M13.658,29.396c0,13.71,0,27.506,0,41.4c0.7-0.706,1.32-1.335,1.944-1.962c6.083-6.102,12.163-12.209,18.262-18.295
	c0.444-0.443,0.466-0.68,0-1.11c-0.927-0.854-1.789-1.779-2.685-2.667C25.33,40.962,19.478,35.163,13.658,29.396z M86.376,29.316
	c-0.051-0.034-0.103-0.068-0.153-0.102c-0.17,0.203-0.328,0.418-0.514,0.605c-6.496,6.522-12.988,13.046-19.506,19.547
	c-0.492,0.49-0.52,0.721-0.01,1.229c6.574,6.556,13.125,13.138,19.675,19.72c0.139,0.142,0.212,0.348,0.315,0.521
	c0.063-0.061,0.129-0.115,0.189-0.174C86.376,56.879,86.376,43.098,86.376,29.316z"/>
<path fill-rule="evenodd" clip-rule="evenodd" fill="#0F117A" d="M87.947,49.29c0,0.494,0,0.988,0,1.482
	c-0.047,0.051-0.113,0.094-0.139,0.153c-0.689,1.63-1.584,2.228-3.354,2.231c-1.606,0.002-3.212-0.027-4.816,0.009
	c-1.118,0.025-2.169-0.09-3.053-0.994c-0.92,2.857-0.856,5.602,0.097,8.341c0.11,0.314,0.347,0.291,0.589,0.326
	c1.461,0.208,2.625,1.257,2.929,2.659c0.14,0.646,0.07,1.298-0.087,1.947c0.138,0.019,0.209,0.038,0.28,0.036
	c2.19-0.072,3.634,1.407,3.808,3.245c0.169,1.777-1.043,3.223-3.121,3.668c-0.326,0.07-0.375,0.253-0.453,0.483
	c-0.933,2.76-0.922,5.515,0,8.278c0.122,0.365,0.314,0.486,0.665,0.557c1.839,0.368,3.065,1.911,2.912,3.623
	c-0.171,1.894-1.637,3.234-3.581,3.234c-19.044,0.004-38.088,0.011-57.132-0.003c-5.37-0.004-10.012-3.811-11.17-9.061
	c-0.053-0.241,0.01-0.551-0.267-0.718c0-1.137,0-2.273,0-3.41c0.273-0.172,0.2-0.483,0.252-0.723
	c0.694-3.147,2.416-5.575,5.092-7.341c1.089-0.719,2.296-1.184,3.644-1.548c-0.277-0.219-0.468-0.362-0.651-0.516
	c-3.45-2.872-4.972-6.549-4.229-10.975c0.853-5.081,4.45-8.536,9.581-9.476c0.469-0.086,0.636-0.233,0.631-0.742
	c-0.028-3.211-0.031-6.423,0.001-9.634c0.006-0.576-0.19-0.806-0.713-0.984c-3.543-1.203-7.077-2.432-10.609-3.666
	c-1.163-0.406-1.767-1.225-1.75-2.291c0.017-1.051,0.623-1.832,1.744-2.221c5.977-2.075,11.955-4.146,17.934-6.216
	c0.208-0.072,0.423-0.148,0.64-0.166c0.558-0.045,0.958,0.198,1.136,0.74c0.19,0.578-0.025,1.024-0.528,1.316
	c-0.252,0.146-0.545,0.226-0.825,0.322c-5.722,1.98-11.445,3.958-17.166,5.942c-0.231,0.08-0.534,0.065-0.674,0.404
	c3.468,1.202,6.911,2.388,10.345,3.596c0.515,0.181,0.443-0.151,0.482-0.431c0.192-1.37,1.034-2.283,2.336-2.51
	c4.844-0.846,9.721-1.419,14.634-1.62c7.846-0.319,15.646,0.162,23.39,1.48c0.752,0.128,1.517,0.229,2.135,0.751
	c0.741,0.626,1.021,1.458,1.029,2.472c3.649-1.266,7.22-2.504,10.789-3.742c-0.152-0.211-0.264-0.254-0.377-0.293
	c-10.258-3.552-20.517-7.101-30.772-10.659c-0.976-0.339-1.919-0.332-2.892,0.013c-2.39,0.847-4.79,1.667-7.187,2.495
	c-0.939,0.325-1.544,0.138-1.797-0.545c-0.262-0.708,0.072-1.212,1.037-1.547c2.396-0.831,4.798-1.642,7.187-2.493
	c1.479-0.527,2.929-0.528,4.413-0.014c10.256,3.557,20.517,7.098,30.773,10.65c1.363,0.472,1.849,1.159,1.854,2.588
	c0.007,2.347,0.007,4.693-0.003,7.041c-0.002,0.369,0.04,0.601,0.456,0.773c2.831,1.169,3.756,4.192,2.107,6.79
	c-0.115,0.183-0.272,0.321-0.158,0.592C86.221,45.086,87.082,47.188,87.947,49.29z M51.749,86.347c9.462,0,18.924,0,28.386,0
	c0.247,0,0.498,0.022,0.739-0.014c0.642-0.098,1.039-0.497,1.089-1.129c0.05-0.631-0.267-1.098-0.903-1.269
	c-0.257-0.068-0.535-0.076-0.805-0.077c-2.47-0.006-4.94,0.002-7.411-0.007c-0.838-0.003-1.315-0.478-1.253-1.197
	c0.056-0.637,0.514-1.014,1.309-1.021c1.631-0.013,3.262-0.02,4.892,0.006c0.489,0.008,0.643-0.079,0.489-0.602
	c-0.78-2.672-0.777-5.357-0.015-8.031c0.151-0.529-0.007-0.6-0.49-0.597c-3.162,0.019-6.324,0.02-9.485-0.002
	c-0.482-0.003-0.63,0.117-0.622,0.61c0.03,1.753,0.017,3.508,0.011,5.262c-0.005,1.312-0.687,1.853-1.829,1.248
	c-1.82-0.961-3.511-0.982-5.337-0.008c-1.159,0.618-1.865,0.051-1.87-1.298c-0.005-1.654-0.029-3.311,0.014-4.965
	c0.016-0.64-0.109-0.858-0.82-0.856c-11.24,0.026-22.48,0.019-33.721,0.019c-0.247,0-0.494-0.004-0.741,0.009
	c-2.988,0.151-5.05,3.065-4.199,5.931c0.605,2.039,2.381,3.27,4.737,3.27c14.328,0.002,28.657,0.001,42.985,0.001
	c1.136,0,1.674,0.348,1.694,1.093c0.022,0.791-0.49,1.133-1.702,1.133c-12.847,0-25.693,0-38.539-0.001
	c-1.704,0-3.41,0.033-5.113-0.021c-4.07-0.126-7.162-4.055-6.362-8.037c0.687-3.42,3.43-5.601,7.071-5.601
	c18.701-0.003,37.402-0.001,56.103-0.002c0.247,0,0.495,0.014,0.74-0.006c0.668-0.053,1.17-0.564,1.19-1.194
	c0.02-0.596-0.414-1.129-1.052-1.243c-0.288-0.052-0.59-0.041-0.886-0.041c-18.627-0.002-37.253-0.002-55.88-0.002
	c-0.247,0-0.494,0-0.741,0.009c-5.048,0.19-9.057,4.166-9.142,9.066c-0.092,5.305,4.064,9.555,9.381,9.561
	C33.024,86.354,42.387,86.347,51.749,86.347z M51.657,65.483c8.177,0,16.354,0,24.53-0.001c0.271,0,0.548,0.019,0.813-0.024
	c0.646-0.104,1-0.502,1.033-1.156c0.033-0.646-0.378-1.151-1.019-1.242c-0.291-0.042-0.591-0.032-0.888-0.032
	c-11.215-0.001-22.43,0-33.645-0.003c-0.294,0-0.597,0.002-0.883-0.058c-0.519-0.108-0.804-0.462-0.844-0.989
	c-0.052-0.693,0.411-1.161,1.213-1.169c1.753-0.02,3.507-0.007,5.262-0.007c8.818-0.001,17.638-0.004,26.456,0.009
	c0.535,0.001,0.741-0.035,0.56-0.674c-0.751-2.647-0.745-5.313,0.014-7.963c0.145-0.504,0.041-0.621-0.48-0.621
	c-10.844,0.014-21.688,0.016-32.533-0.002c-0.557-0.001-0.638,0.2-0.631,0.683c0.025,1.729,0.018,3.458,0.007,5.188
	c-0.008,1.241-0.731,1.794-1.824,1.211c-1.843-0.985-3.561-0.99-5.406-0.002c-1.105,0.593-1.8,0.051-1.805-1.207
	c-0.007-1.754,0-3.508-0.003-5.262c0-0.282,0.091-0.618-0.4-0.601c-1.479,0.05-2.967-0.112-4.44,0.094
	c-2.448,0.344-4.209,2.803-3.779,5.234c0.42,2.377,2.246,3.895,4.752,3.908c2.89,0.018,5.78,0,8.67,0.008
	c0.895,0.002,1.367,0.396,1.369,1.098c0.001,0.695-0.489,1.119-1.36,1.121c-2.939,0.008-5.88,0.049-8.818-0.008
	c-4.906-0.094-8.142-4.744-6.467-9.225c1.045-2.795,3.579-4.451,6.846-4.452c15.315-0.003,30.632-0.001,45.947-0.003
	c0.615,0,1.359,0.179,1.809-0.102c0.405-0.254,0.489-1.023,0.713-1.566c0.324-0.786,0.323-0.787-0.533-0.787
	c-15.982,0-31.966,0-47.949,0c-0.345,0-0.691,0.005-1.037,0.021c-5.437,0.245-9.631,5.603-8.563,10.938
	c0.912,4.558,4.634,7.631,9.303,7.639C35.65,65.492,43.653,65.483,51.657,65.483z M48.069,44.656c6.298,0,12.596-0.006,18.893,0.012
	c0.524,0.001,0.752-0.082,0.712-0.673c-0.057-0.836-0.059-1.682,0.001-2.517c0.043-0.593-0.182-0.675-0.702-0.667
	c-1.951,0.03-3.902,0.016-5.854,0.011c-0.874-0.002-1.377-0.399-1.396-1.083c-0.021-0.724,0.477-1.137,1.402-1.139
	c1.976-0.005,3.951-0.017,5.927,0.01c0.477,0.006,0.627-0.111,0.62-0.607c-0.028-2.099-0.012-4.198-0.012-6.297
	c0-1.187-0.006-1.18-1.211-1.378c-4.167-0.684-8.354-1.175-12.573-1.395c-8.193-0.427-16.328,0.048-24.412,1.461
	c-0.685,0.12-0.899,0.402-0.89,1.066c0.029,2.099,0.036,4.199-0.004,6.297c-0.012,0.652,0.129,0.862,0.833,0.86
	c8.52-0.028,17.041-0.018,25.561-0.018c0.247,0,0.495-0.009,0.74,0.013c0.598,0.054,0.954,0.394,1.013,0.986
	c0.06,0.595-0.236,1.003-0.804,1.167c-0.253,0.073-0.536,0.057-0.807,0.057c-7.013,0.002-14.027,0.002-21.041,0.002
	c-1.63,0-3.26,0.021-4.89-0.012c-0.499-0.01-0.622,0.147-0.602,0.62c0.037,0.838,0.054,1.682-0.004,2.518
	c-0.042,0.619,0.198,0.722,0.754,0.72C35.573,44.65,41.821,44.656,48.069,44.656z M80.718,30.009
	c-0.175,0.039-0.295,0.053-0.406,0.091c-3.298,1.142-6.592,2.299-9.899,3.416c-0.45,0.152-0.537,0.369-0.535,0.791
	c0.015,3.231,0.019,6.463-0.003,9.695c-0.003,0.504,0.112,0.677,0.646,0.668c1.898-0.033,3.798-0.013,5.698-0.013
	c1.446,0,1.442-0.002,1.998-1.379c0.12-0.298,0.214-0.526-0.009-0.871c-1.688-2.614-0.761-5.57,2.121-6.826
	c0.249-0.108,0.399-0.194,0.396-0.508C80.709,33.399,80.718,31.725,80.718,30.009z M81.799,50.931c0.913,0,1.826,0.006,2.739-0.001
	c1.025-0.008,1.403-0.538,1.03-1.478c-0.653-1.646-1.333-3.282-1.989-4.926c-0.123-0.311-0.225-0.485-0.634-0.362
	c-0.743,0.224-1.512,0.206-2.263-0.01c-0.248-0.071-0.398-0.069-0.511,0.214c-0.702,1.759-1.444,3.502-2.123,5.27
	c-0.275,0.719,0.157,1.273,0.937,1.288C79.923,50.944,80.86,50.93,81.799,50.931z M38.403,56.063c0-1.369-0.01-2.676,0.006-3.982
	c0.005-0.365-0.077-0.534-0.487-0.527c-1.233,0.022-2.466,0.012-3.7,0.006c-0.261-0.002-0.418,0.051-0.416,0.359
	c0.008,1.375,0.004,2.75,0.004,4.15c0.834-0.174,1.494-0.729,2.291-0.727C36.896,55.346,37.554,55.906,38.403,56.063z M65.455,76.96
	c0-1.443-0.005-2.843,0.003-4.242c0.002-0.293-0.167-0.302-0.382-0.301c-1.26,0.004-2.52,0.009-3.779-0.003
	c-0.307-0.003-0.44,0.076-0.438,0.411c0.015,1.373,0.007,2.747,0.007,4.154c0.835-0.166,1.493-0.721,2.285-0.731
	C63.945,76.236,64.609,76.792,65.455,76.96z M81.813,37.545c-1.245,0.013-2.22,1.027-2.206,2.296
	c0.013,1.254,1.03,2.262,2.267,2.244c1.236-0.017,2.232-1.052,2.218-2.304C84.078,38.53,83.062,37.532,81.813,37.545z"/>
</svg>
