<?xml version="1.0" encoding="utf-8"?>
<!-- Generator: Adobe Illustrator 16.0.0, SVG Export Plug-In . SVG Version: 6.00 Build 0)  -->
<!DOCTYPE svg PUBLIC "-//W3C//DTD SVG 1.1//EN" "http://www.w3.org/Graphics/SVG/1.1/DTD/svg11.dtd">
<svg version="1.1" id="Layer_1" xmlns="http://www.w3.org/2000/svg" xmlns:xlink="http://www.w3.org/1999/xlink" x="0px" y="0px"
	 width="100px" height="100px" viewBox="0 0 100 100" enable-background="new 0 0 100 100" xml:space="preserve">
<path fill-rule="evenodd" clip-rule="evenodd" fill="#E86481" d="M8.767,73.18c0-15.463,0-30.926,0-46.388
	c0.128-0.018,0.153-0.115,0.19-0.219c1.416-3.984,3.671-5.58,7.884-5.58c16.122,0,32.244,0,48.365,0
	c6.224,0,12.446-0.01,18.67,0.004c3.443,0.008,6.173,2.11,7.125,5.413c0.052,0.181-0.049,0.453,0.232,0.543
	c0,15.409,0,30.818,0,46.227c-0.176,0.021-0.173,0.174-0.214,0.295c-1.296,3.796-3.685,5.503-7.701,5.504
	c-9.174,0-18.349,0-27.523,0c-13.198,0-26.397,0.004-39.595-0.004c-3.444-0.002-6.136-2.009-7.15-5.269
	C8.993,73.521,9.035,73.26,8.767,73.18z M82.816,26.035c-0.043-0.056-0.087-0.111-0.131-0.167c-21.796,0-43.592,0-65.389,0
	c-0.049,0.063-0.098,0.125-0.146,0.188c0.198,0.129,0.426,0.229,0.59,0.393c9.988,10.009,19.971,20.023,29.956,30.037
	c1.552,1.557,3.054,1.563,4.595,0.02c7.162-7.181,14.316-14.37,21.488-21.542C76.773,31.969,79.803,29.01,82.816,26.035z
	 M17.05,74.096c22.072,0,43.868,0,65.722,0c-0.092-0.12-0.131-0.186-0.184-0.238c-6.648-6.67-13.303-13.336-19.937-20.021
	c-0.415-0.419-0.603-0.284-0.931,0.048c-2.035,2.064-4.085,4.112-6.131,6.164c-3.237,3.246-7.951,3.241-11.184-0.009
	c-1.987-1.998-3.992-3.978-5.954-5.999c-0.48-0.495-0.738-0.582-1.281-0.031c-4.787,4.852-9.605,9.672-14.425,14.49
	C20.911,70.334,19.045,72.137,17.05,74.096z M13.658,29.396c0,13.71,0,27.507,0,41.4c0.7-0.706,1.32-1.335,1.944-1.962
	c6.083-6.102,12.163-12.209,18.262-18.295c0.444-0.443,0.466-0.68,0-1.11c-0.927-0.854-1.789-1.779-2.685-2.667
	C25.33,40.962,19.478,35.163,13.658,29.396z M86.376,29.316c-0.051-0.034-0.102-0.068-0.153-0.102
	c-0.17,0.203-0.328,0.418-0.514,0.605c-6.496,6.522-12.989,13.046-19.506,19.547c-0.492,0.49-0.52,0.721-0.01,1.229
	c6.575,6.556,13.125,13.138,19.675,19.719c0.139,0.14,0.212,0.346,0.315,0.52c0.064-0.058,0.129-0.116,0.192-0.174
	C86.376,56.879,86.376,43.098,86.376,29.316z"/>
</svg>
