<?xml version="1.0" encoding="utf-8"?>
<!-- Generator: Adobe Illustrator 16.0.0, SVG Export Plug-In . SVG Version: 6.00 Build 0)  -->
<!DOCTYPE svg PUBLIC "-//W3C//DTD SVG 1.1//EN" "http://www.w3.org/Graphics/SVG/1.1/DTD/svg11.dtd">
<svg version="1.1" id="Layer_1" xmlns="http://www.w3.org/2000/svg" xmlns:xlink="http://www.w3.org/1999/xlink" x="0px" y="0px"
	 width="100px" height="100px" viewBox="0 0 100 100" enable-background="new 0 0 100 100" xml:space="preserve">
<path display="none" fill="#E86481" d="M8.767,73.18c0-15.463,0-30.926,0-46.388c0.128-0.018,0.153-0.115,0.19-0.219
	c1.416-3.984,3.671-5.58,7.884-5.58c16.122,0,32.244,0,48.365,0c6.224,0,12.446-0.01,18.67,0.004
	c3.442,0.008,6.173,2.11,7.125,5.413c0.052,0.181-0.049,0.453,0.231,0.543c0,15.409,0,30.818,0,46.227
	c-0.176,0.021-0.172,0.174-0.213,0.295c-1.297,3.797-3.688,5.504-7.701,5.504c-9.174,0-18.353,0-27.523,0
	c-13.198,0-26.397,0.004-39.595-0.004c-3.444-0.002-6.136-2.009-7.15-5.269C8.993,73.521,9.035,73.26,8.767,73.18z M82.816,26.035
	c-0.043-0.056-0.088-0.111-0.131-0.167c-21.797,0-43.596,0-65.393,0c-0.049,0.063-0.098,0.125-0.146,0.188
	c0.198,0.129,0.426,0.229,0.59,0.393c9.988,10.009,19.971,20.023,29.956,30.037c1.552,1.557,3.054,1.563,4.595,0.02
	c7.162-7.181,14.313-14.37,21.485-21.542C76.773,31.969,79.803,29.01,82.816,26.035z M17.05,74.096c22.072,0,43.868,0,65.722,0
	c-0.092-0.119-0.131-0.186-0.184-0.238c-6.648-6.67-13.303-13.336-19.938-20.021c-0.414-0.419-0.604-0.284-0.93,0.048
	c-2.035,2.064-4.089,4.112-6.135,6.164c-3.234,3.246-7.951,3.241-11.184-0.009c-1.987-1.998-3.992-3.978-5.954-5.999
	c-0.48-0.495-0.738-0.582-1.281-0.031c-4.787,4.852-9.605,9.672-14.425,14.49C20.911,70.334,19.045,72.137,17.05,74.096z
	 M13.658,29.396c0,13.71,0,27.506,0,41.4c0.7-0.706,1.32-1.335,1.944-1.962c6.083-6.102,12.163-12.209,18.262-18.295
	c0.444-0.443,0.466-0.68,0-1.11c-0.927-0.854-1.789-1.779-2.685-2.667C25.33,40.962,19.478,35.163,13.658,29.396z M86.376,29.316
	c-0.051-0.034-0.103-0.068-0.153-0.102c-0.17,0.203-0.328,0.418-0.514,0.605c-6.496,6.522-12.988,13.046-19.506,19.547
	c-0.492,0.49-0.52,0.721-0.01,1.229c6.574,6.555,13.125,13.137,19.675,19.719c0.139,0.143,0.212,0.349,0.315,0.521
	c0.063-0.061,0.129-0.115,0.188-0.174C86.376,56.879,86.376,43.098,86.376,29.316z"/>
<path fill="#C2CFCF" d="M9.504,79.909c0-18.087,0-36.172,0-54.259c0.631-1.365,1.708-1.777,3.182-1.764
	c6.165,0.055,12.332,0.025,18.498,0.022c0.708,0,1.631,0.24,2.062-0.111c0.452-0.369,0.096-1.33,0.145-2.03
	c0.004-0.053,0-0.105,0.002-0.158c0.104-4.09,3.084-7.139,7.173-7.175c6.297-0.054,12.595-0.055,18.893,0.004
	c2.891,0.027,5.063,1.39,6.406,3.996c0.594,1.155,0.748,2.396,0.746,3.671c-0.002,1.804,0.002,1.804,1.834,1.804
	c6.324,0,12.648,0.028,18.972-0.021c1.513-0.012,2.592,0.414,3.081,1.919c0,18.034,0,36.067,0,54.101
	c-0.254,0.078-0.238,0.324-0.299,0.51c-1.086,3.307-3.611,5.18-7.1,5.182c-22.064,0.008-44.132,0.008-66.199,0
	c-3.487-0.002-6.013-1.875-7.097-5.182C9.742,80.234,9.756,79.988,9.504,79.909z M85.751,41.104
	c-0.129,0.255-0.155,0.295-0.171,0.339c-1.157,3.464-2.314,6.928-3.473,10.391c-1.162,3.48-3.676,5.293-7.353,5.296
	c-3.586,0.002-7.17-0.001-10.755,0.002c-0.682,0.001-1.593-0.241-1.984,0.103c-0.455,0.396-0.129,1.332-0.146,2.031
	c-0.039,1.644-0.971,2.601-2.61,2.607c-2.188,0.01-4.375,0.003-6.563,0.003c-4.005,0-8.012,0.007-12.019-0.005
	c-1.545-0.004-2.511-0.979-2.54-2.51c-0.008-0.476-0.044-0.955,0.009-1.422c0.073-0.638-0.102-0.834-0.788-0.828
	c-4.111,0.037-8.224,0.029-12.335,0.016c-3.34-0.01-5.852-1.768-6.986-4.909c-0.615-1.704-1.159-3.436-1.734-5.155
	c-0.645-1.927-1.289-3.854-1.934-5.781c-0.04,0.009-0.08,0.018-0.12,0.027c0,0.256,0,0.512,0,0.769c0,11.941,0,23.881,0,35.822
	c0,2.119,0.843,2.959,2.966,2.959c21.852,0,43.703,0,65.555,0c2.16,0,2.98-0.832,2.98-3.022c0-11.915,0-23.829,0-35.743
	C85.751,41.83,85.751,41.568,85.751,41.104z M84.816,28.695c-23.256,0-46.417,0-69.632,0c0.49,1.47,0.961,2.888,1.435,4.305
	c1.939,5.809,3.887,11.614,5.811,17.429c0.391,1.18,1.123,1.932,2.381,1.94c4.297,0.031,8.595,0.01,12.892,0.021
	c0.352,0.002,0.452-0.104,0.44-0.445c-0.023-0.658-0.026-1.318,0.002-1.978c0.055-1.312,1.011-2.312,2.324-2.316
	c6.354-0.021,12.708-0.021,19.063,0c1.313,0.004,2.268,1.003,2.326,2.314c0.024,0.579,0.047,1.164-0.004,1.739
	c-0.049,0.551,0.117,0.697,0.681,0.693c4.008-0.027,8.015-0.015,12.021-0.015c1.883,0,2.526-0.467,3.12-2.252
	c0.979-2.942,1.962-5.885,2.941-8.827C82.012,37.12,83.404,32.935,84.816,28.695z M50.003,23.91c3.211,0,6.424,0.009,9.638-0.006
	c0.726-0.003,1.752,0.326,2.101-0.136c0.37-0.49,0.135-1.458,0.114-2.216c-0.035-1.357-0.994-2.37-2.34-2.375
	c-6.347-0.02-12.691-0.021-19.038,0c-1.344,0.005-2.292,1.021-2.337,2.38c-0.02,0.579,0.037,1.163-0.018,1.737
	c-0.053,0.555,0.182,0.628,0.663,0.626C42.525,23.902,46.265,23.91,50.003,23.91z M49.999,52.385c-2.188,0-4.375,0.012-6.563-0.011
	c-0.447-0.005-0.576,0.118-0.564,0.565c0.03,1.237,0.025,2.479,0.001,3.717c-0.007,0.383,0.108,0.482,0.486,0.482
	c4.428-0.014,8.856-0.015,13.284,0c0.381,0,0.491-0.105,0.484-0.484c-0.023-1.213-0.037-2.426,0.003-3.637
	c0.019-0.521-0.134-0.652-0.647-0.646C54.322,52.402,52.161,52.385,49.999,52.385z"/>
</svg>
