<?xml version="1.0" encoding="utf-8"?>
<!-- Generator: Adobe Illustrator 16.0.0, SVG Export Plug-In . SVG Version: 6.00 Build 0)  -->
<!DOCTYPE svg PUBLIC "-//W3C//DTD SVG 1.1//EN" "http://www.w3.org/Graphics/SVG/1.1/DTD/svg11.dtd">
<svg version="1.1" id="Layer_1" xmlns="http://www.w3.org/2000/svg" xmlns:xlink="http://www.w3.org/1999/xlink" x="0px" y="0px"
	 width="100px" height="100px" viewBox="0 0 100 100" enable-background="new 0 0 100 100" xml:space="preserve">
<path fill-rule="evenodd" clip-rule="evenodd" fill="#020202" d="M79.309,13.566c-2.5,0-5,0-7.5,0c-2.507,0-5.015,0.029-7.521-0.01
	c-2.294-0.036-4.023-1.248-4.761-3.236c-0.737-1.989-0.217-4.122,1.345-5.522c0.997-0.893,2.19-1.259,3.498-1.26
	c9.085-0.007,18.169-0.023,27.254,0.006c3.132,0.01,5.009,1.993,5.008,5.109c-0.005,9.02,0.003,18.039-0.006,27.058
	c-0.003,3.104-1.884,5.273-4.687,5.452c-3.001,0.191-5.321-2.086-5.335-5.291c-0.021-4.656-0.006-9.313-0.006-13.969
	c0-0.348,0-0.695,0-1.047c-0.403-0.051-0.507,0.236-0.671,0.4c-5.716,5.704-11.419,11.421-17.149,17.11
	c-0.466,0.463-0.493,0.731-0.109,1.262c15.318,21.156,3.728,51.038-21.826,56.298C27.06,99.998,8.002,87.457,4.154,67.621
	c-3.8-19.585,8.54-38.269,28.044-42.179c10.181-2.041,19.637,0.037,28.196,5.965c0.62,0.43,0.943,0.466,1.503-0.098
	c5.57-5.619,11.172-11.206,16.772-16.795c0.246-0.245,0.565-0.416,0.851-0.622C79.449,13.784,79.379,13.675,79.309,13.566z
	 M39.69,86.85c14.436,0.002,26.129-11.682,26.149-26.124c0.021-14.51-11.646-26.2-26.149-26.201
	c-14.45-0.001-26.114,11.63-26.173,26.099C13.458,75.049,25.235,86.849,39.69,86.85z"/>
</svg>
