<?xml version="1.0" encoding="utf-8"?>
<!-- Generator: Adobe Illustrator 16.0.0, SVG Export Plug-In . SVG Version: 6.00 Build 0)  -->
<!DOCTYPE svg PUBLIC "-//W3C//DTD SVG 1.1//EN" "http://www.w3.org/Graphics/SVG/1.1/DTD/svg11.dtd">
<svg version="1.1" id="Layer_1" xmlns="http://www.w3.org/2000/svg" xmlns:xlink="http://www.w3.org/1999/xlink" x="0px" y="0px"
	 width="100px" height="100px" viewBox="0 0 100 100" enable-background="new 0 0 100 100" xml:space="preserve">
<path fill-rule="evenodd" clip-rule="evenodd" fill="#010101" d="M49.023,103.194c-0.284-0.293-0.699-0.282-1.039-0.445
	c-2.156-1.036-3.344-2.738-3.431-5.136c-0.055-1.527-0.042-3.059,0.002-4.587c0.018-0.617-0.178-0.766-0.77-0.748
	c-1.365,0.041-2.734,0.04-4.099-0.007c-2.944-0.101-5.259-2.444-5.369-5.388c-0.11-2.962,1.992-5.499,4.92-5.786
	c1.451-0.142,2.926-0.12,4.386-0.062c0.805,0.032,0.953-0.248,0.932-0.975c-0.05-1.723-0.049-3.449,0-5.172
	c0.019-0.658-0.202-0.87-0.832-0.987c-8.115-1.508-14.93-5.368-20.337-11.582c-6.721-7.725-9.637-16.78-8.677-26.953
	c1.506-15.951,13.49-28.749,29.367-31.642c0.932-0.17,1.922-0.06,2.797-0.53c2.148,0,4.297,0,6.445,0
	c1.313,0.436,2.701,0.451,4.046,0.726C71.754,6.858,83.068,18.608,85.37,33.045c3.038,19.063-9.218,36.842-28.117,40.783
	c-0.222,0.047-0.448,0.076-0.675,0.1c-0.519,0.054-0.766,0.242-0.748,0.856c0.053,1.82,0.054,3.644,0.001,5.464
	c-0.02,0.681,0.226,0.797,0.826,0.778c1.301-0.04,2.604-0.053,3.903-0.001c2.946,0.117,5.267,2.285,5.484,5.072
	c0.233,2.97-1.594,5.528-4.467,6.077c-1.601,0.306-3.246,0.112-4.87,0.1c-0.662-0.005-0.906,0.131-0.877,0.844
	c0.06,1.429,0.03,2.862,0.015,4.294c-0.029,2.84-1.705,4.938-4.461,5.623c-0.079,0.02-0.143,0.104-0.213,0.159
	C50.456,103.194,49.74,103.194,49.023,103.194z M50.13,63.219c13.375,0.068,24.349-10.803,24.451-24.222
	c0.103-13.403-10.819-24.424-24.274-24.495c-13.438-0.071-24.435,10.823-24.499,24.269C25.744,52.183,36.655,63.15,50.13,63.219z"/>
</svg>
