<?xml version="1.0" encoding="utf-8"?>
<!-- Generator: Adobe Illustrator 16.0.0, SVG Export Plug-In . SVG Version: 6.00 Build 0)  -->
<!DOCTYPE svg PUBLIC "-//W3C//DTD SVG 1.1//EN" "http://www.w3.org/Graphics/SVG/1.1/DTD/svg11.dtd">
<svg version="1.1" id="Layer_1" xmlns="http://www.w3.org/2000/svg" xmlns:xlink="http://www.w3.org/1999/xlink" x="0px" y="0px"
	 width="250px" height="250px" viewBox="0 0 250 250" enable-background="new 0 0 250 250" xml:space="preserve">
<path fill-rule="evenodd" clip-rule="evenodd" fill="#445E9F" d="M121.221,25.604c0.063-2.067,0.181-4.136,0.167-6.203
	c-0.009-1.261,0.292-2.358,1.073-3.333c1.435,0,2.87,0,4.304,0c0.32,0.438,0.641,0.876,0.96,1.314
	c0.021,2.058-0.015,4.118,0.072,6.172c0.125,2.958-0.377,5.935,0.272,8.876c-0.072,3.313-0.145,6.625-0.216,9.938
	c-2.163-1.235-4.327-1.226-6.49,0C121.316,36.779,121.268,31.191,121.221,25.604z"/>
<path fill-rule="evenodd" clip-rule="evenodd" fill="#3EB6FD" d="M121.221,25.604c0.047,5.588,0.096,11.176,0.143,16.764
	c-9.983,8.604-19.96,17.213-29.949,25.81c-6.352,5.467-12.734,10.898-19.073,16.38c-1.853,1.602-1.876,2.526-0.333,4.343
	c1.067,1.255,2.122,2.523,3.242,3.73c1.581,1.703,2.424,1.734,4.175,0.232c0.486-0.417,0.912-0.904,1.365-1.359
	c1.25-1.014,2.5-2.028,3.751-3.042c-0.001,7.25-0.001,14.499-0.002,21.748c-14.608,0.008-29.217,0.016-43.825,0.024
	c-3.924-0.369-7.857-0.161-11.784-0.112c-1.694,0.021-2.501,0.989-2.474,2.795c0.072,4.796,0.03,9.594,0.023,14.391
	c-0.02,13.891-0.045,27.779-0.068,41.67c-2.694-5.894-4.258-12.14-5.423-18.463c-3.681-19.984-1.938-39.522,5.622-58.403
	c9.107-22.741,24.361-40.29,45.558-52.577c13.839-8.022,28.779-12.601,44.771-13.644C118.367,25.8,119.794,25.7,121.221,25.604z"/>
<path fill-rule="evenodd" clip-rule="evenodd" fill="#3EB6FD" d="M127.854,42.368c0.071-3.313,0.144-6.625,0.216-9.938
	c6.558-0.002,13.115-0.001,19.673-0.009c2.943-0.003,3.396-0.438,3.627-3.421c33.028,9.265,56.477,29.667,70.364,60.953
	c4.704,10.598,7.166,21.823,8.012,33.432c1.104,15.165-1.061,29.817-6.178,44.081c-0.189,0.527-0.504,1.01-0.761,1.513
	c-0.022-0.859-0.064-1.718-0.065-2.577c-0.004-17.626,0.001-35.252-0.006-52.877c-0.001-2.736-0.541-3.29-3.254-3.291
	c-18.271-0.004-36.541,0.005-54.812,0.01c-0.014-7.265-0.027-14.529-0.041-21.794c1.745,1.476,3.525,2.911,5.223,4.439
	c1.48,1.333,2.782,1.24,4.055-0.233c1.029-1.191,2.075-2.368,3.09-3.572c1.623-1.923,1.478-3.038-0.442-4.686
	c-9.719-8.341-19.414-16.711-29.135-25.051C140.96,53.803,134.474,48.294,128,42.77C127.951,42.636,127.902,42.501,127.854,42.368z"
	/>
<path fill-rule="evenodd" clip-rule="evenodd" fill="#FECF0E" d="M164.67,110.242c18.271-0.005,36.541-0.014,54.812-0.01
	c2.713,0,3.253,0.555,3.254,3.291c0.007,17.625,0.002,35.251,0.006,52.877c0.001,0.859,0.043,1.718,0.065,2.577
	c-1.452,4.732-3.807,9.041-6.541,13.32c0-2.878-0.067-5.757,0.023-8.632c0.06-1.913-0.621-2.794-2.618-2.678
	c-1.857,0.106-3.727,0.06-5.588,0.012c-1.522-0.039-2.225,0.564-2.207,2.152c0.049,4.442,0.05,8.887,0,13.328
	c-0.018,1.565,0.629,2.233,2.174,2.184c1.472-0.046,2.946-0.01,4.779-0.01c-2.919,4.528-5.966,8.466-9.318,12.175
	c-3.033-0.848-6.008-0.757-8.898,0.575c-0.477,0.219-0.947,0.254-1.441,0.108c-1.926-3.098-4.661-5.013-8.266-5.657
	c-1.753-0.561-3.504-0.382-5.266-0.021c-4.993,1.023-10.349,5.981-9.85,13.501c-0.136,0.017-0.271,0.02-0.407,0.007
	c-0.931-0.012-1.869-0.103-2.792-0.018c-1.469,0.136-1.985-0.375-1.982-1.915C164.657,175.021,164.659,142.631,164.67,110.242z
	 M180.169,179.911c0-2.218-0.042-4.437,0.015-6.652c0.038-1.504-0.506-2.291-2.101-2.258c-2.073,0.043-4.149,0.03-6.224,0.005
	c-1.447-0.019-2.068,0.67-2.062,2.096c0.022,4.507,0.021,9.014,0.002,13.521c-0.006,1.46,0.704,2.06,2.118,2.04
	c2.074-0.03,4.148-0.03,6.223-0.002c1.456,0.021,2.065-0.661,2.039-2.097C180.139,184.347,180.169,182.129,180.169,179.911z
	 M180.17,153.636c0-2.146-0.064-4.295,0.02-6.438c0.068-1.714-0.543-2.534-2.344-2.46c-1.928,0.081-3.863,0.064-5.793,0.005
	c-1.678-0.053-2.281,0.725-2.264,2.341c0.048,4.363,0.04,8.728,0.004,13.091c-0.013,1.515,0.576,2.267,2.146,2.235
	c2.002-0.041,4.007-0.059,6.009,0.005c1.688,0.054,2.292-0.722,2.238-2.342C180.115,157.93,180.169,155.781,180.17,153.636z
	 M216.257,153.614c0-2.217-0.023-4.435,0.009-6.65c0.021-1.511-0.612-2.253-2.177-2.218c-2.073,0.046-4.147,0.023-6.222,0.009
	c-1.31-0.01-1.986,0.546-1.979,1.922c0.021,4.577,0.028,9.154-0.005,13.731c-0.011,1.505,0.736,2.021,2.128,2
	c2.002-0.031,4.006-0.054,6.006,0.006c1.696,0.051,2.289-0.774,2.253-2.363C216.221,157.906,216.258,155.76,216.257,153.614z
	 M205.895,127.736c0,2.288,0.024,4.577-0.009,6.865c-0.02,1.348,0.589,1.981,1.927,1.976c2.146-0.011,4.291-0.017,6.437,0.003
	c1.331,0.013,2.002-0.619,2.003-1.941c0.006-4.577,0.004-9.153,0.002-13.73c0-1.309-0.623-1.986-1.968-1.977
	c-2.145,0.015-4.291,0.021-6.436-0.001c-1.49-0.016-2.001,0.753-1.971,2.156C205.929,123.301,205.894,125.52,205.895,127.736z
	 M180.168,127.853c0-2.289-0.029-4.579,0.011-6.867c0.026-1.461-0.645-2.081-2.075-2.059c-2.074,0.031-4.149,0.028-6.224,0
	c-1.437-0.019-2.088,0.639-2.081,2.077c0.021,4.507,0.021,9.014,0,13.521c-0.006,1.448,0.673,2.079,2.099,2.059
	c2.074-0.028,4.149-0.03,6.224,0c1.443,0.021,2.085-0.63,2.058-2.078C180.139,132.288,180.169,130.07,180.168,127.853z
	 M198.211,153.63c0-2.288-0.015-4.576,0.006-6.864c0.011-1.315-0.568-2.011-1.919-2.008c-2.145,0.005-4.29,0.02-6.435-0.006
	c-1.469-0.017-2.028,0.716-2.02,2.127c0.027,4.433,0.036,8.865-0.005,13.298c-0.014,1.517,0.564,2.267,2.137,2.233
	c2.001-0.042,4.005-0.057,6.006,0.004c1.688,0.052,2.292-0.742,2.246-2.35C198.167,157.921,198.213,155.774,198.211,153.63z
	 M198.212,180.047c0-2.288-0.033-4.577,0.012-6.863c0.031-1.548-0.651-2.218-2.192-2.184c-2.072,0.046-4.146,0.021-6.22,0.01
	c-1.329-0.007-1.965,0.618-1.961,1.96c0.014,4.576,0.014,9.151,0,13.728c-0.004,1.342,0.634,1.966,1.963,1.958
	c2.073-0.011,4.147-0.036,6.22,0.011c1.541,0.033,2.224-0.638,2.19-2.185C198.178,184.337,198.212,182.191,198.212,180.047z
	 M198.212,127.755c0-2.217-0.034-4.434,0.012-6.649c0.032-1.547-0.65-2.218-2.191-2.184c-2.072,0.046-4.147,0.021-6.221,0.01
	c-1.328-0.007-1.965,0.618-1.961,1.959c0.014,4.576,0.014,9.152,0,13.728c-0.004,1.342,0.634,1.966,1.962,1.958
	c2.073-0.011,4.147-0.036,6.22,0.011c1.541,0.034,2.224-0.637,2.191-2.185C198.178,132.188,198.212,129.971,198.212,127.755z"/>
<path fill-rule="evenodd" clip-rule="evenodd" fill="#FECF0E" d="M40.715,110.235c14.608-0.008,29.216-0.017,43.825-0.024
	c0.016,1.003,0.047,2.006,0.047,3.009c0.002,30.393,0.002,60.786,0.002,91.179c0,4.763,0,4.763-4.734,4.974
	c-0.154-0.017-0.308-0.033-0.461-0.051c0.052-7.106-3.646-11.961-10.261-13.475c-5.263-1.163-9.951,0.876-13.349,5.806
	c-3.287-1.123-6.595-1.98-10.069-0.823c-2.104-2.345-4.169-4.721-5.909-7.358c0.006-1.581,0.011-3.163,0.017-4.744
	c3.51-0.188,3.51-0.188,3.51-3.65c0-3.496,0-6.991,0-10.486c0-3.462,0-3.462-3.51-3.65c0-2.822,0-5.646,0-8.468
	c3.51-0.188,3.51-0.188,3.511-3.649c0-3.496,0-6.991,0-10.487c0-3.461,0-3.461-3.511-3.649c0-2.68,0-5.358,0-8.037
	c3.51-0.188,3.51-0.188,3.511-3.65c0-3.495,0-6.991,0-10.486c0-3.462,0-3.462-3.511-3.65
	C40.107,115.984,39.09,112.973,40.715,110.235z M69.058,127.758c0,2.289,0.019,4.578-0.007,6.866
	c-0.016,1.355,0.631,1.962,1.958,1.954c2.146-0.013,4.292-0.013,6.438,0c1.329,0.008,1.976-0.623,1.974-1.958
	c-0.007-4.578-0.007-9.157,0-13.735c0.002-1.337-0.652-1.962-1.979-1.954c-2.146,0.013-4.292,0.013-6.438,0
	c-1.329-0.007-1.968,0.604-1.953,1.958C69.077,123.179,69.058,125.468,69.058,127.758z M69.055,179.78
	c0,2.146,0.064,4.294-0.021,6.437c-0.068,1.718,0.551,2.531,2.347,2.456c1.928-0.08,3.864-0.064,5.793-0.005
	c1.681,0.053,2.279-0.73,2.261-2.345c-0.048-4.362-0.041-8.727-0.004-13.09c0.013-1.517-0.583-2.264-2.151-2.232
	c-2.002,0.041-4.007,0.059-6.008-0.005c-1.69-0.054-2.289,0.729-2.236,2.347C69.108,175.486,69.056,177.634,69.055,179.78z
	 M79.418,153.677c0-2.289-0.014-4.578,0.006-6.867c0.011-1.295-0.516-2.047-1.882-2.049c-2.218-0.002-4.435-0.004-6.653,0.001
	c-1.226,0.002-1.835,0.608-1.833,1.852c0.009,4.649,0.008,9.3,0.001,13.949c-0.001,1.251,0.632,1.833,1.851,1.834
	c2.146,0.003,4.292-0.018,6.438,0.011c1.436,0.019,2.098-0.64,2.081-2.078C79.398,158.112,79.418,155.895,79.418,153.677z
	 M61.371,153.778c0-2.288-0.027-4.576,0.01-6.864c0.022-1.392-0.498-2.174-1.983-2.16c-2.145,0.02-4.29,0.013-6.435,0.003
	c-1.336-0.007-1.956,0.643-1.953,1.973c0.012,4.576,0.01,9.152,0.002,13.728c-0.002,1.343,0.656,1.954,1.981,1.945
	c2.145-0.015,4.29-0.012,6.435-0.001c1.335,0.006,1.959-0.639,1.947-1.974C61.354,158.211,61.369,155.994,61.371,153.778z
	 M51.013,127.613c0,2.288,0.022,4.576-0.008,6.864c-0.019,1.421,0.591,2.124,2.046,2.104c2.073-0.026,4.147-0.029,6.22,0.002
	c1.415,0.021,2.115-0.571,2.107-2.038c-0.024-4.504-0.024-9.009,0.002-13.513c0.008-1.422-0.583-2.125-2.041-2.105
	c-2.073,0.027-4.147,0.036-6.22-0.004c-1.585-0.03-2.153,0.754-2.119,2.255C51.048,123.323,51.012,125.469,51.013,127.613z
	 M61.371,179.919c0-2.217-0.049-4.435,0.016-6.649c0.049-1.67-0.689-2.323-2.318-2.273c-2,0.063-4.004,0.037-6.005,0.009
	c-1.449-0.021-2.066,0.664-2.059,2.093c0.023,4.504,0.022,9.009,0.001,13.513c-0.007,1.455,0.678,2.072,2.101,2.052
	c2.073-0.03,4.147-0.029,6.22-0.002c1.45,0.021,2.075-0.661,2.053-2.092C61.346,184.352,61.371,182.136,61.371,179.919z"/>
<path fill-rule="evenodd" clip-rule="evenodd" fill="#03AF8F" d="M177.938,221.854c-9.379,5.789-19.518,9.688-30.261,12.014
	c-26.775,5.794-52.086,1.887-75.918-11.613c-0.176-0.1-0.314-0.266-0.471-0.4c4.435-0.043,8.871-0.085,13.306-0.128
	c2.292,0.001,4.585,0.001,6.877,0.002c2.003,0.005,4.006,0.009,6.009,0.014c3.025,0,6.051,0,9.076,0
	c2.147-0.006,4.294-0.012,6.442-0.018c2.764,0.013,5.527,0.025,8.291,0.039c2.216,0,4.433,0,6.648,0
	c4.907-0.009,9.814-0.016,14.722-0.024c3.029,0.001,6.059,0.002,9.088,0.003c4.287-0.01,8.575-0.019,12.862-0.028
	C169.052,221.761,173.494,221.808,177.938,221.854z"/>
<path fill-rule="evenodd" clip-rule="evenodd" fill="#EBC00B" d="M39.821,162.472c0,2.822,0,5.646,0,8.468
	c-1.427,0.024-2.861,0.142-4.28,0.049c-2.002-0.13-2.649,0.779-2.599,2.677c0.078,2.925-0.011,5.854-0.036,8.78
	c0,0.034-0.089,0.068-0.313,0.229c-2.282-4.491-4.847-8.807-6.181-13.696c0.023-13.89,0.048-27.778,0.068-41.669
	c0.007-4.797,0.049-9.595-0.023-14.391c-0.027-1.806,0.779-2.774,2.474-2.795c3.927-0.049,7.86-0.257,11.784,0.112
	c-1.625,2.738-0.607,5.75-0.894,8.627c-1.576,0.024-3.153,0.084-4.729,0.061c-1.434-0.021-2.129,0.613-2.126,2.054
	c0.009,4.519,0.009,9.037,0,13.556c-0.003,1.44,0.692,2.075,2.126,2.054c1.576-0.023,3.153,0.037,4.729,0.062
	c0,2.679,0,5.357,0,8.037c-1.576,0.023-3.153,0.084-4.729,0.061c-1.434-0.021-2.129,0.614-2.126,2.055
	c0.009,4.519,0.009,9.037,0,13.556c-0.003,1.441,0.692,2.075,2.126,2.055C36.668,162.388,38.245,162.448,39.821,162.472z"/>
<path fill-rule="evenodd" clip-rule="evenodd" fill="#FD3745" d="M151.369,28.999c-0.231,2.983-0.684,3.418-3.627,3.421
	c-6.558,0.007-13.115,0.006-19.673,0.009c-0.649-2.941-0.147-5.918-0.272-8.876c-0.087-2.055-0.052-4.115-0.072-6.172
	c6.844-0.007,13.688-0.028,20.53-0.016c2.331,0.004,3.01,0.72,3.039,3.084C151.33,23.299,151.345,26.149,151.369,28.999z"/>
<path fill-rule="evenodd" clip-rule="evenodd" fill="#D7732E" d="M177.938,221.854c-4.443-0.047-8.886-0.094-13.329-0.141
	c0.004-3.133,0.129-6.272-0.031-9.397c-0.104-2.01,0.432-2.919,2.559-2.636c0.732,0.098,1.575,0.266,2.247-0.339
	c0.136,0.013,0.271,0.01,0.407-0.007c2.154,0.18,4.309,0.171,6.462,0.007c3.852-0.012,7.702-0.023,11.554-0.035
	c2.3,0.371,4.657-0.304,6.94,0.379C189.561,214.318,184.046,218.496,177.938,221.854z"/>
<path fill-rule="evenodd" clip-rule="evenodd" fill="#D7732E" d="M84.593,221.727c-4.435,0.043-8.871,0.085-13.306,0.128
	c-6.104-3.357-11.62-7.527-16.795-12.167c2.279-0.695,4.634-0.001,6.931-0.384c5.99,0.204,11.98,0.17,17.97,0.018
	c0.154,0.018,0.308,0.034,0.461,0.051c0.743,0.636,1.65,0.408,2.456,0.333c1.721-0.162,2.396,0.376,2.316,2.22
	C84.483,215.187,84.59,218.459,84.593,221.727z"/>
<path fill-rule="evenodd" clip-rule="evenodd" fill="#62D780" d="M194.746,209.686c-2.283-0.683-4.641-0.008-6.94-0.379
	c0.331-2.027,1.425-3.617,2.775-5.109c0.838-0.924,2.124-1.412,2.59-2.685c0.494,0.146,0.965,0.11,1.441-0.108
	c2.891-1.332,5.865-1.423,8.898-0.575C200.903,204.092,197.911,206.975,194.746,209.686z"/>
<path fill-rule="evenodd" clip-rule="evenodd" fill="#62D780" d="M61.422,209.304c-2.296,0.383-4.652-0.312-6.931,0.384
	c-3.18-2.701-6.164-5.596-8.778-8.858c3.473-1.157,6.781-0.3,10.068,0.823c1.599,1.521,3.37,2.87,4.678,4.682
	C60.623,207.375,61.463,208.197,61.422,209.304z"/>
<path fill-rule="evenodd" clip-rule="evenodd" fill="#EBC00B" d="M39.822,188.727c-0.006,1.581-0.011,3.163-0.017,4.744
	c-1.338-1.367-2.352-2.952-3.331-4.744C37.717,188.727,38.769,188.727,39.822,188.727z"/>
<path fill-rule="evenodd" clip-rule="evenodd" fill="#293E7D" d="M127.854,42.368c0.049,0.134,0.098,0.268,0.146,0.402
	c-3.645,2.762-6.997,5.867-10.448,8.857c-5.554,4.811-11.177,9.541-16.767,14.31c-3.799,3.24-7.606,6.472-11.385,9.737
	c-3.619,3.127-7.214,6.282-10.801,9.446c-1.167,1.029-1.259,2.133-0.177,3.353c0.851,0.958,1.584,2.018,2.369,3.033
	c-0.454,0.455-0.879,0.941-1.365,1.358c-1.751,1.502-2.594,1.47-4.175-0.232c-1.121-1.207-2.175-2.476-3.242-3.73
	c-1.544-1.817-1.52-2.741,0.333-4.343c6.339-5.481,12.722-10.913,19.073-16.38c9.989-8.597,19.966-17.206,29.949-25.81
	C123.527,41.142,125.69,41.133,127.854,42.368z"/>
<path fill-rule="evenodd" clip-rule="evenodd" fill="#EE9614" d="M84.593,221.727c-0.003-3.268-0.109-6.54,0.033-9.802
	c0.08-1.844-0.595-2.382-2.316-2.22c-0.805,0.075-1.712,0.303-2.456-0.333c4.735-0.211,4.735-0.211,4.735-4.974
	c0-30.394,0-60.786-0.002-91.179c0-1.003-0.031-2.006-0.047-3.009c0-7.249,0.001-14.498,0.002-21.748
	c12.017-10.359,24.038-20.713,36.05-31.078c4.267-3.682,4.256-3.694,8.354,0.416c-0.329,0.121-0.728,0.162-0.978,0.375
	c-5.204,4.446-10.389,8.915-15.582,13.374c-6.002,5.155-12.021,10.292-18.004,15.47c-1.667,1.441-2.998,2.85-2.991,5.518
	c0.11,43.063,0.079,86.128,0.08,129.191C89.178,221.728,86.885,221.728,84.593,221.727z"/>
<path fill-rule="evenodd" clip-rule="evenodd" fill="#2F4D88" d="M128.945,57.8c-4.097-4.11-4.087-4.098-8.354-0.416
	c-12.012,10.365-24.033,20.719-36.05,31.078c-1.25,1.015-2.501,2.028-3.751,3.042c-0.785-1.015-1.518-2.075-2.369-3.033
	c-1.082-1.22-0.991-2.324,0.177-3.353c3.587-3.164,7.182-6.319,10.801-9.446c3.778-3.265,7.585-6.497,11.385-9.737
	c5.59-4.769,11.213-9.499,16.767-14.31c3.452-2.99,6.804-6.095,10.448-8.857c6.474,5.524,12.96,11.034,19.419,16.576
	c9.721,8.34,19.416,16.71,29.135,25.051c1.92,1.648,2.065,2.763,0.442,4.686c-1.015,1.204-2.061,2.381-3.09,3.572
	c-1.272,1.473-2.574,1.565-4.055,0.233c-1.697-1.528-3.478-2.963-5.223-4.439c-2.534-2.214-5.051-4.448-7.606-6.637
	C147.67,73.799,138.306,65.803,128.945,57.8z"/>
<path fill-rule="evenodd" clip-rule="evenodd" fill="#FEAE11" d="M128.945,57.8c9.36,8.002,18.725,15.999,28.077,24.011
	c2.556,2.189,5.072,4.423,7.606,6.637c0.014,7.265,0.027,14.529,0.041,21.794c-0.011,32.389-0.013,64.778-0.062,97.167
	c-0.003,1.54,0.514,2.051,1.982,1.915c0.923-0.085,1.861,0.006,2.792,0.018c-0.672,0.604-1.515,0.437-2.247,0.339
	c-2.127-0.283-2.662,0.626-2.559,2.636c0.16,3.125,0.035,6.265,0.031,9.397c-4.287,0.01-8.575,0.019-12.862,0.028
	c0.009-13.746,0.018-27.491,0.026-41.237c4.019-0.078,4.259-0.32,4.259-4.288c0-0.859,0.004-1.719-0.002-2.578
	c-0.014-1.763-0.916-2.63-2.668-2.628c-15.325,0.022-30.651,0.047-45.977,0.07c-3.925-0.023-7.851-0.049-11.776-0.068
	c-1.563-0.009-2.394,0.761-2.41,2.339c-0.016,1.57-0.004,3.141-0.004,4.712c0,1.56,0.758,2.386,2.34,2.413
	c0.642,0.012,1.284,0.024,1.926,0.036c0.006,13.743,0.012,27.486,0.018,41.229c-2.003-0.005-4.006-0.009-6.009-0.014
	c-0.001-43.063,0.03-86.128-0.08-129.191c-0.007-2.668,1.325-4.077,2.991-5.518c5.983-5.177,12.002-10.314,18.004-15.47
	c5.193-4.459,10.378-8.928,15.582-13.374C128.218,57.962,128.616,57.921,128.945,57.8z M126.337,74.295
	c-6.841-0.653-12.228,1.995-15.87,7.671c-3.765,5.867-3.765,12.113,0,17.98c3.642,5.675,9.028,8.324,15.87,7.671
	c8.519-0.972,14.967-8.066,15.047-16.554C141.463,82.552,134.936,75.277,126.337,74.295z M146.487,153.525
	c0,2.22,0.043,4.439-0.015,6.657c-0.04,1.514,0.511,2.275,2.112,2.231c2.074-0.056,4.151-0.035,6.228-0.007
	c1.466,0.02,2.059-0.717,2.055-2.118c-0.014-4.51-0.007-9.02-0.006-13.529c0-1.299-0.585-2.011-1.942-2.004
	c-2.148,0.011-4.296,0.03-6.443-0.008c-1.491-0.026-2.027,0.706-2,2.12C146.52,149.086,146.487,151.307,146.487,153.525z
	 M102.737,153.511c0-2.22-0.031-4.439,0.012-6.657c0.028-1.423-0.532-2.134-2.015-2.105c-2.075,0.039-4.152,0.036-6.228-0.001
	c-1.418-0.025-2.146,0.579-2.144,2.027c0.006,4.51,0.009,9.02-0.003,13.529c-0.004,1.409,0.61,2.125,2.069,2.104
	c2.076-0.029,4.153-0.049,6.228,0.007c1.613,0.043,2.135-0.745,2.097-2.246C102.695,157.95,102.737,155.729,102.737,153.511z
	 M102.696,127.714c0-2.221-0.047-4.442,0.016-6.66c0.042-1.464-0.599-2.122-2.021-2.119c-2.077,0.004-4.154,0.008-6.231-0.004
	c-1.42-0.008-2.113,0.683-2.112,2.098c0.003,4.512-0.001,9.024,0.005,13.535c0.002,1.301,0.652,2.003,1.975,2.008
	c2.149,0.008,4.297,0.011,6.446-0.003c1.294-0.008,1.965-0.595,1.935-1.979C102.658,132.298,102.695,130.006,102.696,127.714z
	 M120.775,153.566c0-2.217-0.031-4.436,0.011-6.652c0.027-1.396-0.486-2.176-1.976-2.161c-2.146,0.021-4.292,0.014-6.438,0.003
	c-1.333-0.008-1.966,0.636-1.964,1.967c0.009,4.579,0.007,9.157,0.001,13.734c-0.002,1.341,0.662,1.955,1.986,1.946
	c2.146-0.015,4.292-0.013,6.438-0.002c1.333,0.007,1.961-0.62,1.946-1.968C120.754,158.146,120.773,155.855,120.775,153.566z
	 M138.813,153.679c0-2.289-0.015-4.579,0.006-6.868c0.011-1.293-0.512-2.049-1.88-2.051c-2.217-0.002-4.435-0.003-6.652,0.001
	c-1.226,0.003-1.838,0.61-1.837,1.852c0.007,4.649,0.006,9.3,0.001,13.949c-0.002,1.248,0.632,1.834,1.852,1.836
	c2.146,0.003,4.292-0.019,6.438,0.01c1.437,0.019,2.099-0.638,2.081-2.076C138.794,158.114,138.813,155.896,138.813,153.679z
	 M146.528,127.764c0,2.149,0.066,4.301-0.022,6.445c-0.067,1.632,0.54,2.411,2.211,2.377c2.005-0.04,4.011-0.021,6.016-0.005
	c1.408,0.012,2.142-0.641,2.143-2.067c0-4.513,0.001-9.024-0.001-13.536c-0.001-1.292-0.614-2.028-1.945-2.037
	c-2.148-0.014-4.297-0.004-6.445-0.003c-1.451,0-2.015,0.733-1.973,2.167C146.577,123.323,146.528,125.544,146.528,127.764z
	 M138.814,127.886c0-2.224-0.024-4.447,0.009-6.67c0.021-1.493-0.586-2.3-2.149-2.287c-2.008,0.018-4.017,0.021-6.024-0.001
	c-1.537-0.017-2.2,0.717-2.19,2.241c0.027,4.375,0.034,8.751-0.004,13.126c-0.015,1.662,0.753,2.33,2.362,2.293
	c1.936-0.045,3.873-0.029,5.81-0.005c1.542,0.02,2.216-0.725,2.195-2.241C138.792,132.19,138.814,130.038,138.814,127.886z
	 M110.41,127.629c0,2.224,0.024,4.447-0.008,6.671c-0.022,1.496,0.593,2.296,2.153,2.281c2.008-0.019,4.018-0.021,6.026,0.001
	c1.539,0.017,2.195-0.724,2.186-2.245c-0.028-4.375-0.029-8.751,0-13.126c0.01-1.501-0.592-2.295-2.15-2.282
	c-2.008,0.018-4.017,0.022-6.025-0.001c-1.543-0.019-2.211,0.731-2.19,2.246C110.432,123.325,110.41,125.478,110.41,127.629z"/>
<path fill-rule="evenodd" clip-rule="evenodd" fill="#FEFEFE" d="M180.169,179.911c0,2.218-0.03,4.436,0.011,6.652
	c0.026,1.436-0.583,2.118-2.039,2.097c-2.074-0.028-4.148-0.028-6.223,0.002c-1.414,0.02-2.124-0.58-2.118-2.04
	c0.019-4.507,0.021-9.014-0.002-13.521c-0.007-1.426,0.614-2.114,2.062-2.096c2.074,0.025,4.15,0.038,6.224-0.005
	c1.595-0.033,2.139,0.754,2.101,2.258C180.127,175.475,180.169,177.693,180.169,179.911z"/>
<path fill-rule="evenodd" clip-rule="evenodd" fill="#FEFEFE" d="M180.169,153.636c0,2.146-0.054,4.294,0.018,6.438
	c0.054,1.62-0.551,2.396-2.238,2.342c-2.002-0.063-4.007-0.046-6.009-0.005c-1.57,0.031-2.159-0.721-2.146-2.235
	c0.036-4.363,0.044-8.728-0.004-13.091c-0.018-1.616,0.586-2.394,2.264-2.341c1.93,0.06,3.865,0.076,5.793-0.005
	c1.801-0.074,2.412,0.746,2.344,2.46C180.105,149.341,180.17,151.489,180.169,153.636z"/>
<path fill-rule="evenodd" clip-rule="evenodd" fill="#FEFEFE" d="M216.257,153.614c0.001,2.146-0.036,4.292,0.013,6.437
	c0.036,1.589-0.557,2.414-2.253,2.363c-2-0.06-4.004-0.037-6.006-0.006c-1.392,0.021-2.139-0.495-2.128-2
	c0.033-4.577,0.026-9.154,0.005-13.731c-0.007-1.376,0.67-1.932,1.979-1.922c2.074,0.015,4.148,0.037,6.222-0.009
	c1.564-0.035,2.198,0.707,2.177,2.218C216.233,149.18,216.257,151.397,216.257,153.614z"/>
<path fill-rule="evenodd" clip-rule="evenodd" fill="#FEFEFE" d="M205.895,127.736c-0.001-2.217,0.034-4.435-0.015-6.651
	c-0.03-1.403,0.48-2.171,1.971-2.156c2.145,0.022,4.291,0.016,6.436,0.001c1.345-0.009,1.968,0.668,1.968,1.977
	c0.002,4.577,0.004,9.153-0.002,13.73c-0.001,1.322-0.672,1.954-2.003,1.941c-2.146-0.02-4.291-0.014-6.437-0.003
	c-1.338,0.006-1.946-0.628-1.927-1.976C205.919,132.313,205.895,130.024,205.895,127.736z"/>
<path fill-rule="evenodd" clip-rule="evenodd" fill="#FEFEFE" d="M180.169,127.853c0,2.218-0.03,4.436,0.01,6.652
	c0.027,1.448-0.614,2.1-2.058,2.078c-2.074-0.03-4.149-0.028-6.224,0c-1.426,0.021-2.104-0.61-2.099-2.059
	c0.021-4.507,0.021-9.014,0-13.521c-0.007-1.438,0.645-2.096,2.081-2.077c2.074,0.028,4.149,0.031,6.224,0
	c1.431-0.022,2.102,0.598,2.075,2.059C180.139,123.274,180.168,125.563,180.169,127.853z"/>
<path fill-rule="evenodd" clip-rule="evenodd" fill="#FEFEFE" d="M198.212,153.63c0.001,2.145-0.045,4.291,0.016,6.435
	c0.046,1.607-0.559,2.401-2.246,2.35c-2.001-0.061-4.005-0.046-6.006-0.004c-1.572,0.033-2.15-0.717-2.137-2.233
	c0.041-4.433,0.032-8.865,0.005-13.298c-0.009-1.411,0.551-2.144,2.02-2.127c2.145,0.025,4.29,0.011,6.435,0.006
	c1.351-0.003,1.93,0.692,1.919,2.008C198.196,149.054,198.211,151.342,198.212,153.63z"/>
<path fill-rule="evenodd" clip-rule="evenodd" fill="#FEFEFE" d="M198.212,180.047c0,2.145-0.034,4.29,0.012,6.435
	c0.033,1.547-0.649,2.218-2.19,2.185c-2.072-0.047-4.146-0.021-6.22-0.011c-1.329,0.008-1.967-0.616-1.963-1.958
	c0.014-4.576,0.014-9.151,0-13.728c-0.004-1.342,0.632-1.967,1.961-1.96c2.073,0.012,4.147,0.036,6.22-0.01
	c1.541-0.034,2.224,0.636,2.192,2.184C198.179,175.47,198.212,177.759,198.212,180.047z"/>
<path fill-rule="evenodd" clip-rule="evenodd" fill="#FEFEFE" d="M198.212,127.755c0,2.216-0.034,4.434,0.012,6.648
	c0.032,1.548-0.65,2.219-2.191,2.185c-2.072-0.047-4.146-0.021-6.22-0.011c-1.328,0.008-1.966-0.616-1.962-1.958
	c0.014-4.576,0.014-9.152,0-13.728c-0.004-1.341,0.633-1.966,1.961-1.959c2.073,0.011,4.148,0.036,6.221-0.01
	c1.541-0.034,2.224,0.637,2.191,2.184C198.178,123.321,198.212,125.538,198.212,127.755z"/>
<path fill-rule="evenodd" clip-rule="evenodd" fill="#03AF8F" d="M193.171,201.513c-0.466,1.272-1.752,1.761-2.59,2.685
	c-1.351,1.492-2.444,3.082-2.775,5.109c-3.852,0.012-7.702,0.023-11.554,0.035c-0.126-5.857,2.302-10.164,7.677-12.704
	c0.366-0.174,0.652-0.518,0.977-0.782C188.51,196.5,191.245,198.415,193.171,201.513z"/>
<path fill-rule="evenodd" clip-rule="evenodd" fill="#1B9895" d="M184.905,195.855c-0.324,0.265-0.61,0.608-0.977,0.782
	c-5.375,2.54-7.803,6.847-7.677,12.704c-2.153,0.164-4.308,0.173-6.462-0.007c-0.499-7.52,4.856-12.478,9.85-13.501
	C181.401,195.474,183.152,195.295,184.905,195.855z"/>
<path fill-rule="evenodd" clip-rule="evenodd" fill="#03AF8F" d="M61.422,209.304c0.041-1.106-0.799-1.929-0.962-2.971
	c0.991-2.927,2.17-5.709,4.565-7.86c1.248-1.122,3.035-1.297,4.106-2.626c6.616,1.514,10.313,6.368,10.261,13.475
	C73.402,209.474,67.412,209.508,61.422,209.304z"/>
<path fill-rule="evenodd" clip-rule="evenodd" fill="#FEFEFE" d="M39.821,136.648c-1.576-0.024-3.153-0.085-4.729-0.062
	c-1.434,0.021-2.129-0.613-2.126-2.054c0.009-4.52,0.009-9.037,0-13.556c-0.003-1.441,0.692-2.076,2.126-2.054
	c1.576,0.023,3.153-0.037,4.729-0.061c3.51,0.188,3.51,0.188,3.511,3.65c0,3.495,0,6.991,0,10.486
	C43.332,136.46,43.332,136.46,39.821,136.648z"/>
<path fill-rule="evenodd" clip-rule="evenodd" fill="#FEFEFE" d="M69.058,127.758c0-2.29,0.02-4.579-0.007-6.868
	c-0.016-1.354,0.624-1.965,1.953-1.958c2.146,0.012,4.292,0.013,6.438,0c1.327-0.008,1.98,0.617,1.979,1.954
	c-0.007,4.578-0.007,9.157,0,13.735c0.002,1.335-0.646,1.966-1.974,1.958c-2.146-0.013-4.292-0.013-6.438,0
	c-1.327,0.008-1.973-0.599-1.958-1.954C69.077,132.336,69.058,130.047,69.058,127.758z"/>
<path fill-rule="evenodd" clip-rule="evenodd" fill="#FEFEFE" d="M69.056,179.78c0-2.146,0.053-4.294-0.018-6.438
	c-0.053-1.618,0.545-2.4,2.236-2.347c2,0.063,4.006,0.046,6.008,0.005c1.568-0.031,2.164,0.716,2.151,2.232
	c-0.037,4.363-0.044,8.728,0.004,13.09c0.018,1.614-0.581,2.397-2.261,2.345c-1.929-0.06-3.865-0.075-5.793,0.005
	c-1.796,0.075-2.415-0.738-2.347-2.456C69.12,184.074,69.055,181.926,69.056,179.78z"/>
<path fill-rule="evenodd" clip-rule="evenodd" fill="#FEFEFE" d="M79.418,153.677c0,2.218-0.02,4.436,0.007,6.652
	c0.017,1.438-0.645,2.097-2.081,2.078c-2.146-0.028-4.292-0.008-6.438-0.011c-1.219-0.001-1.852-0.583-1.851-1.834
	c0.007-4.649,0.008-9.3-0.001-13.949c-0.002-1.243,0.607-1.85,1.833-1.852c2.218-0.005,4.435-0.003,6.653-0.001
	c1.366,0.002,1.894,0.754,1.882,2.049C79.404,149.099,79.418,151.388,79.418,153.677z"/>
<path fill-rule="evenodd" clip-rule="evenodd" fill="#FEFEFE" d="M39.821,162.472c-1.576-0.023-3.153-0.084-4.729-0.061
	c-1.434,0.021-2.129-0.613-2.126-2.055c0.009-4.519,0.009-9.037,0-13.556c-0.003-1.44,0.692-2.075,2.126-2.055
	c1.576,0.023,3.153-0.037,4.729-0.061c3.51,0.188,3.51,0.188,3.511,3.649c0,3.496,0,6.991,0,10.487
	C43.332,162.283,43.332,162.283,39.821,162.472z"/>
<path fill-rule="evenodd" clip-rule="evenodd" fill="#FEFEFE" d="M61.37,153.778c-0.001,2.216-0.016,4.433,0.004,6.649
	c0.012,1.335-0.612,1.979-1.947,1.974c-2.145-0.011-4.29-0.014-6.435,0.001c-1.325,0.009-1.983-0.603-1.981-1.945
	c0.008-4.575,0.01-9.151-0.002-13.728c-0.003-1.33,0.617-1.979,1.953-1.973c2.145,0.01,4.29,0.017,6.435-0.003
	c1.486-0.014,2.006,0.769,1.983,2.16C61.344,149.202,61.371,151.49,61.37,153.778z"/>
<path fill-rule="evenodd" clip-rule="evenodd" fill="#FEFEFE" d="M51.013,127.613c0-2.145,0.036-4.291-0.013-6.435
	c-0.034-1.501,0.534-2.285,2.119-2.255c2.073,0.04,4.147,0.031,6.22,0.004c1.458-0.02,2.049,0.683,2.041,2.105
	c-0.026,4.504-0.026,9.009-0.002,13.513c0.008,1.467-0.693,2.059-2.107,2.038c-2.073-0.031-4.147-0.028-6.22-0.002
	c-1.456,0.02-2.065-0.684-2.046-2.104C51.035,132.189,51.013,129.901,51.013,127.613z"/>
<path fill-rule="evenodd" clip-rule="evenodd" fill="#FEFEFE" d="M61.371,179.919c0,2.217-0.025,4.433,0.009,6.649
	c0.021,1.431-0.604,2.112-2.053,2.092c-2.073-0.027-4.147-0.028-6.22,0.002c-1.422,0.021-2.107-0.597-2.101-2.052
	c0.021-4.504,0.022-9.009-0.001-13.513c-0.007-1.429,0.61-2.113,2.059-2.093c2.001,0.028,4.005,0.054,6.005-0.009
	c1.629-0.05,2.368,0.604,2.318,2.273C61.322,175.484,61.371,177.702,61.371,179.919z"/>
<path fill-rule="evenodd" clip-rule="evenodd" fill="#1B9895" d="M69.131,195.847c-1.071,1.329-2.858,1.504-4.106,2.626
	c-2.395,2.151-3.574,4.934-4.565,7.86c-1.308-1.811-3.079-3.159-4.678-4.681C59.181,196.723,63.868,194.684,69.131,195.847z"/>
<path fill-rule="evenodd" clip-rule="evenodd" fill="#FEFEFE" d="M142.658,221.739c-4.907,0.009-9.814,0.016-14.721,0.024
	c-0.014-13.556-0.03-27.111-0.038-40.667c0-0.208,0.093-0.415,0.142-0.623c4.862,0.012,9.724,0.023,14.586,0.036
	C142.638,194.253,142.648,207.996,142.658,221.739z"/>
<path fill-rule="evenodd" clip-rule="evenodd" fill="#445E9F" d="M142.658,221.739c-0.01-13.743-0.021-27.486-0.031-41.229
	c3.048-0.002,6.097-0.004,9.146-0.005c-0.009,13.746-0.018,27.491-0.026,41.237C148.717,221.741,145.688,221.74,142.658,221.739z"/>
<path fill-rule="evenodd" clip-rule="evenodd" fill="#445E9F" d="M97.479,221.742c-0.006-13.743-0.012-27.486-0.018-41.229
	c3.042-0.002,6.084-0.003,9.127-0.004c-0.011,13.744-0.022,27.489-0.034,41.233C103.53,221.742,100.504,221.742,97.479,221.742z"/>
<path fill-rule="evenodd" clip-rule="evenodd" fill="#FEFEFE" d="M121.288,221.764c-2.764-0.014-5.527-0.026-8.291-0.039
	c0-13.726,0-27.449-0.001-41.174c2.729-0.025,5.458-0.052,8.187-0.077c0.054,0.279,0.154,0.559,0.154,0.838
	C121.326,194.795,121.307,208.279,121.288,221.764z"/>
<path fill-rule="evenodd" clip-rule="evenodd" fill="#445E9F" d="M121.288,221.764c0.019-13.484,0.038-26.969,0.049-40.452
	c0-0.279-0.1-0.559-0.154-0.838c2.286,0,4.572,0,6.858,0c-0.049,0.208-0.142,0.415-0.142,0.623
	c0.008,13.556,0.024,27.111,0.038,40.667C125.721,221.764,123.504,221.764,121.288,221.764z"/>
<path fill-rule="evenodd" clip-rule="evenodd" fill="#EDF5FE" d="M112.996,180.551c0,13.725,0,27.448,0.001,41.174
	c-2.147,0.006-4.295,0.012-6.442,0.018c0.011-13.744,0.022-27.489,0.033-41.233c0.129-0.016,0.254-0.046,0.375-0.095
	C108.974,180.46,110.985,180.505,112.996,180.551z"/>
<path fill-rule="evenodd" clip-rule="evenodd" fill="#FEFEFE" d="M126.337,74.295c8.599,0.982,15.126,8.257,15.047,16.769
	c-0.08,8.487-6.528,15.582-15.047,16.554c-0.272-1.067-1.35-0.92-2.05-1.294c-6.127-3.273-9.922-8.153-9.957-15.26
	c-0.035-7.296,3.837-12.273,10.149-15.568C125.12,75.161,126.125,75.312,126.337,74.295z M121.385,86.042c0.004,0,0.009,0,0.013,0
	c0,1.645-0.082,3.294,0.023,4.933c0.105,1.662,0.947,2.895,2.717,3.083c2.918,0.31,5.854,0.344,8.769-0.021
	c1.753-0.22,2.626-1.438,2.599-3.141c-0.027-1.712-0.976-2.828-2.717-3.051c-1.128-0.145-2.281-0.187-3.419-0.146
	c-1.103,0.039-1.538-0.342-1.5-1.475c0.056-1.714,0.062-3.438-0.058-5.147c-0.132-1.873-1.144-3.07-3.109-3.182
	c-1.811-0.103-3.122,1.123-3.292,3.212C121.279,82.742,121.385,84.396,121.385,86.042z"/>
<path fill-rule="evenodd" clip-rule="evenodd" fill="#2F4D88" d="M112.996,180.551c-2.011-0.046-4.022-0.091-6.033-0.137
	c-1.067-3.165-1.806-6.316,0.422-9.333c15.326-0.023,30.651-0.048,45.977-0.07c1.752-0.002,2.654,0.865,2.668,2.628
	c0.006,0.859,0.002,1.719,0.002,2.578c0,3.968-0.24,4.21-4.259,4.288c-3.049,0.001-6.098,0.003-9.146,0.005
	c-4.862-0.013-9.724-0.024-14.586-0.036c-2.286,0-4.572,0-6.858,0C118.454,180.499,115.725,180.525,112.996,180.551z"/>
<path fill-rule="evenodd" clip-rule="evenodd" fill="#EDF5FE" d="M126.337,74.295c-0.212,1.017-1.217,0.866-1.857,1.2
	c-6.312,3.295-10.184,8.271-10.149,15.568c0.035,7.107,3.829,11.987,9.957,15.26c0.7,0.375,1.777,0.228,2.05,1.294
	c-6.842,0.653-12.228-1.996-15.87-7.671c-3.765-5.867-3.765-12.114,0-17.98C114.109,76.29,119.496,73.642,126.337,74.295z"/>
<path fill-rule="evenodd" clip-rule="evenodd" fill="#FEFEFE" d="M146.487,153.525c0-2.219,0.032-4.439-0.012-6.657
	c-0.027-1.414,0.509-2.146,2-2.12c2.147,0.038,4.295,0.019,6.443,0.008c1.357-0.007,1.942,0.705,1.942,2.004
	c-0.001,4.51-0.008,9.02,0.006,13.529c0.004,1.401-0.589,2.138-2.055,2.118c-2.076-0.028-4.153-0.049-6.228,0.007
	c-1.602,0.044-2.152-0.718-2.112-2.231C146.53,157.965,146.487,155.745,146.487,153.525z"/>
<path fill-rule="evenodd" clip-rule="evenodd" fill="#FEFEFE" d="M102.737,153.511c0,2.219-0.042,4.439,0.015,6.657
	c0.038,1.501-0.484,2.289-2.097,2.246c-2.074-0.056-4.152-0.036-6.228-0.007c-1.459,0.021-2.073-0.694-2.069-2.104
	c0.012-4.51,0.009-9.02,0.003-13.529c-0.002-1.448,0.726-2.053,2.144-2.027c2.076,0.037,4.153,0.04,6.228,0.001
	c1.483-0.028,2.042,0.683,2.015,2.105C102.706,149.071,102.737,151.291,102.737,153.511z"/>
<path fill-rule="evenodd" clip-rule="evenodd" fill="#FED681" d="M102.695,127.714c0,2.292-0.037,4.584,0.013,6.875
	c0.03,1.385-0.641,1.972-1.935,1.979c-2.148,0.014-4.297,0.011-6.446,0.003c-1.323-0.005-1.972-0.707-1.975-2.008
	c-0.007-4.511-0.002-9.023-0.005-13.535c-0.001-1.415,0.692-2.106,2.112-2.098c2.077,0.012,4.154,0.008,6.231,0.004
	c1.423-0.003,2.063,0.655,2.021,2.119C102.649,123.272,102.696,125.493,102.695,127.714z"/>
<path fill-rule="evenodd" clip-rule="evenodd" fill="#FEFEFE" d="M120.774,153.566c-0.001,2.289-0.02,4.579,0.006,6.867
	c0.015,1.348-0.614,1.975-1.946,1.968c-2.146-0.011-4.292-0.013-6.438,0.002c-1.324,0.009-1.988-0.605-1.986-1.946
	c0.006-4.577,0.007-9.155-0.001-13.734c-0.002-1.331,0.63-1.975,1.964-1.967c2.146,0.011,4.292,0.019,6.438-0.003
	c1.49-0.015,2.002,0.765,1.976,2.161C120.744,149.131,120.775,151.35,120.774,153.566z"/>
<path fill-rule="evenodd" clip-rule="evenodd" fill="#FEFEFE" d="M138.813,153.679c0,2.217-0.02,4.436,0.008,6.652
	c0.018,1.438-0.645,2.095-2.081,2.076c-2.146-0.028-4.292-0.007-6.438-0.01c-1.22-0.002-1.854-0.588-1.852-1.836
	c0.005-4.649,0.006-9.3-0.001-13.949c-0.001-1.241,0.611-1.849,1.837-1.852c2.218-0.004,4.436-0.003,6.652-0.001
	c1.368,0.002,1.891,0.758,1.88,2.051C138.799,149.1,138.813,151.39,138.813,153.679z"/>
<path fill-rule="evenodd" clip-rule="evenodd" fill="#FED681" d="M146.528,127.764c0-2.22,0.049-4.441-0.018-6.659
	c-0.042-1.434,0.521-2.167,1.973-2.167c2.148,0,4.297-0.011,6.445,0.003c1.331,0.009,1.944,0.745,1.945,2.037
	c0.002,4.512,0.001,9.023,0.001,13.536c-0.001,1.427-0.734,2.079-2.143,2.067c-2.005-0.017-4.011-0.035-6.016,0.005
	c-1.671,0.034-2.278-0.745-2.211-2.377C146.595,132.064,146.528,129.913,146.528,127.764z"/>
<path fill-rule="evenodd" clip-rule="evenodd" fill="#FED681" d="M138.814,127.886c0,2.152-0.022,4.305,0.008,6.456
	c0.021,1.517-0.653,2.261-2.195,2.241c-1.937-0.024-3.874-0.04-5.81,0.005c-1.609,0.037-2.377-0.631-2.362-2.293
	c0.038-4.375,0.031-8.751,0.004-13.126c-0.01-1.524,0.653-2.258,2.19-2.241c2.008,0.022,4.017,0.019,6.024,0.001
	c1.563-0.014,2.171,0.793,2.149,2.287C138.79,123.438,138.814,125.662,138.814,127.886z"/>
<path fill-rule="evenodd" clip-rule="evenodd" fill="#FED681" d="M110.41,127.629c0-2.151,0.022-4.304-0.008-6.456
	c-0.021-1.515,0.646-2.265,2.19-2.246c2.008,0.024,4.017,0.019,6.025,0.001c1.558-0.013,2.16,0.781,2.15,2.282
	c-0.03,4.375-0.029,8.751,0,13.126c0.01,1.521-0.646,2.262-2.186,2.245c-2.008-0.021-4.018-0.02-6.026-0.001
	c-1.56,0.015-2.176-0.785-2.153-2.281C110.434,132.076,110.41,129.853,110.41,127.629z"/>
<path fill-rule="evenodd" clip-rule="evenodd" fill="#293E7D" d="M107.385,171.081c-2.228,3.017-1.489,6.168-0.422,9.333
	c-0.121,0.049-0.246,0.079-0.375,0.095c-3.043,0.001-6.085,0.002-9.127,0.004c-0.643-0.012-1.284-0.024-1.926-0.036
	c-1.582-0.027-2.339-0.854-2.34-2.413c0-1.571-0.012-3.142,0.004-4.712c0.016-1.578,0.848-2.348,2.41-2.339
	C99.534,171.032,103.459,171.058,107.385,171.081z"/>
<path fill-rule="evenodd" clip-rule="evenodd" fill="#1B9895" d="M121.385,86.042c0-1.645-0.106-3.299,0.026-4.933
	c0.17-2.09,1.481-3.315,3.292-3.212c1.965,0.112,2.977,1.309,3.109,3.182c0.119,1.709,0.113,3.433,0.058,5.147
	c-0.038,1.133,0.397,1.514,1.5,1.475c1.138-0.041,2.291,0.001,3.419,0.146c1.741,0.223,2.689,1.339,2.717,3.051
	c0.027,1.702-0.846,2.921-2.599,3.141c-2.914,0.364-5.851,0.33-8.769,0.021c-1.77-0.188-2.612-1.421-2.717-3.083
	c-0.104-1.638-0.023-3.288-0.023-4.933C121.394,86.042,121.39,86.042,121.385,86.042z"/>
</svg>
