<?xml version="1.0" encoding="utf-8"?>
<!-- Generator: Adobe Illustrator 16.0.0, SVG Export Plug-In . SVG Version: 6.00 Build 0)  -->
<!DOCTYPE svg PUBLIC "-//W3C//DTD SVG 1.1//EN" "http://www.w3.org/Graphics/SVG/1.1/DTD/svg11.dtd">
<svg version="1.1" id="Layer_1" xmlns="http://www.w3.org/2000/svg" xmlns:xlink="http://www.w3.org/1999/xlink" x="0px" y="0px"
	 width="100px" height="100px" viewBox="0 0 100 100" enable-background="new 0 0 100 100" xml:space="preserve">
<path display="none" fill="#E86481" d="M8.767,73.18c0-15.463,0-30.926,0-46.388c0.128-0.018,0.153-0.115,0.19-0.219
	c1.416-3.984,3.671-5.58,7.884-5.58c16.122,0,32.244,0,48.365,0c6.224,0,12.446-0.01,18.67,0.004
	c3.442,0.008,6.173,2.11,7.125,5.413c0.052,0.181-0.049,0.453,0.231,0.543c0,15.409,0,30.818,0,46.227
	c-0.176,0.021-0.172,0.174-0.213,0.295c-1.297,3.797-3.688,5.504-7.701,5.504c-9.174,0-18.352,0-27.523,0
	c-13.198,0-26.397,0.004-39.595-0.004c-3.444-0.002-6.136-2.009-7.15-5.269C8.993,73.521,9.035,73.26,8.767,73.18z M82.816,26.035
	c-0.043-0.056-0.088-0.111-0.131-0.167c-21.797,0-43.595,0-65.392,0c-0.049,0.063-0.098,0.125-0.146,0.188
	c0.198,0.129,0.426,0.229,0.59,0.393c9.988,10.009,19.971,20.023,29.956,30.037c1.552,1.557,3.054,1.563,4.595,0.02
	c7.162-7.181,14.314-14.37,21.486-21.542C76.773,31.969,79.803,29.01,82.816,26.035z M17.05,74.096c22.072,0,43.868,0,65.722,0
	c-0.092-0.119-0.131-0.186-0.184-0.238c-6.648-6.67-13.303-13.336-19.938-20.021c-0.414-0.419-0.604-0.284-0.93,0.048
	c-2.035,2.064-4.088,4.112-6.134,6.164c-3.235,3.246-7.951,3.241-11.184-0.009c-1.987-1.998-3.992-3.978-5.954-5.999
	c-0.48-0.495-0.738-0.582-1.281-0.031c-4.787,4.852-9.605,9.672-14.425,14.49C20.911,70.334,19.045,72.137,17.05,74.096z
	 M13.658,29.396c0,13.71,0,27.506,0,41.4c0.7-0.706,1.32-1.335,1.944-1.962c6.083-6.102,12.163-12.209,18.262-18.295
	c0.444-0.443,0.466-0.68,0-1.11c-0.927-0.854-1.789-1.779-2.685-2.667C25.33,40.962,19.478,35.163,13.658,29.396z M86.376,29.316
	c-0.051-0.034-0.103-0.068-0.153-0.102c-0.17,0.203-0.328,0.418-0.514,0.605c-6.496,6.522-12.988,13.046-19.506,19.547
	c-0.492,0.49-0.52,0.721-0.01,1.229c6.574,6.556,13.125,13.138,19.675,19.72c0.139,0.142,0.212,0.348,0.315,0.521
	c0.063-0.061,0.129-0.115,0.189-0.174C86.376,56.879,86.376,43.098,86.376,29.316z"/>
<g>
	<path fill-rule="evenodd" clip-rule="evenodd" fill="#0F117A" d="M71.582,5.754c0.713,0.326,1.498,0.299,2.246,0.453
		C84.849,8.474,92.565,18.41,92,29.626c-0.544,10.779-8.798,19.773-19.505,21.269c-3.779,0.528-7.458,0.152-11.031-1.186
		c-0.445-0.167-0.71-0.182-1.02,0.276c-0.579,0.856-1.489,1.165-2.495,1.165c-8.022,0.005-16.045,0.012-24.068-0.002
		c-1.856-0.004-3.196-1.324-3.158-3.022c0.038-1.682,1.344-2.88,3.188-2.882c6.363-0.007,12.725-0.002,19.086-0.002
		c0.276,0,0.552,0,0.97,0c-0.732-0.807-1.396-1.506-2.025-2.235c-1.311-1.52-2.396-3.192-3.197-5.032
		c-0.226-0.52-0.516-0.669-1.073-0.666c-4.56,0.026-9.121,0.02-13.681,0.012c-1.539-0.002-2.675-0.753-3.1-2.008
		c-0.647-1.909,0.694-3.87,2.743-3.893c3.715-0.042,7.432-0.011,11.147-0.024c0.64-0.003,1.463,0.273,1.87-0.124
		c0.379-0.371-0.003-1.169-0.028-1.78c-0.076-1.751,0.047-3.49,0.39-5.206c0.098-0.488,0.039-0.624-0.483-0.623
		c-7.572,0.015-15.145,0.015-22.717,0c-0.465,0-0.601,0.155-0.544,0.578c0.018,0.139,0.002,0.282,0.002,0.422
		c0,20.24,0.004,40.48-0.015,60.719c0,0.725,0.12,0.973,0.926,0.972c14.498-0.029,28.995-0.028,43.492-0.002
		c0.76,0.002,0.9-0.196,0.897-0.916c-0.029-6.475-0.021-12.949-0.015-19.424c0.001-1.426,0.742-2.53,1.949-2.963
		c1.185-0.428,2.467-0.081,3.28,0.895c0.448,0.537,0.681,1.156,0.681,1.86c-0.003,7.038,0.015,14.075-0.018,21.112
		c-0.01,2.415-1.772,4.538-4.128,5.151c-0.149,0.039-0.351-0.039-0.427,0.178c-16.048,0-32.097,0-48.145,0
		c-0.056-0.055-0.102-0.137-0.168-0.161c-2.985-1.074-4.224-2.813-4.224-5.941c0-20.774-0.001-41.548,0-62.322
		c0-3.763,2.286-6.06,6.027-6.06c8.388-0.001,16.777-0.006,25.166,0.013c0.553,0.001,0.825-0.169,1.11-0.645
		c3.335-5.574,8.127-9.202,14.458-10.775c0.908-0.226,1.865-0.215,2.734-0.6C68.429,5.754,70.005,5.754,71.582,5.754z
		 M69.771,45.214c9.59-0.432,16.767-8.202,16.319-17.671c-0.431-9.165-8.386-16.293-17.696-15.858
		c-9.05,0.421-16.28,8.372-15.867,17.446C52.945,38.294,60.797,45.618,69.771,45.214z"/>
	<path fill-rule="evenodd" clip-rule="evenodd" fill="#0F117A" d="M45.971,64.786c-3.994,0-7.988,0.007-11.982-0.004
		c-1.714-0.005-2.821-0.829-3.178-2.316c-0.375-1.563,0.654-3.195,2.229-3.506c0.356-0.07,0.727-0.086,1.09-0.086
		c7.847-0.005,15.693-0.004,23.541-0.004c0.508,0,1.011,0.01,1.495,0.192c1.288,0.482,2.097,1.801,1.919,3.132
		c-0.184,1.365-1.253,2.411-2.629,2.556c-0.335,0.035-0.674,0.035-1.011,0.035C53.621,64.787,49.795,64.786,45.971,64.786z"/>
	<path fill-rule="evenodd" clip-rule="evenodd" fill="#0F117A" d="M45.92,78.605c-4.051,0-8.101,0.018-12.151-0.007
		c-2.154-0.013-3.559-1.969-2.874-3.926c0.43-1.227,1.548-1.974,3.033-1.979c3.291-0.01,6.582-0.003,9.872-0.003
		c4.698,0,9.395-0.011,14.093,0.005c2.281,0.007,3.743,1.934,3.037,3.95c-0.428,1.222-1.5,1.952-2.943,1.956
		C53.964,78.612,49.941,78.605,45.92,78.605z"/>
	<path fill-rule="evenodd" clip-rule="evenodd" fill="#0F117A" d="M74.463,56.465c0.048,0.721,0,1.528-0.512,2.229
		c-0.729,0.997-1.724,1.456-2.933,1.238c-1.197-0.216-2.032-0.938-2.339-2.147c-0.229-0.907-0.229-1.845-0.011-2.751
		c0.353-1.467,1.69-2.39,3.137-2.226c1.525,0.174,2.604,1.341,2.656,2.877C74.47,55.909,74.463,56.134,74.463,56.465z"/>
	<path fill-rule="evenodd" clip-rule="evenodd" fill="#0F117A" d="M72.266,21.131c0,1.547,0.05,3.097-0.021,4.641
		c-0.031,0.686,0.233,0.985,0.8,1.25c1.294,0.607,2.569,1.258,3.838,1.917c1.643,0.852,2.188,2.545,1.354,4.128
		c-0.784,1.492-2.404,1.95-4.048,1.131c-2.007-1-4.003-2.022-6.013-3.019c-1.235-0.614-1.827-1.598-1.824-2.97
		c0.005-3.911-0.005-7.821,0.003-11.732c0.003-1.875,1.24-3.192,2.966-3.188c1.733,0.002,2.936,1.305,2.944,3.2
		C72.271,18.037,72.266,19.584,72.266,21.131z"/>
</g>
</svg>
