<?xml version="1.0" encoding="utf-8"?>
<!-- Generator: Adobe Illustrator 16.0.0, SVG Export Plug-In . SVG Version: 6.00 Build 0)  -->
<!DOCTYPE svg PUBLIC "-//W3C//DTD SVG 1.1//EN" "http://www.w3.org/Graphics/SVG/1.1/DTD/svg11.dtd">
<svg version="1.1" id="Layer_1" xmlns="http://www.w3.org/2000/svg" xmlns:xlink="http://www.w3.org/1999/xlink" x="0px" y="0px"
	 width="240px" height="150px" viewBox="0 0 240 150" enable-background="new 0 0 240 150" xml:space="preserve">
<path fill-rule="evenodd" clip-rule="evenodd" fill="#3588CB" d="M216.455,91.026c-0.402,2.677-0.789,5.356-1.211,8.031
	c-1.342,8.547-2.697,17.092-4.047,25.638c-0.613,3.869-1.191,7.745-1.852,11.605c-0.506,2.949-2.684,5.078-5.613,5.56
	c-12.068,1.979-24.139,3.938-36.207,5.911c-8.822,1.442-17.645,2.895-26.467,4.34c-0.336,0.055-0.678,0.077-1.018,0.114
	c0.012-0.819,0.154-1.621,0.326-2.417c0.121-0.567-0.012-0.907-0.611-1.152c-1.848-0.757-3.664-1.589-5.496-2.387
	c-6.021-2.625-12.053-5.229-18.064-7.882c-1.994-0.88-4.04-1.646-5.964-2.681c-0.338-1.112-0.03-1.625,1.128-1.815
	c6.817-1.118,13.633-2.231,20.452-3.343c3.707-0.604,7.414-1.212,11.125-1.791c0.58-0.091,0.838-0.33,0.916-0.917
	c0.213-1.641,0.48-3.274,0.727-4.91c0.217-1.314,0.447-2.628,0.652-3.945c0.504-3.231,0.998-6.466,1.496-9.698
	c0.268-1.635,0.551-3.268,0.801-4.905c0.361-2.368,0.604-4.772,2.244-6.712c1.359-1.479,2.996-2.475,4.996-2.805
	c4.283-0.706,8.57-1.394,12.854-2.101c3.063-0.505,6.119-1.029,9.18-1.545c0.262-0.025,0.525-0.036,0.783-0.078
	c7.336-1.197,14.674-2.395,22.01-3.602c3.029-0.498,6.057-1.02,9.084-1.53c0.986-0.148,1.973-0.285,2.955-0.449
	c2.404-0.399,4.064,0.59,4.84,2.886c0.045,0.138,0.178,0.245,0.27,0.367c0,0.632,0,1.264,0,1.896
	C216.525,90.704,216.396,90.781,216.455,91.026z M142.434,136.76c0.078-0.42-0.041-0.54-0.506-0.452
	c-1.414,0.269-2.842,0.467-4.262,0.701c-4.416,0.729-8.832,1.463-13.248,2.186c-0.342,0.057-0.779,0.039-0.832,0.441
	c-0.061,0.459,0.418,0.537,0.744,0.68c2.334,1.021,4.668,2.039,7.004,3.058c2.865,1.25,5.727,2.504,8.596,3.745
	c0.695,0.302,0.85,0.188,0.957-0.588c0.074-0.544,0.158-1.087,0.244-1.63C141.564,142.187,141.998,139.474,142.434,136.76z
	 M186.115,119.407c0.012-1.966-1.52-3.542-3.459-3.558s-3.533,1.544-3.553,3.476c-0.02,1.925,1.553,3.546,3.471,3.577
	C184.477,122.934,186.102,121.328,186.115,119.407z M140.08,135.76c0.594-0.102,1.209-0.275,1.83-0.293
	c0.621-0.019,0.797-0.32,0.873-0.854c0.178-1.241,0.369-2.481,0.598-3.715c0.115-0.622-0.146-0.753-0.678-0.66
	c-0.875,0.153-1.75,0.309-2.627,0.454c-2.424,0.401-4.85,0.792-7.271,1.206c-0.254,0.044-0.668-0.03-0.695,0.364
	c-0.025,0.349,0.33,0.406,0.596,0.522c1.516,0.66,3.014,1.358,4.539,1.997C138.156,135.163,139.023,135.693,140.08,135.76z"/>
<path fill-rule="evenodd" clip-rule="evenodd" fill="#FEFEFE" d="M216.742,88.813c-0.092-0.122-0.225-0.229-0.27-0.367
	c-0.775-2.296-2.436-3.285-4.84-2.886c-0.982,0.164-1.969,0.301-2.955,0.449c0.016-3.318,0.027-6.637,0.045-9.955
	c0-0.396-0.02-0.782-0.133-1.17c-1.352-4.655-4.316-7.771-8.947-9.193c-6.236-1.914-12.5-3.737-18.746-5.617
	c-0.504-0.151-0.664-0.078-0.73,0.462c-0.426,3.527-0.91,7.047-1.33,10.575c-0.793,6.691-1.459,13.396-2.035,20.109
	c-3.061,0.516-6.117,1.04-9.18,1.545c-4.283,0.707-8.57,1.395-12.854,2.101c-2,0.33-3.637,1.325-4.996,2.805
	c-0.068-2.765,0.049-5.527,0.115-8.291c0.105-4.396,0.324-8.786,0.584-13.175c0.26-4.389,0.635-8.768,0.996-13.149
	c0.305-0.156,0.629-0.282,0.908-0.474c0.543-0.373,0.736-0.329,0.875,0.396c0.949,4.942,1.971,9.871,2.926,14.812
	c0.137,0.713,0.275,0.519,0.678,0.207c5.209-4.041,10.428-8.068,15.648-12.094c2.33-1.796,4.67-3.579,6.998-5.376
	c0.707-0.545,0.707-0.61-0.037-1.036c-2.473-1.416-4.824-3-6.801-5.071c-0.881-0.923-1.764-1.871-2.215-3.112
	c1.033-0.977,2.059-1.962,3.102-2.928c5.412-5.02,8.467-11.213,9.01-18.564c0.834-11.28-5.385-21.9-15.557-26.811
	c-3.119-1.506-6.416-2.328-9.842-2.702c0-0.048,0-0.096,0.004-0.144c19.623,0,39.246,0.003,58.867-0.015
	c0.594,0,0.727,0.134,0.727,0.726C216.74,30.184,216.742,59.499,216.742,88.813z"/>
<path fill-rule="evenodd" clip-rule="evenodd" fill="#E7D8B7" d="M157.164,0.158c-0.004,0.048-0.004,0.096-0.004,0.144
	c-1.471,0-2.943,0-4.416,0c0.002-0.048,0-0.096-0.004-0.144C154.215,0.158,155.689,0.158,157.164,0.158z"/>
<path fill-rule="evenodd" clip-rule="evenodd" fill="#FDFEFE" d="M216.455,91.026c-0.059-0.245,0.07-0.322,0.287-0.316
	c0,0.105,0,0.21,0,0.315C216.646,91.025,216.551,91.025,216.455,91.026z"/>
<path fill-rule="evenodd" clip-rule="evenodd" fill="#FEBDAB" d="M108.986,71.251c-0.976,2.491-2.468,4.676-4.044,6.809
	c-0.826,1.119-1.735,2.173-2.716,3.157c-0.375,0.377-0.306,0.541,0.096,0.815c1.298,0.888,2.571,1.813,3.854,2.725
	c-0.215,1.654-0.721,3.231-1.329,4.773c-1.105,2.802-2.614,5.346-4.975,7.284c-3.209,2.635-6.895,3.13-10.856,2.338
	c-2.182-0.436-4.174-1.16-5.688-2.936c-1.874-2.197-2.585-4.716-2.33-7.54c0.054-0.598-0.093-0.894-0.694-1.078
	c-1.342-0.412-2.547-1.119-3.7-1.914c-0.257-0.177-0.495-0.399-0.83-0.43c-0.12-0.527-0.645-0.663-0.979-0.974
	c-3.274-3.037-5.441-6.786-7.028-10.901c-1.451-3.762-2.306-7.667-2.76-11.674c-0.351-3.093-0.341-6.184-0.232-9.283
	c0.47,0.092,0.64-0.308,0.86-0.569c0.937-1.106,1.708-2.333,2.502-3.543c0.19-0.29,0.379-0.579,0.681-1.039
	c0,0.471-0.005,0.704,0.001,0.937c0.031,1.081,0.676,1.471,1.619,0.978c0.47-0.246,0.88-0.577,1.264-0.938
	c0.607-0.569,1.206-1.148,1.819-1.734c0.15,0.315-0.047,0.607-0.052,0.907c-0.017,1,0.553,1.416,1.45,1.019
	c0.406-0.18,0.802-0.403,1.164-0.66c0.87-0.617,1.718-1.267,2.63-1.944c0.016,0.316,0.015,0.569,0.042,0.819
	c0.108,0.998,0.581,1.276,1.515,0.895c6.258-2.558,12.654-4.747,18.994-7.084c0.405-0.149,0.593-0.086,0.786,0.301
	c2.456,4.926,4.702,9.935,6.12,15.275c0.096,0.358,0.189,0.717,0.322,1.221c0.789-1.738,1.786-3.111,3.238-4.097
	c1.125-0.764,2.345-1.173,3.729-0.803c0.977,0.261,1.567,1.01,2.212,1.695c0.437,1.367,0.835,2.708,0.641,4.207
	c-0.237,1.821-0.96,3.412-1.844,4.968c-0.045,0.048-0.091,0.096-0.137,0.144l0.016-0.014c-1.206,1.384-2.521,2.598-4.455,2.839
	c-0.389,0.048-0.305,0.373-0.337,0.61C109.359,68.292,109.175,69.772,108.986,71.251z M87.117,79.999
	c1.854-0.105,3.65-0.568,5.264-1.579c2-1.252,2.958-3.144,3.121-5.458c0.055-0.789-0.198-0.97-0.964-0.808
	c-4.593,0.971-9.184,1.947-13.781,2.897c-0.532,0.11-0.609,0.291-0.351,0.729C81.906,78.329,84.019,79.899,87.117,79.999z
	 M78.724,67.45c-0.045-0.836-0.278-1.685-0.952-2.357c-1.007-1.003-2.397-0.867-3.167,0.327c-0.51,0.791-0.625,1.658-0.419,2.577
	c0.316,1.417,1.404,2.409,2.521,2.284C77.839,70.152,78.704,68.974,78.724,67.45z M92.49,62.226c0,1.049,0.295,1.874,0.828,2.462
	c1.041,1.151,2.585,0.997,3.346-0.357c0.596-1.061,0.573-2.159,0.061-3.245c-0.482-1.021-1.396-1.6-2.285-1.483
	c-0.89,0.117-1.649,0.914-1.875,1.989C92.51,61.847,92.502,62.111,92.49,62.226z M93.7,52.913c-1.144-0.03-2.101,0.385-2.887,1.208
	c-0.275,0.288-0.304,0.605-0.055,0.92c0.236,0.299,0.477,0.233,0.729-0.008c1.397-1.333,2.938-1.139,4.526-0.416
	c0.294,0.134,0.631,0.451,0.877-0.007c0.231-0.431-0.009-0.75-0.405-0.958C95.614,53.192,94.697,52.901,93.7,52.913z M86.844,66.329
	c-1.172-0.021-2.505,1.568-2.276,2.619c0.062,0.286,0.252,0.465,0.534,0.508c0.294,0.045,0.511-0.114,0.624-0.374
	c0.114-0.263,0.171-0.55,0.287-0.813c0.332-0.759,0.725-0.878,1.41-0.438c0.153,0.099,0.287,0.227,0.432,0.338
	c0.316,0.243,0.63,0.26,0.9-0.057c0.246-0.289,0.189-0.591-0.063-0.844C88.159,66.735,87.54,66.367,86.844,66.329z M73.357,57.227
	c-0.454-0.023-0.892,0.051-1.314,0.214c-0.733,0.283-1.209,0.823-1.482,1.543c-0.144,0.378,0.031,0.673,0.345,0.875
	c0.226,0.146,0.362,0.014,0.505-0.189c0.975-1.378,1.718-1.624,3.44-1.183c0.251,0.064,0.587,0.35,0.732-0.081
	c0.125-0.372-0.124-0.672-0.46-0.815C74.563,57.353,73.966,57.247,73.357,57.227z"/>
<path fill-rule="evenodd" clip-rule="evenodd" fill="#345454" d="M152.744,0.302c1.473,0,2.945,0,4.416,0
	c3.426,0.374,6.723,1.195,9.842,2.702c10.172,4.911,16.391,15.531,15.557,26.811c-0.543,7.351-3.598,13.544-9.01,18.564
	c-1.043,0.966-2.068,1.952-3.102,2.928c-0.77-0.36-1.223-1.06-1.73-1.681c-2.268-2.771-4.264-5.744-6.459-8.568
	c-0.322-0.415-0.051-0.594,0.146-0.856c2.193-2.923,2.109-7.843-0.18-10.635c-1.627-1.984-3.955-2.263-5.824-0.693
	c-0.934,0.785-1.488,1.823-1.93,2.935c-0.314-0.061-0.455-0.355-0.697-0.515c-2.387-2.189-4.969-4.126-7.633-5.962
	c-0.324-0.225-0.605-0.193-0.955-0.096c-2.201,0.615-4.408,1.203-6.611,1.81c-3.873,1.066-7.744,2.14-11.615,3.211
	c-0.84,0.051-1.678,0.152-2.518,0.003c-1.756-0.312-2.234-1.173-1.549-2.793c0.051-0.119,0.109-0.234,0.199-0.425
	c-0.568,0.093-1.07,0.192-1.576,0.252c-0.342,0.041-0.725,0.051-0.947-0.258c-0.245-0.341,0.007-0.659,0.193-0.936
	c0.498-0.742,1.023-1.466,1.527-2.204c0.141-0.204,0.402-0.35,0.334-0.739c-0.723,0.257-1.42,0.536-2.135,0.747
	c-0.538,0.158-1.198,0.521-1.625-0.003c-0.367-0.45,0.101-0.995,0.316-1.446c2.327-4.874,5.69-8.955,9.739-12.475
	c6.502-5.65,14.055-8.838,22.654-9.52C151.965,0.43,152.354,0.356,152.744,0.302z M122.869,23.15
	c-0.02-0.019-0.041-0.051-0.055-0.048c-0.035,0.008-0.066,0.031-0.102,0.048c0.018,0.017,0.037,0.051,0.051,0.048
	C122.799,23.191,122.832,23.168,122.869,23.15z"/>
<path fill-rule="evenodd" clip-rule="evenodd" fill="#FECB22" d="M75.773,85.256c0.335,0.03,0.573,0.253,0.83,0.43
	c1.153,0.795,2.358,1.502,3.7,1.914c0.601,0.185,0.749,0.48,0.694,1.078c-0.256,2.824,0.456,5.343,2.33,7.54
	c1.514,1.775,3.507,2.5,5.688,2.936c3.961,0.792,7.647,0.297,10.856-2.338c2.361-1.938,3.87-4.482,4.975-7.284
	c0.608-1.542,1.114-3.119,1.329-4.773c5.934,2.616,11.614,5.657,16,10.569c2.777,3.111,4.281,6.96,5.568,10.878
	c0.189,0.574,0.354,1.156,0.529,1.734c-0.035,0.306-0.313,0.318-0.514,0.415c-0.826,0.398-1.691,0.729-2.475,1.198
	c-1.861,1.119-3.672,2.324-5.529,3.453c-1.586,0.964-3.116,2.023-4.787,2.845c-4.758-1.013-9.54-1.161-14.353-0.432
	c-4.09,0.62-8.107,1.553-12.074,2.714c-0.383,0.112-0.741,0.181-1.146,0.016c-5.965-2.43-12.19-3.372-18.604-3.215
	c-0.499,0.012-0.999-0.005-1.498-0.009c-0.239-0.023-0.352-0.189-0.46-0.38c-0.363-0.635-0.716-1.277-1.11-1.893
	c-0.672-1.051-1.133-2.233-1.988-3.169c1.225-1.23,1.149-2.565,0.267-3.924c-1.545-2.381-3.006-4.857-5.924-5.853
	c-0.056-0.047-0.112-0.094-0.168-0.141l-0.002,0.008c-0.001-0.124-0.002-0.247-0.004-0.37c2.449-5.352,6.107-9.546,11.536-12.044
	C71.464,86.23,73.591,85.652,75.773,85.256z"/>
<path fill-rule="evenodd" clip-rule="evenodd" fill="#FEBDAB" d="M154.471,31.808c0.441-1.111,0.996-2.15,1.93-2.935
	c1.869-1.57,4.197-1.291,5.824,0.693c2.289,2.792,2.373,7.711,0.18,10.635c-0.197,0.262-0.469,0.441-0.146,0.856
	c2.195,2.824,4.191,5.798,6.459,8.568c0.508,0.622,0.961,1.321,1.73,1.681c0.451,1.242,1.334,2.19,2.215,3.113
	c1.977,2.07,4.328,3.655,6.801,5.071c0.744,0.426,0.744,0.491,0.037,1.036c-2.328,1.797-4.668,3.58-6.998,5.376
	c-5.221,4.026-10.439,8.053-15.648,12.094c-0.402,0.312-0.541,0.506-0.678-0.207c-0.955-4.941-1.977-9.869-2.926-14.812
	c-0.139-0.726-0.332-0.77-0.875-0.396c-0.279,0.192-0.604,0.318-0.908,0.474c-0.287,0.125-0.578,0.239-0.859,0.375
	c-2.148,1.042-4.305,2.063-6.623,2.687c-0.605,0.163-1.262,0.083-1.826,0.406c-0.148-0.218-0.381-0.173-0.576-0.148
	c-2.299,0.293-4.008-0.7-5.416-2.415c-1.539-1.875-2.875-3.874-3.832-6.112c0.309-0.061,0.619-0.104,0.922-0.184
	c2.744-0.729,4.564-2.377,5.189-5.217c0.074-0.344,0.166-0.732-0.279-0.856c-0.465-0.13-0.545,0.245-0.619,0.601
	c-0.537,2.575-2.162,4.052-4.684,4.608c-0.316,0.069-0.611,0.139-0.795,0.436c-0.834-0.88-1.061-2.079-1.625-3.102
	c-0.252-0.456-0.445-0.95-0.613-1.444c-0.18-0.528-0.467-0.91-1.002-1.12c-0.707-0.277-1.215-0.83-1.67-1.403
	c-0.498-0.63-0.563-1.362-0.412-2.159c0.305-1.638,1.189-3.074,1.568-4.682c0.053-0.229,0.096-0.461,0.143-0.691
	c0.695,0.907,1.51,1.679,2.541,2.201c2.73,1.38,5.416,0.893,8.066-0.237c2.502-1.067,4.201-3.56,2.941-6.792
	c-0.326-0.835-0.025-1.067,0.695-1.328c3.709-1.34,7.4-2.728,11.098-4.104C154.084,32.269,154.434,32.219,154.471,31.808z"/>
<path fill-rule="evenodd" clip-rule="evenodd" fill="#345454" d="M115.671,54.059c-0.645-0.685-1.236-1.434-2.212-1.695
	c-1.385-0.37-2.604,0.039-3.729,0.803c-1.452,0.986-2.449,2.359-3.238,4.097c-0.133-0.504-0.226-0.862-0.322-1.221
	c-1.418-5.341-3.665-10.35-6.12-15.275c-0.193-0.387-0.38-0.45-0.786-0.301c-6.34,2.338-12.735,4.527-18.994,7.084
	c-0.935,0.382-1.407,0.104-1.515-0.895c-0.027-0.25-0.027-0.503-0.042-0.819c-0.913,0.677-1.76,1.327-2.63,1.944
	c-0.362,0.257-0.758,0.48-1.164,0.66c-0.897,0.397-1.467-0.019-1.45-1.019c0.005-0.3,0.203-0.592,0.052-0.907
	c-0.613,0.585-1.212,1.165-1.819,1.734c-0.384,0.361-0.794,0.692-1.264,0.938c-0.943,0.493-1.587,0.103-1.619-0.978
	c-0.006-0.232-0.001-0.465-0.001-0.937c-0.302,0.46-0.491,0.75-0.681,1.039c-0.793,1.21-1.565,2.437-2.502,3.543
	c-0.22,0.261-0.39,0.661-0.86,0.569c-0.058-0.405-0.117-0.811-0.175-1.219c-0.071,0.017-0.102,0.015-0.116,0.029
	c-0.338,0.345-0.598,1.122-1.021,0.943c-0.548-0.231-0.228-0.978-0.19-1.502c0.124-1.707,0.513-3.373,0.869-5.284
	c-0.403,0.517-0.671,0.868-0.946,1.212c-0.51,0.637-1.009,1.285-1.678,1.77c-0.192,0.139-0.416,0.297-0.649,0.146
	c-0.247-0.162-0.142-0.431-0.077-0.65c0.067-0.225,0.158-0.45,0.28-0.649c2.375-3.876,4.17-8.062,6.443-12
	c2.667-4.621,6.5-7.631,11.441-9.376c5.16-1.823,10.459-2.56,15.917-1.952c4.465,0.497,7.973,2.763,10.999,5.947
	c5.326,5.604,8.349,12.288,9.417,19.901C115.487,51.172,115.602,52.614,115.671,54.059z"/>
<path fill-rule="evenodd" clip-rule="evenodd" fill="#BE743C" d="M142.158,66.523c0.564-0.323,1.221-0.244,1.826-0.406
	c2.318-0.624,4.475-1.644,6.623-2.687c0.281-0.137,0.572-0.251,0.859-0.375c-0.361,4.381-0.736,8.76-0.996,13.149
	c-0.26,4.389-0.479,8.779-0.584,13.175c-0.066,2.764-0.184,5.526-0.115,8.291c-1.641,1.939-1.883,4.344-2.244,6.712
	c-0.25,1.638-0.533,3.271-0.801,4.904c-0.877-0.13-1.484-0.732-2.15-1.23c-2.055-1.537-4.225-2.802-6.871-2.966
	c-0.002-9.528,0.002-19.057-0.004-28.585C137.699,72.51,139.211,69.199,142.158,66.523z"/>
<path fill-rule="evenodd" clip-rule="evenodd" fill="#FEBEAC" d="M137.705,105.09c2.646,0.164,4.816,1.429,6.871,2.966
	c0.666,0.498,1.273,1.101,2.15,1.23c-0.498,3.233-0.992,6.468-1.496,9.699c-0.205,1.317-0.436,2.631-0.652,3.945
	c-2.293,0.216-4.578,0.555-6.889,0.473c-0.91-0.033-1.824-0.145-2.725-0.29c-0.984-0.158-1.693-0.756-1.998-1.692
	c-0.189-0.582-0.469-0.503-0.852-0.313c-0.971,0.48-1.992,0.807-3.051,1.009c-1.383,0.264-2.17-0.292-2.232-1.557
	c0.139-0.352,0.303-0.696,0.311-1.085c0.027-0.025,0.057-0.051,0.084-0.075c-0.018,0.001-0.043-0.005-0.053,0.004
	c-0.018,0.018-0.025,0.044-0.035,0.066c-0.551,0.347-1.102,0.694-1.652,1.041c-1.064,0.445-2.148,0.182-3.229,0.09
	c-0.191-0.438-0.764-0.606-0.818-1.143c-0.064-0.507,0.324-0.897,0.359-1.379c0.018-0.037,0.037-0.073,0.057-0.109
	c-0.035,0.02-0.072,0.038-0.109,0.058c-1.462,0.464-2.757,1.289-4.135,1.936c-1.428,0.669-2.841,1.369-4.256,2.065
	c-1.424,0.701-2.064,0.625-3.28-0.417c-0.108-0.299-0.216-0.597-0.323-0.896c-0.091-1.156,0.45-1.929,1.421-2.507
	c1.28-0.762,2.614-1.438,3.797-2.358c1.671-0.821,3.201-1.881,4.787-2.845c1.857-1.129,3.667-2.334,5.529-3.453
	c0.783-0.47,1.648-0.8,2.475-1.198c0.201-0.097,0.479-0.109,0.514-0.415c0.912,0.046,1.641-0.496,2.445-0.782
	c1.951-0.694,3.877-1.456,5.896-1.943C136.979,105.126,137.338,105.091,137.705,105.09z"/>
<path fill-rule="evenodd" clip-rule="evenodd" fill="#FEBDAB" d="M58.08,99.707c2.917,0.995,4.378,3.472,5.924,5.853
	c0.882,1.358,0.958,2.693-0.267,3.924c-0.948,0.929-0.939,0.925-0.444,2.068c0.563,1.299,0.777,2.546-0.468,3.635
	c-0.295,0.259-0.552,0.646-0.317,1.113c-0.34,0.449-0.135,0.962-0.146,1.441c-0.03,1.335-0.634,2.017-1.94,1.86
	c-3.171-0.379-6.249-1.098-8.97-2.899c-2.672-1.771-3.536-4.312-3.147-7.377c0.276-2.18,0.526-4.364,1.161-6.484
	c0.472-1.577,1.019-3.096,2.328-4.205c0.086-0.072,0.099-0.231,0.146-0.35c0.391,0.354,0.835,0.016,1.271,0.094
	c1.6,0.284,3.119,0.86,4.701,1.194l0.002-0.008C57.968,99.613,58.024,99.66,58.08,99.707z"/>
<path fill-rule="evenodd" clip-rule="evenodd" fill="#E7D8B7" d="M121.439,119.458c0.055,0.536,0.627,0.704,0.818,1.143
	c0.025,0.479-0.391,0.587-0.682,0.775c-5.475,3.537-10.954,7.066-16.433,10.598c-3.115,2.008-6.234,4.008-9.34,6.029
	c-0.306,0.199-0.526,0.208-0.855,0.067c-3.032-1.302-6.214-2.068-9.453-2.639c-3.046-0.536-6.122-0.608-9.191-0.446
	c-2.878,0.153-5.723,0.654-8.536,1.296c-2.353,0.537-4.701,1.094-7.008,1.808c-0.408,0.126-0.777,0.098-1.204-0.07
	c-3.901-1.539-7.937-2.522-12.12-2.92c-3.154-0.3-6.311-0.097-9.465-0.138c-3.022-0.04-6.04,0.139-9.055,0.314
	c-0.594,0.035-0.919-0.048-0.89-0.78c0.05-1.257,0.005-1.235,0.875-1.276c5.096-0.24,10.195-0.363,15.297-0.324
	c3.884,0.03,7.67,0.662,11.394,1.734c1.415,0.408,2.822,0.838,4.155,1.474c0.258,0.123,0.487,0.105,0.757,0.026
	c3.121-0.92,6.272-1.707,9.47-2.327c3.808-0.738,7.646-1.126,11.511-0.863c4.631,0.314,9.132,1.319,13.441,3.083
	c0.398,0.163,0.666,0.117,1.007-0.104c5.029-3.259,10.065-6.506,15.102-9.755C114.503,123.927,117.971,121.692,121.439,119.458z"/>
<path fill-rule="evenodd" clip-rule="evenodd" fill="#FDBDAB" d="M126.959,30.256c3.871-1.071,7.742-2.145,11.615-3.211
	c2.203-0.607,4.41-1.195,6.611-1.81c0.35-0.097,0.631-0.129,0.955,0.096c2.664,1.836,5.246,3.773,7.633,5.962
	c-0.238,0.229-0.559,0.281-0.85,0.389c-3.594,1.333-7.197,2.641-10.777,4.01c-0.674,0.257-0.967,0.154-1.229-0.5
	c-0.682-1.708-1.906-2.684-3.801-2.852c-0.721-0.064-1.412-0.01-2.109,0.068c-2.625,0.294-5.086,1.034-7.199,2.7
	C127.525,33.491,127.242,31.874,126.959,30.256z M132.811,30.02c-0.916-0.017-1.695,0.303-2.344,0.947
	c-0.234,0.234-0.293,0.502-0.088,0.777c0.182,0.246,0.393,0.21,0.6,0.011c1.125-1.082,2.371-0.921,3.656-0.354
	c0.27,0.119,0.588,0.41,0.781-0.063c0.154-0.375-0.125-0.582-0.418-0.733C134.313,30.25,133.59,30.027,132.811,30.02z"/>
<path fill-rule="evenodd" clip-rule="evenodd" fill="#345454" d="M110.231,135.707c1.924,1.035,3.971,1.801,5.964,2.681
	c6.012,2.652,12.043,5.257,18.064,7.882c1.832,0.798,3.648,1.63,5.496,2.387c0.6,0.245,0.732,0.585,0.611,1.152
	c-0.172,0.796-0.314,1.598-0.326,2.417c-1.098-0.288-2.09-0.834-3.119-1.281c-7.953-3.455-15.889-6.948-23.854-10.368
	c-1.604-0.688-2.505-1.742-2.655-3.465C110.371,136.642,110.292,136.175,110.231,135.707z"/>
<path fill-rule="evenodd" clip-rule="evenodd" fill="#BE743C" d="M127.809,35.108c2.113-1.666,4.574-2.406,7.199-2.7
	c0.697-0.078,1.389-0.132,2.109-0.068c1.895,0.167,3.119,1.144,3.801,2.852c0.262,0.654,0.555,0.758,1.229,0.5
	c3.58-1.369,7.184-2.677,10.777-4.01c0.291-0.108,0.611-0.16,0.85-0.389c0.242,0.16,0.383,0.454,0.697,0.515
	c-0.037,0.411-0.387,0.461-0.672,0.567c-3.697,1.376-7.389,2.764-11.098,4.104c-0.721,0.261-1.021,0.493-0.695,1.328
	c1.26,3.232-0.439,5.725-2.941,6.792c-2.65,1.13-5.336,1.618-8.066,0.237c-1.031-0.521-1.846-1.293-2.541-2.201
	c-0.566-0.785-1.041-1.622-1.459-2.494C125.902,37.859,126.047,36.942,127.809,35.108z M128.578,41.077
	c0.938,1.668,2.205,2.981,4.129,3.413c2.574,0.579,4.961-0.012,7.131-1.461c1.107-0.741,1.574-1.842,1.566-3.183
	c-0.01-1.794-0.91-3.272-1.633-4.81c-0.514-1.096-1.457-1.625-2.65-1.706c-1.029-0.07-2.055-0.026-3.066,0.172
	c-2.211,0.436-4.361,1.021-5.975,2.76c-0.883,0.889-1.061,1.651-0.566,2.742C127.834,39.711,128.221,40.387,128.578,41.077z"/>
<path fill-rule="evenodd" clip-rule="evenodd" fill="#FE9C2C" d="M57.91,99.574c-1.582-0.334-3.101-0.91-4.701-1.194
	c-0.436-0.078-0.881,0.26-1.271-0.094c-0.73-1.246-1.46-2.492-2.19-3.738c-0.252-0.432-0.488-0.869-0.592-1.367
	c-0.195-0.932,0.102-1.725,0.837-2.198c1.104-0.712,1.792-0.732,2.679-0.074c0.431,0.319,0.733,0.744,1.001,1.203
	c1.179,2.018,2.362,4.033,3.551,6.046c0.211,0.358,0.454,0.698,0.682,1.047C57.908,99.327,57.909,99.45,57.91,99.574z"/>
<path fill-rule="evenodd" clip-rule="evenodd" fill="#FE9C2C" d="M62.507,116.3c-0.234-0.467,0.022-0.854,0.317-1.113
	c1.245-1.089,1.031-2.336,0.468-3.635c-0.496-1.144-0.504-1.14,0.444-2.068c0.854,0.936,1.316,2.118,1.988,3.169
	c0.394,0.615,0.748,1.258,1.11,1.893c0.108,0.19,0.221,0.356,0.46,0.38c-0.134,0.564,0.37,0.863,0.543,1.301
	c0.142,0.357,0.458,0.631,0.526,1.028c-1.866-0.127-3.249,0.509-3.82,2.424C63.866,118.552,63.187,117.426,62.507,116.3z"/>
<path fill-rule="evenodd" clip-rule="evenodd" fill="#E7D8B7" d="M87.306,118.923c-0.035,0.318-0.322,0.399-0.532,0.536
	c-3.06,1.994-6.121,3.987-9.189,5.971c-3.178,2.054-6.366,4.093-9.546,6.144c-1.833,1.182-3.659,2.374-5.49,3.56
	c-0.154,0.1-0.313,0.198-0.482,0.266c-0.209,0.084-0.428,0.072-0.563-0.138c-0.162-0.253,0.046-0.4,0.211-0.514
	c0.627-0.433,1.263-0.854,1.903-1.268c5.012-3.234,10.024-6.469,15.039-9.698c2.629-1.693,5.264-3.376,7.895-5.067
	c0.18-0.115,0.346-0.257,0.572-0.119C87.243,118.668,87.305,118.779,87.306,118.923z"/>
<path fill-rule="evenodd" clip-rule="evenodd" fill="#848C89" d="M81.699,129.634c4.614,0.105,8.912,0.765,13.11,2.051
	c0.288,0.088,0.697,0.15,0.559,0.596c-0.141,0.454-0.488,0.245-0.784,0.154c-4.87-1.494-9.846-2.192-14.938-1.903
	c-2.68,0.152-5.326,0.592-7.952,1.141c-0.129,0.026-0.255,0.065-0.384,0.089c-0.246,0.045-0.508,0.053-0.591-0.235
	c-0.099-0.342,0.15-0.469,0.431-0.522c1.212-0.233,2.422-0.483,3.64-0.687C77.151,129.921,79.532,129.703,81.699,129.634z"/>
<path fill-rule="evenodd" clip-rule="evenodd" fill="#848C89" d="M48.913,124.407c6.156-0.154,12.107,0.882,17.841,3.128
	c0.367,0.144,1.097,0.185,0.877,0.757c-0.242,0.628-0.773,0.091-1.139-0.051c-4.354-1.68-8.854-2.673-13.515-2.97
	c-2.502-0.16-5.001-0.042-7.501-0.009c-0.184,0.003-0.369,0.003-0.553,0.009c-0.261,0.008-0.514-0.065-0.547-0.34
	c-0.041-0.329,0.222-0.46,0.508-0.471c0.737-0.029,1.474-0.043,2.211-0.052C47.701,124.401,48.307,124.407,48.913,124.407z"/>
<path fill-rule="evenodd" clip-rule="evenodd" fill="#848C89" d="M69.625,123.41c0.918,0.241,1.793,0.602,2.662,0.976
	c0.229,0.099,0.531,0.229,0.364,0.574c-0.143,0.297-0.388,0.271-0.671,0.15c-7.168-3.061-14.699-3.601-22.364-3.199
	c-0.183,0.01-0.369,0.015-0.551-0.005c-0.2-0.021-0.354-0.144-0.372-0.348c-0.021-0.251,0.152-0.375,0.377-0.428
	c0.076-0.019,0.156-0.02,0.235-0.022c6.088-0.196,12.155-0.163,18.074,1.583c0.351,0.103,0.71,0.173,1.066,0.259
	c0.336,0.106,0.512,0.413,0.769,0.619C69.464,123.769,69.575,123.687,69.625,123.41z"/>
<path fill-rule="evenodd" clip-rule="evenodd" fill="#848C89" d="M92.533,123.104c4.072,0.122,8.19,0.374,12.216,1.429
	c0.254,0.066,0.512,0.127,0.755,0.223c0.227,0.09,0.454,0.237,0.32,0.529c-0.104,0.229-0.275,0.322-0.576,0.226
	c-2.064-0.656-4.193-0.987-6.34-1.225c-4.36-0.482-8.72-0.423-13.081-0.021c-0.812,0.075-1.622,0.175-2.433,0.257
	c-0.286,0.029-0.66,0.104-0.709-0.281c-0.056-0.432,0.337-0.448,0.655-0.488C86.371,123.368,89.416,123.185,92.533,123.104z"/>
<path fill-rule="evenodd" clip-rule="evenodd" fill="#848C89" d="M44.613,128.013c6.105-0.172,11.99,0.903,17.669,3.131
	c0.147,0.058,0.297,0.109,0.437,0.181c0.239,0.122,0.505,0.254,0.326,0.591c-0.138,0.261-0.365,0.243-0.613,0.138
	c-6.864-2.921-14.074-3.556-21.428-3.247c-0.184,0.008-0.368,0.006-0.552,0.008c-0.246,0.002-0.513-0.007-0.54-0.32
	c-0.03-0.346,0.229-0.444,0.517-0.449c0.947-0.017,1.895-0.022,2.843-0.03C43.719,128.011,44.166,128.014,44.613,128.013z"/>
<path fill-rule="evenodd" clip-rule="evenodd" fill="#848C89" d="M85.32,127.178c-2.008-0.028-4.54,0.277-7.058,0.724
	c-0.338,0.06-0.768,0.214-0.849-0.252c-0.083-0.484,0.423-0.458,0.728-0.518c7.024-1.378,13.932-0.8,20.746,1.266
	c0.281,0.085,0.723,0.141,0.595,0.573c-0.143,0.483-0.535,0.261-0.856,0.163C94.47,127.869,90.227,127.175,85.32,127.178z"/>
<path fill-rule="evenodd" clip-rule="evenodd" fill="#848C89" d="M109.752,120.716c0.107,0.299,0.215,0.597,0.323,0.896
	c-5.898-1.808-11.908-1.815-17.961-1.103c-0.86,0.102-1.719,0.221-2.578,0.336c-0.294,0.039-0.637,0.102-0.725-0.266
	c-0.095-0.398,0.247-0.45,0.543-0.495c4.326-0.651,8.667-0.986,13.042-0.674C104.894,119.588,107.349,120.005,109.752,120.716z"/>
<path fill-rule="evenodd" clip-rule="evenodd" fill="#345454" d="M108.986,71.251c0.188-1.479,0.373-2.959,0.568-4.438
	c0.032-0.237-0.052-0.562,0.337-0.61c1.934-0.242,3.249-1.455,4.455-2.839c-0.544,2.182-1.654,4.073-3.054,5.797
	C110.637,69.968,109.976,70.799,108.986,71.251z"/>
<path fill-rule="evenodd" clip-rule="evenodd" fill="#FDBDAB" d="M64.545,119.678c0.571-1.915,1.954-2.551,3.82-2.424l-0.01-0.005
	c0.046,0.056,0.093,0.11,0.14,0.166c0.288,0.875,0.36,1.788,0.479,2.693c-1.172-0.097-1.735,0.217-2.286,1.272
	C65.856,120.96,65.194,120.326,64.545,119.678z"/>
<path fill-rule="evenodd" clip-rule="evenodd" fill="#345454" d="M132.068,57.237c0.184-0.296,0.479-0.366,0.795-0.436
	c2.521-0.557,4.146-2.033,4.684-4.608c0.074-0.356,0.154-0.731,0.619-0.601c0.445,0.124,0.354,0.512,0.279,0.856
	c-0.625,2.839-2.445,4.488-5.189,5.217c-0.303,0.08-0.613,0.123-0.922,0.184C132.145,57.688,132.146,57.445,132.068,57.237z"/>
<path fill-rule="evenodd" clip-rule="evenodd" fill="#345454" d="M66.687,121.381c0.551-1.056,1.114-1.369,2.286-1.272
	c0.217,1.101,0.435,2.201,0.652,3.302c-0.05,0.276-0.161,0.358-0.411,0.159c-0.257-0.206-0.433-0.513-0.769-0.619
	C67.9,122.381,67.125,122.069,66.687,121.381z"/>
<path fill-rule="evenodd" clip-rule="evenodd" fill="#FECB22" d="M125.486,120.511c0.551-0.347,1.102-0.694,1.652-1.041l0.004,0.005
	c-0.008,0.389-0.172,0.733-0.311,1.085C126.383,120.543,125.934,120.527,125.486,120.511z"/>
<path fill-rule="evenodd" clip-rule="evenodd" fill="#345454" d="M114.331,63.377c0.046-0.048,0.092-0.096,0.137-0.144
	C114.422,63.282,114.376,63.33,114.331,63.377z"/>
<path fill-rule="evenodd" clip-rule="evenodd" fill="#FE9C2C" d="M68.494,117.415c-0.046-0.056-0.093-0.11-0.14-0.166
	C68.401,117.305,68.448,117.359,68.494,117.415z"/>
<path fill-rule="evenodd" clip-rule="evenodd" fill="#BE743C" d="M176.801,91.22c0.576-6.713,1.242-13.418,2.035-20.109
	c0.42-3.528,0.904-7.048,1.33-10.575c0.066-0.54,0.227-0.613,0.73-0.462c6.246,1.88,12.51,3.703,18.746,5.617
	c4.631,1.422,7.596,4.539,8.947,9.193c0.113,0.388,0.133,0.774,0.133,1.17c-0.018,3.318-0.029,6.637-0.045,9.955
	c-3.027,0.511-6.055,1.032-9.084,1.53c-7.336,1.207-14.674,2.404-22.01,3.602C177.326,91.184,177.063,91.194,176.801,91.22z"/>
<path fill-rule="evenodd" clip-rule="evenodd" fill="#01BFE9" d="M142.434,136.76c-0.436,2.714-0.869,5.427-1.303,8.141
	c-0.086,0.543-0.17,1.086-0.244,1.63c-0.107,0.775-0.262,0.89-0.957,0.588c-2.869-1.241-5.73-2.495-8.596-3.745
	c-2.336-1.019-4.67-2.036-7.004-3.058c-0.326-0.143-0.805-0.221-0.744-0.68c0.053-0.402,0.49-0.385,0.832-0.441
	c4.416-0.723,8.832-1.457,13.248-2.186c1.42-0.234,2.848-0.433,4.262-0.701C142.393,136.22,142.512,136.34,142.434,136.76z"/>
<path fill-rule="evenodd" clip-rule="evenodd" fill="#FDFEFE" d="M186.115,119.407c-0.014,1.921-1.639,3.526-3.541,3.495
	c-1.918-0.031-3.49-1.652-3.471-3.577c0.02-1.932,1.613-3.491,3.553-3.476S186.127,117.441,186.115,119.407z"/>
<path fill-rule="evenodd" clip-rule="evenodd" fill="#01BFE9" d="M140.08,135.76c-1.057-0.066-1.924-0.597-2.836-0.979
	c-1.525-0.639-3.023-1.337-4.539-1.997c-0.266-0.116-0.621-0.174-0.596-0.522c0.027-0.395,0.441-0.32,0.695-0.364
	c2.422-0.414,4.848-0.805,7.271-1.206c0.877-0.146,1.752-0.301,2.627-0.454c0.531-0.093,0.793,0.038,0.678,0.66
	c-0.229,1.233-0.42,2.474-0.598,3.715c-0.076,0.534-0.252,0.836-0.873,0.854C141.289,135.484,140.674,135.658,140.08,135.76z"/>
<path fill-rule="evenodd" clip-rule="evenodd" fill="#FEFEFE" d="M87.117,79.999c-3.099-0.1-5.211-1.67-6.712-4.219
	c-0.258-0.438-0.181-0.619,0.351-0.729c4.597-0.95,9.188-1.926,13.781-2.897c0.767-0.162,1.02,0.019,0.964,0.808
	c-0.162,2.314-1.12,4.206-3.121,5.458C90.767,79.431,88.971,79.894,87.117,79.999z"/>
<path fill-rule="evenodd" clip-rule="evenodd" fill="#345454" d="M78.724,67.45c-0.02,1.524-0.884,2.702-2.018,2.83
	c-1.117,0.125-2.205-0.867-2.521-2.284c-0.205-0.918-0.091-1.786,0.419-2.577c0.77-1.193,2.16-1.33,3.167-0.327
	C78.446,65.765,78.679,66.613,78.724,67.45z"/>
<path fill-rule="evenodd" clip-rule="evenodd" fill="#345454" d="M92.49,62.226c0.013-0.114,0.021-0.379,0.074-0.634
	c0.226-1.075,0.985-1.872,1.875-1.989c0.888-0.117,1.803,0.461,2.285,1.483c0.513,1.086,0.535,2.185-0.061,3.245
	c-0.76,1.354-2.305,1.508-3.346,0.357C92.785,64.099,92.49,63.274,92.49,62.226z"/>
<path fill-rule="evenodd" clip-rule="evenodd" fill="#345454" d="M93.7,52.913c0.997-0.012,1.914,0.279,2.786,0.738
	c0.396,0.208,0.637,0.527,0.405,0.958c-0.246,0.458-0.583,0.141-0.877,0.007c-1.588-0.723-3.129-0.917-4.526,0.416
	c-0.252,0.241-0.493,0.307-0.729,0.008c-0.249-0.314-0.22-0.632,0.055-0.92C91.599,53.298,92.557,52.883,93.7,52.913z"/>
<path fill-rule="evenodd" clip-rule="evenodd" fill="#345454" d="M86.844,66.329c0.696,0.038,1.315,0.406,1.847,0.939
	c0.252,0.252,0.309,0.555,0.063,0.844c-0.27,0.317-0.584,0.3-0.9,0.057c-0.145-0.111-0.279-0.239-0.432-0.338
	c-0.685-0.44-1.078-0.32-1.41,0.438c-0.115,0.262-0.172,0.55-0.287,0.813c-0.113,0.26-0.33,0.419-0.624,0.374
	c-0.281-0.042-0.472-0.222-0.534-0.508C84.339,67.897,85.672,66.309,86.844,66.329z"/>
<path fill-rule="evenodd" clip-rule="evenodd" fill="#345454" d="M73.357,57.227c0.609,0.02,1.206,0.125,1.766,0.364
	c0.337,0.143,0.585,0.443,0.46,0.815c-0.145,0.431-0.48,0.146-0.732,0.081c-1.722-0.44-2.465-0.195-3.44,1.183
	c-0.143,0.203-0.279,0.334-0.505,0.189c-0.314-0.202-0.489-0.497-0.345-0.875c0.273-0.72,0.749-1.26,1.482-1.543
	C72.465,57.278,72.903,57.204,73.357,57.227z"/>
<path fill-rule="evenodd" clip-rule="evenodd" fill="#FEFEFE" d="M122.869,23.15c-0.037,0.019-0.07,0.041-0.105,0.049
	c-0.014,0.002-0.033-0.031-0.051-0.048c0.035-0.017,0.066-0.041,0.102-0.048C122.828,23.099,122.85,23.131,122.869,23.15z"/>
<path fill-rule="evenodd" clip-rule="evenodd" fill="#FE9C2C" d="M58.08,99.707c-0.056-0.047-0.112-0.094-0.168-0.141
	C57.968,99.613,58.024,99.66,58.08,99.707z"/>
<path fill-rule="evenodd" clip-rule="evenodd" fill="#FEFEFE" d="M121.746,118.027c0.037-0.02,0.074-0.038,0.109-0.058
	c-0.02,0.036-0.039,0.072-0.057,0.109L121.746,118.027z"/>
<path fill-rule="evenodd" clip-rule="evenodd" fill="#FECB22" d="M127.139,119.47c0.01-0.022,0.018-0.049,0.035-0.066
	c0.01-0.009,0.035-0.003,0.053-0.004c-0.027,0.024-0.057,0.05-0.084,0.075L127.139,119.47z"/>
<path fill-rule="evenodd" clip-rule="evenodd" fill="#345454" d="M132.811,30.019c0.779,0.008,1.502,0.231,2.188,0.584
	c0.293,0.151,0.572,0.358,0.418,0.733c-0.193,0.473-0.512,0.183-0.781,0.063c-1.285-0.566-2.531-0.727-3.656,0.354
	c-0.207,0.199-0.418,0.235-0.6-0.011c-0.205-0.275-0.146-0.543,0.088-0.777C131.115,30.323,131.895,30.002,132.811,30.019z"/>
<path fill-rule="evenodd" clip-rule="evenodd" fill="#FDBDAB" d="M128.08,36.263c1.613-1.739,3.764-2.324,5.975-2.76
	c1.012-0.199,2.037-0.242,3.066-0.172c1.193,0.081,2.137,0.61,2.65,1.706c0.723,1.538,1.623,3.016,1.633,4.81
	c0.008,1.341-0.459,2.442-1.566,3.183c-2.17,1.449-4.557,2.04-7.131,1.461c-1.924-0.432-3.191-1.745-4.129-3.413
	c0.223-0.215,0.141-0.495,0.123-0.741C128.605,38.962,128.369,37.608,128.08,36.263z M130.258,39.329
	c0.014,0.937,0.332,1.747,1.045,2.37c1.104,0.965,2.533,0.593,3.037-0.787c0.324-0.892,0.205-1.756-0.232-2.581
	c-0.551-1.037-1.541-1.562-2.434-1.308C130.807,37.27,130.25,38.179,130.258,39.329z"/>
<path fill-rule="evenodd" clip-rule="evenodd" fill="#FDFEFE" d="M128.08,36.263c0.289,1.345,0.525,2.7,0.621,4.073
	c0.018,0.246,0.1,0.525-0.123,0.741c-0.357-0.69-0.744-1.365-1.064-2.072C127.02,37.914,127.197,37.152,128.08,36.263z"/>
<path fill-rule="evenodd" clip-rule="evenodd" fill="#345454" d="M130.258,39.329c-0.008-1.15,0.549-2.059,1.416-2.306
	c0.893-0.253,1.883,0.271,2.434,1.308c0.438,0.824,0.557,1.689,0.232,2.581c-0.504,1.38-1.934,1.751-3.037,0.787
	C130.59,41.076,130.271,40.266,130.258,39.329z"/>
</svg>
