<?xml version="1.0" encoding="utf-8"?>
<!-- Generator: Adobe Illustrator 16.0.0, SVG Export Plug-In . SVG Version: 6.00 Build 0)  -->
<!DOCTYPE svg PUBLIC "-//W3C//DTD SVG 1.1//EN" "http://www.w3.org/Graphics/SVG/1.1/DTD/svg11.dtd">
<svg version="1.1" id="Layer_1" xmlns="http://www.w3.org/2000/svg" xmlns:xlink="http://www.w3.org/1999/xlink" x="0px" y="0px"
	 width="250px" height="250px" viewBox="0 0 250 250" enable-background="new 0 0 250 250" xml:space="preserve">
<g>
	<path fill-rule="evenodd" clip-rule="evenodd" fill="#FF5979" d="M125.613,239.128c-34.537,0-69.073,0.005-103.609-0.006
		c-7.143-0.002-7.616-0.46-7.616-7.448c-0.009-69.072-0.006-138.146-0.003-207.218c0-1.151-0.048-2.309,0.051-3.452
		c0.213-2.45,1.57-3.985,4.053-3.929c2.186,0.049,3.51,1.515,3.756,3.659c0.195,1.707,0.098,3.449,0.098,5.175
		c0.003,66.387-0.007,132.773,0.052,199.16c0.001,1.965-1.206,5.083,1.05,5.708c3.016,0.837,6.543,0.653,9.657-0.007
		c1.79-0.38,0.943-3.047,0.947-4.679c0.051-19.57,0.02-39.142,0.04-58.712c0.007-6.912,0.702-7.598,7.568-7.618
		c8.442-0.025,16.891,0.198,25.324-0.08c5.275-0.174,7.145,1.924,7.102,7.105c-0.166,19.953,0.051,39.909-0.165,59.861
		c-0.043,4.094,1.563,4.699,5.033,4.588c3.911-0.127,2.933-2.808,2.94-4.885c0.054-16.116,0.029-32.234,0.029-48.351
		c0-9.21,0.143-18.423-0.058-27.628c-0.101-4.608,1.554-6.72,6.323-6.635c9.015,0.162,18.035,0.117,27.052,0.017
		c4.264-0.048,6.396,1.553,6.303,6.092c-0.165,8.056-0.061,16.116-0.037,24.175c0.009,2.717-0.454,5.255-3.763,5.356
		c-3.634,0.109-4.262-2.551-4.259-5.505c0.005-6.139-0.096-12.28,0.041-18.418c0.06-2.661-0.719-3.807-3.564-3.714
		c-5.366,0.174-10.747,0.173-16.114,0.002c-2.963-0.096-4.039,0.925-4.028,3.941c0.086,23.983,0.084,47.967,0.009,71.95
		c-0.009,2.814,1.078,3.637,3.731,3.567c5.368-0.138,10.75-0.201,16.113,0.022c3.099,0.13,3.903-1.018,3.865-3.963
		c-0.142-10.936-0.037-21.873-0.065-32.811c-0.008-3.194-0.044-6.805,4.205-6.729c3.849,0.067,3.849,3.483,3.836,6.491
		c-0.04,10.362-0.045,20.723,0.005,31.083c0.013,2.831-1.208,6.137,4.126,6.027c4.996-0.103,3.769-3.192,3.772-5.792
		c0.041-29.739,0.022-59.479,0.028-89.219c0.001-7.926,0.446-8.363,8.543-8.384c7.1-0.017,14.198-0.005,21.297-0.003
		c9.73,0.003,9.734,0.004,9.734,9.457c0.001,29.548-0.023,59.096,0.054,88.643c0.005,1.952-1.326,4.82,2.589,5.176
		c3.721,0.338,5.427-0.43,5.366-4.803c-0.249-17.84-0.166-35.687-0.048-53.529c0.022-3.351-1.553-8.551,3.801-8.688
		c6.117-0.156,4.022,5.443,4.059,8.808c0.184,17.458,0.278,34.923-0.038,52.376c-0.09,4.937,1.446,6.282,6.121,5.889
		c4.764-0.402,9.591-0.216,14.381-0.046c2.795,0.099,3.583-0.978,3.578-3.672c-0.068-34.536-0.068-69.073,0-103.609
		c0.004-2.673-0.745-3.795-3.557-3.717c-5.561,0.155-11.134,0.191-16.69-0.011c-3.216-0.117-3.803,1.329-3.758,4.14
		c0.136,8.44,0.013,16.884,0.066,25.326c0.02,2.869-0.184,5.898-3.721,5.986c-3.815,0.095-4.315-3.005-4.307-6.126
		c0.027-10.361,0.082-20.723-0.025-31.082c-0.044-4.323,1.636-6.314,6.141-6.224c8.63,0.174,17.267,0.037,25.9,0.051
		c7.448,0.013,7.918,0.456,7.921,7.774c0.014,30.124,0.006,60.247,0.006,90.37c0,1.535-0.013,3.071,0.002,4.605
		c0.051,4.984-1.663,11.131,0.639,14.646c2.571,3.926,9.159,0.969,13.967,1.46c2.817,0.288,5.121,1.122,4.935,4.291
		c-0.188,3.195-2.713,3.727-5.45,3.723c-19.57-0.024-39.141-0.013-58.712-0.011C156.695,239.128,141.154,239.128,125.613,239.128z
		 M137.445,183.885c0,9.588-0.161,19.178,0.059,28.76c0.138,6.049-2.75,14.327,1.223,17.527c3.764,3.032,11.708,0.878,17.814,1.003
		c0.382,0.008,0.771-0.042,1.148,0.005c2.783,0.349,3.638-0.933,3.632-3.633c-0.064-29.335-0.061-58.672-0.009-88.008
		c0.005-2.688-0.952-3.793-3.695-3.722c-4.982,0.131-9.997,0.353-14.947-0.061c-4.546-0.381-5.388,1.433-5.317,5.563
		C137.593,155.505,137.444,169.696,137.445,183.885z M42.096,199.307c0,9.198,0.109,18.399-0.061,27.595
		c-0.058,3.122,0.686,4.498,4.104,4.335c5.354-0.255,10.734-0.221,16.092-0.012c3.114,0.123,3.861-1.1,3.844-4.015
		c-0.107-18.589-0.09-37.179-0.013-55.768c0.01-2.62-0.67-3.826-3.526-3.742c-5.553,0.164-11.12,0.205-16.668-0.015
		c-3.146-0.125-3.871,1.135-3.826,4.025C42.187,180.908,42.096,190.108,42.096,199.307z"/>
	<path fill-rule="evenodd" clip-rule="evenodd" fill="#FF5979" d="M125.354,116.075c-26.257-0.041-47.543-21.314-47.568-47.54
		c-0.024-26.112,21.382-47.625,47.511-47.749c26.305-0.125,47.95,21.579,47.852,47.979
		C173.05,94.927,151.645,116.116,125.354,116.075z M125.273,108.06c21.869,0.064,39.663-17.381,39.858-39.077
		c0.199-21.978-17.515-40.035-39.469-40.236c-21.768-0.199-39.877,17.907-39.855,39.846
		C85.829,90.354,103.47,107.996,125.273,108.06z"/>
	<path fill-rule="evenodd" clip-rule="evenodd" fill="#FF5979" d="M142.493,90.419c-6.543-0.097-11.964-5.834-11.743-12.427
		c0.212-6.352,5.672-11.55,12.053-11.475c6.564,0.078,12.085,5.855,11.805,12.354C154.338,85.127,148.688,90.512,142.493,90.419z
		 M146.67,78.193c-0.543-2.008-1.667-3.713-4.173-3.598c-2.136,0.099-3.562,1.451-3.684,3.608c-0.142,2.481,1.398,4.016,3.742,4.11
		C144.961,82.413,146.265,80.776,146.67,78.193z"/>
	<path fill-rule="evenodd" clip-rule="evenodd" fill="#FF5979" d="M120.189,58.366c0.122,6.571-5.423,12.222-11.966,12.192
		c-6.233-0.027-11.775-5.487-11.908-11.729c-0.134-6.307,5.093-11.81,11.455-12.061C114.487,46.504,120.066,51.714,120.189,58.366z
		 M108.69,62.635c2.037-0.706,3.772-1.875,3.459-4.432c-0.302-2.467-1.946-3.676-4.425-3.37c-2.208,0.273-3.49,1.745-3.363,3.908
		C104.505,61.165,106.14,62.396,108.69,62.635z"/>
	<path fill-rule="evenodd" clip-rule="evenodd" fill="#FF5979" d="M116.994,86.097c-2.717-0.777-4.548-2.637-2.807-5.777
		c5.112-9.219,10.435-18.321,15.785-27.404c1.216-2.064,3.23-2.784,5.428-1.392c2.11,1.337,2.532,3.227,1.257,5.446
		c-5.159,8.974-10.293,17.962-15.479,26.92C120.374,85.279,119.127,86.167,116.994,86.097z"/>
</g>
</svg>
