<?xml version="1.0" encoding="utf-8"?>
<!-- Generator: Adobe Illustrator 16.0.0, SVG Export Plug-In . SVG Version: 6.00 Build 0)  -->
<!DOCTYPE svg PUBLIC "-//W3C//DTD SVG 1.1//EN" "http://www.w3.org/Graphics/SVG/1.1/DTD/svg11.dtd">
<svg version="1.1" id="Layer_1" xmlns="http://www.w3.org/2000/svg" xmlns:xlink="http://www.w3.org/1999/xlink" x="0px" y="0px"
	 width="550px" height="700px" viewBox="0 0 550 700" enable-background="new 0 0 550 700" xml:space="preserve">
<g opacity="0.15">
	<g>
		<g>
			<path fill="#FFFFFF" d="M142.829,45.104c-1.803,5.672-5.827,10.794-7,16.706c-0.122,0.611,0.532,0.96,0.999,0.581
				c2.077-1.688,2.821-4.82,3.666-7.279c1.117-3.256,3.086-6.229,3.827-9.597C144.535,44.542,143.131,44.152,142.829,45.104
				L142.829,45.104z"/>
		</g>
	</g>
	<g>
		<g>
			<path fill="#FFFFFF" d="M135.896,63.361c0.064,0,0.064-0.1,0-0.1S135.832,63.361,135.896,63.361L135.896,63.361z"/>
		</g>
	</g>
	<g>
		<g>
			<path fill="#FFFFFF" d="M135.457,64.558c-1.091,2.12-0.088,4.586,2.104,5.496c1.988,0.826,5.676,0.97,6.549-1.53
				c0.192-0.55-0.493-1.032-0.964-0.741c-1.287,0.794-2.687,1.078-4.202,0.83c-1.665-0.273-3.054-1.906-2.395-3.594
				C136.797,64.384,135.763,63.962,135.457,64.558L135.457,64.558z"/>
		</g>
	</g>
	<g>
		<g>
			<path fill="#FFFFFF" d="M146.221,66.921c2.452-5.199,4.784-10.446,7.059-15.726c1.697-3.94,4.024-7.844,3.065-12.226
				c-0.176-0.806-1.258-0.53-1.335,0.181c-1.002,9.217-6.708,18.626-10.009,27.256C144.73,67.114,145.9,67.604,146.221,66.921
				L146.221,66.921z"/>
		</g>
	</g>
	<g>
		<g>
			<path fill="#FFFFFF" d="M156.026,38.618c-0.735-1.98-2.636-2.772-4.646-2.437c-1.891,0.316-4.163,2.784-3.5,4.761
				c0.114,0.339,0.536,0.476,0.803,0.212c0.917-0.906,1.169-2.204,2.266-2.995c1.285-0.927,3.151-0.398,3.813,0.991
				C155.098,39.855,156.299,39.352,156.026,38.618L156.026,38.618z"/>
		</g>
	</g>
	<g>
		<g>
			<path fill="#FFFFFF" d="M147.153,42.606c-1.15,3.573-2.481,7.069-3.845,10.565c-1.041,2.668-2.887,5.719-2.802,8.625
				c0.012,0.404,0.523,0.656,0.82,0.34c1.789-1.901,2.334-4.762,3.215-7.174c1.443-3.953,2.719-7.961,3.81-12.025
				C148.56,42.158,147.397,41.847,147.153,42.606L147.153,42.606z"/>
		</g>
	</g>
</g>
<g opacity="0.15">
	<path fill="#FFFFFF" d="M231.337,675.325c-8.871,0.637-7.581,15.723,2.476,13.764C242.554,687.388,240.981,673.632,231.337,675.325
		"/>
	<g>
		<path fill="#434E7C" d="M231.337,674.075c-10.203,1.085-8.89,16.79,1.311,16.419c4.928-0.18,8.409-4.281,8.124-9.109
			c-0.31-5.251-4.903-7.965-9.768-7.265c-1.59,0.229-0.912,2.637,0.665,2.41c8.064-1.16,8.826,10.669,0.979,11.464
			c-6.989,0.708-8.273-10.679-1.311-11.419C232.923,676.406,232.94,673.905,231.337,674.075L231.337,674.075z"/>
	</g>
</g>
<g opacity="0.15">
	<path fill="#FFFFFF" d="M439.105,462.041c-7.097,0.509-6.064,12.577,1.98,11.011C448.079,471.689,446.82,460.686,439.105,462.041"
		/>
	<g>
		<path fill="#434E7C" d="M439.105,460.791c-8.479,0.9-7.438,13.943,1.049,13.635c4.071-0.147,6.985-3.537,6.749-7.538
			c-0.258-4.375-4.074-6.636-8.13-6.052c-1.591,0.229-0.912,2.638,0.664,2.41c6.089-0.876,6.635,8.081,0.717,8.68
			c-5.271,0.534-6.294-8.077-1.049-8.635C440.691,463.122,440.708,460.621,439.105,460.791L439.105,460.791z"/>
	</g>
</g>
<g opacity="0.15">
	<path fill="#FFFFFF" d="M133.834,281.35c-8.871,0.637-7.581,15.723,2.476,13.764C145.051,293.412,143.478,279.656,133.834,281.35"
		/>
	<g>
		<path fill="#434E7C" d="M133.834,280.1c-10.203,1.084-8.89,16.791,1.311,16.419c4.928-0.18,8.409-4.282,8.124-9.109
			c-0.31-5.251-4.903-7.965-9.768-7.265c-1.59,0.229-0.912,2.638,0.665,2.411c8.064-1.16,8.826,10.668,0.979,11.463
			c-6.989,0.708-8.273-10.679-1.311-11.419C135.42,282.431,135.437,279.929,133.834,280.1L133.834,280.1z"/>
	</g>
</g>
<g opacity="0.15">
	<path fill="#FFFFFF" d="M310.278,28.992c-7.098,0.509-6.064,12.577,1.98,11.011C319.251,38.641,317.993,27.637,310.278,28.992"/>
	<g>
		<path fill="#434E7C" d="M310.278,27.742c-8.479,0.901-7.438,13.943,1.049,13.635c4.071-0.148,6.984-3.538,6.749-7.538
			c-0.258-4.375-4.074-6.636-8.13-6.052c-1.591,0.229-0.912,2.638,0.664,2.411c6.089-0.876,6.634,8.08,0.717,8.679
			c-5.271,0.534-6.294-8.078-1.049-8.635C311.864,30.074,311.881,27.572,310.278,27.742L310.278,27.742z"/>
	</g>
</g>
<g opacity="0.15">
	<path fill="#FFFFFF" d="M544.588,200.896c-5.4,0.387-4.615,9.565,1.509,8.374C551.42,208.234,550.461,199.865,544.588,200.896"/>
	<g>
		<path fill="#434E7C" d="M544.588,199.646c-6.832,0.725-6.05,11.217,0.8,10.968c3.252-0.118,5.625-2.821,5.436-6.032
			c-0.209-3.539-3.285-5.363-6.567-4.892c-1.591,0.229-0.912,2.638,0.664,2.411c4.199-0.604,4.542,5.601,0.468,6.013
			c-3.631,0.368-4.402-5.586-0.8-5.968C546.174,201.978,546.19,199.476,544.588,199.646L544.588,199.646z"/>
	</g>
</g>
<g opacity="0.15">
	<path fill="#FFFFFF" d="M26.845,165.742c-5.401,0.387-4.616,9.565,1.508,8.374C33.677,173.081,32.718,164.711,26.845,165.742"/>
	<g>
		<path fill="#434E7C" d="M26.845,164.492c-6.832,0.725-6.051,11.217,0.799,10.968c3.251-0.118,5.625-2.82,5.436-6.031
			c-0.209-3.539-3.285-5.364-6.567-4.892c-1.59,0.229-0.912,2.638,0.665,2.411c4.198-0.604,4.541,5.6,0.467,6.012
			c-3.631,0.368-4.402-5.585-0.799-5.968C28.431,166.824,28.448,164.322,26.845,164.492L26.845,164.492z"/>
	</g>
</g>
<g opacity="0.15">
	<path fill="#FFFFFF" d="M163.694,448.339c-5.401,0.387-4.616,9.564,1.508,8.373C170.525,455.677,169.566,447.308,163.694,448.339"
		/>
	<g>
		<path fill="#434E7C" d="M163.694,447.089c-6.832,0.725-6.051,11.217,0.799,10.968c3.251-0.118,5.625-2.821,5.436-6.032
			c-0.209-3.538-3.285-5.363-6.567-4.891c-1.59,0.229-0.912,2.638,0.665,2.41c4.198-0.604,4.541,5.601,0.467,6.013
			c-3.631,0.367-4.402-5.586-0.799-5.968C165.28,449.421,165.296,446.919,163.694,447.089L163.694,447.089z"/>
	</g>
</g>
<g opacity="0.15">
	<path fill="#FFFFFF" d="M464.418,672.276c-5.401,0.387-4.616,9.565,1.509,8.374C471.249,679.615,470.29,671.246,464.418,672.276"/>
	<g>
		<path fill="#434E7C" d="M464.418,671.026c-6.832,0.725-6.051,11.217,0.8,10.969c3.251-0.118,5.625-2.821,5.435-6.032
			c-0.209-3.538-3.284-5.363-6.566-4.892c-1.591,0.229-0.912,2.637,0.664,2.41c4.198-0.603,4.541,5.602,0.468,6.014
			c-3.632,0.367-4.403-5.587-0.8-5.969C466.004,673.358,466.021,670.856,464.418,671.026L464.418,671.026z"/>
	</g>
</g>
<g opacity="0.15">
	<path fill="#FFFFFF" d="M354.759,133.439c-5.4,0.387-4.615,9.565,1.509,8.374C361.591,140.777,360.632,132.408,354.759,133.439"/>
	<g>
		<path fill="#434E7C" d="M354.759,132.189c-6.832,0.725-6.05,11.217,0.8,10.968c3.252-0.118,5.625-2.82,5.436-6.031
			c-0.209-3.539-3.285-5.364-6.567-4.892c-1.591,0.229-0.912,2.638,0.664,2.411c4.199-0.604,4.542,5.6,0.468,6.012
			c-3.631,0.368-4.402-5.585-0.8-5.968C356.345,134.521,356.361,132.019,354.759,132.189L354.759,132.189z"/>
	</g>
</g>
<g opacity="0.15">
	<path fill="#FFFFFF" d="M475.546,357.464c-5.4,0.387-4.615,9.564,1.509,8.373C482.378,364.802,481.419,356.433,475.546,357.464"/>
	<g>
		<path fill="#434E7C" d="M475.546,356.214c-6.831,0.725-6.05,11.217,0.8,10.968c3.252-0.118,5.625-2.821,5.436-6.032
			c-0.209-3.538-3.285-5.363-6.567-4.891c-1.591,0.229-0.912,2.637,0.664,2.41c4.199-0.604,4.542,5.601,0.468,6.013
			c-3.631,0.367-4.402-5.586-0.8-5.968C477.132,358.546,477.148,356.044,475.546,356.214L475.546,356.214z"/>
	</g>
</g>
<g opacity="0.15">
	<path fill="#FFFFFF" d="M127.208,31.456c-5.401,0.387-4.616,9.565,1.508,8.374C134.04,38.794,133.081,30.425,127.208,31.456"/>
	<g>
		<path fill="#434E7C" d="M127.208,30.206c-6.832,0.725-6.051,11.217,0.799,10.968c3.251-0.118,5.625-2.82,5.436-6.031
			c-0.209-3.539-3.285-5.364-6.567-4.892c-1.59,0.229-0.912,2.638,0.665,2.411c4.198-0.604,4.541,5.6,0.467,6.012
			c-3.631,0.368-4.402-5.585-0.799-5.968C128.794,32.537,128.811,30.036,127.208,30.206L127.208,30.206z"/>
	</g>
</g>
<g opacity="0.15">
	<path fill="#FFFFFF" d="M475.546,28.256c-5.4,0.387-4.615,9.565,1.509,8.374C482.378,35.595,481.419,27.226,475.546,28.256"/>
	<g>
		<path fill="#434E7C" d="M475.546,27.006c-6.832,0.725-6.05,11.217,0.8,10.968c3.252-0.118,5.625-2.82,5.436-6.031
			c-0.209-3.539-3.285-5.364-6.567-4.892c-1.591,0.229-0.912,2.638,0.664,2.411c4.199-0.604,4.542,5.6,0.468,6.012
			c-3.631,0.368-4.402-5.585-0.8-5.968C477.132,29.338,477.148,26.836,475.546,27.006L475.546,27.006z"/>
	</g>
</g>
<g opacity="0.15">
	<path fill="#FFFFFF" d="M321.113,387.647c-5.401,0.387-4.616,9.564,1.509,8.373C327.944,394.985,326.985,386.616,321.113,387.647"
		/>
	<g>
		<path fill="#434E7C" d="M321.113,386.397c-6.832,0.725-6.051,11.217,0.8,10.968c3.251-0.118,5.625-2.821,5.435-6.032
			c-0.209-3.538-3.284-5.363-6.566-4.891c-1.591,0.229-0.912,2.638,0.664,2.41c4.198-0.604,4.541,5.601,0.468,6.013
			c-3.632,0.367-4.403-5.586-0.8-5.968C322.699,388.729,322.716,386.228,321.113,386.397L321.113,386.397z"/>
	</g>
</g>
<g opacity="0.15">
	<path fill="#FFFFFF" d="M68.585,368.474c-5.401,0.387-4.616,9.565,1.508,8.374C75.417,375.813,74.458,367.443,68.585,368.474"/>
	<g>
		<path fill="#434E7C" d="M68.585,367.224c-6.832,0.725-6.051,11.217,0.799,10.969c3.251-0.118,5.625-2.821,5.436-6.032
			c-0.209-3.538-3.284-5.363-6.567-4.892c-1.59,0.229-0.912,2.637,0.665,2.41c4.198-0.604,4.541,5.602,0.467,6.014
			c-3.631,0.367-4.402-5.587-0.799-5.969C70.171,369.556,70.188,367.054,68.585,367.224L68.585,367.224z"/>
	</g>
</g>
<g opacity="0.15">
	<path fill="#FFFFFF" d="M496.571,228.921c-5.4,0.387-4.615,9.565,1.509,8.374C503.403,236.26,502.444,227.891,496.571,228.921"/>
	<g>
		<path fill="#434E7C" d="M496.571,227.671c-6.832,0.725-6.05,11.217,0.8,10.968c3.252-0.118,5.625-2.82,5.436-6.031
			c-0.209-3.539-3.285-5.364-6.567-4.892c-1.591,0.229-0.912,2.638,0.664,2.411c4.199-0.604,4.542,5.6,0.468,6.012
			c-3.631,0.368-4.402-5.585-0.8-5.968C498.157,230.003,498.174,227.501,496.571,227.671L496.571,227.671z"/>
	</g>
</g>
<path opacity="0.15" fill="#8C9EF7" d="M346.544,482.101c5.916-7.563,12.078-14.887,17.582-22.769
	c0.648-0.929-0.416-2.112-1.412-1.836c-8.84,2.448-17.796,4.347-26.71,6.494c-1.003,0.241-1.284,1.813-0.298,2.284
	c8.96,4.276,18.037,8.29,27.251,11.991c1.126,0.452,1.827-0.969,1.411-1.836c-4.23-8.854-9.686-17.752-16.111-25.185
	c-0.57-0.66-1.961-0.369-2.09,0.551c-1.355,9.753-1.214,19.607-1.758,29.421c-0.089,1.611,2.412,1.603,2.5,0l0,0"/>
<path opacity="0.15" fill="#8C9EF7" d="M47.099,570.892c-5.916-7.563-12.078-14.887-17.582-22.769
	c-0.648-0.929,0.416-2.112,1.412-1.836c8.84,2.448,17.796,4.347,26.71,6.494c1.003,0.241,1.284,1.813,0.298,2.284
	c-8.96,4.276-18.037,8.29-27.251,11.991c-1.126,0.452-1.827-0.969-1.411-1.836c4.23-8.854,9.686-17.752,16.111-25.186
	c0.57-0.659,1.961-0.368,2.09,0.552c1.355,9.753,1.214,19.607,1.758,29.421c0.089,1.611-2.412,1.603-2.5,0l0,0"/>
<path opacity="0.15" fill="#FF57AB" d="M121.162,167.801c4.438-5.672,9.059-11.164,13.187-17.076
	c0.486-0.695-0.313-1.584-1.059-1.377c-6.631,1.836-13.348,3.26-20.033,4.871c-0.752,0.182-0.963,1.359-0.224,1.713
	c6.72,3.207,13.528,6.218,20.438,8.994c0.844,0.338,1.37-0.727,1.059-1.377c-3.174-6.641-7.265-13.314-12.083-18.889
	c-0.428-0.496-1.471-0.277-1.567,0.412c-1.017,7.315-0.911,14.707-1.318,22.066c-0.067,1.209,1.809,1.201,1.875,0l0,0"/>
<path opacity="0.15" fill="#FF57AB" d="M533.386,695.599c-4.438-5.672-9.059-11.164-13.187-17.076
	c-0.486-0.695,0.312-1.584,1.059-1.377c6.63,1.836,13.348,3.26,20.033,4.871c0.752,0.182,0.963,1.359,0.224,1.713
	c-6.721,3.207-13.528,6.218-20.438,8.994c-0.845,0.338-1.37-0.727-1.059-1.377c3.173-6.641,7.265-13.314,12.084-18.89
	c0.427-0.495,1.471-0.276,1.566,0.413c1.018,7.315,0.91,14.707,1.318,22.066c0.066,1.209-1.809,1.201-1.875,0l0,0"/>
<path opacity="0.15" fill="#F8CC48" d="M28.714,385.425c3.328-4.254,6.794-8.374,9.89-12.807c0.365-0.523-0.234-1.188-0.794-1.033
	c-4.972,1.377-10.01,2.445-15.024,3.652c-0.564,0.137-0.723,1.021-0.168,1.285c5.041,2.406,10.147,4.664,15.329,6.745
	c0.633,0.255,1.027-0.545,0.794-1.032c-2.381-4.98-5.449-9.986-9.063-14.167c-0.32-0.371-1.103-0.207-1.175,0.31
	c-0.762,5.486-0.683,11.029-0.989,16.55c-0.05,0.906,1.356,0.901,1.406,0l0,0"/>
<path opacity="0.15" fill="#F8CC48" d="M410.845,141.792c-3.328-4.254-6.794-8.373-9.89-12.807
	c-0.364-0.521,0.233-1.188,0.794-1.033c4.973,1.377,10.01,2.445,15.024,3.654c0.564,0.136,0.723,1.02,0.168,1.284
	c-5.04,2.405-10.146,4.663-15.329,6.745c-0.633,0.254-1.027-0.545-0.794-1.032c2.38-4.98,5.449-9.985,9.063-14.167
	c0.32-0.371,1.104-0.207,1.175,0.311c0.763,5.487,0.683,11.03,0.989,16.549c0.05,0.906-1.357,0.9-1.406,0l0,0"/>
<g opacity="0.15">
	<path fill-rule="evenodd" clip-rule="evenodd" fill="#F8CC48" d="M525.784,306.603l15.193,45.095l-18.02,0.134
		c1.791,8.051,4.637,23.717,5.299,29.017c-9.01-13.913-15.193-26.142-22.26-40.677c9.543-0.231,20.494,0,20.494,0
		S525.784,311.24,525.784,306.603"/>
</g>
<g opacity="0.15">
	<path fill-rule="evenodd" clip-rule="evenodd" fill="#F8CC48" d="M121.302,520.641l-15.194,45.094l18.021,0.133
		c-1.792,8.052-4.638,23.717-5.301,29.017c9.011-13.913,15.193-26.141,22.261-40.677c-9.544-0.232-20.493,0-20.493,0
		S121.302,525.277,121.302,520.641"/>
</g>
<g opacity="0.15">
	<path fill-rule="evenodd" clip-rule="evenodd" fill="#FF57AB" d="M500.345,161.736c-15.391-13.329-16.813-31.106-10.815-35.698
		c8.888-6.804,16.237,3.382,15.063,11.642c3.026-10.182,15.327-13.897,18.079-3.957
		C525.692,144.634,512.809,155.766,500.345,161.736"/>
</g>
<g opacity="0.15">
	<path fill-rule="evenodd" clip-rule="evenodd" fill="#FF57AB" d="M389.253,689.502c-19.823-4.645-29.348-19.722-26.173-26.576
		c4.706-10.155,15.948-4.555,18.748,3.304c-2.055-10.421,7.108-19.43,14.168-11.908
		C403.742,662.576,397.512,678.422,389.253,689.502"/>
</g>
<g opacity="0.15">
	<g>
		<path fill="#434E7C" d="M54.473,170.46c0.517-9.383,0.343-18.83,1.634-28.155c-0.697,0.184-1.393,0.368-2.089,0.551
			c6.141,7.104,11.347,15.699,15.392,24.164c0.47-0.612,0.941-1.224,1.412-1.836c-8.825-3.544-17.515-7.397-26.098-11.493
			c-0.1,0.762-0.199,1.523-0.298,2.285c8.729-2.103,17.5-3.963,26.158-6.36c-0.471-0.612-0.941-1.225-1.412-1.836
			c-5.271,7.543-11.167,14.558-16.832,21.797c-0.981,1.254,0.775,3.037,1.768,1.768c5.797-7.409,11.83-14.584,17.223-22.303
			c0.649-0.929-0.416-2.112-1.412-1.836c-8.657,2.398-17.428,4.258-26.158,6.36c-1.003,0.242-1.285,1.814-0.298,2.285
			c8.777,4.188,17.669,8.12,26.694,11.745c1.125,0.452,1.827-0.969,1.412-1.836c-4.145-8.672-9.489-17.389-15.783-24.669
			c-0.57-0.659-1.962-0.369-2.089,0.551c-1.322,9.555-1.193,19.206-1.723,28.82C51.884,172.072,54.384,172.063,54.473,170.46
			L54.473,170.46z"/>
	</g>
</g>
<g opacity="0.15">
	<g>
		<path fill="#434E7C" d="M11.343,623.67c2.546-6.287,4.654-12.763,7.712-18.831c-0.761-0.1-1.523-0.199-2.285-0.299
			c2.52,6.292,4.114,13.336,4.906,20.062c0.711-0.295,1.422-0.589,2.134-0.884c-5.274-4.555-10.386-9.284-15.363-14.161
			c-0.294,0.711-0.589,1.423-0.884,2.134c6.477,0.61,12.925,1.392,19.421,1.783c-0.21-0.776-0.42-1.553-0.631-2.329
			c-5.448,3.975-11.198,7.442-16.847,11.114c-1.346,0.875-0.094,3.04,1.262,2.158c5.649-3.672,11.399-7.139,16.847-11.114
			c1-0.729,0.668-2.251-0.631-2.329c-6.496-0.392-12.945-1.173-19.421-1.783c-1.118-0.105-1.613,1.42-0.884,2.134
			c4.978,4.877,10.089,9.606,15.363,14.161c0.725,0.626,2.273,0.304,2.134-0.884c-0.819-6.959-2.387-14.213-4.995-20.726
			c-0.364-0.909-1.746-1.368-2.285-0.299c-3.156,6.263-5.337,12.94-7.965,19.429C8.327,624.501,10.746,625.145,11.343,623.67
			L11.343,623.67z"/>
	</g>
</g>
<g opacity="0.15">
	<g>
		<path fill="#434E7C" d="M99.04,76.333c-2.586-1.846-6.649-6.486-10.25-5.646c-2.076,0.485-2.554,3.396-1.311,4.83
			c2.679,3.087,7.068,5.229,10.427,7.515c2.941,2.001,6.196,1.741,6.911-2.317c0.432-2.458-3.896-4.748-5.491-5.891
			c-3.034-2.173-6.221-4.985-9.703-6.331c-2.574-0.995-4.515,2.271-5.159,4.217c-1.059,3.2,5.542,6.218,7.453,7.55
			c1.326,0.925,2.574-1.244,1.262-2.158c-1.75-1.22-3.48-2.467-5.236-3.679c-1.662-1.148-0.334-2.626,0.405-3.408
			c0.568-0.601,2.094,0.696,2.531,0.981c3.394,2.214,6.882,4.571,10.023,7.132c0.47,0.384,0.901,0.801,1.319,1.24
			c-0.692,1.416-1.474,1.733-2.345,0.955c-0.479-0.294-0.948-0.603-1.407-0.925c-2.14-1.457-4.236-2.972-6.396-4.403
			c-0.729-0.483-1.45-0.974-2.129-1.527c-1.323-1.076-0.013-1.466,1.067-0.876c2.41,1.315,4.537,3.308,6.766,4.899
			C99.094,79.431,100.34,77.261,99.04,76.333L99.04,76.333z"/>
	</g>
</g>
<g opacity="0.15">
	<g>
		<path fill="#434E7C" d="M32.141,319.023c-3.644,5.698-7.542,11.218-11.301,16.838c-2.338,3.496-4.952,7.297-5.72,11.516
			c-0.797,4.379,3.778,8.988,8.263,7.9c6.368-1.546,10.215-11.203,13.164-16.144c3.106-5.205,6.317-10.335,9.637-15.405
			c2.669-4.077,5.839-8.523,6.836-13.382c1.303-6.352-9.158-11.51-13.829-7.896c-6.279,4.857-10.61,13.599-14.727,20.193
			c-5.008,8.022-10.713,15.871-14.928,24.332c-2.593,5.204-1.36,8.9,3.247,12.201c4.226,3.027,9.027,5.447,13.55,1.873
			c2.895-2.289,4.673-6.416,6.606-9.459c2.656-4.181,5.362-8.329,7.994-12.524c0.86-1.37-1.304-2.624-2.158-1.262
			c-2.632,4.195-5.331,8.349-7.995,12.524c-2.538,3.978-5.354,11.424-11.164,9.791c-2.894-0.813-6.872-3.382-8.567-5.95
			c-1.695-2.567,0.782-6.31,2.012-8.51c3.824-6.84,8.354-13.317,12.467-19.991c4.096-6.645,8.208-13.492,13.35-19.392
			c0.81-0.929,1.688-1.825,2.72-2.505c3.168-2.087,9.5,3.516,8.834,6.76c-0.865,4.217-4.113,8.389-6.41,11.936
			c-5.32,8.215-10.089,16.793-15.502,24.942c-1.337,2.014-3.304,5.15-5.976,5.475c-3.69,0.449-5.47-3.347-4.678-6.351
			c1.004-3.809,3.765-7.368,5.918-10.588c3.496-5.228,7.124-10.359,10.512-15.66C35.17,318.922,33.006,317.669,32.141,319.023
			L32.141,319.023z"/>
	</g>
</g>
<g opacity="0.15">
	<g>
		<g>
			<path fill="#434E7C" d="M384.034,37.63c2.044,1.23,4.183,2.282,6.3,3.378c1.318,0.683,3.684,1.225,3.379,2.441
				c-1.041,4.16-2.092,8.32-3.254,12.447c-0.357,1.267,1.18,2.009,2.089,1.216c0.958-0.835,8.893-9.716,9.612-9.401
				c3.262,1.429,6.299,3.47,9.442,5.138c4.424,2.347,5.516,2.352,7.95-1.715c6.056-10.112,11.797-20.42,17.595-30.682
				c0.518-0.915-0.336-2.189-1.411-1.836c-17.119,5.622-34.233,11.265-51.403,16.729c-1.53,0.487-0.876,2.901,0.664,2.411
				c17.17-5.464,34.284-11.108,51.403-16.729c-0.471-0.612-0.94-1.225-1.411-1.836c-5.695,10.08-11.374,20.176-17.272,30.14
				c-0.456,0.772-0.919,1.54-1.39,2.303c-0.854,1.385-0.028,0.673-1.214,0.167c-3.424-1.462-6.619-3.53-9.88-5.314
				c-1.286-0.704-2.825-1.864-4.287-1.102c-1.369,0.714-2.539,2.441-3.569,3.536c-2.11,2.24-4.276,4.402-6.597,6.426
				c0.696,0.405,1.393,0.811,2.089,1.216c1.167-4.143,3.547-9.445,3.547-13.771c0-3.207-8.928-6-11.12-7.319
				C383.911,34.638,382.655,36.8,384.034,37.63L384.034,37.63z"/>
		</g>
	</g>
	<g>
		<g>
			<path fill="#434E7C" d="M395.498,43.997c8.403-3.25,16.267-7.697,24.645-11.012c-0.405-0.697-0.811-1.393-1.216-2.089
				c-5.689,5.072-12.038,9.283-17.877,14.167c-1.238,1.036,0.54,2.794,1.768,1.768c5.842-4.886,12.186-9.092,17.877-14.167
				c0.9-0.802-0.043-2.553-1.216-2.089c-8.378,3.315-16.245,7.764-24.645,11.012C393.347,42.161,393.992,44.579,395.498,43.997
				L395.498,43.997z"/>
		</g>
	</g>
	<g>
		<g>
			<path fill="#434E7C" d="M391.996,57.435c5.992-1.712,11.781-4.046,17.76-5.793c1.544-0.452,0.887-2.864-0.664-2.411
				c-5.979,1.748-11.769,4.081-17.76,5.793C389.784,55.466,390.443,57.879,391.996,57.435L391.996,57.435z"/>
		</g>
	</g>
</g>
<g opacity="0.15">
	<g>
		<path fill-rule="evenodd" clip-rule="evenodd" fill="#8C9EF7" d="M159.247,6.637c-2.338,10.472-6.816,27.899-8.986,39.408l0,0
			c14.755,3.294,43.257,10.219,58.225,12.561c3.209-11.649,6.137-26.365,8.424-38.847C198.33,13.768,176.383,10.463,159.247,6.637"
			/>
	</g>
	<g>
		<g>
			<g>
				<path fill="#434E7C" d="M158.583,7.923c6.865,10.432,15.09,20.013,23.297,29.398c0.389,0.445,1.028,0.427,1.515,0.195
					c11.322-5.378,22.686-10.71,33.84-16.431c1.435-0.736,0.17-2.893-1.262-2.158c-9.943,5.1-20.065,9.861-30.149,14.673
					c-1.175,0.561-2.35,1.121-3.525,1.68c1.145-0.544-4.931-7.032-5.861-8.139c-5.527-6.578-10.968-13.295-15.695-20.479
					C159.86,5.321,157.695,6.572,158.583,7.923L158.583,7.923z"/>
			</g>
		</g>
		<g>
			<g>
				<path fill="#434E7C" d="M191.866,32.595c5.512,8.687,9.827,18.08,15.541,26.643c0.89,1.333,3.056,0.083,2.158-1.262
					c-5.714-8.563-10.028-17.956-15.54-26.643C193.164,29.976,191,31.229,191.866,32.595L191.866,32.595z"/>
			</g>
		</g>
		<g>
			<g>
				<path fill="#434E7C" d="M175.064,27.473c-8.053,6.457-17.051,11.506-25.435,17.494c-1.3,0.928-0.053,3.098,1.262,2.158
					c8.559-6.112,17.718-11.291,25.94-17.884C178.09,28.231,176.309,26.475,175.064,27.473L175.064,27.473z"/>
			</g>
		</g>
	</g>
</g>
<g opacity="0.15">
	<g>
		<g>
			<path fill-rule="evenodd" clip-rule="evenodd" fill="#F8CC48" d="M33.315,59.876c-2.62-10.006-13.672-10.368-17.173-20.933
				c-4.588-13.726,2.003-23.147,15.772-25.854c13.409-2.625,24.968,4.859,24.719,19.999c-0.134,8.171-7.784,14.228-5.487,22.793"/>
		</g>
		<g>
			<g>
				<g>
					<path fill="#434E7C" d="M39.491,56.823c-2.476-6.727-5.621-13.164-9.093-19.428c-0.781-1.41-2.94-0.149-2.158,1.262
						c3.367,6.076,6.439,12.306,8.84,18.832C37.632,58.988,40.049,58.34,39.491,56.823L39.491,56.823z"/>
				</g>
			</g>
			<g>
				<g>
					<path fill="#434E7C" d="M46.365,55.342c-0.682-6.873-0.977-13.77-0.801-20.675c0.041-1.613-2.459-1.609-2.5,0
						c-0.176,6.905,0.12,13.802,0.801,20.675C44.022,56.931,46.524,56.946,46.365,55.342L46.365,55.342z"/>
				</g>
			</g>
			<g>
				<g>
					<path fill="#434E7C" d="M28.113,38.358c1.313,3.152,4.128,4.231,6.785,1.744c1.87-1.75,2.679-7.703-0.835-8.349
						c-4.528-0.832-3.301,5.248-1.668,7.377c1.896,2.472,5.478,2.49,7.652,0.389c1.722-1.663,2.159-5.043,1.051-7.137
						c-0.825-1.561-3.736-2.955-4.789-0.73c-1.026,2.169-0.001,4.87,1.647,6.449c2.806,2.688,5.912-0.426,7.436-2.804
						c0.873-1.362-1.292-2.614-2.158-1.262c-1.334,2.081-3.347,3.78-4.568,0.735c-0.882-2.199,0.402-1.801,0.506,0.191
						c0.114,2.195-1.724,4.497-4.094,3.333c-0.586-0.461-1.045-1.02-1.378-1.676c-0.636-1.047,0.034-3.643,0.348-0.703
						c0.205,1.916-2.292,4.733-3.523,1.776C29.914,36.228,27.494,36.87,28.113,38.358L28.113,38.358z"/>
				</g>
			</g>
		</g>
	</g>
	<g>
		<g>
			<path fill-rule="evenodd" clip-rule="evenodd" fill="#8C9EF7" d="M37.096,75.064c1.486,11.702,22.583,7.081,17.428-4.108"/>
		</g>
		<g>
			<g>
				<path fill-rule="evenodd" clip-rule="evenodd" fill="#FFFFFF" d="M49.744,54.682c-2.882,0.646-14.474,3.575-17.611,4.135
					c-4.063,0.726-2.992,6.912,1.971,5.422c-5.068,1.657-2.513,6.333,0.971,6.024c-4.874,1.471-2.165,6.854,1.452,6.484
					c3.934-0.401,6.828-1.511,9.407-1.918c3.562-0.563,7.891-2.28,10.105-3.02c4.222-1.412,3.851-7.294-2.272-5.922
					c5.646-0.13,4.752-7.496-0.931-5.844C58.519,58.392,55.421,52.75,49.744,54.682"/>
				<g>
					<path fill="#434E7C" d="M49.411,53.477c-3.486,0.799-6.955,1.678-10.433,2.515c-2.812,0.676-6.507,0.872-8.992,2.421
						c-1.495,0.932-2.059,3.381-1.225,4.906c1.239,2.268,3.294,2.598,5.674,2.125c-0.321-0.762-0.643-1.523-0.963-2.285
						c-5.046,2.192-3.914,8.154,1.602,8.354c-0.111-0.818-0.222-1.637-0.333-2.456c-3.439,1.434-4.544,4.306-2.166,7.384
						c2.997,3.878,11.386,0.034,15.056-0.667c3.951-0.754,10.718-2.025,12.326-6.321c1.564-4.177-3.769-5.192-6.523-4.771
						c-1.388,0.212-1.064,2.613,0.333,2.456c7.166-0.809,5.883-9.731-1.264-8.3c0.222,0.804,0.443,1.607,0.665,2.411
						C60.381,58.467,55.839,51.863,49.411,53.477c-1.563,0.393-0.899,2.804,0.665,2.411c2.406-1.119,3.215-0.135,2.427,2.95
						c-1.492,0.576-0.935,2.731,0.665,2.411c3.959,0.324,4.159,1.454,0.599,3.389c0.111,0.818,0.222,1.637,0.333,2.456
						c3.728,0.444,4.442,1.535,2.143,3.271c-0.841,0.337-1.69,0.652-2.548,0.946c-2.217,0.786-4.441,1.494-6.727,2.054
						c-1.626,0.398-3.285,0.652-4.912,1.061c-0.904,0.232-1.813,0.444-2.727,0.634c-0.934,0.146-1.868,0.293-2.802,0.439
						c-2.753-0.208-3.126-1.552-1.12-4.029c1.255-0.523,1.166-2.401-0.333-2.456c-2.294-2.04-2.408-3.271-0.34-3.695
						c1.373-0.596,0.34-2.543-0.963-2.285c-2.021-1.978-2.27-3.017-0.743-3.118c0.798-0.152,1.59-0.34,2.382-0.518
						c1.798-0.404,3.588-0.84,5.379-1.271c3.096-0.745,6.183-1.528,9.287-2.239C51.647,55.527,50.981,53.117,49.411,53.477
						L49.411,53.477z"/>
				</g>
			</g>
			<g>
				<g>
					<path fill="#434E7C" d="M33.373,65.606c7.118-0.831,13.936-2.908,20.866-4.644c1.563-0.392,0.899-2.803-0.665-2.411
						c-6.702,1.679-13.315,3.751-20.201,4.555C31.791,63.291,31.773,65.793,33.373,65.606L33.373,65.606z"/>
				</g>
			</g>
			<g>
				<g>
					<path fill="#434E7C" d="M34.602,71.461c7.038-1.54,14.159-2.683,21.043-4.856c1.531-0.484,0.877-2.897-0.665-2.411
						c-6.883,2.173-14.004,3.317-21.043,4.856C32.362,69.395,33.03,71.805,34.602,71.461L34.602,71.461z"/>
				</g>
			</g>
		</g>
	</g>
</g>
<g opacity="0.15">
	<g>
		<g>
			<path fill-rule="evenodd" clip-rule="evenodd" fill="#F8CC48" d="M519.352,28.593c-5.717,14.179-10.5,26.458-15.094,39.233
				c-0.283,0.786,9.663,5.891,10.952,3.088c0.265-0.574,12.547-33.119,14.463-38.458C529.814,32.06,524.342,30.261,519.352,28.593"
				/>
		</g>
		<g>
			<g>
				<g>
					<path fill="#434E7C" d="M521.676,29.723c-5.047,13.268-10.018,26.565-15.265,39.755c-0.597,1.5,1.822,2.144,2.41,0.665
						c5.248-13.19,10.219-26.488,15.265-39.755C524.66,28.878,522.243,28.231,521.676,29.723L521.676,29.723z"/>
				</g>
			</g>
			<g>
				<g>
					<path fill="#434E7C" d="M525.184,31.035c-5.046,13.268-10.017,26.566-15.265,39.755c-0.597,1.5,1.822,2.144,2.41,0.665
						c5.249-13.19,10.219-26.488,15.265-39.755C528.168,30.19,525.751,29.544,525.184,31.035L525.184,31.035z"/>
				</g>
			</g>
		</g>
	</g>
	<g>
		<g>
			<g>
				<path fill="#434E7C" d="M520.235,29.477c3.315-3.433,6.487-7.012,9.918-10.332c-0.711-0.294-1.423-0.589-2.134-0.884
					c0.393,4.719,0.289,9.464,0.403,14.194c0.039,1.609,2.539,1.613,2.5,0c-0.114-4.73-0.011-9.475-0.403-14.194
					c-0.088-1.063-1.306-1.686-2.134-0.884c-3.431,3.32-6.603,6.898-9.918,10.332C517.348,28.869,519.114,30.639,520.235,29.477
					L520.235,29.477z"/>
			</g>
		</g>
		<g>
			<g>
				<path fill="#434E7C" d="M524.973,22.784c1.11,1.359,2.948,2.057,4.668,1.783c0.674-0.107,1.039-0.937,0.873-1.538
					c-0.195-0.71-0.865-0.98-1.537-0.873c-0.834,0.133-1.747-0.54-2.236-1.139c-0.432-0.528-1.322-0.445-1.768,0
					C524.455,21.534,524.542,22.257,524.973,22.784L524.973,22.784z"/>
			</g>
		</g>
	</g>
</g>
<g opacity="0.15">
	<g>
		<path fill-rule="evenodd" clip-rule="evenodd" fill="#8C9EF7" d="M493.852,651.645c0.697,3.331,1.741,6.839,2.439,10.17
			c7.168-1.518,39.238-9.567,44.919-11.374c0.515-0.164-0.751-5.13-2.29-10.076C538.683,639.601,500.889,649.887,493.852,651.645"/>
	</g>
	<g>
		<g>
			<g>
				<path fill="#434E7C" d="M495.219,651.378c0.487,1.741,0.975,3.481,1.462,5.222c0.187,0.667,0.875,1.039,1.537,0.873
					c9.13-2.284,18.249-4.612,27.369-6.934c3.895-0.991,7.79-1.979,11.68-2.988c2.78-0.721,0.815-5.325,0.331-7.085
					c-0.427-1.553-2.839-0.893-2.41,0.664c0.395,1.437,0.784,2.894,0.98,4.372c-0.054-0.404,0.723-0.436-0.494-0.121
					c-0.848,0.219-1.695,0.436-2.543,0.653c-4.174,1.069-8.349,2.131-12.524,3.192c-7.683,1.953-15.363,3.912-23.053,5.836
					c0.513,0.291,1.024,0.582,1.537,0.873c-0.487-1.741-0.975-3.481-1.462-5.222C497.195,649.163,494.783,649.823,495.219,651.378
					L495.219,651.378z"/>
			</g>
		</g>
		<g>
			<g>
				<g>
					<path fill="#434E7C" d="M497.385,650.837c0.315,1.148,0.632,2.297,0.948,3.444c0.427,1.553,2.839,0.893,2.41-0.664
						c-0.315-1.148-0.632-2.297-0.948-3.444C499.368,648.62,496.956,649.28,497.385,650.837L497.385,650.837z"/>
				</g>
			</g>
			<g>
				<g>
					<path fill="#434E7C" d="M500.95,649.946c0.315,1.148,0.631,2.297,0.947,3.444c0.427,1.553,2.839,0.893,2.41-0.664
						c-0.315-1.148-0.631-2.297-0.947-3.444C502.934,647.729,500.521,648.39,500.95,649.946L500.95,649.946z"/>
				</g>
			</g>
			<g>
				<g>
					<path fill="#434E7C" d="M504.515,649.056c0.315,1.148,0.632,2.297,0.948,3.444c0.427,1.553,2.839,0.893,2.41-0.664
						c-0.315-1.148-0.632-2.297-0.948-3.444C506.498,646.839,504.086,647.499,504.515,649.056L504.515,649.056z"/>
				</g>
			</g>
			<g>
				<g>
					<path fill="#434E7C" d="M508.079,648.166c0.315,1.148,0.632,2.296,0.948,3.443c0.427,1.553,2.839,0.893,2.41-0.664
						c-0.315-1.148-0.632-2.296-0.948-3.443C510.063,645.949,507.65,646.609,508.079,648.166L508.079,648.166z"/>
				</g>
			</g>
			<g>
				<g>
					<path fill="#434E7C" d="M511.645,647.274c0.315,1.148,0.631,2.297,0.947,3.444c0.427,1.553,2.839,0.893,2.41-0.664
						c-0.315-1.148-0.631-2.297-0.947-3.444C513.628,645.058,511.216,645.718,511.645,647.274L511.645,647.274z"/>
				</g>
			</g>
			<g>
				<g>
					<path fill="#434E7C" d="M515.209,646.385c0.315,1.148,0.632,2.296,0.948,3.443c0.427,1.553,2.839,0.893,2.41-0.664
						c-0.315-1.148-0.632-2.296-0.948-3.443C517.192,644.168,514.78,644.828,515.209,646.385L515.209,646.385z"/>
				</g>
			</g>
			<g>
				<g>
					<path fill="#434E7C" d="M518.774,645.493c0.315,1.148,0.632,2.297,0.948,3.444c0.427,1.553,2.839,0.893,2.41-0.664
						c-0.315-1.148-0.632-2.297-0.948-3.444C520.758,643.276,518.346,643.937,518.774,645.493L518.774,645.493z"/>
				</g>
			</g>
			<g>
				<g>
					<path fill="#434E7C" d="M522.34,644.603c0.315,1.148,0.631,2.297,0.947,3.444c0.427,1.553,2.839,0.893,2.41-0.664
						c-0.315-1.148-0.631-2.297-0.947-3.444C524.323,642.386,521.911,643.046,522.34,644.603L522.34,644.603z"/>
				</g>
			</g>
			<g>
				<g>
					<path fill="#434E7C" d="M525.904,643.713c0.315,1.148,0.631,2.296,0.947,3.443c0.427,1.553,2.839,0.893,2.41-0.664
						c-0.315-1.148-0.631-2.296-0.947-3.443C527.888,641.496,525.476,642.156,525.904,643.713L525.904,643.713z"/>
				</g>
			</g>
			<g>
				<g>
					<path fill="#434E7C" d="M529.47,642.821c0.315,1.148,0.631,2.297,0.947,3.444c0.427,1.553,2.839,0.893,2.41-0.664
						c-0.315-1.148-0.631-2.297-0.947-3.444C531.453,640.604,529.041,641.265,529.47,642.821L529.47,642.821z"/>
				</g>
			</g>
			<g>
				<g>
					<path fill="#434E7C" d="M533.034,641.931c0.315,1.148,0.631,2.297,0.947,3.444c0.427,1.553,2.839,0.893,2.41-0.664
						c-0.315-1.148-0.631-2.297-0.947-3.444C535.018,639.714,532.605,640.374,533.034,641.931L533.034,641.931z"/>
				</g>
			</g>
		</g>
		<g>
			<g>
				<g>
					<path fill="#434E7C" d="M499.136,650.265c0.192,0.656,0.385,1.312,0.578,1.967c0.453,1.544,2.866,0.886,2.41-0.664
						c-0.192-0.656-0.385-1.312-0.578-1.967C501.093,648.057,498.68,648.715,499.136,650.265L499.136,650.265z"/>
				</g>
			</g>
			<g>
				<g>
					<path fill="#434E7C" d="M502.7,649.374c0.192,0.656,0.386,1.312,0.579,1.967c0.454,1.543,2.867,0.886,2.41-0.664
						c-0.192-0.656-0.386-1.312-0.579-1.967C504.656,647.167,502.243,647.824,502.7,649.374L502.7,649.374z"/>
				</g>
			</g>
			<g>
				<g>
					<path fill="#434E7C" d="M506.266,648.483c0.192,0.656,0.385,1.312,0.578,1.967c0.453,1.544,2.866,0.886,2.41-0.664
						c-0.192-0.656-0.385-1.312-0.578-1.967C508.223,646.275,505.81,646.934,506.266,648.483L506.266,648.483z"/>
				</g>
			</g>
			<g>
				<g>
					<path fill="#434E7C" d="M509.831,647.593c0.192,0.656,0.385,1.312,0.578,1.967c0.453,1.544,2.866,0.886,2.41-0.664
						c-0.192-0.656-0.385-1.312-0.578-1.967C511.788,645.385,509.375,646.043,509.831,647.593L509.831,647.593z"/>
				</g>
			</g>
			<g>
				<g>
					<path fill="#434E7C" d="M513.395,646.702c0.192,0.656,0.385,1.312,0.578,1.967c0.453,1.544,2.866,0.886,2.41-0.664
						c-0.192-0.656-0.385-1.312-0.578-1.967C515.352,644.494,512.938,645.152,513.395,646.702L513.395,646.702z"/>
				</g>
			</g>
			<g>
				<g>
					<path fill="#434E7C" d="M516.96,645.812c0.192,0.656,0.386,1.312,0.579,1.967c0.454,1.543,2.867,0.886,2.41-0.664
						c-0.192-0.656-0.386-1.312-0.579-1.967C518.916,643.604,516.503,644.262,516.96,645.812L516.96,645.812z"/>
				</g>
			</g>
			<g>
				<g>
					<path fill="#434E7C" d="M520.525,644.921c0.192,0.656,0.385,1.312,0.578,1.967c0.453,1.544,2.866,0.886,2.41-0.664
						c-0.192-0.656-0.385-1.312-0.578-1.967C522.482,642.713,520.069,643.371,520.525,644.921L520.525,644.921z"/>
				</g>
			</g>
			<g>
				<g>
					<path fill="#434E7C" d="M524.09,644.03c0.192,0.656,0.386,1.312,0.579,1.967c0.454,1.543,2.867,0.886,2.41-0.664
						c-0.192-0.656-0.386-1.312-0.579-1.967C526.046,641.823,523.633,642.48,524.09,644.03L524.09,644.03z"/>
				</g>
			</g>
			<g>
				<g>
					<path fill="#434E7C" d="M527.655,643.14c0.192,0.656,0.385,1.312,0.578,1.967c0.453,1.544,2.866,0.886,2.41-0.664
						c-0.192-0.656-0.385-1.312-0.578-1.967C529.612,640.932,527.199,641.59,527.655,643.14L527.655,643.14z"/>
				</g>
			</g>
			<g>
				<g>
					<path fill="#434E7C" d="M531.22,642.249c0.192,0.656,0.386,1.312,0.579,1.967c0.454,1.543,2.867,0.886,2.41-0.664
						c-0.192-0.656-0.386-1.312-0.579-1.967C533.176,640.042,530.763,640.699,531.22,642.249L531.22,642.249z"/>
				</g>
			</g>
		</g>
	</g>
</g>
<g opacity="0.15">
	<g>
		<path fill-rule="evenodd" clip-rule="evenodd" fill="#8C9EF7" d="M456.171,537.791c4.555,12.733,11.186,31.622,15.878,44.056
			c7.531-2.188,14.822-5.051,21.543-7.454c2.602-0.932,5.238-1.957,9.99-4.204C491.932,561.379,472.709,548.081,456.171,537.791"/>
	</g>
	<g>
		<path fill-rule="evenodd" clip-rule="evenodd" fill="#FFFFFF" d="M466.397,550.382c2.652,7.414,5.75,16.265,8.472,23.508
			c4.051-1.154,7.96-2.7,11.567-3.991c1.396-0.499,2.811-1.053,5.353-2.28C485.35,562.365,475.508,556.559,466.397,550.382"/>
		<g>
			<path fill="#434E7C" d="M465.192,550.714c2.802,7.844,5.556,15.706,8.472,23.508c0.233,0.627,0.841,1.082,1.537,0.873
				c5.846-1.749,11.695-3.788,17.219-6.397c0.682-0.321,0.855-1.482,0.253-1.963c-8.084-6.448-17.078-11.667-25.645-17.432
				c-1.342-0.903-2.592,1.264-1.262,2.158c8.384,5.643,17.227,10.73,25.139,17.041c0.084-0.654,0.169-1.309,0.253-1.963
				c-5.321,2.513-10.989,4.46-16.621,6.146c0.513,0.291,1.024,0.582,1.537,0.873c-2.916-7.803-5.67-15.664-8.472-23.508
				C467.064,548.543,464.648,549.192,465.192,550.714L465.192,550.714z"/>
		</g>
	</g>
	<g>
		<g>
			<g>
				<path fill="#434E7C" d="M471.454,579.779c0.997-0.195,1.925-0.591,2.875-0.937c0.64-0.232,1.065-0.841,0.873-1.537
					c-0.17-0.617-0.896-1.106-1.537-0.873c-0.951,0.345-1.878,0.741-2.875,0.937c-0.669,0.131-1.044,0.918-0.873,1.537
					C470.107,579.6,470.786,579.91,471.454,579.779L471.454,579.779z"/>
			</g>
		</g>
		<g>
			<g>
				<path fill="#434E7C" d="M470.523,577.179c0.998-0.195,1.925-0.591,2.875-0.938c0.64-0.232,1.065-0.841,0.873-1.537
					c-0.17-0.617-0.896-1.106-1.537-0.873c-0.951,0.346-1.878,0.742-2.875,0.938c-0.669,0.131-1.044,0.918-0.873,1.537
					C469.177,576.999,469.855,577.31,470.523,577.179L470.523,577.179z"/>
			</g>
		</g>
		<g>
			<g>
				<path fill="#434E7C" d="M469.593,574.576c0.997-0.195,1.925-0.591,2.875-0.937c0.64-0.232,1.065-0.841,0.873-1.537
					c-0.17-0.617-0.896-1.106-1.537-0.873c-0.951,0.345-1.878,0.741-2.875,0.937c-0.669,0.131-1.044,0.918-0.873,1.537
					C468.246,574.396,468.925,574.707,469.593,574.576L469.593,574.576z"/>
			</g>
		</g>
		<g>
			<g>
				<path fill="#434E7C" d="M468.662,571.975c0.997-0.195,1.925-0.591,2.875-0.937c0.64-0.232,1.064-0.841,0.873-1.537
					c-0.17-0.617-0.896-1.106-1.537-0.873c-0.951,0.345-1.878,0.741-2.875,0.937c-0.669,0.131-1.044,0.918-0.873,1.537
					C467.315,571.795,467.994,572.105,468.662,571.975L468.662,571.975z"/>
			</g>
		</g>
		<g>
			<g>
				<path fill="#434E7C" d="M467.731,569.374c0.997-0.196,1.925-0.592,2.875-0.938c0.64-0.232,1.065-0.841,0.873-1.537
					c-0.17-0.617-0.896-1.106-1.537-0.873c-0.951,0.345-1.878,0.741-2.875,0.938c-0.669,0.132-1.044,0.918-0.873,1.537
					C466.385,569.194,467.063,569.506,467.731,569.374L467.731,569.374z"/>
			</g>
		</g>
		<g>
			<g>
				<path fill="#434E7C" d="M466.801,566.771c0.997-0.195,1.925-0.591,2.875-0.937c0.64-0.232,1.064-0.841,0.873-1.537
					c-0.17-0.617-0.896-1.106-1.537-0.873c-0.951,0.345-1.878,0.741-2.875,0.937c-0.669,0.131-1.044,0.918-0.873,1.537
					C465.454,566.592,466.133,566.902,466.801,566.771L466.801,566.771z"/>
			</g>
		</g>
		<g>
			<g>
				<path fill="#434E7C" d="M465.87,564.17c0.997-0.195,1.925-0.591,2.875-0.937c0.64-0.232,1.065-0.841,0.873-1.537
					c-0.17-0.617-0.896-1.106-1.537-0.873c-0.951,0.345-1.878,0.741-2.875,0.937c-0.669,0.131-1.044,0.918-0.873,1.537
					C464.523,563.99,465.202,564.301,465.87,564.17L465.87,564.17z"/>
			</g>
		</g>
		<g>
			<g>
				<path fill="#434E7C" d="M464.939,561.568c0.997-0.195,1.925-0.591,2.875-0.937c0.64-0.232,1.064-0.841,0.873-1.537
					c-0.17-0.617-0.896-1.106-1.537-0.873c-0.951,0.345-1.878,0.741-2.875,0.937c-0.669,0.131-1.044,0.918-0.873,1.537
					C463.593,561.389,464.271,561.699,464.939,561.568L464.939,561.568z"/>
			</g>
		</g>
		<g>
			<g>
				<path fill="#434E7C" d="M464.009,558.967c0.997-0.195,1.925-0.591,2.875-0.937c0.64-0.232,1.065-0.841,0.873-1.537
					c-0.17-0.617-0.896-1.106-1.537-0.873c-0.951,0.345-1.878,0.741-2.875,0.937c-0.669,0.131-1.044,0.918-0.873,1.537
					C462.662,558.787,463.341,559.098,464.009,558.967L464.009,558.967z"/>
			</g>
		</g>
		<g>
			<g>
				<path fill="#434E7C" d="M463.079,556.365c0.997-0.195,1.924-0.591,2.874-0.938c0.64-0.232,1.065-0.84,0.873-1.537
					c-0.17-0.617-0.896-1.106-1.537-0.873c-0.95,0.346-1.877,0.742-2.874,0.938c-0.669,0.131-1.044,0.918-0.873,1.537
					C461.732,556.186,462.411,556.496,463.079,556.365L463.079,556.365z"/>
			</g>
		</g>
		<g>
			<g>
				<path fill="#434E7C" d="M462.147,553.764c0.997-0.195,1.925-0.591,2.875-0.937c0.64-0.232,1.065-0.841,0.873-1.537
					c-0.17-0.617-0.896-1.106-1.537-0.873c-0.951,0.345-1.878,0.741-2.875,0.937c-0.669,0.131-1.044,0.918-0.873,1.537
					C460.801,553.584,461.479,553.895,462.147,553.764L462.147,553.764z"/>
			</g>
		</g>
		<g>
			<g>
				<path fill="#434E7C" d="M461.218,551.162c0.997-0.195,1.924-0.591,2.874-0.937c0.64-0.232,1.064-0.841,0.873-1.537
					c-0.17-0.617-0.896-1.106-1.537-0.873c-0.951,0.345-1.878,0.741-2.874,0.937c-0.669,0.131-1.044,0.918-0.873,1.537
					C459.871,550.982,460.55,551.293,461.218,551.162L461.218,551.162z"/>
			</g>
		</g>
		<g>
			<g>
				<path fill="#434E7C" d="M460.286,548.561c0.997-0.195,1.925-0.591,2.875-0.937c0.64-0.232,1.065-0.841,0.873-1.537
					c-0.17-0.617-0.896-1.106-1.537-0.873c-0.951,0.345-1.878,0.741-2.875,0.937c-0.669,0.131-1.044,0.918-0.873,1.537
					C458.939,548.381,459.618,548.691,460.286,548.561L460.286,548.561z"/>
			</g>
		</g>
		<g>
			<g>
				<path fill="#434E7C" d="M459.356,545.959c0.997-0.195,1.924-0.59,2.874-0.937c0.64-0.232,1.065-0.841,0.873-1.537
					c-0.17-0.617-0.896-1.106-1.537-0.873c-0.95,0.346-1.877,0.741-2.874,0.937c-0.669,0.131-1.044,0.918-0.873,1.537
					C458.01,545.779,458.688,546.09,459.356,545.959L459.356,545.959z"/>
			</g>
		</g>
	</g>
</g>
<g opacity="0.15">
	<g>
		<path fill-rule="evenodd" clip-rule="evenodd" fill="#F8CC48" d="M496.188,267.675c-3.99-2.827,1.219-6.718,4.921-7.227
			c2.728-0.373,7.427-0.186,7.983,2.875c0.951,5.229-5.325,0.637-7.184,1.186C499.082,265.341,498.438,268.16,496.188,267.675"/>
	</g>
	<g>
		<g>
			<path fill-rule="evenodd" clip-rule="evenodd" fill="#F8CC48" d="M476.695,254.776c-23.072,5.009-14.836,37.873,6.283,33.779
				C507.182,283.865,500.223,249.013,476.695,254.776"/>
		</g>
		<g>
			<path fill-rule="evenodd" clip-rule="evenodd" fill="#FFFFFF" d="M477.575,258.627c-17.767,3.856-11.425,29.162,4.837,26.011
				C501.049,281.025,495.69,254.189,477.575,258.627"/>
			<g>
				<path fill="#434E7C" d="M477.242,257.422c-18.746,4.677-12.149,32.377,6.592,28.177c8.063-1.807,12.438-9.454,11.147-17.317
					C493.564,259.645,485.202,255.72,477.242,257.422c-1.576,0.337-0.906,2.747,0.666,2.41c15.212-3.253,20.574,17.97,6.294,23.059
					c-15.63,5.57-22.705-18.964-6.294-23.059C479.471,259.442,478.808,257.031,477.242,257.422L477.242,257.422z"/>
			</g>
		</g>
		<g>
			<g>
				<g>
					<path fill="#434E7C" d="M483.892,263.764c-2.845,5.18-6.375,9.893-9.538,14.873c-0.867,1.365,1.297,2.618,2.158,1.262
						c3.164-4.98,6.693-9.692,9.539-14.873C486.827,263.611,484.668,262.351,483.892,263.764L483.892,263.764z"/>
				</g>
			</g>
			<g>
				<g>
					<path fill="#434E7C" d="M477.954,263.11c-2.122,3.264-4.252,6.532-6.537,9.685c-0.948,1.308,1.223,2.554,2.159,1.262
						c2.285-3.152,4.415-6.421,6.537-9.685C480.994,263.017,478.83,261.765,477.954,263.11L477.954,263.11z"/>
				</g>
			</g>
			<g>
				<g>
					<path fill="#434E7C" d="M487.257,268.721c-2.169,3.629-4.92,6.854-7.197,10.412c-0.872,1.362,1.293,2.614,2.159,1.262
						c2.277-3.558,5.027-6.782,7.197-10.412C490.245,268.595,488.083,267.339,487.257,268.721L487.257,268.721z"/>
				</g>
			</g>
		</g>
	</g>
	<g>
		<g>
			<path fill-rule="evenodd" clip-rule="evenodd" fill="#F8CC48" d="M520.725,246.237c-23.073,5.009-14.836,37.873,6.283,33.779
				C551.21,275.326,544.25,240.474,520.725,246.237"/>
		</g>
		<g>
			<path fill-rule="evenodd" clip-rule="evenodd" fill="#FFFFFF" d="M521.604,250.088c-17.768,3.857-11.424,29.162,4.838,26.011
				C545.078,272.486,539.719,245.65,521.604,250.088"/>
			<g>
				<path fill="#434E7C" d="M521.271,248.883c-18.747,4.678-12.15,32.378,6.592,28.177c8.063-1.807,12.438-9.454,11.146-17.317
					C537.592,251.105,529.23,247.181,521.271,248.883c-1.576,0.337-0.908,2.747,0.664,2.41c15.213-3.253,20.576,17.97,6.296,23.059
					c-15.63,5.57-22.706-18.963-6.296-23.059C523.5,250.903,522.836,248.492,521.271,248.883L521.271,248.883z"/>
			</g>
		</g>
		<g>
			<g>
				<g>
					<path fill="#434E7C" d="M527.921,255.225c-2.846,5.18-6.375,9.893-9.538,14.873c-0.867,1.365,1.297,2.618,2.158,1.262
						c3.164-4.98,6.693-9.693,9.539-14.873C530.856,255.073,528.697,253.812,527.921,255.225L527.921,255.225z"/>
				</g>
			</g>
			<g>
				<g>
					<path fill="#434E7C" d="M521.983,254.572c-2.122,3.263-4.253,6.532-6.537,9.685c-0.948,1.308,1.222,2.554,2.158,1.262
						c2.284-3.152,4.415-6.421,6.537-9.685C525.023,254.479,522.858,253.227,521.983,254.572L521.983,254.572z"/>
				</g>
			</g>
			<g>
				<g>
					<path fill="#434E7C" d="M531.287,260.182c-2.17,3.629-4.922,6.855-7.198,10.413c-0.872,1.362,1.293,2.615,2.159,1.262
						c2.276-3.558,5.027-6.784,7.197-10.413C534.275,260.056,532.113,258.8,531.287,260.182L531.287,260.182z"/>
				</g>
			</g>
		</g>
	</g>
</g>
<g opacity="0.15">
	<g>
		<g>
			<path fill="#434E7C" d="M124.981,670.82c-2.682-0.799-16.966-6.054-18.4-2.563c-0.996,2.425-1.777,4.878-1.907,7.508
				c-0.095,1.92,3.67,5.239-0.599,6.414c-3.099,0.853-3.427,8.26-3.546,10.742c-0.026,0.556,0.402,1.058,0.917,1.205
				c5.946,1.699,12.043,2.774,18.084,4.071c0.7,0.15,1.306-0.201,1.538-0.873c0.928-2.685,1.512-5.443,1.93-8.25
				c0.222-1.495-3.226-7.039-0.683-7.378c3.447-0.46,3.094-6.88,3.537-9.339c0.284-1.576-2.125-2.249-2.411-0.664
				c-0.425,2.356-0.611,4.74-1.25,7.056c-0.263,0.952-3.292,1.381-3.843,2.997c-0.542,1.588-0.81,3.754,0.715,4.966
				c2.651,2.105,0.523,7.261-0.406,9.948c0.513-0.291,1.025-0.582,1.538-0.873c-3.562-0.765-7.134-1.472-10.696-2.235
				c-1.55-0.333-3.092-0.702-4.631-1.08c-2.633-0.647-1.708-1.716-1.189-4.105c0.277-1.275,0.68-2.555,1.225-3.741
				c0.007-0.015,1.813-0.317,1.977-0.432c1.277-0.888,2.565-2.256,2.491-3.964c-0.094-2.172-2.346-4.229-1.996-6.335
				c0.063-0.377,0.986-4.189,1.227-4.188c1.085,0.005,2.205,0.3,3.267,0.503c4.176,0.799,8.37,1.808,12.445,3.021
				C125.866,673.691,126.522,671.279,124.981,670.82L124.981,670.82z"/>
		</g>
	</g>
	<g>
		<g>
			<path fill-rule="evenodd" clip-rule="evenodd" fill="#F8CC48" d="M112.782,669.359c-1.141,5.288-2.038,9.149-2.882,13.664
				c-0.389,2.104-1.937,6.048-0.34,7.843c1.701,1.911,4.855,1.709,5.462-0.56c1.563-5.841,2.542-11.486,3.682-16.774
				c0.199-0.922,0.398-1.845,0.597-2.767"/>
		</g>
		<g>
			<path fill-rule="evenodd" clip-rule="evenodd" fill="#FFFFFF" d="M113.233,679.718c-1.705-0.328-2.099,2.133-0.552,2.466
				C114.455,682.566,114.991,680.008,113.233,679.718"/>
			<g>
				<path fill="#434E7C" d="M113.566,678.513c-1.372-0.219-2.759,0.431-3.041,1.899c-0.261,1.357,0.524,2.738,1.936,2.997
					c1.361,0.25,2.731-0.515,3.034-1.914C115.791,680.13,114.953,678.786,113.566,678.513c-0.668-0.132-1.347,0.181-1.538,0.873
					c-0.17,0.619,0.205,1.405,0.873,1.537c0.088,0.018,0.46,0.178,0.186,0.038c0.117,0.075,0.106,0.062-0.034-0.04
					c0.094,0.099,0.084,0.078-0.028-0.063c0.201,0.267-0.011-0.109,0.042,0.071c0.028,0.136,0.026,0.104-0.007-0.092
					c0.008,0.088-0.031,0.351,0.024-0.008c-0.015,0.1-0.161,0.403-0.008,0.089c-0.146,0.301,0.085-0.063-0.051,0.077
					c-0.1,0.089-0.083,0.076,0.054-0.04c-0.119,0.064-0.098,0.061,0.063-0.013c-0.058,0.021-0.117,0.037-0.176,0.049
					c0.303-0.071,0.025-0.021-0.064-0.025c0.313,0.017-0.286-0.166,0.044,0.002c-0.117-0.075-0.105-0.062,0.036,0.04
					c-0.093-0.099-0.084-0.079,0.028,0.061c-0.2-0.269,0.009,0.104-0.046-0.078c-0.029-0.137-0.028-0.107,0.003,0.086
					c-0.009-0.083-0.003-0.167,0.003-0.25c-0.032,0.443,0.142-0.229-0.033,0.151c0.139-0.302-0.086,0.057,0.046-0.081
					c0.1-0.09,0.082-0.076-0.054,0.04c0.119-0.063,0.099-0.058-0.061,0.017c0.135-0.033,0.116-0.037-0.058-0.011
					c0.057-0.008,0.368,0.023,0.091-0.021c0.672,0.107,1.342-0.162,1.538-0.873C114.604,679.449,114.24,678.62,113.566,678.513
					L113.566,678.513z"/>
			</g>
		</g>
		<g>
			<g>
				<path fill="#434E7C" d="M116.667,670.189c-1.52,7.051-3.041,14.103-4.562,21.154c-0.339,1.571,2.071,2.24,2.411,0.664
					c1.521-7.051,3.041-14.103,4.562-21.154C119.417,669.282,117.006,668.613,116.667,670.189L116.667,670.189z"/>
			</g>
		</g>
	</g>
</g>
<g opacity="0.15">
	<g>
		<path fill-rule="evenodd" clip-rule="evenodd" fill="#8C9EF7" d="M0.97,456.253c14.505,6.175,36.602,13.569,51.649,19.119
			c0,0,5.938-7.002,5.679-20.573c-0.237-29.368-48.021-40.614-57.126,0.907"/>
	</g>
	<g>
		<path fill-rule="evenodd" clip-rule="evenodd" fill="#FFFFFF" d="M14.818,452.436c8.428,3.541,21.23,7.867,29.958,11.085
			c0,0,3.284-3.625,2.897-10.857c-0.65-15.646-28.252-22.472-32.749-0.517"/>
		<g>
			<path fill="#434E7C" d="M14.486,453.641c9.838,4.078,19.963,7.42,29.958,11.085c0.385,0.142,0.951-0.01,1.216-0.321
				c7.37-8.642,2.366-21.322-6.916-25.692c-11.291-5.316-22.369,1.556-25.025,13.103c-0.361,1.569,2.049,2.235,2.411,0.664
				c1.542-6.703,5.615-12.073,12.757-12.973c5.765-0.727,11.879,2.038,15.289,6.679c2.338,3.182,2.556,7.106,2.002,10.894
				c-0.236,1.618-0.868,3.18-1.645,4.604c-0.689,1.265-1.692-0.195-3.391-0.808c-8.692-3.136-17.454-6.104-25.993-9.644
				C13.662,450.613,13.019,453.033,14.486,453.641L14.486,453.641z"/>
		</g>
	</g>
	<g>
		<g>
			<g>
				<path fill="#434E7C" d="M5.735,453.306c-0.528,1.433-1.057,2.865-1.585,4.298c-0.559,1.516,1.858,2.164,2.411,0.664
					c0.528-1.433,1.057-2.865,1.585-4.298C8.705,452.454,6.288,451.807,5.735,453.306L5.735,453.306z"/>
			</g>
		</g>
		<g>
			<g>
				<path fill="#434E7C" d="M9.708,454.771c-0.528,1.433-1.057,2.865-1.585,4.298c-0.559,1.516,1.858,2.164,2.411,0.664
					c0.528-1.433,1.057-2.865,1.585-4.298C12.678,453.92,10.261,453.272,9.708,454.771L9.708,454.771z"/>
			</g>
		</g>
		<g>
			<g>
				<path fill="#434E7C" d="M13.681,456.236c-0.528,1.433-1.057,2.865-1.585,4.299c-0.559,1.516,1.858,2.164,2.411,0.664
					c0.528-1.433,1.057-2.865,1.585-4.299C16.651,455.385,14.234,454.737,13.681,456.236L13.681,456.236z"/>
			</g>
		</g>
		<g>
			<g>
				<path fill="#434E7C" d="M17.654,457.701c-0.528,1.433-1.056,2.865-1.585,4.298c-0.56,1.516,1.857,2.163,2.411,0.664
					c0.529-1.433,1.057-2.865,1.585-4.298C20.624,456.85,18.207,456.201,17.654,457.701L17.654,457.701z"/>
			</g>
		</g>
		<g>
			<g>
				<path fill="#434E7C" d="M21.627,459.166c-0.528,1.433-1.057,2.865-1.585,4.299c-0.559,1.516,1.858,2.163,2.411,0.664
					c0.528-1.433,1.057-2.865,1.585-4.299C24.597,458.314,22.18,457.666,21.627,459.166L21.627,459.166z"/>
			</g>
		</g>
		<g>
			<g>
				<path fill="#434E7C" d="M25.6,460.632c-0.529,1.433-1.057,2.865-1.585,4.298c-0.559,1.516,1.858,2.164,2.411,0.664
					c0.528-1.433,1.056-2.865,1.585-4.298C28.571,459.78,26.154,459.133,25.6,460.632L25.6,460.632z"/>
			</g>
		</g>
		<g>
			<g>
				<path fill="#434E7C" d="M29.573,462.097c-0.528,1.433-1.056,2.865-1.585,4.298c-0.559,1.516,1.858,2.163,2.411,0.664
					c0.528-1.433,1.056-2.865,1.585-4.298C32.543,461.245,30.126,460.598,29.573,462.097L29.573,462.097z"/>
			</g>
		</g>
		<g>
			<g>
				<path fill="#434E7C" d="M33.546,463.562c-0.528,1.433-1.057,2.865-1.585,4.299c-0.559,1.516,1.858,2.164,2.411,0.664
					c0.528-1.433,1.057-2.865,1.585-4.299C36.516,462.71,34.099,462.063,33.546,463.562L33.546,463.562z"/>
			</g>
		</g>
		<g>
			<g>
				<path fill="#434E7C" d="M37.519,465.026c-0.528,1.433-1.057,2.865-1.585,4.299c-0.559,1.516,1.858,2.163,2.411,0.664
					c0.528-1.433,1.057-2.865,1.585-4.299C40.488,464.175,38.072,463.527,37.519,465.026L37.519,465.026z"/>
			</g>
		</g>
		<g>
			<g>
				<path fill="#434E7C" d="M41.492,466.492c-0.528,1.433-1.057,2.865-1.585,4.299c-0.559,1.516,1.858,2.164,2.411,0.664
					c0.528-1.433,1.057-2.865,1.585-4.299C44.461,465.641,42.044,464.992,41.492,466.492L41.492,466.492z"/>
			</g>
		</g>
		<g>
			<g>
				<path fill="#434E7C" d="M45.465,467.957c-0.528,1.433-1.057,2.865-1.585,4.299c-0.559,1.516,1.858,2.164,2.411,0.664
					c0.528-1.433,1.057-2.865,1.585-4.299C48.435,467.105,46.018,466.457,45.465,467.957L45.465,467.957z"/>
			</g>
		</g>
		<g>
			<g>
				<path fill="#434E7C" d="M49.438,469.422c-0.528,1.433-1.057,2.865-1.585,4.299c-0.559,1.516,1.858,2.163,2.411,0.664
					c0.528-1.433,1.057-2.865,1.585-4.299C52.408,468.57,49.991,467.922,49.438,469.422L49.438,469.422z"/>
			</g>
		</g>
	</g>
</g>
<g opacity="0.15">
	<g>
		<g>
			<path fill="#434E7C" d="M284.308,609.612c-3.67-1.823-7.956-2.486-11.955-3.197c-2.999-0.533-4.729-0.706-6.783,1.836
				c-1.165,1.442-2.118,2.991-3.428,4.323c-3.416,3.473-6.914,0.23-7.383-3.318c-0.662-4.997,1.349-10.491,2.942-15.145
				c1.132-3.306,2.243-7.667,4.467-10.432c3.74-4.649,7.861-1.073,8.815,3.504c0.942,4.518-0.803,6.597,3.759,8.804
				c3.91,1.892,8.463,2.752,12.707,3.54c0.574,0.106,1.092-0.067,1.412-0.574c2.384-3.758,5.186-7.349,8.572-10.25
				c7.602-6.513,5.04,8.146,4.324,11.529c-1.453,6.866-3.862,13.682-7.107,19.902c-1.249,2.395-5.943,9.907-7.798,4.282
				c-1.422-4.313-1.447-9.237-1.926-13.726c-0.169-1.586-2.671-1.603-2.5,0c0.401,3.762-0.071,20.469,7.274,18.529
				c7.065-1.866,10.693-15.385,12.566-21.234c1.91-5.962,5.274-15.817,2.021-21.881c-3.221-6.002-11.58,3.587-13.51,5.943
				c-0.982,1.201-1.898,2.46-2.793,3.728c-0.322,0.457-0.633,0.923-0.943,1.39c-0.659,0.992,0.04-0.24,0.504-0.154
				c-4.385-0.814-9.197-1.752-13.091-3.999c-1.149-0.663-0.981-6.107-1.288-7.578c-0.276-1.324-0.891-2.78-1.732-3.846
				c-1.479-1.87-3.72-3.023-6.15-2.519c-5.891,1.223-7.444,7.502-9.281,12.395c-2.342,6.238-6.111,15.754-2.394,22.148
				c2.786,4.793,8.754,2.654,11.575-0.666c2.253-2.652,2.696-4.756,6.503-4.121c3.743,0.624,7.932,1.242,11.358,2.944
				C284.484,612.485,285.752,610.329,284.308,609.612L284.308,609.612z"/>
		</g>
	</g>
	<g>
		<g>
			<path fill="#434E7C" d="M299.33,616.414c10.432,1.104,20.787,2.9,31.283,3.329c1.377,0.057,1.523-1.641,0.631-2.329
				c-8.59-6.628-18.359-10.914-27.787-16.153c-1.41-0.784-2.672,1.375-1.262,2.158c9.428,5.24,19.197,9.526,27.787,16.153
				c0.211-0.776,0.42-1.553,0.631-2.329c-10.496-0.429-20.852-2.226-31.283-3.329C297.727,613.744,297.744,616.246,299.33,616.414
				L299.33,616.414z"/>
		</g>
	</g>
	<g>
		<g>
			<path fill="#434E7C" d="M256.029,613.556c6.459-8.279,10.171-21.369,9.43-31.751c-0.114-1.599-2.615-1.609-2.5,0
				c0.679,9.506-2.74,22.347-8.697,29.983C253.283,613.043,255.039,614.826,256.029,613.556L256.029,613.556z"/>
		</g>
	</g>
</g>
<g opacity="0.15">
	<g>
		<path fill-rule="evenodd" clip-rule="evenodd" fill="#F8CC48" d="M23.613,639.796C2.092,646.249,3.25,664.66,7.787,676.039
			c5.647,14.121,18.747,18.227,31.984,14.292c17.216-5.118,23.376-15.258,19.265-31.921
			C54.627,640.535,40.639,634.779,23.613,639.796"/>
	</g>
	<g>
		<g>
			<g>
				<path fill="#434E7C" d="M13.261,644.978c1.346,7.938,3.77,17.714,14.154,14.98c10.25-2.699,11.249-12.822,9.282-21.706
					c-0.349-1.574-2.759-0.906-2.411,0.664c1.574,7.107,1.379,14.271-5.747,17.94c-4.36,2.246-8.596,0.83-10.864-3.466
					c-1.411-2.671-1.508-6.155-2.003-9.077C15.403,642.727,12.994,643.401,13.261,644.978L13.261,644.978z"/>
			</g>
		</g>
		<g>
			<g>
				<path fill="#434E7C" d="M25.727,690.214c-0.651-3.217-0.638-6.44,0.738-9.488c1.125-2.493,4.275-3.219,6.65-3.842
					c3.036-0.796,5.806-1.27,8.283,1.115c2.495,2.402,3.365,6.519,4.61,9.64c0.59,1.479,3.009,0.834,2.411-0.664
					c-3.026-7.585-5.433-14.848-14.93-12.758c-2.893,0.637-6.836,1.605-8.571,4.297c-2.388,3.705-2.455,8.153-1.603,12.364
					C23.636,692.458,26.045,691.787,25.727,690.214L25.727,690.214z"/>
			</g>
		</g>
		<g>
			<g>
				<path fill="#434E7C" d="M6.832,673.862c18.249-1.33,36.771-6.011,52.542-15.49c1.38-0.829,0.124-2.991-1.262-2.158
					c-15.375,9.241-33.483,13.852-51.28,15.148C5.234,671.479,5.223,673.979,6.832,673.862L6.832,673.862z"/>
			</g>
		</g>
		<g>
			<g>
				<path fill="#434E7C" d="M22.387,640.33c1.053,17.75,6.475,34.64,12.126,51.376c0.513,1.52,2.928,0.867,2.411-0.664
					c-5.576-16.516-10.998-33.19-12.037-50.712C24.792,638.729,22.291,638.719,22.387,640.33L22.387,640.33z"/>
			</g>
		</g>
	</g>
</g>
<g opacity="0.15">
	<g>
		<g>
			<path fill="#434E7C" d="M185.063,102.916c-10.237-2.764-21.448-6.84-32.216-6.425c-5.792,0.223-9.446,3.49-11.615,8.664
				c-1.614,3.852-2.336,8.11-3.118,12.188c-0.808,4.205-1.795,8.494-0.024,12.573c1.701,3.918,6.893,5.429,10.57,6.506
				c4.331,1.268,8.751,2.286,13.104,3.481c-0.291-0.513-0.582-1.024-0.873-1.537c-1.173,3.91-4.381,6.671-8.254,7.719
				c-1.038,0.28-1.241,1.749-0.299,2.284c8.59,4.882,18.006,2.858,21.761-6.726c-0.513,0.291-1.024,0.582-1.537,0.873
				c4.938,1.551,11.525,3.752,16.618,1.916c5.908-2.131,7.965-10.31,9.306-15.621c1.284-5.088,3.294-12.771,0.907-17.81
				C196.765,105.458,190.46,104.346,185.063,102.916c-1.56-0.414-2.222,1.998-0.664,2.41c4.354,1.154,9.804,1.92,12.403,6.027
				c2.759,4.359,0.328,12.228-0.728,16.795c-1.183,5.118-3.033,12.242-8.545,14.229c-3.938,1.42-10.401-1.046-14.304-2.271
				c-0.7-0.221-1.296,0.257-1.537,0.873c-3.178,8.109-11.05,9.231-18.089,5.231c-0.1,0.762-0.199,1.522-0.299,2.284
				c4.724-1.277,8.57-4.697,10-9.465c0.196-0.652-0.228-1.36-0.873-1.537c-3.031-0.832-6.063-1.661-9.104-2.46
				c-4.268-1.121-9.909-1.873-12.695-5.712c-2.559-3.527-0.47-9.481,0.282-13.306c0.637-3.237,1.369-6.467,2.49-9.574
				c1.978-5.477,5.854-7.576,11.522-7.47c9.876,0.187,20.039,3.807,29.476,6.354C185.958,105.747,186.618,103.334,185.063,102.916
				L185.063,102.916z"/>
		</g>
	</g>
	<g>
		<g>
			<g>
				<path fill="#434E7C" d="M160.572,122.631c3.225,0,3.225-5,0-5S157.347,122.631,160.572,122.631L160.572,122.631z"/>
			</g>
		</g>
		<g>
			<g>
				<path fill="#434E7C" d="M168.463,124.749c3.225,0,3.225-5,0-5S165.239,124.749,168.463,124.749L168.463,124.749z"/>
			</g>
		</g>
		<g>
			<g>
				<path fill="#434E7C" d="M176.355,126.866c3.225,0,3.225-5,0-5S173.13,126.866,176.355,126.866L176.355,126.866z"/>
			</g>
		</g>
	</g>
</g>
<g opacity="0.15">
	<g>
		<g>
			<g>
				<path fill="#434E7C" d="M34.313,228.02c0.754-7.121,0.788-14.188-0.431-21.257c-0.402,0.528-0.804,1.055-1.206,1.583
					c2.119-0.139,4.188,0.279,6.309,0.167c-0.417-0.417-0.833-0.833-1.25-1.25c-0.049,7.021-2.079,14.213-3.952,20.94
					c-0.433,1.556,1.979,2.216,2.411,0.665c1.933-6.944,3.989-14.35,4.041-21.605c0.004-0.654-0.572-1.286-1.25-1.25
					c-2.121,0.112-4.19-0.306-6.309-0.167c-0.865,0.057-1.349,0.75-1.206,1.583c1.18,6.845,1.071,13.706,0.342,20.592
					C31.644,229.623,34.146,229.606,34.313,228.02L34.313,228.02z"/>
			</g>
		</g>
		<g>
			<g>
				<path fill="#434E7C" d="M34.694,215.813c-1.04-9.863-11.383-12.125-19.542-13.657c-0.757-0.142-1.625,0.338-1.583,1.206
					c0.455,9.368,11.457,18.782,20.505,13.531c1.394-0.809,0.135-2.97-1.262-2.159c-7.337,4.259-16.38-3.892-16.743-11.372
					c-0.527,0.402-1.055,0.804-1.583,1.206c6.736,1.264,16.819,2.822,17.707,11.246C32.361,217.399,34.863,217.415,34.694,215.813
					L34.694,215.813z"/>
			</g>
		</g>
		<g>
			<g>
				<path fill="#434E7C" d="M13.937,204.245c5.226,5.878,11.555,8.813,18.638,11.893c1.463,0.636,2.737-1.518,1.262-2.159
					c-6.877-2.99-13.042-5.776-18.132-11.501C14.631,201.27,12.869,203.045,13.937,204.245L13.937,204.245z"/>
			</g>
		</g>
	</g>
	<g>
		<path fill-rule="evenodd" clip-rule="evenodd" fill="#FF57AB" d="M34.713,228.136c-7.676-17.102-28.23-9.499-23.335,11.581
			c1.149,4.95,4.038,10.673,8.401,13.277c5.222,3.217,7.529,0.718,13.195,1.139c5.666,0.422,7.403,4.52,13.343,0.208
			c5.325-3.454,8.946-11.948,10.255-17.958C60.093,220.223,39.336,214.061,34.713,228.136"/>
	</g>
</g>
<g opacity="0.15">
	<g>
		<g>
			<path fill-rule="evenodd" clip-rule="evenodd" fill="#F8CC48" d="M419.832,318.842c7.453,15.727,7.869,17.026,15.062,30.703
				c0.444,0.842,13.458-4.117,12.122-7.368c-0.273-0.665-11.92-23.848-14.932-29.56
				C431.861,312.192,425.582,315.682,419.832,318.842"/>
		</g>
		<g>
			<g>
				<g>
					<path fill="#434E7C" d="M423.064,317.45c5.197,10.382,10.355,20.777,15.372,31.248c0.696,1.454,2.853,0.185,2.159-1.262
						c-5.017-10.471-10.176-20.866-15.372-31.248C424.502,314.747,422.346,316.013,423.064,317.45L423.064,317.45z"/>
				</g>
			</g>
			<g>
				<g>
					<path fill="#434E7C" d="M427.229,315.334c5.196,10.382,10.355,20.777,15.372,31.247c0.696,1.454,2.852,0.185,2.158-1.262
						c-5.016-10.47-10.176-20.866-15.372-31.247C428.666,312.631,426.51,313.897,427.229,315.334L427.229,315.334z"/>
				</g>
			</g>
		</g>
	</g>
	<g>
		<g>
			<g>
				<path fill="#434E7C" d="M421.082,318.842c-0.143-5.516-0.535-11.03-0.481-16.549c-0.627,0.36-1.254,0.72-1.881,1.08
					c4.353,3.128,8.337,6.737,12.481,10.128c1.236,1.012,3.016-0.746,1.768-1.768c-4.311-3.527-8.461-7.266-12.987-10.52
					c-0.798-0.573-1.872,0.203-1.881,1.08c-0.054,5.519,0.339,11.033,0.481,16.549C418.623,320.451,421.123,320.456,421.082,318.842
					L421.082,318.842z"/>
			</g>
		</g>
		<g>
			<g>
				<path fill="#434E7C" d="M419.588,309.301c2.038,0.041,4.135-0.91,5.325-2.575c0.94-1.314-1.229-2.561-2.158-1.262
					c-0.665,0.93-2.075,1.358-3.167,1.336C417.975,306.769,417.979,309.269,419.588,309.301L419.588,309.301z"/>
			</g>
		</g>
	</g>
	<g>
		<g>
			<path fill-rule="evenodd" clip-rule="evenodd" fill="#FF57AB" d="M436.352,350.872c3.934,9.22,16.258,1.808,11.508-5.645"/>
		</g>
		<g>
			<g>
				<path fill-rule="evenodd" clip-rule="evenodd" fill="#FFFFFF" d="M432.776,346.287c1.042,3.228,1.42,3.715,2.984,6.256
					c0.097,0.156,13.647-6.411,13.62-7.153c-0.005-0.151-2.307-4.972-2.966-6.032C446.367,339.279,439.266,342.944,432.776,346.287"
					/>
				<g>
					<path fill="#434E7C" d="M431.57,346.619c0.789,2.378,1.797,4.426,3.111,6.555c0.221,0.357,0.641,0.648,1.079,0.619
						c1.453-0.098,3.114-1.261,4.386-1.875c2.582-1.247,5.147-2.539,7.652-3.934c0.866-0.482,3.283-1.522,2.788-2.927
						c-0.766-2.169-1.937-4.349-3.093-6.331c-0.281-0.482-0.872-0.725-1.412-0.575c-1.482,0.414-2.941,1.411-4.299,2.103
						c-3.219,1.639-6.427,3.299-9.638,4.953c-1.434,0.739-0.169,2.896,1.262,2.159c2.938-1.514,5.876-3.029,8.819-4.535
						c1.358-0.695,3.256-1.915,4.521-2.268c-0.471-0.192-0.941-0.383-1.412-0.575c0.575,0.986,1.071,2.018,1.574,3.042
						c0.289,0.587,0.57,1.178,0.85,1.77c0.59,1.247-0.044,0.626,0.614-0.112c-1.116,1.253-3.485,2.043-4.942,2.799
						c-2.128,1.104-4.281,2.16-6.449,3.18c-0.354,0.167-0.71,0.328-1.066,0.489c-0.863,0.389,0.323-0.217,0.443-0.021
						c-1.025-1.663-1.762-3.323-2.377-5.181C433.477,344.432,431.063,345.084,431.57,346.619L431.57,346.619z"/>
				</g>
			</g>
			<g>
				<g>
					<path fill="#434E7C" d="M434.123,349.536c4.861-1.959,9.412-4.542,14.07-6.928c1.435-0.735,0.17-2.892-1.262-2.158
						c-4.461,2.285-8.818,4.799-13.475,6.675C431.982,347.719,432.626,350.138,434.123,349.536L434.123,349.536z"/>
				</g>
			</g>
			<g>
				<g>
					<path fill="#434E7C" d="M435.451,351.304c4.554-1.964,8.834-4.463,13.24-6.727c1.435-0.737,0.17-2.894-1.262-2.159
						c-4.406,2.264-8.687,4.763-13.24,6.728C432.713,349.782,433.986,351.936,435.451,351.304L435.451,351.304z"/>
				</g>
			</g>
		</g>
	</g>
</g>
<g opacity="0.15">
	<g>
		<path fill-rule="evenodd" clip-rule="evenodd" fill="#FF57AB" d="M541.116,450.659c-6.5,1.525-20.166,2.354-21.51,4.369
			c0,0-1.568,16.965-2.018,24.872c-5.781-9.747-10.104-22.122-11.427-22.855c-1.583-0.877-27.811,5.378-29.239,3.361
			c-0.996-1.403-13.108-68.563-13.108-68.563l0,0C463.814,391.844,519.606,434.527,541.116,450.659"/>
	</g>
	<g>
		<g>
			<path fill="#434E7C" d="M520.49,454.145c-12.372-10.436-23.005-22.728-35.29-33.272c-1.061-0.91-2.671,0.227-1.963,1.515
				c6.597,12.008,14.976,22.843,21.939,34.617c0.819,1.386,2.981,0.129,2.158-1.262c-6.964-11.774-15.342-22.61-21.939-34.617
				c-0.654,0.505-1.309,1.01-1.963,1.515c12.285,10.545,22.918,22.837,35.29,33.272C519.946,456.944,521.725,455.186,520.49,454.145
				L520.49,454.145z"/>
		</g>
	</g>
	<g>
		<g>
			<path fill="#434E7C" d="M518.22,478.821c-9.161-6.438-17.577-13.858-26.699-20.343c-1.317-0.937-2.563,1.232-1.262,2.158
				c9.122,6.484,17.538,13.904,26.699,20.343C518.28,481.909,519.527,479.74,518.22,478.821L518.22,478.821z"/>
		</g>
	</g>
</g>
<g opacity="0.15">
	<g>
		<path fill-rule="evenodd" clip-rule="evenodd" fill="#FF57AB" d="M516.593,549.643c2.414-2.363,7.121-12.08,7.395-13.103
			c0.822-3.085-7.566-7.249-4.379-13.095c5.055-8.582,23.375,6.648,28.186,10.412c5.334,4.175,4.82,15.267-10.461,10.08
			c-2.721-0.924-8.582,10.217-9.99,13.072c0,0,11.277,12.617,8.066,17.323c-4.17,4.546-26.982-9.592-34.416-18.677
			C493.21,544.73,503.925,547.444,516.593,549.643"/>
	</g>
	<g>
		<g>
			<path fill="#434E7C" d="M506.757,563.114c-3.947,9.721-8.539,19.173-11.854,29.142c-0.329,0.988,0.946,2.064,1.836,1.412
				c8.835-6.487,15.74-14.739,23.462-22.429c1.144-1.139-0.624-2.906-1.768-1.768c-7.563,7.53-14.302,15.683-22.956,22.037
				c0.612,0.471,1.225,0.941,1.836,1.412c3.314-9.967,7.907-19.423,11.854-29.142C509.774,562.285,507.354,561.641,506.757,563.114
				L506.757,563.114z"/>
		</g>
	</g>
	<g>
		<g>
			<path fill="#434E7C" d="M521.502,522.308c6.141,8.458,17.738,15.702,27.903,17.825c1.572,0.328,2.242-2.082,0.664-2.412
				c-9.387-1.959-20.717-8.834-26.409-16.675C522.724,519.755,520.553,521,521.502,522.308L521.502,522.308z"/>
		</g>
	</g>
</g>
</svg>
