<?xml version="1.0" encoding="utf-8"?>
<!-- Generator: Adobe Illustrator 16.0.0, SVG Export Plug-In . SVG Version: 6.00 Build 0)  -->
<!DOCTYPE svg PUBLIC "-//W3C//DTD SVG 1.1//EN" "http://www.w3.org/Graphics/SVG/1.1/DTD/svg11.dtd">
<svg version="1.1" id="Layer_1" xmlns="http://www.w3.org/2000/svg" xmlns:xlink="http://www.w3.org/1999/xlink" x="0px" y="0px"
	 width="100px" height="100px" viewBox="0 0 100 100" enable-background="new 0 0 100 100" xml:space="preserve">
<path display="none" fill="#E86481" d="M8.767,73.18c0-15.463,0-30.926,0-46.388c0.128-0.018,0.153-0.115,0.19-0.219
	c1.416-3.984,3.671-5.58,7.884-5.58c16.122,0,32.244,0,48.365,0c6.224,0,12.446-0.01,18.67,0.004
	c3.442,0.008,6.173,2.11,7.125,5.413c0.052,0.181-0.049,0.453,0.231,0.543c0,15.409,0,30.818,0,46.227
	c-0.176,0.021-0.172,0.174-0.213,0.295c-1.297,3.797-3.688,5.504-7.701,5.504c-9.174,0-18.353,0-27.523,0
	c-13.198,0-26.397,0.004-39.595-0.004c-3.444-0.002-6.136-2.009-7.15-5.269C8.993,73.521,9.035,73.26,8.767,73.18z M82.816,26.035
	c-0.043-0.056-0.088-0.111-0.131-0.167c-21.797,0-43.596,0-65.393,0c-0.049,0.063-0.098,0.125-0.146,0.188
	c0.198,0.129,0.426,0.229,0.59,0.393c9.988,10.009,19.971,20.023,29.956,30.037c1.552,1.557,3.054,1.563,4.595,0.02
	c7.162-7.181,14.313-14.37,21.485-21.542C76.773,31.969,79.803,29.01,82.816,26.035z M17.05,74.096c22.072,0,43.868,0,65.722,0
	c-0.092-0.119-0.131-0.186-0.184-0.238c-6.648-6.67-13.303-13.336-19.938-20.021c-0.414-0.419-0.604-0.284-0.93,0.048
	c-2.035,2.064-4.089,4.112-6.135,6.164c-3.234,3.246-7.951,3.241-11.184-0.009c-1.987-1.998-3.992-3.978-5.954-5.999
	c-0.48-0.495-0.738-0.582-1.281-0.031c-4.787,4.852-9.605,9.672-14.425,14.49C20.911,70.334,19.045,72.137,17.05,74.096z
	 M13.658,29.396c0,13.71,0,27.506,0,41.4c0.7-0.706,1.32-1.335,1.944-1.962c6.083-6.102,12.163-12.209,18.262-18.295
	c0.444-0.443,0.466-0.68,0-1.11c-0.927-0.854-1.789-1.779-2.685-2.667C25.33,40.962,19.478,35.163,13.658,29.396z M86.376,29.316
	c-0.051-0.034-0.103-0.068-0.153-0.102c-0.17,0.203-0.328,0.418-0.514,0.605c-6.496,6.522-12.988,13.046-19.506,19.547
	c-0.492,0.49-0.52,0.721-0.01,1.229c6.574,6.555,13.125,13.137,19.675,19.719c0.139,0.143,0.212,0.349,0.315,0.521
	c0.063-0.061,0.129-0.115,0.188-0.174C86.376,56.879,86.376,43.098,86.376,29.316z"/>
<g>
	<path fill="#C2CFCF" d="M54.721,9.305c1.174,0.362,2.411,0.332,3.604,0.607c13.814,3.199,22.64,11.638,26.154,25.357
		c2.194,8.563,0.383,16.676-3.724,24.359c-2.931,5.481-6.72,10.351-10.78,15.019c-4.769,5.479-9.719,10.793-14.717,16.063
		c-2.01,2.12-4.563,2.113-6.562-0.029c-5.872-6.297-11.879-12.475-17.35-19.135c-3.843-4.68-7.299-9.613-9.754-15.191
		c-6.878-15.625-1.533-33.088,12.943-42.129c4.246-2.651,8.902-4.17,13.87-4.746c0.167-0.019,0.394,0.084,0.481-0.173
		C50.831,9.305,52.775,9.305,54.721,9.305z M21.013,44.129c0.008,3.01,1.074,7.266,2.875,11.357
		c2.556,5.813,6.268,10.867,10.319,15.691c5.144,6.123,10.703,11.869,16.151,17.717c1.184,1.271,2.065,1.277,3.255,0.017
		c4.82-5.104,9.611-10.235,14.229-15.527c4.21-4.825,8.159-9.843,11.104-15.573c3.593-6.996,4.951-14.293,3.181-22.082
		C78.514,19.847,62.792,9.358,46.764,12.194C31.818,14.838,21.044,27.58,21.013,44.129z"/>
	<path fill="#C2CFCF" d="M37.734,42.604c0-4.159-0.001-8.317,0-12.477c0-1.645,0.546-2.194,2.175-2.194c8.048,0,16.097,0,24.143,0
		c1.578,0,2.142,0.563,2.144,2.147c0.003,5.023,0,10.045,0,15.069c0,0.215,0.014,0.437-0.028,0.646
		c-0.136,0.665-0.556,1.047-1.235,1.061c-0.64,0.013-1.145-0.504-1.158-1.208c-0.026-1.349-0.028-2.7-0.004-4.05
		c0.01-0.486-0.063-0.703-0.642-0.702c-7.454,0.021-14.908,0.021-22.361,0.001c-0.537-0.001-0.607,0.191-0.605,0.655
		c0.015,4.266,0.021,8.533-0.004,12.8c-0.003,0.562,0.184,0.684,0.691,0.652c0.673-0.04,1.354-0.054,2.024,0.003
		c0.603,0.054,0.689-0.19,0.685-0.726c-0.025-3.078-0.016-6.157-0.011-9.236c0.002-1.366,0.611-1.987,1.967-1.994
		c1.836-0.01,3.672-0.004,5.509-0.002c1.588,0.002,2.158,0.557,2.162,2.125c0.004,3.025,0.018,6.051-0.015,9.074
		c-0.006,0.591,0.119,0.771,0.744,0.763c3.052-0.036,6.104-0.032,9.153-0.003c0.584,0.006,0.729-0.167,0.705-0.725
		c-0.047-0.943-0.026-1.891-0.01-2.835c0.016-0.839,0.471-1.323,1.2-1.323c0.72-0.001,1.209,0.49,1.224,1.32
		c0.025,1.404,0.031,2.81,0,4.213c-0.025,1.104-0.696,1.767-1.793,1.768c-8.291,0.01-16.582,0.012-24.872-0.001
		c-1.179-0.001-1.785-0.712-1.787-2.021C37.731,51.139,37.734,46.871,37.734,42.604z M52.05,30.365c-3.267,0-6.533-0.008-9.8,0.005
		c-0.667,0.003-1.533-0.29-1.95,0.119c-0.419,0.411-0.055,1.284-0.138,1.945c-0.084,0.667,0.146,0.852,0.827,0.85
		c6.856-0.026,13.714-0.011,20.572-0.024c0.715-0.001,1.668,0.326,2.08-0.159c0.352-0.416,0.069-1.34,0.131-2.035
		c0.052-0.57-0.14-0.718-0.707-0.714C59.393,30.377,55.721,30.365,52.05,30.365z M52.049,35.699c-3.294,0-6.588-0.007-9.881,0.006
		c-0.64,0.002-1.469-0.281-1.87,0.121c-0.4,0.401-0.055,1.234-0.134,1.869c-0.079,0.635,0.144,0.801,0.785,0.799
		c6.911-0.025,13.822-0.012,20.734-0.021c0.666-0.001,1.532,0.291,1.948-0.121c0.416-0.413,0.06-1.283,0.136-1.946
		c0.063-0.564-0.131-0.724-0.703-0.72C59.393,35.712,55.721,35.699,52.049,35.699z M45.979,50.14c0,1.428,0.018,2.856-0.011,4.285
		c-0.009,0.46,0.129,0.593,0.585,0.581c1.212-0.029,2.425-0.023,3.638-0.002c0.396,0.007,0.568-0.072,0.564-0.521
		c-0.021-2.805-0.019-5.606-0.001-8.409c0.002-0.451-0.126-0.612-0.594-0.6c-1.185,0.029-2.372,0.033-3.557-0.002
		c-0.494-0.015-0.651,0.119-0.637,0.626C46.003,47.444,45.979,48.792,45.979,50.14z"/>
	<path fill="#C2CFCF" d="M51.993,16.218c13.174,0.045,24.198,9.597,26.182,22.685c2.039,13.457-6.964,26.574-20.288,29.563
		c-15.161,3.397-29.844-6.616-32.109-22.007c-0.998-6.782,0.5-13.075,4.369-18.768c0.628-0.924,1.666-1.024,2.184-0.228
		c0.385,0.593,0.167,1.12-0.194,1.642c-2.091,3.019-3.492,6.347-3.928,9.982c-1.183,9.876,2.185,17.925,10.428,23.515
		c14.261,9.672,33.652,1.494,36.941-15.409c2.552-13.114-6.332-25.982-19.516-28.172c-7.432-1.234-14.049,0.648-19.821,5.488
		c-0.332,0.279-0.642,0.609-1.101,0.632c-0.527,0.027-0.938-0.201-1.179-0.691c-0.299-0.61-0.087-1.097,0.376-1.513
		c1.796-1.614,3.782-2.953,5.945-4.021C43.907,17.125,47.952,16.204,51.993,16.218z"/>
</g>
</svg>
