<?xml version="1.0" encoding="utf-8"?>
<!-- Generator: Adobe Illustrator 16.0.0, SVG Export Plug-In . SVG Version: 6.00 Build 0)  -->
<!DOCTYPE svg PUBLIC "-//W3C//DTD SVG 1.1//EN" "http://www.w3.org/Graphics/SVG/1.1/DTD/svg11.dtd">
<svg version="1.1" id="Layer_1" xmlns="http://www.w3.org/2000/svg" xmlns:xlink="http://www.w3.org/1999/xlink" x="0px" y="0px"
	 width="50px" height="50px" viewBox="0 0 50 50" enable-background="new 0 0 50 50" xml:space="preserve">
<g>
	<path fill-rule="evenodd" clip-rule="evenodd" fill="#C2CFCF" d="M27.638,0.097c0.895,0.258,1.821,0.373,2.713,0.654
		c4.509,1.425,7.961,4.171,10.326,8.261c1.632,2.821,2.401,5.887,2.34,9.139c-0.075,3.902-1.322,7.409-3.674,10.536
		c-1.88,2.5-4.031,4.771-5.986,7.207c-2.402,2.994-4.856,5.946-7.29,8.917c-0.641,0.782-1.174,0.784-1.817,0.003
		c-3.446-4.18-6.812-8.427-10.339-12.539c-1.536-1.791-3.096-3.565-4.276-5.619c-1.896-3.299-2.65-6.863-2.229-10.644
		c0.637-5.72,3.427-10.139,8.23-13.278c1.894-1.238,3.983-2.031,6.213-2.445c0.18-0.034,0.387-0.013,0.516-0.192
		C24.122,0.097,25.879,0.097,27.638,0.097z M25.125,33.916c8.746,0.025,16.06-7.103,16.12-16.08
		c0.059-8.749-7.13-16.014-16.008-16.079C16.403,1.692,9.153,8.833,9.075,17.674C8.997,26.584,16.167,33.84,25.125,33.916z"/>
	<path fill-rule="evenodd" clip-rule="evenodd" fill="#C2CFCF" d="M25.542,50.002c-4.238-0.014-8.09-0.184-11.915-0.703
		c-2.396-0.325-4.786-0.724-7.049-1.639c-0.239-0.097-0.473-0.218-0.688-0.36c-0.474-0.313-0.467-0.514,0.012-0.809
		c0.654-0.404,1.371-0.667,2.103-0.882c2.772-0.81,5.618-1.205,8.486-1.459c1.425-0.127,2.855-0.195,4.282-0.303
		c0.27-0.021,0.446,0.058,0.615,0.274c0.5,0.641,1.018,1.269,1.54,1.892c1.309,1.563,3.152,1.563,4.459,0
		c0.532-0.637,1.057-1.279,1.575-1.927c0.13-0.163,0.255-0.255,0.482-0.242c4.354,0.234,8.694,0.567,12.914,1.77
		c0.686,0.195,1.354,0.447,1.978,0.807c0.573,0.332,0.588,0.568,0.011,0.912c-0.931,0.557-1.971,0.836-3.009,1.089
		c-3.391,0.826-6.845,1.194-10.322,1.4C29.064,49.938,27.113,49.961,25.542,50.002z"/>
	<path fill-rule="evenodd" clip-rule="evenodd" fill="#C2CFCF" d="M36.153,26.939c-1.244-2.28-3.273-3.25-5.668-3.636
		c-0.268-0.043-0.425-0.159-0.56-0.386c-0.308-0.517-0.595-1.042-0.864-1.579c-0.112-0.226-0.13-0.369,0.086-0.524
		c0.979-0.704,1.481-1.658,1.473-2.868c-0.001-0.202,0.12-0.277,0.257-0.372c1.165-0.808,1.641-1.987,1.359-3.342
		c-0.122-0.591-0.424-1.031-1.046-1.136c-0.356-0.06-0.233-0.304-0.235-0.479c-0.021-1.509-0.611-2.7-1.903-3.521
		c-0.952-0.605-1.997-0.935-3.109-1.047c-1.666-0.167-3.235,0.145-4.668,1.036c-1.281,0.796-1.892,1.971-1.91,3.463
		c-0.004,0.312-0.022,0.52-0.426,0.599c-0.486,0.095-0.725,0.517-0.846,0.981c-0.345,1.325,0.158,2.658,1.297,3.411
		c0.206,0.136,0.321,0.263,0.319,0.536c-0.005,1.058,0.423,1.935,1.265,2.565c0.382,0.286,0.426,0.537,0.171,0.902
		c-0.083,0.118-0.136,0.258-0.195,0.391c-0.375,0.846-0.879,1.375-1.922,1.543c-1.716,0.276-3.204,1.129-4.296,2.551
		c-0.108,0.141-0.194,0.299-0.284,0.452c-0.082,0.14-0.156,0.283-0.233,0.427c-3.683-3.962-4.971-11.654-0.525-17.595
		c4.972-6.644,14.125-7.568,20.232-2.757C40.336,11.609,41.302,20.659,36.153,26.939z M25.571,6.126
		c-0.006-0.534-0.437-0.891-1.074-0.863C21.476,5.396,18.85,6.5,16.595,8.502c-0.44,0.391-0.492,0.897-0.162,1.297
		c0.327,0.395,0.852,0.436,1.301,0.071c0.555-0.451,1.104-0.906,1.719-1.278c1.575-0.952,3.285-1.451,5.117-1.557
		C25.194,7,25.577,6.643,25.571,6.126z M29.263,6.635c0.005-0.432-0.367-0.809-0.804-0.813c-0.44-0.005-0.813,0.358-0.819,0.796
		C27.635,7.056,28,7.425,28.441,7.429C28.882,7.433,29.258,7.07,29.263,6.635z"/>
	<path fill-rule="evenodd" clip-rule="evenodd" fill="#C2CFCF" d="M21.504,17.176c0.086-0.992-0.285-1.977-0.348-2.999
		c-0.043-0.702-0.044-1.401,0.052-2.091c0.147-1.051,0.918-1.58,1.815-1.908c1.612-0.588,3.215-0.527,4.77,0.239
		c0.783,0.385,1.261,0.983,1.351,1.881c0.113,1.127,0.042,2.242-0.188,3.345c-0.147,0.708-0.185,1.416-0.119,2.132
		c0.051,0.555-0.12,1.03-0.534,1.396c-0.624,0.551-1.2,1.144-1.696,1.812c-0.22,0.295-0.5,0.393-0.87,0.436
		c-1.141,0.131-2.069-0.114-2.663-1.198c-0.135-0.246-0.396-0.426-0.609-0.626C21.452,18.635,21.448,18.631,21.504,17.176z"/>
	<path fill-rule="evenodd" clip-rule="evenodd" fill="#C2CFCF" d="M25.158,32.143c-3.523-0.059-6.642-1.196-9.329-3.5
		c-0.21-0.181-0.246-0.33-0.165-0.581c0.41-1.273,1.402-1.945,2.531-2.475c0.471-0.221,0.971-0.365,1.484-0.461
		c0.172-0.032,0.284-0.05,0.364,0.177c0.747,2.107,2.195,3.699,3.841,5.131c1.248,1.087,1.312,1.081,2.544,0.002
		c1.643-1.437,3.094-3.022,3.842-5.13c0.05-0.142,0.102-0.237,0.27-0.197c1.704,0.403,3.266,1.009,4.041,2.772
		c0.154,0.352,0.138,0.576-0.196,0.854C31.712,30.972,28.636,32.084,25.158,32.143z"/>
	<path fill-rule="evenodd" clip-rule="evenodd" fill="#C2CFCF" d="M25.169,24.984c-1.094-0.151-2.109-0.518-3.06-1.071
		c-0.155-0.09-0.157-0.181-0.06-0.309c0.039-0.051,0.065-0.112,0.098-0.168c0.162-0.28,0.262-0.672,0.505-0.81
		c0.246-0.139,0.468,0.304,0.761,0.365c1.362,0.285,2.725,0.504,3.992-0.316c0.222-0.143,0.303-0.104,0.389,0.1
		c0.006,0.015,0.018,0.027,0.026,0.042c0.629,1.053,0.625,1.046-0.511,1.552C26.621,24.674,25.903,24.86,25.169,24.984z"/>
	<path fill-rule="evenodd" clip-rule="evenodd" fill="#C2CFCF" d="M22.488,26.144c1.771,0.771,3.537,0.843,5.314,0
		c-0.676,1.151-1.531,2.084-2.502,2.92c-0.202,0.175-0.283-0.005-0.389-0.096C23.973,28.162,23.166,27.24,22.488,26.144z"/>
</g>
</svg>
