<?xml version="1.0" encoding="utf-8"?>
<!-- Generator: Adobe Illustrator 16.0.0, SVG Export Plug-In . SVG Version: 6.00 Build 0)  -->
<!DOCTYPE svg PUBLIC "-//W3C//DTD SVG 1.1//EN" "http://www.w3.org/Graphics/SVG/1.1/DTD/svg11.dtd">
<svg version="1.1" id="Layer_1" xmlns="http://www.w3.org/2000/svg" xmlns:xlink="http://www.w3.org/1999/xlink" x="0px" y="0px"
	 width="100px" height="100px" viewBox="0 0 100 100" enable-background="new 0 0 100 100" xml:space="preserve">
<path display="none" fill="#E86481" d="M8.767,73.18c0-15.463,0-30.926,0-46.388c0.128-0.018,0.153-0.115,0.19-0.219
	c1.416-3.984,3.671-5.58,7.884-5.58c16.122,0,32.244,0,48.365,0c6.224,0,12.446-0.01,18.67,0.004
	c3.442,0.008,6.173,2.11,7.125,5.413c0.052,0.181-0.049,0.453,0.231,0.543c0,15.409,0,30.818,0,46.227
	c-0.176,0.021-0.172,0.174-0.213,0.295c-1.297,3.797-3.688,5.504-7.701,5.504c-9.174,0-18.354,0-27.523,0
	c-13.198,0-26.397,0.004-39.595-0.004c-3.444-0.002-6.136-2.009-7.15-5.269C8.993,73.521,9.035,73.26,8.767,73.18z M82.816,26.035
	c-0.043-0.056-0.088-0.111-0.131-0.167c-21.797,0-43.597,0-65.394,0c-0.049,0.063-0.098,0.125-0.146,0.188
	c0.198,0.129,0.426,0.229,0.59,0.393c9.988,10.009,19.971,20.023,29.956,30.037c1.552,1.557,3.054,1.563,4.595,0.02
	c7.162-7.181,14.313-14.37,21.484-21.542C76.773,31.969,79.803,29.01,82.816,26.035z M17.05,74.096c22.072,0,43.868,0,65.722,0
	c-0.092-0.119-0.131-0.186-0.184-0.238c-6.648-6.67-13.303-13.336-19.938-20.021c-0.414-0.419-0.604-0.284-0.93,0.048
	c-2.035,2.064-4.09,4.112-6.136,6.164c-3.233,3.246-7.951,3.241-11.184-0.009c-1.987-1.998-3.992-3.978-5.954-5.999
	c-0.48-0.495-0.738-0.582-1.281-0.031c-4.787,4.852-9.605,9.672-14.425,14.49C20.911,70.334,19.045,72.137,17.05,74.096z
	 M13.658,29.396c0,13.71,0,27.506,0,41.4c0.7-0.706,1.32-1.335,1.944-1.962c6.083-6.102,12.163-12.209,18.262-18.295
	c0.444-0.443,0.466-0.68,0-1.11c-0.927-0.854-1.789-1.779-2.685-2.667C25.33,40.962,19.478,35.163,13.658,29.396z M86.376,29.316
	c-0.051-0.034-0.103-0.068-0.153-0.102c-0.17,0.203-0.328,0.418-0.514,0.605c-6.496,6.522-12.988,13.046-19.506,19.547
	c-0.492,0.49-0.52,0.721-0.01,1.229c6.574,6.555,13.125,13.137,19.675,19.719c0.139,0.144,0.212,0.35,0.315,0.521
	c0.063-0.061,0.129-0.115,0.188-0.174C86.376,56.879,86.376,43.098,86.376,29.316z"/>
<g>
	<path fill="#C2CFCF" d="M52.468,8.155c1.128,0.212,2.272,0.362,3.38,0.649c10.76,2.802,17.68,9.469,20.064,20.421
		c1.208,5.545,0.113,10.926-2.107,16.09c-1.576,3.667-3.695,7.024-6.052,10.223c-5.229,7.099-10.215,14.368-15.276,21.584
		c-1.386,1.972-3.22,1.974-4.593-0.002c-5.418-7.8-10.903-15.546-16.442-23.261c-2.673-3.72-4.832-7.728-6.219-12.133
		c-4.081-12.973,2.508-26.735,15.169-31.655c2.193-0.852,4.441-1.434,6.766-1.747c0.148-0.02,0.339,0.049,0.406-0.169
		C49.198,8.155,50.833,8.155,52.468,8.155z M28.929,33.631c0.003,2.357,0.379,4.654,1.076,6.905
		c1.238,3.998,3.327,7.557,5.738,10.923c4.692,6.544,9.407,13.072,13.949,19.721c0.472,0.692,0.631,0.483,1.001-0.05
		c3.951-5.669,7.861-11.364,11.975-16.922c2.736-3.694,5.342-7.483,7.025-11.807c2.182-5.602,2.51-11.235-0.022-16.813
		C64.882,15.046,52.574,10.275,41.852,14.75C34.104,17.985,28.917,25.564,28.929,33.631z"/>
	<path fill="#C2CFCF" d="M49.361,91.846c-0.428-0.462-1.012-0.697-1.531-1.025c-6.865-4.348-13.738-8.685-20.608-13.028
		c-1.992-1.26-1.986-3.286,0.017-4.56c2.132-1.357,4.271-2.705,6.413-4.049c1.341-0.842,2.822-0.586,3.585,0.603
		c0.79,1.225,0.384,2.685-0.995,3.562c-1.117,0.713-2.237,1.416-3.431,2.17c3.497,2.213,6.888,4.36,10.281,6.504
		c2.206,1.396,4.421,2.773,6.617,4.182c0.347,0.222,0.583,0.232,0.936,0.012c5.508-3.497,11.023-6.979,16.537-10.463
		c0.088-0.057,0.17-0.119,0.348-0.244c-1.262-0.796-2.48-1.546-3.676-2.33c-0.901-0.593-1.293-1.619-1.063-2.631
		c0.218-0.954,1.033-1.695,2.053-1.857c0.685-0.107,1.286,0.123,1.851,0.48c2.185,1.379,4.371,2.751,6.545,4.145
		c1.848,1.182,1.843,3.25-0.021,4.433c-5.601,3.553-11.21,7.091-16.818,10.629c-1.851,1.167-3.711,2.315-5.565,3.474
		C50.343,91.846,49.853,91.846,49.361,91.846z"/>
	<path fill="#C2CFCF" d="M50.139,48.229c-7.595-0.021-13.718-6.198-13.684-13.805c0.035-7.486,6.213-13.622,13.72-13.625
		c7.572-0.002,13.752,6.202,13.726,13.783C63.876,42.128,57.703,48.249,50.139,48.229z M50.143,43.322
		c4.871,0.02,8.845-3.922,8.854-8.781c0.01-4.846-3.979-8.839-8.823-8.832c-4.818,0.007-8.782,3.947-8.813,8.76
		C41.33,39.325,45.275,43.303,50.143,43.322z"/>
</g>
</svg>
