<?xml version="1.0" encoding="utf-8"?>
<!-- Generator: Adobe Illustrator 16.0.0, SVG Export Plug-In . SVG Version: 6.00 Build 0)  -->
<!DOCTYPE svg PUBLIC "-//W3C//DTD SVG 1.1//EN" "http://www.w3.org/Graphics/SVG/1.1/DTD/svg11.dtd">
<svg version="1.1" id="Layer_1" xmlns="http://www.w3.org/2000/svg" xmlns:xlink="http://www.w3.org/1999/xlink" x="0px" y="0px"
	 width="200px" height="200px" viewBox="0 0 200 200" enable-background="new 0 0 200 200" xml:space="preserve">
<path fill-rule="evenodd" clip-rule="evenodd" fill="#F44D77" d="M23.48,96.307c0-1.138,0-2.275,0-3.413
	c0.855-0.911,0.639-2.116,0.794-3.186c4.574-31.695,29.731-57.559,61.334-63.075c1.769-0.309,3.65-0.201,5.286-1.153
	c5.12,0,10.24,0,15.36,0c0.421,0.687,1.14,0.439,1.731,0.518c33.303,4.451,58.957,28.927,65.029,62.014
	c0.325,1.773,0.195,3.647,1.079,5.308c0,5.12,0,10.24,0,15.359c-0.878,0.826-0.624,1.978-0.768,2.973
	c-4.636,31.935-29.592,57.678-61.345,63.295c-1.912,0.338-3.933,0.206-5.728,1.146c-5.12,0-10.24,0-15.36,0
	c-0.908-0.861-2.112-0.643-3.183-0.802c-31.889-4.743-57.428-29.578-63.083-61.327c-0.315-1.769-0.199-3.648-1.148-5.285
	c0-1.138,0-2.275,0-3.413c0.664-1.138,0.567-2.275,0-3.413c0-0.711,0-1.422,0-2.133C24.046,98.582,24.145,97.445,23.48,96.307z
	 M98.837,32.579c-37.599-0.026-68.168,30.425-68.257,67.994c-0.09,37.71,30.357,68.322,68.05,68.421
	c37.666,0.1,68.314-30.435,68.363-68.105C167.041,63.195,136.521,32.605,98.837,32.579z"/>
<path fill-rule="evenodd" clip-rule="evenodd" fill="#F66589" d="M23.48,96.307c0.665,1.138,0.566,2.275,0,3.414
	C23.48,98.582,23.48,97.445,23.48,96.307z"/>
<path fill-rule="evenodd" clip-rule="evenodd" fill="#F66589" d="M23.48,101.854c0.567,1.138,0.664,2.275,0,3.413
	C23.48,104.129,23.48,102.991,23.48,101.854z"/>
<path fill-rule="evenodd" clip-rule="evenodd" fill="#F44D77" d="M94.292,59.32c11.127,0.423,20.509,4.259,28.296,11.837
	c2.064,2.009,2.036,4.425,0.03,5.835c-1.561,1.097-3.283,0.796-5.128-0.965c-4.855-4.633-10.564-7.616-17.138-8.971
	c-18.589-3.832-37.249,8.881-40.523,27.621c-3.362,19.236,9.825,37.541,28.945,40.1c10.964,1.468,20.521-1.63,28.61-9.165
	c1.47-1.368,2.963-2.278,4.939-1.199c2.261,1.234,2.433,3.851,0.354,5.912c-4.994,4.954-10.88,8.438-17.658,10.32
	c-22.618,6.282-45.926-7.148-51.548-29.665C47.766,88.124,61.969,65.3,85.065,60.247C88.198,59.562,91.386,59.284,94.292,59.32z"/>
<path fill-rule="evenodd" clip-rule="evenodd" fill="#F44D77" d="M132.916,96.675c-1.832-1.766-3.694-3.5-5.488-5.305
	c-1.853-1.865-1.99-3.91-0.458-5.434c1.566-1.559,3.531-1.434,5.432,0.446c3.838,3.796,7.655,7.614,11.448,11.455
	c2.017,2.044,2.016,3.854-0.006,5.902c-3.792,3.843-7.609,7.66-11.447,11.456c-1.899,1.878-3.868,1.998-5.433,0.436
	c-1.527-1.525-1.386-3.568,0.47-5.435c1.793-1.803,3.654-3.537,5.918-5.717c-1.342-0.061-2.074-0.122-2.808-0.122
	c-11.791-0.007-23.583-0.003-35.374-0.009c-0.708,0-1.44,0.045-2.12-0.113c-1.795-0.419-2.894-1.589-2.893-3.455
	c0-1.869,1.11-3.03,2.901-3.45c0.678-0.159,1.411-0.108,2.12-0.108c11.721-0.005,23.44-0.004,35.162-0.004c0.77,0,1.539,0,2.31,0
	C132.738,97.039,132.827,96.857,132.916,96.675z"/>
</svg>
