<?xml version="1.0" encoding="utf-8"?>
<!-- Generator: Adobe Illustrator 16.0.0, SVG Export Plug-In . SVG Version: 6.00 Build 0)  -->
<!DOCTYPE svg PUBLIC "-//W3C//DTD SVG 1.1//EN" "http://www.w3.org/Graphics/SVG/1.1/DTD/svg11.dtd">
<svg version="1.1" id="Layer_1" xmlns="http://www.w3.org/2000/svg" xmlns:xlink="http://www.w3.org/1999/xlink" x="0px" y="0px"
	 width="250px" height="250px" viewBox="0 0 250 250" enable-background="new 0 0 250 250" xml:space="preserve">
<g>
	<path fill-rule="evenodd" clip-rule="evenodd" fill="#EDBC90" d="M135.749,77.066c0.457,6.063-0.008,12.009-2.349,17.698
		c-1.096,2.661-2.92,4.647-5.704,5.546c-1.775,0.572-2.56,1.688-2.691,3.519c-0.791,10.954-5.758,19.558-14.691,25.905
		c-0.754,0.535-1.681,0.852-2.195,1.697c-0.5,0.18-1.02,0.317-1.496,0.546c-8.824,4.25-17.851,4.884-27.151,1.679
		c-1.885-0.65-3.506-1.924-5.526-2.21c-0.385-0.87-1.267-1.163-1.966-1.652c-9.127-6.386-14.078-15.159-14.942-26.232
		c-0.125-1.607-0.71-2.618-2.274-3.124c-3.149-1.019-5.141-3.198-6.257-6.296c-1.624-4.508-2.636-9.09-2.052-13.915
		c0.125-1.03-0.745-2.073,0.043-3.092c1.104-1.296,1.962-2.8,3.78-3.377c2.706-0.859,4.602,0.294,6.4,2.621
		c0-2.163-0.068-3.901,0.015-5.631c0.157-3.274,2.128-5.42,5.098-5.7c2.665-0.25,5.339-0.432,7.988-0.798
		c10.93-1.512,21.604-3.875,31.174-9.746c1.441-0.884,2.975-1.186,4.613-0.719c6.063,1.73,11.355,4.696,15.419,9.635
		c3.08,3.743,4.388,8.117,4.482,13.086c3.039-4.105,6.819-4.042,9.539-0.035C135.212,76.772,135.415,76.975,135.749,77.066z"/>
	<path fill-rule="evenodd" clip-rule="evenodd" fill="#A4ABB4" d="M140.262,151.232c0.71-0.787-0.087-1.364-0.351-1.942
		c-0.637-1.391-0.512-2.615,0.54-3.697c1.681-1.729,3.392-3.43,5.108-5.124c1.019-1.004,2.186-1.168,3.505-0.589
		c1.96,0.86,3.981,1.589,5.898,2.534c1.089,0.537,1.936,0.509,2.971-0.096c2.49-1.451,5.108-2.646,7.938-3.291
		c1.08-0.246,1.725-0.85,2.113-1.895c0.769-2.068,1.632-4.101,2.454-6.149c0.534-1.332,1.504-1.986,2.949-1.978
		c2.345,0.015,4.689,0.01,7.034-0.005c1.444-0.01,2.41,0.651,2.946,1.982c0.8,1.986,1.677,3.944,2.387,5.961
		c0.4,1.136,1.068,1.725,2.204,2.036c2.848,0.783,5.586,1.871,8.111,3.417c0.906,0.556,1.656,0.539,2.603,0.083
		c1.927-0.929,3.942-1.673,5.882-2.578c1.489-0.695,2.726-0.407,3.841,0.697c1.617,1.604,3.223,3.22,4.833,4.83
		c1.065,1.065,1.306,2.264,0.687,3.665c-0.893,2.02-1.662,4.097-2.627,6.079c-0.477,0.978-0.376,1.719,0.137,2.603
		c1.481,2.556,2.668,5.253,3.403,8.117c0.302,1.179,0.972,1.768,2.081,2.162c1.951,0.695,3.845,1.552,5.775,2.307
		c1.508,0.589,2.157,1.669,2.127,3.269c-0.04,2.211-0.033,4.423-0.005,6.633c0.02,1.519-0.616,2.553-2.032,3.126
		c-1.861,0.751-3.675,1.645-5.58,2.254c-1.371,0.438-2.1,1.176-2.454,2.552c-0.705,2.732-1.85,5.306-3.271,7.739
		c-0.555,0.948-0.642,1.751-0.132,2.783c0.947,1.917,1.678,3.939,2.576,5.883c0.649,1.406,0.427,2.617-0.612,3.682
		c-1.685,1.726-3.388,3.435-5.125,5.105c-1.015,0.977-2.188,1.155-3.515,0.549c-1.887-0.863-3.848-1.567-5.702-2.49
		c-1.136-0.564-2.044-0.586-3.152,0.081c-2.416,1.452-5.015,2.538-7.744,3.26c-1.2,0.316-1.928,0.923-2.34,2.157
		c-0.657,1.963-1.546,3.847-2.309,5.775c-0.559,1.413-1.554,2.104-3.084,2.088c-2.278-0.024-4.557-0.024-6.834,0.001
		c-1.525,0.017-2.539-0.649-3.097-2.068c-0.809-2.055-1.643-4.099-2.471-6.145c-0.277-0.686-0.539-1.374-1.388-1.58
		c-3.34-0.815-6.409-2.292-9.438-3.869c-0.212-0.11-0.52-0.035-0.783-0.046c-2.511,0.534-4.71,1.86-7.057,2.809
		c-1.514,0.611-2.729,0.407-3.848-0.703c-1.615-1.606-3.229-3.217-4.831-4.835c-1.111-1.122-1.357-2.365-0.663-3.847
		c0.908-1.938,1.664-3.948,2.574-5.885c0.403-0.857,0.523-1.561-0.009-2.422c-1.627-2.637-2.749-5.505-3.577-8.479
		c-0.283-1.017-0.849-1.569-1.804-1.93c-2.064-0.78-4.098-1.643-6.147-2.463c-1.342-0.537-1.965-1.523-1.955-2.962
		c0.016-2.279,0.023-4.559-0.007-6.836c-0.021-1.518,0.602-2.552,2.031-3.121c1.864-0.743,3.672-1.656,5.581-2.251
		c1.48-0.461,2.085-1.351,2.52-2.749c0.651-2.102,1.464-4.171,2.403-6.162C142.979,156.192,142.644,153.611,140.262,151.232z
		 M201.037,176.749c-0.693-13.813-10.598-23.896-24.187-23.84c-13.785,0.057-23.908,10.155-23.938,23.943
		c-0.028,13.858,10.185,24.039,24.038,24.046C190.614,200.904,200.499,190.607,201.037,176.749z"/>
	<path fill-rule="evenodd" clip-rule="evenodd" fill="#346D92" d="M87.564,224.878c-12.127,0.019-24.255,0.042-36.383,0.056
		c-7.103,0.008-14.206,0.021-21.309-0.01c-2.708-0.012-3.979-1.138-3.981-3.677c-0.017-14.674-0.239-29.354,0.112-44.021
		c0.338-14.181,11.08-26.438,25.612-30.08c3.861-0.968,7.789-1.27,11.756-1.172c0.152,1.187,0.304,2.373,0.457,3.56
		c-0.035,5.699,0.758,11.321,1.636,16.931c1.471,9.405,3.774,18.58,8.083,27.133c1.858,3.688,3.822,7.347,7.042,10.105
		c1.752,2.685,4.375,4.339,7.036,5.947C87.604,214.726,87.584,219.802,87.564,224.878z"/>
	<path fill-rule="evenodd" clip-rule="evenodd" fill="#7A4B2C" d="M135.749,77.066c-0.334-0.091-0.537-0.294-0.741-0.595
		c-2.72-4.008-6.5-4.07-9.539,0.035c-0.095-4.97-1.403-9.344-4.482-13.086c-4.064-4.939-9.356-7.905-15.419-9.635
		c-1.638-0.467-3.172-0.166-4.613,0.719c-9.57,5.872-20.245,8.234-31.174,9.746c-2.649,0.366-5.323,0.547-7.988,0.798
		c-2.97,0.28-4.941,2.426-5.098,5.7c-0.083,1.73-0.015,3.468-0.015,5.631c-1.799-2.327-3.695-3.48-6.4-2.621
		c-1.818,0.577-2.676,2.081-3.78,3.377c-0.309-8.231,0.223-16.303,3.588-24.02c7.782-17.842,25.777-28.684,45.167-27.059
		c19.59,1.642,36.961,17.979,39.83,37.37C135.755,67.963,135.714,72.511,135.749,77.066z"/>
	<path fill-rule="evenodd" clip-rule="evenodd" fill="#356D92" d="M140.262,151.232c2.382,2.379,2.718,4.96,1.27,8.032
		c-0.939,1.991-1.752,4.061-2.403,6.162c-0.435,1.398-1.039,2.288-2.52,2.749c-1.909,0.595-3.717,1.508-5.581,2.251
		c-1.43,0.569-2.052,1.604-2.031,3.121c0.03,2.277,0.022,4.557,0.007,6.836c-0.01,1.438,0.613,2.425,1.955,2.962
		c2.05,0.82,4.083,1.683,6.147,2.463c0.955,0.36,1.521,0.913,1.804,1.93c0.828,2.975,1.95,5.843,3.577,8.479
		c0.532,0.861,0.412,1.564,0.009,2.422c-0.91,1.937-1.666,3.946-2.574,5.885c-0.694,1.481-0.448,2.725,0.663,3.847
		c1.603,1.618,3.216,3.229,4.831,4.835c1.118,1.11,2.334,1.314,3.848,0.703c2.347-0.948,4.546-2.274,7.057-2.809
		c0.005,3.218,0.031,6.437,0.008,9.653c-0.022,2.94-1.22,4.171-4.16,4.172c-19.239,0.008-38.479-0.009-57.719-0.018
		c-0.036-5.031-0.071-10.063-0.106-15.093c2.693-1.72,5.389-3.436,7.341-6.053c3.742-3.851,6.318-8.45,8.388-13.335
		c5.475-12.925,7.595-26.551,8.271-40.465c0.433-1.303,0.069-2.665,0.294-3.983C126.336,145.706,133.599,147.236,140.262,151.232z"
		/>
	<path fill-rule="evenodd" clip-rule="evenodd" fill="#2783EB" d="M170.073,67.022c11.395,0.008,22.789,0.015,34.184,0.022
		c0.003,7.771-0.005,15.542,0.016,23.312c0.007,2.589,1.423,4.05,3.866,4.063c2.144,0.012,4.294-0.108,6.43,0.027
		c4.218,0.268,7.55,2.017,9.44,6.021c0.264,0.559,0.158,1.396,0.989,1.625c0.017,2.207,0.038,4.418-0.782,6.521
		c-1.57,4.022-5.212,6.419-9.949,6.431c-11.849,0.029-23.696,0.01-35.545,0.011c-5.489,0-10.997-0.287-16.463,0.068
		c-7.988,0.519-13.898-4.615-12.736-13.864c0.453-0.023,0.645-0.289,0.859-0.687c1.665-3.075,4.012-5.2,7.62-5.866
		c2.545-0.47,5.069-0.198,7.601-0.264c3.174-0.083,4.454-1.302,4.458-4.504C170.068,82.299,170.069,74.661,170.073,67.022z"/>
	<path fill-rule="evenodd" clip-rule="evenodd" fill="#449AF5" d="M224.998,102.093c-0.831-0.229-0.726-1.065-0.989-1.625
		c-1.891-4.005-5.223-5.753-9.44-6.021c-2.136-0.135-4.286-0.015-6.43-0.027c-2.443-0.014-3.859-1.474-3.866-4.063
		c-0.021-7.771-0.013-15.541-0.016-23.312c0.022-5.353,0.041-10.706,0.066-16.059c0.016-3.327,1.157-4.488,4.434-4.5
		c2.142-0.008,4.285-0.043,6.425,0.022c5.165,0.159,9.53,4.281,9.656,9.44c0.369,15.182,0.344,30.37,0.269,45.556
		C225.105,101.701,225.036,101.896,224.998,102.093z"/>
	<path fill-rule="evenodd" clip-rule="evenodd" fill="#439AF5" d="M170.073,67.022c-0.004,7.639-0.005,15.277-0.013,22.916
		c-0.004,3.202-1.284,4.421-4.458,4.504c-2.531,0.066-5.056-0.206-7.601,0.264c-3.608,0.666-5.955,2.791-7.62,5.866
		c-0.215,0.398-0.406,0.664-0.859,0.687c-0.039-2.811-0.114-5.622-0.111-8.433c0.012-11.795,0.041-23.589,0.075-35.384
		c0.02-6.745,4.167-10.919,10.863-10.957c1.877-0.01,3.754-0.018,5.63,0.003c2.79,0.03,4.046,1.259,4.062,4.047
		C170.073,56.031,170.065,61.526,170.073,67.022z"/>
	<path fill-rule="evenodd" clip-rule="evenodd" fill="#E1AC7F" d="M73.946,131.446c2.02,0.286,3.641,1.56,5.526,2.21
		c9.3,3.205,18.327,2.571,27.151-1.679c0.476-0.229,0.996-0.366,1.496-0.546c0.033,2.539,0.065,5.078,0.097,7.618
		c-1.451,3.483-4.15,5.807-7.204,7.821c-2.879,1.899-6.21,2.658-9.384,3.817c-0.413,0.006-0.826,0.012-1.239,0.017
		c-0.295-0.454-0.822-0.43-1.25-0.54c-6.439-1.655-11.821-4.808-15.285-10.705C73.884,136.789,73.916,134.117,73.946,131.446z"/>
	<path fill-rule="evenodd" clip-rule="evenodd" fill="#D6DAE1" d="M73.854,139.46c3.464,5.897,8.846,9.05,15.285,10.705
		c0.428,0.11,0.955,0.086,1.25,0.54c-3.786,0.578-7.28,1.909-10.449,4.067c-0.582,0.396-1.334,0.686-1.27,1.605
		c-0.745-0.081-1.288,0.253-1.716,0.828c-0.998,1.342-2.063,2.681-2.528,4.294c-0.447,1.551-1.251,1.43-2.151,0.625
		c-3.155-2.826-6.125-5.8-7.399-10.038c-0.262-0.871-0.356-1.845-1.048-2.554c-0.152-1.187-0.304-2.373-0.457-3.56
		c1.954-2.171,3.85-4.401,6.648-5.577C71.254,139.877,72.473,139.354,73.854,139.46z"/>
	<path fill-rule="evenodd" clip-rule="evenodd" fill="#D6DAE1" d="M91.627,150.688c3.174-1.159,6.505-1.918,9.384-3.817
		c3.054-2.015,5.753-4.338,7.204-7.821c4.324,1.031,7.77,3.383,10.42,6.93c-0.226,1.318,0.139,2.681-0.295,3.983
		c-0.891,0.482-0.806,1.459-1.104,2.23c-1.492,3.855-3.692,7.164-7.072,9.651c-1.305,0.96-1.999,1.189-2.61-0.731
		c-0.668-2.099-2-3.892-3.914-5.142C100.229,152.864,96.068,151.458,91.627,150.688z"/>
	<path fill-rule="evenodd" clip-rule="evenodd" fill="#2A5474" d="M94.342,209.815c0.035,5.03,0.07,10.062,0.106,15.093
		c-2.296,0.304-4.591,0.313-6.884-0.03c0.02-5.076,0.04-10.152,0.06-15.229C89.827,211.116,92.064,211.303,94.342,209.815z"/>
	<path fill-rule="evenodd" clip-rule="evenodd" fill="#8991A0" d="M201.037,176.749c-0.538,13.858-10.423,24.155-24.086,24.149
		c-13.854-0.007-24.066-10.188-24.038-24.046c0.029-13.788,10.152-23.887,23.938-23.943
		C190.439,152.853,200.344,162.937,201.037,176.749z M176.815,187.325c6.29-0.696,10.005-4.033,10.478-10.541
		c0.367-5.062-4.967-10.209-10.297-10.33c-5.275-0.118-10.758,4.975-10.458,10.362C166.892,183.162,170.617,186.625,176.815,187.325
		z"/>
	<path fill-rule="evenodd" clip-rule="evenodd" fill="#D82A37" d="M94.342,209.815c-2.278,1.487-4.515,1.301-6.718-0.167
		c-2.661-1.607-5.283-3.262-7.035-5.947c0.61-5.839,1.195-11.681,1.836-17.516c0.59-5.367,1.242-10.727,1.867-16.09
		c4.542-0.006,9.085-0.013,13.628-0.02c0.449,4.121,0.887,8.243,1.349,12.362c0.797,7.108,1.609,14.216,2.415,21.324
		C99.731,206.38,97.035,208.096,94.342,209.815z"/>
	<path fill-rule="evenodd" clip-rule="evenodd" fill="#EEF0F3" d="M84.292,170.096c-0.625,5.363-1.276,10.723-1.867,16.09
		c-0.642,5.835-1.227,11.677-1.836,17.516c-3.22-2.758-5.184-6.417-7.042-10.104c-4.309-8.553-6.613-17.728-8.083-27.133
		c-0.877-5.609-1.67-11.231-1.636-16.931c0.691,0.709,0.786,1.683,1.048,2.554c1.273,4.238,4.244,7.212,7.399,10.038
		c0.899,0.805,1.704,0.926,2.151-0.625c0.465-1.613,1.53-2.952,2.528-4.294c0.428-0.575,0.972-0.909,1.716-0.828
		C80.543,160.95,82.417,165.523,84.292,170.096z"/>
	<path fill-rule="evenodd" clip-rule="evenodd" fill="#EEF0F3" d="M101.683,203.763c-0.806-7.108-1.617-14.216-2.415-21.324
		c-0.461-4.119-0.9-8.241-1.349-12.362c1.907-4.701,3.814-9.402,5.722-14.104c1.914,1.25,3.245,3.043,3.914,5.142
		c0.612,1.921,1.305,1.691,2.61,0.731c3.38-2.487,5.58-5.796,7.072-9.651c0.298-0.771,0.213-1.748,1.104-2.23
		c-0.675,13.914-2.795,27.54-8.27,40.465C108.001,195.313,105.425,199.912,101.683,203.763z"/>
	<path fill-rule="evenodd" clip-rule="evenodd" fill="#EB3C49" d="M103.642,155.972c-1.907,4.702-3.814,9.403-5.722,14.104
		c-4.543,0.007-9.086,0.014-13.628,0.02c-1.874-4.572-3.748-9.146-5.622-13.718c-0.064-0.92,0.688-1.209,1.27-1.605
		c3.169-2.158,6.663-3.489,10.449-4.067c0.414-0.005,0.827-0.011,1.239-0.017C96.068,151.458,100.229,152.864,103.642,155.972z"/>
	<path fill-rule="evenodd" clip-rule="evenodd" fill="#A4ABB4" d="M176.815,187.325c-6.198-0.7-9.924-4.163-10.277-10.509
		c-0.3-5.388,5.183-10.48,10.458-10.362c5.33,0.121,10.664,5.269,10.297,10.33C186.82,183.292,183.105,186.629,176.815,187.325z"/>
</g>
</svg>
