<?xml version="1.0" encoding="utf-8"?>
<!-- Generator: Adobe Illustrator 16.0.0, SVG Export Plug-In . SVG Version: 6.00 Build 0)  -->
<!DOCTYPE svg PUBLIC "-//W3C//DTD SVG 1.1//EN" "http://www.w3.org/Graphics/SVG/1.1/DTD/svg11.dtd">
<svg version="1.1" id="Layer_1" xmlns="http://www.w3.org/2000/svg" xmlns:xlink="http://www.w3.org/1999/xlink" x="0px" y="0px"
	 width="250px" height="250px" viewBox="0 0 250 250" enable-background="new 0 0 250 250" xml:space="preserve">
<g>
	<path fill-rule="evenodd" clip-rule="evenodd" fill="#F5CEBD" d="M171.815,121.983c-2.64,8.761-7.252,16.31-13.936,22.568
		c-1.16,1.085-2.436,2.05-3.68,3.043c-0.542,0.432-1.188,0.757-1.209,1.577c-2.293,0.254-3.884,1.886-5.77,2.941
		c-0.66,0.159-1.312,0.34-1.762,0.908c-0.785,0.258-1.583,0.482-2.354,0.777c-8.299,3.183-16.783,4.175-25.613,2.698
		c-4.205-0.703-8.106-2.227-12.117-3.476c-0.689-0.684-1.544-1.041-2.47-1.261c-1.421-0.873-2.843-1.747-4.265-2.62
		c-5.359-3.885-10.028-8.422-13.604-14.051c-2.354-3.703-4.229-7.605-5.567-11.778c-0.228-0.709-0.294-1.498-0.871-2.064
		c-0.065-0.68-0.041-1.383-0.209-2.036c-1.065-4.138-1.534-8.339-1.469-12.605c-0.023-6.71,0.463-13.39,1.177-20.057
		c0.905-6.296,2.349-12.456,4.635-18.404c0.444-0.792,0.762-1.241,2.014-0.974c3.088,0.658,6.128,1.649,9.319,1.783
		c0.31,0.143,0.607,0.361,0.932,0.416c5.302,0.886,10.61,1.741,15.914,2.622c12.17,2.023,24.405,3.336,36.758,3.4
		c6.531,0.033,13.063-0.068,19.47-1.467c1.545-0.337,1.916,0.044,2.159,1.403c0.695,3.891,1.484,7.764,2.236,11.644
		c0.968,6.494,2.088,12.97,2.418,19.543C174.057,111.783,173.039,116.897,171.815,121.983z M103.36,88.617
		c-3.669-0.024-6.917,1.248-9.958,3.187c-1.004,0.641-1.925,1.372-1.135,2.664c0.777,1.272,1.837,0.896,2.871,0.221
		c1.575-1.028,3.241-1.855,5.087-2.304c4.337-1.054,8.225,0.197,11.938,2.31c1.128,0.642,2.267,1.081,3.003-0.373
		c0.681-1.344-0.368-2.018-1.368-2.593C110.564,89.872,107.138,88.655,103.36,88.617z M158.843,93.783
		c0.005-0.849-0.398-1.318-0.938-1.671c-0.695-0.455-1.404-0.894-2.136-1.29c-6.704-3.631-13.103-2.492-19.315,1.278
		c-0.863,0.524-1.335,1.298-0.776,2.278c0.584,1.025,1.476,1.168,2.49,0.582c0.42-0.243,0.847-0.476,1.274-0.706
		c5.445-2.926,10.83-3.151,16.143,0.345c0.4,0.264,0.835,0.571,1.288,0.642C158.059,95.424,158.662,94.759,158.843,93.783z
		 M152.166,108.7c0.004-2.758-2.296-5.04-5.054-5.016c-2.675,0.023-4.908,2.227-4.965,4.897c-0.059,2.752,2.203,5.092,4.951,5.123
		C149.856,113.735,152.162,111.458,152.166,108.7z M124.324,145.485c4.611,0.008,8.489-1.23,11.502-3.303
		c0.938-0.646,1.757-1.334,1.008-2.525c-0.695-1.107-1.59-0.985-2.667-0.296c-5.858,3.752-11.757,3.728-17.594-0.063
		c-1.002-0.65-1.827-0.693-2.523,0.279c-0.75,1.048-0.189,1.827,0.702,2.446C117.911,144.223,121.428,145.343,124.324,145.485z
		 M108.688,108.666c-0.015-2.758-2.329-5.023-5.088-4.981c-2.672,0.041-4.891,2.261-4.93,4.932
		c-0.041,2.753,2.236,5.077,4.986,5.088C106.415,113.716,108.702,111.426,108.688,108.666z M125.315,130.461
		c1.825-0.152,3.438-0.799,4.655-2.29c0.628-0.771,0.621-1.508-0.071-2.214c-0.616-0.628-1.401-0.812-2.034-0.192
		c-1.645,1.609-3.173,1.689-4.848,0.037c-0.711-0.702-1.547-0.46-2.184,0.262c-0.587,0.667-0.587,1.387-0.003,2.058
		C122.005,129.47,123.398,130.419,125.315,130.461z"/>
	<path fill-rule="evenodd" clip-rule="evenodd" fill="#EEEFEF" d="M46.816,181.002c2.086-2.405,5.04-3.325,7.821-4.514
		c8.997-3.848,18.428-6.333,27.862-8.8c0.329-0.085,0.691-0.038,1.038-0.053c0.023,1.874-0.078,3.762,0.104,5.62
		c0.176,1.792-0.459,2.424-2.225,2.782c-8.54,1.736-14.609,9.334-14.487,17.896c-0.013,5.637-0.041,11.273-0.029,16.91
		c0.003,1.737,0.686,3.199,1.881,4.494c2.309,2.502,5.284,2.058,8.186,2.013c1.108,0.013,2.218,0.069,3.324,0.024
		c0.949-0.039,1.581-0.588,1.621-1.554c0.043-1.06-0.556-1.71-1.621-1.759c-1.105-0.051-2.216,0.011-3.324,0.023
		c-0.763-0.013-1.527-0.035-2.291-0.038c-3.426-0.016-4.434-1.03-4.442-4.484c-0.013-5.209-0.025-10.418-0.038-15.628
		c0.906-10.286,8.927-16.604,18.426-14.515c-1.331,2.501-2.666,5-3.991,7.504c-1.061,2.006-0.919,2.192,1.335,2.467
		c2.666,0.325,5.312,0.805,7.978,1.124c1.161,0.14,1.28,0.571,1,1.626c-0.924,3.472-1.735,6.975-2.581,10.468
		c-0.124,0.511-0.549,1.062-0.002,1.548c2.623,2.332,4.553,5.449,7.887,6.977c-0.297,2.073-1.626,2.883-3.582,2.909
		c-1.579,0.022-3.159,0.029-4.738,0.043c-1.108-0.013-2.22-0.08-3.324-0.021c-1.052,0.056-1.669,0.692-1.623,1.76
		c0.042,0.97,0.676,1.512,1.623,1.55c1.105,0.046,2.215-0.011,3.324-0.023c3.881,0.04,7.961,0.806,10.815-2.938
		c4.1,2.898,7.255,6.839,11.066,10.066c1.541,1.305,3.319,2.547,4.093,4.6c-18.123,0.003-36.246,0.005-54.368,0.008
		c-3.06-8.836-6.112-17.676-9.182-26.508C51.851,195.383,49.329,188.194,46.816,181.002z"/>
	<path fill-rule="evenodd" clip-rule="evenodd" fill="#EEEFEF" d="M174.993,169.807c2.075-0.22,3.946,0.695,5.819,1.269
		c6.806,2.083,13.627,4.173,19.971,7.5c1.025,0.538,2.132,1.001,2.812,2.034c0.127,1.011-0.279,1.914-0.594,2.827
		c-2.825,8.197-5.671,16.387-8.492,24.585c-2.415,7.018-4.806,14.043-7.208,21.065c-18.123-0.003-36.245-0.005-54.368-0.008
		c1.175-2.455,3.365-4.028,5.271-5.788c6.624-6.12,13.252-12.232,19.718-18.52c0.679-0.66,0.844-1.239,0.584-2.183
		c-0.884-3.199-1.636-6.436-2.445-9.655c-0.566-2.256-0.35-2.438,2.03-2.739c2.962-0.375,5.962-0.596,8.979-1.441
		c-4.326-8.137-8.558-16.096-12.79-24.055c1.412-0.128,2.732,0.341,4.089,0.602c4.2,0.809,8.243,2.33,12.526,2.752
		c1.017,2.561,1.331,5.24,1.338,7.968c0.012,5.43,0.01,10.858,0.013,16.288c-2.184,0.586-4.092,1.569-5.676,3.278
		c-2.908,3.136-3.579,7.816-1.492,11.575c2.079,3.742,6.891,5.989,10.79,5.038c4.569-1.115,7.867-4.871,8.071-9.196
		c0.244-5.142-2.458-8.599-8.358-10.695C175.355,184.808,176.166,177.281,174.993,169.807z"/>
	<path fill-rule="evenodd" clip-rule="evenodd" fill="#685B5D" d="M174.694,50.588c2.026,3.527,3.588,7.233,4.36,11.246
		c-1.043,0.013-2.087,0.037-3.131,0.037c-35.903,0.003-71.808,0.003-107.712,0.004c1.02-4.057,2.323-7.993,4.901-11.379
		c0.707,0.864,1.685,0.49,2.538,0.49c31.922,0.02,63.843,0.014,95.765,0.028C172.538,51.015,173.629,50.941,174.694,50.588z"/>
	<path fill-rule="evenodd" clip-rule="evenodd" fill="#FECE97" d="M132.076,229.068c-4.438,0-8.878,0-13.317,0
		c-0.15-0.745-0.305-1.49-0.448-2.236c-2.202-11.482-4.462-22.954-6.577-34.452c-0.925-5.03-2.217-10.001-2.632-15.122
		c0.575-0.048,1.079,0.151,1.597,0.379c7.132,3.132,14.502,3.61,22.134,2.284c3.107-0.541,5.885-1.955,8.903-2.658
		c0.057,3.016-0.872,5.889-1.411,8.802C137.672,200.417,134.843,214.736,132.076,229.068z"/>
	<path fill-rule="evenodd" clip-rule="evenodd" fill="#E4E5E6" d="M187.301,229.087c2.402-7.022,4.793-14.048,7.208-21.065
		c2.821-8.198,5.667-16.388,8.492-24.585c0.314-0.913,0.721-1.816,0.594-2.827c2.579,1.736,4.249,4.324,6.012,6.752
		c8.739,12.031,14.865,25.331,18.883,39.63c0.419,1.491,0.46,2.163-1.506,2.15C213.757,229.052,200.528,229.09,187.301,229.087z"/>
	<path fill-rule="evenodd" clip-rule="evenodd" fill="#E4E5E6" d="M46.816,181.002c2.513,7.192,5.035,14.381,7.536,21.577
		c3.07,8.832,6.122,17.672,9.182,26.508c-13.238,0.003-26.475-0.022-39.711,0.043c-1.783,0.009-2.003-0.378-1.528-2.084
		c3.514-12.615,8.766-24.447,15.941-35.386C40.733,187.851,43.212,183.953,46.816,181.002z"/>
	<path fill-rule="evenodd" clip-rule="evenodd" fill="#E4E5E6" d="M132.076,229.068c2.767-14.332,5.596-28.651,8.249-43.004
		c0.539-2.913,1.468-5.786,1.411-8.802c1.071-3.252,1.538-6.627,2.033-9.996c0.386-1.67,0.968-3.306,0.883-5.059
		c0.295-1.121,0.589-2.243,0.884-3.364c3.871,0.523,6.798,2.457,8.744,5.854c4.231,7.959,8.463,15.918,12.789,24.055
		c-3.018,0.846-6.018,1.066-8.979,1.441c-2.38,0.301-2.597,0.483-2.03,2.739c0.81,3.22,1.562,6.456,2.445,9.655
		c0.26,0.943,0.095,1.522-0.584,2.183c-6.466,6.287-13.094,12.399-19.718,18.52c-1.905,1.76-4.096,3.333-5.271,5.788
		C132.647,229.075,132.361,229.071,132.076,229.068z"/>
	<path fill-rule="evenodd" clip-rule="evenodd" fill="#6F6162" d="M174.694,50.588c-1.065,0.353-2.156,0.426-3.278,0.426
		c-31.922-0.015-63.843-0.008-95.765-0.028c-0.853,0-1.831,0.374-2.538-0.49c0.678-1.665,2.003-2.845,3.369-3.829
		c1.557-1.122,2.481-2.483,2.945-4.286c0.22-0.854,0.591-1.671,1.215-2.336c0.582,1.295,1.756,0.911,2.743,0.912
		c26.258,0.015,52.517,0.012,78.776,0.012c1.803,0,3.611,0.097,5.375-0.413C170.374,43.578,172.859,46.852,174.694,50.588z"/>
	<path fill-rule="evenodd" clip-rule="evenodd" fill="#756567" d="M167.536,40.557c-1.764,0.51-3.572,0.413-5.375,0.413
		c-26.259,0-52.518,0.002-78.776-0.012c-0.987,0-2.161,0.384-2.743-0.912c2.343-4.583,5.926-7.934,10.367-10.432
		c0.745,0.456,1.566,0.494,2.414,0.493c19.359-0.009,38.717-0.004,58.076-0.016c0.727,0,1.578,0.249,2.022-0.667
		C158.835,32.327,163.525,36.015,167.536,40.557z"/>
	<path fill-rule="evenodd" clip-rule="evenodd" fill="#615657" d="M68.212,61.875c35.904-0.001,71.809-0.001,107.712-0.004
		c1.044,0,2.088-0.024,3.131-0.037c0.669,2.051,1.117,4.14,1.109,6.31c-5.909,0-11.818,0-17.727,0
		c-22.037,0-44.074-0.007-66.11,0.025c-0.778,0.001-1.896-0.568-2.262,0.784c-3.191-0.134-6.231-1.125-9.319-1.783
		c-1.251-0.267-1.569,0.182-2.014,0.974c-1.064-0.349-2.152-0.441-3.274-0.431c-4.029,0.033-8.059,0.013-12.088,0.014
		C67.38,65.738,67.869,63.817,68.212,61.875z"/>
	<path fill-rule="evenodd" clip-rule="evenodd" fill="#E4E5E6" d="M109.102,177.258c0.415,5.121,1.707,10.092,2.632,15.122
		c2.115,11.498,4.375,22.97,6.577,34.452c0.143,0.746,0.298,1.491,0.448,2.236c-0.286,0.003-0.571,0.008-0.857,0.011
		c-0.773-2.053-2.552-3.295-4.093-4.6c-3.811-3.228-6.966-7.168-11.065-10.066c0.37-1.184,0.954-2.295,0.945-3.597
		c-0.038-5.627-0.035-11.254-0.047-16.882c0.084-7.961-4.515-14.209-12.994-17.653c0.078-0.863,0.607-1.523,0.96-2.272
		c1.473-3.118,3.623-5.907,4.546-9.291c2.432-2.919,5.06-5.531,9.145-5.874c0.324,1.115,0.272,2.327,0.867,3.374
		c-0.025,1.736,0.497,3.377,0.89,5.04C107.545,170.631,108.052,174,109.102,177.258z"/>
	<path fill-rule="evenodd" clip-rule="evenodd" fill="#5C5254" d="M94.065,68.954c0.366-1.353,1.483-0.783,2.262-0.784
		c22.037-0.032,44.073-0.025,66.11-0.025c5.908,0,11.817,0,17.727,0c1.03,6.328,0.147,12.579-0.76,18.829
		c-2.623,0-5.247-0.001-7.87-0.002c-0.752-3.88-1.541-7.753-2.236-11.644c-0.243-1.359-0.614-1.741-2.159-1.403
		c-6.406,1.398-12.938,1.5-19.47,1.467c-12.353-0.063-24.587-1.377-36.758-3.4c-5.303-0.881-10.611-1.736-15.914-2.622
		C94.672,69.315,94.375,69.096,94.065,68.954z"/>
	<path fill-rule="evenodd" clip-rule="evenodd" fill="#7C6B6C" d="M153.521,29.425c-0.444,0.916-1.296,0.666-2.022,0.667
		c-19.358,0.011-38.717,0.007-58.076,0.016c-0.848,0-1.669-0.037-2.414-0.493c4.664-3.217,9.953-4.91,15.414-6.01
		c14.913-3.004,29.591-2.977,43.623,3.937C151.228,28.122,152.364,28.794,153.521,29.425z"/>
	<path fill-rule="evenodd" clip-rule="evenodd" fill="#464547" d="M90.648,176.281c8.479,3.444,13.079,9.692,12.994,17.653
		c-1.091,0-2.182,0-3.273,0.001c-0.707-7.777-4.821-12.861-11.747-14.514c-9.5-2.09-17.521,4.229-18.426,14.515
		c-1.089,0-2.178-0.001-3.267-0.002c-0.122-8.563,5.948-16.16,14.487-17.896c1.766-0.358,2.401-0.99,2.225-2.782
		c-0.183-1.858-0.081-3.746-0.104-5.62c0.682-10.027,5.856-16.364,15.104-18.496c1.422,0.873,2.843,1.747,4.265,2.62
		c-0.542,0.63-1.292,0.393-1.959,0.445c-7.6,0.605-13.482,6.599-13.894,14.173c-0.03,1.785-0.081,3.57-0.087,5.354
		C86.952,175.479,86.961,175.479,90.648,176.281z"/>
	<path fill-rule="evenodd" clip-rule="evenodd" fill="#EFB9A6" d="M76.921,106.606c-0.064,4.267,0.404,8.468,1.469,12.605
		c0.168,0.653,0.144,1.355,0.209,2.036c-3.265,1.578-6.245,0.869-8.95-1.265c-5.042-3.976-7.35-11.675-5.367-17.477
		c1.091-3.193,3.268-5.249,6.402-6.363c0.446,0.917,0.866,1.847,1.343,2.748C73.457,101.588,74.567,104.493,76.921,106.606z"/>
	<path fill-rule="evenodd" clip-rule="evenodd" fill="#5C5254" d="M67.371,67.727c4.029,0,8.059,0.019,12.088-0.014
		c1.122-0.01,2.209,0.083,3.274,0.431c-2.286,5.948-3.73,12.108-4.635,18.404c-3.317-0.003-6.634-0.007-9.952-0.011
		C66.623,80.32,66.566,74.042,67.371,67.727z"/>
	<path fill-rule="evenodd" clip-rule="evenodd" fill="#EFB9A6" d="M171.815,121.983c1.224-5.086,2.241-10.2,2.137-15.469
		c1.927-3.238,2.528-6.963,3.824-10.433c3.858,0.624,7.287,4.248,7.734,8.731c0.603,6.043-1.395,11.22-6.062,15.221
		C177.253,121.916,174.616,122.336,171.815,121.983z"/>
	<path fill-rule="evenodd" clip-rule="evenodd" fill="#464547" d="M174.993,169.807c1.173,7.475,0.362,15.001,0.587,22.501
		c-1.111,0-2.224,0-3.335,0c-0.003-5.43-0.001-10.858-0.013-16.288c-0.007-2.728-0.321-5.407-1.338-7.968
		c-0.843-2.927-2.405-5.454-4.382-7.73c-5.091-5.865-11.664-8.284-19.291-8.209c1.886-1.056,3.477-2.688,5.77-2.941
		C164.607,151.483,171.885,158.423,174.993,169.807z"/>
	<path fill-rule="evenodd" clip-rule="evenodd" fill="#464547" d="M68.146,86.538c3.317,0.003,6.635,0.007,9.952,0.011
		c-0.714,6.667-1.2,13.347-1.177,20.057c-2.354-2.113-3.464-5.018-4.894-7.716c-0.477-0.901-0.897-1.831-1.343-2.748
		C69.748,92.964,68.47,89.877,68.146,86.538z"/>
	<path fill-rule="evenodd" clip-rule="evenodd" fill="#464547" d="M177.776,96.082c-1.296,3.47-1.897,7.194-3.824,10.433
		c-0.33-6.573-1.45-13.049-2.418-19.543c2.623,0,5.247,0.001,7.87,0.002C179.312,90.09,178.207,93.025,177.776,96.082z"/>
	<path fill-rule="evenodd" clip-rule="evenodd" fill="#EDB09C" d="M106.166,162.218c-0.595-1.047-0.543-2.259-0.867-3.374
		c0.025-1.941,0.051-3.882,0.077-5.823c4.011,1.249,7.913,2.772,12.117,3.476c8.83,1.477,17.314,0.484,25.613-2.698
		c0.771-0.295,1.568-0.52,2.354-0.777c0.025,1.94,0.051,3.882,0.076,5.823c-0.295,1.121-0.589,2.243-0.884,3.364
		C131.823,162.212,118.995,162.215,106.166,162.218z"/>
	<path fill-rule="evenodd" clip-rule="evenodd" fill="#464547" d="M103.36,88.617c3.778,0.039,7.205,1.255,10.439,3.113
		c1,0.575,2.049,1.249,1.368,2.593c-0.736,1.454-1.875,1.015-3.003,0.373c-3.714-2.113-7.601-3.364-11.938-2.31
		c-1.846,0.449-3.512,1.275-5.087,2.304c-1.034,0.675-2.094,1.051-2.871-0.221c-0.79-1.292,0.131-2.023,1.135-2.664
		C96.442,89.864,99.69,88.593,103.36,88.617z"/>
	<path fill-rule="evenodd" clip-rule="evenodd" fill="#464547" d="M158.843,93.783c-0.181,0.977-0.784,1.642-1.971,1.457
		c-0.453-0.071-0.888-0.378-1.288-0.642c-5.313-3.496-10.697-3.271-16.143-0.345c-0.428,0.23-0.854,0.463-1.274,0.706
		c-1.015,0.587-1.906,0.443-2.49-0.582c-0.559-0.979-0.087-1.754,0.776-2.278c6.213-3.771,12.611-4.91,19.315-1.278
		c0.731,0.396,1.44,0.834,2.136,1.29C158.444,92.464,158.848,92.934,158.843,93.783z"/>
	<path fill-rule="evenodd" clip-rule="evenodd" fill="#464547" d="M152.166,108.7c-0.004,2.758-2.31,5.035-5.067,5.004
		c-2.748-0.031-5.01-2.37-4.951-5.123c0.057-2.671,2.29-4.874,4.965-4.897C149.87,103.661,152.17,105.942,152.166,108.7z"/>
	<path fill-rule="evenodd" clip-rule="evenodd" fill="#EDB09C" d="M124.324,145.485c-2.896-0.143-6.413-1.263-9.572-3.461
		c-0.891-0.619-1.451-1.398-0.702-2.446c0.696-0.973,1.521-0.93,2.523-0.279c5.836,3.79,11.735,3.814,17.594,0.063
		c1.077-0.689,1.972-0.812,2.667,0.296c0.749,1.191-0.07,1.88-1.008,2.525C132.813,144.255,128.935,145.493,124.324,145.485z"/>
	<path fill-rule="evenodd" clip-rule="evenodd" fill="#464547" d="M108.688,108.666c0.014,2.761-2.272,5.051-5.033,5.039
		c-2.75-0.011-5.026-2.335-4.986-5.088c0.039-2.67,2.258-4.891,4.93-4.932C106.359,103.642,108.673,105.907,108.688,108.666z"/>
	<path fill-rule="evenodd" clip-rule="evenodd" fill="#EDB09C" d="M125.315,130.461c-1.917-0.042-3.311-0.991-4.485-2.34
		c-0.584-0.671-0.584-1.391,0.003-2.058c0.637-0.722,1.473-0.964,2.184-0.262c1.674,1.652,3.203,1.572,4.848-0.037
		c0.633-0.619,1.418-0.436,2.034,0.192c0.692,0.706,0.699,1.443,0.071,2.214C128.754,129.662,127.141,130.309,125.315,130.461z"/>
	<path fill-rule="evenodd" clip-rule="evenodd" fill="#E4E5E6" d="M88.622,179.422c6.926,1.652,11.041,6.736,11.747,14.514
		c-0.04,5.732-0.08,11.466-0.121,17.199c-3.334-1.527-5.264-4.645-7.887-6.977c-0.547-0.486-0.122-1.037,0.002-1.548
		c0.845-3.493,1.657-6.996,2.581-10.468c0.281-1.055,0.161-1.486-1-1.626c-2.666-0.319-5.313-0.799-7.978-1.124
		c-2.254-0.274-2.396-0.461-1.335-2.467C85.956,184.422,87.291,181.923,88.622,179.422z"/>
	<path fill-rule="evenodd" clip-rule="evenodd" fill="#AAAEB1" d="M100.249,211.135c0.041-5.733,0.081-11.467,0.121-17.199
		c1.091-0.001,2.182-0.001,3.273-0.001c0.012,5.628,0.01,11.255,0.047,16.882c0.008,1.302-0.576,2.413-0.945,3.597
		c-2.854,3.744-6.934,2.979-10.815,2.938c0-1.088,0-2.177,0-3.265c1.579-0.014,3.159-0.021,4.738-0.043
		C98.623,214.018,99.951,213.208,100.249,211.135z"/>
	<path fill-rule="evenodd" clip-rule="evenodd" fill="#AAAEB1" d="M66.929,193.935c1.089,0.001,2.178,0.002,3.267,0.002
		c0.013,5.21,0.025,10.419,0.038,15.628c0.008,3.454,1.016,4.469,4.442,4.484c0.763,0.003,1.527,0.025,2.291,0.038
		c0,1.088,0,2.177,0,3.265c-2.902,0.045-5.877,0.489-8.186-2.013c-1.195-1.295-1.877-2.757-1.881-4.494
		C66.888,205.208,66.916,199.571,66.929,193.935z"/>
	<path fill-rule="evenodd" clip-rule="evenodd" fill="#464547" d="M76.966,217.352c0-1.088,0-2.177,0-3.265
		c1.108-0.013,2.219-0.074,3.324-0.023c1.065,0.049,1.664,0.699,1.621,1.759c-0.04,0.966-0.672,1.515-1.621,1.554
		C79.185,217.421,78.075,217.364,76.966,217.352z"/>
	<path fill-rule="evenodd" clip-rule="evenodd" fill="#464547" d="M91.929,214.087c0,1.088,0,2.177,0,3.265
		c-1.108,0.013-2.218,0.069-3.324,0.023c-0.946-0.038-1.581-0.58-1.623-1.55c-0.046-1.067,0.571-1.704,1.623-1.76
		C89.709,214.007,90.82,214.074,91.929,214.087z"/>
	<path fill-rule="evenodd" clip-rule="evenodd" fill="#AAAEB1" d="M172.245,192.308c1.111,0,2.224,0,3.335,0
		c5.9,2.097,8.603,5.554,8.358,10.695c-0.204,4.325-3.502,8.081-8.071,9.196c-3.899,0.951-8.711-1.296-10.79-5.038
		c-2.087-3.759-1.416-8.439,1.492-11.575C168.153,193.877,170.062,192.894,172.245,192.308z M167.224,202.272
		c-0.032,3.652,2.884,6.676,6.516,6.758c3.745,0.085,6.829-2.891,6.862-6.621c0.032-3.747-2.98-6.773-6.726-6.757
		C170.223,195.669,167.255,198.621,167.224,202.272z"/>
	<path fill-rule="evenodd" clip-rule="evenodd" fill="#FEAC6B" d="M109.102,177.258c-1.05-3.258-1.557-6.627-2.046-10.001
		c5.794,4.663,12.408,6.961,19.842,6.643c6.356-0.271,11.979-2.561,16.871-6.633c-0.495,3.369-0.962,6.744-2.033,9.996
		c-3.019,0.703-5.796,2.117-8.903,2.658c-7.632,1.326-15.002,0.848-22.134-2.284C110.181,177.409,109.677,177.21,109.102,177.258z"
		/>
	<path fill-rule="evenodd" clip-rule="evenodd" fill="#EFB9A6" d="M143.77,167.267c-4.893,4.072-10.515,6.361-16.871,6.633
		c-7.434,0.318-14.048-1.979-19.842-6.643c-0.393-1.662-0.916-3.303-0.89-5.039c12.829-0.003,25.657-0.006,38.486-0.01
		C144.737,163.961,144.155,165.597,143.77,167.267z"/>
	<path fill-rule="evenodd" clip-rule="evenodd" fill="#EEEFEF" d="M87.053,166.378c2.287-0.112,4.451-0.849,6.655-1.357
		c0.821-0.19,1.616-0.315,2.446-0.303c-0.923,3.384-3.073,6.173-4.546,9.291c-0.353,0.749-0.882,1.409-0.96,2.272
		c-3.687-0.802-3.696-0.802-3.682-4.549C86.972,169.948,87.022,168.163,87.053,166.378z"/>
	<path fill-rule="evenodd" clip-rule="evenodd" fill="#615657" d="M167.224,202.272c0.031-3.651,2.999-6.604,6.652-6.62
		c3.745-0.017,6.758,3.01,6.726,6.757c-0.033,3.73-3.117,6.706-6.862,6.621C170.107,208.948,167.191,205.925,167.224,202.272z"/>
</g>
</svg>
