<?xml version="1.0" encoding="utf-8"?>
<!-- Generator: Adobe Illustrator 16.0.0, SVG Export Plug-In . SVG Version: 6.00 Build 0)  -->
<!DOCTYPE svg PUBLIC "-//W3C//DTD SVG 1.1//EN" "http://www.w3.org/Graphics/SVG/1.1/DTD/svg11.dtd">
<svg version="1.1" id="Layer_1" xmlns="http://www.w3.org/2000/svg" xmlns:xlink="http://www.w3.org/1999/xlink" x="0px" y="0px"
	 width="250px" height="250px" viewBox="0 0 250 250" enable-background="new 0 0 250 250" xml:space="preserve">
<g>
	<path fill-rule="evenodd" clip-rule="evenodd" fill="#D8F8FB" d="M157.083,227.619c-7.577,2.713-15.401,4.346-23.367,5.365
		c-1.391,0.178-2.856-0.401-4.179,0.426c-2.187,0-4.374,0-6.561,0c-0.248-0.651-0.892-0.803-1.406-1.118
		c-8.757-5.354-16.248-12.121-22.614-20.165c-3.476-4.393-6.365-9.162-9.185-13.98c-0.043-3.564-0.086-7.129-0.129-10.693
		c1.61-0.725,2.236-1.922,2.105-3.715c-0.143-1.959-0.056-3.938-0.026-5.907c0.021-1.39-0.523-2.334-1.901-2.723
		c-0.293-6.652-0.144-13.308-0.079-19.962c2.664-0.503,5.328-1.006,7.992-1.51c2.95,3.43,6.278,6.439,10.181,8.737
		c7.494,4.411,15.375,5.834,23.859,3.126c6.981-2.229,12.51-6.459,17.268-11.865c2.662,0.504,5.324,1.009,7.986,1.513
		c0.066,6.625,0.231,13.251-0.088,19.875c-1.489,0.27-1.964,1.267-1.953,2.656c0.018,2.318,0.042,4.638-0.009,6.955
		c-0.032,1.517,0.594,2.466,2.063,2.853c0.019,4.374,0.036,8.747,0.056,13.121c-0.001,8.751-0.001,17.502-0.001,26.253
		C157.091,227.113,157.087,227.366,157.083,227.619z"/>
	<path fill-rule="evenodd" clip-rule="evenodd" fill="#FEDC40" d="M100.43,29.609c3.328-2.867,7.128-4.796,11.419-5.748
		c0.329-0.073,0.671-0.076,0.875-0.404c1.367,0,2.734,0,4.101,0c2.435,0.657,4.418,1.997,5.903,4.025
		c0.512,0.7,0.808,0.697,1.318,0.001c1.484-2.029,3.465-3.371,5.901-4.026c1.366,0,2.733,0,4.101,0
		c6.359,1.571,11.656,4.911,16.12,9.651c0.172,0.183,0.48,0.238,0.726,0.353c0.101,0.249,0.141,0.551,0.31,0.738
		c4.48,5.009,7.875,10.703,10.565,16.829c2.442,5.561,4.255,11.329,4.625,17.412c0.252,4.142,0.042,8.313,0.037,12.469
		c-2.486-0.545-4.887-0.602-6.962,1.214c-4.356-0.042-8.646-0.497-12.742-2.11c0.91-1.151,1.735-2.306,0.948-3.891
		c-0.797-1.604-2.178-1.862-3.776-1.832c-2.729,0.052-5.46,0.027-8.189,0.035c-5.438-4.54-9.564-10.077-12.443-16.918
		c-2.771,6.949-6.914,12.362-12.216,16.923c-3.538,0.021-7.077,0.042-10.615,0.062c-0.561-1.008-1.153-2.001-1.677-3.028
		c-3.542-6.949-4.877-14.347-4.488-22.099c0.337-6.708,1.962-12.992,6.013-18.488C100.558,30.404,101.033,30.083,100.43,29.609z"/>
	<path fill-rule="evenodd" clip-rule="evenodd" fill="#9FEFFC" d="M89.771,198.146c2.82,4.818,5.708,9.588,9.185,13.98
		c6.366,8.044,13.857,14.811,22.614,20.165c0.515,0.315,1.159,0.467,1.406,1.118c-2.187,0-4.374,0-6.561,0
		c-3.005-0.412-6.02-0.768-9.014-1.249c-6.055-0.976-11.997-2.42-17.754-4.563c0.009-9.258,0.018-18.515,0.027-27.772
		C89.706,199.267,89.739,198.706,89.771,198.146z"/>
	<path fill-rule="evenodd" clip-rule="evenodd" fill="#FEFEFE" d="M129.947,23.458c-2.437,0.655-4.417,1.997-5.901,4.026
		c-0.51,0.696-0.806,0.699-1.318-0.001c-1.485-2.028-3.468-3.368-5.903-4.025C121.199,23.458,125.573,23.458,129.947,23.458z"/>
	<path fill-rule="evenodd" clip-rule="evenodd" fill="#FE7ACA" d="M169.336,43.906c2.339,0.474,4.189,1.944,6.13,3.156
		c25.179,15.712,40.704,38.178,46.654,67.219c1.535,7.496,2.067,15.131,1.683,22.785c-0.962,19.089-6.626,36.64-17.429,52.469
		c-0.15,0.22-0.379,0.386-0.571,0.575c-1.663-4.021-3.474-7.989-4.959-12.075c-3.289-9.047-9.949-13.985-19.041-16.109
		c-0.037-0.78-0.074-1.561-0.111-2.342c2.37-2.821,4.372-5.891,6.125-9.125c5.125-9.452,8.271-19.44,9.095-30.25
		c0.454-5.969,0.22-11.839-0.675-17.677c-1.321-8.624-4.311-16.732-8.591-24.336c-2.269-4.031-4.791-7.904-8.026-11.258
		C177.982,58.461,174.721,50.71,169.336,43.906z"/>
	<path fill-rule="evenodd" clip-rule="evenodd" fill="#FEC73A" d="M169.336,43.906c5.385,6.804,8.646,14.555,10.283,23.032
		c0.274,2.774,0.778,5.521,0.789,8.326c0.025,6.41-0.034,12.818,0.318,19.227c0.396,7.177,1.169,14.239,3.99,20.957
		c1.311,3.123-0.721,5.966-4.102,6.038c-3.727,0.08-7.32-0.646-10.815-1.865c-5.949-2.075-10.765-5.774-14.819-10.529
		c0.123-1.194,0.42-2.326,1.183-3.29c6.924-3.541,10.807-9.413,12.489-16.787c0.67-2.938,0.785-6.027-2.222-8.102
		c0.005-4.157,0.215-8.328-0.037-12.47c-0.37-6.083-2.183-11.851-4.625-17.412c-2.69-6.126-6.085-11.82-10.565-16.829
		c-0.169-0.188-0.209-0.489-0.31-0.738c7.47,0.77,13.124,4.795,18.076,10.079c0.125,0.135,0.251,0.27,0.377,0.405L169.336,43.906z"
		/>
	<path fill-rule="evenodd" clip-rule="evenodd" fill="#D8F8FB" d="M181.803,161.923c9.092,2.126,15.752,7.064,19.041,16.111
		c1.485,4.086,3.296,8.054,4.959,12.075c-1.326,2.711-3.361,4.928-5.243,7.216c-2.589,3.151-5.401,6.128-8.403,8.904
		c-0.282,0.261-0.702,0.374-1.058,0.556c-0.019-2.514-0.021-5.027-0.061-7.54c-0.02-1.254-0.101-2.493-1.752-2.747
		c-1.706-0.263-2.487,0.583-2.843,2.145c-0.314,1.382-0.72,2.748-1.158,4.098c-1.145,3.515-1.821,7.177-3.34,10.572
		c-0.07-4.35-0.142-8.701-0.212-13.052c-0.017-4.249-0.032-8.499-0.049-12.748c1.515-0.432,2.17-1.385,2.104-3.003
		c-0.096-2.301-0.051-4.607-0.017-6.911c0.022-1.425-0.505-2.35-1.995-2.561C181.785,170.666,181.794,166.294,181.803,161.923z"/>
	<path fill-rule="evenodd" clip-rule="evenodd" fill="#034888" d="M181.733,200.261c0.07,4.351,0.142,8.702,0.212,13.052
		c-0.31,0.354-0.242,0.752-0.138,1.154c-2.725,2.589-6.036,4.313-9.257,6.142c-4.7,2.667-9.544,5.057-14.722,6.688
		c-0.244-0.146-0.489-0.291-0.734-0.437c0-8.751,0-17.502,0.001-26.253c1.116,0.359,1.031,1.515,1.433,2.302
		c3.748,7.324,13.547,8.936,19.446,3.257C179.746,204.46,180.51,202.244,181.733,200.261z"/>
	<path fill-rule="evenodd" clip-rule="evenodd" fill="#9FEFFC" d="M181.808,214.467c-0.104-0.402-0.172-0.801,0.138-1.154
		c1.519-3.396,2.195-7.058,3.34-10.572c0.438-1.35,0.844-2.716,1.158-4.098c0.355-1.562,1.137-2.407,2.843-2.145
		c1.651,0.254,1.732,1.493,1.752,2.747c0.04,2.513,0.042,5.026,0.061,7.54c-1.928,2.689-4.755,4.369-7.265,6.396
		C183.231,213.669,182.708,214.402,181.808,214.467z"/>
	<path fill-rule="evenodd" clip-rule="evenodd" fill="#177CC0" d="M157.095,226.86c0.245,0.146,0.49,0.291,0.734,0.437
		c-0.16,0.313-0.455,0.314-0.746,0.322C157.087,227.366,157.091,227.113,157.095,226.86z"/>
	<path fill-rule="evenodd" clip-rule="evenodd" fill="#FE7ACA" d="M169.347,43.947c-0.126-0.135-0.252-0.271-0.377-0.405
		C169.096,43.676,169.221,43.812,169.347,43.947z"/>
	<path fill-rule="evenodd" clip-rule="evenodd" fill="#FE7ACA" d="M40.973,190.029c-3.725-4.592-6.43-9.797-8.886-15.122
		c-4.635-10.05-7.569-20.608-8.665-31.615c-1.736-17.446,0.82-34.272,7.817-50.383c5.516-12.7,13.363-23.773,23.434-33.255
		c6.394-6.02,13.514-11.063,21.223-15.267c0.463-0.252,1.024-0.326,1.539-0.482c-5.383,6.805-8.653,14.553-10.281,23.034
		c-4.439,4.523-7.664,9.919-10.306,15.566c-5.682,12.145-8.242,24.908-6.928,38.405c0.684,7.022,2.096,13.824,4.694,20.347
		c2.623,6.583,5.858,12.858,10.466,18.328c-0.035,0.69-0.07,1.381-0.105,2.071c-1.149,0.425-2.284,0.896-3.45,1.269
		c-7.027,2.245-12.023,6.589-14.917,13.52C44.719,180.968,42.84,185.496,40.973,190.029z"/>
	<path fill-rule="evenodd" clip-rule="evenodd" fill="#FEB63C" d="M67.152,66.939c1.629-8.481,4.898-16.229,10.282-23.034
		l-0.01,0.041c0.128-0.136,0.256-0.271,0.384-0.407c4.188-4.5,8.965-8.079,15.063-9.564c0.852-0.208,1.734-0.291,2.602-0.432
		c0.045,0.509-0.134,0.919-0.484,1.292c-4.098,4.365-7.077,9.469-9.506,14.88c-3.015,6.72-5.453,13.608-5.174,21.167
		c0.124,3.335,0.024,6.679,0.025,10.018c-1.822,1.189-2.436,2.952-2.472,5.037c-0.087,4.997,2.008,9.215,4.814,13.11
		c2.029,2.817,4.417,5.325,7.873,6.466c0.416,1.208,0.832,2.416,1.248,3.623c-0.341,0.329-0.707,0.636-1.019,0.989
		c-6.486,7.357-14.621,11.187-24.434,11.343c-3.625,0.058-5.515-2.834-4.234-6.23c0.671-1.781,1.348-3.573,1.838-5.408
		c2.294-8.583,2.237-17.395,2.393-26.175C66.438,78.072,66.183,72.478,67.152,66.939z"/>
	<path fill-rule="evenodd" clip-rule="evenodd" fill="#9FEFFC" d="M40.973,190.029c1.867-4.533,3.746-9.062,5.635-13.585
		c2.894-6.931,7.89-11.274,14.917-13.52c1.166-0.373,2.3-0.844,3.45-1.269c0.043,4.357,0.087,8.716,0.131,13.073
		c-1.756,0.566-2.339,1.815-2.262,3.591c0.087,2.027,0.051,4.063,0.011,6.093c-0.032,1.621,0.522,2.765,2.222,3.124
		c-0.016,4.249-0.032,8.498-0.047,12.747c-0.018,4.891-0.197,9.783,0.121,14.671c-8.923-6.342-16.484-14.056-22.979-22.837
		C41.698,191.479,41.083,190.89,40.973,190.029z"/>
	<path fill-rule="evenodd" clip-rule="evenodd" fill="#FEC73A" d="M80.333,80.899c-0.001-3.34,0.099-6.684-0.025-10.019
		c-0.279-7.559,2.159-14.447,5.174-21.167c2.429-5.411,5.408-10.515,9.506-14.88c0.35-0.372,0.529-0.783,0.484-1.292
		c2.112-0.733,3.09-2.895,4.958-3.933c0.603,0.474,0.128,0.794-0.149,1.169c-4.05,5.496-5.676,11.779-6.013,18.488
		c-0.389,7.751,0.947,15.149,4.488,22.099c0.524,1.027,1.116,2.02,1.677,3.027c-2.151,2.462-2.201,3.182-0.39,5.605
		c-4.115,1.505-8.409,1.928-12.743,2.113C85.219,80.325,82.819,80.363,80.333,80.899z"/>
	<path fill-rule="evenodd" clip-rule="evenodd" fill="#034888" d="M65.15,214.955c-0.317-4.888-0.138-9.78-0.121-14.671
		c0.738,0.14,0.608,0.848,0.785,1.303c1.866,4.811,5.542,7.426,10.478,7.97c5.206,0.573,9.732-2.212,11.994-6.796
		c0.479-0.971,0.926-1.955,1.389-2.935c-0.009,9.258-0.018,18.515-0.027,27.772C80.84,224.627,72.804,220.161,65.15,214.955z"/>
	<path fill-rule="evenodd" clip-rule="evenodd" fill="#FE7ACA" d="M77.808,43.539c-0.128,0.135-0.255,0.271-0.384,0.407
		C77.552,43.81,77.68,43.674,77.808,43.539z"/>
	<path fill-rule="evenodd" clip-rule="evenodd" fill="#023160" d="M157.027,155.147c-2.662-0.504-5.324-1.009-7.986-1.512
		c-2.039-0.419-4.078-0.839-6.117-1.258c-0.313-5.515-0.087-11.034-0.118-16.551c6.066-0.018,12.135-0.138,18.199-0.025
		c7.357,0.137,13.737,5.581,15.297,12.76c0.528,2.434,0.36,4.883,0.377,7.332c-4.256-1.088-8.505-2.205-12.771-3.255
		C160.133,151.709,159.292,152.047,157.027,155.147z"/>
	<path fill-rule="evenodd" clip-rule="evenodd" fill="#023160" d="M97.733,153.637c-2.664,0.504-5.328,1.007-7.991,1.51
		c-2.259-3.099-3.103-3.438-6.881-2.508c-4.265,1.049-8.512,2.167-12.767,3.255c-0.005-0.886-0.018-1.771-0.017-2.656
		c0.01-10.64,6.827-17.461,17.498-17.491c5.381-0.015,10.762-0.001,16.143,0.001c0.007,5.554,0.013,11.108,0.02,16.663
		C101.736,152.818,99.735,153.228,97.733,153.637z"/>
	<path fill-rule="evenodd" clip-rule="evenodd" fill="#177CC0" d="M157.027,155.147c2.265-3.101,3.105-3.438,6.881-2.509
		c4.266,1.05,8.515,2.167,12.771,3.256c2.002,0.779,4.277,1.187,5.013,3.688c0.037,0.781,0.074,1.562,0.111,2.342
		c-0.009,4.369-0.018,8.741-0.026,13.113c-2.681,0.221-5.357,0.21-8.03-0.122c-5.6,0.354-11.203,0.224-16.806,0.106
		C157.259,168.398,157.094,161.772,157.027,155.147z"/>
	<path fill-rule="evenodd" clip-rule="evenodd" fill="#177CC0" d="M70.094,155.894c4.255-1.088,8.502-2.206,12.767-3.255
		c3.779-0.93,4.623-0.591,6.881,2.508c-0.065,6.654-0.215,13.31,0.079,19.962c-2.78,0.069-5.561,0.175-8.332-0.185
		c-4.882,0.378-9.773,0.118-14.66,0.185c-0.594,0.008-1.24,0.155-1.725-0.379c-0.043-4.357-0.087-8.716-0.13-13.073
		c0.035-0.69,0.07-1.381,0.105-2.071C65.809,157.074,68.094,156.678,70.094,155.894z"/>
	<path fill-rule="evenodd" clip-rule="evenodd" fill="#177CC0" d="M89.674,199.826c-0.462,0.979-0.91,1.964-1.389,2.935
		c-2.261,4.584-6.788,7.369-11.994,6.796c-4.936-0.544-8.611-3.159-10.478-7.97c-0.177-0.455-0.047-1.163-0.785-1.303
		c0.016-4.249,0.032-8.498,0.048-12.747c5.613-0.04,11.225-0.079,16.837-0.119c2.576,0.012,5.152,0.023,7.728,0.035
		c0.043,3.564,0.086,7.129,0.129,10.693C89.739,198.706,89.706,199.267,89.674,199.826z"/>
	<path fill-rule="evenodd" clip-rule="evenodd" fill="#177CC0" d="M181.733,200.261c-1.224,1.983-1.987,4.199-3.759,5.905
		c-5.899,5.679-15.698,4.067-19.446-3.257c-0.401-0.787-0.316-1.942-1.433-2.302c-0.02-4.374-0.037-8.747-0.057-13.121
		c5.313-0.017,10.625-0.034,15.938-0.05c2.902,0.024,5.806,0.051,8.708,0.076C181.701,191.762,181.717,196.012,181.733,200.261z"/>
	<path fill-rule="evenodd" clip-rule="evenodd" fill="#9FEFFC" d="M97.733,153.637c2.002-0.409,4.003-0.818,6.005-1.227
		c0.223,0.094,0.447,0.187,0.671,0.28c5.748,5.435,12.449,8.328,20.482,7.854c7.075-0.418,12.887-3.534,18.033-8.168
		c2.039,0.42,4.078,0.84,6.117,1.259c-4.758,5.405-10.286,9.636-17.268,11.864c-8.485,2.708-16.366,1.285-23.859-3.126
		C104.011,160.076,100.683,157.066,97.733,153.637z"/>
	<path fill-rule="evenodd" clip-rule="evenodd" fill="#023160" d="M172.977,187.437c-5.313,0.016-10.625,0.033-15.938,0.05
		c-1.468-0.387-2.094-1.336-2.062-2.853c0.051-2.317,0.026-4.637,0.009-6.955c-0.011-1.39,0.464-2.387,1.953-2.656
		c5.604,0.117,11.207,0.248,16.808-0.107c-0.01,0.396-0.239,0.565-0.601,0.696c-4.115,1.482-5.272,7.484-1.053,10.581
		C172.551,186.527,173.012,186.784,172.977,187.437z"/>
	<path fill-rule="evenodd" clip-rule="evenodd" fill="#034888" d="M89.642,187.453c-2.576-0.012-5.152-0.023-7.728-0.034
		c-0.238-0.229-0.438-0.537-0.722-0.672c-2.172-1.038-3.582-2.595-3.744-5.114c-0.166-2.588,0.949-4.445,3.117-5.754
		c0.388-0.234,0.938-0.325,0.923-0.955c2.771,0.359,5.551,0.254,8.332,0.185c1.377,0.389,1.922,1.333,1.9,2.723
		c-0.03,1.97-0.117,3.948,0.026,5.907C91.878,185.531,91.252,186.729,89.642,187.453z"/>
	<path fill-rule="evenodd" clip-rule="evenodd" fill="#FEC8A3" d="M156.163,105.8c-0.763,0.964-1.06,2.096-1.183,3.29
		c-2.165,5.134-4.206,10.331-7.309,15.001c-1.611,2.425-3.322,4.782-4.988,7.172c-1.569,1.368-3.078,2.813-4.721,4.086
		c-2.163,1.677-4.245,3.574-7.193,3.784c-5.121-2.894-9.438-6.7-12.852-11.488c-1.111-1.558-2.709-2.899-2.701-5.069
		c0.571,0.372,1.133,0.76,1.716,1.112c4.716,2.855,10.84,2.238,14.753-1.48c1.629-1.118,2.628-2.732,3.408-4.481
		c1.375-3.085,0.096-5.08-3.321-5.107c-5.577-0.045-11.156,0.009-16.733-0.023c-2-0.012-3.433,0.686-4.005,2.716
		c-3.684-7.535-5.875-15.48-6.54-23.844c0.905-1.038,1.895-0.898,2.88-0.16c0.902,0.674,1.817,0.949,2.806,0.236
		c1.063-0.766,1.025-1.841,0.726-2.947c-0.871-3.215-4.14-4.631-7.141-3.436c-0.184-1.574-0.005-3.119,0.36-4.651
		c1.622-0.018,3.246-0.086,4.866-0.041c1.755,0.049,3.291-0.286,3.944-2.132c0.672-1.899-0.436-3.056-1.885-4.008
		c5.302-4.561,9.445-9.974,12.216-16.923c2.879,6.841,7.006,12.379,12.443,16.918c-1.303,0.87-2.366,1.908-1.991,3.652
		c0.282,1.312,1.177,2.351,2.481,2.373c3.509,0.061,7.045,0.538,10.527-0.338c4.097,1.613,8.386,2.068,12.742,2.11
		c-0.281,4.251-0.454,8.501-1.109,12.733C157.789,98.547,156.712,102.118,156.163,105.8z M123.469,106.294
		c1.091,0,2.183,0.021,3.273-0.004c2.28-0.053,3.292-1.646,2.381-3.708c-0.887-2.008-2.218-3.746-3.434-5.545
		c-1.393-2.062-3.201-2.047-4.617,0.004c-1.196,1.732-2.307,3.527-3.391,5.333c-1.094,1.821-0.006,3.823,2.105,3.909
		C121.012,106.334,122.241,106.293,123.469,106.294z M145.923,89.706c0.05-2.653-2.447-5.026-5.219-4.96
		c-2.712,0.065-5.061,2.401-5.001,4.973c0.043,1.851,1.7,2.868,3.264,1.821c1.345-0.901,2.361-0.888,3.702,0.006
		C144.229,92.588,145.889,91.559,145.923,89.706z"/>
	<path fill-rule="evenodd" clip-rule="evenodd" fill="#FDB88A" d="M156.163,105.8c0.549-3.683,1.626-7.253,2.196-10.942
		c0.655-4.232,0.828-8.482,1.109-12.733c2.075-1.816,4.476-1.76,6.962-1.214c3.007,2.075,2.892,5.165,2.222,8.103
		C166.97,96.388,163.087,102.26,156.163,105.8z"/>
	<path fill-rule="evenodd" clip-rule="evenodd" fill="#FE9101" d="M111.049,74.332c1.449,0.952,2.558,2.109,1.885,4.008
		c-0.653,1.846-2.188,2.181-3.944,2.132c-1.62-0.045-3.244,0.022-4.866,0.041c-1.368-0.111-2.775,0.094-4.081-0.514
		c-1.812-2.424-1.761-3.143,0.39-5.605C103.973,74.373,107.511,74.353,111.049,74.332z"/>
	<path fill-rule="evenodd" clip-rule="evenodd" fill="#FE9101" d="M146.727,80.015c-3.482,0.876-7.019,0.399-10.527,0.338
		c-1.305-0.022-2.199-1.062-2.481-2.373c-0.375-1.745,0.688-2.782,1.991-3.652c2.729-0.008,5.46,0.017,8.189-0.035
		c1.599-0.03,2.979,0.227,3.776,1.832C148.462,77.709,147.637,78.863,146.727,80.015z"/>
	<path fill-rule="evenodd" clip-rule="evenodd" fill="#FE54B5" d="M142.684,131.263c1.666-2.389,3.377-4.746,4.988-7.171
		c3.103-4.671,5.144-9.868,7.309-15.001c4.055,4.755,8.87,8.454,14.819,10.529c3.495,1.219,7.089,1.945,10.815,1.865
		c3.381-0.072,5.412-2.916,4.102-6.038c-2.821-6.717-3.595-13.78-3.99-20.957c-0.353-6.409-0.293-12.817-0.318-19.227
		c-0.011-2.805-0.515-5.552-0.789-8.326c3.235,3.354,5.758,7.227,8.026,11.258c4.28,7.604,7.27,15.712,8.591,24.336
		c0.895,5.837,1.129,11.708,0.675,17.677c-0.824,10.809-3.97,20.797-9.095,30.25c-1.753,3.234-3.755,6.304-6.125,9.125
		c-0.735-2.502-3.011-2.909-5.013-3.688c-0.017-2.45,0.151-4.899-0.377-7.333c-1.56-7.179-7.939-12.623-15.297-12.76
		c-6.064-0.112-12.133,0.008-18.2,0.025c-0.046-0.963-0.091-1.927-0.137-2.891C142.674,132.379,142.679,131.82,142.684,131.263z"/>
	<path fill-rule="evenodd" clip-rule="evenodd" fill="#034888" d="M172.977,187.437c0.035-0.652-0.426-0.909-0.883-1.244
		c-4.22-3.097-3.063-9.099,1.053-10.581c0.361-0.131,0.591-0.3,0.601-0.696c2.672,0.333,5.349,0.344,8.029,0.123
		c1.49,0.211,2.018,1.136,1.995,2.561c-0.034,2.304-0.079,4.61,0.017,6.911c0.066,1.618-0.589,2.571-2.104,3.003
		C178.782,187.487,175.879,187.461,172.977,187.437z"/>
	<path fill-rule="evenodd" clip-rule="evenodd" fill="#FE54B5" d="M70.094,155.894c-2,0.784-4.286,1.181-5.015,3.691
		c-4.608-5.47-7.843-11.745-10.466-18.328c-2.598-6.523-4.01-13.325-4.694-20.347c-1.314-13.497,1.246-26.26,6.928-38.405
		c2.642-5.647,5.867-11.043,10.306-15.566c-0.97,5.539-0.715,11.133-0.813,16.715c-0.155,8.78-0.099,17.592-2.393,26.175
		c-0.49,1.835-1.167,3.627-1.838,5.408c-1.28,3.396,0.61,6.288,4.234,6.23c9.813-0.157,17.948-3.986,24.434-11.343
		c0.312-0.354,0.678-0.66,1.019-0.989c2.589,6.873,5.743,13.441,10.241,19.306c0.683,0.89,1.748,1.57,1.814,2.862
		c-0.045,1.48-0.088,2.962-0.132,4.443c-5.381-0.002-10.762-0.016-16.143-0.001c-10.671,0.03-17.488,6.852-17.498,17.491
		C70.077,154.123,70.089,155.008,70.094,155.894z"/>
	<path fill-rule="evenodd" clip-rule="evenodd" fill="#FDB88A" d="M103.852,131.304c-0.067-1.292-1.132-1.973-1.815-2.862
		c-4.498-5.865-7.652-12.434-10.241-19.306c-0.416-1.208-0.832-2.416-1.247-3.624c-1.983-7.675-3.4-15.429-3.247-23.4
		c4.334-0.185,8.628-0.608,12.743-2.113c1.305,0.608,2.713,0.402,4.081,0.514c-0.365,1.532-0.543,3.077-0.36,4.651
		c-1.165,0.735-2.152,1.611-2.604,2.985c-0.375,1.141-0.623,2.262,0.342,3.217c0.936,0.928,1.973,0.623,2.99,0.104
		c0.666,8.363,2.856,16.309,6.54,23.844c0.237,2.62,1.78,4.57,3.34,6.512c0.173,0.138,0.346,0.276,0.519,0.415
		c0.066-0.053,0.14-0.072,0.223-0.058c0.05,0.127,0.083,0.259,0.1,0.395c-0.008,2.17,1.59,3.512,2.701,5.069
		c3.414,4.788,7.731,8.595,12.852,11.487c-1.37,1.874-3.562,1.78-5.45,1.95c-6.203,0.559-11.544-1.603-16.379-5.463
		C107.195,134.227,105.939,132.271,103.852,131.304z"/>
	<path fill-rule="evenodd" clip-rule="evenodd" fill="#F9A770" d="M87.302,82.111c-0.153,7.972,1.264,15.725,3.247,23.4
		c-3.457-1.14-5.844-3.648-7.873-6.465c-2.806-3.895-4.902-8.113-4.814-13.11c0.037-2.085,0.65-3.848,2.472-5.037
		C82.819,80.363,85.219,80.325,87.302,82.111z"/>
	<path fill-rule="evenodd" clip-rule="evenodd" fill="#023160" d="M81.489,174.924c0.015,0.63-0.535,0.721-0.923,0.955
		c-2.168,1.309-3.283,3.166-3.117,5.754c0.162,2.52,1.571,4.076,3.744,5.114c0.283,0.135,0.483,0.443,0.722,0.672
		c-5.613,0.039-11.225,0.078-16.837,0.118c-1.7-0.359-2.254-1.503-2.222-3.124c0.04-2.03,0.076-4.065-0.011-6.093
		c-0.077-1.775,0.506-3.024,2.262-3.591c0.483,0.534,1.13,0.387,1.724,0.379C71.716,175.042,76.607,175.302,81.489,174.924z"/>
	<path fill-rule="evenodd" clip-rule="evenodd" fill="#FDB88A" d="M142.668,132.937c0.046,0.964,0.091,1.928,0.137,2.891
		c0.032,5.517-0.193,11.036,0.119,16.551c-5.146,4.633-10.958,7.749-18.033,8.167c-8.034,0.474-14.735-2.42-20.482-7.855
		c0.797-0.155,1.598-0.466,2.388-0.441c4.303,0.133,8.531-0.431,12.729-1.271c6.72-1.345,12.887-3.838,17.811-8.818
		C139.915,139.552,141.549,136.391,142.668,132.937z"/>
	<path fill-rule="evenodd" clip-rule="evenodd" fill="#F9A770" d="M142.668,132.937c-1.119,3.454-2.753,6.615-5.331,9.223
		c-4.924,4.98-11.091,7.474-17.811,8.818c-4.197,0.84-8.426,1.403-12.729,1.271c-0.791-0.024-1.591,0.286-2.388,0.441
		c-0.224-0.093-0.448-0.186-0.671-0.279c-0.006-5.555-0.013-11.109-0.02-16.663c0.044-1.481,0.087-2.963,0.132-4.443
		c2.089,0.967,3.345,2.923,5.09,4.316c4.835,3.86,10.176,6.021,16.379,5.463c1.889-0.17,4.08-0.076,5.45-1.95
		c2.948-0.209,5.03-2.106,7.193-3.783c1.643-1.272,3.151-2.718,4.721-4.086C142.679,131.82,142.674,132.379,142.668,132.937z"/>
	<path fill-rule="evenodd" clip-rule="evenodd" fill="#023160" d="M115.116,122.181c-0.083-0.014-0.157,0.005-0.223,0.058
		c-0.173-0.138-0.346-0.276-0.519-0.415c-1.56-1.941-3.104-3.892-3.34-6.512c0.572-2.031,2.005-2.728,4.005-2.716
		c5.578,0.032,11.156-0.022,16.733,0.023c3.417,0.028,4.696,2.022,3.321,5.107c-0.78,1.749-1.779,3.363-3.409,4.481
		C126.854,117.956,120.113,117.944,115.116,122.181z"/>
	<path fill-rule="evenodd" clip-rule="evenodd" fill="#FDB88A" d="M123.469,106.294c-1.228-0.001-2.457,0.04-3.683-0.01
		c-2.111-0.086-3.199-2.088-2.105-3.909c1.084-1.806,2.195-3.601,3.391-5.333c1.417-2.052,3.225-2.066,4.617-0.004
		c1.216,1.799,2.547,3.537,3.434,5.545c0.911,2.063-0.101,3.655-2.381,3.708C125.651,106.315,124.56,106.294,123.469,106.294z"/>
	<path fill-rule="evenodd" clip-rule="evenodd" fill="#FB4356" d="M115.116,122.181c4.997-4.237,11.737-4.226,16.568,0.027
		c-3.912,3.718-10.036,4.335-14.752,1.48c-0.583-0.353-1.145-0.74-1.716-1.112C115.199,122.44,115.166,122.309,115.116,122.181z"/>
	<path fill-rule="evenodd" clip-rule="evenodd" fill="#023160" d="M104.494,91.469c-1.017,0.519-2.055,0.823-2.99-0.104
		c-0.965-0.956-0.717-2.077-0.342-3.217c0.452-1.374,1.438-2.25,2.604-2.985c3.001-1.196,6.27,0.22,7.141,3.436
		c0.299,1.106,0.338,2.181-0.726,2.947c-0.988,0.712-1.904,0.438-2.806-0.236C106.389,90.571,105.399,90.432,104.494,91.469z"/>
	<path fill-rule="evenodd" clip-rule="evenodd" fill="#023160" d="M145.923,89.706c-0.034,1.853-1.693,2.882-3.254,1.841
		c-1.341-0.895-2.357-0.907-3.702-0.006c-1.563,1.046-3.221,0.029-3.264-1.821c-0.06-2.572,2.289-4.908,5.001-4.973
		C143.476,84.68,145.973,87.053,145.923,89.706z"/>
	<path fill-rule="evenodd" clip-rule="evenodd" fill="#FEC8A3" d="M114.375,121.825c0.173,0.138,0.346,0.276,0.519,0.415
		C114.721,122.101,114.547,121.963,114.375,121.825z"/>
</g>
</svg>
