<?xml version="1.0" encoding="utf-8"?>
<!-- Generator: Adobe Illustrator 16.0.0, SVG Export Plug-In . SVG Version: 6.00 Build 0)  -->
<!DOCTYPE svg PUBLIC "-//W3C//DTD SVG 1.1//EN" "http://www.w3.org/Graphics/SVG/1.1/DTD/svg11.dtd">
<svg version="1.1" id="Layer_1" xmlns="http://www.w3.org/2000/svg" xmlns:xlink="http://www.w3.org/1999/xlink" x="0px" y="0px"
	 width="240px" height="150px" viewBox="0 0 240 150" enable-background="new 0 0 240 150" xml:space="preserve">
<g>
	<g>
		<rect x="54.737" y="120.279" fill-rule="evenodd" clip-rule="evenodd" fill="#2C1021" width="132.445" height="3.903"/>
		<rect x="52.096" y="124.183" fill-rule="evenodd" clip-rule="evenodd" fill="#260B1E" width="137.728" height="3.904"/>
		<path fill-rule="evenodd" clip-rule="evenodd" fill="#C41318" d="M193.714,61.263c-9.658,0-19.315,0-28.957,0
			c-9.641,0-19.282,0-28.923,0c-0.215,9.832-0.429,19.674-0.645,29.495c-0.216,9.822-0.43,19.653-0.646,29.476
			c8.467,0,16.95,0,25.418,0c8.483,0,16.967,0,25.45,0c1.389-9.822,2.754-19.655,4.134-29.476
			C190.927,80.936,192.309,71.095,193.714,61.263z"/>
		<path fill-rule="evenodd" clip-rule="evenodd" fill="#312430" d="M154.801,55.535c6.467,0,12.95,0,19.415,0
			c6.467,0,12.949,0,19.432,0c0.91,2.489,1.803,4.968,2.712,7.446c-7.095,0-14.205,0-21.267,0c-7.078,0-14.173,0-21.233,0
			C154.174,60.503,154.487,58.023,154.801,55.535z"/>
		<path fill-rule="evenodd" clip-rule="evenodd" fill="#ED1F22" d="M160.011,65.095c2.548,0,5.078,0,7.642,0
			c0.347,0,0.597,0.311,0.563,0.698c-0.462,4.957-0.863,9.917-1.307,14.873c-0.035,0.388-0.348,0.698-0.713,0.698
			c-2.464,0-4.91,0-7.358,0c-0.33,0-0.59-0.313-0.563-0.698c0.369-4.957,0.689-9.916,1.058-14.873
			C159.363,65.408,159.665,65.095,160.011,65.095z"/>
		<path fill-rule="evenodd" clip-rule="evenodd" fill="#ED1F22" d="M170.926,65.095c2.53,0,5.076,0,7.64,0
			c0.348,0,0.573,0.312,0.529,0.698c-0.552,4.958-1.085,9.916-1.637,14.873c-0.044,0.386-0.364,0.698-0.712,0.698
			c-2.464,0-4.928,0-7.374,0c-0.332,0-0.584-0.313-0.547-0.698c0.477-4.958,0.929-9.915,1.391-14.873
			C170.25,65.408,170.578,65.095,170.926,65.095z"/>
		<path fill-rule="evenodd" clip-rule="evenodd" fill="#ED1F22" d="M181.559,65.095c2.547,0,5.077,0,7.64,0
			c0.332,0,0.565,0.311,0.514,0.698c-0.674,4.956-1.292,9.918-1.968,14.873c-0.053,0.388-0.381,0.698-0.711,0.698
			c-2.481,0-4.929,0-7.376,0c-0.348,0-0.574-0.311-0.529-0.698c0.584-4.955,1.121-9.916,1.704-14.873
			C180.876,65.407,181.195,65.095,181.559,65.095z"/>
		<path fill-rule="evenodd" clip-rule="evenodd" fill="#ED1F22" d="M158.671,83.739c2.432,0,4.879,0,7.327,0
			c0.348,0,0.597,0.313,0.563,0.697c-0.445,4.957-0.909,9.913-1.34,14.873c-0.033,0.384-0.313,0.698-0.646,0.698
			c-2.38,0-4.729,0-7.077,0c-0.33,0-0.572-0.314-0.547-0.698c0.338-4.958,0.721-9.916,1.059-14.873
			C158.036,84.052,158.325,83.739,158.671,83.739z"/>
		<path fill-rule="evenodd" clip-rule="evenodd" fill="#ED1F22" d="M169.14,83.739c2.448,0,4.895,0,7.358,0
			c0.332,0,0.573,0.313,0.529,0.697c-0.552,4.957-1.117,9.913-1.669,14.873c-0.044,0.384-0.348,0.698-0.663,0.698
			c-2.363,0-4.728,0-7.095,0c-0.313,0-0.548-0.313-0.511-0.698c0.459-4.958,0.929-9.916,1.389-14.873
			C168.515,84.052,168.81,83.739,169.14,83.739z"/>
		<path fill-rule="evenodd" clip-rule="evenodd" fill="#ED1F22" d="M179.376,83.739c2.448,0,4.879,0,7.343,0
			c0.33,0,0.563,0.314,0.512,0.697c-0.645,4.959-1.339,9.913-2,14.873c-0.052,0.384-0.347,0.698-0.661,0.698
			c-2.382,0-4.73,0-7.078,0c-0.347,0-0.574-0.314-0.53-0.698c0.569-4.96,1.153-9.914,1.72-14.873
			C178.727,84.053,179.028,83.739,179.376,83.739z"/>
		<path fill-rule="evenodd" clip-rule="evenodd" fill="#ED1F22" d="M157.35,102.08c2.348,0,4.695,0,7.043,0
			c0.332,0,0.564,0.313,0.529,0.696c-0.444,4.958-0.909,9.914-1.339,14.873c-0.033,0.384-0.313,0.699-0.629,0.699
			c-2.265,0-4.531,0-6.78,0c-0.314,0-0.556-0.313-0.528-0.699c0.353-4.957,0.705-9.915,1.058-14.873
			C156.73,102.392,157.034,102.08,157.35,102.08z"/>
		<path fill-rule="evenodd" clip-rule="evenodd" fill="#ED1F22" d="M167.42,102.08c2.349,0,4.697,0,7.062,0
			c0.314,0,0.523,0.31,0.479,0.696c-0.566,4.956-1.117,9.916-1.653,14.873c-0.042,0.386-0.331,0.699-0.646,0.699
			c-2.265,0-4.531,0-6.796,0c-0.314,0-0.532-0.313-0.496-0.699c0.46-4.957,0.914-9.915,1.389-14.873
			C166.796,102.392,167.105,102.08,167.42,102.08z"/>
		<path fill-rule="evenodd" clip-rule="evenodd" fill="#ED1F22" d="M177.242,102.08c2.349,0,4.697,0,7.046,0
			c0.33,0,0.532,0.31,0.479,0.696c-0.674,4.956-1.324,9.916-1.984,14.873c-0.051,0.386-0.348,0.699-0.661,0.699
			c-2.265,0-4.531,0-6.781,0c-0.329,0-0.537-0.315-0.496-0.699c0.555-4.957,1.138-9.915,1.721-14.873
			C176.61,102.392,176.912,102.08,177.242,102.08z"/>
		<path fill-rule="evenodd" clip-rule="evenodd" fill="#C41318" d="M48.155,61.263c9.641,0,19.282,0,28.923,0
			c9.641,0,19.299,0,28.956,0c0.381,9.832,0.769,19.674,1.158,29.495c0.388,9.82,0.76,19.653,1.157,29.476
			c-8.483,0-16.967,0-25.451,0c-8.467,0-16.934,0-25.417,0c-1.555-9.822-3.109-19.653-4.664-29.476
			C51.264,80.937,49.727,71.095,48.155,61.263z"/>
		<path fill-rule="evenodd" clip-rule="evenodd" fill="#312430" d="M86.951,55.535c-6.466,0-12.965,0-19.431,0
			c-6.449,0-12.949,0-19.415,0c-0.86,2.489-1.703,4.968-2.546,7.446c7.061,0,14.156,0,21.216,0c7.079,0,14.172,0,21.25,0
			C87.678,60.503,87.314,58.023,86.951,55.535z"/>
		<path fill-rule="evenodd" clip-rule="evenodd" fill="#ED1F22" d="M81.924,65.095c-2.563,0-5.093,0-7.624,0
			c-0.364,0-0.621,0.312-0.579,0.698c0.537,4.957,1.065,9.915,1.587,14.873c0.041,0.384,0.347,0.698,0.695,0.698
			c2.447,0,4.895,0,7.359,0c0.347,0,0.597-0.313,0.562-0.698c-0.445-4.957-0.861-9.917-1.307-14.873
			C82.583,65.406,82.271,65.095,81.924,65.095z"/>
		<path fill-rule="evenodd" clip-rule="evenodd" fill="#ED1F22" d="M71.026,65.095c-2.564,0-5.11,0-7.657,0
			c-0.33,0-0.578,0.313-0.529,0.698c0.629,4.958,1.274,9.916,1.918,14.873c0.05,0.386,0.363,0.698,0.694,0.698
			c2.448,0,4.912,0,7.376,0c0.347,0,0.587-0.314,0.545-0.698c-0.537-4.958-1.116-9.915-1.653-14.873
			C71.679,65.409,71.357,65.095,71.026,65.095z"/>
		<path fill-rule="evenodd" clip-rule="evenodd" fill="#ED1F22" d="M60.376,65.095c-2.563,0-5.093,0-7.624,0
			c-0.347,0-0.588,0.312-0.529,0.698c0.752,4.957,1.481,9.917,2.232,14.873c0.059,0.386,0.38,0.698,0.728,0.698
			c2.448,0,4.895,0,7.359,0c0.347,0,0.581-0.311,0.529-0.698c-0.66-4.955-1.308-9.915-1.968-14.873
			C61.052,65.408,60.74,65.095,60.376,65.095z"/>
		<path fill-rule="evenodd" clip-rule="evenodd" fill="#ED1F22" d="M83.594,83.739c-2.465,0-4.896,0-7.343,0
			c-0.348,0-0.586,0.313-0.546,0.697c0.522,4.957,1.066,9.913,1.588,14.873c0.04,0.384,0.331,0.698,0.661,0.698
			c2.365,0,4.713,0,7.078,0c0.331,0,0.563-0.313,0.529-0.698c-0.43-4.958-0.877-9.916-1.307-14.873
			C84.222,84.052,83.924,83.739,83.594,83.739z"/>
		<path fill-rule="evenodd" clip-rule="evenodd" fill="#ED1F22" d="M73.109,83.739c-2.464,0-4.912,0-7.343,0
			c-0.347,0-0.579,0.313-0.529,0.697c0.645,4.957,1.289,9.915,1.918,14.873c0.049,0.385,0.364,0.698,0.678,0.698
			c2.348,0,4.729,0,7.095,0c0.314,0,0.539-0.313,0.496-0.698c-0.552-4.958-1.084-9.917-1.637-14.873
			C73.744,84.051,73.44,83.739,73.109,83.739z"/>
		<path fill-rule="evenodd" clip-rule="evenodd" fill="#ED1F22" d="M62.873,83.739c-2.447,0-4.895,0-7.326,0
			c-0.348,0-0.57,0.313-0.513,0.697c0.737,4.957,1.498,9.917,2.249,14.873c0.059,0.385,0.364,0.698,0.695,0.698
			c2.348,0,4.697,0,7.078,0c0.33,0,0.547-0.313,0.496-0.698c-0.66-4.958-1.309-9.916-1.968-14.873
			C63.533,84.052,63.22,83.739,62.873,83.739z"/>
		<path fill-rule="evenodd" clip-rule="evenodd" fill="#ED1F22" d="M85.231,102.08c-2.349,0-4.696,0-7.045,0
			c-0.331,0-0.569,0.313-0.529,0.696c0.522,4.96,1.051,9.918,1.588,14.873c0.042,0.388,0.331,0.699,0.645,0.699
			c2.266,0,4.515,0,6.797,0c0.297,0,0.53-0.313,0.496-0.699c-0.445-4.957-0.877-9.915-1.307-14.873
			C85.842,102.392,85.545,102.08,85.231,102.08z"/>
		<path fill-rule="evenodd" clip-rule="evenodd" fill="#ED1F22" d="M75.16,102.08c-2.348,0-4.713,0-7.044,0
			c-0.331,0-0.545,0.312-0.496,0.696c0.629,4.958,1.257,9.918,1.902,14.873c0.05,0.388,0.347,0.699,0.661,0.699
			c2.249,0,4.531,0,6.797,0c0.314,0,0.522-0.313,0.48-0.699c-0.553-4.955-1.085-9.915-1.637-14.873
			C75.778,102.392,75.491,102.08,75.16,102.08z"/>
		<path fill-rule="evenodd" clip-rule="evenodd" fill="#ED1F22" d="M65.337,102.08c-2.365,0-4.696,0-7.044,0
			c-0.314,0-0.539,0.312-0.48,0.696c0.752,4.958,1.497,9.916,2.249,14.873c0.058,0.384,0.347,0.699,0.662,0.699
			c2.249,0,4.515,0,6.78,0c0.331,0,0.531-0.312,0.479-0.699c-0.66-4.955-1.308-9.915-1.968-14.873
			C65.964,102.394,65.667,102.08,65.337,102.08z"/>
		<path fill-rule="evenodd" clip-rule="evenodd" fill="#ED1F22" d="M84.454,47.494L84.454,47.494
			c5.738-4.666,11.571-9.37,17.546-14.008c6.047-4.694,12.271-9.343,18.587-14.019c6.367,4.676,12.656,9.324,18.787,14.019
			c6.057,4.638,11.972,9.342,17.809,14.008l0,0l0,0c-0.793,12.124-1.554,24.247-2.33,36.371
			c-0.777,12.122-1.555,24.246-2.316,36.369c-10.368,0-20.737,0-31.089,0c-10.353,0-20.738,0-31.074,0
			c-1.008-12.123-1.976-24.247-2.959-36.369C86.43,71.74,85.446,59.618,84.454,47.494L84.454,47.494z"/>
		<path fill-rule="evenodd" clip-rule="evenodd" fill="#C41318" d="M84.454,47.494L84.454,47.494
			c5.738-4.666,11.571-9.37,17.546-14.008c6.047-4.694,12.271-9.343,18.587-14.019c6.367,4.676,12.656,9.324,18.787,14.019
			c6.057,4.638,11.972,9.342,17.809,14.008l0,0l0,0c-0.132,1.896-0.247,3.791-0.381,5.688c-5.753-4.667-11.606-9.367-17.595-14.009
			c-6.05-4.689-12.271-9.353-18.571-14.029c-6.233,4.676-12.405,9.339-18.372,14.029c-5.906,4.643-11.675,9.343-17.347,14.009
			C84.751,51.285,84.619,49.389,84.454,47.494L84.454,47.494z"/>
		<path fill-rule="evenodd" clip-rule="evenodd" fill="#312430" d="M78.352,48.931C85,43.463,91.768,37.949,98.741,32.518
			c7.067-5.504,14.387-10.957,21.83-16.436c7.475,5.468,14.841,10.915,21.993,16.404c7.071,5.426,13.925,10.925,20.673,16.383
			c-1.322,1.312-2.646,2.614-3.952,3.916c-6.119-4.989-12.372-10.017-18.754-14.967c-6.484-5.029-13.163-9.977-19.911-14.977
			c-6.713,5.009-13.323,9.973-19.728,15.008c-6.313,4.964-12.485,9.999-18.521,14.999C81.031,51.546,79.691,50.244,78.352,48.931z"
			/>
		<path fill-rule="evenodd" clip-rule="evenodd" fill="#FFFFFF" d="M120.67,29.372c-2.953,0-5.317,2.452-5.259,5.489
			c0.058,3.036,2.463,5.499,5.358,5.499c2.894,0,5.233-2.463,5.242-5.499C126.02,31.824,123.621,29.372,120.67,29.372z"/>
		<path fill-rule="evenodd" clip-rule="evenodd" fill="#312430" d="M125.103,35.1c-0.182,0-0.381,0-0.581,0
			c0-0.156,0.019-0.313,0-0.469c0.2,0,0.382,0,0.581,0C125.103,34.788,125.103,34.944,125.103,35.1L125.103,35.1z M120.967,38.829
			c0,0.208,0,0.406,0,0.604c-0.148,0-0.314,0-0.445,0c0-0.198,0-0.396,0-0.604C120.652,38.829,120.818,38.829,120.967,38.829
			L120.967,38.829z M120.901,30.299c0,0.208,0,0.406,0,0.604c-0.165,0-0.314,0-0.463,0c0-0.198,0-0.396-0.015-0.604
			C120.571,30.299,120.736,30.299,120.901,30.299L120.901,30.299z M116.899,35.1c-0.199,0-0.397,0-0.58,0
			c-0.015-0.156,0-0.313-0.015-0.469c0.197,0,0.38,0,0.578,0C116.882,34.788,116.882,34.944,116.899,35.1z"/>
		<path fill-rule="evenodd" clip-rule="evenodd" fill="#312430" d="M124.406,37.35c-0.181-0.095-0.347-0.188-0.495-0.292
			c0.066-0.137,0.148-0.271,0.215-0.417c0.165,0.105,0.331,0.208,0.513,0.302C124.555,37.08,124.49,37.214,124.406,37.35
			L124.406,37.35z M119.032,38.412c-0.082,0.178-0.182,0.354-0.281,0.521c-0.148-0.074-0.264-0.157-0.397-0.24
			c0.1-0.166,0.182-0.333,0.282-0.51C118.769,38.266,118.884,38.339,119.032,38.412L119.032,38.412z M123.101,31.039
			c-0.114,0.177-0.198,0.343-0.298,0.51c-0.149-0.073-0.264-0.146-0.412-0.229c0.114-0.167,0.196-0.344,0.297-0.521
			C122.819,30.882,122.952,30.965,123.101,31.039L123.101,31.039z M117.263,33.09c-0.182-0.094-0.364-0.198-0.529-0.302
			c0.082-0.135,0.166-0.27,0.249-0.406c0.148,0.104,0.314,0.198,0.496,0.292C117.396,32.819,117.33,32.955,117.263,33.09z"/>
		<path fill-rule="evenodd" clip-rule="evenodd" fill="#312430" d="M122.737,38.933c-0.117-0.167-0.198-0.344-0.299-0.521
			c0.134-0.072,0.249-0.146,0.397-0.229c0.099,0.178,0.184,0.344,0.299,0.51C122.968,38.776,122.853,38.859,122.737,38.933
			L122.737,38.933z M117.527,37.059c-0.165,0.104-0.314,0.197-0.479,0.292c-0.083-0.136-0.148-0.271-0.247-0.407
			c0.165-0.093,0.33-0.197,0.512-0.302C117.378,36.788,117.462,36.922,117.527,37.059L117.527,37.059z M124.639,32.788
			c-0.182,0.104-0.364,0.208-0.513,0.302c-0.082-0.135-0.166-0.271-0.231-0.416c0.165-0.094,0.331-0.188,0.497-0.292
			C124.474,32.518,124.555,32.653,124.639,32.788L124.639,32.788z M118.553,31.548c-0.099-0.167-0.199-0.333-0.299-0.51
			c0.133-0.074,0.249-0.157,0.398-0.241c0.099,0.178,0.198,0.354,0.298,0.521C118.802,31.402,118.685,31.476,118.553,31.548z"/>
		<path fill-rule="evenodd" clip-rule="evenodd" fill="#312430" d="M120.719,34.392c-0.249,0-0.463,0.203-0.463,0.469
			c0,0.266,0.224,0.478,0.463,0.478s0.447-0.212,0.447-0.478C121.166,34.594,120.967,34.392,120.719,34.392z"/>
		<path fill-rule="evenodd" clip-rule="evenodd" fill="#312430" d="M120.338,31.83c0-0.197,0.149-0.354,0.348-0.354
			c0.199,0,0.347,0.157,0.347,0.354c0,1.01,0.018,2.021,0.018,3.031c0,0.083-0.018,0.146-0.051,0.208
			c-0.314,0.593-0.662,1.177-0.976,1.76c-0.083,0.178-0.298,0.23-0.479,0.136c-0.148-0.104-0.2-0.323-0.1-0.489
			c0.298-0.563,0.612-1.136,0.926-1.708C120.355,33.788,120.338,32.809,120.338,31.83z"/>
		<path fill-rule="evenodd" clip-rule="evenodd" fill="#C41318" d="M88.059,91.811c11.03,0,22.093,0,33.14,0
			c11.03,0,22.094,0,33.14,0c-0.049,0.896-0.115,1.792-0.165,2.675c-10.997,0-21.995,0-32.959,0c-10.979,0-21.977,0-32.941,0
			C88.208,93.603,88.125,92.707,88.059,91.811z"/>
		<path fill-rule="evenodd" clip-rule="evenodd" fill="#C41318" d="M89.795,47.494c3.092,0,6.202,0,9.294,0
			c0.413,0,0.787,0.365,0.81,0.824c0.291,5.822,0.586,11.644,0.893,17.466c0.024,0.458-0.314,0.823-0.711,0.823
			c-2.993,0-5.97,0-8.947,0c-0.413,0-0.76-0.365-0.793-0.823c-0.429-5.822-0.827-11.645-1.256-17.466
			C89.05,47.857,89.365,47.494,89.795,47.494z"/>
		<path fill-rule="evenodd" clip-rule="evenodd" fill="#C41318" d="M103.075,47.494c3.092,0,6.185,0,9.293,0
			c0.43,0,0.783,0.365,0.793,0.824c0.138,5.822,0.26,11.644,0.414,17.466c0.011,0.458-0.314,0.823-0.729,0.823
			c-2.976,0-5.969,0-8.946,0c-0.397,0-0.755-0.364-0.777-0.823c-0.276-5.822-0.518-11.645-0.794-17.466
			C102.308,47.858,102.645,47.494,103.075,47.494z"/>
		<path fill-rule="evenodd" clip-rule="evenodd" fill="#C41318" d="M116.023,47.494c3.093,0,6.184,0,9.293,0
			c0.43,0,0.777,0.365,0.777,0.824c0,5.822-0.049,11.644-0.049,17.466c0,0.459-0.332,0.823-0.729,0.823c-2.993,0-5.985,0-8.963,0
			c-0.396,0-0.735-0.365-0.744-0.823c-0.122-5.822-0.208-11.644-0.331-17.466C115.269,47.858,115.593,47.494,116.023,47.494z"/>
		<path fill-rule="evenodd" clip-rule="evenodd" fill="#C41318" d="M128.972,47.494c3.092,0,6.185,0,9.277,0
			c0.43,0,0.773,0.365,0.76,0.824c-0.168,5.822-0.326,11.644-0.479,17.466c-0.012,0.458-0.381,0.823-0.777,0.823
			c-2.977,0-5.97,0-8.947,0c-0.414,0-0.729-0.365-0.727-0.823c0.03-5.822,0.068-11.644,0.098-17.466
			C128.181,47.858,128.524,47.494,128.972,47.494z"/>
		<path fill-rule="evenodd" clip-rule="evenodd" fill="#C41318" d="M142.549,47.494c3.093,0,6.2,0,9.293,0
			c0.414,0,0.753,0.364,0.728,0.824c-0.321,5.821-0.652,11.644-0.959,17.466c-0.023,0.458-0.397,0.823-0.794,0.823
			c-2.978,0-5.953,0-8.931,0c-0.413,0-0.742-0.365-0.728-0.823c0.186-5.822,0.412-11.644,0.596-17.466
			C141.77,47.858,142.135,47.494,142.549,47.494z"/>
		<path fill-rule="evenodd" clip-rule="evenodd" fill="#C41318" d="M91.366,69.866c2.96,0,5.92,0,8.881,0
			c0.396,0,0.771,0.374,0.793,0.823c0.292,5.822,0.584,11.644,0.876,17.465c0.023,0.458-0.281,0.822-0.679,0.822
			c-2.844,0-5.672,0-8.516,0c-0.397,0-0.745-0.363-0.777-0.822c-0.415-5.821-0.843-11.644-1.257-17.465
			C90.657,70.241,90.953,69.866,91.366,69.866z"/>
		<path fill-rule="evenodd" clip-rule="evenodd" fill="#C41318" d="M104.05,69.866c2.96,0,5.921,0,8.864,0
			c0.43,0,0.767,0.375,0.777,0.823c0.138,5.822,0.276,11.644,0.414,17.465c0.01,0.459-0.282,0.822-0.695,0.822
			c-2.828,0-5.672,0-8.517,0c-0.38,0-0.724-0.364-0.744-0.822c-0.261-5.821-0.534-11.644-0.794-17.465
			C103.335,70.24,103.636,69.866,104.05,69.866z"/>
		<path fill-rule="evenodd" clip-rule="evenodd" fill="#C41318" d="M116.42,69.866c2.959,0,5.92,0,8.88,0
			c0.413,0,0.745,0.375,0.745,0.823c-0.016,5.822-0.019,11.644-0.033,17.465c-0.002,0.459-0.314,0.822-0.712,0.822
			c-2.843,0-5.688,0-8.533,0c-0.38,0-0.703-0.364-0.71-0.822c-0.109-5.821-0.226-11.644-0.348-17.465
			C115.699,70.241,116.006,69.866,116.42,69.866z"/>
		<path fill-rule="evenodd" clip-rule="evenodd" fill="#C41318" d="M128.789,69.866c2.961,0,5.904,0,8.864,0
			c0.413,0,0.74,0.375,0.728,0.823c-0.169,5.822-0.312,11.644-0.479,17.465c-0.015,0.459-0.348,0.822-0.729,0.822
			c-2.844,0-5.688,0-8.532,0c-0.397,0-0.715-0.363-0.711-0.822c0.046-5.821,0.069-11.644,0.116-17.465
			C128.049,70.241,128.376,69.866,128.789,69.866z"/>
		<path fill-rule="evenodd" clip-rule="evenodd" fill="#C41318" d="M141.771,69.866c2.942,0,5.904,0,8.863,0
			c0.397,0,0.735,0.375,0.711,0.823c-0.323,5.823-0.638,11.644-0.959,17.465c-0.025,0.459-0.381,0.822-0.762,0.822
			c-2.844,0-5.671,0-8.516,0c-0.38,0-0.711-0.363-0.695-0.822c0.2-5.821,0.38-11.644,0.58-17.465
			C141.009,70.241,141.357,69.866,141.771,69.866z"/>
		<path fill-rule="evenodd" clip-rule="evenodd" fill="#8A92C1" d="M142.531,48.317c1.438,0,2.878,0,4.35,0
			c-0.083,1.739-0.166,3.479-0.232,5.207c-1.454,0-2.876,0-4.315,0C142.4,51.796,142.448,50.056,142.531,48.317L142.531,48.317z
			 M89.861,48.317c1.439,0,2.877,0,4.349,0c0.099,1.739,0.199,3.479,0.314,5.207c-1.438,0-2.877,0-4.299,0
			C90.093,51.796,89.978,50.056,89.861,48.317L89.861,48.317z M94.79,48.317c1.455,0,2.894,0,4.349,0
			c0.083,1.739,0.165,3.479,0.265,5.207c-1.439,0-2.861,0-4.3,0C95.004,51.796,94.889,50.056,94.79,48.317L94.79,48.317z
			 M99.437,54.139c0.099,1.948,0.198,3.884,0.297,5.822c-1.422,0-2.828,0-4.233,0c-0.116-1.938-0.231-3.874-0.348-5.822
			C96.575,54.139,98.015,54.139,99.437,54.139L99.437,54.139z M99.767,60.575c0.083,1.739,0.183,3.479,0.265,5.208
			c-1.389,0-2.778,0-4.184,0c-0.099-1.729-0.199-3.469-0.314-5.208C96.939,60.575,98.345,60.575,99.767,60.575L99.767,60.575z
			 M95.285,65.783c-1.405,0-2.811,0-4.2,0c-0.117-1.729-0.249-3.469-0.381-5.208c1.422,0,2.828,0,4.25,0
			C95.071,62.314,95.17,64.054,95.285,65.783L95.285,65.783z M90.671,59.961c-0.132-1.938-0.264-3.874-0.396-5.822
			c1.421,0,2.844,0,4.299,0c0.116,1.948,0.231,3.884,0.348,5.822C93.483,59.961,92.077,59.961,90.671,59.961L90.671,59.961z
			 M103.107,48.317c1.438,0,2.911,0,4.366,0c0.049,1.739,0.115,3.479,0.181,5.207c-1.438,0-2.894,0-4.316,0
			C103.256,51.796,103.173,50.056,103.107,48.317L103.107,48.317z M108.052,48.317c1.44,0,2.894,0,4.333,0
			c0.034,1.739,0.084,3.479,0.133,5.207c-1.439,0-2.861,0-4.3,0C108.168,51.796,108.102,50.056,108.052,48.317L108.052,48.317z
			 M112.534,54.139c0.048,1.948,0.083,3.884,0.132,5.822c-1.407,0-2.811,0-4.234,0c-0.066-1.938-0.116-3.874-0.182-5.822
			C109.672,54.139,111.111,54.139,112.534,54.139L112.534,54.139z M112.683,60.575c0.049,1.739,0.099,3.479,0.148,5.208
			c-1.406,0-2.796,0-4.184,0c-0.066-1.729-0.116-3.469-0.182-5.208C109.871,60.575,111.277,60.575,112.683,60.575L112.683,60.575z
			 M108.085,65.783c-1.405,0-2.812,0-4.216,0c-0.067-1.729-0.149-3.469-0.232-5.208c1.423,0,2.844,0,4.267,0
			C107.969,62.314,108.02,64.054,108.085,65.783L108.085,65.783z M103.62,59.961c-0.099-1.938-0.166-3.874-0.248-5.822
			c1.422,0,2.861,0,4.299,0c0.083,1.948,0.132,3.884,0.199,5.822C106.448,59.961,105.026,59.961,103.62,59.961L103.62,59.961z
			 M91.432,70.689c1.39,0,2.762,0,4.151,0c0.116,1.739,0.215,3.478,0.314,5.207c-1.373,0-2.745,0-4.101,0
			C91.68,74.167,91.548,72.428,91.432,70.689L91.432,70.689z M96.146,70.689c1.389,0,2.762,0,4.151,0
			c0.082,1.739,0.165,3.478,0.265,5.207c-1.373,0-2.729,0-4.102,0C96.361,74.167,96.261,72.428,96.146,70.689L96.146,70.689z
			 M100.594,76.511c0.1,1.948,0.199,3.886,0.298,5.822c-1.34,0-2.696,0-4.035,0c-0.116-1.937-0.231-3.874-0.364-5.822
			C97.865,76.511,99.222,76.511,100.594,76.511L100.594,76.511z M100.924,82.947c0.083,1.739,0.182,3.479,0.281,5.207
			c-1.339,0-2.662,0-4.001,0c-0.1-1.729-0.215-3.468-0.314-5.207C98.229,82.947,99.585,82.947,100.924,82.947L100.924,82.947z
			 M96.675,88.154c-1.356,0-2.679,0-4.019,0c-0.116-1.729-0.248-3.468-0.364-5.207c1.339,0,2.695,0,4.051,0
			C96.443,84.687,96.559,86.426,96.675,88.154L96.675,88.154z M92.259,82.333c-0.149-1.937-0.281-3.874-0.43-5.822
			c1.373,0,2.729,0,4.118,0c0.116,1.948,0.248,3.886,0.364,5.822C94.938,82.333,93.599,82.333,92.259,82.333L92.259,82.333z
			 M104.1,70.689c1.373,0,2.762,0,4.167,0c0.049,1.739,0.116,3.478,0.182,5.207c-1.389,0-2.762,0-4.134,0
			C104.231,74.167,104.166,72.428,104.1,70.689L104.1,70.689z M108.813,70.689c1.372,0,2.762,0,4.135,0
			c0.049,1.739,0.082,3.478,0.131,5.207c-1.355,0-2.729,0-4.102,0C108.928,74.167,108.879,72.428,108.813,70.689L108.813,70.689z
			 M113.096,76.511c0.049,1.948,0.099,3.886,0.148,5.822c-1.34,0-2.695,0-4.035,0c-0.067-1.937-0.132-3.874-0.215-5.822
			C110.367,76.511,111.724,76.511,113.096,76.511L113.096,76.511z M113.262,82.947c0.049,1.739,0.082,3.479,0.131,5.207
			c-1.323,0-2.663,0-3.985,0c-0.065-1.729-0.116-3.468-0.181-5.207C110.566,82.947,111.922,82.947,113.262,82.947L113.262,82.947z
			 M108.879,88.154c-1.34,0-2.696,0-4.019,0c-0.083-1.729-0.166-3.468-0.231-5.207c1.339,0,2.695,0,4.068,0
			C108.747,84.687,108.813,86.426,108.879,88.154L108.879,88.154z M104.596,82.333c-0.083-1.937-0.165-3.874-0.248-5.822
			c1.356,0,2.729,0,4.118,0c0.066,1.948,0.133,3.886,0.199,5.822C107.308,82.333,105.952,82.333,104.596,82.333L104.596,82.333z
			 M116.436,70.689c1.389,0,2.779,0,4.168,0c0.015,1.739,0.032,3.478,0.048,5.207c-1.372,0-2.76,0-4.117,0
			C116.502,74.167,116.468,72.428,116.436,70.689L116.436,70.689z M121.166,70.689c1.373,0,2.745,0,4.15,0
			c0,1.739-0.017,3.478,0,5.207c-1.389,0-2.744,0-4.117,0C121.182,74.167,121.182,72.428,121.166,70.689L121.166,70.689z
			 M125.3,76.511c0.017,1.948,0.017,3.886,0.017,5.822c-1.372,0-2.711,0-4.068,0c-0.016-1.937-0.033-3.874-0.049-5.822
			C122.554,76.511,123.928,76.511,125.3,76.511L125.3,76.511z M125.3,82.947c0,1.739,0,3.479,0,5.207c-1.34,0-2.662,0-4.001,0
			c-0.018-1.729-0.033-3.468-0.051-5.207C122.605,82.947,123.944,82.947,125.3,82.947L125.3,82.947z M120.77,88.154
			c-1.34,0-2.68,0-4.02,0c-0.032-1.729-0.065-3.468-0.099-5.207c1.356,0,2.713,0,4.068,0
			C120.736,84.687,120.752,86.426,120.77,88.154L120.77,88.154z M116.651,82.333c-0.033-1.937-0.066-3.874-0.116-5.822
			c1.372,0,2.745,0,4.117,0c0.034,1.948,0.051,3.886,0.067,5.822C119.364,82.333,117.991,82.333,116.651,82.333L116.651,82.333z
			 M116.04,48.317c1.438,0,2.894,0,4.365,0c0,1.739,0.018,3.479,0.033,5.207c-1.439,0-2.877,0-4.315,0
			C116.09,51.796,116.057,50.056,116.04,48.317L116.04,48.317z M120.967,48.317c1.457,0,2.896,0,4.365,0
			c-0.016,1.739-0.016,3.479-0.016,5.207c-1.438,0-2.878,0-4.299,0C121,51.796,120.985,50.056,120.967,48.317L120.967,48.317z
			 M125.316,54.139c0,1.948,0,3.884,0,5.822c-1.438,0-2.845,0-4.25,0c-0.016-1.938-0.033-3.874-0.049-5.822
			C122.457,54.139,123.878,54.139,125.316,54.139L125.316,54.139z M125.316,60.575c0,1.739,0,3.479,0,5.208c-1.405,0-2.812,0-4.2,0
			c-0.017-1.729-0.032-3.469-0.05-5.208C122.472,60.575,123.895,60.575,125.316,60.575L125.316,60.575z M120.571,65.783
			c-1.423,0-2.827,0-4.217,0c-0.034-1.729-0.067-3.469-0.1-5.208c1.406,0,2.829,0,4.25,0
			C120.521,62.314,120.554,64.054,120.571,65.783L120.571,65.783z M116.238,59.961c-0.033-1.938-0.067-3.874-0.1-5.822
			c1.422,0,2.878,0,4.317,0c0.015,1.948,0.032,3.884,0.048,5.822C119.083,59.961,117.644,59.961,116.238,59.961L116.238,59.961z
			 M128.954,48.317c1.456,0,2.895,0,4.35,0c-0.033,1.739-0.049,3.479-0.082,5.207c-1.438,0-2.877,0-4.3,0
			C128.922,51.796,128.938,50.056,128.954,48.317L128.954,48.317z M133.899,48.317c1.438,0,2.893,0,4.333,0
			c-0.05,1.739-0.101,3.479-0.134,5.207c-1.438,0-2.86,0-4.299,0C133.833,51.796,133.866,50.056,133.899,48.317L133.899,48.317z
			 M138.084,54.139c-0.051,1.948-0.116,3.884-0.167,5.822c-1.405,0-2.811,0-4.232,0c0.033-1.938,0.082-3.874,0.115-5.822
			C135.224,54.139,136.661,54.139,138.084,54.139L138.084,54.139z M137.902,60.575c-0.034,1.739-0.083,3.479-0.116,5.208
			c-1.407,0-2.795,0-4.185,0c0.017-1.729,0.05-3.469,0.083-5.208C135.09,60.575,136.495,60.575,137.902,60.575L137.902,60.575z
			 M133.023,65.783c-1.406,0-2.795,0-4.2,0c0.016-1.729,0.033-3.469,0.033-5.208c1.421,0,2.827,0,4.249,0
			C133.072,62.314,133.056,64.054,133.023,65.783L133.023,65.783z M128.856,59.961c0.016-1.938,0.048-3.874,0.065-5.822
			c1.423,0,2.844,0,4.3,0c-0.033,1.948-0.083,3.884-0.116,5.822C131.684,59.961,130.277,59.961,128.856,59.961L128.856,59.961z
			 M128.789,70.689c1.374,0,2.762,0,4.151,0c-0.018,1.739-0.065,3.478-0.084,5.207c-1.388,0-2.744,0-4.117,0
			C128.757,74.167,128.772,72.428,128.789,70.689L128.789,70.689z M133.503,70.689c1.388,0,2.761,0,4.15,0
			c-0.05,1.739-0.099,3.478-0.149,5.207c-1.355,0-2.728,0-4.085,0C133.437,74.167,133.485,72.428,133.503,70.689L133.503,70.689z
			 M137.488,76.511c-0.05,1.948-0.101,3.886-0.148,5.822c-1.34,0-2.696,0-4.036,0c0.033-1.937,0.066-3.874,0.1-5.822
			C134.76,76.511,136.115,76.511,137.488,76.511L137.488,76.511z M137.321,82.947c-0.049,1.739-0.098,3.479-0.131,5.207
			c-1.34,0-2.663,0-3.986,0c0.018-1.729,0.051-3.468,0.084-5.207C134.628,82.947,135.982,82.947,137.321,82.947L137.321,82.947z
			 M132.659,88.154c-1.339,0-2.679,0-4.002,0c0-1.729,0.016-3.468,0.033-5.207c1.339,0,2.679,0,4.051,0
			C132.708,84.687,132.675,86.426,132.659,88.154L132.659,88.154z M128.69,82.333c0.016-1.937,0.033-3.874,0.049-5.822
			c1.356,0,2.729,0,4.103,0c-0.034,1.948-0.067,3.886-0.083,5.822C131.386,82.333,130.047,82.333,128.69,82.333L128.69,82.333z
			 M141.737,70.689c1.389,0,2.762,0,4.167,0c-0.081,1.739-0.164,3.478-0.229,5.207c-1.391,0-2.746,0-4.119,0
			C141.623,74.167,141.688,72.428,141.737,70.689L141.737,70.689z M146.467,70.689c1.372,0,2.763,0,4.135,0
			c-0.083,1.739-0.182,3.478-0.28,5.207c-1.357,0-2.73,0-4.085,0C146.303,74.167,146.385,72.428,146.467,70.689L146.467,70.689z
			 M150.288,76.511c-0.101,1.948-0.199,3.886-0.298,5.822c-1.356,0-2.695,0-4.052,0c0.083-1.937,0.182-3.874,0.247-5.822
			C147.559,76.511,148.915,76.511,150.288,76.511L150.288,76.511z M149.94,82.947c-0.083,1.739-0.182,3.479-0.265,5.207
			c-1.34,0-2.662,0-4.001,0c0.081-1.729,0.164-3.468,0.229-5.207C147.262,82.947,148.601,82.947,149.94,82.947L149.94,82.947z
			 M145.146,88.154c-1.357,0-2.68,0-4.02,0c0.065-1.729,0.132-3.468,0.183-5.207c1.339,0,2.694,0,4.051,0
			C145.294,84.687,145.211,86.426,145.146,88.154L145.146,88.154z M141.342,82.333c0.065-1.937,0.131-3.874,0.197-5.822
			c1.356,0,2.712,0,4.103,0c-0.083,1.948-0.167,3.886-0.249,5.822C144.036,82.333,142.681,82.333,141.342,82.333L141.342,82.333z
			 M147.46,48.317c1.455,0,2.895,0,4.333,0c-0.1,1.739-0.183,3.479-0.281,5.207c-1.423,0-2.861,0-4.283,0
			C147.311,51.796,147.377,50.056,147.46,48.317L147.46,48.317z M151.494,54.139c-0.115,1.948-0.23,3.884-0.33,5.822
			c-1.405,0-2.811,0-4.233,0c0.083-1.938,0.183-3.874,0.265-5.822C148.634,54.139,150.056,54.139,151.494,54.139L151.494,54.139z
			 M151.146,60.575c-0.098,1.739-0.197,3.479-0.281,5.208c-1.389,0-2.794,0-4.183,0c0.082-1.729,0.149-3.469,0.23-5.208
			C148.32,60.575,149.726,60.575,151.146,60.575L151.146,60.575z M146.12,65.783c-1.422,0-2.812,0-4.2,0
			c0.049-1.729,0.114-3.469,0.166-5.208c1.421,0,2.826,0,4.25,0C146.252,62.314,146.186,64.054,146.12,65.783L146.12,65.783z
			 M142.102,59.961c0.066-1.938,0.149-3.874,0.215-5.822c1.438,0,2.861,0,4.301,0c-0.084,1.948-0.184,3.884-0.266,5.822
			C144.931,59.961,143.524,59.961,142.102,59.961z"/>
		<path fill-rule="evenodd" clip-rule="evenodd" fill="#99D9E8" d="M125.327,48.992l-2.615,4.533h-1.694l-0.006-0.479l2.729-4.728
			h1.591C125.33,48.541,125.329,48.767,125.327,48.992L125.327,48.992z M122.354,54.139l-1.317,2.285l-0.02-2.285H122.354
			L122.354,54.139z M120.482,57.384l-1.487,2.577h-1.977l3.362-5.822h0.075L120.482,57.384L120.482,57.384z M118.639,60.575
			l-2.309,4l-0.063-3.311l0.397-0.688H118.639L118.639,60.575z M112.801,70.689l-3.007,5.207h-0.816
			c-0.017-0.636-0.036-1.273-0.055-1.91l1.903-3.297H112.801L112.801,70.689z M109.44,76.511l-0.416,0.72
			c-0.01-0.24-0.02-0.48-0.03-0.72H109.44L109.44,76.511z M108.52,78.104l-2.441,4.229h-1.482l-0.034-0.796l2.903-5.026h1
			L108.52,78.104L108.52,78.104z M105.723,82.947l-1.022,1.771c-0.026-0.59-0.049-1.181-0.072-1.771H105.723L105.723,82.947z
			 M100.742,88.154l0.422-0.73l0.042,0.73H100.742L100.742,88.154z M107.819,75.896l0.591-1.023
			c0.012,0.342,0.025,0.683,0.039,1.023H107.819L107.819,75.896z M138.053,55.292l-2.697,4.669h-1.671
			c0.004-0.181,0.006-0.361,0.009-0.542l3.049-5.28h1.342C138.073,54.524,138.063,54.908,138.053,55.292L138.053,55.292z
			 M135.002,60.575l-1.361,2.357c0.015-0.785,0.028-1.571,0.044-2.357H135.002L135.002,60.575z M133.053,63.95l-1.059,1.833h-1.976
			l3.008-5.208h0.079C133.084,61.701,133.069,62.827,133.053,63.95L133.053,63.95z M129.162,70.689l-0.379,0.657l0.006-0.657
			H129.162L129.162,70.689z M125.306,77.368l-2.865,4.965h-1.192l-0.01-1.338l2.588-4.484h1.474
			C125.303,76.797,125.305,77.082,125.306,77.368L125.306,77.368z M122.085,82.947l-0.823,1.426l-0.014-1.426H122.085
			L122.085,82.947z M120.742,85.275l-1.663,2.879h-1.976l3.005-5.207h0.61L120.742,85.275L120.742,85.275z M120.465,82.333
			l0.25-0.434l0.004,0.434H120.465L120.465,82.333z M124.182,75.896l1.128-1.954c-0.001,0.653,0,1.305,0.007,1.954H124.182
			L124.182,75.896z M137.098,53.524l1.041-1.805c-0.013,0.602-0.027,1.204-0.04,1.805H137.098L137.098,53.524z M135.938,48.317
			l-2.108,3.651c0.023-1.214,0.048-2.433,0.07-3.651H135.938L135.938,48.317z M133.23,53.005l-0.299,0.519h-4.01
			c0-1.112,0.006-2.228,0.017-3.345l1.074-1.862h3.291C133.274,49.882,133.258,51.448,133.23,53.005L133.23,53.005z M132.577,54.139
			l-3.362,5.822h-0.358c0.016-1.938,0.048-3.874,0.065-5.822H132.577L132.577,54.139z M128.86,60.575l-0.004,0.009v-0.009H128.86
			L128.86,60.575z M123.022,70.689l-1.837,3.181c-0.006-1.059-0.009-2.12-0.02-3.181H123.022L123.022,70.689z M120.642,74.809
			l-0.627,1.087h-3.48c-0.027-1.362-0.052-2.73-0.078-4.101l0.641-1.106h3.506L120.642,74.809L120.642,74.809z M119.661,76.511
			l-3.02,5.23c-0.029-1.741-0.061-3.481-0.106-5.23H119.661L119.661,76.511z M113.373,87.401l-0.436,0.753h-3.529
			c-0.049-1.301-0.089-2.606-0.135-3.914l0.746-1.293h3.243C113.304,84.434,113.334,85.921,113.373,87.401L113.373,87.401z
			 M107.013,88.154l1.754-3.037c0.035,1.016,0.074,2.028,0.112,3.037H107.013L107.013,88.154z M110.375,82.333l2.748-4.762
			c0.041,1.591,0.082,3.177,0.122,4.762H110.375L110.375,82.333z M119.928,65.783l0.63-1.09c0.004,0.364,0.008,0.728,0.012,1.09
			H119.928L119.928,65.783z M121.098,63.76l1.837-3.185h2.382c0,1.739,0,3.479,0,5.208c-1.405,0-2.812,0-4.2,0L121.098,63.76
			L121.098,63.76z M123.29,59.961l2.026-3.51v3.51H123.29z"/>
		<path fill-rule="evenodd" clip-rule="evenodd" fill="#F0575A" d="M121.123,81.052c3.633,0.03,25.415,15.301,25.415,15.308
			c-0.273,7.896-0.533,15.032-0.779,23.874c-16.438,0-32.902,0-49.315,0c-0.44-8.76-0.787-15.732-1.161-23.425
			C95.274,96.643,115.716,81.006,121.123,81.052z"/>
		<path fill-rule="evenodd" clip-rule="evenodd" fill="#C41318" d="M121.123,81.052c2.605,0.021,14.529,7.871,21.078,12.318
			l-1.09,26.863h-40.644L99.62,93.481C105.927,88.851,117.294,81.02,121.123,81.052z"/>
		<polygon fill-rule="evenodd" clip-rule="evenodd" fill="#312430" points="91.403,96.934 120.75,77.252 150.233,97.09 
			148.565,100.598 120.795,82.668 93.386,100.765 		"/>
		<path fill-rule="evenodd" clip-rule="evenodd" fill="#FFFFFF" d="M120.682,88.38c-2.054,0-3.7,1.707-3.66,3.82
			c0.04,2.111,1.714,3.826,3.729,3.826c2.013,0,3.642-1.715,3.648-3.826C124.405,90.087,122.735,88.38,120.682,88.38z"/>
		<path fill-rule="evenodd" clip-rule="evenodd" fill="#312430" d="M123.767,92.366c-0.127,0-0.265,0-0.404,0
			c0-0.108,0.013-0.217,0-0.326c0.14,0,0.266,0,0.404,0C123.767,92.149,123.767,92.258,123.767,92.366L123.767,92.366z
			 M120.89,94.961c0,0.146,0,0.283,0,0.421c-0.105,0-0.22,0-0.311,0c0-0.138,0-0.275,0-0.421
			C120.67,94.961,120.785,94.961,120.89,94.961L120.89,94.961z M120.843,89.025c0,0.146,0,0.283,0,0.42c-0.115,0-0.218,0-0.321,0
			c0-0.137,0-0.274-0.012-0.42C120.613,89.025,120.728,89.025,120.843,89.025L120.843,89.025z M118.059,92.366
			c-0.139,0-0.277,0-0.402,0c-0.013-0.108,0-0.217-0.013-0.326c0.138,0,0.266,0,0.404,0
			C118.047,92.149,118.047,92.258,118.059,92.366z"/>
		<path fill-rule="evenodd" clip-rule="evenodd" fill="#312430" d="M123.283,93.933c-0.127-0.066-0.242-0.131-0.346-0.204
			c0.047-0.095,0.104-0.188,0.149-0.291c0.115,0.074,0.23,0.146,0.356,0.212C123.387,93.744,123.34,93.839,123.283,93.933
			L123.283,93.933z M119.543,94.671c-0.057,0.122-0.126,0.247-0.196,0.361c-0.104-0.05-0.184-0.108-0.277-0.165
			c0.07-0.116,0.127-0.233,0.196-0.355C119.358,94.57,119.439,94.621,119.543,94.671L119.543,94.671z M122.374,89.539
			c-0.081,0.124-0.139,0.239-0.207,0.356c-0.104-0.051-0.185-0.102-0.289-0.161c0.081-0.115,0.139-0.237,0.209-0.361
			C122.179,89.431,122.27,89.489,122.374,89.539L122.374,89.539z M118.312,90.968c-0.126-0.065-0.253-0.139-0.367-0.21
			c0.056-0.094,0.114-0.189,0.171-0.283c0.104,0.072,0.22,0.138,0.345,0.203C118.403,90.779,118.358,90.873,118.312,90.968z"/>
		<path fill-rule="evenodd" clip-rule="evenodd" fill="#312430" d="M122.121,95.032c-0.081-0.114-0.139-0.239-0.208-0.361
			c0.093-0.05,0.174-0.101,0.276-0.159c0.069,0.122,0.128,0.239,0.207,0.355C122.281,94.924,122.202,94.982,122.121,95.032
			L122.121,95.032z M118.496,93.729c-0.115,0.073-0.219,0.138-0.334,0.204c-0.057-0.094-0.104-0.188-0.172-0.283
			c0.115-0.066,0.23-0.138,0.355-0.212C118.393,93.54,118.45,93.634,118.496,93.729L118.496,93.729z M123.443,90.758
			c-0.126,0.071-0.253,0.145-0.356,0.21c-0.059-0.095-0.115-0.188-0.161-0.29c0.115-0.065,0.23-0.131,0.347-0.203
			C123.329,90.568,123.387,90.664,123.443,90.758L123.443,90.758z M119.209,89.896c-0.068-0.117-0.139-0.232-0.207-0.356
			c0.091-0.05,0.173-0.108,0.276-0.166c0.069,0.124,0.138,0.246,0.208,0.361C119.381,89.794,119.301,89.845,119.209,89.896z"/>
		<path fill-rule="evenodd" clip-rule="evenodd" fill="#312430" d="M120.717,91.873c-0.173,0-0.324,0.143-0.324,0.327
			c0,0.184,0.156,0.334,0.324,0.334c0.166,0,0.311-0.15,0.311-0.334C121.028,92.016,120.89,91.873,120.717,91.873z"/>
		<path fill-rule="evenodd" clip-rule="evenodd" fill="#312430" d="M120.452,90.091c0-0.138,0.104-0.246,0.242-0.246
			c0.139,0,0.242,0.108,0.242,0.246c0,0.701,0.012,1.406,0.012,2.109c0,0.058-0.012,0.102-0.034,0.146
			c-0.219,0.412-0.461,0.818-0.679,1.224c-0.058,0.123-0.208,0.159-0.334,0.094c-0.104-0.073-0.138-0.226-0.069-0.341
			c0.208-0.391,0.425-0.788,0.644-1.188C120.464,91.453,120.452,90.771,120.452,90.091z"/>
		<path fill-rule="evenodd" clip-rule="evenodd" fill="#ED1F22" d="M103.316,98.057c3.092,0,6.185,0,9.293,0
			c0.43,0,0.784,0.365,0.793,0.822c0.138,5.823,0.261,11.646,0.414,17.469c0.012,0.456-0.314,0.821-0.728,0.821
			c-2.977,0-5.969,0-8.946,0c-0.397,0-0.755-0.363-0.777-0.821c-0.276-5.822-0.518-11.646-0.794-17.469
			C102.55,98.422,102.885,98.057,103.316,98.057z"/>
		<path fill-rule="evenodd" clip-rule="evenodd" fill="#ED1F22" d="M116.264,98.057c3.093,0,6.186,0,9.294,0
			c0.43,0,0.777,0.365,0.777,0.822c0,5.824-0.049,11.646-0.049,17.469c0,0.456-0.332,0.821-0.729,0.821c-2.993,0-5.986,0-8.963,0
			c-0.396,0-0.734-0.365-0.743-0.821c-0.123-5.822-0.208-11.646-0.331-17.469C115.51,98.422,115.834,98.057,116.264,98.057z"/>
		<path fill-rule="evenodd" clip-rule="evenodd" fill="#ED1F22" d="M129.212,98.057c3.093,0,6.186,0,9.278,0
			c0.43,0,0.773,0.365,0.759,0.822c-0.167,5.824-0.325,11.646-0.478,17.469c-0.012,0.456-0.381,0.821-0.777,0.821
			c-2.978,0-5.97,0-8.947,0c-0.413,0-0.73-0.365-0.728-0.821c0.03-5.822,0.068-11.645,0.099-17.469
			C128.421,98.422,128.766,98.057,129.212,98.057z"/>
		<path fill-rule="evenodd" clip-rule="evenodd" fill="#8A92C1" d="M129.196,98.879c1.455,0,2.895,0,4.349,0
			c-0.033,1.741-0.049,3.481-0.082,5.209c-1.438,0-2.878,0-4.301,0C129.162,102.36,129.18,100.62,129.196,98.879L129.196,98.879z
			 M116.28,98.879c1.438,0,2.895,0,4.366,0c0,1.741,0.017,3.481,0.033,5.209c-1.44,0-2.877,0-4.315,0
			C116.331,102.36,116.297,100.62,116.28,98.879L116.28,98.879z M121.209,98.879c1.455,0,2.894,0,4.365,0
			c-0.017,1.741-0.017,3.481-0.017,5.209c-1.438,0-2.877,0-4.299,0C121.24,102.36,121.226,100.62,121.209,98.879L121.209,98.879z
			 M125.558,104.703c0,1.947,0,3.884,0,5.822c-1.438,0-2.845,0-4.251,0c-0.015-1.938-0.033-3.875-0.048-5.822
			C122.697,104.703,124.119,104.703,125.558,104.703L125.558,104.703z M125.558,111.14c0,1.739,0,3.479,0,5.208
			c-1.406,0-2.812,0-4.2,0c-0.017-1.729-0.033-3.469-0.051-5.208C122.713,111.14,124.137,111.14,125.558,111.14L125.558,111.14z
			 M120.812,116.348c-1.422,0-2.827,0-4.217,0c-0.034-1.729-0.066-3.469-0.099-5.208c1.405,0,2.828,0,4.25,0
			C120.763,112.879,120.795,114.618,120.812,116.348L120.812,116.348z M116.479,110.525c-0.033-1.938-0.067-3.875-0.099-5.822
			c1.422,0,2.877,0,4.316,0c0.015,1.947,0.033,3.884,0.049,5.822C119.323,110.525,117.884,110.525,116.479,110.525L116.479,110.525z
			 M103.349,98.879c1.438,0,2.91,0,4.366,0c0.049,1.741,0.116,3.481,0.182,5.209c-1.438,0-2.894,0-4.316,0
			C103.498,102.36,103.414,100.62,103.349,98.879L103.349,98.879z M108.293,98.879c1.438,0,2.894,0,4.333,0
			c0.032,1.741,0.083,3.481,0.131,5.209c-1.438,0-2.86,0-4.299,0C108.409,102.36,108.342,100.62,108.293,98.879L108.293,98.879z
			 M112.774,104.703c0.049,1.947,0.083,3.884,0.132,5.822c-1.406,0-2.812,0-4.233,0c-0.066-1.938-0.115-3.875-0.182-5.822
			C109.914,104.703,111.353,104.703,112.774,104.703L112.774,104.703z M112.923,111.14c0.05,1.739,0.1,3.479,0.149,5.208
			c-1.405,0-2.795,0-4.184,0c-0.065-1.729-0.116-3.469-0.182-5.208C110.112,111.14,111.519,111.14,112.923,111.14L112.923,111.14z
			 M108.326,116.348c-1.406,0-2.811,0-4.217,0c-0.066-1.729-0.149-3.469-0.231-5.208c1.422,0,2.844,0,4.266,0
			C108.21,112.879,108.26,114.618,108.326,116.348L108.326,116.348z M103.861,110.525c-0.099-1.938-0.166-3.875-0.248-5.822
			c1.422,0,2.861,0,4.299,0c0.083,1.947,0.132,3.884,0.199,5.822C106.689,110.525,105.267,110.525,103.861,110.525L103.861,110.525z
			 M134.141,98.879c1.438,0,2.894,0,4.332,0c-0.049,1.741-0.1,3.481-0.132,5.209c-1.439,0-2.861,0-4.301,0
			C134.073,102.36,134.107,100.62,134.141,98.879L134.141,98.879z M138.324,104.703c-0.049,1.947-0.115,3.884-0.166,5.822
			c-1.406,0-2.812,0-4.233,0c0.034-1.938,0.083-3.875,0.115-5.822C135.464,104.703,136.901,104.703,138.324,104.703L138.324,104.703
			z M138.143,111.14c-0.033,1.739-0.083,3.479-0.116,5.208c-1.404,0-2.795,0-4.183,0c0.016-1.729,0.048-3.469,0.081-5.208
			C135.332,111.14,136.737,111.14,138.143,111.14L138.143,111.14z M133.264,116.348c-1.405,0-2.794,0-4.2,0
			c0.017-1.729,0.033-3.469,0.033-5.208c1.422,0,2.827,0,4.25,0C133.313,112.879,133.297,114.618,133.264,116.348L133.264,116.348z
			 M129.097,110.525c0.017-1.938,0.05-3.875,0.065-5.822c1.423,0,2.845,0,4.301,0c-0.033,1.947-0.084,3.884-0.116,5.822
			C131.924,110.525,130.519,110.525,129.097,110.525z"/>
		<path fill-rule="evenodd" clip-rule="evenodd" fill="#99D9E8" d="M132.489,98.879h1.056c-0.011,0.547-0.02,1.094-0.027,1.641
			l-2.06,3.568h-1.975L132.489,98.879L132.489,98.879z M118.103,98.879l-1.779,3.082c-0.017-1.026-0.033-2.054-0.043-3.082H118.103
			L118.103,98.879z M112.849,107.98l-1.469,2.545h-1.975l3.362-5.822h0.008C112.803,105.798,112.826,106.89,112.849,107.98
			L112.849,107.98z M111.025,111.14l-2.188,3.788c-0.037-1.074-0.071-2.151-0.11-3.229l0.322-0.559H111.025L111.025,111.14z
			 M108.307,115.846l-0.289,0.502h-1.975l2.154-3.732C108.234,113.694,108.268,114.771,108.307,115.846L108.307,115.846z
			 M134.464,98.879l-0.334,0.582l0.011-0.582H134.464L134.464,98.879z M131.103,104.703l-1.979,3.428
			c0.014-1.141,0.029-2.282,0.038-3.428H131.103L131.103,104.703z M125.558,114.307l-1.177,2.041h-1.976l3.006-5.208h0.146V114.307
			L125.558,114.307z M125.558,103.669l-0.241,0.419h-4.058l-0.031-3.181l1.171-2.028h3.176
			C125.56,100.479,125.558,102.078,125.558,103.669L125.558,103.669z M124.962,104.703l-3.361,5.822h-0.294
			c-0.015-1.938-0.033-3.875-0.048-5.822H124.962L124.962,104.703z M120.754,111.988l-2.515,4.359h-1.645
			c-0.034-1.729-0.066-3.469-0.099-5.208c1.405,0,2.828,0,4.25,0C120.749,111.423,120.751,111.705,120.754,111.988L120.754,111.988z
			 M112.314,116.348l0.723-1.253l0.035,1.253H112.314L112.314,116.348z M116.456,109.173l2.582-4.47h1.659
			c0.015,1.947,0.033,3.884,0.049,5.822c-1.422,0-2.861,0-4.266,0L116.456,109.173L116.456,109.173z M119.392,104.088l1.268-2.196
			c0.006,0.733,0.012,1.466,0.02,2.196H119.392z"/>
		<rect x="89.336" y="120.279" fill-rule="evenodd" clip-rule="evenodd" fill="#312430" width="63.246" height="3.903"/>
		<rect x="85.648" y="124.183" fill-rule="evenodd" clip-rule="evenodd" fill="#281928" width="70.622" height="3.904"/>
		<path fill-rule="evenodd" clip-rule="evenodd" fill="#F56007" d="M125.65,13.684l6.11-3.232l-6.031-3.141
			C125.676,9.441,125.65,11.551,125.65,13.684z"/>
		<polygon fill-rule="evenodd" clip-rule="evenodd" fill="#F56007" points="120.63,4.43 127.09,6.105 127.09,11.689 120.541,13.296 
					"/>
		<path fill-rule="evenodd" clip-rule="evenodd" fill="#312430" d="M120.871,17.675c0,0.119-0.096,0.215-0.214,0.215
			c-0.117,0-0.213-0.096-0.213-0.215V4.612c0-0.118,0.096-0.214,0.213-0.214c0.118,0,0.214,0.096,0.214,0.214V17.675z"/>
		<circle fill-rule="evenodd" clip-rule="evenodd" fill="#312430" cx="120.656" cy="3.893" r="0.764"/>
		<path fill-rule="evenodd" clip-rule="evenodd" fill="#8A92C1" d="M85.297,102.776c-1.108,0-2.216,0-3.307,0
			c0.132,1.48,0.281,2.959,0.43,4.438c1.075,0,2.166,0,3.274,0C85.562,105.735,85.413,104.257,85.297,102.776L85.297,102.776z
			 M60.458,65.793c-1.19,0-2.381,0-3.555,0c0.214,1.479,0.414,2.958,0.628,4.437c1.174,0,2.348,0,3.522,0
			C60.855,68.751,60.673,67.272,60.458,65.793L60.458,65.793z M56.424,65.793c0.215,1.479,0.413,2.958,0.628,4.437
			c-1.19,0-2.365,0-3.54,0c-0.231-1.479-0.429-2.958-0.661-4.437C54.042,65.793,55.217,65.793,56.424,65.793L56.424,65.793z
			 M53.596,70.751c0.248,1.655,0.496,3.312,0.727,4.958c1.174,0,2.332,0,3.506,0c-0.231-1.646-0.463-3.302-0.711-4.958
			C55.927,70.751,54.77,70.751,53.596,70.751L53.596,70.751z M54.406,76.229c0.231,1.479,0.446,2.958,0.662,4.437
			c1.157,0,2.298,0,3.456,0c-0.199-1.479-0.414-2.958-0.628-4.437C56.721,76.229,55.564,76.229,54.406,76.229L54.406,76.229z
			 M59.003,80.666c-0.214-1.479-0.413-2.958-0.628-4.437c1.158,0,2.315,0,3.489,0c0.198,1.479,0.397,2.958,0.595,4.437
			C61.285,80.666,60.145,80.666,59.003,80.666L59.003,80.666z M61.798,75.709c-1.174,0-2.348,0-3.505,0
			c-0.231-1.646-0.447-3.302-0.694-4.958c1.173,0,2.348,0,3.522,0C61.368,72.407,61.583,74.063,61.798,75.709L61.798,75.709z
			 M71.092,65.793c-1.191,0-2.398,0-3.572,0c0.182,1.479,0.347,2.958,0.529,4.437c1.174,0,2.348,0,3.539,0
			C71.422,68.751,71.273,67.272,71.092,65.793L71.092,65.793z M67.041,65.793c0.182,1.479,0.347,2.958,0.529,4.437
			c-1.19,0-2.364,0-3.539,0c-0.199-1.479-0.364-2.958-0.563-4.437C64.643,65.793,65.833,65.793,67.041,65.793L67.041,65.793z
			 M64.097,70.751c0.215,1.655,0.43,3.312,0.628,4.958c1.158,0,2.332,0,3.506,0c-0.198-1.646-0.397-3.302-0.596-4.958
			C66.445,70.751,65.271,70.751,64.097,70.751L64.097,70.751z M64.792,76.229c0.198,1.479,0.396,2.958,0.563,4.437
			c1.157,0,2.298,0,3.473,0c-0.182-1.479-0.365-2.958-0.546-4.437C67.106,76.229,65.949,76.229,64.792,76.229L64.792,76.229z
			 M69.289,80.666c-0.165-1.479-0.347-2.958-0.529-4.437c1.158,0,2.333,0,3.506,0c0.165,1.479,0.331,2.958,0.496,4.437
			C71.588,80.666,70.431,80.666,69.289,80.666L69.289,80.666z M72.2,75.709c-1.174,0-2.348,0-3.505,0
			c-0.199-1.646-0.381-3.302-0.596-4.958c1.174,0,2.365,0,3.556,0C71.836,72.407,72.018,74.063,72.2,75.709L72.2,75.709z
			 M81.973,65.793c-1.19,0-2.398,0-3.572,0c0.149,1.479,0.281,2.958,0.43,4.437c1.175,0,2.365,0,3.556,0
			C82.238,68.751,82.122,67.272,81.973,65.793L81.973,65.793z M77.921,65.793c-1.19,0-2.364,0-3.555,0
			c0.166,1.479,0.298,2.958,0.463,4.437c1.174,0,2.349,0,3.522,0C78.203,68.751,78.071,67.272,77.921,65.793L77.921,65.793z
			 M74.878,70.751c0.183,1.655,0.364,3.312,0.529,4.958c1.158,0,2.316,0,3.473,0c-0.149-1.646-0.314-3.302-0.479-4.958
			C77.227,70.751,76.053,70.751,74.878,70.751L74.878,70.751z M75.458,76.229c0.166,1.479,0.314,2.958,0.463,4.437
			c1.158,0,2.299,0,3.457,0c-0.148-1.479-0.297-2.958-0.446-4.437C77.773,76.229,76.615,76.229,75.458,76.229L75.458,76.229z
			 M79.84,80.666c1.141,0,2.299,0,3.473,0c-0.133-1.479-0.265-2.958-0.397-4.437c-1.174,0-2.348,0-3.505,0
			C79.559,77.708,79.708,79.188,79.84,80.666L79.84,80.666z M82.866,75.709c-1.174,0-2.348,0-3.506,0
			c-0.166-1.646-0.314-3.302-0.479-4.958c1.174,0,2.348,0,3.539,0C82.585,72.407,82.717,74.063,82.866,75.709L82.866,75.709z
			 M83.643,84.437c-1.14,0-2.298,0-3.439,0c0.132,1.479,0.281,2.958,0.43,4.438c1.125,0,2.265,0,3.423,0
			C83.908,87.395,83.775,85.916,83.643,84.437L83.643,84.437z M79.741,84.437c-1.141,0-2.265,0-3.407,0
			c0.149,1.479,0.298,2.958,0.463,4.438c1.125,0,2.249,0,3.39,0C80.038,87.395,79.89,85.916,79.741,84.437L79.741,84.437z
			 M76.847,89.394c0.166,1.656,0.348,3.313,0.529,4.958c1.108,0,2.216,0,3.341,0c-0.165-1.645-0.331-3.302-0.496-4.958
			C79.096,89.394,77.971,89.394,76.847,89.394L76.847,89.394z M77.426,94.872c0.149,1.479,0.314,2.958,0.463,4.438
			c1.107,0,2.199,0,3.308,0c-0.132-1.479-0.281-2.959-0.43-4.438C79.641,94.872,78.534,94.872,77.426,94.872L77.426,94.872z
			 M81.643,99.31c1.108,0,2.216,0,3.34,0c-0.133-1.479-0.265-2.959-0.414-4.438c-1.125,0-2.25,0-3.357,0
			C81.361,96.351,81.51,97.83,81.643,99.31L81.643,99.31z M84.536,94.352c-1.124,0-2.265,0-3.373,0
			c-0.149-1.645-0.331-3.302-0.48-4.958c1.125,0,2.266,0,3.407,0C84.239,91.05,84.388,92.707,84.536,94.352L84.536,94.352z
			 M73.192,84.437c-1.158,0-2.315,0-3.456,0c0.181,1.479,0.347,2.958,0.529,4.438c1.141,0,2.282,0,3.423,0
			C73.506,87.395,73.341,85.916,73.192,84.437L73.192,84.437z M69.272,84.437c0.183,1.479,0.364,2.958,0.546,4.438
			c-1.141,0-2.266,0-3.406,0c-0.183-1.479-0.381-2.958-0.563-4.438C66.991,84.437,68.132,84.437,69.272,84.437L69.272,84.437z
			 M66.478,89.394c0.215,1.656,0.43,3.313,0.628,4.958c1.125,0,2.233,0,3.357,0c-0.181-1.645-0.397-3.302-0.595-4.958
			C68.727,89.394,67.603,89.394,66.478,89.394L66.478,89.394z M67.173,94.872c0.198,1.479,0.396,2.958,0.579,4.438
			c1.091,0,2.199,0,3.307,0c-0.166-1.479-0.348-2.959-0.529-4.438C69.405,94.872,68.297,94.872,67.173,94.872L67.173,94.872z
			 M71.505,99.31c-0.165-1.479-0.347-2.959-0.529-4.438c1.125,0,2.25,0,3.374,0c0.166,1.479,0.347,2.958,0.496,4.438
			C73.738,99.31,72.613,99.31,71.505,99.31L71.505,99.31z M74.3,94.352c-1.142,0-2.266,0-3.374,0
			c-0.199-1.645-0.397-3.302-0.596-4.958c1.125,0,2.266,0,3.407,0C73.919,91.05,74.118,92.707,74.3,94.352L74.3,94.352z
			 M62.972,84.437c-1.158,0-2.299,0-3.439,0c0.199,1.479,0.413,2.958,0.628,4.438c1.124,0,2.266,0,3.407,0
			C63.353,87.395,63.154,85.916,62.972,84.437L62.972,84.437z M59.069,84.437c0.215,1.479,0.43,2.958,0.646,4.438
			c-1.142,0-2.283,0-3.407,0c-0.231-1.479-0.446-2.958-0.662-4.438C56.787,84.437,57.928,84.437,59.069,84.437L59.069,84.437z
			 M56.391,89.394c0.231,1.656,0.496,3.313,0.727,4.958c1.125,0,2.233,0,3.357,0c-0.215-1.645-0.462-3.302-0.695-4.958
			C58.64,89.394,57.515,89.394,56.391,89.394L56.391,89.394z M57.201,94.872c0.231,1.479,0.446,2.958,0.661,4.438
			c1.108,0,2.216,0,3.324,0c-0.199-1.479-0.414-2.959-0.628-4.438C59.434,94.872,58.309,94.872,57.201,94.872L57.201,94.872z
			 M61.633,99.31c-0.199-1.479-0.414-2.959-0.629-4.438c1.108,0,2.232,0,3.357,0c0.198,1.479,0.397,2.958,0.596,4.438
			C63.832,99.31,62.741,99.31,61.633,99.31L61.633,99.31z M64.295,94.352c-1.125,0-2.249,0-3.356,0
			c-0.232-1.645-0.48-3.302-0.695-4.958c1.125,0,2.249,0,3.39,0C63.849,91.05,64.08,92.707,64.295,94.352L64.295,94.352z
			 M65.419,102.776c-1.108,0-2.199,0-3.291,0c0.198,1.48,0.414,2.959,0.628,4.438c1.091,0,2.167,0,3.258,0
			C65.817,105.735,65.618,104.257,65.419,102.776L65.419,102.776z M61.683,102.776c0.214,1.48,0.43,2.959,0.645,4.438
			c-1.108,0-2.183,0-3.274,0c-0.215-1.479-0.446-2.957-0.661-4.438C59.483,102.776,60.574,102.776,61.683,102.776L61.683,102.776z
			 M59.136,107.734c0.248,1.657,0.479,3.313,0.744,4.958c1.059,0,2.133,0,3.224,0c-0.248-1.646-0.479-3.301-0.71-4.958
			C61.302,107.734,60.21,107.734,59.136,107.734L59.136,107.734z M59.946,113.213c0.231,1.479,0.446,2.957,0.662,4.437
			c1.059,0,2.117,0,3.191,0c-0.214-1.479-0.414-2.958-0.628-4.437C62.096,113.213,61.021,113.213,59.946,113.213L59.946,113.213z
			 M64.229,117.649c-0.215-1.479-0.414-2.958-0.628-4.437c1.075,0,2.133,0,3.224,0c0.199,1.479,0.381,2.957,0.595,4.437
			C66.346,117.649,65.288,117.649,64.229,117.649L64.229,117.649z M66.759,112.692c-1.092,0-2.167,0-3.225,0
			c-0.248-1.646-0.479-3.301-0.71-4.958c1.091,0,2.166,0,3.257,0C66.313,109.392,66.527,111.047,66.759,112.692L66.759,112.692z
			 M75.243,102.776c-1.108,0-2.216,0-3.307,0c0.165,1.48,0.347,2.959,0.529,4.438c1.075,0,2.183,0,3.274,0
			C75.573,105.735,75.391,104.257,75.243,102.776L75.243,102.776z M71.489,102.776c0.165,1.48,0.347,2.959,0.529,4.438
			c-1.091,0-2.167,0-3.258,0c-0.198-1.479-0.38-2.957-0.562-4.438C69.289,102.776,70.381,102.776,71.489,102.776L71.489,102.776z
			 M68.827,107.734c0.214,1.657,0.413,3.313,0.628,4.958c1.075,0,2.149,0,3.225,0c-0.199-1.646-0.397-3.301-0.596-4.958
			C70.992,107.734,69.901,107.734,68.827,107.734L68.827,107.734z M69.521,113.213c0.199,1.479,0.38,2.957,0.562,4.437
			c1.058,0,2.117,0,3.192,0c-0.182-1.479-0.348-2.958-0.529-4.437C71.654,113.213,70.596,113.213,69.521,113.213L69.521,113.213z
			 M73.705,117.649c-0.183-1.479-0.348-2.958-0.53-4.437c1.075,0,2.15,0,3.226,0c0.181,1.479,0.33,2.957,0.496,4.437
			C75.838,117.649,74.763,117.649,73.705,117.649L73.705,117.649z M76.351,112.692c-1.091,0-2.167,0-3.241,0
			c-0.199-1.646-0.397-3.301-0.579-4.958c1.075,0,2.166,0,3.258,0C75.97,109.392,76.152,111.047,76.351,112.692L76.351,112.692z
			 M81.543,102.776c-1.091,0-2.183,0-3.291,0c0.149,1.48,0.314,2.959,0.479,4.438c1.075,0,2.167,0,3.242,0
			C81.824,105.735,81.675,104.257,81.543,102.776L81.543,102.776z M78.782,107.734c0.166,1.657,0.331,3.313,0.512,4.958
			c1.075,0,2.15,0,3.209,0c-0.167-1.646-0.315-3.301-0.48-4.958C80.948,107.734,79.856,107.734,78.782,107.734L78.782,107.734z
			 M79.36,113.213c0.148,1.479,0.298,2.957,0.463,4.437c1.059,0,2.117,0,3.159,0c-0.132-1.479-0.281-2.958-0.43-4.437
			C81.494,113.213,80.419,113.213,79.36,113.213L79.36,113.213z M83.412,117.649c1.058,0,2.133,0,3.208,0
			c-0.133-1.479-0.265-2.958-0.397-4.437c-1.075,0-2.167,0-3.225,0C83.131,114.691,83.28,116.17,83.412,117.649L83.412,117.649z
			 M86.173,112.692c-1.075,0-2.166,0-3.241,0c-0.165-1.646-0.314-3.301-0.463-4.958c1.075,0,2.167,0,3.258,0
			C85.876,109.392,86.025,111.047,86.173,112.692z"/>
		<path fill-rule="evenodd" clip-rule="evenodd" fill="#99D9E8" d="M76.09,65.793l-1.461,2.531
			c-0.085-0.843-0.168-1.687-0.263-2.531H76.09L76.09,65.793z M71.906,73.042l-1.54,2.667h-1.672
			c-0.018-0.145-0.035-0.29-0.052-0.435l2.611-4.522h0.401C71.738,71.515,71.822,72.278,71.906,73.042L71.906,73.042z
			 M70.065,76.229l-1.077,1.866c-0.075-0.623-0.151-1.245-0.229-1.866H70.065L70.065,76.229z M68.594,78.777l-1.09,1.889h-1.975
			l2.562-4.437h0.19L68.594,78.777L68.594,78.777z M63.409,87.76l-0.643,1.114h-1.975l2.249-3.896
			C63.156,85.905,63.279,86.832,63.409,87.76L63.409,87.76z M62.465,89.394l-1.792,3.104c-0.131-0.917-0.263-1.837-0.384-2.755
			l0.201-0.349H62.465L62.465,89.394z M60.31,93.126c-0.126-0.914-0.259-1.828-0.39-2.745l-2.292,3.971h1.975L60.31,93.126
			L60.31,93.126z M59.302,94.872l-1.666,2.885c-0.132-0.904-0.267-1.81-0.408-2.714l0.099-0.171H59.302L59.302,94.872z
			 M71.554,70.23l0.029-0.049l0.005,0.049H71.554L71.554,70.23z M81.689,84.437l-1.277,2.212c-0.072-0.737-0.142-1.475-0.208-2.212
			H81.689L81.689,84.437z M80.03,87.31l-0.903,1.564h-1.975l2.562-4.438h0.027L80.03,87.31L80.03,87.31z M78.826,89.394
			l-1.676,2.902c-0.104-0.964-0.207-1.929-0.303-2.895l0.003-0.008H78.826L78.826,89.394z M74.567,96.772l-1.465,2.537h-1.597
			c-0.02-0.185-0.041-0.366-0.062-0.549l2.246-3.889h0.661C74.42,95.506,74.495,96.138,74.567,96.772L74.567,96.772z M71.1,102.776
			l-2.381,4.125c-0.125-0.934-0.241-1.868-0.358-2.801l0.764-1.324H71.1L71.1,102.776z M66.493,110.756l-1.118,1.937h-1.841
			l-0.028-0.184l2.61-4.521C66.245,108.911,66.369,109.836,66.493,110.756L66.493,110.756z M65.075,113.213l-1.184,2.05
			c-0.096-0.683-0.191-1.366-0.29-2.05H65.075L65.075,113.213z M63.545,115.861l-1.032,1.788h-1.905l-0.014-0.096l2.506-4.341h0.071
			C63.299,114.096,63.421,114.979,63.545,115.861L63.545,115.861z M73.989,94.352l0.261-0.45c0.017,0.15,0.033,0.3,0.05,0.45H73.989
			L73.989,94.352z M81.891,80.666l1.231-2.133l0.191,2.133H81.891L81.891,80.666z M82.564,72.283l-1.977,3.426H79.36
			c-0.166-1.646-0.314-3.302-0.479-4.958c1.174,0,2.348,0,3.539,0C82.471,71.261,82.519,71.772,82.564,72.283L82.564,72.283z
			 M80.287,76.229l-0.747,1.293c-0.043-0.431-0.087-0.862-0.13-1.293H80.287L80.287,76.229z M79.132,78.229l-1.407,2.438H75.92
			c-0.149-1.479-0.297-2.958-0.463-4.437c1.158,0,2.315,0,3.473,0L79.132,78.229L79.132,78.229z M73.567,87.868l-0.581,1.006h-2.721
			c-0.182-1.479-0.348-2.958-0.529-4.438c1.141,0,2.298,0,3.456,0C73.307,85.581,73.432,86.725,73.567,87.868L73.567,87.868z
			 M72.685,89.394l-1.949,3.376c-0.135-1.123-0.27-2.249-0.405-3.376H72.685L72.685,89.394z M70.358,93.425
			c-0.156-1.34-0.329-2.687-0.49-4.031h-3.107l-0.231,0.4c0.198,1.522,0.394,3.043,0.576,4.558h2.717L70.358,93.425L70.358,93.425z
			 M69.522,94.872l-1.913,3.313c-0.141-1.104-0.289-2.209-0.437-3.313H69.522L69.522,94.872z M64.958,102.776l-2.273,3.938
			c-0.191-1.311-0.38-2.624-0.556-3.938H64.958L64.958,102.776z M62.097,107.734l-2.355,4.079c-0.209-1.354-0.402-2.718-0.606-4.079
			H62.097L62.097,107.734z M58.522,103.664c0.176,1.183,0.359,2.366,0.531,3.55c1.092,0,2.167,0,3.274,0
			c-0.215-1.479-0.43-2.957-0.645-4.438h-2.649L58.522,103.664L58.522,103.664z M61.036,99.31l0.122-0.212l0.029,0.212H61.036
			L61.036,99.31z M61.519,98.473l2.078-3.601h0.764c0.198,1.479,0.397,2.958,0.596,4.438c-1.125,0-2.216,0-3.324,0
			C61.596,99.029,61.558,98.752,61.519,98.473L61.519,98.473z M63.898,94.352l0.323-0.561c0.025,0.187,0.049,0.374,0.074,0.561
			H63.898L63.898,94.352z M67.061,88.874h2.757l-0.483-3.938L67.061,88.874L67.061,88.874z M71.799,80.666l0.807-1.396l0.156,1.396
			H71.799L71.799,80.666z M75.295,74.611c0.038,0.366,0.076,0.732,0.112,1.098c1.158,0,2.316,0,3.473,0
			c-0.149-1.646-0.314-3.302-0.479-4.958h-0.877L75.295,74.611L75.295,74.611z M77.825,70.23l0.45-0.779
			c0.025,0.259,0.051,0.52,0.077,0.779H77.825L77.825,70.23z M78.686,68.74l1.701-2.947h1.587c0.149,1.479,0.265,2.958,0.414,4.437
			c-1.19,0-2.381,0-3.556,0C78.781,69.733,78.733,69.237,78.686,68.74z"/>
		<path fill-rule="evenodd" clip-rule="evenodd" fill="#8A92C1" d="M157.283,102.776c1.106,0,2.216,0,3.322,0
			c-0.13,1.48-0.247,2.959-0.363,4.438c-1.091,0-2.182,0-3.273,0C157.084,105.735,157.183,104.257,157.283,102.776L157.283,102.776z
			 M181.477,65.793c1.174,0,2.364,0,3.556,0c-0.183,1.479-0.364,2.958-0.547,4.437c-1.174,0-2.348,0-3.522,0
			C181.13,68.751,181.295,67.272,181.477,65.793L181.477,65.793z M185.513,65.793c-0.184,1.479-0.365,2.958-0.548,4.437
			c1.174,0,2.349,0,3.54,0c0.197-1.479,0.379-2.958,0.578-4.437C187.893,65.793,186.701,65.793,185.513,65.793L185.513,65.793z
			 M188.422,70.751c-0.198,1.655-0.431,3.312-0.63,4.958c-1.173,0-2.347,0-3.504,0c0.197-1.646,0.413-3.302,0.611-4.958
			C186.075,70.751,187.248,70.751,188.422,70.751L188.422,70.751z M187.711,76.229c-0.199,1.479-0.381,2.958-0.578,4.437
			c-1.158,0-2.316,0-3.458,0c0.184-1.479,0.365-2.958,0.547-4.437C185.379,76.229,186.537,76.229,187.711,76.229L187.711,76.229z
			 M183.213,80.666c0.182-1.479,0.364-2.958,0.546-4.437c-1.176,0-2.332,0-3.507,0c-0.165,1.479-0.329,2.958-0.513,4.437
			C180.897,80.666,182.039,80.666,183.213,80.666L183.213,80.666z M180.318,75.709c1.174,0,2.332,0,3.507,0
			c0.197-1.646,0.396-3.302,0.596-4.958c-1.191,0-2.366,0-3.523,0C180.716,72.407,180.518,74.063,180.318,75.709L180.318,75.709z
			 M170.844,65.793c1.173,0,2.38,0,3.589,0c-0.15,1.479-0.314,2.958-0.465,4.437c-1.173,0-2.364,0-3.538,0
			C170.563,68.751,170.712,67.272,170.844,65.793L170.844,65.793z M174.911,65.793c1.175,0,2.364,0,3.555,0
			c-0.148,1.479-0.313,2.958-0.479,4.437c-1.19,0-2.365,0-3.539,0C174.597,68.751,174.745,67.272,174.911,65.793L174.911,65.793z
			 M177.922,70.751c-0.167,1.655-0.365,3.312-0.529,4.958c-1.175,0-2.333,0-3.507,0c0.166-1.646,0.348-3.302,0.513-4.958
			C175.557,70.751,176.73,70.751,177.922,70.751L177.922,70.751z M177.326,76.229c-0.166,1.479-0.314,2.958-0.48,4.437
			c-1.174,0-2.315,0-3.455,0c0.148-1.479,0.297-2.958,0.446-4.437C174.994,76.229,176.15,76.229,177.326,76.229L177.326,76.229z
			 M172.909,80.666c-1.157,0-2.314,0-3.471,0c0.148-1.479,0.28-2.958,0.412-4.437c1.175,0,2.349,0,3.521,0
			C173.224,77.708,173.075,79.188,172.909,80.666L172.909,80.666z M169.917,75.709c1.157,0,2.331,0,3.507,0
			c0.165-1.646,0.329-3.302,0.495-4.958c-1.191,0-2.382,0-3.555,0C170.23,72.407,170.065,74.063,169.917,75.709L169.917,75.709z
			 M159.962,65.793c1.173,0,2.382,0,3.573,0c-0.117,1.479-0.232,2.958-0.349,4.437c-1.19,0-2.365,0-3.539,0
			C159.746,68.751,159.847,67.272,159.962,65.793L159.962,65.793z M164.013,65.793c1.191,0,2.382,0,3.556,0
			c-0.116,1.479-0.248,2.958-0.38,4.437c-1.175,0-2.349,0-3.523,0C163.782,68.751,163.897,67.272,164.013,65.793L164.013,65.793z
			 M167.139,70.751c-0.133,1.655-0.281,3.312-0.43,4.958c-1.158,0-2.316,0-3.473,0c0.114-1.646,0.265-3.302,0.38-4.958
			C164.79,70.751,165.965,70.751,167.139,70.751L167.139,70.751z M166.66,76.229c-0.133,1.479-0.25,2.958-0.381,4.437
			c-1.157,0-2.299,0-3.44,0c0.115-1.479,0.232-2.958,0.348-4.437C164.345,76.229,165.503,76.229,166.66,76.229L166.66,76.229z
			 M162.359,80.666c-1.158,0-2.316,0-3.473,0c0.116-1.479,0.216-2.958,0.313-4.437c1.175,0,2.349,0,3.507,0
			C162.606,77.708,162.492,79.188,162.359,80.666L162.359,80.666z M159.251,75.709c0.115-1.646,0.229-3.302,0.347-4.958
			c1.175,0,2.365,0,3.538,0c-0.115,1.655-0.247,3.312-0.379,4.958C161.582,75.709,160.409,75.709,159.251,75.709L159.251,75.709z
			 M158.623,84.437c1.14,0,2.281,0,3.439,0c-0.116,1.479-0.232,2.958-0.349,4.438c-1.141,0-2.281,0-3.406,0
			C158.407,87.395,158.507,85.916,158.623,84.437L158.623,84.437z M162.525,84.437c1.14,0,2.281,0,3.406,0
			c-0.115,1.479-0.247,2.958-0.381,4.438c-1.124,0-2.248,0-3.373,0C162.293,87.395,162.41,85.916,162.525,84.437L162.525,84.437z
			 M165.503,89.394c-0.15,1.656-0.282,3.313-0.433,4.958c-1.124,0-2.231,0-3.356,0c0.148-1.645,0.265-3.302,0.414-4.958
			C163.253,89.394,164.378,89.394,165.503,89.394L165.503,89.394z M165.022,94.872c-0.133,1.479-0.266,2.958-0.397,4.438
			c-1.09,0-2.2,0-3.307,0c0.132-1.479,0.247-2.959,0.363-4.438C162.791,94.872,163.897,94.872,165.022,94.872L165.022,94.872z
			 M160.871,99.31c-1.108,0-2.233,0-3.325,0c0.101-1.479,0.199-2.959,0.314-4.438c1.109,0,2.234,0,3.358,0
			C161.103,96.351,160.986,97.83,160.871,99.31L160.871,99.31z M157.894,94.352c0.134-1.645,0.232-3.302,0.365-4.958
			c1.125,0,2.265,0,3.407,0c-0.133,1.656-0.266,3.313-0.398,4.958C160.144,94.352,159.019,94.352,157.894,94.352L157.894,94.352z
			 M169.073,84.437c1.143,0,2.3,0,3.456,0c-0.148,1.479-0.297,2.958-0.445,4.438c-1.143,0-2.282,0-3.425,0
			C168.81,87.395,168.94,85.916,169.073,84.437L169.073,84.437z M172.993,84.437c-0.165,1.479-0.313,2.958-0.464,4.438
			c1.124,0,2.267,0,3.406,0c0.15-1.479,0.314-2.958,0.48-4.438C175.258,84.437,174.134,84.437,172.993,84.437L172.993,84.437z
			 M175.869,89.394c-0.181,1.656-0.362,3.313-0.544,4.958c-1.125,0-2.25,0-3.358,0c0.165-1.645,0.332-3.302,0.514-4.958
			C173.604,89.394,174.729,89.394,175.869,89.394L175.869,89.394z M175.258,94.872c-0.165,1.479-0.33,2.958-0.479,4.438
			c-1.125,0-2.232,0-3.323,0c0.148-1.479,0.297-2.959,0.447-4.438C173.01,94.872,174.134,94.872,175.258,94.872L175.258,94.872z
			 M171.009,99.31c0.148-1.479,0.298-2.959,0.446-4.438c-1.124,0-2.249,0-3.374,0c-0.132,1.479-0.266,2.958-0.414,4.438
			C168.776,99.31,169.884,99.31,171.009,99.31L171.009,99.31z M168.147,94.352c1.107,0,2.231,0,3.356,0
			c0.182-1.645,0.348-3.302,0.513-4.958c-1.142,0-2.281,0-3.406,0C168.445,91.05,168.297,92.707,168.147,94.352L168.147,94.352z
			 M179.294,84.437c1.14,0,2.282,0,3.439,0c-0.184,1.479-0.364,2.958-0.546,4.438c-1.141,0-2.265,0-3.407,0
			C178.962,87.395,179.128,85.916,179.294,84.437L179.294,84.437z M183.196,84.437c-0.181,1.479-0.364,2.958-0.546,4.438
			c1.124,0,2.249,0,3.391,0c0.197-1.479,0.379-2.958,0.578-4.438C185.461,84.437,184.337,84.437,183.196,84.437L183.196,84.437z
			 M185.958,89.394c-0.215,1.656-0.431,3.313-0.646,4.958c-1.142,0-2.248,0-3.357,0c0.217-1.645,0.398-3.302,0.613-4.958
			C183.693,89.394,184.816,89.394,185.958,89.394L185.958,89.394z M185.23,94.872c-0.198,1.479-0.381,2.958-0.579,4.438
			c-1.125,0-2.217,0-3.323,0c0.182-1.479,0.363-2.959,0.545-4.438C182.997,94.872,184.105,94.872,185.23,94.872L185.23,94.872z
			 M180.881,99.31c0.182-1.479,0.363-2.959,0.546-4.438c-1.125,0-2.232,0-3.356,0c-0.167,1.479-0.33,2.958-0.514,4.438
			C178.665,99.31,179.772,99.31,180.881,99.31L180.881,99.31z M178.136,94.352c1.125,0,2.232,0,3.356,0
			c0.215-1.645,0.414-3.302,0.629-4.958c-1.14,0-2.265,0-3.407,0C178.517,91.05,178.336,92.707,178.136,94.352L178.136,94.352z
			 M177.16,102.776c1.091,0,2.183,0,3.292,0c-0.182,1.48-0.365,2.959-0.548,4.438c-1.091,0-2.183,0-3.256,0
			C176.813,105.735,176.979,104.257,177.16,102.776L177.16,102.776z M180.897,102.776c-0.182,1.48-0.363,2.959-0.563,4.438
			c1.092,0,2.167,0,3.273,0c0.184-1.479,0.381-2.957,0.58-4.438C183.079,102.776,181.988,102.776,180.897,102.776L180.897,102.776z
			 M183.526,107.734c-0.197,1.657-0.429,3.313-0.661,4.958c-1.074,0-2.149,0-3.208,0c0.199-1.646,0.414-3.301,0.613-4.958
			C181.361,107.734,182.435,107.734,183.526,107.734L183.526,107.734z M182.815,113.213c-0.198,1.479-0.396,2.957-0.595,4.437
			c-1.076,0-2.134,0-3.192,0c0.199-1.479,0.381-2.958,0.563-4.437C180.666,113.213,181.725,113.213,182.815,113.213L182.815,113.213
			z M178.6,117.649c0.198-1.479,0.38-2.958,0.562-4.437c-1.076,0-2.149,0-3.207,0c-0.182,1.479-0.349,2.957-0.529,4.437
			C176.482,117.649,177.522,117.649,178.6,117.649L178.6,117.649z M176.002,112.692c1.059,0,2.134,0,3.208,0
			c0.216-1.646,0.432-3.301,0.629-4.958c-1.107,0-2.183,0-3.257,0C176.398,109.392,176.201,111.047,176.002,112.692L176.002,112.692
			z M167.337,102.776c1.092,0,2.199,0,3.308,0c-0.148,1.48-0.299,2.959-0.447,4.438c-1.091,0-2.183,0-3.274,0
			C167.057,105.735,167.205,104.257,167.337,102.776L167.337,102.776z M171.092,102.776c-0.15,1.48-0.299,2.959-0.447,4.438
			c1.074,0,2.165,0,3.257,0c0.166-1.479,0.314-2.957,0.48-4.438C173.275,102.776,172.184,102.776,171.092,102.776L171.092,102.776z
			 M173.837,107.734c-0.166,1.657-0.365,3.313-0.547,4.958c-1.091,0-2.149,0-3.225,0c0.183-1.646,0.348-3.301,0.513-4.958
			C171.654,107.734,172.746,107.734,173.837,107.734L173.837,107.734z M173.242,113.213c-0.167,1.479-0.333,2.957-0.496,4.437
			c-1.076,0-2.135,0-3.192,0c0.165-1.479,0.313-2.958,0.462-4.437C171.092,113.213,172.165,113.213,173.242,113.213L173.242,113.213
			z M169.124,117.649c0.164-1.479,0.314-2.958,0.463-4.437c-1.076,0-2.167,0-3.226,0c-0.133,1.479-0.281,2.957-0.43,4.437
			C166.99,117.649,168.066,117.649,169.124,117.649L169.124,117.649z M166.395,112.692c1.076,0,2.149,0,3.24,0
			c0.167-1.646,0.348-3.301,0.515-4.958c-1.109,0-2.2,0-3.274,0C166.725,109.392,166.561,111.047,166.395,112.692L166.395,112.692z
			 M161.037,102.776c1.091,0,2.199,0,3.29,0c-0.133,1.48-0.264,2.959-0.396,4.438c-1.075,0-2.167,0-3.241,0
			C160.805,105.735,160.92,104.257,161.037,102.776L161.037,102.776z M163.882,107.734c-0.133,1.657-0.281,3.313-0.432,4.958
			c-1.073,0-2.132,0-3.208,0c0.133-1.646,0.281-3.301,0.396-4.958C161.73,107.734,162.806,107.734,163.882,107.734L163.882,107.734z
			 M163.418,113.213c-0.132,1.479-0.264,2.957-0.412,4.437c-1.043,0-2.102,0-3.159,0c0.131-1.479,0.248-2.958,0.363-4.437
			C161.268,113.213,162.344,113.213,163.418,113.213L163.418,113.213z M159.416,117.649c-1.075,0-2.15,0-3.209,0
			c0.117-1.479,0.232-2.958,0.332-4.437c1.074,0,2.149,0,3.24,0C159.665,114.691,159.548,116.17,159.416,117.649L159.416,117.649z
			 M156.572,112.692c0.115-1.646,0.248-3.301,0.363-4.958c1.074,0,2.167,0,3.274,0c-0.134,1.657-0.265,3.313-0.396,4.958
			C158.722,112.692,157.646,112.692,156.572,112.692z"/>
		<path fill-rule="evenodd" clip-rule="evenodd" fill="#99D9E8" d="M157.283,102.776h0.415l-0.471,0.815
			C157.247,103.32,157.264,103.05,157.283,102.776L157.283,102.776z M160.37,105.591c-0.042,0.541-0.085,1.082-0.128,1.623h-0.81
			L160.37,105.591L160.37,105.591z M178.339,67.028l-1.85,3.202h-1.976l2.563-4.437h1.39
			C178.426,66.206,178.382,66.617,178.339,67.028L178.339,67.028z M176.188,70.751l-2.183,3.78c0.131-1.257,0.266-2.519,0.393-3.78
			H176.188L176.188,70.751z M173.442,75.508l-0.115,0.201h-1.976l2.506-4.339C173.72,72.752,173.58,74.133,173.442,75.508
			L173.442,75.508z M173.026,76.229l-2.562,4.437h-1.026c0.064-0.656,0.127-1.313,0.188-1.971l1.425-2.466H173.026L173.026,76.229z
			 M165.426,89.394l-2.862,4.958h-0.85c0.069-0.76,0.132-1.519,0.19-2.282l1.546-2.676H165.426L165.426,89.394z M162.264,94.872
			l-0.674,1.164c0.03-0.387,0.062-0.775,0.092-1.164H162.264L162.264,94.872z M161.055,96.964l-1.353,2.346h-1.976l2.562-4.438
			h0.931L161.055,96.964L161.055,96.964z M160.589,94.352l0.788-1.367c-0.036,0.455-0.073,0.911-0.109,1.367H160.589L160.589,94.352
			z M163.751,88.874l2.12-3.671c-0.103,1.225-0.21,2.447-0.32,3.671H163.751L163.751,88.874z M187.224,79.979l-0.397,0.688h-1.975
			l2.563-4.437h0.297C187.543,77.48,187.388,78.729,187.224,79.979L187.224,79.979z M184.649,84.437l-1.847,3.199l0.394-3.199
			H184.649L184.649,84.437z M182.213,88.655l-0.125,0.219h-1.975l2.562-4.438h0.059L182.213,88.655L182.213,88.655z M181.787,89.394
			l-2.861,4.958h-0.79c0.104-0.855,0.203-1.715,0.301-2.576l1.376-2.382H181.787L181.787,89.394z M178.625,94.872l-0.69,1.192
			c0.046-0.398,0.092-0.795,0.136-1.192H178.625L178.625,94.872z M174.061,102.776l-2.563,4.438h-0.854l0.236-2.351l1.205-2.087
			H174.061L174.061,102.776z M171.198,107.734l-0.749,1.299c0.042-0.433,0.085-0.866,0.129-1.299H171.198L171.198,107.734z
			 M169.92,109.949l-1.584,2.743h-1.941l0.007-0.07l2.822-4.888h0.926C170.076,108.473,169.997,109.212,169.92,109.949
			L169.92,109.949z M168.035,113.213l-2.008,3.478c0.117-1.159,0.23-2.318,0.334-3.478H168.035L168.035,113.213z M169.523,107.214
			l0.818-1.414l-0.145,1.414H169.523L169.523,107.214z M174.089,99.31l0.841-1.46c-0.05,0.487-0.103,0.973-0.151,1.46H174.089
			L174.089,99.31z M187.715,75.709l0.101-0.175l-0.023,0.175H187.715L187.715,75.709z M189.027,66.219l-2.316,4.011h-1.746
			c0.183-1.479,0.364-2.958,0.548-4.437c1.188,0,2.38,0,3.57,0C189.063,65.935,189.045,66.077,189.027,66.219L189.027,66.219z
			 M186.41,70.751l-1.924,3.329c0.139-1.108,0.28-2.218,0.413-3.329H186.41L186.41,70.751z M183.896,75.103l-0.349,0.606h-3.229
			c0.199-1.646,0.397-3.302,0.579-4.958c1.157,0,2.332,0,3.523,0C184.246,72.204,184.071,73.657,183.896,75.103L183.896,75.103z
			 M183.248,76.229l-2.563,4.437h-0.946c0.184-1.479,0.348-2.958,0.513-4.437H183.248L183.248,76.229z M175.646,89.394l-2.862,4.958
			h-0.817c0.165-1.645,0.332-3.302,0.514-4.958H175.646L175.646,89.394z M172.483,94.872l-0.705,1.221l0.124-1.221H172.483
			L172.483,94.872z M171.238,97.03l-1.316,2.279h-2.255c0.148-1.479,0.282-2.959,0.414-4.438c1.125,0,2.25,0,3.374,0L171.238,97.03
			L171.238,97.03z M167.919,102.776l-0.691,1.2c0.036-0.399,0.073-0.799,0.109-1.2H167.919L167.919,102.776z M163.682,110.118
			l-1.486,2.574h-1.953c0.133-1.646,0.281-3.301,0.396-4.958c1.092,0,2.167,0,3.243,0
			C163.817,108.531,163.751,109.325,163.682,110.118L163.682,110.118z M161.895,113.213l-1.958,3.391
			c0.097-1.13,0.185-2.26,0.273-3.391H161.895L161.895,113.213z M159.431,117.48l-0.099,0.169h-3.125
			c0.117-1.479,0.232-2.958,0.332-4.437c1.074,0,2.149,0,3.24,0C159.668,114.636,159.556,116.057,159.431,117.48L159.431,117.48z
			 M156.614,112.097l2.518-4.362h1.078c-0.134,1.657-0.265,3.313-0.396,4.958c-1.092,0-2.167,0-3.241,0
			C156.586,112.494,156.601,112.295,156.614,112.097L156.614,112.097z M160.887,104.696l1.107-1.92h2.333
			c-0.133,1.48-0.264,2.959-0.396,4.438c-1.075,0-2.167,0-3.241,0L160.887,104.696L160.887,104.696z M163.997,99.31l0.744-1.287
			l-0.116,1.287H163.997L163.997,99.31z M168.389,91.701c-0.082,0.885-0.163,1.769-0.241,2.65c1.107,0,2.231,0,3.356,0
			c0.182-1.645,0.348-3.302,0.513-4.958h-2.296L168.389,91.701L168.389,91.701z M170.021,88.874l2.497-4.325l-0.435,4.325H170.021
			L170.021,88.874z M174.761,80.666l2.562-4.437h0.004c-0.166,1.479-0.314,2.958-0.48,4.437H174.761L174.761,80.666z
			 M181.007,69.848l-0.044,0.382c1.175,0,2.349,0,3.522,0c0.183-1.479,0.364-2.958,0.547-4.437h-1.686L181.007,69.848
			L181.007,69.848z M172.993,84.437c1.141,0,2.265,0,3.423,0c-0.166,1.479-0.33,2.958-0.48,4.438c-1.14,0-2.282,0-3.406,0
			C172.68,87.395,172.828,85.916,172.993,84.437z"/>
	</g>
	<g>
		<path fill-rule="evenodd" clip-rule="evenodd" fill="#4E8D26" d="M27.095,88.079c2.936,3.526,5.265,8.915,6.731,13.821
			c1.186,3.971,2.06,8.429,2.177,12.73c0.1,3.672-0.357,7.66-2.119,10.572c-1.801,2.978-4.457,3.999-7.194,3.999
			c-2.736,0-5.393-1.021-7.194-3.999c-1.761-2.912-2.219-6.9-2.119-10.572c0.118-4.302,0.991-8.76,2.177-12.73
			c1.466-4.906,3.796-10.295,6.731-13.821C26.518,87.8,26.862,87.8,27.095,88.079z"/>
		<path fill-rule="evenodd" clip-rule="evenodd" fill="#8ACA36" d="M27.126,135.978c0,0.239-0.195,0.435-0.436,0.435
			s-0.435-0.195-0.435-0.435v-10.998l-7.466-7.465c-0.113-0.113-0.113-0.299,0-0.412c0.114-0.111,0.297-0.111,0.411,0l7.056,7.057
			v-6.428l-6.993-7.037c-0.113-0.113-0.113-0.297,0-0.41s0.298-0.113,0.411,0l6.582,6.626v-6.426l-5.623-5.623
			c-0.113-0.113-0.113-0.298,0-0.41c0.113-0.113,0.297-0.113,0.411,0l5.212,5.211v-6.426l-3.125-3.126
			c-0.113-0.113-0.113-0.297,0-0.41s0.297-0.113,0.411,0l2.714,2.714v-6.479c0-0.241,0.194-0.435,0.435-0.435
			s0.436,0.193,0.436,0.435v6.479L29.84,99.7c0.114-0.113,0.297-0.113,0.411,0c0.113,0.113,0.113,0.297,0,0.41l-3.125,3.126v6.426
			l4.942-5.033c0.113-0.112,0.297-0.112,0.411,0c0.113,0.114,0.113,0.299,0,0.412l-5.353,5.443v6.426l6.357-6.312
			c0.113-0.114,0.297-0.114,0.411,0c0.113,0.113,0.113,0.297,0,0.41l-6.769,6.723v6.428l7.055-7.057
			c0.113-0.111,0.298-0.111,0.411,0c0.113,0.113,0.113,0.299,0,0.412l-7.466,7.465V135.978z"/>
	</g>
	<g>
		<path fill-rule="evenodd" clip-rule="evenodd" fill="#4E8D26" d="M214.458,90.865c2.935,3.526,5.266,8.914,6.731,13.822
			c1.186,3.971,2.06,8.429,2.177,12.73c0.1,3.672-0.357,7.66-2.12,10.573c-1.8,2.977-4.456,3.996-7.192,3.996
			s-5.395-1.02-7.194-3.996c-1.762-2.913-2.219-6.901-2.119-10.573c0.118-4.302,0.991-8.76,2.177-12.73
			c1.467-4.908,3.796-10.296,6.731-13.822C213.881,90.587,214.226,90.587,214.458,90.865z"/>
		<path fill-rule="evenodd" clip-rule="evenodd" fill="#8ACA36" d="M214.489,138.763c0,0.241-0.196,0.437-0.436,0.437
			c-0.241,0-0.437-0.195-0.437-0.437v-10.995l-7.465-7.468c-0.113-0.111-0.113-0.297,0-0.41s0.297-0.113,0.41,0l7.055,7.057v-6.428
			l-6.992-7.037c-0.113-0.113-0.113-0.297,0-0.41c0.114-0.113,0.297-0.113,0.411,0l6.581,6.626v-6.428l-5.623-5.621
			c-0.111-0.113-0.111-0.299,0-0.412c0.113-0.111,0.299-0.111,0.412,0l5.211,5.213v-6.428l-3.124-3.124
			c-0.113-0.113-0.113-0.299,0-0.41c0.111-0.114,0.297-0.114,0.41,0l2.714,2.713v-6.479c0-0.24,0.195-0.436,0.437-0.436
			c0.239,0,0.436,0.195,0.436,0.436v6.479l2.713-2.713c0.114-0.114,0.299-0.114,0.412,0c0.114,0.111,0.114,0.297,0,0.41
			l-3.125,3.124v6.428l4.943-5.032c0.111-0.113,0.297-0.113,0.41,0s0.113,0.297,0,0.41l-5.354,5.442v6.428l6.357-6.313
			c0.113-0.113,0.297-0.113,0.41,0c0.114,0.112,0.114,0.297,0,0.411l-6.768,6.723v6.428l7.054-7.057
			c0.114-0.113,0.299-0.113,0.412,0c0.114,0.113,0.114,0.299,0,0.41l-7.466,7.468V138.763z"/>
	</g>
	<g>
		<path fill-rule="evenodd" clip-rule="evenodd" fill="#8ACA36" d="M41.913,73.759c3.663,4.399,6.571,11.123,8.4,17.247
			c1.48,4.956,2.57,10.518,2.717,15.886c0.125,4.582-0.446,9.561-2.645,13.193c-2.248,3.716-5.563,4.989-8.977,4.989
			s-6.73-1.273-8.977-4.989c-2.199-3.633-2.77-8.611-2.645-13.193c0.146-5.368,1.236-10.93,2.716-15.886
			c1.83-6.124,4.738-12.848,8.4-17.247C41.194,73.409,41.622,73.409,41.913,73.759z"/>
		<path fill-rule="evenodd" clip-rule="evenodd" fill="#4E8D26" d="M41.952,133.53c0,0.3-0.243,0.542-0.543,0.542
			s-0.544-0.242-0.544-0.542v-13.723l-9.317-9.317c-0.141-0.142-0.141-0.37,0-0.512c0.141-0.141,0.371-0.141,0.513,0l8.804,8.805
			v-8.021l-8.726-8.781c-0.141-0.142-0.141-0.372,0-0.514c0.142-0.143,0.371-0.143,0.513,0l8.213,8.27v-8.021L33.848,94.7
			c-0.141-0.141-0.141-0.372,0-0.511c0.142-0.142,0.371-0.142,0.513,0l6.503,6.502v-8.02l-3.899-3.899
			c-0.142-0.141-0.142-0.371,0-0.512c0.142-0.143,0.371-0.143,0.512,0l3.387,3.386v-8.084c0-0.301,0.244-0.545,0.544-0.545
			s0.543,0.244,0.543,0.545v8.084l3.388-3.386c0.141-0.143,0.371-0.143,0.512,0c0.141,0.141,0.141,0.371,0,0.512l-3.9,3.899v8.02
			l6.168-6.279c0.142-0.141,0.371-0.141,0.513,0c0.142,0.142,0.142,0.37,0,0.512l-6.681,6.793v8.021l7.934-7.879
			c0.142-0.142,0.371-0.142,0.513,0c0.141,0.142,0.141,0.372,0,0.514l-8.447,8.391v8.021l8.804-8.805
			c0.142-0.141,0.371-0.141,0.513,0c0.142,0.142,0.142,0.37,0,0.512l-9.317,9.317V133.53z"/>
	</g>
	<g>
		<path fill-rule="evenodd" clip-rule="evenodd" fill="#8ACA36" d="M200.744,77.338c3.662,4.399,6.571,11.123,8.399,17.248
			c1.481,4.953,2.57,10.518,2.717,15.885c0.126,4.582-0.445,9.561-2.644,13.194c-2.249,3.715-5.563,4.989-8.977,4.989
			c-3.416,0-6.73-1.274-8.978-4.989c-2.199-3.634-2.77-8.612-2.646-13.194c0.147-5.367,1.238-10.932,2.718-15.885
			c1.83-6.125,4.737-12.849,8.4-17.248C200.025,76.988,200.452,76.988,200.744,77.338z"/>
		<path fill-rule="evenodd" clip-rule="evenodd" fill="#4E8D26" d="M200.782,137.109c0,0.3-0.242,0.543-0.542,0.543
			c-0.301,0-0.546-0.243-0.546-0.543v-13.722l-9.315-9.317c-0.142-0.142-0.142-0.372,0-0.514s0.37-0.142,0.513,0l8.803,8.806v-8.021
			l-8.726-8.782c-0.141-0.143-0.141-0.371,0-0.513c0.142-0.142,0.372-0.142,0.514,0l8.212,8.271v-8.021l-7.014-7.017
			c-0.142-0.142-0.142-0.372,0-0.513c0.141-0.142,0.37-0.142,0.511,0l6.503,6.504v-8.02l-3.899-3.901
			c-0.141-0.142-0.141-0.37,0-0.512c0.142-0.142,0.372-0.142,0.514,0l3.386,3.388v-8.085c0-0.3,0.245-0.543,0.546-0.543
			c0.3,0,0.542,0.243,0.542,0.543v8.085l3.388-3.388c0.142-0.142,0.37-0.142,0.512,0c0.143,0.142,0.143,0.37,0,0.512l-3.899,3.901
			v8.02l6.168-6.279c0.142-0.143,0.37-0.143,0.514,0c0.142,0.14,0.142,0.37,0,0.512l-6.682,6.793v8.021l7.934-7.879
			c0.142-0.142,0.372-0.142,0.513,0c0.142,0.142,0.142,0.372,0,0.513l-8.446,8.391v8.021l8.806-8.806
			c0.141-0.142,0.37-0.142,0.511,0c0.142,0.142,0.142,0.372,0,0.514l-9.316,9.317V137.109z"/>
	</g>
	<ellipse fill-rule="evenodd" clip-rule="evenodd" fill="#8ACA36" cx="120.959" cy="135.686" rx="114.985" ry="11.185"/>
	<path fill-rule="evenodd" clip-rule="evenodd" fill="#A6D85F" d="M120.959,124.501c39.905,0,75.057,1.978,95.676,4.98
		c-4.925,3.829-43.319,6.811-89.964,6.811c-49.984,0-90.503-3.423-90.503-7.646c0-0.18,0.079-0.359,0.226-0.538
		C57.405,125.89,87.512,124.501,120.959,124.501z"/>
</g>
</svg>
