<?xml version="1.0" encoding="utf-8"?>
<!-- Generator: Adobe Illustrator 16.0.0, SVG Export Plug-In . SVG Version: 6.00 Build 0)  -->
<!DOCTYPE svg PUBLIC "-//W3C//DTD SVG 1.1//EN" "http://www.w3.org/Graphics/SVG/1.1/DTD/svg11.dtd">
<svg version="1.1" id="Layer_1" xmlns="http://www.w3.org/2000/svg" xmlns:xlink="http://www.w3.org/1999/xlink" x="0px" y="0px"
	 width="250px" height="250px" viewBox="0 0 250 250" enable-background="new 0 0 250 250" xml:space="preserve">
<path fill-rule="evenodd" clip-rule="evenodd" fill="#AC6643" d="M67.681,39.431c0.538,0.749,1.128,0.33,1.732,0.099
	c13.8-5.288,27.604-5.301,41.409-0.013c0.588,0.225,1.197,0.67,1.735-0.095c0.144,1.208,1.231,1.389,2.049,1.768
	c5.453,2.524,10.263,6.016,14.45,10.246c4.242,4.285,7.688,9.222,10.136,14.789c5.151,12.495,5.326,24.992-0.021,37.475
	c-2.401,5.607-5.87,10.498-10.096,14.876c-0.463,0.479-1.347,0.801-0.975,1.769c-1.684-0.171-2.334,1.337-3.36,2.161
	c-4.744,3.806-10.101,6.501-15.64,8.89c-0.986-0.052-1.834,0.435-2.739,0.699c-8.22,2.405-16.521,3.06-25.03,1.659
	c-3.466-0.571-6.77-1.662-10.183-2.358c-4.904-2.186-9.738-4.47-14.103-7.681c-1.588-1.168-2.643-3.175-4.903-3.371
	c0.365-1.07-0.623-1.391-1.128-1.923c-9.416-9.898-14.254-21.589-13.833-35.324c0.181-5.867,1.642-11.462,3.87-16.871
	c2.48-5.634,5.944-10.66,10.302-14.927c4.236-4.149,8.99-7.735,14.476-10.203C66.593,40.75,67.568,40.544,67.681,39.431z
	 M86.588,104.896c0,2.06-0.093,4.124,0.028,6.176c0.105,1.783-0.835,2.024-2.174,1.687c-1.349-0.34-2.696-0.748-3.975-1.289
	c-6.399-2.706-11.146-6.76-11.56-14.331c-0.107-1.966-1.571-3.254-3.475-3.273c-1.99-0.019-3.424,1.341-3.561,3.42
	c-0.199,3.022,0.638,5.857,1.995,8.47c5.091,9.805,13.906,13.72,24.29,14.517c7.993,0.613,15.445-1.487,21.81-6.563
	c5.179-4.13,8.248-9.479,8.384-16.239c0.045-2.229-1.499-3.644-3.578-3.605c-1.989,0.037-3.307,1.387-3.463,3.527
	c-0.052,0.728-0.075,1.466-0.222,2.177c-1.576,7.63-9.231,11.956-15.744,13.25c-1.184,0.235-1.746-0.243-1.711-1.549
	c0.071-2.646,0.223-5.313-0.028-7.937c-0.364-3.797,0.167-6.959,4.162-8.578c0.444-0.18,0.74-0.704,1.132-1.036
	c1.863-1.578,2.311-3.503,1.391-5.74c-0.902-2.194-2.682-2.958-4.924-2.952c-3.382,0.01-6.765,0.001-10.147,0.003
	c-2.949,0.002-4.474,0.872-5.29,3.011c-0.952,2.497-0.667,4.672,1.999,6.07c4.497,2.358,5.287,5.915,4.663,10.34
	C86.571,104.599,86.589,104.749,86.588,104.896z M68.869,81.498c1.973,0.031,3.503-1.401,3.589-3.359
	c0.09-2.06-1.417-3.667-3.469-3.698c-1.973-0.03-3.502,1.402-3.588,3.359C65.31,79.859,66.817,81.466,68.869,81.498z
	 M114.842,78.048c0.041-1.973-1.384-3.512-3.34-3.607c-2.06-0.1-3.675,1.398-3.718,3.448c-0.042,2.061,1.5,3.625,3.559,3.609
	C113.315,81.483,114.801,80.018,114.842,78.048z"/>
<path fill-rule="evenodd" clip-rule="evenodd" fill="#A26F58" d="M71.146,131.395c3.413,0.696,6.717,1.787,10.183,2.358
	c8.51,1.4,16.81,0.746,25.03-1.659c0.905-0.265,1.753-0.751,2.739-0.699c1.906,2.303,4.135,4.316,5.856,6.794
	c7.344,10.568,10.378,22.405,10.469,35.127c-2.591-0.04-5.111,0.424-7.502,1.366c-10.658,4.199-16.643,14.45-17.192,25.443
	c-0.32,6.394,1.38,12.308,4.423,17.879c-9.305,6.376-20.664,6.374-30.063-0.005c4.887-8.965,5.844-18.216,2.304-27.914
	c-3.543-9.709-12.707-16.613-22.574-16.77c-0.055-2.268,0.179-4.511,0.369-6.77c0.581-6.92,2.412-13.474,5.179-19.808
	C62.922,140.889,66.718,135.922,71.146,131.395z"/>
<path fill-rule="evenodd" clip-rule="evenodd" fill="#FEB532" d="M206.676,162.664c7.567,0.024,15.134,0.103,22.699,0.032
	c1.663-0.016,2.07,0.439,2.063,2.079c-0.064,15.136-0.036,30.271-0.042,45.408c-0.001,0.969,0.343,2.037-1.396,2.029
	c-16.017-0.073-32.032-0.077-48.049-0.102c0.008-16.438,0.015-32.877,0.022-49.315C190.208,162.752,198.442,162.708,206.676,162.664
	z M206.674,176.881c-3.643,7.287-7.055,14.112-10.5,21.005c7.128,0,13.956,0,21.017,0
	C213.683,190.879,210.291,184.105,206.674,176.881z"/>
<path fill-rule="evenodd" clip-rule="evenodd" fill="#7A4830" d="M54.819,173.315c9.867,0.156,19.031,7.061,22.574,16.77
	c3.541,9.698,2.583,18.949-2.304,27.914c-2.028,2.605-4.036,5.222-6.734,7.209c-10.882,8.019-25.308,5.472-32.918-6.196
	c-7.205-11.048-7.213-22.486-0.67-33.932c0.217-0.379,0.412-0.77,0.617-1.154C40.418,177.741,46.412,173.318,54.819,173.315z"/>
<path fill-rule="evenodd" clip-rule="evenodd" fill="#7A4830" d="M105.153,218.004c-3.043-5.571-4.743-11.485-4.423-17.879
	c0.549-10.993,6.534-21.244,17.192-25.443c2.392-0.942,4.912-1.406,7.502-1.366c1.018,0.073,2.039,0.101,3.05,0.226
	c7.098,0.876,12.054,5.146,16.391,10.386c0.494,0.945,0.882,1.956,1.692,2.702c1.731,3.647,2.83,7.491,3.563,11.45
	c0.308,4.802-0.273,9.497-1.676,14.096c-2.054,5.122-4.926,9.66-9.423,13.001c-10.627,7.896-24.387,5.575-32.534-5.46
	C106.057,219.134,105.598,218.574,105.153,218.004z"/>
<path fill-rule="evenodd" clip-rule="evenodd" fill="#3397E7" d="M206.676,162.664c-8.233,0.044-16.468,0.088-24.701,0.132
	c-7.181-0.028-14.362-0.056-21.544-0.084c-0.546-4.834-1.787-9.508-3.273-14.125c0.024-10.908,0.045-21.818,0.078-32.727
	c0.003-0.873,0.094-1.745,0.144-2.618c16.386,0.002,32.771,0.003,49.155,0.005c0.048,0.804,0.137,1.607,0.137,2.411
	C206.679,131.326,206.677,146.995,206.676,162.664z M192.547,138.019c0.001-5.772-4.723-10.552-10.477-10.599
	c-5.878-0.049-10.709,4.726-10.712,10.586c-0.001,5.765,4.729,10.553,10.477,10.602
	C187.703,148.657,192.544,143.871,192.547,138.019z"/>
<path fill-rule="evenodd" clip-rule="evenodd" fill="#95573A" d="M54.819,173.315c-8.407,0.003-14.401,4.426-19.435,10.61
	c-10.057-1.518-14.913-8.764-15.712-15.267c-0.489-3.982,0.293-7.924,1.134-11.797c3.863-17.799,14.793-29.577,31.334-36.52
	c2.26,0.196,3.315,2.203,4.903,3.371c4.365,3.211,9.199,5.496,14.103,7.681c-4.429,4.527-8.224,9.494-10.779,15.344
	c-2.767,6.334-4.598,12.888-5.179,19.808C54.999,168.805,54.764,171.048,54.819,173.315z"/>
<path fill-rule="evenodd" clip-rule="evenodd" fill="#95573A" d="M157.157,148.587c1.486,4.617,2.728,9.291,3.273,14.125
	c0.854,5.118-0.135,9.832-3.106,14.108c-2.79,3.486-6.326,5.793-10.699,6.778c-0.634-0.143-1.193,0.114-1.761,0.328
	c-4.337-5.24-9.293-9.51-16.391-10.386c-1.011-0.125-2.032-0.152-3.05-0.226c-0.091-12.722-3.125-24.559-10.469-35.127
	c-1.721-2.478-3.95-4.491-5.856-6.794c5.539-2.389,10.896-5.084,15.64-8.89c1.026-0.824,1.677-2.332,3.36-2.161
	c12.469,5.111,22.036,13.362,27.825,25.703C156.324,146.899,156.746,147.741,157.157,148.587z"/>
<path fill-rule="evenodd" clip-rule="evenodd" fill="#35A771" d="M157.324,176.82c2.972-4.276,3.96-8.99,3.106-14.108
	c7.182,0.028,14.363,0.056,21.544,0.084c-0.008,16.438-0.015,32.877-0.022,49.315c-11.17,0.021-22.34,0.042-33.51,0.063
	c1.403-4.599,1.984-9.294,1.677-14.096c5.348-0.007,10.696-0.04,16.043-0.001c1.142,0.009,1.707-0.166,1.692-1.521
	c-0.067-6.079-0.058-12.16-0.005-18.24c0.01-1.183-0.394-1.492-1.518-1.474C163.331,176.895,160.327,176.836,157.324,176.82z"/>
<path fill-rule="evenodd" clip-rule="evenodd" fill="#95573B" d="M67.681,39.431c-0.113,1.114-1.087,1.319-1.854,1.664
	c-5.486,2.468-10.24,6.054-14.476,10.203c-4.358,4.268-7.822,9.293-10.302,14.927c-9.308-3.046-15.369-12.283-14.437-22.002
	c0.949-9.902,8.52-17.657,18.654-19.109c9.19-1.316,18.896,4.552,22.244,13.457C67.612,38.84,67.626,39.144,67.681,39.431z"/>
<path fill-rule="evenodd" clip-rule="evenodd" fill="#95573B" d="M139.19,66.224c-2.448-5.567-5.894-10.504-10.136-14.789
	c-4.187-4.229-8.997-7.721-14.45-10.246c-0.818-0.379-1.905-0.56-2.049-1.768c3.288-11.853,17.852-17.916,29.346-12.216
	c7.714,3.826,12.322,11.887,11.746,20.547C153.089,56.147,147.256,63.601,139.19,66.224z"/>
<path fill-rule="evenodd" clip-rule="evenodd" fill="#EA4340" d="M206.534,113.247c-16.385-0.001-32.77-0.003-49.155-0.005
	c7.89-11.325,15.788-22.645,23.652-33.987c0.729-1.051,1.13-1.035,1.854,0.008C190.747,90.605,198.646,101.922,206.534,113.247z"/>
<path fill-rule="evenodd" clip-rule="evenodd" fill="#7A4830" d="M86.588,104.896c0-0.147-0.017-0.296,0.003-0.44
	c0.624-4.425-0.167-7.982-4.663-10.34c-2.666-1.398-2.95-3.574-1.999-6.07c0.815-2.139,2.34-3.009,5.29-3.011
	c3.382-0.002,6.765,0.007,10.147-0.003c2.242-0.006,4.022,0.758,4.924,2.952c0.919,2.236,0.472,4.162-1.391,5.74
	c-0.392,0.332-0.688,0.856-1.132,1.036c-3.994,1.618-4.525,4.781-4.162,8.578c0.251,2.623,0.099,5.291,0.028,7.937
	c-0.035,1.307,0.527,1.785,1.711,1.549c6.513-1.294,14.168-5.621,15.744-13.25c0.147-0.711,0.169-1.449,0.222-2.177
	c0.156-2.141,1.474-3.49,3.463-3.527c2.079-0.039,3.623,1.376,3.578,3.605c-0.136,6.76-3.206,12.108-8.384,16.239
	c-6.365,5.076-13.817,7.176-21.81,6.563c-10.384-0.796-19.199-4.711-24.29-14.517c-1.357-2.613-2.194-5.448-1.995-8.47
	c0.136-2.08,1.571-3.439,3.561-3.42c1.903,0.019,3.367,1.307,3.475,3.273c0.414,7.57,5.161,11.625,11.56,14.331
	c1.279,0.541,2.626,0.949,3.975,1.289c1.339,0.337,2.279,0.096,2.174-1.687C86.496,109.019,86.588,106.955,86.588,104.896z"/>
<path fill-rule="evenodd" clip-rule="evenodd" fill="#7A4830" d="M68.869,81.498c-2.052-0.032-3.559-1.639-3.468-3.698
	c0.085-1.958,1.615-3.39,3.588-3.359c2.052,0.032,3.559,1.638,3.469,3.698C72.372,80.097,70.842,81.529,68.869,81.498z"/>
<path fill-rule="evenodd" clip-rule="evenodd" fill="#7A4830" d="M114.842,78.048c-0.041,1.969-1.527,3.435-3.499,3.45
	c-2.059,0.016-3.601-1.549-3.559-3.609c0.043-2.049,1.658-3.548,3.718-3.448C113.458,74.536,114.882,76.075,114.842,78.048z"/>
<path fill-rule="evenodd" clip-rule="evenodd" fill="#35A771" d="M146.625,183.599c-0.022,1.01-0.046,2.02-0.068,3.03
	c-0.811-0.746-1.198-1.757-1.692-2.702C145.432,183.713,145.991,183.456,146.625,183.599z"/>
</svg>
