<?xml version="1.0" encoding="utf-8"?>
<!-- Generator: Adobe Illustrator 16.0.0, SVG Export Plug-In . SVG Version: 6.00 Build 0)  -->
<!DOCTYPE svg PUBLIC "-//W3C//DTD SVG 1.1//EN" "http://www.w3.org/Graphics/SVG/1.1/DTD/svg11.dtd">
<svg version="1.1" id="Layer_1" xmlns="http://www.w3.org/2000/svg" xmlns:xlink="http://www.w3.org/1999/xlink" x="0px" y="0px"
	 width="50px" height="50px" viewBox="0 0 50 50" enable-background="new 0 0 50 50" xml:space="preserve">
<g>
	<path fill-rule="evenodd" clip-rule="evenodd" fill="#C2CFCF" d="M22.458,40.218c0-1.785,0.005-3.568-0.003-5.352
		c-0.003-0.681,0.226-1.251,0.762-1.666c0.188-0.146,0.243-0.283,0.238-0.508c-0.017-0.86-0.039-1.724,0-2.583
		c0.018-0.399-0.168-0.466-0.48-0.528c-5.957-1.174-9.948-4.64-11.718-10.438C8.699,10.767,14.228,1.975,22.857,0.498
		c8.253-1.412,15.954,4.154,17.175,12.414c1.169,7.903-4.226,15.309-12.149,16.66c-0.41,0.071-0.54,0.218-0.511,0.627
		c0.04,0.55,0.016,1.105,0.016,1.66c0.001,0.622-0.073,1.229,0.562,1.689c0.357,0.26,0.418,0.774,0.418,1.243
		c-0.003,3.587,0.009,7.176-0.007,10.764c-0.008,1.675-1.332,2.97-2.973,2.959c-1.61-0.012-2.909-1.303-2.925-2.946
		C22.445,43.784,22.459,42.001,22.458,40.218z M24.623,15.961c-0.058,0.062-0.08,0.105-0.113,0.116
		c-0.076,0.026-0.158,0.038-0.237,0.054c-2.884,0.564-4.776,2.269-5.574,5.074c-0.367,1.292-0.467,2.659-0.713,3.986
		c-0.051,0.274,0.09,0.358,0.258,0.481c4.004,2.945,10.403,2.919,14.372-0.053c0.204-0.153,0.286-0.286,0.236-0.556
		c-0.211-1.127-0.355-2.267-0.584-3.39c-0.607-2.984-2.801-5.056-5.823-5.542c-0.121-0.02-0.215-0.053-0.234-0.193
		c1.967-0.28,3.634-1.854,4.005-3.825c0.225-1.197,0.211-2.417,0.051-3.613C29.93,6,27.936,4.236,25.514,4.206
		c-2.511-0.032-4.573,1.683-4.96,4.211c-0.126,0.823-0.064,1.677-0.062,2.517C20.497,13.511,22.067,15.432,24.623,15.961z"/>
	<path fill-rule="evenodd" clip-rule="evenodd" fill="#C2CFCF" d="M8.868,36.656c-1.371-0.314-2.44-0.94-3.211-2.023
		c-0.586-0.824-0.915-1.742-0.912-2.753c0.003-1.001-0.101-2.008,0.091-3.005c0.472-2.462,2.706-4.166,5.217-3.978
		c2.473,0.185,4.461,2.265,4.519,4.76c0.021,0.921,0.072,1.856-0.049,2.763c-0.3,2.229-1.831,3.76-4.086,4.221
		c0.058,0.084,0.113,0.158,0.231,0.178c3.116,0.525,5.285,2.585,5.86,5.637c0.376,1.991,0.674,3.996,1.017,6.06
		c-1.256,0-2.48,0-3.704,0c-0.943,0-1.887-0.011-2.83,0.007c-0.298,0.006-0.376-0.085-0.375-0.378
		c0.012-2.01,0.013-4.019,0.001-6.028c-0.002-0.401,0.253-0.68,0.392-1.014c0.157-0.376,0.368-0.732,0.5-1.116
		c0.238-0.691-0.117-1.254-0.843-1.299c-0.695-0.042-1.396-0.046-2.09-0.001c-0.684,0.044-1.051,0.693-0.816,1.341
		c0.021,0.058,0.033,0.122,0.068,0.17c0.83,1.17,0.888,2.494,0.837,3.862c-0.05,1.353-0.011,2.706-0.011,4.06
		c0,0.197,0.061,0.404-0.282,0.402c-2.191-0.012-4.382-0.006-6.624-0.006C2.146,46.31,2.444,44.14,2.9,42.002
		c0.592-2.776,2.954-4.84,5.775-5.209C8.705,36.789,8.732,36.754,8.868,36.656z"/>
	<path fill-rule="evenodd" clip-rule="evenodd" fill="#C2CFCF" d="M41.937,36.633c0.059,0.082,0.109,0.166,0.228,0.185
		c3.207,0.499,5.121,2.424,5.828,5.512c0.442,1.932,0.672,3.913,1.009,5.869c0.043,0.247-0.007,0.321-0.26,0.319
		c-2.091-0.006-4.184-0.009-6.274,0.004c-0.299,0.001-0.322-0.13-0.32-0.368c0.006-2.029,0.006-4.06,0-6.089
		c-0.002-0.197,0.075-0.356,0.157-0.52c0.177-0.346,0.369-0.684,0.534-1.034c0.604-1.278,0.24-1.84-1.188-1.846
		c-0.471-0.001-0.943-0.012-1.414,0.009c-0.825,0.036-1.333,0.762-0.89,1.445c0.856,1.323,0.89,2.753,0.842,4.237
		c-0.04,1.249-0.018,2.501-0.001,3.752c0.004,0.312-0.069,0.417-0.402,0.414c-2.029-0.016-4.06-0.008-6.089-0.007
		c-0.223,0-0.436,0.06-0.366-0.333c0.344-1.956,0.606-3.927,0.993-5.874c0.591-2.982,2.736-4.951,5.945-5.569
		c-0.014-0.223-0.207-0.153-0.323-0.188c-2.302-0.678-3.7-2.51-3.698-4.907c0.002-0.919-0.086-1.843,0.092-2.76
		c0.477-2.467,2.695-4.168,5.21-3.988c2.472,0.177,4.468,2.258,4.528,4.75c0.023,0.921,0.073,1.854-0.046,2.763
		C45.736,34.648,44.152,36.231,41.937,36.633z"/>
	<path fill-rule="evenodd" clip-rule="evenodd" fill="#C2CFCF" d="M24.427,23.408c0-0.205-0.016-0.412,0.003-0.614
		c0.098-1.044-0.057-2.024-0.659-2.915c-0.145-0.215-0.232-0.481-0.292-0.736c-0.136-0.589,0.246-1.094,0.895-1.132
		c0.694-0.041,1.394-0.045,2.087-0.003c0.688,0.042,1.062,0.68,0.834,1.329c-0.007,0.02-0.011,0.042-0.021,0.057
		c-1.057,1.427-0.903,3.079-0.878,4.708c0.004,0.245,0.029,0.495-0.006,0.736c-0.05,0.343,0.225,0.867-0.14,0.998
		c-0.525,0.188-1.135,0.102-1.705,0.024c-0.19-0.026-0.114-0.234-0.115-0.364C24.424,24.801,24.427,24.104,24.427,23.408z"/>
</g>
</svg>
