<?xml version="1.0" encoding="utf-8"?>
<!-- Generator: Adobe Illustrator 16.0.0, SVG Export Plug-In . SVG Version: 6.00 Build 0)  -->
<!DOCTYPE svg PUBLIC "-//W3C//DTD SVG 1.1//EN" "http://www.w3.org/Graphics/SVG/1.1/DTD/svg11.dtd">
<svg version="1.1" id="Layer_1" xmlns="http://www.w3.org/2000/svg" xmlns:xlink="http://www.w3.org/1999/xlink" x="0px" y="0px"
	 width="100px" height="100px" viewBox="0 0 100 100" enable-background="new 0 0 100 100" xml:space="preserve">
<path display="none" fill="#E86481" d="M8.767,73.18c0-15.463,0-30.926,0-46.388c0.128-0.018,0.153-0.115,0.19-0.219
	c1.416-3.984,3.671-5.58,7.884-5.58c16.122,0,32.244,0,48.365,0c6.224,0,12.446-0.01,18.67,0.004
	c3.442,0.008,6.173,2.11,7.125,5.413c0.052,0.181-0.049,0.453,0.231,0.543c0,15.409,0,30.818,0,46.227
	c-0.176,0.021-0.172,0.174-0.213,0.295c-1.297,3.797-3.688,5.504-7.701,5.504c-9.174,0-18.354,0-27.523,0
	c-13.198,0-26.397,0.004-39.595-0.004c-3.444-0.002-6.136-2.009-7.15-5.269C8.993,73.521,9.035,73.26,8.767,73.18z M82.816,26.035
	c-0.043-0.056-0.088-0.111-0.131-0.167c-21.797,0-43.598,0-65.395,0c-0.049,0.063-0.098,0.125-0.146,0.188
	c0.198,0.129,0.426,0.229,0.59,0.393c9.988,10.009,19.971,20.023,29.956,30.037c1.552,1.557,3.054,1.563,4.595,0.02
	c7.162-7.181,14.313-14.37,21.483-21.542C76.773,31.969,79.803,29.01,82.816,26.035z M17.05,74.096c22.072,0,43.868,0,65.722,0
	c-0.092-0.119-0.131-0.186-0.184-0.238c-6.648-6.67-13.303-13.336-19.938-20.021c-0.414-0.419-0.604-0.284-0.93,0.048
	c-2.035,2.064-4.091,4.112-6.137,6.164c-3.232,3.246-7.951,3.241-11.184-0.009c-1.987-1.998-3.992-3.978-5.954-5.999
	c-0.48-0.495-0.738-0.582-1.281-0.031c-4.787,4.852-9.605,9.672-14.425,14.49C20.911,70.334,19.045,72.137,17.05,74.096z
	 M13.658,29.396c0,13.71,0,27.506,0,41.4c0.7-0.706,1.32-1.335,1.944-1.962c6.083-6.102,12.163-12.209,18.262-18.295
	c0.444-0.443,0.466-0.68,0-1.11c-0.927-0.854-1.789-1.779-2.685-2.667C25.33,40.962,19.478,35.163,13.658,29.396z M86.376,29.316
	c-0.051-0.034-0.103-0.068-0.153-0.102c-0.17,0.203-0.328,0.418-0.514,0.605c-6.496,6.522-12.988,13.046-19.506,19.547
	c-0.492,0.49-0.52,0.721-0.01,1.229c6.574,6.555,13.125,13.137,19.675,19.719c0.139,0.144,0.212,0.35,0.315,0.521
	c0.063-0.062,0.129-0.114,0.188-0.174C86.376,56.879,86.376,43.098,86.376,29.316z"/>
<path fill-rule="evenodd" clip-rule="evenodd" fill="#C2CFCF" d="M48.119,98.323c-0.536-0.423-1.223-0.348-1.828-0.551
	c-5.378-1.805-8.718-5.43-9.828-11.019c-0.139-0.701-0.397-0.866-1.076-0.863c-5.888,0.027-11.776,0.027-17.664,0.013
	c-6.371-0.016-11.197-5.029-10.99-11.387c0.165-5.074,4.444-9.646,9.573-10.228c0.436-0.05,0.872-0.09,1.309-0.126
	c1.186-0.098,1.527-0.452,1.529-1.652c0.009-6.515-0.038-13.03,0.028-19.543c0.121-11.938,8.202-23.487,19.372-27.743
	c0.852-0.324,1.215-0.618,1.139-1.683c-0.391-5.447,2.726-9.706,8-11.182c0.21-0.059,0.527,0.014,0.623-0.307
	c1.128,0,2.256,0,3.384,0c0.487,0.361,1.097,0.299,1.641,0.471c4.951,1.563,7.972,6.28,7.34,11.586
	c-0.067,0.563,0.091,0.733,0.56,0.935c10.755,4.62,17.218,12.729,19.538,24.165c0.387,1.904,0.473,3.848,0.468,5.796
	c-0.016,5.702-0.006,11.403-0.006,17.104c0,1.736,0.18,1.935,1.88,2.079c5.322,0.45,9.461,4.009,10.365,8.912
	c1.213,6.579-3.822,12.737-10.53,12.794c-5.983,0.05-11.968,0.026-17.95-0.008c-0.762-0.005-0.977,0.233-1.093,0.954
	c-0.938,5.815-5.907,10.573-11.745,11.302c-0.13,0.016-0.243,0.03-0.278,0.18C50.626,98.323,49.373,98.323,48.119,98.323z
	 M50.217,79.701c10.779,0,21.559,0.006,32.339-0.005c2.664-0.003,4.712-1.811,4.87-4.234c0.169-2.596-1.566-4.643-4.279-5.023
	c-0.712-0.1-1.445-0.077-2.146-0.225c-3.557-0.752-5.959-3.716-5.973-7.407c-0.024-6.174-0.003-12.347-0.017-18.52
	c-0.007-3.425-0.745-6.704-2.101-9.842c-6.152-14.25-23.081-19.718-35.943-11.47c-7.477,4.795-11.418,11.782-11.585,20.712
	c-0.119,6.359-0.012,12.722-0.033,19.083c-0.012,3.713-2.372,6.661-5.94,7.431c-0.821,0.177-1.684,0.147-2.515,0.289
	c-3.279,0.561-4.999,4.096-3.337,6.878c0.987,1.654,2.511,2.341,4.415,2.339C28.721,79.695,39.469,79.701,50.217,79.701z
	 M50.228,85.906c-2.254,0-4.509,0.04-6.762-0.02c-0.889-0.024-0.872,0.26-0.632,0.95c1.099,3.161,4.101,5.306,7.456,5.274
	c3.297-0.031,6.235-2.224,7.284-5.378c0.216-0.651,0.163-0.855-0.582-0.842C54.737,85.933,52.482,85.906,50.228,85.906z
	 M46.625,13.179c2.477-0.304,4.822-0.333,7.159-0.011c0.626,0.086,0.808-0.069,0.786-0.701c-0.075-2.248-1.96-4.14-4.24-4.201
	c-2.337-0.063-4.336,1.739-4.507,4.016C45.766,13.034,45.883,13.467,46.625,13.179z"/>
</svg>
