<?xml version="1.0" encoding="utf-8"?>
<!-- Generator: Adobe Illustrator 16.0.0, SVG Export Plug-In . SVG Version: 6.00 Build 0)  -->
<!DOCTYPE svg PUBLIC "-//W3C//DTD SVG 1.1//EN" "http://www.w3.org/Graphics/SVG/1.1/DTD/svg11.dtd">
<svg version="1.1" id="Layer_1" xmlns="http://www.w3.org/2000/svg" xmlns:xlink="http://www.w3.org/1999/xlink" x="0px" y="0px"
	 width="240px" height="150px" viewBox="0 0 240 150" enable-background="new 0 0 240 150" xml:space="preserve">
<g>
	<path fill="#E1F5FE" d="M238.411,124.164c0.924-12.312-4.437-24.934-13.938-32.815c-11.191-9.287-26.854-11.578-41.279-9.723
		c-14.425,1.857-28.071,7.395-41.766,12.294c-13.692,4.9-27.958,9.255-42.486,8.591c-17.556-0.804-34.136-8.875-51.679-9.926
		c-11.311-0.676-23.084,1.79-32.202,8.519c-9.118,6.728-15.14,18.076-13.901,29.34c0.019,0.171,0.04,0.344,0.063,0.517h236.033
		C237.846,128.737,238.237,126.462,238.411,124.164z"/>
	<g>
		<path fill="#2E5BBF" d="M163.513,70.797c-2.876-1.727-4.68-5.138-4.49-8.487l0.874,0.05c-0.174,3.033,1.461,6.123,4.066,7.688
			L163.513,70.797z"/>
	</g>
	<path fill="#2A53AD" d="M152.498,121.191l-4.085-0.015c0.261,1.771,1.377,8.455,1.574,9.783h4.083
		C153.872,129.614,152.758,122.94,152.498,121.191z"/>
	<path fill="#FFC3A8" d="M171.938,72.579c-1.035-0.379-2.042-0.831-3.001-1.359c-1.634-0.897-3.125-2.017-4.377-3.377
		c0.611,0.079,1.239-0.009,1.762-0.325c0.656-0.397,1.078-1.11,1.26-1.857c0.182-0.745,0.151-1.526,0.072-2.29
		c-0.144-1.379-0.448-2.768-1.136-3.971c-0.688-1.204-1.798-2.213-3.146-2.547c-1.162-0.289-2.333,0.217-3.146,1.015
		c-0.207-1.402-0.311-2.822-0.347-4.227c-0.066-2.542,0.064-5.088,0.133-7.632c0.041-1.477,0.059-2.953,0.004-4.427
		c0.435-0.025,0.866-0.071,1.292-0.142c3.096-0.512,5.909-2.038,8.377-4.012c0.394,0.473,0.846,0.9,1.342,1.261
		c2.093,1.528,4.799,2.018,7.389,1.888c3.699-0.187,7.317-1.607,10.195-3.936c-0.075,1.995,0.269,3.99,1.15,5.773
		c0.46,0.923,1.073,1.769,1.804,2.496c0.365,0.364,0.757,0.698,1.177,0.996c0.563,0.399,1.019,0.722,1.207,1.408
		c0.212,0.766,0.462,1.511,0.803,2.23c0.345,0.726,0.757,1.418,1.233,2.063l0.11,0.032c-0.305,1.048-0.464,2.147-0.532,3.237
		c-0.119,1.858,0.018,3.782,0.815,5.465c0.661,1.4,1.849,2.608,3.291,3.111v0.004c-0.961,1.479-2.063,2.873-3.291,4.133
		c-1.915,1.969-4.144,3.615-6.62,4.752c-0.15,0.071-0.302,0.139-0.458,0.207c-0.51,0.219-1.031,0.417-1.562,0.591
		c-2.986,0.985-6.176,1.216-9.31,0.905c-0.785-0.079-1.565-0.191-2.343-0.336C174.687,73.447,173.288,73.073,171.938,72.579z
		 M194.103,64.166c0.91-1.102,1.435-2.578,1.174-3.984c-0.26-1.404-1.368-2.874-2.938-3.045c-1.379-0.149-2.771,0.414-3.831,1.309
		c-1.06,0.894-1.824,2.092-2.432,3.34c-0.337,0.69-0.636,1.414-0.718,2.176c-0.087,0.763,0.063,1.577,0.545,2.177
		c0.528,0.659,1.398,0.979,2.243,0.994c0.846,0.016,1.674-0.24,2.456-0.562C191.923,66.028,193.188,65.266,194.103,64.166z
		 M182.432,64.492c1.393-1.098,2.115-2.987,1.809-4.733c-2.834,0.52-9.786,1.505-9.786,1.505c0.053,0.488,0.426,1.422,0.672,1.838
		c0.527,0.892,1.328,1.627,2.281,2.042C179.033,65.85,181.041,65.59,182.432,64.492z M172.937,52.553
		c0-1.108-0.899-2.006-2.006-2.006c-1.107,0-2.004,0.897-2.004,2.006c0,1.105,0.896,2.004,2.004,2.004
		C172.037,54.557,172.937,53.658,172.937,52.553z"/>
	<path fill="#FFFFFD" d="M65.628,72.404c-1.657,0.482-3.213,1.3-4.492,2.456c-1.824,1.651-3.009,3.912-3.738,6.261
		c-0.662,2.127-0.976,4.341-1.253,6.554l-7.917,0.038c-0.004-0.087-0.01-0.172-0.015-0.258c-0.118-1.993-0.236-3.987-0.354-5.981
		c-0.144-2.438-0.289-4.878-0.433-7.318c-0.159-2.681-0.318-5.362-0.477-8.043c-0.16-2.719-0.321-5.438-0.483-8.158
		c-0.15-2.556-0.302-5.111-0.453-7.667c-0.13-2.187-0.258-4.375-0.387-6.561c-0.055-0.906-0.343-2.074,0.455-2.737
		c0.713-0.593,1.803-0.49,2.659-0.495c0.955-0.003,1.909-0.005,2.862-0.01c1.054-0.004,2.107-0.008,3.159-0.012
		c1.139-0.005,2.277-0.009,3.416-0.013c1.212-0.005,2.425-0.009,3.636-0.014c1.272-0.004,2.543-0.009,3.816-0.014
		c1.32-0.004,2.64-0.009,3.959-0.014c1.354-0.004,2.709-0.011,4.063-0.016c1.376-0.005,2.753-0.01,4.13-0.015
		c1.385-0.004,2.77-0.011,4.157-0.014c1.382-0.006,2.763-0.011,4.145-0.017c1.366-0.005,2.73-0.01,4.097-0.014
		c1.335-0.006,2.671-0.011,4.006-0.017c1.294-0.004,2.587-0.009,3.882-0.014c1.238-0.004,2.477-0.009,3.716-0.013
		c1.17-0.004,2.341-0.009,3.512-0.014c1.09-0.004,2.181-0.008,3.272-0.013c0.995-0.003,1.993-0.007,2.99-0.009
		c0.891-0.004,1.781-0.008,2.671-0.011c0.771-0.002,1.547,0.025,2.315-0.009c0.437-0.019,0.719,0.404,0.782,0.791
		c0.089,0.552,0.075,1.136,0.109,1.693c0.07,1.176,0.137,2.353,0.208,3.53c0.006,0.104,0.014,0.211,0.019,0.316
		c0.067,1.142,0.136,2.282,0.203,3.421c0.073,1.247,0.147,2.493,0.222,3.74c0.077,1.325,0.155,2.65,0.234,3.976
		c0.082,1.377,0.164,2.754,0.245,4.131c0.084,1.4,0.165,2.8,0.248,4.202c0.083,1.397,0.167,2.795,0.248,4.191
		c0.082,1.367,0.162,2.733,0.243,4.1c0.078,1.309,0.154,2.617,0.233,3.926c0.072,1.224,0.143,2.445,0.216,3.667
		c0.066,1.11,0.131,2.221,0.198,3.331c0.042,0.71,0.083,1.42,0.125,2.129l-24.894,0.113c0.382-1.39,0.739-2.786,1.069-4.189
		c0.347-1.469,0.666-2.943,0.958-4.426c0.129-0.655,0.251-1.312,0.369-1.969c0.016-0.085,0.032-0.171,0.047-0.256
		c0.127-0.727,0.204-1.478,0.37-2.198c0.051-0.217,0.189-0.342,0.347-0.485c0.167-0.151,0.316-0.323,0.446-0.506
		c0.26-0.375,0.438-0.809,0.502-1.261c0.533-0.125,1.034-0.612,1.161-1.198c0.126-0.585-0.129-1.235-0.619-1.579
		c0.385-0.393,0.62-0.999,0.486-1.529c-0.136-0.531-0.63-0.952-1.176-0.997c0.27-0.416,0.339-0.974,0.128-1.407
		c-0.213-0.434-0.695-0.721-1.177-0.698c0.91-1.027,1.705-1.991,2.456-2.985c0.29-0.383,0.58-0.91,0.312-1.308
		c-0.169-0.25-0.512-0.334-0.808-0.278c-0.296,0.056-0.557,0.229-0.804,0.402c-1.54,1.087-2.881,2.426-4.186,3.79
		c-1.272,0.637-2.316,1.733-2.862,3.051c-0.573,1.384-0.585,2.983-0.063,4.385c0.065,0.174,0.182,0.354,0.228,0.534
		c0.091,0.359-0.089,0.766-0.2,1.101c-0.137,0.418-0.275,0.837-0.414,1.255c-0.028,0.085-0.056,0.169-0.083,0.253
		c-0.248,0.753-0.497,1.506-0.745,2.257c-0.552,1.675-1.105,3.35-1.657,5.023c-0.271,0.824-0.543,1.648-0.815,2.472l-9.128-10.555
		c-0.642-0.521-1.36-0.973-2.13-1.334c-0.416-0.198-0.845-0.368-1.286-0.51c-0.641-0.206-1.303-0.351-1.975-0.428l-0.038,0.004
		c-0.008-0.044-0.018-0.089-0.031-0.135c-0.009-0.158-0.019-0.33-0.031-0.507c-0.006-0.093-0.012-0.189-0.018-0.284
		c0.521,0,1.041,0,1.56,0c1.169,0,2.254,0.077,3.364-0.391c1.72-0.726,3.002-2.442,3.121-4.307c0.059-0.915-0.177-1.84-0.634-2.636
		c-0.229-0.399-0.516-0.768-0.852-1.084c-0.154-0.146-0.36-0.259-0.497-0.413c-0.154-0.173-0.23-0.456-0.249-0.681
		c-0.019-0.22,0.071-0.354,0.144-0.556c0.08-0.223,0.143-0.453,0.185-0.688c0.027-0.154,0.004-0.373,0.054-0.515
		c0.125-0.358,0.708-0.545,1.004-0.714c0.391-0.222,0.761-0.482,1.098-0.78c0.67-0.587,1.213-1.323,1.534-2.158
		c0.665-1.73,0.251-3.892-1.178-5.072c-0.959-0.793-2.258-1.087-3.5-1.021c-0.398,0.021-0.87,0.039-1.249,0.171
		c-0.309,0.109-0.563,0.198-0.904,0.208c-0.694,0.02-1.396-0.173-1.979-0.552c-0.869-0.563-1.709-1.043-2.722-1.31
		c-1.621-0.427-3.347-0.369-4.981,0.002c-3.136,0.71-6.02,2.619-7.74,5.334c-0.979,1.545-1.557,3.344-1.672,5.169
		c-0.09,1.441,0.104,2.977-0.576,4.309c-0.669,1.311-1.653,2.214-1.79,3.778c-0.169,1.922,0.894,3.922,2.628,4.768
		c1.646,0.802,3.798,0.447,5.063-0.863c1.713,0,3.426,0,5.14,0c0.03,0.306,0.06,0.609,0.088,0.913l-0.021,0.005
		c-0.397,0.033-0.792,0.082-1.184,0.15C66.583,72.155,66.102,72.266,65.628,72.404z"/>
	<polygon fill="#99E7FF" points="119.091,69.372 88.55,69.352 85.882,40.339 82.231,40.291 85.183,72.614 119.243,72.687 	"/>
	<path fill="#BF3426" d="M204.97,109.608c-0.677-0.619-1.088-1.498-1.005-2.478c0.023-0.295,0.052-0.589,0.089-0.88
		c1.872,1.332,3.775,2.649,5.846,3.622c-0.397,0.223-0.819,0.4-1.253,0.52c-0.513,0.14-1.041,0.197-1.57,0.147
		C206.277,110.469,205.53,110.128,204.97,109.608z"/>
	<path fill="#EBEBEB" d="M154.827,116.316v1.781l-33.182,0.068l-0.01-4.773c0.04,0.002,0.082,0.007,0.123,0.01
		c2.545-2.831,6.7-4.08,10.393-3.198c1.364,0.62,2.749,1.199,4.147,1.738c3.219,1.245,6.511,2.29,9.828,3.233
		c0.861,0.244,1.726,0.484,2.591,0.715c1.915,0.515,3.939,1.006,5.856,0.5C154.661,116.368,154.744,116.343,154.827,116.316z"/>
	<path fill="#FFFFFF" d="M73.679,64.122c0.23,0.213,0.184,0.593,0.051,0.877c-0.313,0.668-1.018,1.135-1.754,1.163
		s-1.475-0.384-1.836-1.025c-0.094-0.165-0.164-0.347-0.16-0.535c0.004-0.189,0.093-0.385,0.258-0.476
		c0.278-0.156,0.736-0.035,1.035-0.012c0.525,0.042,1.059,0.032,1.575-0.081C73.131,63.972,73.464,63.925,73.679,64.122z"/>
	<path fill="#FFAE84" d="M68.022,69.3c-1.288-0.264-2.543-0.695-3.719-1.281c0.045-0.47,0.036-0.945-0.014-1.412
		c-0.086-0.778-0.283-1.54-0.528-2.282c-0.119-0.365-0.286-0.723-0.392-1.093c-0.089-0.307-0.114-0.804,0.028-1.098
		c0.086-0.178,0.25-0.341,0.359-0.51c0.119-0.184,0.231-0.374,0.335-0.569c0.402-0.758,0.678-1.585,0.803-2.434l-0.005-0.025
		c0.348-0.077,0.695-0.16,1.04-0.25c0.032,0.917,0.003,1.902,0.299,2.818c0.314,0.964,1.077,1.851,2.079,2.005
		c1.006,0.157,2.022-0.479,2.534-1.361c0.509-0.876,0.589-1.946,0.474-2.953c0.519-0.275,1.165-0.299,1.701-0.061
		c-0.115,1.007-0.032,2.069,0.476,2.946c0.51,0.882,1.526,1.518,2.534,1.362c1.001-0.156,1.765-1.042,2.079-2.006
		c0.01-0.03,0.021-0.063,0.028-0.094c0.007,0.212,0.012,0.423,0.016,0.636c1.242,1.789,0.636,4.417-0.936,5.921
		c-0.966,0.922-2.2,1.483-3.512,1.781c-0.822,0.188-1.678,0.271-2.516,0.276C70.122,69.622,69.061,69.515,68.022,69.3z M73.73,65
		c0.133-0.285,0.18-0.665-0.051-0.877c-0.215-0.197-0.548-0.15-0.833-0.088c-0.516,0.112-1.05,0.123-1.575,0.081
		c-0.299-0.023-0.757-0.144-1.035,0.012c-0.165,0.091-0.254,0.287-0.258,0.476c-0.003,0.188,0.066,0.37,0.16,0.535
		c0.362,0.641,1.1,1.053,1.836,1.025S73.417,65.667,73.73,65z"/>
	<path fill="#FFA995" d="M195.276,60.182c0.261,1.406-0.264,2.882-1.174,3.984c-0.914,1.1-2.18,1.862-3.5,2.405
		c-0.782,0.321-1.61,0.578-2.456,0.562c-0.845-0.015-1.715-0.335-2.243-0.994c-0.482-0.6-0.632-1.414-0.545-2.177
		c0.082-0.762,0.381-1.486,0.718-2.176c0.607-1.248,1.372-2.446,2.432-3.34c1.06-0.895,2.452-1.458,3.831-1.309
		C193.908,57.308,195.017,58.778,195.276,60.182z"/>
	<path fill="#FFC3A8" d="M121.46,107.835c-0.094,0.037-0.189,0.071-0.286,0.103c-0.571,0.175-1.266,0.14-1.732-0.191
		c-0.145-0.101-0.267-0.23-0.357-0.39c-0.105-0.184-0.155-0.392-0.162-0.603c-0.343,0.433-1.037,0.578-1.553,0.329
		c-0.617-0.297-0.957-1.006-0.967-1.69c-0.011-0.683,0.257-1.341,0.592-1.937c1.211-2.146,3.393-3.721,5.81-4.195
		c1.504-0.294,3.082-0.16,4.521,0.351c1.523,0.538,3.034,1.074,4.612,1.396c0.906,0.186,1.943,0.093,2.868,0.131
		c0.98,0.041,1.959,0.085,2.94,0.13c3.907,0.185,7.813,0.407,11.719,0.632c0.274,0.016,0.547,0.031,0.821,0.047
		c1.188-1.542,2.139-2.787,2.961-3.884c3.238,4.065,6.479,8.127,9.721,12.191c-1.328,1.131-2.656,2.261-3.983,3.393
		c-1.264,1.075-2.583,2.18-4.159,2.67c-0.083,0.026-0.166,0.052-0.253,0.074c-1.917,0.506-3.941,0.015-5.856-0.5
		c-0.865-0.23-1.729-0.471-2.591-0.715c-3.317-0.943-6.609-1.988-9.828-3.233c-1.398-0.539-2.783-1.118-4.147-1.738
		c-0.201-0.092-0.401-0.186-0.601-0.278c-0.781-0.365-1.553-0.744-2.317-1.14c-0.611-0.317-1.425-0.623-2.123-0.633
		c-0.451-0.005-0.884-0.009-1.332-0.091c-0.294-0.057-0.585-0.132-0.869-0.228c-0.57-0.193-1.112-0.468-1.601-0.825
		C122.657,107.189,122.088,107.584,121.46,107.835z"/>
	<path fill="#99E7FF" d="M73.934,71.924c0.672,0.078,1.334,0.223,1.975,0.428c0.101,0.642,0.076,1.313-0.179,1.908
		c-0.283,0.66-0.885,1.208-1.598,1.296c-0.948,0.12-1.874-0.64-2.092-1.57l-0.003-0.013c0.536-0.086,1.063-0.312,1.43-0.713
		c0.327-0.355,0.506-0.861,0.43-1.333L73.934,71.924z"/>
	<path fill="#FF9566" d="M73.817,71.002c0.006,0.095,0.012,0.19,0.018,0.284c-2.003,0.246-4.091-0.261-5.756-1.401
		c-0.019-0.196-0.038-0.389-0.057-0.584c1.038,0.215,2.099,0.322,3.161,0.316c0.838-0.004,1.694-0.088,2.516-0.276
		C73.716,69.551,73.769,70.289,73.817,71.002z"/>
	<path fill="#FE9126" d="M122.512,86.351c0.02,0.34,0.04,0.683,0.061,1.024l-2.495,0.011c-0.042-0.709-0.083-1.419-0.125-2.129
		c-0.066-1.11-0.131-2.221-0.198-3.331c-0.073-1.222-0.144-2.443-0.216-3.667c-0.079-1.309-0.156-2.617-0.233-3.926
		c-0.082-1.367-0.161-2.733-0.243-4.1c-0.082-1.396-0.165-2.794-0.248-4.191c-0.083-1.402-0.164-2.802-0.248-4.202
		c-0.081-1.377-0.163-2.754-0.245-4.131c-0.079-1.325-0.157-2.651-0.234-3.976c-0.075-1.247-0.149-2.493-0.222-3.74
		c-0.066-1.14-0.135-2.28-0.203-3.421c-0.005-0.105-0.013-0.211-0.019-0.316c-0.071-1.177-0.138-2.354-0.208-3.53
		c-0.034-0.557-0.02-1.141-0.109-1.693c-0.063-0.386-0.345-0.809-0.782-0.791c-0.768,0.034-1.544,0.007-2.315,0.009
		c-0.89,0.003-1.78,0.007-2.671,0.011c-0.997,0.002-1.995,0.006-2.99,0.009c-1.091,0.005-2.182,0.009-3.272,0.013
		c-1.17,0.004-2.341,0.009-3.512,0.014c-1.24,0.004-2.479,0.009-3.716,0.013c-1.295,0.005-2.588,0.01-3.882,0.014
		c-1.335,0.005-2.671,0.01-4.006,0.017c-1.366,0.004-2.731,0.009-4.097,0.014c-1.382,0.005-2.763,0.01-4.145,0.017
		c-1.387,0.003-2.772,0.01-4.157,0.014c-1.376,0.005-2.754,0.01-4.13,0.015c-1.354,0.004-2.709,0.011-4.063,0.016
		c-1.319,0.005-2.64,0.01-3.959,0.014c-1.273,0.005-2.544,0.01-3.816,0.014c-1.211,0.004-2.424,0.009-3.636,0.014
		c-1.139,0.004-2.277,0.008-3.416,0.013c-1.052,0.004-2.105,0.007-3.159,0.012c-0.954,0.004-1.907,0.007-2.862,0.01
		c-0.855,0.004-1.946-0.099-2.659,0.495c-0.798,0.663-0.509,1.831-0.455,2.737c0.129,2.187,0.257,4.375,0.387,6.561
		c0.151,2.556,0.303,5.111,0.453,7.667c0.162,2.719,0.323,5.438,0.483,8.158c0.159,2.681,0.318,5.362,0.477,8.043
		c0.144,2.44,0.289,4.879,0.433,7.318c0.118,1.994,0.236,3.988,0.354,5.981c0.005,0.086,0.01,0.171,0.015,0.258l-2.568,0.01
		c-0.133-2.301-0.267-4.601-0.402-6.902c-0.15-2.595-0.302-5.187-0.454-7.779c-0.158-2.713-0.315-5.424-0.474-8.136
		c-0.154-2.666-0.31-5.331-0.465-7.994c-0.143-2.452-0.286-4.901-0.428-7.35c-0.121-2.068-0.241-4.138-0.362-6.207
		c-0.03-0.527-0.172-1.137-0.101-1.649c0.129-0.898,0.569-1.752,1.235-2.37c1.396-1.292,3.235-1.042,4.986-1.049
		c1.538-0.006,3.077-0.011,4.616-0.018c1.751-0.006,3.503-0.013,5.256-0.02c1.917-0.008,3.835-0.015,5.754-0.021
		c2.036-0.009,4.074-0.015,6.11-0.023c2.11-0.007,4.22-0.016,6.331-0.022c2.134-0.009,4.27-0.017,6.404-0.025
		c2.114-0.006,4.228-0.015,6.342-0.023c2.044-0.007,4.088-0.014,6.134-0.023c1.93-0.006,3.859-0.013,5.789-0.021
		c1.767-0.008,3.535-0.013,5.303-0.021c1.557-0.005,3.115-0.011,4.674-0.017c1.302-0.004,2.602-0.011,3.904-0.016
		c0.361-0.001,0.742-0.039,1.096-0.017c0.781,0.047,1.586,0.542,2.089,1.119c0.789,0.904,0.871,2.106,0.938,3.248
		c0.041,0.7,0.081,1.398,0.122,2.097c0.096,1.652,0.194,3.305,0.29,4.957c0.113,1.917,0.225,3.834,0.337,5.752
		c0.124,2.091,0.247,4.182,0.37,6.274c0.127,2.173,0.254,4.348,0.381,6.524c0.128,2.168,0.255,4.335,0.382,6.503
		c0.122,2.071,0.242,4.14,0.364,6.21C122.292,82.588,122.401,84.468,122.512,86.351z"/>
	<path fill="#FFFFFF" d="M73.016,58.795c0.001-0.008,0.001-0.015,0.003-0.021c0.7-0.809,1.633-1.268,2.608-1.365
		c0.809-0.082,1.641,0.085,2.36,0.467c0.06,1.033,0.114,2.07,0.145,3.127c-0.007,0.031-0.018,0.064-0.028,0.094
		c-0.313,0.964-1.078,1.851-2.079,2.006c-1.008,0.156-2.023-0.48-2.534-1.362C72.984,60.864,72.9,59.802,73.016,58.795z"/>
	<path fill="#00BFFB" d="M63.268,87.644l-7.122,0.031c0.277-2.213,0.591-4.427,1.253-6.554c0.729-2.35,1.914-4.61,3.738-6.261
		c1.278-1.156,2.834-1.973,4.492-2.456c-0.444,0.69-0.399,1.653-0.047,2.414c0.398,0.855,1.113,1.518,1.914,2.109
		c0.95,3.479,1.43,7.086,1.419,10.691L63.268,87.644z"/>
	<path fill="#FFFFFF" d="M71.314,58.855c0.115,1.007,0.035,2.076-0.474,2.953c-0.512,0.882-1.528,1.519-2.534,1.361
		c-1.002-0.155-1.765-1.041-2.079-2.005c-0.296-0.916-0.268-1.901-0.299-2.818c0.866-0.228,1.714-0.507,2.521-0.886
		c0.084,0.001,0.171,0.006,0.255,0.016c0.974,0.097,1.908,0.557,2.608,1.366C71.313,58.846,71.314,58.851,71.314,58.855z"/>
	<path fill="#FFAE84" d="M77.955,57.332c0.01,0.182,0.022,0.362,0.032,0.544c-0.719-0.382-1.551-0.549-2.36-0.467
		c-0.975,0.098-1.909,0.557-2.608,1.365c-0.001,0.006-0.001,0.014-0.003,0.021c-0.537-0.238-1.183-0.215-1.701,0.061
		c0-0.004-0.001-0.01-0.001-0.014c-0.7-0.81-1.635-1.269-2.608-1.366c-0.084-0.009-0.171-0.015-0.255-0.016
		c0.156-0.074,0.311-0.15,0.463-0.23c1.812-0.957,3.388-2.57,3.795-4.574l0.01,0.004c1.299-0.173,2.665,0.252,3.636,1.132
		C77.326,54.67,77.885,55.988,77.955,57.332z"/>
	<g>
		<path fill="#FFFFFF" d="M65.921,58.203c0.73-0.514,1.634-0.777,2.528-0.744c-0.807,0.379-1.656,0.659-2.521,0.886
			C65.926,58.297,65.923,58.25,65.921,58.203z"/>
		<path fill="#FFFFFF" d="M78.41,58.136c-0.042,0.927,0.005,1.93-0.278,2.866c-0.031-1.057-0.084-2.094-0.145-3.127
			C78.133,57.954,78.274,58.041,78.41,58.136z"/>
	</g>
	<path fill="#002169" d="M64.888,58.596l0.005,0.025c-0.125,0.849-0.401,1.676-0.803,2.434c-0.104,0.195-0.216,0.385-0.335,0.569
		c-0.108,0.168-0.273,0.332-0.359,0.51c-0.142,0.294-0.117,0.791-0.028,1.098c0.106,0.37,0.273,0.728,0.392,1.093
		c0.246,0.742,0.442,1.503,0.528,2.282c0.05,0.467,0.06,0.942,0.014,1.412c-0.09,1.01-0.418,1.99-1.06,2.765
		c-0.063,0.076-0.129,0.148-0.197,0.218c-1.264,1.311-3.416,1.665-5.063,0.863c-1.734-0.845-2.797-2.845-2.628-4.768
		c0.137-1.564,1.121-2.468,1.79-3.778c0.68-1.332,0.486-2.868,0.576-4.309c0.116-1.825,0.693-3.625,1.672-5.169
		c1.721-2.716,4.604-4.624,7.74-5.334c1.634-0.371,3.36-0.429,4.981-0.002c1.013,0.267,1.853,0.748,2.722,1.31
		c0.583,0.379,1.286,0.571,1.979,0.552c0.341-0.01,0.595-0.099,0.904-0.208c0.379-0.132,0.851-0.149,1.249-0.171
		c1.243-0.066,2.542,0.228,3.5,1.021c1.429,1.18,1.843,3.342,1.178,5.072c-0.321,0.835-0.864,1.571-1.534,2.158
		c-0.336,0.298-0.707,0.558-1.098,0.78c-0.297,0.169-0.879,0.356-1.004,0.714c-0.049,0.142-0.026,0.36-0.054,0.515
		c-0.042,0.235-0.105,0.464-0.185,0.688c-0.073,0.202-0.163,0.336-0.144,0.556c0.019,0.225,0.095,0.507,0.249,0.681
		c0.137,0.154,0.343,0.267,0.497,0.413c0.335,0.316,0.623,0.685,0.852,1.084c0.457,0.795,0.693,1.721,0.634,2.636
		c-0.119,1.864-1.401,3.581-3.121,4.307c-1.109,0.468-2.194,0.391-3.364,0.391c-0.519,0-1.039,0-1.56,0
		c-0.048-0.714-0.102-1.452-0.118-1.662c1.313-0.298,2.546-0.859,3.512-1.781c1.572-1.504,2.178-4.133,0.936-5.921
		c-0.004-0.213-0.009-0.424-0.016-0.636c0.283-0.937,0.236-1.939,0.278-2.866c-0.136-0.096-0.277-0.182-0.423-0.261
		c-0.01-0.182-0.022-0.362-0.032-0.544c-0.07-1.344-0.629-2.662-1.601-3.541c-0.971-0.879-2.337-1.305-3.636-1.132l-0.01-0.004
		c-0.408,2.003-1.984,3.617-3.795,4.574c-0.153,0.08-0.308,0.157-0.463,0.23c-0.894-0.034-1.797,0.229-2.528,0.744
		c0.001,0.047,0.005,0.094,0.006,0.143C65.583,58.436,65.236,58.52,64.888,58.596z"/>
	<path fill="#FFAE84" d="M95.064,64.421c1.305-1.363,2.646-2.702,4.186-3.79c0.247-0.173,0.507-0.346,0.804-0.402
		c0.296-0.056,0.639,0.028,0.808,0.278c0.268,0.398-0.022,0.925-0.312,1.308c-0.75,0.994-1.545,1.958-2.456,2.985
		c0.481-0.022,0.964,0.265,1.177,0.698c0.211,0.433,0.142,0.991-0.128,1.407c0.546,0.045,1.041,0.466,1.176,0.997
		c0.134,0.53-0.101,1.136-0.486,1.529c0.49,0.344,0.745,0.994,0.619,1.579c-0.127,0.586-0.627,1.073-1.161,1.198
		c-0.064,0.452-0.242,0.886-0.502,1.261c-0.129,0.184-0.278,0.355-0.446,0.506c-0.158,0.143-0.296,0.268-0.347,0.485
		c-0.166,0.721-0.242,1.472-0.37,2.198c-0.015,0.085-0.031,0.171-0.047,0.256L91.67,75c0.028-0.084,0.056-0.168,0.083-0.253
		c0.139-0.418,0.277-0.837,0.414-1.255c0.111-0.335,0.292-0.742,0.2-1.101c-0.045-0.18-0.162-0.359-0.228-0.534
		c-0.523-1.402-0.51-3.001,0.063-4.385C92.748,66.154,93.792,65.058,95.064,64.421z"/>
	<path fill="#002169" d="M68.079,69.885c0.037,0.373,0.071,0.745,0.108,1.118c-1.714,0-3.427,0-5.14,0
		c0.068-0.07,0.134-0.143,0.197-0.218c0.641-0.774,0.969-1.754,1.06-2.765c1.176,0.585,2.432,1.017,3.719,1.281
		C68.042,69.496,68.061,69.689,68.079,69.885z"/>
	<path fill="#FFAE84" d="M68.187,71.002c-0.037-0.373-0.071-0.745-0.108-1.118c1.665,1.14,3.752,1.647,5.756,1.401
		c0.012,0.178,0.021,0.349,0.031,0.507c0.013,0.045,0.023,0.09,0.031,0.135c0.077,0.472-0.103,0.977-0.43,1.333
		c-0.367,0.401-0.894,0.626-1.43,0.713c-0.02,0.004-0.041,0.008-0.062,0.011c-1.504,0.219-3.1-0.666-3.714-2.055l-0.007-0.009
		l0.021-0.005C68.247,71.611,68.217,71.308,68.187,71.002z"/>
	<path fill="#99E7FF" d="M71.976,73.984c0.021-0.003,0.042-0.006,0.062-0.011l0.003,0.013c-0.054,0.902-0.868,1.744-1.811,1.909
		c-0.943,0.165-1.937-0.293-2.521-1.052c-0.582-0.761-0.774-1.776-0.629-2.723l-0.009-0.049c0.392-0.068,0.787-0.118,1.184-0.15
		l0.007,0.009C68.875,73.319,70.472,74.203,71.976,73.984z"/>
	<path fill="#FFFBFF" d="M77.195,72.862c0.206,0.665,0.092,1.415-0.192,2.058c-0.327,0.74-0.857,1.366-1.176,1.859
		c-0.116,3.604-0.003,7.216,0.332,10.806l-7.244,0.034c0.01-3.605-0.469-7.213-1.419-10.691c-0.801-0.592-1.516-1.254-1.914-2.109
		c-0.352-0.761-0.397-1.724,0.047-2.414c0.474-0.138,0.955-0.25,1.442-0.333l0.009,0.049c-0.145,0.947,0.047,1.962,0.629,2.723
		c0.583,0.759,1.577,1.217,2.521,1.052c0.943-0.165,1.757-1.007,1.811-1.909c0.218,0.93,1.144,1.69,2.092,1.57
		c0.713-0.089,1.315-0.636,1.598-1.296c0.255-0.595,0.28-1.266,0.179-1.908C76.35,72.494,76.78,72.665,77.195,72.862z"/>
	<path fill="#00BFFB" d="M81.68,87.56l-5.521,0.025c-0.335-3.59-0.448-7.202-0.332-10.806c0.319-0.493,0.85-1.119,1.176-1.859
		c0.284-0.644,0.398-1.394,0.192-2.058c0.77,0.361,1.488,0.813,2.13,1.334l9.128,10.555c0.271-0.823,0.544-1.647,0.815-2.472
		c0.552-1.674,1.105-3.349,1.657-5.023c0.248-0.751,0.498-1.504,0.745-2.257l5.909,1.915c-0.118,0.657-0.24,1.313-0.369,1.969
		c-0.292,1.482-0.611,2.957-0.958,4.426c-0.33,1.403-0.687,2.8-1.069,4.189L81.68,87.56z"/>
	<path fill="#FFD24C" d="M63.268,87.644l5.646-0.024l7.244-0.034l5.521-0.025l13.504-0.061l24.894-0.113l2.495-0.011
		c0.074,1.261,0.149,2.521,0.222,3.784c0,1.396,0.557,2.893-0.403,4.104c-1.279,1.615-3.637,1.441-5.488,1.449
		c-1.511,0.006-3.019,0.012-4.53,0.018c-1.775,0.005-3.549,0.013-5.326,0.019c-1.982,0.008-3.967,0.017-5.949,0.022
		c-2.135,0.009-4.271,0.017-6.406,0.023c-2.086,0.009-4.17,0.016-6.254,0.024c-0.146,0-0.293,0.001-0.438,0.001
		c-2.27,0.009-4.54,0.019-6.81,0.025c-1.656,0.006-3.311,0.013-4.967,0.019c-0.596,0.003-1.194,0.005-1.79,0.008
		c-2.178,0.007-4.356,0.016-6.535,0.022c-2.048,0.01-4.094,0.016-6.143,0.023c-1.861,0.008-3.723,0.015-5.583,0.021
		c-1.617,0.006-3.235,0.013-4.852,0.018c-1.834,0.009-3.323-0.466-4.407-2.098c-1.241-1.865-1.251-4.959-1.251-7.118
		c0-0.006,0-0.013-0.001-0.019l2.568-0.01l7.917-0.038L63.268,87.644z"/>
	<path fill="#FFC3A8" d="M189.289,72.769c-0.051,1.078-0.099,2.158-0.151,3.238c-1.168,1.705-3.088,2.882-5.14,3.141
		c-2.123,0.265-5.393-0.565-5.881-2.125c0.002-0.004,0.002-0.006,0.002-0.009C182.188,76.995,186.233,75.455,189.289,72.769z"/>
	<path fill="#2E5BBF" d="M171.938,72.579c-1.626,2.39-2.88,5.042-3.685,7.82c-0.683,0.458-1.346,0.953-2.002,1.487
		c-0.738,0.604-1.443,1.246-2.117,1.915c0.658-4.477,2.311-8.806,4.803-12.582C169.896,71.748,170.902,72.2,171.938,72.579z"/>
	<path fill="#FFFFFF" d="M76.297,117.989c-1.2,0-2.371-0.73-2.935-1.796c-0.602-1.139-0.52-2.587,0.143-3.691
		c0.609-1.02,1.704-1.826,2.869-2.092c2.472,0.01,4.954,0.028,7.447,0.059c3,0.035,6.015,0.088,9.046,0.156l-0.04,5.526
		l-0.015,2.072l-16.516,0.033V117.989z"/>
	<path fill="#203F85" d="M34.165,93.283l0.423,0.951c-0.215,0.026-0.431,0.053-0.647,0.081L34.165,93.283z"/>
	<path fill="#99E6FD" d="M34.588,94.234l0.653,1.461l-1.623,0.126l0.323-1.506C34.157,94.287,34.373,94.261,34.588,94.234z"/>
	<path fill="#FFFFFF" d="M121.636,113.393c-7.451-0.645-15.692-0.672-23.005-0.333c-0.002-0.03-0.002-0.062-0.003-0.09
		c1.701-3.18,5.295-5.128,8.988-5.822c3.692-0.694,7.504-0.269,11.199,0.418c0.242,0.044,0.369,0.154,0.608,0.208l0.019-0.027
		c0.466,0.331,1.161,0.366,1.732,0.191c0.097-0.031,0.192-0.065,0.286-0.103h3.449c0.284,0.096,0.575,0.171,0.869,0.228
		c0.448,0.082,0.881,0.086,1.332,0.091c0.698,0.01,1.512,0.315,2.123,0.633c0.765,0.396,1.536,0.774,2.317,1.14
		c0.199,0.093,0.399,0.187,0.601,0.278c-3.692-0.882-7.848,0.367-10.393,3.198C121.718,113.399,121.676,113.395,121.636,113.393z"/>
	<polygon fill="#203F85" points="45.068,93.418 45.253,94.353 44.587,94.238 	"/>
	<path fill="#21428A" d="M79.974,121.681c-0.259,1.747-0.517,3.495-0.776,5.244H27.15c0.251-1.688,0.5-3.375,0.75-5.063
		L79.974,121.681z"/>
	<path fill="#2A53AD" d="M27.15,126.925c-0.198,1.346-0.398,2.689-0.596,4.035h-4.082c0.447-3.028,0.897-6.056,1.345-9.082
		l4.083-0.016C27.651,123.55,27.401,125.237,27.15,126.925z"/>
	<path fill="#00BFFB" d="M71.854,110.4c1.503,0,3.011,0.001,4.521,0.01c-1.165,0.266-2.26,1.072-2.869,2.092
		c-0.662,1.104-0.745,2.553-0.143,3.691c0.564,1.065,1.734,1.796,2.935,1.796v0.268l-16.828,0.034v-0.302
		c-1.2,0-2.373-0.73-2.935-1.796c-0.603-1.139-0.52-2.587,0.141-3.691s1.857-1.851,3.13-2.04
		C63.796,110.425,67.813,110.401,71.854,110.4z"/>
	<polygon fill="#99E6FD" points="45.253,94.353 45.505,95.617 43.924,95.368 44.587,94.238 	"/>
	<path fill="#59D9FD" d="M29.69,94.777c0.527,2.365,1.057,4.73,1.586,7.096c-0.047,0-0.092,0-0.139,0c-0.383,0-0.766,0-1.15,0
		c-0.127,0-0.253,0-0.381,0c-0.501-2.247-1.004-4.493-1.506-6.74L29.69,94.777z"/>
	<path fill="#FFD24C" d="M98.668,118.212l-5.855,0.012l0.015-2.072h5.834C98.663,116.842,98.663,117.534,98.668,118.212z"/>
	<path fill="#0A81D1" d="M35.241,95.695c0.155,2.06,0.31,4.118,0.465,6.178c-0.545,0-1.09,0-1.634,0
		c-0.151-2.017-0.303-4.035-0.454-6.052L35.241,95.695z"/>
	<path fill="#2A53AD" d="M79.197,126.925c0.259-1.749,0.517-3.497,0.776-5.244l4.084-0.014c-0.261,1.769-0.523,3.537-0.786,5.307
		c-0.195,1.328-0.392,2.658-0.589,3.986h-4.082C78.799,129.614,78.999,128.271,79.197,126.925z"/>
	<path fill="#58D7FC" d="M36.882,101.86c0.22-6.411,0.412-13.94,0.652-19.546h3.129c-0.175,4.125-0.327,9.288-0.481,14.283
		l-0.001,0.035l-0.634-0.025c-0.071,1.754-0.143,3.507-0.214,5.261v0.005c-0.741,0-1.482,0-2.22,0c-0.078,0-0.153,0-0.23,0V101.86z"
		/>
	<path fill="#0A81D1" d="M41.174,96.672c-0.07,1.733-0.143,3.466-0.213,5.201c-0.207,0-0.413,0-0.619,0c-0.337,0-0.674,0-1.009,0
		v-0.005c0.071-1.754,0.143-3.507,0.214-5.261l0.634,0.025L41.174,96.672z"/>
	<path fill="#EBEBEB" d="M98.663,116.151c-0.001-1.06-0.004-2.112-0.032-3.092c7.313-0.339,15.554-0.312,23.005,0.333l0.01,4.773
		l-22.977,0.046C98.663,117.534,98.663,116.842,98.663,116.151z"/>
	<path fill="#59D9FD" d="M45.505,95.617c-0.379,2.075-0.757,4.151-1.136,6.226l0.001,0.018c-0.077,0.006-0.149,0.013-0.202,0.013
		c-0.295,0-0.589,0-0.884,0c-0.182,0-0.363,0-0.545,0v-0.013c0.394-2.163,0.789-4.328,1.184-6.492L45.505,95.617z"/>
	<path fill="#00BFFB" d="M31.276,101.873c0.885,0,1.771,0,2.658,0c0.046,0,0.092,0,0.138,0c0.544,0,1.089,0,1.634,0
		c0.391,0,0.784,0,1.176,0c0.077,0,0.153,0,0.23,0c0.738,0,1.479,0,2.22,0c0.335,0,0.671,0,1.009,0c0.207,0,0.413,0,0.619,0
		c0.594,0,1.186,0,1.779,0c0.183,0,0.363,0,0.545,0c0.294,0,0.588,0,0.884,0c0.053,0,0.125-0.007,0.202-0.013
		c0.213-0.014,0.471-0.014,0.519,0.2c0.031,0.131-0.037,0.341-0.051,0.474c-0.042,0.364-0.085,0.728-0.127,1.089
		c-0.104,0.905-0.208,1.811-0.312,2.717c-0.122,1.043-0.242,2.085-0.362,3.13c-0.123,1.058-0.245,2.117-0.366,3.176
		c-0.111,0.953-0.22,1.905-0.33,2.858c-0.084,0.722-0.167,1.445-0.251,2.169c-0.026,0.217-0.051,0.435-0.074,0.65l-12.038,0.024
		c-0.007-0.064-0.014-0.128-0.021-0.192c-0.073-0.626-0.146-1.252-0.218-1.877c-0.104-0.894-0.207-1.789-0.309-2.681
		c-0.12-1.041-0.241-2.08-0.36-3.118c-0.123-1.063-0.245-2.125-0.368-3.186c-0.11-0.963-0.221-1.924-0.332-2.886
		c-0.086-0.739-0.167-1.479-0.256-2.218c-0.035-0.302,0.134-0.317,0.376-0.317c0.038,0,0.078,0,0.115,0c0.127,0,0.254,0,0.381,0
		c0.384,0,0.767,0,1.15,0C31.185,101.873,31.229,101.873,31.276,101.873z"/>
	<path fill="#FFA995" d="M167.653,63.369c0.079,0.764,0.109,1.545-0.072,2.29c-0.182,0.748-0.604,1.46-1.26,1.857
		c-0.522,0.316-1.15,0.404-1.762,0.325c-0.354-0.384-0.689-0.789-1.003-1.211c-0.872-1.176-1.552-2.463-2.074-3.819
		c-0.609-1.576-1.007-3.245-1.258-4.945c0.813-0.798,1.984-1.304,3.146-1.015c1.349,0.334,2.458,1.343,3.146,2.547
		C167.205,60.602,167.51,61.99,167.653,63.369z"/>
	<path fill="#FF8570" d="M189.299,72.546c-0.002,0.074-0.008,0.148-0.01,0.223c-3.056,2.686-7.102,4.226-11.17,4.245
		c0.099-0.971,0.206-1.974,0.309-2.972c3.134,0.311,6.323,0.08,9.31-0.905C188.268,72.962,188.789,72.765,189.299,72.546z"/>
	<path fill="#FDC242" d="M227.211,60.733l2.445,4.908c-0.617,0.337-1.196,0.751-1.697,1.244l-2.613-5.234l-0.004-0.072
		c0.624-0.229,1.231-0.503,1.814-0.818L227.211,60.733z"/>
	<path fill="#FE9126" d="M210.817,89.023c-2.774-2.177-5.549-4.354-8.322-6.531c-3.896-3.059-8.371-6.542-13.325-6.459l-0.032-0.024
		c0-0.001,0-0.001,0-0.002c-1.168,1.705-3.088,2.882-5.14,3.141c-2.123,0.265-5.393-0.565-5.881-2.125
		c0-0.004-0.002-0.006-0.002-0.009c-0.123,0.001-0.248,0.001-0.373-0.001c-3.769,0.389-6.769,1.569-9.489,3.386
		c-0.683,0.458-1.346,0.953-2.002,1.487c-0.738,0.604-1.443,1.246-2.117,1.915c-2.377,2.367-4.391,5.105-6.307,7.867
		c-1.673,2.412-2.837,4.068-4.578,6.395c3.238,4.065,6.479,8.127,9.721,12.191c0.169,0.209,0.337,0.42,0.504,0.631
		c0.067-0.411,0.132-0.821,0.2-1.23c0.511-3.146,1.054-6.288,1.631-9.423c1.054-7.987,5.558-15.584,12.154-20.409
		c1.629,1.439,3.818,2.245,5.994,2.176c1.31-0.041,2.605-0.398,3.764-1.012c2.359,11.229,9.335,20.603,14.606,25.822
		c1.152,1.141,2.224,2.082,3.146,2.8c-0.677-0.619-1.088-1.498-1.005-2.478c0.023-0.295,0.052-0.589,0.089-0.88
		c0.335-2.889,1.147-5.727,2.528-8.282c1.516-2.815,3.933-5.393,6.684-7.023C212.448,90.305,211.633,89.664,210.817,89.023z"/>
	<path fill="#FFC3A8" d="M236.104,70.997c0.149,0.479,0.139,0.993,0.101,1.493c-0.063-0.012-0.123-0.019-0.189-0.019
		c-0.307-0.003-0.605,0.099-0.891,0.219c-1.234,0.521-2.307,1.427-3.028,2.56c-0.024,0.036-0.047,0.072-0.067,0.111
		c-0.519,0.187-1.152-0.039-1.495-0.481c-0.373-0.481-0.43-1.155-0.263-1.738c0.045-0.15,0.102-0.295,0.17-0.435
		c0.198-0.404,0.484-0.766,0.799-1.09c0.664-0.679,1.468-1.22,2.346-1.576c0.396-0.16,0.831-0.282,1.243-0.231
		c0.101,0.013,0.199,0.035,0.296,0.07C235.609,70.054,235.953,70.507,236.104,70.997z"/>
	<path fill="#FFC3A8" d="M227.959,66.884c0.501-0.492,1.08-0.906,1.697-1.244c0.2-0.107,0.403-0.21,0.611-0.302
		c0.501-0.225,1.033-0.401,1.582-0.414c0.547-0.014,1.118,0.15,1.514,0.533c0.394,0.382,0.577,0.999,0.367,1.505l0.003,0.018
		c-0.287,0.019-0.584,0.098-0.854,0.196c-1.181,0.423-2.262,1.119-3.134,2.02c-0.272,0.279-0.524,0.583-0.717,0.919
		c-0.125-0.023-0.248-0.075-0.356-0.146c0.159-0.122,0.313-0.252,0.458-0.392c0.397-0.382,0.74-0.864,0.789-1.416
		c0.044-0.549-0.293-1.156-0.836-1.26c-0.401-0.076-0.795,0.123-1.16,0.302c-0.137,0.067-0.276,0.133-0.414,0.196l-0.008-0.018
		C227.645,67.208,227.798,67.042,227.959,66.884z"/>
	<path fill="#2E5BBF" d="M199.801,23.77c-0.048-0.104-0.11-0.213-0.182-0.328c3.237,1.028,4.666,3.042,5.354,4.593
		c0.272,0.614,0.43,1.153,0.532,1.533c1.615,5.825,1.625,11.907,1.185,17.971c-0.076,1.047-0.165,2.093-0.26,3.138
		c-0.713,6.195-3.304,4.811-3.603,3.973c-0.301-0.841-0.236-1.759-0.184-2.648c0.105-1.804,0.149-3.608,0.138-5.414
		c0-0.191-0.002-0.381-0.007-0.57c-0.086-6.648-0.926-13.289-2.186-19.826C200.437,25.343,200.167,24.533,199.801,23.77z"/>
	<path fill="#FE9126" d="M160.225,57.866c0.251,1.7,0.648,3.37,1.258,4.945l-0.061,0.023c-1.55,0.29-3.255-0.201-4.333-1.365
		c-1.105-1.197-1.501-2.883-1.665-4.504c-0.112-1.146-0.129-2.301-0.052-3.45c0.068-1.028,0.216-2.049,0.438-3.055
		c0.278-1.266,0.706-2.557,1.622-3.473c0.67-0.669,1.663-1.074,2.579-0.98c-0.068,2.544-0.199,5.09-0.133,7.632
		C159.914,55.044,160.018,56.464,160.225,57.866z"/>
	<circle cx="170.931" cy="52.552" r="2.005"/>
	<path fill="#FFD24C" d="M204.943,62.098c-0.62,0.566-1.344,1.021-2.123,1.299l0,0c-1.839,0.229-3.239-1.323-3.962-2.852
		c-0.797-1.684-0.932-3.606-0.814-5.466c0.141-2.223,0.663-4.5,2.018-6.27c0.732-0.957,1.669-1.764,2.721-2.222
		c0.012,1.806-0.032,3.61-0.138,5.414c-0.053,0.89-0.117,1.808,0.184,2.648c0.299,0.838,2.89,2.223,3.603-3.973
		c0.095-1.045,0.184-2.091,0.26-3.138l0.026,0.001c0.523,0.501,0.896,1.081,1.165,1.663c0.322,0.702,0.494,1.408,0.585,1.978
		c0.282,1.76-0.057,3.563-0.533,5.282c-0.242,0.875-0.526,1.751-0.896,2.582c-0.392,0.888-0.878,1.723-1.512,2.457
		C205.347,61.712,205.151,61.912,204.943,62.098z"/>
	<polygon fill="#A66E6E" points="178.119,77.014 178.117,77.022 178.115,77.014 	"/>
	<path fill="#FFC3A8" d="M229.028,70.115c0.192-0.337,0.444-0.64,0.717-0.919c0.872-0.9,1.953-1.597,3.134-2.02
		c0.271-0.098,0.567-0.177,0.854-0.196c0.322-0.021,0.637,0.032,0.897,0.222c0.367,0.265,0.528,0.746,0.521,1.198
		c-0.006,0.454-0.157,0.889-0.309,1.318l-0.014,0.091c-0.412-0.05-0.848,0.071-1.243,0.231c-0.878,0.356-1.682,0.897-2.346,1.576
		c-0.314,0.324-0.601,0.686-0.799,1.09c-0.496,0.219-1.13-0.008-1.451-0.453c-0.335-0.465-0.363-1.098-0.186-1.641
		C228.861,70.44,228.938,70.273,229.028,70.115z"/>
	<path fill="#002169" d="M205.638,63.16c0.311,0.551,0.511,1.14,0.337,1.729c-0.196,0.663-0.862,1.123-1.552,1.191
		c-0.688,0.068-1.379-0.204-1.863-0.674c-0.169,1.327-1.459,2.283-2.776,2.511c-1.122,0.194-2.263-0.022-3.376-0.299l-0.03-0.031
		c1.229-1.26,2.33-2.653,3.291-4.133V63.45c0.293,0.102,0.594,0.174,0.906,0.214c0.763,0.097,1.525-0.009,2.246-0.267l0,0
		c0.779-0.278,1.503-0.733,2.123-1.299c0.053,0.083,0.106,0.16,0.161,0.236C205.288,62.595,205.478,62.872,205.638,63.16z"/>
	<path fill="#FFFFFF" d="M184.24,59.758c0.307,1.747-0.416,3.635-1.809,4.733c-1.391,1.099-3.398,1.358-5.024,0.651
		c-0.953-0.414-1.754-1.149-2.281-2.042c-0.246-0.417-0.619-1.351-0.672-1.838C174.454,61.263,181.406,60.278,184.24,59.758z"/>
	<path fill="#203F85" d="M208.646,110.393l0.004,0.02l-1.731,20.548h-6.948c0.581-7.883,1.279-16.301,1.853-24.151
		c1.152,1.141,2.224,2.082,3.146,2.8c0.561,0.52,1.308,0.86,2.106,0.932C207.605,110.59,208.134,110.532,208.646,110.393z"/>
	<path fill="#2E5BBF" d="M212.416,110.83l-1.796,20.13h-3.701l1.731-20.548l-0.004-0.02c0.434-0.119,0.855-0.297,1.253-0.52
		c0.471,0.22,0.948,0.423,1.438,0.604C211.689,110.607,212.051,110.726,212.416,110.83z"/>
	<path fill="#A66E6E" d="M189.757,72.339c-0.153,0.147-0.309,0.291-0.468,0.43c0.002-0.075,0.008-0.149,0.01-0.223
		C189.455,72.478,189.606,72.411,189.757,72.339z"/>
	<circle cx="184.424" cy="52.615" r="2.005"/>
	<path fill="#A66E6E" d="M178.115,77.014c-0.123,0.001-0.248,0.001-0.373-0.001c0.121-0.016,0.242-0.026,0.363-0.037
		C178.107,76.988,178.111,77.001,178.115,77.014z"/>
	<path fill="#FE9126" d="M202.775,46.018c0.005,0.189,0.007,0.379,0.007,0.57c-1.052,0.458-1.988,1.265-2.721,2.222
		c-1.354,1.771-1.877,4.047-2.018,6.27c-0.117,1.859,0.018,3.782,0.814,5.466c0.723,1.528,2.123,3.081,3.962,2.852
		c-0.721,0.258-1.483,0.364-2.246,0.267c-0.313-0.04-0.613-0.112-0.906-0.214c-1.442-0.503-2.63-1.711-3.291-3.111
		c-0.798-1.683-0.935-3.607-0.815-5.465c0.068-1.09,0.228-2.189,0.532-3.237c0.319-1.094,0.793-2.129,1.485-3.034
		C198.853,46.938,200.752,45.723,202.775,46.018z"/>
	<path fill="#2E5BBF" d="M157.432,46.987c-0.916,0.916-1.344,2.208-1.622,3.473c-0.222,1.006-0.369,2.027-0.438,3.055l-0.011-0.001
		c0.285-4.144,1.411-8.227,3.283-11.932c0.456,0.025,0.915,0.023,1.37-0.002c0.055,1.474,0.037,2.95-0.004,4.427
		C159.095,45.913,158.102,46.318,157.432,46.987z"/>
	<path fill="#203F85" d="M177.742,77.013c-3.769,0.389-6.769,1.569-9.489,3.386c0.805-2.778,2.059-5.43,3.685-7.82
		c1.351,0.495,2.749,0.868,4.147,1.127c0.777,0.145,1.558,0.257,2.343,0.336c-0.103,0.998-0.21,2.001-0.309,2.972
		c-0.002,0.001-0.002,0.001-0.004,0c-0.004-0.013-0.008-0.025-0.01-0.038C177.984,76.986,177.863,76.997,177.742,77.013z"/>
	<path fill="#203F85" d="M202.495,82.492c-3.896-3.059-8.371-6.542-13.325-6.459l-0.032-0.024c0-0.001,0-0.001,0-0.002
		c0.053-1.08,0.101-2.16,0.151-3.238c0.159-0.139,0.314-0.283,0.468-0.43c2.477-1.138,4.705-2.783,6.62-4.752l0.03,0.031
		c1.113,0.277,2.254,0.493,3.376,0.299c1.317-0.228,2.607-1.184,2.776-2.511c0.484,0.47,1.175,0.743,1.863,0.674
		c0.689-0.069,1.355-0.528,1.552-1.191c0.174-0.589-0.026-1.178-0.337-1.729c1.368-0.27,2.748-0.429,4.127-0.266
		c2.076,0.248,4.177,1.39,4.977,3.322c0.827,2,0.112,4.264-0.517,6.333c-1.637,5.377-2.668,10.898-3.407,16.474
		C208.043,86.847,205.269,84.669,202.495,82.492z"/>
	<path fill="#FFC3A8" d="M209.899,109.873c-2.07-0.973-3.974-2.29-5.846-3.622c0.335-2.889,1.147-5.727,2.528-8.282
		c1.516-2.815,3.933-5.393,6.684-7.023c0.371,0.291,0.745,0.585,1.116,0.875c0.42,0.329,0.837,0.658,1.255,0.987l0.03,0.015
		c2.918-5.366,5.862-10.768,8.942-16.371c-0.771-1.882-1.489-4.01-0.738-5.898c0.328-0.829,0.916-1.516,1.596-2.079
		c0.343-0.283,0.569-0.48,0.991-0.638c0.353-0.133,0.706-0.279,1.051-0.436c0.138-0.063,0.277-0.128,0.414-0.196
		c0.365-0.179,0.759-0.378,1.16-0.302c0.543,0.104,0.88,0.711,0.836,1.26c-0.049,0.552-0.392,1.034-0.789,1.416
		c-0.146,0.14-0.299,0.27-0.458,0.392c0.108,0.071,0.231,0.123,0.356,0.146c-0.09,0.158-0.167,0.325-0.224,0.499
		c-0.178,0.543-0.149,1.176,0.186,1.641c0.321,0.444,0.955,0.672,1.451,0.453c-0.068,0.139-0.125,0.285-0.17,0.435
		c-0.167,0.583-0.11,1.256,0.263,1.738c0.343,0.442,0.977,0.668,1.495,0.481c0.021-0.039,0.043-0.075,0.067-0.111
		c0.722-1.133,1.794-2.039,3.028-2.56c0.285-0.12,0.584-0.222,0.891-0.219c0.066,0,0.127,0.007,0.189,0.019
		c0.579,0.121,0.888,0.776,0.896,1.35c0.009,0.432-0.121,0.855-0.264,1.263c-0.636,1.795-1.645,3.648-2.929,5.063
		c-0.771,0.85-1.194,1.817-1.416,2.944c-0.187,0.943-0.376,1.886-0.575,2.823c-0.392,1.857-0.812,3.709-1.29,5.547
		c-1.09,4.198-2.484,8.338-4.472,12.202c-1.413,2.75-3.262,5.477-6.057,6.801c-2.371,1.121-5.142,1.071-7.683,0.347
		c-0.365-0.104-0.727-0.223-1.079-0.354C210.848,110.296,210.37,110.093,209.899,109.873z"/>
	<path fill="#2E5BBF" d="M213.266,90.945c-0.817-0.641-1.633-1.281-2.448-1.922c0.739-5.575,1.771-11.097,3.407-16.474
		c0.629-2.07,1.344-4.333,0.517-6.333c-0.8-1.933-2.9-3.074-4.977-3.322c-1.379-0.163-2.759-0.003-4.127,0.266
		c-0.16-0.288-0.35-0.565-0.533-0.827c-0.055-0.076-0.108-0.153-0.161-0.236c0.208-0.186,0.403-0.386,0.583-0.595
		c0.634-0.734,1.12-1.569,1.512-2.457l0.068,0.028c1.867-0.216,3.737-0.275,5.576,0.069c3.033,0.567,6.012,2.469,6.971,5.403
		c0.96,2.952-0.272,6.113-1.286,9.049c-2.021,5.851-3.223,12.081-3.985,18.226C214.011,91.53,213.637,91.236,213.266,90.945z"/>
	<path fill="#FFFBFF" d="M187.217,80.986c-1.158,0.613-2.454,0.971-3.764,1.012c-2.176,0.069-4.365-0.736-5.994-2.176
		c-6.597,4.825-11.101,12.422-12.154,20.409c-0.577,3.135-1.12,6.277-1.631,9.423c-0.068,0.409-0.133,0.819-0.2,1.23
		c-0.383,2.396-0.748,4.794-1.092,7.197c-0.159,1.104-0.313,2.208-0.462,3.312c-0.254,1.858-0.496,3.719-0.725,5.58
		c-0.165,1.328-0.322,2.656-0.474,3.986h31.657c1.289-10.214,2.577-20.425,3.864-30.639
		C192.432,95.162,188.793,88.488,187.217,80.986z"/>
	<path fill="#FFE8E8" d="M201.823,106.809c-1.748-1.732-3.685-3.923-5.58-6.487c-1.287,10.214-2.575,20.425-3.864,30.639h7.592
		C200.552,123.077,201.25,114.659,201.823,106.809z"/>
	<g>
		<path fill="#002169" d="M210.313,37.347c-0.002-0.017-0.002-0.033-0.004-0.05c-0.236-3.712-2.142-7.543-5.336-9.262
			c0.272,0.614,0.43,1.153,0.532,1.533c0.761,2.74,1.165,5.537,1.334,8.361c0.19,3.181,0.083,6.398-0.149,9.61l0.026,0.001
			c0.523,0.501,0.896,1.081,1.165,1.663C209.246,45.366,210.562,41.401,210.313,37.347z"/>
		<path fill="#002169" d="M200.59,26.192c-0.153-0.849-0.423-1.659-0.789-2.422c-0.048-0.104-0.11-0.213-0.182-0.328
			c-1.824-2.91-10.786-8.917-26.104-5.249c-1.909,0.458-3.919,1.064-6.025,1.849c-1.344,0.5-2.749,0.82-4.18,0.964
			c-2.706,0.276-5.427,0.51-7.896,1.607c-2.668,1.188-4.9,3.407-5.927,6.142c-1.027,2.737-0.781,5.96,0.807,8.413
			c1.784,2.756,5.041,4.24,8.351,4.415c0.456,0.025,0.915,0.023,1.37-0.002c0.435-0.025,0.866-0.071,1.292-0.142
			c3.096-0.512,5.909-2.038,8.377-4.012c0.394,0.473,0.846,0.9,1.342,1.261c2.093,1.528,4.799,2.018,7.389,1.888
			c3.699-0.187,7.317-1.607,10.195-3.936c-0.075,1.995,0.269,3.99,1.15,5.773c0.46,0.923,1.073,1.769,1.804,2.496
			c0.365,0.364,0.757,0.698,1.177,0.996c0.563,0.399,1.019,0.722,1.207,1.408c0.212,0.766,0.462,1.511,0.803,2.23
			c0.345,0.726,0.757,1.418,1.233,2.063l0.11,0.032c0.319-1.094,0.793-2.129,1.485-3.034c1.273-1.665,3.173-2.879,5.196-2.585
			c-0.042-3.198-0.26-6.394-0.613-9.579C201.781,33.003,201.244,29.583,200.59,26.192z"/>
	</g>
	<path fill="#FD7D42" d="M227.19,60.691l-1.067-1.021l-0.884,0.397l0.103,1.51c0.624-0.229,1.231-0.503,1.814-0.818l0.055-0.027
		L227.19,60.691z"/>
	<polygon fill="#002169" points="225.15,58.739 225.239,60.066 225.239,60.068 226.123,59.67 	"/>
	<path fill="#FE9126" d="M88.437,96.853v-0.033c-0.146,0-0.293,0.001-0.438,0.001c-2.27,0.009-4.54,0.019-6.81,0.025
		c-1.656,0.006-3.311,0.013-4.967,0.019v0.071l-1.439,4.438h12.123C87.416,99.866,87.926,98.359,88.437,96.853z"/>
	<path fill="#FFD24C" d="M74.782,101.373l-2.929,9.027c1.503,0,3.011,0.001,4.521,0.01c2.472,0.01,4.954,0.028,7.447,0.059
		c1.027-3.032,2.055-6.063,3.083-9.096H74.782z"/>
	<path fill="#21428A" d="M84.058,121.667c-0.261,1.769-0.523,3.537-0.786,5.307h70.148l-0.888-5.559L84.058,121.667z"/>
	<polygon fill="#2E5BBF" points="155.335,118.098 154.827,118.098 121.646,118.166 98.668,118.212 92.813,118.224 76.297,118.257 
		59.469,118.291 43.018,118.323 30.98,118.348 18.25,118.373 18.25,121.896 23.817,121.878 27.9,121.862 79.974,121.681 
		84.058,121.667 155.335,121.415 	"/>
	<path fill="#00BFFB" d="M204.659,28.259c0.165,0.085,0.349,0.182,0.528,0.126c0.301-0.096,0.311-0.521,0.234-0.828
		c-0.579-2.363-2.67-4.281-5.074-4.654c-0.324-0.051-0.742-0.025-0.867,0.28c-0.127,0.315,0.172,0.622,0.379,0.891
		c0.388,0.5,0.509,1.149,0.62,1.771c0.074,0.43,0.059,1.296,0.292,1.655c0.229,0.351,0.675,0.126,1.124,0.118
		C202.851,27.6,203.812,27.82,204.659,28.259z"/>
	<g>
		<path fill="#2E5BBF" d="M162.754,70.822c0.488,0.831,1.277,1.482,2.186,1.806c0.339,0.12,0.71,0.196,1.056,0.1
			c0.347-0.097,0.651-0.407,0.646-0.767c-0.008-0.315-0.246-0.583-0.513-0.752c-0.267-0.17-0.571-0.272-0.838-0.443
			c-0.657-0.421-1.113-1.389-1.945-1.519C162.393,69.095,162.415,70.246,162.754,70.822z"/>
	</g>
	<g>
		<path fill="#7964FF" d="M77.17,37.589v0.029h0.374C77.417,37.619,77.292,37.609,77.17,37.589z"/>
		<path fill="#FFFFFF" d="M77.544,33.409c-0.957,0-1.74,0.783-1.74,1.74c0,0.478,0.195,0.913,0.511,1.228
			c0.315,0.316,0.751,0.511,1.229,0.511h4.481c0.957,0,1.74-0.783,1.74-1.739c0-0.478-0.196-0.913-0.512-1.229
			c-0.315-0.315-0.749-0.511-1.228-0.511H77.544z"/>
		<path fill="#2E5BBF" d="M75.074,32.678c-1.362,0-2.471,1.108-2.471,2.471c0,1.36,1.108,2.47,2.471,2.47h2.096v-0.029
			c-1.187-0.179-2.096-1.206-2.096-2.44c0-1.363,1.107-2.471,2.47-2.471H75.074z"/>
		<path fill="#00BFFB" d="M83.765,35.149c0-0.478-0.196-0.913-0.512-1.229c-0.315-0.315-0.749-0.511-1.228-0.511h-4.481
			c-0.957,0-1.74,0.783-1.74,1.74c0,0.478,0.195,0.913,0.511,1.228c0.315,0.316,0.751,0.511,1.229,0.511h4.481
			C82.982,36.888,83.765,36.105,83.765,35.149z M78.594,37.619h-1.05c-0.128,0-0.252-0.01-0.374-0.029
			c-1.187-0.179-2.096-1.206-2.096-2.44c0-1.363,1.107-2.471,2.47-2.471h2.012h2.469c1.363,0,2.471,1.108,2.471,2.471
			c0,1.36-1.108,2.47-2.471,2.47H80.09H78.594z"/>
		<path fill="#2E5BBF" d="M77.17,37.619v0.616c0.834,0,1.668,0,2.501,0c0.14,0,0.279,0,0.418,0v-0.616h-1.496h-1.05H77.17z"/>
		<circle fill="#2E5BBF" cx="81.933" cy="35.147" r="0.483"/>
		<circle fill="#00BFFB" cx="78.508" cy="35.147" r="1.269"/>
		<circle fill="#2E5BBF" cx="78.508" cy="35.147" r="0.48"/>
	</g>
	<g>
		<g>
			<path fill="#002169" d="M186.53,45.703c-0.131,0-0.262-0.044-0.371-0.134c-0.821-0.68-2.099-1.468-3.501-1.359
				c-0.327,0.024-0.602-0.215-0.626-0.538c-0.024-0.321,0.216-0.601,0.537-0.626c1.794-0.137,3.346,0.807,4.332,1.625
				c0.249,0.206,0.285,0.572,0.079,0.82C186.865,45.631,186.698,45.703,186.53,45.703z"/>
		</g>
	</g>
	<g>
		<g>
			<path fill="#002169" d="M166.955,46.252c-0.139,0-0.28-0.05-0.39-0.152c-0.24-0.215-0.258-0.584-0.042-0.822
				c0.92-1.018,2.234-1.671,3.601-1.794c0.318-0.031,0.605,0.208,0.633,0.528c0.028,0.322-0.207,0.605-0.528,0.634
				c-1.077,0.096-2.115,0.611-2.839,1.415C167.274,46.188,167.114,46.252,166.955,46.252z"/>
		</g>
	</g>
	<g>
		<path fill="#FF8570" d="M174.053,59.324c-0.053,0-0.104-0.015-0.153-0.043c-0.515-0.316-1.253-0.824-1.705-1.579
			c-0.471-0.783-0.529-1.7-0.149-2.393c0.301-0.557,0.896-0.984,1.635-1.171c0.609-0.156,1.223-0.146,1.9-0.118
			c0.162,0.007,0.287,0.143,0.281,0.303c-0.007,0.162-0.14,0.286-0.305,0.28c-0.632-0.026-1.199-0.038-1.734,0.099
			c-0.581,0.148-1.041,0.47-1.267,0.885c-0.274,0.505-0.221,1.218,0.139,1.815c0.386,0.645,1.048,1.098,1.512,1.38
			c0.136,0.085,0.18,0.264,0.095,0.401C174.246,59.274,174.151,59.324,174.053,59.324z"/>
	</g>
	<g>
		<path fill="#FF8570" d="M228.093,75.581c-0.032,0-0.067-0.006-0.102-0.019c-0.151-0.055-0.228-0.223-0.171-0.373
			c0.353-0.966,0.313-2.083-0.111-3.063c-0.104-0.239-0.23-0.466-0.373-0.676c-0.03-0.043-0.059-0.081-0.083-0.116
			c-0.101-0.134-0.216-0.286-0.176-0.488c0.038-0.195,0.202-0.315,0.341-0.4c0.547-0.329,1.074-0.659,1.51-1.078
			c0.43-0.414,0.666-0.828,0.698-1.23c0.034-0.389-0.204-0.874-0.598-0.949c-0.298-0.056-0.633,0.108-0.958,0.268l-0.021,0.009
			c-0.143,0.071-0.32,0.011-0.39-0.133c-0.07-0.146-0.012-0.32,0.134-0.39l0.02-0.01c0.392-0.192,0.834-0.41,1.324-0.316
			c0.732,0.139,1.124,0.923,1.069,1.571c-0.046,0.548-0.339,1.088-0.873,1.601c-0.48,0.462-1.04,0.811-1.615,1.158
			c-0.008,0.004-0.014,0.008-0.02,0.012c0.008,0.009,0.014,0.019,0.02,0.026c0.03,0.041,0.064,0.086,0.098,0.136
			c0.165,0.241,0.309,0.501,0.428,0.774c0.484,1.116,0.526,2.39,0.123,3.495C228.322,75.508,228.212,75.581,228.093,75.581z"/>
	</g>
	<g>
		<path fill="#FF8570" d="M230.034,73.081c-0.48,0-0.979-0.238-1.28-0.656c-0.367-0.507-0.449-1.219-0.226-1.902
			c0.165-0.509,0.486-0.996,1.005-1.53c0.902-0.93,2.026-1.654,3.247-2.091c0.375-0.134,0.704-0.204,1.005-0.215
			c0.168-0.008,0.297,0.12,0.303,0.281c0.006,0.16-0.119,0.295-0.28,0.302c-0.238,0.008-0.517,0.069-0.829,0.181
			c-1.139,0.407-2.184,1.081-3.025,1.949c-0.456,0.469-0.732,0.884-0.872,1.306c-0.163,0.499-0.106,1.028,0.146,1.379
			c0.265,0.368,0.787,0.521,1.143,0.336c0.141-0.076,0.318-0.021,0.394,0.122c0.074,0.143,0.018,0.318-0.123,0.395
			C230.453,73.034,230.246,73.081,230.034,73.081z"/>
	</g>
	<g>
		<path fill="#FF8570" d="M232.837,77.244c-0.535,0-1.063-0.215-1.268-0.704c-0.171-0.408-0.078-0.88,0.28-1.446
			c0.753-1.181,1.875-2.129,3.165-2.673c0.282-0.12,0.621-0.242,0.992-0.242c0.005,0,0.007,0,0.011,0
			c0.161,0.001,0.29,0.132,0.288,0.293c0,0.162-0.127,0.292-0.292,0.29c-0.002,0-0.005,0-0.007,0c-0.266,0-0.536,0.099-0.767,0.195
			c-1.181,0.499-2.21,1.368-2.897,2.449c-0.251,0.394-0.327,0.69-0.234,0.907c0.135,0.331,0.647,0.406,1.056,0.309
			c0.982-0.23,1.77-1.069,2.401-1.744c0.108-0.117,0.295-0.123,0.411-0.013c0.117,0.11,0.126,0.295,0.015,0.412
			c-0.687,0.731-1.538,1.641-2.692,1.913C233.149,77.226,232.992,77.244,232.837,77.244z"/>
	</g>
	<g>
		<path fill="#0057C2" d="M62.796,79.642c-0.554-0.89-1.496-1.554-2.521-1.773l0.092-0.428c1.139,0.244,2.186,0.981,2.801,1.971
			L62.796,79.642z"/>
	</g>
	<g>
		
			<rect x="63.521" y="82.804" transform="matrix(0.9891 0.1472 -0.1472 0.9891 13.2349 -8.4542)" fill="#0057C2" width="0.438" height="4.786"/>
	</g>
	<g>
		
			<rect x="77.601" y="83.661" transform="matrix(0.161 0.987 -0.987 0.161 150.8854 -9.7352)" fill="#0057C2" width="7.136" height="0.437"/>
	</g>
	<g>
		<path fill="#FF8570" d="M94.867,69.839c-0.046,0-0.093-0.011-0.137-0.034c-0.143-0.077-0.195-0.254-0.12-0.396
			c0.407-0.759,0.463-1.691,0.149-2.493c-0.052-0.134,0-0.286,0.125-0.358c0.712-0.417,1.308-1.034,1.722-1.785
			c0.137-0.25,0.133-0.364,0.104-0.418c-0.062-0.117-0.34-0.108-0.582-0.039c-0.299,0.085-0.593,0.2-0.877,0.338
			c-0.145,0.071-0.319,0.01-0.39-0.135c-0.071-0.145-0.01-0.318,0.134-0.39c0.314-0.153,0.641-0.278,0.97-0.374
			c0.592-0.17,1.063-0.047,1.261,0.328c0.208,0.395-0.032,0.829-0.11,0.971c-0.425,0.771-1.021,1.417-1.733,1.88
			c0.28,0.904,0.188,1.915-0.259,2.75C95.072,69.782,94.971,69.839,94.867,69.839z"/>
	</g>
	<g>
		<path fill="#002169" d="M75.724,63.344c-0.932,0-1.893-0.579-2.423-1.494c-0.477-0.822-0.646-1.866-0.5-3.103l0.008-0.067
			l0.044-0.05c0.711-0.821,1.688-1.333,2.752-1.44c1.022-0.104,2.09,0.176,2.931,0.766l0.099,0.069l-0.005,0.121
			c-0.009,0.196-0.014,0.396-0.019,0.6c-0.02,0.798-0.04,1.625-0.298,2.418c-0.375,1.155-1.26,2.001-2.253,2.155
			C75.948,63.336,75.836,63.344,75.724,63.344z M73.228,58.867c-0.12,1.111,0.032,2.041,0.452,2.764
			c0.505,0.872,1.457,1.389,2.312,1.255c0.832-0.128,1.579-0.858,1.904-1.857c0.239-0.733,0.258-1.527,0.277-2.294
			c0.004-0.164,0.008-0.326,0.014-0.487c-0.74-0.485-1.659-0.711-2.538-0.623C74.718,57.719,73.86,58.159,73.228,58.867z"/>
	</g>
	<g>
		<path fill="#002169" d="M68.606,63.412c-0.112,0-0.223-0.008-0.334-0.026c-0.993-0.154-1.878-1-2.253-2.154
			c-0.259-0.795-0.279-1.621-0.298-2.42c-0.005-0.202-0.01-0.403-0.019-0.599l-0.005-0.12l0.098-0.069
			c0.84-0.59,1.909-0.869,2.931-0.766c1.063,0.107,2.042,0.618,2.751,1.44l0.044,0.051l0.009,0.066
			c0.144,1.238-0.024,2.281-0.5,3.104C70.5,62.833,69.539,63.412,68.606,63.412z M66.145,58.315c0.006,0.161,0.01,0.323,0.014,0.486
			c0.019,0.768,0.038,1.561,0.277,2.295c0.326,0.999,1.073,1.729,1.905,1.858c0.855,0.133,1.806-0.383,2.312-1.255
			c0.42-0.723,0.572-1.654,0.452-2.765c-0.633-0.707-1.49-1.146-2.421-1.24C67.803,57.605,66.885,57.831,66.145,58.315z"/>
	</g>
	<g>
		<path fill="#002169" d="M71.37,59.074l-0.217-0.38c0.595-0.339,1.351-0.373,1.974-0.09l-0.182,0.399
			C72.449,58.776,71.845,58.803,71.37,59.074z"/>
	</g>
	<g>
		<path fill="#FF8570" d="M231.641,75.717c-0.497,0-1.012-0.237-1.336-0.659c-0.406-0.525-0.523-1.272-0.312-1.998
			c0.162-0.556,0.503-1.094,1.037-1.645c0.688-0.705,1.534-1.273,2.446-1.643c0.446-0.18,1.112-0.395,1.748-0.166
			c0.151,0.054,0.231,0.221,0.175,0.373c-0.054,0.151-0.22,0.231-0.373,0.177c-0.341-0.123-0.763-0.072-1.33,0.157
			c-0.837,0.34-1.614,0.862-2.248,1.51c-0.468,0.48-0.761,0.939-0.896,1.402c-0.155,0.539-0.075,1.105,0.214,1.477
			c0.303,0.393,0.867,0.548,1.257,0.344c0.144-0.074,0.319-0.019,0.394,0.125c0.075,0.144,0.019,0.319-0.125,0.393
			C232.092,75.667,231.868,75.717,231.641,75.717z"/>
	</g>
	<g>
		<path fill="none" stroke="#DB6856" stroke-width="4" stroke-linecap="round" stroke-linejoin="round" stroke-miterlimit="10" d="
			M234.104,74.57"/>
	</g>
	<g>
		
			<rect x="119.318" y="115.521" transform="matrix(0.0067 1 -1 0.0067 236.6424 -6.609)" fill="#9E9E9E" width="4.659" height="0.583"/>
	</g>
	<g>
		<path fill="#FF8570" d="M118.921,106.98c-0.001,0-0.002,0-0.003,0c-0.161-0.002-0.29-0.135-0.288-0.295
			c0.002-0.269,0.063-0.544,0.178-0.8c0.233-0.527,0.651-0.929,0.947-1.186c1.448-1.258,3.377-1.947,5.295-1.886
			c0.161,0.005,0.288,0.14,0.283,0.3c-0.005,0.162-0.139,0.287-0.301,0.283c-1.771-0.053-3.556,0.58-4.895,1.742
			c-0.408,0.355-0.654,0.658-0.797,0.983c-0.082,0.183-0.125,0.38-0.127,0.568C119.211,106.851,119.081,106.98,118.921,106.98z"/>
	</g>
	<g>
		<path fill="#99E7FF" d="M96.807,54.589c-0.108,0-0.208-0.061-0.259-0.159l-1.72-3.341c-0.074-0.143-0.017-0.318,0.125-0.392
			c0.144-0.073,0.32-0.018,0.393,0.125l1.25,2.427l0.316-4.043c0.011-0.151,0.135-0.267,0.286-0.27l8.219-0.125
			c0.157-0.001,0.293,0.126,0.296,0.287c0.002,0.162-0.127,0.294-0.288,0.297l-7.954,0.121l-0.374,4.802
			c-0.011,0.13-0.105,0.238-0.234,0.263C96.845,54.586,96.826,54.589,96.807,54.589z"/>
	</g>
	<g>
		<path fill="#99E7FF" d="M100.49,54.104c-0.08,0-0.158-0.032-0.216-0.096c-0.75-0.827-1.401-1.743-1.936-2.723
			c-0.078-0.141-0.025-0.318,0.116-0.395c0.142-0.077,0.319-0.025,0.396,0.117c0.513,0.939,1.137,1.817,1.856,2.609
			c0.108,0.12,0.099,0.304-0.02,0.412C100.631,54.079,100.56,54.104,100.49,54.104z"/>
	</g>
	<g>
		<path fill="#99E7FF" d="M98.594,54.613c-0.056,0-0.114-0.017-0.166-0.052c-0.132-0.091-0.166-0.273-0.074-0.405
			c0.307-0.446,0.66-1.052,1.001-1.639c0.347-0.595,0.706-1.211,1.025-1.676c0.091-0.132,0.273-0.166,0.406-0.075
			c0.132,0.092,0.166,0.273,0.075,0.406c-0.307,0.446-0.661,1.052-1.001,1.638c-0.347,0.596-0.706,1.211-1.026,1.676
			C98.777,54.569,98.687,54.613,98.594,54.613z"/>
	</g>
	<g>
		<path fill="#99E7FF" d="M103.294,52.61c-0.002,0-0.005,0-0.008,0l-1.701-0.048c-0.161-0.004-0.288-0.139-0.283-0.3
			c0.004-0.161,0.139-0.285,0.3-0.283l1.701,0.048c0.161,0.004,0.288,0.14,0.283,0.3C103.581,52.485,103.451,52.61,103.294,52.61z"
			/>
	</g>
	<g>
		<path fill="#99E7FF" d="M105.563,54.155c-0.666,0-1.336-0.349-1.668-0.937c-0.46-0.813-0.195-1.944,0.578-2.468
			c0.772-0.525,1.92-0.355,2.507,0.372c0.226,0.279,0.349,0.606,0.347,0.921c-0.002,0.383-0.201,0.747-0.507,0.927
			c-0.253,0.148-0.558,0.161-0.81,0.053c-0.077,0.066-0.17,0.117-0.274,0.148c-0.257,0.078-0.534,0.024-0.724-0.14
			c-0.158-0.139-0.253-0.338-0.268-0.564c-0.016-0.244,0.065-0.484,0.221-0.662c0.263-0.297,0.719-0.414,1.134-0.289
			c0.154,0.046,0.242,0.208,0.195,0.362c-0.046,0.155-0.209,0.242-0.363,0.196c-0.198-0.06-0.416-0.011-0.529,0.117
			c-0.052,0.06-0.081,0.151-0.075,0.237c0.002,0.041,0.015,0.114,0.069,0.163c0.038,0.032,0.109,0.041,0.172,0.022
			c0.037-0.011,0.08-0.035,0.089-0.069c0.029-0.104,0.111-0.183,0.216-0.208c0.105-0.023,0.214,0.012,0.285,0.093
			c0.077,0.089,0.249,0.107,0.367,0.038c0.131-0.077,0.218-0.248,0.219-0.427c0.001-0.18-0.076-0.375-0.217-0.552
			c-0.397-0.491-1.203-0.61-1.726-0.255c-0.522,0.354-0.708,1.148-0.397,1.698c0.311,0.55,1.087,0.8,1.661,0.536
			c0.146-0.067,0.319-0.003,0.386,0.143c0.067,0.146,0.004,0.319-0.142,0.387C106.072,54.104,105.817,54.155,105.563,54.155z"/>
	</g>
	<g>
		<path fill="#99E7FF" d="M109.952,59.639h-5.165c-0.161,0-0.292-0.131-0.292-0.292c0-0.161,0.131-0.292,0.292-0.292h5.165
			c0.162,0,0.292,0.131,0.292,0.292C110.243,59.508,110.113,59.639,109.952,59.639z"/>
	</g>
	<g>
		<path fill="#99E7FF" d="M106.338,57.477c-0.105,0-0.203-0.056-0.254-0.148c-0.051-0.093-0.049-0.206,0.006-0.296l1.125-1.811
			c0.084-0.137,0.264-0.179,0.401-0.095c0.137,0.086,0.179,0.265,0.094,0.402l-0.846,1.362l1.389-0.011c0.001,0,0.001,0,0.002,0
			c0.161,0,0.291,0.128,0.292,0.289c0.001,0.161-0.128,0.293-0.29,0.294l-1.917,0.014C106.34,57.477,106.339,57.477,106.338,57.477z
			"/>
	</g>
	<g>
		<path fill="#99E7FF" d="M108.409,58.328c-0.161,0-0.292-0.129-0.292-0.291v-1.695c0-0.161,0.131-0.292,0.292-0.292
			c0.161,0,0.292,0.131,0.292,0.292v1.695C108.7,58.199,108.57,58.328,108.409,58.328z"/>
	</g>
	<g>
		<path fill="#99E7FF" d="M107.486,63.614c-0.036,0-0.07,0-0.105,0c-0.668-0.006-1.076-0.21-1.212-0.61
			c-0.052-0.151,0.029-0.317,0.182-0.37c0.152-0.052,0.317,0.03,0.37,0.181c0.063,0.184,0.443,0.213,0.666,0.215
			c0.252,0.002,0.514,0.003,0.718-0.095c0.141-0.068,0.271-0.228,0.239-0.359c-0.022-0.093-0.129-0.182-0.264-0.22
			c-0.166-0.048-0.367-0.033-0.561-0.02c-0.141,0.01-0.267-0.08-0.303-0.216c-0.035-0.135,0.03-0.278,0.158-0.337
			c0.222-0.105,0.452-0.214,0.593-0.383c0.111-0.133,0.146-0.323,0.078-0.422c-0.061-0.088-0.216-0.132-0.37-0.104
			c-0.191,0.035-0.38,0.154-0.563,0.27c-0.136,0.086-0.316,0.045-0.402-0.091c-0.086-0.136-0.045-0.316,0.091-0.402
			c0.22-0.138,0.468-0.294,0.771-0.349c0.386-0.07,0.76,0.066,0.954,0.347c0.221,0.321,0.176,0.784-0.11,1.125
			c-0.018,0.022-0.037,0.043-0.056,0.063c0.281,0.117,0.488,0.339,0.552,0.601c0.109,0.446-0.195,0.854-0.553,1.025
			C108.069,63.599,107.755,63.614,107.486,63.614z"/>
	</g>
	<g>
		<path fill="#99E7FF" d="M94.124,59.438c-0.03,0-0.061-0.005-0.092-0.015c-0.988-0.328-1.88-0.908-2.58-1.68
			c-0.108-0.119-0.099-0.303,0.021-0.412c0.119-0.108,0.303-0.099,0.412,0.021c0.632,0.696,1.438,1.221,2.331,1.518
			c0.153,0.051,0.235,0.216,0.185,0.369C94.36,59.361,94.246,59.438,94.124,59.438z"/>
	</g>
	<g>
		<path fill="#99E7FF" d="M91.654,60.229c-0.057,0-0.113-0.016-0.164-0.05c-0.132-0.09-0.168-0.271-0.077-0.405l1.814-2.675
			c0.091-0.133,0.272-0.168,0.405-0.077c0.134,0.09,0.168,0.271,0.078,0.404l-1.814,2.675
			C91.839,60.185,91.748,60.229,91.654,60.229z"/>
	</g>
</g>
</svg>
