<?xml version="1.0" encoding="utf-8"?>
<!-- Generator: Adobe Illustrator 16.0.0, SVG Export Plug-In . SVG Version: 6.00 Build 0)  -->
<!DOCTYPE svg PUBLIC "-//W3C//DTD SVG 1.1//EN" "http://www.w3.org/Graphics/SVG/1.1/DTD/svg11.dtd">
<svg version="1.1" id="Layer_1" xmlns="http://www.w3.org/2000/svg" xmlns:xlink="http://www.w3.org/1999/xlink" x="0px" y="0px"
	 width="250px" height="250px" viewBox="0 0 250 250" enable-background="new 0 0 250 250" xml:space="preserve">
<path fill-rule="evenodd" clip-rule="evenodd" fill="#4C7F76" d="M240.938,114.641c-2.153,6.877-7.399,8.956-13.964,9.044
	c-7.62,0.102-7.619,0.119-7.618,7.871c0,16.163,0.15,32.329-0.1,48.489c-0.068,4.438,0.905,6.525,5.7,5.827
	c4.611-0.672,6.07,1.771,6.135,6.172c0.201,13.465-5.418,19.429-18.804,19.43c-61.345,0.006-122.689-0.137-184.032,0.156
	c-9.124,0.043-15.864-2.468-20.202-10.586c0-4.68,0-9.359,0-14.039c1.087-0.358,2.155-0.816,3.268-1.058
	c2.608-0.563,6.428,1.198,7.658-0.988c1.351-2.402,0.698-6.003,0.701-9.081c0.029-38.958,0.011-77.916,0.023-116.874
	c0.004-12.586,5.55-18.121,18.144-18.123c54.346-0.008,108.692-0.007,163.038,0c12.708,0.001,18.275,5.167,18.336,17.92
	c0.021,4.783,2.344,4.842,5.758,4.694c7.06-0.308,13.235,1.125,15.907,8.807c-0.04,1,0.16,1.885,1.149,2.391
	c0,12.479,0,24.958,0,37.437C240.993,112.671,240.854,113.607,240.938,114.641z M119.565,47.896
	c-27.296,0-54.592-0.011-81.888,0.007c-8.388,0.005-10.966,2.495-10.97,10.649c-0.019,40.554,0.088,81.108-0.134,121.661
	c-0.027,4.908,1.647,5.646,5.966,5.614c24.955-0.183,49.911-0.063,74.867-0.117c3.856-0.01,7.546-0.319,8.205,5.001
	c0.237,1.914,2.048,2.923,3.911,2.894c1.849-0.028,3.743-1.086,3.917-2.933c0.476-5.036,3.782-4.979,7.526-4.968
	c25.347,0.065,50.692-0.045,76.038,0.115c4,0.025,5.35-1.004,5.295-5.185c-0.226-17.154-0.239-34.315,0.009-51.47
	c0.063-4.321-1.008-5.662-5.478-5.6c-18.323,0.256-36.653,0.131-54.98,0.083c-2.805-0.007-6.341,1.027-7.674-2.548
	c-1.243-3.338,1.952-5.069,4.001-6.375c13.191-8.414,17.749-20.028,15.848-35.532c-1.27-10.355,4.962-15.622,15.643-15.704
	c8.384-0.064,16.776,0.205,25.146-0.139c2.61-0.107,7.067,2.607,7.427-3.406c0.428-7.154-1.826-11.182-7.285-11.95
	c-1.532-0.215-3.114-0.095-4.673-0.095C173.377,47.895,146.471,47.896,119.565,47.896z M157.522,116.625
	c24.065,0,47.533,0.098,71-0.083c4.709-0.036,6.618-3.302,6.575-7.922c-0.092-9.534-0.011-19.069-0.035-28.604
	c-0.021-7.666-1.89-9.545-9.744-9.572c-14.011-0.05-28.021-0.013-42.03-0.013c-11.582,0-13.138,0.985-12.347,12.65
	c0.883,13.031-0.233,24.672-12.845,32.029C157.967,115.186,157.953,115.462,157.522,116.625z M119.568,204.455
	c31.17,0,62.341-0.01,93.511,0.017c2.968,0.002,5.853-0.029,8.213-2.219c2.39-2.219,3.177-5.127,2.259-7.996
	c-0.87-2.715-3.704-1.37-5.613-1.374c-27.469-0.071-54.938-0.02-82.406-0.013c-2.691,0.001-4.898-0.053-6.953,2.758
	c-5.176,7.081-12.975,6.823-18.546-0.234c-1.156-1.465-2.038-2.555-4.118-2.553c-29.221,0.036-58.443,0.021-87.666-0.069
	c-2.595-0.008-3.344,0.948-3.267,3.416c0.166,5.301,3.718,8.251,10.491,8.256C56.837,204.467,88.202,204.455,119.568,204.455z"/>
<path fill-rule="evenodd" clip-rule="evenodd" fill="#56867E" d="M242.037,74.694c-0.989-0.506-1.189-1.391-1.149-2.391
	c0.383,0.017,0.767,0.034,1.149,0.051C242.037,73.134,242.037,73.914,242.037,74.694z"/>
<path fill-rule="evenodd" clip-rule="evenodd" fill="#56867E" d="M240.938,114.641c-0.084-1.034,0.055-1.97,1.099-2.51
	c0,0.78,0,1.56,0,2.34l-0.565-0.019L240.938,114.641z"/>
<path fill-rule="evenodd" clip-rule="evenodd" fill="#4E8077" d="M120.946,132.463c-7.085,0.193-12.363-0.082-17.492,1.464
	c-9.269,2.792-13.805,8.792-13.851,18.402c-0.018,3.897,0.067,7.798-0.094,11.689c-0.078,1.901-1.183,3.414-3.225,3.563
	c-2.008,0.147-3.592-1.017-3.597-3.016c-0.019-8.103-1.662-16.37,2.255-24.126c3.258-6.452,8.461-10.701,15.214-12.807
	c3.441-1.072,4.669-1.381,3.051-5.807c-2.968-8.118-2.68-16.956-0.215-25.246c2.203-7.409,10.14-11.658,18.125-10.876
	c8.477,0.83,15.032,6.374,15.789,14.601c0.724,7.86,2.03,16.001-1.904,23.514c-1.234,2.356,0.264,2.528,1.715,3.143
	c17.137,7.266,23.545,19.374,19.769,37.176c-0.416,1.963-1.403,3.348-3.371,3.408c-2.306,0.071-3.548-1.394-3.589-3.689
	c-0.063-3.507-0.037-7.014-0.041-10.521c-0.011-11.479-6.127-18.653-17.546-20.188C127.707,132.58,123.395,132.604,120.946,132.463z
	 M130.194,109.373c0-2.134,0.099-4.273-0.019-6.401c-0.357-6.468-4.552-10.419-10.873-10.346
	c-6.207,0.071-10.428,4.21-10.643,10.646c-0.136,4.069-0.178,8.154,0.02,12.218c0.296,6.101,4.46,9.874,10.636,9.938
	c6.292,0.064,10.378-3.522,10.836-9.655C130.312,113.65,130.178,111.506,130.194,109.373z"/>
<path fill-rule="evenodd" clip-rule="evenodd" fill="#53847B" d="M119.812,53.917c2.386,0.002,4.606-0.324,6.223,1.456
	c1.393,1.534,1.222,3.172-0.193,4.607c-1.687,1.709-11.037,1.683-12.688-0.028c-1.4-1.45-1.579-3.109-0.155-4.599
	C114.985,53.275,117.664,54.081,119.812,53.917z"/>
</svg>
