<?xml version="1.0" encoding="utf-8"?>
<!-- Generator: Adobe Illustrator 16.0.0, SVG Export Plug-In . SVG Version: 6.00 Build 0)  -->
<!DOCTYPE svg PUBLIC "-//W3C//DTD SVG 1.1//EN" "http://www.w3.org/Graphics/SVG/1.1/DTD/svg11.dtd">
<svg version="1.1" id="Layer_1" xmlns="http://www.w3.org/2000/svg" xmlns:xlink="http://www.w3.org/1999/xlink" x="0px" y="0px"
	 width="200px" height="200px" viewBox="0 0 200 200" enable-background="new 0 0 200 200" xml:space="preserve">
<path display="none" fill="#E76481" d="M30.881,188.061c-2.69-1.308-3.527-3.471-3.489-6.408c0.123-9.855,0.012-19.715,0.055-29.572
	c0.068-15.439,10.083-28.764,24.344-32.375c8.477-2.146,16.976-4.212,25.471-6.294c1.479-0.361,2.857-0.858,3.771-2.169
	c0.184-0.264,0.525-0.541,0.34-0.908c-0.187-0.37-0.601-0.225-0.921-0.229c-2.46-0.047-4.941,0.186-7.374-0.301
	c-8.735-1.738-14.478-8.945-14.524-18.26c-0.039-8.254-0.022-16.508,0.011-24.761c0.004-1.05-0.077-1.532-1.386-1.675
	c-4.671-0.511-7.407-4.273-6.708-9.011c0.127-0.87,0.016-1.429-0.674-2.081c-2.318-2.191-3.115-4.918-2.123-7.98
	c1.019-3.141,3.33-4.833,6.577-5.199c0.79-0.088,1.144-0.358,1.46-1.116c1.249-2.99,3.507-4.75,6.783-5.017
	c0.708-0.06,1.1-0.276,1.461-0.898c7.131-12.275,17.755-19.413,31.779-21.518c0.236-0.035,0.441-0.077,0.503-0.348
	c2.982,0,5.962,0,8.945,0c2.547,0.721,5.213,0.871,7.739,1.705c16.134,5.329,26.127,16.206,29.786,32.845
	c0.771,3.498,0.827,7.047,0.846,10.596c0.031,7.108,0.01,14.216,0.01,21.323c0,0.401,0.019,0.803-0.006,1.203
	c-0.102,1.9-1.058,3.033-2.572,3.063c-1.574,0.031-2.61-1.137-2.653-3.145c-0.054-2.289-0.013-4.579-0.013-7.046
	c-1.348,0.609-2.492,1.345-3.821,1.607c-0.565,0.112-0.642,0.589-0.729,1.042c-1.252,6.229-4.773,11.182-8.867,15.816
	c-0.381,0.429-0.728,0.916-1.184,1.244c-3.303,2.368-4.181,5.572-3.798,9.501c0.306,3.162,0.063,3.117,3.252,3.201
	c3.925,0.103,7.654-0.305,10.759-3.072c2.504-2.232,3.997-4.961,4.279-8.313c0.216-2.574,1.171-3.849,2.854-3.756
	c1.799,0.101,2.576,1.471,2.371,4.18c-0.654,8.572-7.988,15.696-16.611,16.098c-1.771,0.078-3.551,0.063-5.329,0.063
	c-0.882-0.003-0.997,0.285-0.523,1c0.853,1.28,2.104,1.887,3.531,2.238c8.435,2.088,16.86,4.206,25.302,6.257
	c13.004,3.157,23.146,14.74,24.575,28.025c0.499,4.635,0.231,9.272,0.274,13.909c0.063,6.877-0.061,13.757,0.053,20.635
	c0.047,2.943-1.079,4.884-3.822,5.9C124.217,188.061,77.548,188.061,30.881,188.061z M75.9,182.873
	c6.994,0,13.987-0.021,20.979,0.023c1.111,0.006,1.595-0.142,1.583-1.441c-0.063-8.084-0.042-16.165-0.018-24.248
	c0.001-0.848-0.262-1.535-0.689-2.243c-6.948-11.504-13.893-23.011-20.789-34.546c-0.636-1.063-1.228-1.322-2.443-1.008
	c-6.696,1.732-13.411,3.395-20.133,5.023c-12.913,3.137-21.582,13.851-21.736,27.164c-0.115,9.973-0.002,19.946-0.057,29.922
	c-0.007,1.199,0.412,1.391,1.467,1.377c4.126-0.058,8.257-0.102,12.381,0.019c1.497,0.044,1.771-0.429,1.743-1.812
	c-0.092-4.412-0.047-8.828-0.027-13.24c0.006-1.512,0.566-2.715,2.198-3.043c1.215-0.243,2.133,0.322,2.711,1.357
	c0.369,0.663,0.308,1.442,0.308,2.188c0,4.241,0.06,8.483-0.035,12.726c-0.031,1.391,0.279,1.833,1.748,1.817
	C62.028,182.828,68.965,182.873,75.9,182.873z M126.248,182.873c6.993,0,13.988-0.039,20.98,0.036
	c1.367,0.015,1.676-0.363,1.67-1.688c-0.061-10.262-0.035-20.522-0.029-30.785c0.002-2.06,0.925-3.25,2.479-3.285
	c1.553-0.031,2.543,1.175,2.604,3.187c0.013,0.399,0.003,0.804,0.003,1.203c0,9.978,0.02,19.95-0.025,29.925
	c-0.004,1.104,0.248,1.459,1.405,1.438c4.298-0.07,8.601-0.053,12.897-0.008c0.939,0.008,1.272-0.211,1.271-1.221
	c-0.047-10.316,0.115-20.641-0.096-30.953c-0.236-11.596-7.818-22.016-18.768-25.391c-7.8-2.405-15.836-4.055-23.757-6.081
	c-1.046-0.265-1.271,0.444-1.641,1.063c-6.97,11.56-13.935,23.125-20.912,34.68c-0.429,0.707-0.671,1.404-0.668,2.248
	c0.021,8.084,0.037,16.168-0.017,24.252c-0.006,1.158,0.346,1.41,1.443,1.406C112.145,182.852,119.195,182.873,126.248,182.873z
	 M65.626,64.918c0.14,2.449,1.192,3.68,3.416,4.106c3.051,0.584,3.64,1.193,4.238,4.265c0.195,1.006,0.344,2.05,0.73,2.989
	c3.302,8.038,8.629,14.407,16.19,18.705c4.346,2.47,9.066,3.742,14.181,2.737c7.207-1.416,12.711-5.454,17.314-10.977
	c3.517-4.222,6.566-8.644,7.279-14.306c0.217-1.723,1.258-3.015,3.084-3.208c3.822-0.403,4.738-2.614,4.527-5.771
	c-0.04-0.628,0.016-1.261-0.01-1.891c-0.1-2.758-1.436-4.117-4.182-4.475c-9.082-1.185-16.602-5.215-22.264-12.48
	c-0.716-0.919-1.08-0.922-1.926-0.237c-9.239,7.476-19.725,11.868-31.644,12.641c-0.686,0.044-0.919,0.218-1.05,0.958
	C74.542,63.486,71.413,65.692,65.626,64.918z M87.301,99.35c0,3.243,0.062,6.095-0.015,8.944c-0.098,3.613-1.672,6.532-4.688,8.502
	c-1.084,0.71-1.165,1.086-0.509,2.161c6.095,10.004,12.123,20.046,18.179,30.072c0.221,0.365,0.32,0.853,0.8,1.022
	c0.108-0.079,0.229-0.118,0.277-0.202c6.317-10.47,12.625-20.938,18.947-31.404c0.357-0.588,0.434-0.881-0.273-1.313
	c-3.709-2.258-5.308-5.659-5.24-9.94c0.039-2.492,0.009-4.984,0.009-7.846C105.598,104.471,96.583,104.456,87.301,99.35z
	 M77.948,51.619c0.776-0.055,1.457-0.032,2.106-0.163c2.127-0.427,4.282-0.78,6.359-1.391c14.757-4.343,25.215-14.111,33.462-26.648
	c0.379-0.575,0.494-0.932-0.279-1.284c-1.558-0.708-3.031-1.613-4.611-2.25c-16.313-6.568-34.98-0.825-44.854,13.769
	c-1.12,1.655-2.741,3.282-0.444,5.242c0.114,0.097,0.144,0.309,0.186,0.474c0.256,1.017,0.868,1.362,1.946,1.48
	c4.288,0.471,7.209,4.388,6.582,8.666C78.301,50.175,78.121,50.823,77.948,51.619z M124.656,25.602
	c-3.043,4.804-6.381,9.222-10.333,13.132c-0.998,0.989-0.923,1.663-0.134,2.69c3.531,4.609,8.254,7.398,13.6,9.429
	c3.363,1.278,7.225,0.482,10.525,3.057C137.84,42.221,133.268,33.002,124.656,25.602z M63.895,72.437
	c0,7.14-0.147,14.107,0.055,21.065c0.123,4.225,2.45,7.367,6.012,9.614c3.593,2.271,7.601,1.681,11.517,1.767
	c0.713,0.016,0.618-0.456,0.655-0.915c0.389-4.751,0.404-9.367-4.304-12.339c-0.094-0.06-0.163-0.16-0.238-0.247
	c-4.218-4.869-8.125-9.914-9.33-16.487c-0.079-0.427-0.271-0.75-0.727-0.841C66.248,73.796,65.115,73.152,63.895,72.437z
	 M55.728,45.985c-1.81-0.056-2.973,0.674-3.167,1.88c-0.233,1.45,0.462,2.412,1.762,2.985c0.26,0.114,0.534,0.196,0.799,0.301
	c1.854,0.747,2.373,2.29,1.352,4.004c-0.263,0.438-0.624,0.853-0.761,1.331c-0.316,1.1-0.288,2.205,0.74,2.957
	c1.061,0.777,2.167,0.609,3.181-0.132c0.411-0.301,0.723-0.733,1.1-1.083c1.364-1.267,3.088-1.247,4.446,0.049
	c0.249,0.237,0.448,0.525,0.702,0.754c1.1,0.991,2.344,1.332,3.56,0.34c1.144-0.932,1.092-2.187,0.449-3.425
	c-0.183-0.352-0.484-0.641-0.679-0.988c-0.809-1.438-0.274-3.038,1.229-3.736c2.483-1.155,3.146-1.987,2.753-3.476
	c-0.29-1.096-1.651-2.257-4.165-1.62c-1.686,0.428-3.15-0.8-3.457-2.521c-0.1-0.563-0.13-1.144-0.279-1.692
	c-0.338-1.241-1.19-2.023-2.467-1.983c-1.264,0.038-2.092,0.838-2.377,2.1c-0.125,0.556-0.154,1.134-0.269,1.695
	c-0.328,1.621-1.754,2.651-3.395,2.454C56.334,46.125,55.888,46.015,55.728,45.985z"/>
<g display="none">
	<path display="inline" fill="#E76481" d="M99.82,15.774c10.885,0,21.772-0.005,32.657,0.002c6.037,0.004,9.936,3.783,9.944,9.842
		c0.039,21.836,0.038,43.672,0.001,65.508c-0.011,6.064-3.902,9.842-9.941,9.843c-21.836,0.006-43.67,0.006-65.506-0.001
		c-5.912-0.001-9.835-3.802-9.848-9.744c-0.041-21.899-0.041-43.799,0-65.699c0.011-5.941,3.935-9.744,9.845-9.749
		C77.92,15.768,88.869,15.774,99.82,15.774z M99.644,80.671c11.588,0,23.178-0.031,34.767,0.038
		c1.472,0.009,1.763-0.405,1.759-1.803c-0.05-17.702-0.027-35.403-0.033-53.105c-0.003-2.876-1.011-3.875-3.912-3.885
		c-4.457-0.016-8.916,0.053-13.371-0.039c-1.396-0.029-1.838,0.281-1.817,1.761c0.087,6.622,0.034,13.245,0.039,19.867
		c0,1.158,0.108,2.535-1.019,3.111c-3.132,1.598-6.164,4.174-10.027,1.796c-1.012-0.625-1.971-0.622-3.01-0.002
		c-2.133,1.275-4.308,1.386-6.463,0.018c-1.001-0.636-1.975-0.667-3.004-0.018c-2.211,1.392-4.425,1.307-6.635-0.051
		c-0.426-0.261-0.924-0.418-1.406-0.572c-2.257-0.719-3.122-2.2-3.077-4.603c0.12-6.493,0.003-12.989,0.073-19.483
		c0.014-1.368-0.247-1.867-1.749-1.83c-4.456,0.112-8.915,0.031-13.372,0.044c-3.001,0.008-3.974,0.991-3.975,4.01
		c-0.004,17.637,0.018,35.275-0.038,52.914c-0.006,1.517,0.403,1.875,1.887,1.867C76.72,80.642,88.182,80.671,99.644,80.671z
		 M99.854,86.827c-10.946,0-21.892,0-32.836,0c-3.617,0-3.617,0-3.61,3.66c0.006,3.504,0.854,4.347,4.401,4.347
		c20.682,0.001,41.363,0,62.042,0c6.11,0,6.266-0.207,6.323-6.283c0.017-1.436-0.348-1.769-1.769-1.761
		C122.891,86.855,111.37,86.827,99.854,86.827z M99.768,21.911c-3.179,0-6.361,0.054-9.538-0.028
		c-1.217-0.032-1.609,0.265-1.593,1.548c0.074,5.659,0.031,11.319,0.032,16.979c0,2.551,0.818,3.171,3.051,1.98
		c2.294-1.224,4.41-1.305,6.643,0.027c0.619,0.369,1.354,0.822,2.143,0.322c2.668-1.696,5.28-1.604,8.03-0.067
		c1.325,0.741,2.329-0.02,2.333-1.507c0.015-5.978-0.021-11.956,0.033-17.933c0.01-1.118-0.363-1.364-1.405-1.345
		C106.256,21.95,103.012,21.912,99.768,21.911z"/>
	<path display="inline" fill="#E76481" d="M132.84,184.643c-7.447,0-14.9,0.006-22.349-0.002c-2.759-0.002-3.829-1.054-3.834-3.764
		c-0.011-5.986-0.009-11.969-0.001-17.954c0.004-2.753,1.064-3.94,3.753-3.823c1.593,0.071,2.005-0.365,1.973-1.967
		c-0.104-5.091-0.127-10.189,0.011-15.279c0.349-12.709,11.034-24.23,23.734-25.573c2.449-0.263,4.396-1.022,6.148-2.855
		c3.033-3.168,6.344-6.073,9.516-9.112c1.73-1.655,3.632-2.98,6.053-3.379c0.704-0.115,1.076-0.5,1.336-1.166
		c0.577-1.471,1.203-2.93,1.879-4.361c1.02-2.161,1.113-4.241,0.408-6.61c-3.238-10.892,1.963-22.521,12.166-27.603
		c3.615-1.801,7.174-0.063,7.914,3.934c2.653,14.323,3.605,28.754,2.748,43.306c-0.259,4.383-0.667,8.744-1.168,13.106
		c-0.465,4.039-2.168,7.372-5.041,10.188c-7.87,7.705-15.727,15.429-23.581,23.146c-0.901,0.889-1.815,1.75-2.103,3.094
		c-0.185,0.855,0.015,1.057,0.886,1.114c5.653,0.379,5.665,0.412,5.665,6.192c0,5.156,0.01,10.314-0.004,15.474
		c-0.01,2.79-1.137,3.894-3.952,3.896C147.611,184.646,140.227,184.643,132.84,184.643z M175.65,67.296
		c-6.746,3.314-10.504,11.715-8.313,19.187c1.265,4.301,0.996,8.231-0.979,12.153c-0.256,0.507-0.366,1.094-0.66,1.574
		c-0.645,1.042-0.524,1.642,0.601,2.384c2.188,1.448,3.249,3.647,3.418,6.29c0.21,3.29-0.854,6.119-2.978,8.582
		c-1.452,1.687-2.94,3.345-4.42,5.013c-3.504,3.951-7.006,7.905-10.52,11.852c-0.895,1.005-1.939,1.646-3.361,1.21
		c-1.196-0.366-1.943-1.162-2.229-2.378c-0.314-1.346,0.391-2.305,1.214-3.23c4.772-5.381,9.526-10.775,14.312-16.146
		c0.869-0.979,1.52-2.049,1.787-3.313c0.399-1.887-0.395-3.022-2.277-3.479c-2.016-0.486-3.586,0.299-4.994,1.641
		c-3.598,3.422-7.271,6.768-10.779,10.278c-2.147,2.153-4.639,3.192-7.617,3.417c-8.761,0.667-16.461,7.029-18.578,15.618
		c-1.652,6.694-0.482,13.563-0.795,20.348c-0.035,0.767,0.422,0.767,0.974,0.767c8.528-0.006,17.063-0.011,25.592,0.01
		c0.706,0.004,0.952-0.17,1.022-0.932c0.291-3.048,1.772-5.465,3.959-7.586c7.443-7.227,14.725-14.628,22.275-21.74
		c3.125-2.94,4.621-6.276,5.045-10.472C179.064,101.287,178.693,84.32,175.65,67.296z M132.628,178.51
		c6.177,0,12.354-0.037,18.529,0.033c1.278,0.016,1.614-0.359,1.586-1.596c-0.075-3.438-0.056-6.877-0.009-10.313
		c0.014-1.014-0.19-1.454-1.353-1.45c-12.415,0.043-24.83,0.041-37.245,0.002c-1.117-0.004-1.386,0.354-1.369,1.41
		c0.063,3.438,0.099,6.879-0.014,10.315c-0.045,1.412,0.458,1.644,1.729,1.628C120.529,178.477,126.58,178.51,132.628,178.51z"/>
	<path display="inline" fill="#E76481" d="M66.738,184.643c-7.385,0-14.771,0.004-22.155-0.002c-2.912-0.002-3.984-1.089-3.988-4.05
		c-0.009-5.856-0.011-11.716,0.001-17.573c0.005-2.826,1.121-3.897,3.902-3.98c0.897-0.028,2.271,0.55,2.604-0.326
		c0.432-1.141-0.475-2.273-1.359-3.146c-6.401-6.291-12.811-12.578-19.217-18.864c-1.636-1.606-3.226-3.263-4.914-4.812
		c-3.588-3.289-4.993-7.494-5.49-12.199c-1.218-11.482-1.564-22.981-0.732-34.5c0.492-6.784,1.298-13.536,2.621-20.214
		c0.756-3.821,4.337-5.535,7.861-3.798c9.969,4.912,15.223,16.052,12.345,26.829c-0.832,3.109-0.699,5.828,0.782,8.585
		c0.298,0.556,0.561,1.143,0.746,1.745c0.5,1.614,1.338,2.672,3.194,2.97c1.784,0.285,3.202,1.479,4.508,2.719
		c3.646,3.465,7.313,6.906,10.93,10.399c0.952,0.923,1.928,1.444,3.304,1.597c13.564,1.492,22.863,10.125,25.272,23.524
		c0.632,3.519,0.19,7.116,0.248,10.677c0.038,2.481,0.052,4.969-0.015,7.448c-0.027,1.032,0.209,1.408,1.338,1.42
		c3.651,0.038,4.367,0.847,4.368,4.563c0,5.729,0.005,11.461-0.003,17.189c-0.005,2.729-1.072,3.797-3.801,3.801
		C81.637,184.648,74.188,184.643,66.738,184.643z M23.891,67.139c-3.104,17.965-3.61,35.628-1.362,53.372
		c0.344,2.722,1.379,4.949,3.325,6.851c8.014,7.832,15.985,15.707,24.004,23.531c1.991,1.944,3.269,4.229,3.584,6.967
		c0.116,0.998,0.406,1.225,1.352,1.222c8.341-0.036,16.681-0.038,25.022,0.002c1.004,0.004,1.275-0.276,1.265-1.272
		c-0.049-5.094,0.072-10.188-0.047-15.278c-0.242-10.358-8.953-19.457-19.266-20.195c-2.976-0.212-5.484-1.214-7.641-3.366
		c-3.512-3.509-7.187-6.853-10.774-10.287c-0.992-0.949-2.086-1.646-3.47-1.828c-3.034-0.396-4.62,1.57-3.62,4.449
		c0.299,0.861,0.772,1.594,1.364,2.266c0.883,1.003,1.769,2.006,2.656,3.005c4.009,4.524,8.036,9.036,12.023,13.584
		c1.836,2.094,1.175,4.768-1.297,5.423c-1.515,0.398-2.542-0.412-3.468-1.46c-4.935-5.576-9.875-11.147-14.812-16.726
		c-0.806-0.912-1.453-1.933-1.951-3.035c-1.844-4.09-1.302-8.932,1.83-11.182c1.977-1.421,1.649-2.517,0.743-4.103
		c-0.25-0.436-0.375-0.941-0.584-1.401c-1.56-3.425-1.955-6.872-0.672-10.53c0.892-2.543,0.965-5.236,0.451-7.915
		C31.535,73.948,28.713,69.986,23.891,67.139z M66.936,165.21c-6.177,0-12.353,0.037-18.527-0.03
		c-1.262-0.014-1.636,0.334-1.609,1.588c0.077,3.502,0.062,7.004,0.006,10.506c-0.017,1.041,0.374,1.26,1.333,1.258
		c12.415-0.027,24.831-0.031,37.247,0.004c1.075,0.004,1.414-0.273,1.391-1.374c-0.068-3.438-0.094-6.878,0.009-10.313
		c0.042-1.373-0.39-1.683-1.706-1.668C79.034,165.25,72.984,165.21,66.936,165.21z"/>
	<path display="inline" fill="#E76481" d="M72.263,52.975c0,2.667,0.019,5.334-0.005,8.001c-0.019,2.09-1.181,3.336-3.044,3.339
		c-1.868,0.003-3.047-1.24-3.056-3.325c-0.021-5.333-0.024-10.667,0.002-16c0.01-2.063,1.24-3.285,3.134-3.243
		c1.789,0.04,2.938,1.252,2.962,3.227C72.288,47.642,72.263,50.308,72.263,52.975z"/>
	<path display="inline" fill="#E76481" d="M72.246,35.128c0,0.634,0.067,1.276-0.013,1.9c-0.192,1.485-1.537,2.586-3.055,2.575
		c-1.519-0.013-2.859-1.129-2.996-2.629c-0.098-1.07-0.068-2.156-0.025-3.232c0.071-1.774,1.31-3.012,2.979-3.05
		c1.742-0.039,3.036,1.242,3.125,3.105c0.021,0.442,0.003,0.888,0.003,1.332C72.259,35.128,72.252,35.128,72.246,35.128z"/>
</g>
<g display="none">
	<path display="inline" fill="#E76481" d="M61.138,135.117c-3.597-0.057-5.512-1.854-5.847-5.232
		c-0.104-1.035-0.814-1.025-1.512-1.166c-2.913-0.596-4.52-2.324-4.454-5.354c0.028-1.188-0.533-1.73-1.548-2.061
		c-2.797-0.902-3.934-2.883-3.576-5.729c0.155-1.223-0.329-1.836-1.365-2.451c-2.666-1.576-3.185-2.857-2.575-6.002
		c0.226-1.154,0.069-1.939-0.962-2.652c-2.377-1.641-3.013-3.91-1.792-6.515c0.559-1.196,0.187-1.837-0.611-2.684
		c-2.209-2.344-2.408-3.636-0.931-6.468c0.588-1.127,0.637-1.887-0.161-2.98c-1.864-2.547-1.854-3.995-0.017-6.549
		c0.774-1.076,0.792-1.856,0.188-3.007c-1.493-2.842-1.327-4.108,0.924-6.458c0.935-0.975,1.003-1.736,0.555-2.94
		c-1.067-2.861-0.651-4.347,1.854-6.277c1.009-0.777,1.174-1.499,0.956-2.637c-0.623-3.257-0.122-4.441,2.772-6.116
		c1.015-0.587,1.291-1.251,1.158-2.305c-0.378-2.983,0.883-5.001,3.749-5.864c1.231-0.37,1.286-1.196,1.396-2.191
		c0.372-3.35,1.114-4.272,4.438-5.038c1.214-0.279,1.396-0.908,1.625-1.939c0.694-3.129,1.856-4.137,5.103-4.382
		c1.067-0.082,1.513-0.495,1.889-1.402c1.466-3.527,2.119-4.016,5.674-3.876c1.174,0.046,1.653-0.379,2.17-1.333
		c1.576-2.902,2.929-3.598,6.078-2.827c1.243,0.305,1.665-0.115,2.302-0.953c2.1-2.758,3.091-3.064,6.388-1.885
		c0.986,0.353,1.549,0.256,2.308-0.467c2.721-2.588,3.595-2.738,6.762-1.018c0.953,0.517,1.492,0.431,2.322-0.169
		c2.832-2.054,4.008-2.092,6.661-0.086c1.01,0.761,1.684,0.704,2.731,0.107c2.683-1.521,4.044-1.333,6.205,0.87
		c0.92,0.937,1.601,1.173,2.886,0.652c2.758-1.114,4.143-0.66,5.98,1.871c0.772,1.063,1.39,1.34,2.725,1.017
		c2.801-0.679,4.335,0.082,5.695,2.739c0.609,1.194,1.238,1.638,2.563,1.447c2.608-0.377,4.391,0.865,5.16,3.293
		c0.454,1.434,1.096,2.047,2.646,2.052c2.547,0.007,3.947,1.601,4.423,3.962c0.276,1.374,0.643,2.179,2.297,2.436
		c2.374,0.368,3.787,2.007,3.846,4.526c0.032,1.41,0.386,2.322,1.948,2.818c2.304,0.733,3.503,2.492,3.24,4.995
		c-0.154,1.479,0.104,2.462,1.639,3.23c2.139,1.071,3.096,2.997,2.376,5.442c-0.411,1.396-0.149,2.332,1.126,3.234
		c2.061,1.458,2.754,3.556,1.643,5.922c-0.662,1.413-0.313,2.309,0.742,3.324c1.848,1.771,2.17,3.889,0.771,6.094
		c-0.739,1.168-0.766,2.084,0.17,3.206c1.714,2.056,1.656,4.284,0.031,6.376c-0.764,0.983-1.002,1.727-0.34,2.962
		c1.595,2.988,1.397,4.217-0.938,6.658c-0.864,0.904-0.933,1.585-0.517,2.715c1.103,2.983,0.75,4.306-1.719,6.313
		c-1.021,0.827-1.4,1.618-1.022,2.858c0.802,2.625-0.14,4.627-2.496,5.821c-1.324,0.675-1.608,1.552-1.468,2.873
		c0.289,2.688-0.924,4.508-3.459,5.336c-1.282,0.418-1.701,1.166-1.709,2.455c-0.019,2.694-1.422,4.377-4.074,4.854
		c-1.285,0.231-1.857,0.771-2.021,2.131c-0.176,1.433-0.746,2.988-2.218,3.507c-1.767,0.618-1.403,1.34-0.702,2.571
		c2.446,4.313,4.769,8.694,7.19,13.021c0.882,1.576,1.267,3.08-0.535,4.162c-1.921,1.146-2.937-0.178-3.771-1.693
		c-2.508-4.553-5.021-9.104-7.619-13.818c-1.442,1.502-3.129,2.27-5.141,1.85c-0.994-0.207-1.479,0.199-1.859,1.027
		c-1.282,2.783-3.281,4.025-6.396,3.029c-1.313-0.42-2.137,0.141-1.792,1.57c2.392,9.92,4.836,19.824,7.354,30.109
		c2.359-2.646,4.502-4.994,6.584-7.396c1.938-2.242,4.302-3.146,7.271-2.826c3.001,0.324,6.027,0.404,9.313,0.605
		c-0.668-1.262-1.202-2.314-1.771-3.348c-0.845-1.537-0.902-2.979,0.768-3.938c1.668-0.957,2.734,0.08,3.521,1.431
		c0.887,1.517,1.741,3.06,2.514,4.637c1.648,3.38-0.533,6.668-4.313,6.451c-3.364-0.192-6.729-0.457-10.077-0.808
		c-1.586-0.164-2.776,0.238-3.819,1.461c-2.027,2.382-4.197,4.646-6.205,7.046c-1.426,1.704-2.987,3.032-5.34,2.428
		c-2.289-0.588-2.853-2.603-3.33-4.59c-2.17-9.024-4.365-18.043-6.483-27.08c-0.359-1.526-0.918-2.472-2.589-2.924
		c-1.209-0.328-1.824-0.123-2.649,0.709c-2.213,2.229-3.62,2.422-6.413,0.853c-0.988-0.556-1.558-0.554-2.494,0.172
		c-2.699,2.08-3.977,2.075-6.66,0.017c-0.92-0.707-1.488-0.771-2.493-0.201c-2.825,1.592-4.162,1.36-6.441-0.797
		c-1.67-1.582-2.404-1.396-2.953,0.838c-2.374,9.635-4.75,19.269-7.056,28.918c-0.46,1.922-1.194,3.554-3.215,4.097
		c-2.143,0.573-3.67-0.56-5.004-2.107c-2.096-2.43-4.268-4.795-6.346-7.241c-1.082-1.274-2.306-1.783-4.004-1.595
		c-3.188,0.359-6.4,0.5-9.596,0.806c-1.914,0.183-3.523-0.278-4.608-1.929c-1.085-1.649-0.849-3.313,0.074-4.987
		C50.243,154.938,55.63,145.131,61.138,135.117z M150.346,50.3c0.43-1.053,0.141-1.81-1.184-2.195
		c-2.581-0.752-3.721-2.663-3.762-5.238c-0.021-1.092-0.381-1.544-1.481-1.706c-2.528-0.372-4-1.947-4.326-4.454
		c-0.151-1.185-0.604-1.702-1.811-1.682c-2.621,0.042-4.169-1.418-4.906-3.799c-0.298-0.961-0.601-1.496-1.81-1.297
		c-2.517,0.414-4.396-0.645-5.453-2.964c-0.467-1.024-1.008-1.544-2.184-1.142c-2.519,0.857-4.375-0.135-5.769-2.21
		c-0.536-0.799-0.957-1.336-2.078-0.766c-2.382,1.211-4.524,0.718-6.228-1.346c-0.682-0.83-1.229-0.997-2.172-0.335
		c-2.201,1.547-4.387,1.332-6.328-0.496c-0.862-0.812-1.452-0.612-2.218,0.083c-1.904,1.72-4.022,1.94-6.136,0.472
		c-1.035-0.719-1.623-0.52-2.364,0.364c-1.646,1.968-3.738,2.47-6.024,1.29c-1.234-0.638-1.688-0.015-2.268,0.834
		c-1.356,1.981-3.154,2.951-5.575,2.125c-1.287-0.439-1.834,0.136-2.354,1.243c-1.034,2.202-2.874,3.258-5.285,2.853
		c-1.335-0.226-1.629,0.382-1.964,1.417c-0.735,2.267-2.232,3.702-4.753,3.663c-1.317-0.021-1.766,0.542-1.942,1.825
		c-0.327,2.39-1.78,3.947-4.197,4.302c-1.233,0.18-1.564,0.692-1.597,1.861c-0.069,2.467-1.177,4.316-3.652,5.068
		c-1.219,0.368-1.533,0.984-1.338,2.275c0.356,2.38-0.622,4.254-2.833,5.318c-1.133,0.546-1.486,1.231-1.082,2.459
		c0.777,2.365-0.059,4.279-1.996,5.684c-0.984,0.714-1.383,1.344-0.799,2.568c1.102,2.306,0.584,4.422-1.303,6.081
		c-1.027,0.905-0.89,1.667-0.271,2.667c1.29,2.082,1.124,4.146-0.417,6.008c-0.791,0.953-0.929,1.687-0.084,2.683
		c1.638,1.927,1.836,4.071,0.444,6.207c-0.715,1.098-0.5,1.789,0.406,2.632c1.754,1.631,2.336,3.678,1.287,5.89
		c-0.621,1.31-0.284,2.017,0.795,2.785c1.877,1.34,2.678,3.198,1.979,5.465c-0.405,1.312-0.115,2.045,1.137,2.66
		c2.199,1.075,3.093,2.989,2.729,5.371c-0.176,1.155,0.021,1.754,1.211,2.104c2.551,0.761,3.823,2.64,3.77,5.224
		c-0.029,1.371,0.715,1.582,1.672,1.771c2.423,0.478,3.816,1.992,4.154,4.367c0.165,1.16,0.503,1.655,1.758,1.672
		c2.536,0.031,4.246,1.396,4.936,3.813c0.337,1.176,0.894,1.549,2.048,1.393c2.576-0.352,4.315,0.795,5.352,3.119
		c0.39,0.879,0.806,1.357,1.995,0.963c2.409-0.797,4.432-0.014,5.808,2.145c0.612,0.959,1.172,1.299,2.327,0.73
		c2.321-1.146,4.381-0.547,6.008,1.41c0.686,0.828,1.268,0.988,2.205,0.344c2.113-1.455,4.23-1.35,6.151,0.379
		c0.857,0.771,1.494,0.857,2.396,0.037c1.893-1.727,4.026-1.938,6.135-0.434c1.086,0.771,1.679,0.354,2.387-0.463
		c1.607-1.857,3.607-2.363,5.835-1.299c1.098,0.523,1.708,0.363,2.346-0.658c1.349-2.162,3.356-2.982,5.785-2.209
		c1.129,0.359,1.617,0.053,2.022-0.895c1.057-2.443,2.897-3.539,5.56-3.168c0.919,0.127,1.515-0.109,1.774-1.109
		c0.73-2.771,2.604-4.137,5.443-4.129c0.979,0.002,1.188-0.527,1.285-1.34c0.313-2.617,1.762-4.268,4.379-4.693
		c1.213-0.199,1.465-0.791,1.492-1.914c0.059-2.492,1.287-4.281,3.712-5.035c1.13-0.352,1.492-0.828,1.286-2.053
		c-0.415-2.488,0.584-4.408,2.863-5.533c1.029-0.508,1.449-1.109,1.064-2.262c-0.814-2.455-0.018-4.438,2.033-5.879
		c1.046-0.737,1.24-1.417,0.689-2.601c-1.08-2.316-0.479-4.411,1.377-6.08c0.89-0.798,0.983-1.449,0.332-2.439
		c-1.463-2.23-1.186-4.409,0.483-6.421c0.652-0.789,0.791-1.42,0.035-2.28c-1.815-2.062-1.933-4.348-0.438-6.624
		c0.643-0.979,0.356-1.554-0.388-2.237c-1.935-1.769-2.479-3.898-1.313-6.295c0.551-1.135,0.127-1.721-0.771-2.37
		c-2.022-1.463-2.879-3.433-2.038-5.884c0.454-1.328-0.212-1.846-1.238-2.377C151.034,54.537,150.18,52.748,150.346,50.3z
		 M49.565,166.436c3.258-0.201,6.151-0.223,8.997-0.598c3.466-0.453,6.055,0.762,8.221,3.377c1.866,2.25,3.87,4.391,6.04,6.836
		c2.347-9.596,4.612-18.789,6.833-27.998c0.471-1.955-1.683-4.113-3.625-3.588c-1.815,0.494-3.671,0.354-4.544-1.182
		c-1.328-2.334-2.981-3.414-5.607-3.074c-0.142,0.018-0.308-0.086-0.449-0.158c-0.802-0.398-1.26-0.164-1.702,0.641
		C59.101,149.16,54.432,157.604,49.565,166.436z"/>
	<path display="inline" fill="#E76481" d="M114.131,138.52c-3.46,0.063-6.393-1.121-9.339-2.104
		c-3.334-1.113-6.564-1.174-9.884-0.023c-2.037,0.707-4.133,1.26-6.226,1.785c-4.166,1.045-7.743-0.027-10.761-3.088
		c-1.816-1.84-3.311-3.93-4.734-6.057c-1.958-2.928-4.542-4.902-7.895-5.928c-1.145-0.354-2.254-0.826-3.397-1.189
		c-6.433-2.045-10.105-6.461-9.774-13.176c0.349-7.133-1.758-13.076-5.973-18.712c-3.573-4.779-3.583-10.226-0.002-15.002
		c4.223-5.631,6.322-11.574,5.972-18.702c-0.327-6.718,3.294-11.328,9.793-13.11C67.9,41.571,72.259,38.202,75.49,32.94
		c2.047-3.335,4.908-5.957,9.132-6.395c2.368-0.246,4.685,0.18,6.82,1.084c5.623,2.382,11.058,2.109,16.772,0.022
		c7.108-2.597,11.087-1.121,15.687,4.914c0.729,0.956,1.484,1.9,2.113,2.921c2.118,3.45,5.153,5.605,9.021,6.722
		c1.531,0.443,3.013,1.072,4.492,1.672c5.391,2.188,7.75,6.416,8.008,12.022c0.068,1.565-0.646,2.755-2.219,2.947
		c-1.621,0.198-2.765-0.933-2.721-2.407c0.159-5.448-3.263-7.7-7.746-8.923c-5.942-1.62-10.527-4.927-13.646-10.247
		c-0.042-0.069-0.095-0.132-0.14-0.198c-4.328-6.01-5.686-6.471-12.723-4.224c-3.755,1.198-7.514,2.484-11.519,1.552
		c-2.489-0.579-4.918-1.412-7.372-2.136c-4.748-1.405-6.721-0.754-9.755,3.246c-0.728,0.957-1.488,1.896-2.121,2.914
		c-2.713,4.35-6.595,7.013-11.436,8.632c-8.562,2.862-9.063,3.504-9.109,12.48c-0.03,5.747-1.343,10.926-5.018,15.416
		c-0.355,0.433-0.616,0.939-0.958,1.381c-3.152,4.089-3.341,8.262-0.024,12.276c4.587,5.546,6.229,11.868,6.063,18.979
		c-0.146,6.205,1.161,7.943,7.145,9.711c6.229,1.84,11.083,5.219,14.419,10.801c0.573,0.953,1.353,1.787,2.045,2.668
		c1.895,2.408,4.361,3.125,7.286,2.42c0.853-0.209,1.725-0.404,2.526-0.748c6.233-2.668,12.361-2.379,18.681-0.016
		c5.716,2.133,7.914,1.428,11.193-3.662c3.791-5.887,8.764-9.701,15.52-11.668c5.453-1.588,6.744-3.447,6.578-9.131
		c-0.221-7.371,1.543-13.902,6.244-19.656c3.105-3.806,2.858-7.725,0.022-11.67c-1.815-2.528-3.667-5.051-4.887-7.964
		c-0.72-1.711-0.714-3.238,1.184-4.02c1.886-0.778,2.741,0.515,3.38,2.061c1.106,2.688,2.898,4.972,4.536,7.332
		c3.947,5.686,3.9,11.314-0.002,16.974c-1.046,1.515-2.077,3.042-3.103,4.573c-1.463,2.193-2.178,4.598-2.188,7.25
		c-0.012,2.729-0.023,5.449-0.357,8.173c-0.551,4.51-2.754,7.812-6.885,9.698c-2.029,0.931-4.145,1.695-6.262,2.418
		c-3.225,1.097-5.794,2.947-7.709,5.806c-1.336,1.992-2.809,3.918-4.402,5.705C119.911,137.055,117.291,138.684,114.131,138.52z"/>
	<path display="inline" fill="#E76481" d="M57.009,82.504c-0.062-21.649,14.586-39.598,35.787-43.848
		c16.955-3.4,35.287,5.667,44.196,21.861c13.693,24.895,1.537,56.549-25.159,64.606c-16.065,4.848-30.204,0.703-42.161-11.006
		c-1.305-1.277-1.957-2.652-0.44-4.139c1.464-1.438,2.754-0.664,3.926,0.557c11.928,12.402,29.766,14.328,43.328,7.367
		c14.781-7.584,23.18-24.149,20.765-41.011c-2.438-17.038-15.382-30.831-31.19-33.239c-19.369-2.951-37.339,8.708-42.617,27.764
		c-2.781,10.052-1.874,19.832,2.725,29.234c0.209,0.428,0.411,0.863,0.633,1.287c0.778,1.492,0.327,2.703-1.03,3.479
		c-1.501,0.854-2.603,0.121-3.356-1.246c-2.337-4.242-3.839-8.776-4.733-13.525C57.176,87.952,57.041,85.233,57.009,82.504z"/>
	<path display="inline" fill="#E76481" d="M120.727,77.809c-0.023,1.281-0.631,2.284-1.512,3.163
		c-1.591,1.588-3.063,3.319-4.788,4.739c-1.489,1.225-1.602,2.558-1.237,4.239c0.475,2.19,0.812,4.412,1.191,6.623
		c0.299,1.714-0.117,3.208-1.546,4.276c-1.435,1.072-2.964,1.031-4.521,0.213c-2.687-1.415-5.367-3.878-8.071-3.905
		c-2.6-0.027-5.242,2.448-7.835,3.879c-1.551,0.854-3.08,0.998-4.499-0.11c-1.435-1.122-1.929-2.6-1.553-4.479
		c0.583-2.901,1.802-6.036,1.19-8.716c-0.617-2.709-3.835-4.327-5.843-6.491c-1.258-1.357-2.197-2.736-1.531-4.723
		c0.688-2.061,2.258-2.767,4.225-2.987c0.794-0.089,1.597-0.421,2.37-0.349c4.835,0.446,7.243-2.217,8.54-6.44
		c0.232-0.755,0.681-1.442,1.018-2.167c0.817-1.758,1.874-3.196,4.083-3.168c2.09,0.027,3.107,1.388,3.895,3.069
		c0.983,2.098,2.032,4.169,2.955,6.294c0.496,1.143,1.145,1.716,2.473,1.828c2.393,0.199,4.769,0.618,7.14,1.015
		C119.277,74.014,120.752,75.668,120.727,77.809z M108.583,95.298c0.097,0.2,0.243,0.414,0.455,0.214
		c0.084-0.081-0.033-0.375-0.06-0.573c-0.28-1.894-0.387-3.838-0.889-5.673c-0.703-2.574,0.021-4.489,1.948-6.202
		c1.562-1.389,2.971-2.945,4.62-4.597c-2.585-0.404-4.706-0.852-6.852-1.041c-2.174-0.192-3.508-1.275-4.373-3.196
		c-0.938-2.089-1.979-4.136-3.1-6.459c-1.167,2.402-2.231,4.454-3.165,6.563c-0.823,1.862-2.127,2.853-4.179,3.074
		c-2.229,0.241-4.434,0.694-6.949,1.103c1.803,1.808,3.256,3.41,4.867,4.834c1.762,1.559,2.191,3.391,1.762,5.612
		c-0.392,2.033-0.925,4.052-0.895,6.149c-0.09,0.096-0.181,0.194-0.271,0.292c0.192,0.01,0.382,0.02,0.572,0.03
		c1.891-1.009,3.811-1.966,5.658-3.046c1.751-1.021,3.385-1.053,5.155-0.034C104.744,93.412,106.686,94.322,108.583,95.298z"/>
	<path display="inline" fill="#E76481" d="M87.982,68.628c-0.812-0.071-1.5-0.569-2.008-1.345c-1.225-1.872-2.467-3.733-3.661-5.625
		c-0.855-1.354-0.694-2.618,0.633-3.571c1.421-1.021,2.621-0.452,3.489,0.807c1.272,1.839,2.496,3.717,3.608,5.655
		C91.159,66.487,90.087,68.637,87.982,68.628z"/>
	<path display="inline" fill="#E76481" d="M74.978,93.788c-1.727,0.067-2.655-0.531-2.972-1.903
		c-0.313-1.368,0.239-2.506,1.504-2.896c2.432-0.754,4.919-1.397,7.431-1.819c1.311-0.22,2.274,0.762,2.56,2.063
		c0.304,1.372-0.427,2.461-1.652,2.841C79.492,92.803,77.056,93.282,74.978,93.788z"/>
	<path display="inline" fill="#E76481" d="M125.598,93.751c-1.931-0.486-4.435-1.003-6.855-1.776
		c-1.299-0.414-1.729-1.654-1.358-2.963c0.367-1.303,1.367-2.076,2.7-1.817c2.344,0.454,4.661,1.069,6.958,1.723
		c1.426,0.406,2.104,1.524,1.774,2.956C128.52,93.167,127.577,93.886,125.598,93.751z"/>
	<path display="inline" fill="#E76481" d="M118.917,60.113c-0.017,0.568-0.158,1.081-0.483,1.574
		c-1.229,1.867-2.375,3.79-3.645,5.629c-0.794,1.15-1.893,1.829-3.275,0.924c-1.313-0.858-1.793-2.059-0.902-3.492
		c1.265-2.035,2.576-4.042,3.906-6.035c0.645-0.963,1.592-1.363,2.713-0.979C118.32,58.109,118.878,58.948,118.917,60.113z"/>
	<path display="inline" fill="#E76481" d="M102.846,107.65c0,1.039,0.068,2.082-0.016,3.113c-0.119,1.449-0.982,2.463-2.415,2.508
		c-1.443,0.045-2.443-0.938-2.525-2.377c-0.129-2.229-0.123-4.473,0.004-6.697c0.082-1.424,0.947-2.396,2.499-2.352
		c1.53,0.039,2.294,1.033,2.431,2.453C102.93,105.408,102.846,106.533,102.846,107.65z"/>
	<path display="inline" fill="#E76481" d="M92.08,95.427c-0.189-0.01-0.38-0.02-0.572-0.03c0.09-0.098,0.181-0.196,0.271-0.292
		C91.885,95.206,91.987,95.313,92.08,95.427z"/>
	<path display="inline" fill="#E76481" d="M108.979,94.939c0.025,0.198,0.145,0.492,0.061,0.573c-0.212,0.2-0.357-0.014-0.455-0.214
		C108.717,95.179,108.85,95.058,108.979,94.939z"/>
</g>
<g display="none">
	<path display="inline" fill="#E76481" d="M186.318,92.917c0,4.644,0,9.288,0,13.931c-0.373,0.092-0.308,0.398-0.342,0.668
		c-0.369,2.797-0.599,5.625-1.136,8.392c-2.929,15.103-9.261,28.618-19.335,40.269c-14.061,16.251-31.707,26.155-52.979,29.545
		c-2.242,0.359-4.545,0.288-6.735,0.977c-4.53,0-9.061,0-13.591,0c-0.092-0.37-0.399-0.314-0.669-0.34
		c-10.38-0.939-20.36-3.457-29.672-8.15c-27.06-13.641-43.326-35.367-48.528-65.299c-0.352-2.018-0.192-4.114-0.978-6.059
		c0-4.757,0-9.515,0-14.271c0.364-0.098,0.318-0.402,0.34-0.675c0.429-5.131,1.395-10.161,2.712-15.138
		c8.649-32.691,37.15-58.139,70.569-63.045c2.077-0.305,4.225-0.207,6.227-0.989c4.53,0,9.062,0,13.591,0
		c0.102,0.372,0.406,0.307,0.678,0.323c7.709,0.489,15.237,2.005,22.401,4.827c31.502,12.407,50.411,35.249,56.465,68.642
		C185.721,88.649,185.587,90.849,186.318,92.917z M180.842,101.46c1.09-44.718-34.801-82.161-79.803-83.248
		c-44.626-1.079-82.077,34.775-83.211,79.664c-1.128,44.707,34.744,82.208,79.713,83.338
		C142.248,182.335,179.742,146.438,180.842,101.46z"/>
	<path display="inline" fill="#E76481" d="M28.665,99.646c0.023-38.995,31.756-70.648,70.78-70.604
		c38.999,0.045,70.62,31.781,70.563,70.82c-0.058,38.981-31.836,70.606-70.865,70.522C60.23,170.302,28.643,138.596,28.665,99.646z
		 M164.553,99.693c-0.027-35.848-29.279-65.118-65.152-65.196c-35.837-0.077-65.302,29.366-65.282,65.23
		c0.021,35.886,29.514,65.328,65.318,65.199C135.332,164.8,164.584,135.497,164.553,99.693z"/>
	<path display="inline" fill="#E76481" d="M102.057,77.682c0,4.244,0.035,8.488-0.024,12.731c-0.017,1.078,0.259,1.66,1.271,2.208
		c3.69,1.986,5.168,6.355,3.594,10.186c-1.605,3.914-5.777,5.969-9.854,4.695c-1.074-0.336-1.604-0.018-2.291,0.675
		c-4.057,4.105-8.156,8.166-12.233,12.253c-1.024,1.027-2.177,1.405-3.512,0.701c-1.129-0.594-1.528-1.604-1.402-2.842
		c0.086-0.852,0.663-1.402,1.224-1.963c4.042-4.04,8.074-8.09,12.131-12.115c0.641-0.634,0.924-1.137,0.597-2.154
		c-1.21-3.771,0.386-7.64,3.902-9.479c0.988-0.516,1.184-1.095,1.179-2.096c-0.035-8.487-0.022-16.975-0.018-25.461
		c0-2.179,0.934-3.335,2.681-3.357c1.762-0.02,2.751,1.151,2.756,3.288C102.061,69.194,102.057,73.438,102.057,77.682z
		 M102.037,99.704c-0.005-1.393-1.319-2.701-2.708-2.697c-1.399,0.007-2.701,1.315-2.697,2.71c0.005,1.396,1.318,2.702,2.708,2.697
		C100.73,102.409,102.044,101.092,102.037,99.704z"/>
	<path display="inline" fill="#E76481" d="M65.64,63.098c-0.164,1.165-0.591,2.06-1.578,2.564c-0.99,0.505-2.041,0.462-2.846-0.272
		c-1.535-1.404-3.033-2.862-4.411-4.416c-0.933-1.054-0.825-2.316,0.105-3.382c0.913-1.049,2.167-1.463,3.319-0.634
		c1.917,1.379,3.524,3.134,5.017,4.967C65.51,62.247,65.533,62.763,65.64,63.098z"/>
	<path display="inline" fill="#E76481" d="M142.462,59.399c-0.028,1.592-4.892,6.508-6.512,6.586
		c-1.897,0.092-3.543-2.041-2.612-3.694c1.271-2.258,3.176-4.098,5.391-5.423C140.352,55.895,142.496,57.483,142.462,59.399z"/>
	<path display="inline" fill="#E76481" d="M62.734,133.432c2.146,0.07,3.625,2.397,2.495,4.021c-1.375,1.972-3.107,3.71-5.12,5.068
		c-1.076,0.725-2.205,0.328-3.063-0.541c-0.861-0.871-1.248-2.01-0.507-3.069c1.384-1.989,3.191-3.613,5.067-5.136
		C61.926,133.516,62.451,133.512,62.734,133.432z"/>
	<path display="inline" fill="#E76481" d="M135.898,133.419c0.183,0.045,0.367,0.048,0.508,0.127
		c2.539,1.437,4.601,3.417,5.951,5.97c0.559,1.06-0.205,2.202-1.224,2.877c-1.051,0.698-2.2,0.655-3.118-0.186
		c-1.496-1.367-2.927-2.807-4.3-4.294c-0.792-0.858-0.851-1.94-0.291-2.985C133.952,133.948,134.852,133.54,135.898,133.419z"/>
	<path display="inline" fill="#E76481" d="M102.055,45.393c0,0.904,0.033,1.81-0.006,2.713c-0.07,1.606-1.139,2.658-2.666,2.68
		c-1.539,0.023-2.699-1.007-2.75-2.582c-0.06-1.919-0.063-3.845,0.004-5.765c0.053-1.479,1.197-2.498,2.648-2.521
		c1.517-0.024,2.671,1.031,2.759,2.593C102.096,43.468,102.053,44.431,102.055,45.393z"/>
	<path display="inline" fill="#E76481" d="M44.995,96.996c0.963,0,1.925-0.045,2.883,0.011c1.495,0.089,2.5,1.173,2.531,2.635
		c0.033,1.54-0.993,2.721-2.561,2.771c-1.92,0.065-3.845,0.065-5.765-0.001c-1.482-0.049-2.51-1.188-2.543-2.631
		c-0.034-1.519,1.018-2.685,2.573-2.773C43.071,96.953,44.035,96.996,44.995,96.996z"/>
	<path display="inline" fill="#E76481" d="M153.79,102.428c-1.017,0-2.037,0.057-3.05-0.014c-1.481-0.1-2.471-1.219-2.477-2.688
		c-0.009-1.473,0.975-2.651,2.44-2.708c1.978-0.078,3.958-0.074,5.937-0.003c1.465,0.054,2.481,1.231,2.489,2.681
		c0.009,1.439-1.009,2.609-2.461,2.716C155.715,102.484,154.751,102.427,153.79,102.428z"/>
	<path display="inline" fill="#E76481" d="M102.051,154.158c0,0.962,0.055,1.927-0.015,2.881c-0.104,1.456-1.269,2.473-2.708,2.47
		c-1.449-0.004-2.634-1.021-2.688-2.485c-0.073-1.974-0.075-3.957,0.001-5.933c0.057-1.47,1.23-2.454,2.701-2.45
		c1.469,0.004,2.559,0.996,2.708,2.467c0.011,0.11,0.007,0.227,0.007,0.341c0,0.903,0,1.809,0,2.712
		C102.055,154.158,102.053,154.158,102.051,154.158z"/>
</g>
<g display="none">
	<path display="inline" fill="#FFFFFF" d="M16.503,60.714c0.739-1.755,1.023-3.667,1.95-5.363c3.626-6.641,9.1-10.36,16.75-10.449
		c8.087-0.091,16.174-0.044,24.261,0.006c1.199,0.009,1.664-0.241,1.727-1.546c0.323-6.715,6.153-12.503,12.88-13.095
		c4.096-0.359,8.187-0.179,12.279-0.194c11.805-0.043,23.613-0.029,35.421-0.008c3.679,0.008,7.115,0.806,10.092,3.172
		c3.35,2.666,5.188,6.115,5.503,10.343c0.089,1.173,0.521,1.332,1.557,1.326c7.872-0.044,15.744-0.027,23.614-0.024
		c10.136,0.006,17.189,5.715,19.373,15.662c0.016,0.07,0.158,0.114,0.242,0.17c0,28.038,0,56.077,0,84.119
		c-0.244,0.074-0.274,0.271-0.323,0.487c-2.086,9.296-9.282,15.258-18.753,15.264c-42.508,0.041-85.015,0.041-127.521,0.007
		c-8.431-0.013-15.627-5.252-18.208-12.944c-0.278-0.828-0.191-1.787-0.843-2.487C16.503,117.009,16.503,88.861,16.503,60.714z
		 M99.216,152.141c20.97,0,41.938,0,62.909,0c1.344,0,2.693-0.018,3.996-0.383c5.068-1.423,7.807-5.412,7.809-11.391
		c0.004-25.176,0.002-50.347,0-75.522c0-1.291-0.021-2.593-0.363-3.842c-1.328-4.86-5.205-7.691-10.598-7.706
		c-9.758-0.024-19.514,0.003-29.271-0.012c-2.897-0.005-4.587-1.734-4.604-4.616c-0.007-1.237,0.016-2.479-0.005-3.719
		c-0.069-4.219-2.442-6.565-6.672-6.571c-6.415-0.012-12.83-0.003-19.245-0.003c-9.056,0-18.112-0.018-27.168,0.008
		c-3.699,0.009-6.056,2.326-6.179,5.995c-0.044,1.291-0.085,2.59-0.005,3.878c0.169,2.731-1.85,5.133-5.109,5.083
		c-9.539-0.142-19.082-0.059-28.624-0.047c-6.952,0.008-11.187,4.23-11.188,11.143c-0.006,14.391-0.001,28.785-0.001,43.18
		c0,11.319,0.003,22.637-0.001,33.959c-0.003,3.508,1.322,6.362,4.115,8.521c2.209,1.709,4.777,2.051,7.459,2.051
		C57.384,152.135,78.3,152.141,99.216,152.141z"/>
	<path display="inline" fill="#FFFFFF" d="M138.075,104.117c-0.968,22.113-19.06,37.771-39.402,37.354
		c-23.029-0.471-38.835-19.537-38.07-40.119c0.831-22.301,19.604-38.421,40.667-37.303
		C123.02,65.203,138.686,83.247,138.075,104.117z M129.471,103.047c0.018-16.881-13.313-30.322-30.115-30.364
		C82.7,72.644,69.262,86.086,69.182,102.83c-0.08,16.975,13.43,30.252,30.212,30.214
		C116.563,133.003,129.744,119.088,129.471,103.047z"/>
	<path display="inline" fill="#FFFFFF" d="M163.085,71.645c-0.028,4.246-3.459,7.638-7.712,7.629
		c-4.262-0.008-7.866-3.63-7.77-7.809c0.101-4.207,3.601-7.638,7.789-7.635C159.705,63.836,163.116,67.3,163.085,71.645z"/>
</g>
<g display="none">
	<path display="inline" fill="#FFFFFF" d="M180.428,64.15c0,30.509,0,61.019,0,91.53c-0.537,0.479-0.484,1.197-0.705,1.803
		c-1.636,4.48-5.947,9.009-13.723,8.992c-39.324-0.074-78.65-0.033-117.975-0.033c-4.524,0-9.051-0.015-13.577,0.002
		c-4.917,0.02-8.837-1.894-11.724-5.91c-1.065-1.481-1.414-3.271-2.237-4.854c0-30.615,0-61.229,0-91.842
		c0.482-0.147,0.32-0.607,0.416-0.92c1.799-5.797,6.242-9.53,12.312-9.736c6.917-0.231,13.846-0.139,20.767-0.086
		c3.487,0.027,6.33-1.135,8.77-3.645c3.99-4.104,8.047-8.15,12.183-12.108c2.67-2.556,5.958-4.025,9.675-4.131
		c10.199-0.291,20.404-0.13,30.604-0.086c4.774,0.019,8.724,1.983,12.045,5.358c3.507,3.563,7.146,6.997,10.57,10.633
		c2.644,2.807,5.726,4.063,9.567,3.99c6.35-0.121,12.703-0.059,19.055-0.025c6.674,0.037,11.729,3.713,13.51,9.683
		C180.096,63.222,179.852,63.839,180.428,64.15z M100.441,66.48c-22.03,0.034-39.984,17.98-39.969,39.954
		c0.015,21.994,17.977,39.918,39.998,39.909c22.028-0.006,39.981-17.942,39.971-39.937C140.432,84.429,122.416,66.447,100.441,66.48
		z M153.753,86.365c3.657,0.006,6.662-2.954,6.677-6.577c0.016-3.616-2.988-6.61-6.634-6.615c-3.711-0.005-6.614,2.875-6.63,6.572
		C147.15,83.433,150.061,86.357,153.753,86.365z"/>
	<path display="inline" fill="#FFFFFF" d="M100.399,139.746c-18.367-0.01-33.317-14.945-33.325-33.296
		c-0.009-18.405,15.067-33.455,33.438-33.379c18.404,0.077,33.321,14.995,33.327,33.337
		C133.85,124.838,118.885,139.754,100.399,139.746z"/>
</g>
<g display="none">
	<path display="inline" fill="#E76481" d="M180.803,93.659c-0.461,0.798-0.844,1.657-1.4,2.384
		c-1.592,2.081-4.399,2.868-6.932,2.026c-2.578-0.856-4.281-3.167-4.285-5.966c-0.02-11.73,0.004-23.461-0.013-35.191
		c-0.01-6.517-3.558-11.395-9.58-12.964c-3.497-0.91-7.116-0.371-10.681-0.479c-0.695-0.021-0.563,0.463-0.564,0.864
		c-0.005,1.841,0.021,3.682-0.009,5.522c-0.057,3.549-2.813,6.251-6.341,6.24c-3.51-0.009-6.225-2.73-6.273-6.305
		c-0.022-1.789-0.041-3.579,0.012-5.365c0.021-0.756-0.201-0.972-0.963-0.97c-8.942,0.026-17.887,0.026-26.828,0
		c-0.764-0.001-0.986,0.214-0.967,0.97c0.056,1.787,0.039,3.577,0.015,5.365c-0.048,3.575-2.767,6.296-6.274,6.305
		c-3.524,0.011-6.285-2.691-6.34-6.24c-0.029-1.788-0.027-3.577,0.003-5.365c0.013-0.663-0.028-1.042-0.891-1.039
		c-8.89,0.033-17.78,0.028-26.671,0.005c-0.713-0.002-0.883,0.234-0.868,0.902c0.039,1.839,0.038,3.682,0.007,5.523
		c-0.06,3.539-2.835,6.232-6.365,6.213c-3.442-0.019-6.182-2.709-6.245-6.174c-0.034-1.841-0.008-3.682-0.009-5.522
		c-0.002-0.463,0.114-0.959-0.658-0.935c-3.408,0.101-6.868-0.387-10.213,0.457c-6.101,1.539-9.642,6.495-9.644,13.24
		c-0.004,27.827,0,55.654,0,83.482c0,4.42-0.025,8.838,0.004,13.256c0.043,6.371,3.492,11.051,9.412,12.775
		c1.416,0.41,2.884,0.526,4.36,0.526c15.676-0.002,31.352-0.007,47.029,0.005c3.184,0.002,5.719,2.054,6.351,5.055
		c0.613,2.916-1.022,5.92-3.895,7.164c-0.264,0.114-0.66-0.015-0.766,0.401c-17.779,0-35.562,0-53.34,0
		c-0.066-0.242-0.255-0.279-0.47-0.319c-9.676-1.777-16.283-7.283-19.814-16.445c-0.625-1.621-1.004-3.34-1.495-5.016
		c0-35.141,0-70.282,0-105.422c0.24-0.066,0.281-0.253,0.316-0.47c1.713-10.3,9.125-18.24,19.221-20.684
		c2.948-0.711,5.927-0.606,8.912-0.629c1.513-0.011,3.5,0.509,4.404-0.249c0.944-0.793,0.367-2.866,0.251-4.351
		c-0.3-3.851,1.167-6.544,4.771-8.022c1.052,0,2.105,0,3.156,0c3.62,1.479,5.114,4.193,4.75,8.045
		c-0.105,1.094,0.057,2.213-0.038,3.311c-0.086,1.03,0.251,1.3,1.285,1.294c8.625-0.043,17.254-0.043,25.88,0
		c1.035,0.006,1.371-0.265,1.284-1.294c-0.092-1.097,0.068-2.217-0.037-3.311c-0.364-3.852,1.13-6.565,4.75-8.045
		c1.052,0,2.104,0,3.158,0c3.619,1.479,5.114,4.193,4.752,8.045c-0.105,1.094,0.055,2.213-0.037,3.311
		c-0.086,1.03,0.248,1.3,1.283,1.294c8.729-0.043,17.465-0.043,26.194,0c1.037,0.006,1.371-0.265,1.282-1.294
		c-0.092-1.097,0.068-2.217-0.034-3.311c-0.362-3.852,1.13-6.565,4.752-8.045c1.051,0,2.104,0,3.153,0
		c3.604,1.479,5.119,4.172,4.75,8.021c-0.096,0.989,0.07,2.002-0.034,2.989c-0.14,1.253,0.18,1.73,1.563,1.654
		c2.404-0.133,4.825-0.056,7.239-0.028c10.179,0.114,19.597,6.859,23.12,16.448c0.68,1.848,0.893,3.799,1.554,5.636
		C180.803,66.513,180.803,80.086,180.803,93.659z"/>
	<path display="inline" fill="#E76481" d="M138.191,179.828c-1.234-0.764-2.688-0.573-4.021-0.926
		c-15.523-4.09-25.496-13.911-28.888-29.525c-2.993-13.77,1.077-25.883,11.323-35.632c7.746-7.367,17.17-10.86,27.832-10.22
		c14.494,0.873,25.211,7.99,32.156,20.707c2.172,3.979,3.448,8.297,3.899,12.832c0.022,0.219,0.056,0.408,0.307,0.468
		c0,2.841,0,5.682,0,8.522c-0.76,1.286-0.579,2.786-0.946,4.17c-3.812,14.375-12.799,23.793-26.992,28.189
		c-2.1,0.648-4.309,0.95-6.465,1.412C143.662,179.828,140.927,179.828,138.191,179.828z M142.573,116.077
		c-14.015,0.044-25.61,11.69-25.522,25.634c0.09,13.982,11.553,25.436,25.516,25.484c13.969,0.049,25.602-11.564,25.604-25.557
		C168.175,127.648,156.541,116.032,142.573,116.077z"/>
	<path display="inline" fill="#E76481" d="M64.965,84.515c-0.004,3.56-2.82,6.332-6.401,6.303c-3.482-0.028-6.228-2.818-6.226-6.324
		c0.003-3.56,2.818-6.332,6.402-6.304C62.22,78.219,64.968,81.009,64.965,84.515z"/>
	<path display="inline" fill="#E76481" d="M86.12,78.191c3.56,0.004,6.332,2.818,6.305,6.401c-0.028,3.481-2.818,6.23-6.322,6.226
		c-3.562-0.003-6.333-2.816-6.305-6.401C79.826,80.937,82.616,78.189,86.12,78.191z"/>
	<path display="inline" fill="#E76481" d="M119.887,84.532c-0.013,3.556-2.834,6.32-6.421,6.286
		c-3.476-0.034-6.217-2.833-6.207-6.341c0.009-3.556,2.831-6.32,6.421-6.287C117.15,78.225,119.895,81.024,119.887,84.532z"/>
	<path display="inline" fill="#E76481" d="M141.018,78.191c3.564-0.003,6.35,2.8,6.33,6.377c-0.021,3.485-2.803,6.245-6.301,6.25
		c-3.566,0.005-6.349-2.8-6.326-6.376C134.738,80.958,137.521,78.196,141.018,78.191z"/>
	<path display="inline" fill="#E76481" d="M64.965,111.952c0.003,3.563-2.8,6.348-6.378,6.325c-3.483-0.021-6.244-2.801-6.249-6.295
		c-0.006-3.568,2.799-6.353,6.376-6.33C62.2,105.672,64.959,108.453,64.965,111.952z"/>
	<path display="inline" fill="#E76481" d="M92.425,111.945c0.006,3.565-2.796,6.354-6.372,6.332
		c-3.485-0.02-6.249-2.797-6.255-6.293c-0.006-3.566,2.796-6.353,6.373-6.332C89.656,105.67,92.418,108.45,92.425,111.945z"/>
	<path display="inline" fill="#E76481" d="M64.965,139.424c0,3.563-2.81,6.34-6.39,6.316c-3.483-0.025-6.236-2.811-6.237-6.313
		c-0.002-3.563,2.807-6.341,6.387-6.315C62.21,133.139,64.963,135.922,64.965,139.424z"/>
	<path display="inline" fill="#E76481" d="M86.125,145.74c-3.565,0.003-6.348-2.801-6.327-6.377
		c0.021-3.484,2.801-6.245,6.297-6.252c3.566-0.002,6.349,2.8,6.33,6.377C92.404,142.975,89.624,145.732,86.125,145.74z"/>
	<path display="inline" fill="#E76481" d="M147.227,147.943c-1.627,0-3.256,0.035-4.884-0.008c-3.288-0.086-5.987-2.75-6.024-6.041
		c-0.055-4.465-0.055-8.931-0.006-13.395c0.037-3.436,2.84-6.111,6.279-6.12c3.451-0.006,6.242,2.655,6.319,6.083
		c0.044,1.941,0.049,3.889-0.007,5.827c-0.023,0.823,0.214,1.067,1.045,1.054c1.244-0.021,2.498-0.148,3.74,0.268
		c2.979,1.002,4.791,3.861,4.354,6.988c-0.42,2.965-3.033,5.273-6.089,5.34C150.38,147.973,148.805,147.945,147.227,147.943z"/>
</g>
<g display="none">
	<path display="inline" fill="#E76481" d="M39.031,181.742c0-11.916,0-23.832,0-35.871c-3.917,1.16-7.657,1.061-11.182-0.857
		c-4.833-2.629-7.538-6.711-7.618-12.246c-0.11-7.631-0.055-15.269-0.022-22.898c0.049-11.018,8.781-21.002,19.683-22.616
		c1.352-0.201,2.695-0.289,4.057-0.289c12.235,0.002,24.47,0.046,36.706-0.02c5.286-0.028,10.082,1.325,14.396,4.382
		c0.16,0.113,0.353,0.18,0.632,0.317c0.977-6.253,3.854-11.347,8.733-15.251c4.17-3.336,8.932-5.106,14.291-5.113
		c12.811-0.018,25.622-0.027,38.434,0c12.496,0.026,23.069,10.574,23.111,23.057c0.032,9.463,0.016,18.928,0.004,28.393
		c-0.013,9.815-8.568,16.365-18.111,13.885c-0.194-0.053-0.406-0.047-0.715-0.078c0,15.104,0,30.154,0,45.209
		c-15.693,0-31.385,0-47.076,0c0-15.061,0-30.12,0-45.32c-3.052,0.938-5.889,1.094-8.694,0.162
		c-0.914-0.304-1.269-0.179-1.626,0.787c-1.674,4.508-4.912,7.406-9.509,8.751c-2.768,0.812-5.554,0.592-8.292-0.21
		c-0.058,0.197-0.112,0.297-0.112,0.396c-0.006,11.813-0.009,23.621-0.011,35.434C70.414,181.742,54.723,181.742,39.031,181.742z
		 M152.012,131.341c0-13.182,0.028-26.362-0.041-39.543c-0.008-1.497,0.448-1.806,1.807-1.723c1.824,0.113,3.658,0.028,5.488,0.028
		c2.161,0,2.161,0,2.161,2.081c0,10.148-0.011,20.294,0.007,30.442c0.004,2.896,1.98,5.056,4.606,5.129
		c2.581,0.071,4.778-2.125,4.789-4.94c0.028-9.361,0.099-18.729-0.021-28.087c-0.102-7.764-6.07-13.894-13.795-13.985
		c-12.763-0.149-25.525-0.128-38.285-0.001c-6.445,0.063-11.652,4.408-13.297,10.62c-0.31,1.164-0.488,2.351-0.49,3.556
		c-0.004,9.257-0.023,18.517,0.006,27.774c0.011,3.675,3.324,6.056,6.484,4.662c2.088-0.918,2.93-2.67,2.926-4.916
		c-0.016-10.354,0.01-20.711-0.029-31.067c-0.003-1.008,0.232-1.333,1.275-1.291c2.142,0.086,4.293,0.122,6.431-0.007
		c1.426-0.086,1.771,0.336,1.769,1.761c-0.047,26.203-0.035,52.409-0.035,78.61c0,0.314,0.035,0.635-0.006,0.941
		c-0.103,0.76,0.2,0.975,0.952,0.961c2.458-0.045,4.918-0.059,7.375,0.004c0.901,0.023,1.134-0.254,1.113-1.131
		c-0.058-2.457-0.021-4.916-0.021-7.375c0-11.559,0.021-23.119-0.031-34.678c-0.006-1.2,0.31-1.48,1.459-1.432
		c2.246,0.098,4.502,0.092,6.746,0.002c1.064-0.043,1.281,0.313,1.265,1.305c-0.06,3.451-0.022,6.902-0.022,10.354
		c0,10.463,0.028,20.924-0.035,31.385c-0.01,1.35,0.362,1.646,1.633,1.58c2.14-0.111,4.294-0.119,6.432,0.002
		c1.242,0.07,1.416-0.365,1.412-1.479C151.997,157.701,152.012,144.521,152.012,131.341z M76.692,138.382
		c0-10.93,0.015-21.862-0.025-32.794c-0.005-1.059,0.19-1.445,1.337-1.395c2.191,0.104,4.395,0.1,6.589,0.005
		c1.186-0.052,1.558,0.231,1.547,1.501c-0.063,8.839-0.051,17.677-0.022,26.517c0.009,2.765,2.061,4.897,4.621,4.954
		c2.524,0.057,4.748-2.087,4.763-4.804c0.044-7.427,0.15-14.857-0.039-22.28c-0.195-7.611-6.177-13.572-13.787-13.656
		c-12.76-0.141-25.525-0.139-38.286,0.004c-6.983,0.079-12.735,5.097-13.458,12.021c-0.847,8.115-0.338,16.3-0.22,24.447
		c0.046,3.197,3.577,5.135,6.417,3.857c2.076-0.934,2.916-2.682,2.91-4.928c-0.02-8.212,0.022-16.424-0.039-24.637
		c-0.009-1.193,0.302-1.486,1.459-1.434c2.139,0.104,4.293,0.123,6.429-0.006c1.345-0.081,1.592,0.348,1.59,1.623
		c-0.046,19.195-0.031,38.393-0.031,57.587c0,2.093,0.048,4.188-0.022,6.276c-0.032,0.921,0.287,1.121,1.144,1.102
		c2.247-0.058,4.502-0.115,6.744,0.016c1.364,0.08,1.583-0.377,1.579-1.635c-0.051-12.187,0-24.373-0.07-36.561
		c-0.009-1.492,0.44-1.803,1.801-1.729c2.034,0.111,4.085,0.133,6.116-0.006c1.384-0.096,1.572,0.405,1.566,1.646
		c-0.048,12.237-0.015,24.479-0.052,36.717c-0.004,1.146,0.171,1.646,1.483,1.563c2.084-0.129,4.186-0.114,6.273-0.004
		c1.311,0.068,1.734-0.203,1.724-1.65C76.656,159.934,76.692,149.157,76.692,138.382z"/>
	<path display="inline" fill="#E76481" d="M140.714,21.059c0.888,0.543,1.938,0.476,2.897,0.762
		c9.373,2.795,15.32,11.502,14.646,21.483c-0.604,8.939-7.858,16.728-17.026,18.278c-10.767,1.819-21.252-5.342-23.377-15.961
		c-2.145-10.715,4.457-21.291,14.922-23.956c0.56-0.142,1.242-0.04,1.66-0.605C136.529,21.059,138.621,21.059,140.714,21.059z
		 M137.859,52.436c5.957,0.018,10.988-4.989,11.004-10.953c0.019-5.957-4.982-10.982-10.947-11.002
		c-5.957-0.021-10.984,4.984-11.006,10.949C126.893,47.375,131.909,52.418,137.859,52.436z"/>
	<path display="inline" fill="#E76481" d="M62.468,77.549c-11.243-0.012-20.306-9.148-20.298-20.463
		c0.006-11.328,9.146-20.357,20.579-20.335c11.216,0.021,20.237,9.184,20.219,20.539C82.951,68.516,73.797,77.563,62.468,77.549z
		 M73.545,57.217c0.046-5.955-4.933-10.996-10.908-11.046c-5.949-0.049-10.999,4.939-11.045,10.908
		c-0.048,5.944,4.946,11,10.907,11.05C68.447,68.176,73.5,63.185,73.545,57.217z"/>
</g>
<path fill="#C2CFCF" d="M68.275,21.264c1.809,0.924,2.801,2.436,3.547,4.322c6.246,15.751,12.571,31.468,18.87,47.197
	c1.43,3.579,0.444,5.886-3.134,7.316c-6.581,2.638-13.156,5.289-19.761,7.874c-0.892,0.348-1.121,0.771-1.042,1.678
	c1.959,22.574,19.114,41.016,41.679,44.774c0.606,0.103,1.213,0.212,1.823,0.271c3.069,0.287,3.073,0.283,4.234-2.644
	c2.385-5.971,4.764-11.946,7.146-17.919c1.402-3.509,3.703-4.539,7.18-3.148c16.014,6.392,32.012,12.812,48.035,19.178
	c1.659,0.658,2.771,1.786,3.604,3.279c0,2.058,0,4.111,0,6.164c-0.625,0.764-0.446,1.732-0.578,2.59
	c-2.628,17.021-16.361,31.826-33.128,35.607c-2.104,0.475-4.24,0.836-6.356,1.249c-4.006,0-8.014,0-12.02,0
	c-0.135-0.405-0.486-0.29-0.77-0.31c-5.735-0.37-11.412-1.229-16.99-2.571c-29.621-7.151-52.9-23.472-69.68-48.864
	c-10.07-15.238-15.852-32.083-17.716-50.279c-0.123-1.22,0.097-2.529-0.551-3.684c0-4.211,0-8.421,0-12.636
	c0.625-0.708,0.418-1.633,0.555-2.442c3.014-17.714,16.078-31.707,33.445-35.841c1.809-0.433,3.704-0.45,5.448-1.162
	C64.165,21.264,66.22,21.264,68.275,21.264z M31.943,68.593c0.247,6.702,0.968,13.33,2.512,19.827
	c7.003,29.439,23.612,51.903,49.569,67.346c15.36,9.144,32.167,13.489,50,14.022c9.506,0.28,18.009-2.364,25.221-8.685
	c6.535-5.74,10.313-13.004,11.646-21.571c0.178-1.144-0.078-1.747-1.313-2.232c-13.117-5.174-26.203-10.423-39.276-15.692
	c-1.054-0.428-1.499-0.424-1.954,0.773c-2.41,6.24-4.923,12.443-7.414,18.652c-0.945,2.354-2.529,3.455-4.938,3.415
	c-8.075-0.142-15.939-1.536-23.24-5.019c-22.38-10.672-34.216-28.468-35.468-53.25c-0.147-2.846,0.926-4.402,3.543-5.445
	c6.168-2.463,12.326-4.951,18.508-7.379c0.98-0.38,1.321-0.655,0.854-1.813C74.879,58.431,69.611,45.3,64.417,32.137
	c-0.488-1.235-1.092-1.5-2.236-1.312c-3.911,0.635-7.714,1.654-11.199,3.565C37.475,41.801,31.525,53.443,31.943,68.593z"/>
</svg>
