<?xml version="1.0" encoding="utf-8"?>
<!-- Generator: Adobe Illustrator 16.0.0, SVG Export Plug-In . SVG Version: 6.00 Build 0)  -->
<!DOCTYPE svg PUBLIC "-//W3C//DTD SVG 1.1//EN" "http://www.w3.org/Graphics/SVG/1.1/DTD/svg11.dtd">
<svg version="1.1" id="Layer_1" xmlns="http://www.w3.org/2000/svg" xmlns:xlink="http://www.w3.org/1999/xlink" x="0px" y="0px"
	 width="250px" height="250px" viewBox="0 0 250 250" enable-background="new 0 0 250 250" xml:space="preserve">
<g>
	<path fill-rule="evenodd" clip-rule="evenodd" fill="#73E6E5" d="M43.468,238.442c-2.701-0.846-5.493-1.341-8.024-2.781
		c-6.708-3.814-10.227-9.637-11.419-17.126c-2.283-14.343-4.655-28.672-6.986-43.008c-0.601-3.693-1.309-7.374-1.751-11.086
		c-1.431-12.005,6.46-22.545,17.625-24.542c11.625-2.078,23.302-3.86,34.957-5.771c0.863-0.142,1.728-0.271,2.593-0.406
		c0.591,0.647,1.388,0.689,2.19,0.855c9.294,1.922,15.207,7.502,17.646,16.655c0.998,3.742,1.398,7.611,1.988,11.438
		c1.058,6.856,2.236,13.693,3.352,20.541c1.281,7.855,2.468,15.728,3.849,23.565c1.146,6.507,0.162,12.488-3.589,18.002
		c-2.036,2.993-4.956,4.944-7.773,7.04c-5.26,0.88-10.516,1.787-15.781,2.636c-7.669,1.236-15.345,2.43-23.016,3.655
		c-0.197,0.031-0.37,0.217-0.553,0.331C47.005,238.442,45.236,238.442,43.468,238.442z M66.092,161.483
		c-6.834-0.287-14.687,4.968-13.86,12.914c0.303,2.917,1.349,4.431,3.563,4.362c2.494-0.078,3.973-1.743,3.988-4.49
		c0.02-3.575,2.105-5.623,5.832-5.727c3.435-0.095,5.962,2.175,6.22,5.479c0.218,2.782-1.023,4.979-2.63,7.053
		c-2.217,2.861-4.943,5.255-7.34,7.946c-2.625,2.947-5.496,5.776-6.222,9.958c-0.43,2.479,0.416,4.799,0.677,7.188
		c0.297,2.717,1.853,3.896,4.545,3.461c6.957-1.125,13.908-2.286,20.856-3.461c2.283-0.387,3.404-2.452,2.572-4.609
		c-0.788-2.041-2.089-2.479-5.418-1.905c-4.196,0.722-8.393,1.44-12.6,2.092c-2.854,0.443-3.785-0.838-2.626-3.606
		c0.364-0.868,0.921-1.677,1.499-2.431c2.203-2.877,4.947-5.247,7.463-7.831c1.964-2.017,3.665-4.208,5.043-6.67
		C82.86,171.908,76.757,161.477,66.092,161.483z"/>
	<path fill-rule="evenodd" clip-rule="evenodd" fill="#F59696" d="M103.596,12.077c-0.031,0.142-0.017,0.278,0.043,0.41
		c-2.386,0-4.772,0.001-7.158,0.001c0.058-0.132,0.072-0.27,0.041-0.412C98.88,12.077,101.238,12.077,103.596,12.077z"/>
	<path fill-rule="evenodd" clip-rule="evenodd" fill="#F16666" d="M96.481,12.489c2.386,0,4.772-0.001,7.158-0.001
		c5.958,1.227,11.7,3.23,17.537,4.889c6.957,1.976,13.886,4.054,20.826,6.088c0.695,1.085,1.896,1.569,2.819,2.379
		c6.013,5.277,9.19,11.802,7.866,19.865c-1.415,8.612-4.554,16.797-6.897,25.179c-2.78,9.941-5.813,19.812-8.583,29.755
		c-2.649,9.508-8.24,15.833-18.213,17.824c-1.88,0.375-3.819-0.326-5.636,0.493c-11.488-3.351-22.971-6.719-34.466-10.048
		c-12.163-3.522-18.982-15.14-15.581-27.313c5.039-18.035,10.21-36.036,15.666-53.949C81.561,19.169,87.603,14.03,96.481,12.489z
		 M121.489,56.534c-0.894,3.137-1.66,5.875-2.454,8.604c-2.136,7.344-4.3,14.679-6.417,22.028c-0.743,2.58,0.067,4.077,2.455,4.787
		c2.428,0.723,4.066,0.015,4.715-2.205c3.756-12.846,7.471-25.704,11.211-38.554c0.357-1.228,0.298-2.329-0.708-3.237
		c-1.075-0.97-2.38-1.403-3.673-0.764c-3.033,1.499-6.035,3.077-8.948,4.794c-1.255,0.74-1.887,2.057-1.44,3.625
		C116.827,57.706,118.244,58.042,121.489,56.534z"/>
	<path fill-rule="evenodd" clip-rule="evenodd" fill="#FE9F40" d="M196.902,232.425c-12.949-0.023-25.897-0.008-38.846-0.083
		c-10.853-0.063-19.086-6.599-21.798-17.113c-0.449-1.741-0.479-3.498-0.481-5.261c-0.014-18.261-0.046-36.521,0.006-54.783
		c0.031-11.381,7.166-19.956,18.279-22.158c0.646-0.128,1.311-0.236,1.967-0.236c13.473-0.011,26.946-0.003,40.419,0.001
		c0.105,0.1,0.195,0.253,0.32,0.29c10.361,3.085,16.123,12.304,16.057,23.835c-0.102,17.442-0.003,34.886-0.058,52.329
		c-0.007,2.103-0.25,4.247-0.71,6.3c-1.495,6.678-5.349,11.577-11.37,14.887C199.438,231.119,197.88,231.24,196.902,232.425z
		 M184.261,206.148c7.914,0.081,12.801-2.721,14.75-7.686c1.333-3.396,1.374-6.951,0.778-10.45
		c-0.471-2.769-1.998-5.038-4.603-6.419c-0.797-0.423-0.472-0.893,0.007-1.382c3.81-3.896,4.044-8.626,3.018-13.573
		c-0.643-3.095-2.571-5.261-5.495-6.441c-4.578-1.85-9.256-1.808-13.785-0.017c-4.248,1.68-6.725,4.904-6.859,9.626
		c-0.073,2.594,0.625,3.453,2.756,3.647c3.156,0.287,4.422-0.471,4.706-3.205c0.227-2.185,1.168-3.739,3.285-4.146
		c2.515-0.482,5.162-0.898,7.272,1.212c0.445,0.446,0.777,1.098,0.946,1.714c1.475,5.356-0.206,8.117-5.52,9.164
		c-2.402,0.474-3.469,2.631-2.396,4.785c0.673,1.354,1.891,1.441,3.175,1.533c4.361,0.313,6.164,2.258,6.21,6.638
		c0.005,0.516-0.002,1.031-0.019,1.547c-0.141,4.346-1.897,6.179-6.318,6.602c-4.437,0.425-6.896-1.223-7.8-5.226
		c-0.516-2.283-1.897-2.964-4.957-2.541c-2.16,0.299-2.512,1.839-2.398,3.55c0.105,1.608,0.494,3.173,1.34,4.615
		C175.278,204.677,180.01,206.105,184.261,206.148z"/>
	<path fill-rule="evenodd" clip-rule="evenodd" fill="#DC5B5B" d="M113.358,118.959c1.817-0.819,3.755-0.118,5.636-0.493
		c9.973-1.991,15.564-8.316,18.213-17.824c2.77-9.943,5.803-19.813,8.583-29.755c2.344-8.382,5.482-16.567,6.897-25.179
		c1.324-8.063-1.854-14.588-7.866-19.865c-0.924-0.81-2.124-1.294-2.819-2.379c6.743,1.739,13.553,3.355,20.017,5.927
		c10.356,4.12,15.712,15.63,12.586,26.552c-5.062,17.687-10.198,35.353-15.393,53.002c-3.004,10.208-11.892,16.568-22.518,16.25
		c-2.655-0.08-5.183-0.919-7.718-1.679C123.782,121.96,118.565,120.474,113.358,118.959z"/>
	<path fill-rule="evenodd" clip-rule="evenodd" fill="#65D0CB" d="M88.124,231.82c2.817-2.096,5.737-4.047,7.773-7.04
		c3.751-5.514,4.734-11.495,3.589-18.002c-1.38-7.838-2.568-15.71-3.849-23.565c-1.116-6.848-2.294-13.685-3.352-20.541
		c-0.59-3.827-0.991-7.696-1.988-11.438c-2.439-9.153-8.351-14.733-17.646-16.655c-0.802-0.166-1.599-0.208-2.19-0.855
		c6.868-1.111,13.681-2.859,20.633-3.089c12.376-0.408,21.37,7.859,23.153,20.167c1.922,13.266,4.254,26.472,6.4,39.705
		c0.797,4.918,1.825,9.815,2.308,14.766c1.186,12.144-7.515,22.736-19.617,24.308C98.255,230.238,93.194,231.067,88.124,231.82z"/>
	<path fill-rule="evenodd" clip-rule="evenodd" fill="#F39138" d="M196.902,232.425c0.978-1.185,2.535-1.306,3.785-1.993
		c6.021-3.31,9.875-8.209,11.37-14.887c0.46-2.053,0.703-4.197,0.71-6.3c0.055-17.443-0.044-34.887,0.058-52.329
		c0.066-11.531-5.695-20.75-16.057-23.835c-0.125-0.037-0.215-0.19-0.32-0.29c6.552,0.001,13.143-0.442,19.646,0.116
		c8.128,0.697,14.972,6.154,17.928,14.066c0.934,2.501,1.416,5.065,1.409,7.754c-0.051,19.074,0.001,38.148-0.11,57.223
		c-0.047,8.009-6.29,16.247-13.912,19.007c-3.091,1.118-6.254,1.609-9.503,1.606C206.905,232.558,201.903,232.475,196.902,232.425z"
		/>
	<path fill-rule="evenodd" clip-rule="evenodd" fill="#FCFEFE" d="M66.092,161.483c10.666-0.007,16.769,10.425,11.562,19.723
		c-1.378,2.462-3.079,4.653-5.043,6.67c-2.516,2.584-5.26,4.954-7.463,7.831c-0.577,0.754-1.135,1.563-1.499,2.431
		c-1.159,2.769-0.229,4.05,2.626,3.606c4.207-0.651,8.404-1.37,12.6-2.092c3.329-0.573,4.63-0.136,5.418,1.905
		c0.832,2.157-0.289,4.223-2.572,4.609c-6.948,1.175-13.899,2.336-20.856,3.461c-2.693,0.436-4.249-0.744-4.545-3.461
		c-0.262-2.39-1.107-4.709-0.677-7.188c0.726-4.182,3.597-7.011,6.222-9.958c2.396-2.691,5.123-5.085,7.34-7.946
		c1.607-2.073,2.848-4.271,2.63-7.053c-0.258-3.304-2.785-5.573-6.22-5.479c-3.727,0.104-5.812,2.151-5.832,5.727
		c-0.015,2.747-1.495,4.412-3.988,4.49c-2.213,0.068-3.259-1.445-3.563-4.362C51.405,166.451,59.258,161.196,66.092,161.483z"/>
	<path fill-rule="evenodd" clip-rule="evenodd" fill="#FEFCFC" d="M121.489,56.534c-3.246,1.508-4.663,1.172-5.259-0.923
		c-0.447-1.567,0.185-2.884,1.44-3.625c2.914-1.717,5.916-3.295,8.948-4.794c1.293-0.639,2.598-0.206,3.673,0.764
		c1.006,0.908,1.065,2.01,0.708,3.237c-3.74,12.851-7.456,25.708-11.211,38.554c-0.649,2.22-2.287,2.928-4.715,2.205
		c-2.388-0.71-3.197-2.208-2.455-4.787c2.118-7.349,4.281-14.685,6.417-22.028C119.83,62.408,120.596,59.67,121.489,56.534z"/>
	<path fill-rule="evenodd" clip-rule="evenodd" fill="#FEFCFB" d="M184.261,206.148c-4.251-0.043-8.982-1.472-11.907-6.452
		c-0.846-1.442-1.234-3.007-1.34-4.615c-0.113-1.711,0.238-3.251,2.398-3.55c3.06-0.423,4.441,0.258,4.957,2.541
		c0.904,4.003,3.363,5.65,7.8,5.226c4.421-0.423,6.178-2.256,6.318-6.602c0.017-0.516,0.023-1.031,0.019-1.547
		c-0.046-4.38-1.849-6.325-6.21-6.638c-1.284-0.092-2.502-0.18-3.175-1.533c-1.072-2.154-0.006-4.312,2.396-4.785
		c5.313-1.047,6.994-3.808,5.52-9.164c-0.169-0.616-0.501-1.268-0.946-1.714c-2.11-2.11-4.758-1.694-7.272-1.212
		c-2.117,0.406-3.059,1.961-3.285,4.146c-0.284,2.734-1.55,3.492-4.706,3.205c-2.131-0.194-2.829-1.054-2.756-3.647
		c0.135-4.722,2.611-7.946,6.859-9.626c4.529-1.791,9.207-1.833,13.785,0.017c2.924,1.181,4.853,3.347,5.495,6.441
		c1.026,4.947,0.792,9.677-3.018,13.573c-0.479,0.489-0.804,0.959-0.007,1.382c2.604,1.381,4.132,3.65,4.603,6.419
		c0.596,3.499,0.555,7.055-0.778,10.45C197.062,203.428,192.175,206.229,184.261,206.148z"/>
</g>
</svg>
