<?xml version="1.0" encoding="utf-8"?>
<!-- Generator: Adobe Illustrator 16.0.0, SVG Export Plug-In . SVG Version: 6.00 Build 0)  -->
<!DOCTYPE svg PUBLIC "-//W3C//DTD SVG 1.1//EN" "http://www.w3.org/Graphics/SVG/1.1/DTD/svg11.dtd">
<svg version="1.1" id="Layer_1" xmlns="http://www.w3.org/2000/svg" xmlns:xlink="http://www.w3.org/1999/xlink" x="0px" y="0px"
	 width="100px" height="100px" viewBox="0 0 100 100" enable-background="new 0 0 100 100" xml:space="preserve">
<path display="none" fill="#E86481" d="M8.767,73.18c0-15.463,0-30.926,0-46.388c0.128-0.018,0.153-0.115,0.19-0.219
	c1.416-3.984,3.671-5.58,7.884-5.58c16.122,0,32.244,0,48.365,0c6.224,0,12.446-0.01,18.67,0.004
	c3.442,0.008,6.173,2.11,7.125,5.413c0.052,0.181-0.049,0.453,0.231,0.543c0,15.409,0,30.818,0,46.227
	c-0.176,0.021-0.172,0.174-0.213,0.295c-1.297,3.797-3.688,5.504-7.701,5.504c-9.174,0-18.354,0-27.523,0
	c-13.198,0-26.397,0.004-39.595-0.004c-3.444-0.002-6.136-2.009-7.15-5.269C8.993,73.521,9.035,73.26,8.767,73.18z M82.816,26.035
	c-0.043-0.056-0.088-0.111-0.131-0.167c-21.797,0-43.597,0-65.394,0c-0.049,0.063-0.098,0.125-0.146,0.188
	c0.198,0.129,0.426,0.229,0.59,0.393c9.988,10.009,19.971,20.023,29.956,30.037c1.552,1.557,3.054,1.563,4.595,0.02
	c7.162-7.181,14.313-14.37,21.484-21.542C76.773,31.969,79.803,29.01,82.816,26.035z M17.05,74.096c22.072,0,43.868,0,65.722,0
	c-0.092-0.119-0.131-0.186-0.184-0.238c-6.648-6.67-13.303-13.336-19.938-20.021c-0.414-0.419-0.604-0.284-0.93,0.048
	c-2.035,2.064-4.09,4.112-6.136,6.164c-3.233,3.246-7.951,3.241-11.184-0.009c-1.987-1.998-3.992-3.978-5.954-5.999
	c-0.48-0.495-0.738-0.582-1.281-0.031c-4.787,4.852-9.605,9.672-14.425,14.49C20.911,70.334,19.045,72.137,17.05,74.096z
	 M13.658,29.396c0,13.71,0,27.506,0,41.4c0.7-0.706,1.32-1.335,1.944-1.962c6.083-6.102,12.163-12.209,18.262-18.295
	c0.444-0.443,0.466-0.68,0-1.11c-0.927-0.854-1.789-1.779-2.685-2.667C25.33,40.962,19.478,35.163,13.658,29.396z M86.376,29.316
	c-0.051-0.034-0.103-0.068-0.153-0.102c-0.17,0.203-0.328,0.418-0.514,0.605c-6.496,6.522-12.988,13.046-19.506,19.547
	c-0.492,0.49-0.52,0.721-0.01,1.229c6.574,6.555,13.125,13.137,19.675,19.719c0.139,0.144,0.212,0.35,0.315,0.521
	c0.063-0.061,0.129-0.115,0.188-0.174C86.376,56.879,86.376,43.098,86.376,29.316z"/>
<g>
	<path fill="#C2CFCF" d="M41.622,86.703c-0.045,0-0.091,0-0.136,0c0-5.391-0.005-10.779,0.008-16.169
		c0.001-0.457-0.104-0.8-0.422-1.15c-1.701-1.872-2.809-4.062-3.361-6.528c-0.072-0.323-0.14-0.647-0.213-0.99
		c-3.491,0-6.924,0-10.356-0.001c-3.457-0.003-6.913-0.009-10.37-0.013c0-15.013,0-30.024,0-45.05c23.287,0,46.574,0,69.912,0
		c0,15.01,0,30.03,0,45.05c-6.908,0-13.815,0-20.724,0c-0.062,0.248-0.114,0.422-0.147,0.602c-0.477,2.589-1.595,4.871-3.345,6.826
		c-0.386,0.431-0.51,0.846-0.508,1.394c0.015,5.345,0.008,10.688,0.008,16.032c-0.046,0-0.091,0-0.137,0
		c-0.185-0.122-0.354-0.268-0.552-0.364c-2.983-1.495-5.978-2.979-8.953-4.487c-0.434-0.221-0.77-0.209-1.197,0.008
		c-2.978,1.511-5.968,2.992-8.952,4.486C41.98,86.441,41.806,86.583,41.622,86.703z M37.488,57.73
		c0.917-6.865,7.06-12.088,13.937-12.266c6.323-0.162,13.416,4.473,14.55,12.262c5.519,0,11.033,0,16.563,0
		c0-12.287,0-24.535,0-36.776c-20.577,0-41.106,0-61.637,0c0,12.284,0,24.516,0,36.78C26.454,57.73,31.973,57.73,37.488,57.73z
		 M51.701,70.052c5.654,0.009,10.256-4.567,10.265-10.209c0.009-5.643-4.583-10.259-10.216-10.269
		c-5.639-0.011-10.256,4.587-10.264,10.22C41.478,65.445,46.058,70.043,51.701,70.052z M57.838,72.807
		c-4.115,1.809-8.168,1.784-12.228,0c0,2.438,0,4.791,0,7.211c0.269-0.121,0.494-0.213,0.711-0.319
		c1.523-0.761,3.063-1.49,4.559-2.304c0.604-0.326,1.07-0.338,1.683-0.011c1.717,0.915,3.476,1.753,5.275,2.651
		C57.838,77.598,57.838,75.245,57.838,72.807z"/>
	<path fill="#C2CFCF" d="M37.419,41.329c0-1.351,0-2.66,0-4.008c9.545,0,19.06,0,28.608,0c0,1.339,0,2.649,0,4.008
		C56.512,41.329,46.997,41.329,37.419,41.329z"/>
	<path fill="#C2CFCF" d="M41.516,33.137c0-1.352,0-2.661,0-4.009c6.814,0,13.597,0,20.417,0c0,1.34,0,2.649,0,4.009
		C55.146,33.137,48.361,33.137,41.516,33.137z"/>
	<path fill="#C2CFCF" d="M33.233,29.094c-1.38,0-2.736,0-4.145,0c0,1.361,0,2.67,0,4.036c-1.377,0-2.704,0-4.078,0
		c0-2.672,0-5.363,0-8.095c2.726,0,5.445,0,8.223,0C33.233,26.339,33.233,27.665,33.233,29.094z"/>
	<path fill="#C2CFCF" d="M70.189,29.126c0-1.436,0-2.745,0-4.094c2.748,0,5.467,0,8.242,0c0,2.677,0,5.366,0,8.105
		c-1.309,0-2.634,0-4.014,0c0-1.314,0-2.624,0-4.011C72.997,29.126,71.625,29.126,70.189,29.126z"/>
	<path fill="#C2CFCF" d="M25,53.621c0-2.732,0-5.406,0-8.112c1.344,0,2.653,0,4.041,0c0,1.333,0,2.659,0,4.038
		c1.431,0,2.786,0,4.197,0c0,1.377,0,2.703,0,4.074C30.513,53.621,27.778,53.621,25,53.621z"/>
	<path fill="#C2CFCF" d="M74.409,49.598c0-1.436,0-2.745,0-4.088c1.362,0,2.671,0,4.03,0c0,2.696,0,5.387,0,8.116
		c-2.738,0-5.476,0-8.246,0c0-1.333,0-2.642,0-4.028C71.564,49.598,72.938,49.598,74.409,49.598z"/>
	<path fill="#C2CFCF" d="M51.693,65.954c-3.363-0.011-6.108-2.767-6.11-6.134c-0.001-3.389,2.79-6.168,6.174-6.149
		c3.361,0.019,6.11,2.781,6.11,6.146C57.868,63.215,55.104,65.965,51.693,65.954z M53.771,59.85
		c0.018-1.101-0.896-2.051-1.998-2.082c-1.092-0.028-2.06,0.889-2.094,1.986c-0.036,1.137,0.893,2.098,2.032,2.104
		C52.826,61.863,53.755,60.958,53.771,59.85z"/>
</g>
</svg>
