<?xml version="1.0" encoding="utf-8"?>
<!-- Generator: Adobe Illustrator 16.0.0, SVG Export Plug-In . SVG Version: 6.00 Build 0)  -->
<!DOCTYPE svg PUBLIC "-//W3C//DTD SVG 1.1//EN" "http://www.w3.org/Graphics/SVG/1.1/DTD/svg11.dtd">
<svg version="1.1" xmlns="http://www.w3.org/2000/svg" xmlns:xlink="http://www.w3.org/1999/xlink" x="0px" y="0px" width="750px"
	 height="500px" viewBox="0 0 750 500" enable-background="new 0 0 750 500" xml:space="preserve">
<g id="BACKGROUND">
	<rect x="0.36" y="0.055" fill="#FFFFFF" width="750" height="500"/>
	<g>
		<defs>
			<rect id="SVGID_1_" x="0.36" y="0.055" width="750" height="500"/>
		</defs>
		<clipPath id="SVGID_2_">
			<use xlink:href="#SVGID_1_"  overflow="visible"/>
		</clipPath>
	</g>
</g>
<g id="OBJECTS">
	<g>
		<g>
			<polygon fill="#002C44" points="195.404,31.258 185.995,56.69 199.706,41.731 251.117,43.187 			"/>
			<path fill="#F4D158" d="M186.281,19.685c0,0,10.444,9.009,9.016,11.868l55.318,11.34
				C250.614,42.893,224.006,24.231,186.281,19.685z"/>
			<path fill="#01B8C1" d="M185.575,57.178c-0.432,0.808,20.973-2.177,20.973-2.177l-7.343-13.564
				C199.204,41.437,189.365,50.09,185.575,57.178z"/>
			<path fill="#FDB03F" d="M199.204,41.437c0,0,10.06,16.457,4.431,26.023l47.873-24.354
				C251.507,43.106,204.298,40.469,199.204,41.437z"/>
		</g>
	</g>
	<g>
		<g>
			<path fill="#FD7765" d="M626.605,391.142c-5.563,4.522-7.707,12.287-6.979,19.419s3.937,13.765,7.518,19.975
				c5.999,10.4,13.195,20.109,21.401,28.873c1.856-9.511,6.711-18.414,13.7-25.126"/>
		</g>
		<g>
			<path fill="#FD7765" d="M653.046,369.069c5.443-4.666,13.466-5.39,20.353-3.399c6.888,1.991,12.841,6.332,18.312,10.965
				c9.162,7.76,17.43,16.574,24.586,26.214c-9.689,0.128-19.315,3.314-27.168,8.992"/>
		</g>
		<path fill="#FDB03F" d="M637.506,378.439c-0.45,3.773-3.104,7.726-5.734,9.826c-2.953,2.359-6.532,3.337-10.11,3.1l39.369,47.158
			c6.904,8.271,19.206,9.378,27.477,2.474l0,0c8.27-6.904,9.377-19.206,2.473-27.477l-40.442-48.445
			C653.733,372.242,644.193,379.234,637.506,378.439z"/>
		<path fill="#D4F3F5" d="M646.725,360.507l-29.95,25.003l-10.128-12.131l-3.024-25.499c-0.521-4.389,3.596-7.894,7.846-6.68
			l25.129,7.176L646.725,360.507z"/>
		<path fill="#002C44" d="M616.493,342.635l-5.024-1.435c-4.25-1.214-8.366,2.291-7.846,6.68l0.594,5.004L616.493,342.635z"/>
		<g>
			<path fill="#FD7765" d="M735.354,498.881c-1.12-4.08-2.558-8.073-4.29-11.932c-0.867-1.93-1.808-3.826-2.819-5.683
				c-0.836-1.535-2.165-3.11-2.766-4.739c-1.161-3.152,5.15-3.317,6.929-4.261c2.021-1.071,1.425-2.452,0.507-4.213
				c-1.843-3.535-4.107-6.866-6.906-9.715c-6.2-6.31-15.625-10.045-24.098-7.513c-1.631,0.487-3.541,1.353-4.365,2.949
				c-2.584,5.003-4.693,10.166-3.319,15.956c0.95,4.006,3.255,7.566,5.896,10.722C708.854,490.886,721.812,497.665,735.354,498.881z
				"/>
		</g>
		<g>
			<path fill="#FDB03F" d="M719.2,478.576c-0.666-2.429-1.521-4.805-2.553-7.103c-0.517-1.148-1.076-2.277-1.679-3.382
				c-0.497-0.914-1.288-1.852-1.646-2.821c-0.691-1.877,3.065-1.975,4.124-2.536c1.202-0.638,0.848-1.459,0.302-2.508
				c-1.098-2.104-2.445-4.087-4.111-5.782c-3.69-3.756-9.301-5.979-14.344-4.473c-0.971,0.29-2.108,0.806-2.599,1.756
				c-1.538,2.979-2.793,6.052-1.976,9.498c0.565,2.385,1.938,4.503,3.51,6.382C703.426,473.817,711.139,477.851,719.2,478.576z"/>
		</g>
		<path fill="#01B8C1" d="M623.581,361.758c-0.45,3.773-3.104,7.726-5.733,9.826c-2.954,2.359-6.533,3.337-10.111,3.099
			l51.871,62.134l29.949-25.003l-52.944-63.42C639.807,355.561,630.268,362.553,623.581,361.758z"/>
		<g>
			<g>
				<path fill="#FFFFFF" d="M628.543,368.911c4.221,5.055,8.44,10.109,12.66,15.164c0.615,0.735,1.66-0.321,1.051-1.051
					c-4.221-5.054-8.44-10.109-12.66-15.164C628.979,367.125,627.935,368.18,628.543,368.911L628.543,368.911z"/>
			</g>
		</g>
		<g>
			<g>
				<path fill="#FFFFFF" d="M620.548,376.441c15.306,18.104,30.411,36.373,45.316,54.807c0.603,0.745,1.646-0.313,1.051-1.051
					c-14.906-18.434-30.012-36.703-45.316-54.807C620.98,374.658,619.934,375.714,620.548,376.441L620.548,376.441z"/>
			</g>
		</g>
	</g>
	<g>
		<g>
			<circle fill="#00BAC3" cx="695.695" cy="105.605" r="47.475"/>
			<g>
				<defs>
					<circle id="SVGID_3_" cx="695.695" cy="105.605" r="47.475"/>
				</defs>
				<clipPath id="SVGID_4_">
					<use xlink:href="#SVGID_3_"  overflow="visible"/>
				</clipPath>
				<g clip-path="url(#SVGID_4_)">
					<g>
						<path fill="#D4F3F5" d="M637.099,104.28c7.176,6.757,27.14,15.909,35.679,20.833c-0.152-3.102-0.305-6.204-0.457-9.306
							c3.584,2.214,7.252,4.462,11.36,5.396c4.107,0.933,8.809,0.327,11.843-2.595c1.309-1.259,2.245-2.877,3.619-4.064
							c1.374-1.188,3.482-1.863,4.995-0.858c1.941,1.289,1.593,4.151,1.949,6.454c0.567,3.667,3.467,6.636,6.796,8.276
							c3.33,1.64,7.079,2.171,10.756,2.681c5.056,0.701,10.759,1.237,14.736-1.961c2.286-1.838,3.573-4.611,4.783-7.282
							c1.37-3.024,2.755-6.49,1.47-9.551c-0.587-1.398-1.672-2.52-2.758-3.579c-4.375-4.267-9.169-8.104-14.291-11.438
							c-2.741-1.784-6.058-3.483-9.146-2.408c-3.292,1.146-4.761,4.843-6.604,7.803c-1.842,2.96-5.721,5.646-8.569,3.636
							c-1.746-1.231-3.067-4.073-5.055-3.289c-1.513,0.596-1.443,2.698-1.855,4.271c-0.821,3.131-4.61,4.867-7.746,4.063
							c-3.136-0.803-5.474-3.604-6.472-6.684c-0.304-0.939-0.53-1.959-1.219-2.667c-0.754-0.774-1.895-1.002-2.824-1.552
							c-2.189-1.295-2.866-4.074-3.603-6.509c-2.466-8.165-19.83-18.654-26.912-23.407"/>
					</g>
					<g>
						<path fill="#D4F3F5" d="M670.958,50.75c2.338,5.702,5.563,25.775,7.9,31.477c0.496,1.208,1.03,2.469,2.053,3.281
							c3.638,2.889,9.817-2.019,13.392,0.948c1.374,1.14,1.766,3.053,2.669,4.593c0.902,1.54,3.082,2.747,4.398,1.541
							c0.483-0.443,0.699-1.1,0.896-1.727c0.624-1.978,1.247-3.957,1.87-5.935c0.459-1.458,1.608-3.275,3.024-2.699
							c0.495,0.201,0.835,0.668,1.306,0.921c0.781,0.42,1.739,0.178,2.591-0.074c3.107-0.918,6.216-1.837,9.324-2.755
							c1.214-0.359,2.539-0.8,3.19-1.887c0.522-0.872,0.479-1.958,0.401-2.972c-0.226-2.891,3.511-15.924,2.957-18.771"/>
					</g>
					<g>
						<path fill="#5AEBF2" d="M737.458,83.123c-0.727,1.526-1.229,3.183-1.248,4.873c-0.032,2.9,1.37,5.669,3.289,7.843
							c1.92,2.175,4.335,3.842,6.724,5.487"/>
					</g>
					<g>
						<path fill="#D4F3F5" d="M679.087,158.787c3.161-1.713,6.083-11.759,9.244-13.472c2.486-1.346,5.581-2.689,7.981-1.196
							c0.768,0.478,1.355,1.201,2.11,1.698c1.628,1.07,3.776,0.929,5.647,0.389c1.871-0.541,3.64-1.438,5.557-1.787
							c4.072-0.74,8.368,9.403,12.112,11.167"/>
					</g>
				</g>
			</g>
			<g>
				<g>
					<path fill="#FDB03F" d="M661.246,63.68c-22.564,23.133-24.211,60.371-0.357,83.233c10.711,10.267,26.622,15.245,41.289,13.197
						c10.534-1.471,18.343-6.417,27.223-11.732c1.244-0.744,0.113-2.689-1.135-1.942c-6.203,3.712-12.093,7.755-19.045,9.928
						c-15.152,4.734-32.229,0.741-44.462-9.043c-25.857-20.682-23.889-59.529-1.921-82.049
						C663.85,64.232,662.26,62.64,661.246,63.68L661.246,63.68z"/>
				</g>
			</g>
			<path fill="#FDB03F" d="M665.981,63.796l-7.889,5.283l-2.642-3.944c-1.459-2.179-0.876-5.127,1.303-6.586l0,0
				c2.179-1.459,5.127-0.876,6.586,1.303L665.981,63.796z"/>
		</g>
		<g>
			<g>
				<path fill="#FFFFFF" d="M684.125,68.177c4.547-1.815,9.208-2.555,14.096-2.218c1.697,0.117,1.686-2.519,0-2.635
					c-5.101-0.352-10.047,0.416-14.797,2.312C681.867,66.258,682.545,68.808,684.125,68.177L684.125,68.177z"/>
			</g>
		</g>
		<g>
			<g>
				<path fill="#FFFFFF" d="M708.297,69.716c18.929,5.915,29.611,25.179,24.701,44.382c-0.421,1.647,2.12,2.346,2.541,0.7
					c5.273-20.62-6.241-41.28-26.541-47.624C707.372,66.667,706.681,69.211,708.297,69.716L708.297,69.716z"/>
			</g>
		</g>
	</g>
	<g>
		<g>
			<g>
				<path fill="#FDB03F" d="M97.244,452.757c7.81-5.824,16.229-10.882,24.689-15.695c4.069-2.315,8.182-4.556,12.371-6.646
					c4.239-2.114,9.161-5.744,13.948-3.114c5.327,2.928,6.094,10.133,1.667,14.23c-1.092,1.01,0.542,2.638,1.631,1.63
					c3.938-3.644,4.852-9.921,1.716-14.371c-1.476-2.094-3.626-3.699-6.096-4.416c-2.662-0.773-5.305-0.122-7.791,0.934
					c-2.513,1.066-4.902,2.435-7.337,3.667c-2.24,1.134-4.456,2.313-6.658,3.519c-4.942,2.705-9.816,5.54-14.617,8.49
					c-5.009,3.078-9.971,6.266-14.687,9.781C94.904,451.643,96.052,453.646,97.244,452.757L97.244,452.757z"/>
			</g>
		</g>
		<g>
			<g>
				<path fill="#FDB03F" d="M8.938,435.653c8.385-4.962,17.293-9.098,26.216-12.985c4.201-1.829,8.437-3.579,12.731-5.178
					c4.487-1.67,9.769-4.774,14.32-1.707c4.933,3.324,5.118,10.696,0.334,14.26c-1.177,0.877-0.028,2.88,1.164,1.991
					c4.327-3.223,5.992-9.114,3.487-14.001c-1.174-2.288-3.185-4.156-5.546-5.166c-2.556-1.094-5.231-0.811-7.839-0.037
					c-2.615,0.775-5.136,1.902-7.685,2.868c-2.347,0.89-4.676,1.826-6.994,2.791c-5.234,2.178-10.414,4.486-15.533,6.922
					c-5.369,2.554-10.702,5.222-15.82,8.251C6.498,434.417,7.657,436.412,8.938,435.653L8.938,435.653z"/>
			</g>
		</g>
		<g>
			<g>
				<g>
					<circle opacity="0.33" fill="#FFFFFF" cx="27.696" cy="439.88" r="19.955"/>
					<path opacity="0.22" fill="#FFFFFF" d="M15.138,424.474c-2.223,1.812-4.112,4.059-5.401,6.735
						c7.434,9.44,14.994,18.776,22.747,27.953c3.345-0.835,6.41-2.523,8.91-4.86C32.13,444.719,23.241,434.806,15.138,424.474z"/>
				</g>
				<circle fill="none" stroke="#FDB03F" stroke-width="1.5557" stroke-miterlimit="10" cx="27.696" cy="439.88" r="19.955"/>
			</g>
			<g>
				<g>
					<circle opacity="0.33" fill="#FFFFFF" cx="75.96" cy="451.597" r="19.955"/>
					<path opacity="0.22" fill="#FFFFFF" d="M63.402,436.191c-2.223,1.812-4.111,4.06-5.401,6.735
						c7.434,9.441,14.994,18.776,22.747,27.953c3.345-0.834,6.41-2.523,8.91-4.86C80.395,456.436,71.506,446.523,63.402,436.191z"/>
				</g>
				<circle fill="none" stroke="#FDB03F" stroke-width="1.5557" stroke-miterlimit="10" cx="75.96" cy="451.597" r="19.955"/>
			</g>
			
				<line fill="none" stroke="#FDB03F" stroke-width="1.5557" stroke-miterlimit="10" x1="56.568" y1="446.889" x2="47.088" y2="444.587"/>
		</g>
		<g>
			<path fill="#FDB03F" d="M8.584,432.637c-2.223,0.379-4.351,1.928-4.882,4.119s1.03,4.812,3.282,4.941"/>
		</g>
		<g>
			<path fill="#FDB03F" d="M95.175,447.503c1.888,0.063,3.601,1.673,3.781,3.553c0.18,1.881-1.198,3.786-3.04,4.204"/>
		</g>
	</g>
	<path opacity="0.26" fill="#01B8C1" d="M409.485,377.308l3.999,3.911c0.769,0.752,1.934,0.923,2.885,0.425l4.948-2.594
		c2.127-1.114,4.439,1.147,3.375,3.302l-2.477,5.01c-0.476,0.964-0.277,2.125,0.491,2.877l3.999,3.911
		c1.719,1.681,0.286,4.579-2.091,4.229l-5.529-0.814c-1.063-0.156-2.105,0.39-2.581,1.353l-2.477,5.011
		c-1.065,2.154-4.264,1.684-4.668-0.688l-0.941-5.514c-0.181-1.06-1.022-1.884-2.086-2.04l-5.529-0.814
		c-2.377-0.35-2.922-3.539-0.794-4.654l4.947-2.593c0.952-0.499,1.474-1.555,1.292-2.614l-0.94-5.514
		C404.904,377.127,407.766,375.627,409.485,377.308z"/>
	<path fill="#FFFFFF" d="M73.697,452.485l3.999,3.911c0.769,0.752,1.934,0.924,2.885,0.425l4.948-2.594
		c2.127-1.114,4.44,1.147,3.376,3.302l-2.477,5.011c-0.476,0.963-0.278,2.124,0.491,2.876l3.999,3.911
		c1.719,1.682,0.287,4.58-2.091,4.229l-5.529-0.814c-1.063-0.156-2.105,0.39-2.582,1.354l-2.477,5.011
		c-1.064,2.153-4.263,1.683-4.667-0.688l-0.941-5.514c-0.181-1.061-1.023-1.884-2.086-2.041l-5.529-0.813
		c-2.377-0.351-2.921-3.54-0.794-4.654l4.948-2.594c0.951-0.499,1.473-1.554,1.292-2.614l-0.941-5.514
		C69.116,452.304,71.978,450.804,73.697,452.485z"/>
	<path fill="#FDB03F" d="M683.055,307.755l-2.941,6.929c-0.565,1.332-0.21,2.876,0.881,3.824l5.676,4.931
		c2.44,2.119,0.739,6.127-2.482,5.849l-7.494-0.648c-1.441-0.124-2.8,0.693-3.365,2.025l-2.941,6.929
		c-1.265,2.979-5.6,2.604-6.326-0.547l-1.689-7.33c-0.325-1.409-1.521-2.447-2.961-2.572l-7.494-0.647
		c-3.222-0.279-4.199-4.519-1.427-6.188l6.45-3.882c1.24-0.746,1.859-2.206,1.534-3.615l-1.689-7.329
		c-0.727-3.151,3.004-5.396,5.444-3.277l5.676,4.931c1.092,0.948,2.67,1.085,3.91,0.339l6.449-3.882
		C681.037,301.924,684.32,304.776,683.055,307.755z"/>
	<path fill="#FDB03F" d="M56.101,331.539l-2.942,6.929c-0.565,1.332-0.209,2.876,0.881,3.824l5.676,4.931
		c2.44,2.12,0.738,6.128-2.483,5.849l-7.494-0.647c-1.441-0.125-2.799,0.692-3.365,2.024l-2.942,6.93
		c-1.265,2.979-5.599,2.604-6.326-0.548l-1.69-7.329c-0.325-1.409-1.52-2.448-2.961-2.572l-7.494-0.648
		c-3.222-0.278-4.199-4.519-1.426-6.188l6.45-3.882c1.24-0.746,1.86-2.205,1.535-3.614l-1.689-7.33
		c-0.727-3.151,3.004-5.396,5.444-3.276l5.676,4.931c1.091,0.947,2.669,1.084,3.91,0.338l6.45-3.882
		C54.083,325.708,57.366,328.56,56.101,331.539z"/>
	<path fill="#FFFFFF" d="M587.197,49.405l3.999,3.911c0.77,0.752,1.934,0.923,2.885,0.425l4.948-2.593
		c2.127-1.115,4.44,1.147,3.376,3.301l-2.477,5.01c-0.477,0.963-0.278,2.125,0.49,2.876l3.999,3.911
		c1.72,1.681,0.287,4.58-2.091,4.229l-5.529-0.814c-1.063-0.156-2.105,0.39-2.581,1.353l-2.477,5.011
		c-1.064,2.154-4.264,1.683-4.668-0.688l-0.94-5.514c-0.181-1.06-1.023-1.884-2.086-2.04l-5.53-0.814
		c-2.377-0.35-2.921-3.539-0.794-4.654l4.948-2.593c0.951-0.499,1.473-1.554,1.292-2.614l-0.941-5.514
		C582.616,49.224,585.478,47.723,587.197,49.405z"/>
	<g>
		<g>
			<g>
				<path fill="#FDB03F" d="M11.017,122.06c0.99,8.176,1.98,16.352,2.97,24.527c0.739,6.104,10.409,6.176,9.661,0
					c-0.99-8.176-1.98-16.352-2.97-24.527C19.939,115.956,10.27,115.884,11.017,122.06L11.017,122.06z"/>
			</g>
		</g>
		<g>
			<g>
				<path fill="#FDB03F" d="M7.375,139.957c7.147-1.167,14.37-1.531,21.572-2.218c6.146-0.586,6.203-10.253,0-9.661
					c-8.069,0.77-16.131,1.255-24.14,2.563C-1.33,131.642,1.283,140.951,7.375,139.957L7.375,139.957z"/>
			</g>
		</g>
	</g>
	<g>
		<g>
			<g>
				<path fill="#FFFFFF" d="M415.506,23.291c5.861,0.17,11.722,0.34,17.583,0.509c4.874,0.141,4.861-7.414,0-7.555
					c-5.861-0.169-11.722-0.339-17.583-0.509C410.631,15.595,410.646,23.15,415.506,23.291L415.506,23.291z"/>
			</g>
		</g>
		<g>
			<g>
				<path fill="#FFFFFF" d="M415.506,39.561c5.861,0.169,11.722,0.339,17.583,0.509c4.874,0.141,4.86-7.414,0-7.555
					c-5.861-0.17-11.722-0.34-17.583-0.509C410.631,31.865,410.645,39.42,415.506,39.561L415.506,39.561z"/>
			</g>
		</g>
	</g>
	<g>
		<g>
			<g>
				<path fill="#01B8C1" d="M249.158,447.563c4.433-5.673,8.864-11.347,13.296-17.02c1.555-1.99,1.95-4.609,0-6.559
					c-1.623-1.624-5-1.996-6.559,0c-4.433,5.673-8.864,11.347-13.296,17.02c-1.555,1.99-1.95,4.609,0,6.559
					C244.223,449.187,247.599,449.559,249.158,447.563L249.158,447.563z"/>
			</g>
		</g>
		<g>
			<g>
				<path fill="#01B8C1" d="M241.731,431.985c5.981,0,5.981-9.275,0-9.275S235.75,431.985,241.731,431.985L241.731,431.985z"/>
			</g>
		</g>
		<g>
			<g>
				<path fill="#01B8C1" d="M264.352,451.006c5.981,0,5.981-9.275,0-9.275S258.37,451.006,264.352,451.006L264.352,451.006z"/>
			</g>
		</g>
	</g>
	<circle fill="#FD9143" cx="96.083" cy="32.839" r="12"/>
	<circle fill="#FD9143" cx="522.094" cy="454.793" r="12"/>
	<g>
		<defs>
			<rect id="SVGID_5_" x="0.36" y="0.055" width="750" height="500"/>
		</defs>
		<clipPath id="SVGID_6_">
			<use xlink:href="#SVGID_5_"  overflow="visible"/>
		</clipPath>
		<g clip-path="url(#SVGID_6_)">
			
				<path fill="none" stroke="#01B8C1" stroke-width="3" stroke-linecap="round" stroke-linejoin="round" stroke-miterlimit="10" stroke-dasharray="8,8" d="
				M-54.36,194.338c0.817,27.332,24.386,52.25,51.667,54.112c27.281,1.861,54.211-20.041,57.48-47.189
				c0.813-6.754,0.208-13.99-3.534-19.67c-3.742-5.681-11.222-9.237-17.608-6.895c-7.201,2.64-10.364,11.938-7.949,19.218
				c2.416,7.28,9.07,12.479,16.218,15.261c15.148,5.894,33.629,1.938,45.037-9.64c12.844-13.036,15.714-32.516,20.558-50.163
				c10.629-38.724,28.573-98.69,87.1-93.37"/>
			
				<path fill="none" stroke="#FDB03F" stroke-width="3" stroke-linecap="round" stroke-linejoin="round" stroke-miterlimit="10" stroke-dasharray="8,8" d="
				M614.446,254.477c33.757-4.12,69.956,5.122,94.377,28.787c24.422,23.664,34.637,62.482,20.704,93.504
				c-5.525,12.303-16.377,23.941-29.862,23.821c-5.019-0.044-10.541-2.296-12.305-6.995c-2.344-6.244,3.914-13.262,10.581-13.472
				s12.622,4.546,16.141,10.213c6.718,10.817,6.174,25.685-1.316,35.981"/>
		</g>
		<g clip-path="url(#SVGID_6_)">
			<g>
				
					<rect x="411.425" y="19.422" transform="matrix(0.7821 -0.6231 0.6231 0.7821 83.4136 310.6501)" fill="#FFFFFF" width="148.978" height="33.254"/>
				<g>
					<g>
						<g>
							<path fill="#002C44" d="M424.166,64.952c1.698,1.764,3.396,3.529,5.093,5.294c0.672,0.698,1.73-0.364,1.061-1.061
								c-1.697-1.765-3.395-3.53-5.093-5.294C424.554,63.193,423.495,64.255,424.166,64.952L424.166,64.952z"/>
						</g>
					</g>
					<g>
						<g>
							<path fill="#002C44" d="M430.169,59.745c3.381,3.683,6.761,7.367,10.141,11.05c0.655,0.714,1.713-0.35,1.061-1.061
								c-3.38-3.684-6.76-7.367-10.141-11.05C430.575,57.97,429.517,59.034,430.169,59.745L430.169,59.745z"/>
						</g>
					</g>
					<g>
						<g>
							<path fill="#002C44" d="M435.698,55.333c1.399,1.578,2.798,3.156,4.197,4.734c0.643,0.725,1.7-0.34,1.061-1.061
								c-1.399-1.578-2.798-3.156-4.197-4.734C436.116,53.547,435.058,54.612,435.698,55.333L435.698,55.333z"/>
						</g>
					</g>
					<g>
						<g>
							<path fill="#002C44" d="M442.112,50.654c1.697,1.765,3.395,3.53,5.093,5.294c0.672,0.698,1.731-0.364,1.061-1.061
								c-1.698-1.765-3.396-3.529-5.093-5.294C442.5,48.895,441.442,49.957,442.112,50.654L442.112,50.654z"/>
						</g>
					</g>
					<g>
						<g>
							<path fill="#002C44" d="M448.116,45.447c3.38,3.683,6.76,7.367,10.14,11.05c0.655,0.714,1.713-0.35,1.061-1.061
								c-3.38-3.683-6.76-7.367-10.14-11.05C448.521,43.672,447.463,44.736,448.116,45.447L448.116,45.447z"/>
						</g>
					</g>
					<g>
						<g>
							<path fill="#002C44" d="M453.643,41.035c1.399,1.578,2.799,3.156,4.197,4.734c0.643,0.726,1.699-0.339,1.061-1.061
								c-1.398-1.579-2.798-3.156-4.197-4.734C454.061,39.25,453.003,40.314,453.643,41.035L453.643,41.035z"/>
						</g>
					</g>
					<g>
						<g>
							<path fill="#002C44" d="M460.057,36.355c1.698,1.765,3.396,3.53,5.093,5.294c0.672,0.698,1.73-0.364,1.061-1.061
								c-1.697-1.765-3.395-3.53-5.093-5.294C460.446,34.597,459.386,35.659,460.057,36.355L460.057,36.355z"/>
						</g>
					</g>
					<g>
						<g>
							<path fill="#002C44" d="M466.061,31.149c3.381,3.683,6.761,7.367,10.141,11.05c0.655,0.714,1.713-0.35,1.061-1.061
								c-3.38-3.684-6.76-7.367-10.141-11.05C466.466,29.375,465.409,30.438,466.061,31.149L466.061,31.149z"/>
						</g>
					</g>
					<g>
						<g>
							<path fill="#002C44" d="M471.589,26.737c1.398,1.579,2.798,3.156,4.197,4.734c0.643,0.725,1.7-0.34,1.061-1.061
								c-1.399-1.578-2.799-3.156-4.197-4.734C472.007,24.951,470.951,26.016,471.589,26.737L471.589,26.737z"/>
						</g>
					</g>
					<g>
						<g>
							<path fill="#002C44" d="M478.003,22.058c1.697,1.765,3.395,3.53,5.093,5.294c0.672,0.698,1.731-0.364,1.061-1.061
								c-1.698-1.764-3.396-3.529-5.093-5.294C478.392,20.299,477.333,21.361,478.003,22.058L478.003,22.058z"/>
						</g>
					</g>
					<g>
						<g>
							<path fill="#002C44" d="M484.007,16.851c3.38,3.684,6.76,7.367,10.14,11.05c0.655,0.714,1.713-0.35,1.061-1.061
								c-3.38-3.684-6.76-7.367-10.14-11.05C484.413,15.076,483.355,16.14,484.007,16.851L484.007,16.851z"/>
						</g>
					</g>
					<g>
						<g>
							<path fill="#002C44" d="M489.535,12.438c1.399,1.578,2.798,3.156,4.197,4.734c0.643,0.725,1.7-0.34,1.061-1.061
								c-1.399-1.578-2.798-3.156-4.197-4.734C489.953,10.653,488.895,11.718,489.535,12.438L489.535,12.438z"/>
						</g>
					</g>
					<g>
						<g>
							<path fill="#002C44" d="M495.949,7.759c1.697,1.765,3.396,3.529,5.093,5.294c0.672,0.698,1.73-0.364,1.061-1.061
								c-1.697-1.765-3.396-3.529-5.093-5.294C496.337,6,495.278,7.063,495.949,7.759L495.949,7.759z"/>
						</g>
					</g>
					<g>
						<g>
							<path fill="#002C44" d="M501.953,2.553c3.38,3.684,6.761,7.367,10.141,11.05c0.655,0.714,1.713-0.35,1.061-1.061
								c-3.38-3.684-6.761-7.367-10.141-11.05C502.358,0.778,501.3,1.842,501.953,2.553L501.953,2.553z"/>
						</g>
					</g>
					<g>
						<g>
							<path fill="#002C44" d="M507.481-1.859c1.398,1.579,2.798,3.156,4.197,4.734c0.643,0.725,1.7-0.34,1.061-1.061
								c-1.399-1.578-2.799-3.156-4.197-4.734C507.899-3.646,506.842-2.581,507.481-1.859L507.481-1.859z"/>
						</g>
					</g>
					<g>
						<g>
							<path fill="#002C44" d="M513.895-6.539c1.697,1.765,3.395,3.53,5.093,5.294c0.672,0.698,1.731-0.364,1.061-1.061
								c-1.698-1.765-3.396-3.53-5.093-5.294C514.284-8.298,513.225-7.236,513.895-6.539L513.895-6.539z"/>
						</g>
					</g>
					<g>
						<g>
							<path fill="#002C44" d="M519.899-11.746c3.38,3.683,6.76,7.367,10.14,11.05c0.655,0.714,1.713-0.35,1.061-1.061
								c-3.38-3.683-6.76-7.367-10.14-11.05C520.304-13.521,519.247-12.457,519.899-11.746L519.899-11.746z"/>
						</g>
					</g>
					<g>
						<g>
							<path fill="#002C44" d="M525.426-16.158c1.399,1.578,2.798,3.156,4.197,4.734c0.643,0.725,1.7-0.34,1.061-1.061
								c-1.399-1.578-2.798-3.156-4.197-4.734C525.844-17.943,524.787-16.878,525.426-16.158L525.426-16.158z"/>
						</g>
					</g>
				</g>
			</g>
			<g>
				<path fill="#038D87" d="M317.492,484.891c-2.412,2.938-6.775,4.838-10.123,5.191c-3.759,0.397-7.301-0.707-10.188-2.834
					l7.775,60.938c1.364,10.688,11.133,18.245,21.819,16.882l0,0c10.687-1.364,18.245-11.133,16.881-21.819l-7.987-62.601
					C334.502,488.408,322.698,489.162,317.492,484.891z"/>
				<path fill="#FDC0B8" d="M334.916,474.747l-38.701,4.938l-2-15.676l11.184-23.113c1.925-3.979,7.28-4.715,10.208-1.404
					l17.309,19.58L334.916,474.747z"/>
				<path fill="#038D87" d="M319.068,443.407l-3.461-3.916c-2.927-3.311-8.283-2.575-10.208,1.404l-2.195,4.535L319.068,443.407z"/>
				<path fill="#038D87" d="M314.742,463.336c-2.412,2.937-6.776,4.838-10.123,5.191c-3.759,0.397-7.301-0.707-10.188-2.834
					l10.244,80.288l38.701-4.938l-10.456-81.95C331.751,466.853,319.948,467.607,314.742,463.336z"/>
				<g>
					<g>
						<path fill="#FFFFFF" d="M315.055,471.875c0.833,6.532,1.667,13.063,2.5,19.596c0.12,0.937,1.606,0.948,1.485,0
							c-0.833-6.532-1.667-13.063-2.5-19.596C316.42,470.939,314.934,470.927,315.055,471.875L315.055,471.875z"/>
					</g>
				</g>
				<g>
					<g>
						<path fill="#FFFFFF" d="M304.263,473.915c3.146,23.497,6.035,47.026,8.667,70.586c0.105,0.94,1.591,0.951,1.485,0
							c-2.632-23.56-5.521-47.089-8.667-70.586C305.623,472.98,304.136,472.967,304.263,473.915L304.263,473.915z"/>
					</g>
				</g>
			</g>
			<g>
				<path fill="#E65B49" d="M378.359,502.181c-2.412,2.937-6.775,4.838-10.123,5.191c-3.759,0.397-7.301-0.707-10.188-2.834
					l7.775,60.938c1.364,10.687,11.133,18.245,21.819,16.881l0,0c10.687-1.363,18.245-11.132,16.882-21.818l-7.987-62.601
					C395.369,505.698,383.566,506.452,378.359,502.181z"/>
				<path fill="#FDC0B8" d="M395.784,492.037l-38.701,4.938l-2-15.676l11.184-23.114c1.925-3.979,7.281-4.715,10.208-1.403
					l17.309,19.579L395.784,492.037z"/>
				<path fill="#E65B49" d="M379.936,460.696l-3.462-3.915c-2.927-3.312-8.283-2.575-10.208,1.403l-2.194,4.536L379.936,460.696z"/>
				<path fill="#E65B49" d="M375.609,480.625c-2.412,2.938-6.776,4.839-10.123,5.192c-3.759,0.396-7.301-0.707-10.188-2.834
					l10.244,80.288l38.701-4.938l-10.456-81.95C392.619,484.143,380.815,484.897,375.609,480.625z"/>
				<g>
					<g>
						<path fill="#FFFFFF" d="M375.922,489.166c0.833,6.531,1.667,13.063,2.5,19.595c0.119,0.937,1.605,0.948,1.484,0
							c-0.833-6.531-1.667-13.063-2.5-19.595C377.288,488.229,375.801,488.217,375.922,489.166L375.922,489.166z"/>
					</g>
				</g>
				<g>
					<g>
						<path fill="#FFFFFF" d="M365.13,491.205c3.146,23.496,6.035,47.025,8.667,70.585c0.105,0.94,1.591,0.951,1.485,0
							c-2.632-23.56-5.521-47.089-8.667-70.585C366.49,490.27,365.003,490.257,365.13,491.205L365.13,491.205z"/>
					</g>
				</g>
			</g>
			<g>
				<path fill="#FD9143" d="M26.235,75.775c-0.237-3.793,1.66-8.159,3.868-10.699c2.48-2.853,5.824-4.459,9.386-4.871L-7.737,20.918
					c-8.282-6.89-20.582-5.762-27.472,2.521l0,0c-6.89,8.282-5.761,20.582,2.521,27.472L15.827,91.27
					C11.393,84.797,19.515,76.199,26.235,75.775z"/>
				<path fill="#FDC0B8" d="M20.401,95.075l24.951-29.993l12.149,10.107l7.572,24.535c1.303,4.224-2.113,8.413-6.512,7.985
					l-26.011-2.527L20.401,95.075z"/>
				<path fill="#FD9143" d="M53.359,107.204l5.202,0.505c4.399,0.428,7.815-3.761,6.512-7.985l-1.486-4.815L53.359,107.204z"/>
				<path fill="#FD9143" d="M42.94,89.672c-0.238-3.793,1.66-8.158,3.868-10.699c2.48-2.853,5.824-4.46,9.386-4.871L-6.028,22.339
					l-24.951,29.993l63.511,52.835C28.097,98.693,36.22,90.096,42.94,89.672z"/>
				<g>
					<g>
						<path fill="#FFFFFF" d="M36.872,83.619c-5.062-4.211-10.124-8.422-15.186-12.633c-0.73-0.608-1.787,0.437-1.05,1.05
							c5.062,4.211,10.124,8.422,15.186,12.633C36.553,85.276,37.609,84.231,36.872,83.619L36.872,83.619z"/>
					</g>
				</g>
				<g>
					<g>
						<path fill="#FFFFFF" d="M43.378,74.77C25.061,59.723,6.908,44.476-11.077,29.032c-0.722-0.621-1.778,0.425-1.05,1.05
							C5.858,45.526,24.01,60.772,42.329,75.82C43.062,76.422,44.119,75.378,43.378,74.77L43.378,74.77z"/>
					</g>
				</g>
			</g>
			<g>
				<path fill="#FDB03F" d="M434.772,470.979c-2.411,2.938-6.775,4.839-10.123,5.192c-3.759,0.396-7.301-0.707-10.188-2.834
					l7.774,60.938c1.364,10.687,11.133,18.245,21.819,16.881l0,0c10.688-1.363,18.245-11.132,16.882-21.819l-7.987-62.6
					C451.783,474.496,439.979,475.25,434.772,470.979z"/>
				<path fill="#FDC0B8" d="M452.197,460.835l-38.701,4.938l-2-15.676l11.184-23.114c1.926-3.979,7.281-4.715,10.208-1.403
					l17.31,19.579L452.197,460.835z"/>
				<path fill="#FDB03F" d="M436.349,429.495l-3.462-3.915c-2.927-3.312-8.282-2.575-10.207,1.403l-2.195,4.536L436.349,429.495z"/>
				<path fill="#FDB03F" d="M432.022,449.424c-2.411,2.938-6.775,4.839-10.123,5.192c-3.759,0.396-7.301-0.707-10.188-2.834
					l10.243,80.287l38.701-4.938l-10.456-81.95C449.032,452.941,437.229,453.696,432.022,449.424z"/>
				<g>
					<g>
						<path fill="#FFFFFF" d="M432.335,457.964c0.834,6.531,1.667,13.063,2.5,19.595c0.119,0.937,1.605,0.948,1.484,0
							c-0.833-6.531-1.666-13.063-2.5-19.595C433.701,457.028,432.214,457.016,432.335,457.964L432.335,457.964z"/>
					</g>
				</g>
				<g>
					<g>
						<path fill="#FFFFFF" d="M421.543,460.003c3.146,23.496,6.035,47.025,8.667,70.585c0.104,0.94,1.591,0.951,1.484,0
							c-2.631-23.56-5.521-47.089-8.667-70.585C422.903,459.069,421.417,459.056,421.543,460.003L421.543,460.003z"/>
					</g>
				</g>
			</g>
			<g>
				<path fill="#FFFFFF" d="M679.929,47.468c-1.084,2.606-2.862,4.605-4.997,6.396c-1.828,1.534-2.867,2.021-5.373,2.132
					c-5.186,0.231-10.453-1.268-14.69-4.278c-6.205-4.409-9.08-11.293-10.306-18.558c-2.087-12.364-1.086-25.563,4.821-36.623
					c5.907-11.061,17.202-19.597,29.722-20.297c5.073-0.284,10.167,0.684,14.957,2.383c11.948,4.238,22.602,13.999,24.799,26.484
					c0.613,3.483,0.522,7.236-1.165,10.345c-6.111,11.257-26.293,5.845-33.287,16.576C681.467,36.543,681.999,42.493,679.929,47.468
					z"/>
				<g>
					<circle fill="#002C44" cx="659.469" cy="19.022" r="7.053"/>
					<circle fill="#FF7765" cx="670.47" cy="-2.66" r="7.053"/>
					<circle fill="#01B8C1" cx="692.062" cy="-4.101" r="7.053"/>
				</g>
			</g>
			<g>
				<g>
					<path fill="#FF7765" d="M156.537,514.848l-11.868-11.825c-3.179-3.167-3.189-8.313-0.021-11.492l38.203-38.344
						c3.167-3.18,8.313-3.188,11.492-0.021l11.868,11.824c3.179,3.168,3.188,8.313,0.021,11.492l-38.203,38.345
						C164.861,518.005,159.716,518.015,156.537,514.848z"/>
					<path fill="#002C44" d="M162.195,473.918l-17.547,17.612c-3.168,3.18-3.158,8.325,0.021,11.492l11.868,11.824
						c3.179,3.168,8.325,3.158,11.492-0.021l17.547-17.612L162.195,473.918z"/>
					
						<ellipse transform="matrix(0.7084 0.7058 -0.7058 0.7084 392.1652 -2.3276)" fill="#E85D4C" cx="198.9" cy="473.462" rx="3.64" ry="4.611"/>
					
						<ellipse transform="matrix(0.7085 0.7057 -0.7057 0.7085 392.6369 7.4744)" fill="#E85D4C" cx="187.271" cy="479.008" rx="2.114" ry="2.797"/>
				</g>
				<g opacity="0.58">
					<g>
						<g>
							<path fill="#FFFFFF" d="M193.255,454.512c-2.921-1.969-7.019-1.384-9.244,1.358c-0.619,0.763,0.462,1.858,1.088,1.088
								c1.819-2.241,4.979-2.736,7.38-1.118C193.304,456.397,194.073,455.063,193.255,454.512L193.255,454.512z"/>
						</g>
					</g>
					<g>
						<g>
							<path fill="#FFFFFF" d="M178.812,461.328c-7.74,8.385-15.683,16.572-23.829,24.563c-0.709,0.695,0.379,1.783,1.088,1.088
								c8.146-7.991,16.089-16.179,23.829-24.563C180.571,461.688,179.486,460.597,178.812,461.328L178.812,461.328z"/>
						</g>
					</g>
				</g>
			</g>
		</g>
	</g>
</g>
</svg>
