<?xml version="1.0" encoding="utf-8"?>
<!-- Generator: Adobe Illustrator 16.0.0, SVG Export Plug-In . SVG Version: 6.00 Build 0)  -->
<!DOCTYPE svg PUBLIC "-//W3C//DTD SVG 1.1//EN" "http://www.w3.org/Graphics/SVG/1.1/DTD/svg11.dtd">
<svg version="1.1" id="Layer_1" xmlns="http://www.w3.org/2000/svg" xmlns:xlink="http://www.w3.org/1999/xlink" x="0px" y="0px"
	 width="240px" height="150px" viewBox="0 0 240 150" enable-background="new 0 0 240 150" xml:space="preserve">
<path fill-rule="evenodd" clip-rule="evenodd" fill="#E7D8B7" d="M157.164,0.158c-0.004,0.048-0.004,0.096-0.004,0.144
	c-1.471,0-2.943,0-4.416,0c0.002-0.048,0-0.096-0.004-0.144C154.215,0.158,155.689,0.158,157.164,0.158z"/>
<path fill-rule="evenodd" clip-rule="evenodd" fill="#FDFEFE" d="M216.455,91.026c-0.059-0.245,0.07-0.322,0.287-0.316
	c0,0.105,0,0.21,0,0.315C216.646,91.025,216.551,91.025,216.455,91.026z"/>
<rect x="-15.239" y="0.025" fill="#FFFFFF" width="260.507" height="149.95"/>
<g opacity="0.5">
	<g>
		<path fill="#C8DBF4" d="M140.146,99.138H55.91v-72.79c0-3.213,2.614-5.829,5.829-5.829h73.514c2.697,0,4.893,2.195,4.893,4.893
			V99.138z M57.235,97.813h81.585V25.412c0-1.967-1.601-3.567-3.567-3.567H61.739c-2.483,0-4.504,2.021-4.504,4.503V97.813z"/>
	</g>
	<rect x="56.573" y="35.781" fill="#C8DBF4" width="82.91" height="1.473"/>
	<rect x="56.573" y="47.646" fill="#C8DBF4" width="82.91" height="1.473"/>
	<rect x="56.573" y="59.509" fill="#C8DBF4" width="82.91" height="1.474"/>
	<rect x="56.573" y="71.417" fill="#C8DBF4" width="82.91" height="1.474"/>
	<g>
		<rect x="74.657" y="63.713" fill="#C8DBF4" width="2.07" height="7.705"/>
		<rect x="72.38" y="63.043" fill="#C8DBF4" width="1.794" height="8.374"/>
		
			<rect x="70.084" y="63.043" transform="matrix(-0.9926 -0.1214 0.1214 -0.9926 133.276 142.58)" fill="#D2E3FC" width="1.794" height="8.374"/>
		<rect x="132.507" y="63.713" fill="#C8DBF4" width="2.07" height="7.705"/>
		<rect x="130.229" y="63.043" fill="#C8DBF4" width="1.794" height="8.374"/>
		
			<rect x="127.933" y="63.043" transform="matrix(-0.9926 -0.1214 0.1214 -0.9926 248.5502 149.5983)" fill="#D2E3FC" width="1.795" height="8.374"/>
		<rect x="59.49" y="69.911" fill="#95C0F4" width="8.465" height="1.507"/>
		<rect x="58.454" y="68.875" fill="#B7D3F3" width="8.466" height="1.036"/>
		<rect x="59.287" y="67.839" fill="#D2E3FC" width="8.117" height="1.036"/>
		<rect x="59.09" y="67.047" fill="#C8DBF4" width="7.33" height="0.792"/>
		<rect x="100.125" y="69.911" fill="#D2E3FC" width="8.466" height="1.507"/>
		<rect x="99.09" y="68.875" fill="#B7D3F3" width="8.466" height="1.036"/>
		<rect x="99.921" y="67.839" fill="#D2E3FC" width="8.118" height="1.036"/>
		<rect x="99.726" y="67.047" fill="#C8DBF4" width="7.33" height="0.792"/>
		<rect x="98.811" y="66.011" fill="#B7D3F3" width="8.466" height="1.037"/>
		<rect x="99.643" y="64.975" fill="#D2E3FC" width="8.116" height="1.036"/>
		<rect x="99.447" y="64.184" fill="#C8DBF4" width="7.33" height="0.792"/>
		<rect x="93.779" y="63.043" fill="#C1D9F4" width="1.443" height="8.34"/>
		<rect x="111.524" y="62.661" fill="#C1D9F4" width="1.443" height="8.723"/>
		<rect x="115.896" y="63.043" fill="#C1D9F4" width="1.442" height="8.34"/>
		<rect x="91.955" y="62.355" fill="#E4EEF9" width="1.824" height="9.028"/>
		<rect x="117.641" y="62.355" fill="#E4EEF9" width="1.823" height="9.028"/>
		<rect x="90.13" y="62.786" fill="#B7D3F3" width="1.825" height="8.598"/>
		
			<rect x="108.002" y="61.543" transform="matrix(-0.9851 0.1719 -0.1719 -0.9851 227.6224 113.1365)" fill="#B7D3F3" width="1.824" height="9.757"/>
		<rect x="88.307" y="64.104" fill="#C8DBF4" width="1.824" height="7.279"/>
		<rect x="120.026" y="64.104" fill="#C8DBF4" width="1.823" height="7.279"/>
		<rect x="86.483" y="63.713" fill="#95C0F4" width="1.824" height="7.671"/>
		<rect x="84.368" y="63.713" fill="#D2E3FC" width="1.823" height="7.671"/>
		<rect x="122.104" y="63.713" fill="#D2E3FC" width="1.823" height="7.671"/>
		<rect x="82.203" y="63.043" fill="#AFCDFB" width="1.824" height="8.34"/>
		<rect x="113.887" y="63.043" fill="#AFCDFB" width="1.823" height="8.34"/>
	</g>
	<rect x="56.573" y="88.063" fill="#C8DBF4" width="82.91" height="1.474"/>
	<g>
		<rect x="74.657" y="80.358" fill="#C8DBF4" width="2.07" height="7.704"/>
		<rect x="72.38" y="79.688" fill="#C8DBF4" width="1.794" height="8.374"/>
		
			<rect x="70.084" y="79.688" transform="matrix(-0.9925 -0.1219 0.1219 -0.9925 131.2059 175.7795)" fill="#D2E3FC" width="1.794" height="8.375"/>
		<rect x="132.507" y="80.358" fill="#C8DBF4" width="2.07" height="7.704"/>
		<rect x="130.229" y="79.688" fill="#C8DBF4" width="1.794" height="8.374"/>
		
			<rect x="127.933" y="79.688" transform="matrix(-0.9925 -0.1219 0.1219 -0.9925 246.4768 182.8289)" fill="#D2E3FC" width="1.795" height="8.375"/>
		<rect x="59.49" y="86.556" fill="#95C0F4" width="8.465" height="1.507"/>
		<rect x="58.454" y="85.52" fill="#B7D3F3" width="8.466" height="1.036"/>
		<rect x="59.287" y="84.483" fill="#D2E3FC" width="8.117" height="1.036"/>
		<rect x="59.09" y="83.691" fill="#C8DBF4" width="7.33" height="0.792"/>
		<rect x="100.125" y="86.556" fill="#D2E3FC" width="8.466" height="1.507"/>
		<rect x="99.09" y="85.52" fill="#B7D3F3" width="8.466" height="1.036"/>
		<rect x="99.921" y="84.483" fill="#D2E3FC" width="8.118" height="1.036"/>
		<rect x="99.726" y="83.691" fill="#C8DBF4" width="7.33" height="0.792"/>
		<rect x="98.811" y="82.656" fill="#B7D3F3" width="8.466" height="1.035"/>
		<rect x="99.643" y="81.62" fill="#D2E3FC" width="8.116" height="1.036"/>
		<rect x="99.447" y="80.829" fill="#C8DBF4" width="7.33" height="0.791"/>
		<rect x="89.353" y="79.688" fill="#C1D9F4" width="1.443" height="8.341"/>
		<rect x="111.524" y="79.307" fill="#C1D9F4" width="1.443" height="8.723"/>
		<rect x="115.896" y="79.688" fill="#C1D9F4" width="1.442" height="8.341"/>
		<rect x="87.529" y="79" fill="#E4EEF9" width="1.824" height="9.029"/>
		<rect x="117.641" y="79" fill="#E4EEF9" width="1.823" height="9.029"/>
		<rect x="85.706" y="79.431" fill="#B7D3F3" width="1.824" height="8.599"/>
		
			<rect x="108.002" y="78.188" transform="matrix(-0.9851 0.1719 -0.1719 -0.9851 230.483 146.1789)" fill="#B7D3F3" width="1.824" height="9.758"/>
		<rect x="83.882" y="80.75" fill="#C8DBF4" width="1.824" height="7.279"/>
		<rect x="120.026" y="80.75" fill="#C8DBF4" width="1.823" height="7.279"/>
		<rect x="82.057" y="80.358" fill="#95C0F4" width="1.825" height="7.671"/>
		<rect x="79.942" y="80.358" fill="#D2E3FC" width="1.824" height="7.671"/>
		<rect x="122.104" y="80.358" fill="#D2E3FC" width="1.823" height="7.671"/>
		<rect x="77.777" y="79.688" fill="#AFCDFB" width="1.824" height="8.341"/>
		<rect x="113.887" y="79.688" fill="#AFCDFB" width="1.823" height="8.341"/>
	</g>
	<g>
		<rect x="116.305" y="28.109" fill="#C8DBF4" width="2.07" height="7.705"/>
		<rect x="118.858" y="27.44" fill="#C8DBF4" width="1.794" height="8.374"/>
		
			<rect x="121.154" y="27.44" transform="matrix(0.9926 -0.1213 0.1213 0.9926 -2.9349 15.0371)" fill="#D2E3FC" width="1.795" height="8.373"/>
		<rect x="82.986" y="39.941" fill="#C8DBF4" width="2.07" height="7.705"/>
		<rect x="85.539" y="39.272" fill="#C8DBF4" width="1.794" height="8.375"/>
		
			<rect x="87.835" y="39.272" transform="matrix(0.9926 -0.1214 0.1214 0.9926 -4.6193 11.0924)" fill="#D2E3FC" width="1.794" height="8.374"/>
		<rect x="58.454" y="28.109" fill="#C8DBF4" width="2.071" height="7.705"/>
		<rect x="61.008" y="27.44" fill="#C8DBF4" width="1.794" height="8.374"/>
		
			<rect x="63.304" y="27.44" transform="matrix(0.9926 -0.1214 0.1214 0.9926 -3.3652 8.0293)" fill="#D2E3FC" width="1.794" height="8.374"/>
		<rect x="125.076" y="34.307" fill="#95C0F4" width="8.466" height="1.507"/>
		<rect x="126.111" y="33.271" fill="#B7D3F3" width="8.466" height="1.037"/>
		<rect x="125.629" y="32.235" fill="#D2E3FC" width="8.116" height="1.036"/>
		<rect x="126.611" y="31.443" fill="#C8DBF4" width="7.33" height="0.792"/>
		<rect x="84.441" y="34.307" fill="#D2E3FC" width="8.466" height="1.507"/>
		<rect x="85.477" y="33.271" fill="#B7D3F3" width="8.466" height="1.037"/>
		<rect x="84.994" y="32.235" fill="#D2E3FC" width="8.116" height="1.036"/>
		<rect x="85.976" y="31.443" fill="#C8DBF4" width="7.33" height="0.792"/>
		<rect x="85.755" y="30.407" fill="#B7D3F3" width="8.466" height="1.036"/>
		<rect x="85.271" y="29.371" fill="#D2E3FC" width="8.118" height="1.036"/>
		<rect x="86.255" y="28.58" fill="#C8DBF4" width="7.33" height="0.792"/>
		<rect x="97.81" y="27.44" fill="#C1D9F4" width="1.443" height="8.341"/>
		<rect x="80.064" y="27.058" fill="#C1D9F4" width="1.443" height="8.724"/>
		<rect x="75.693" y="27.44" fill="#C1D9F4" width="1.443" height="8.341"/>
		<rect x="99.253" y="26.752" fill="#E4EEF9" width="1.825" height="9.029"/>
		<rect x="73.568" y="26.752" fill="#E4EEF9" width="1.824" height="9.029"/>
		<rect x="101.078" y="27.183" fill="#B7D3F3" width="1.824" height="8.599"/>
		
			<rect x="83.206" y="25.939" transform="matrix(0.9851 0.1721 -0.1721 0.9851 6.5598 -14.0185)" fill="#B7D3F3" width="1.824" height="9.758"/>
		<rect x="110.939" y="46.139" fill="#D2E3FC" width="8.465" height="1.507"/>
		<rect x="111.975" y="45.102" fill="#B7D3F3" width="8.466" height="1.037"/>
		<rect x="111.491" y="44.066" fill="#D2E3FC" width="8.116" height="1.036"/>
		<rect x="112.475" y="43.275" fill="#C8DBF4" width="7.33" height="0.791"/>
		<rect x="112.254" y="42.238" fill="#B7D3F3" width="8.466" height="1.037"/>
		<rect x="111.77" y="41.202" fill="#D2E3FC" width="8.117" height="1.036"/>
		<rect x="112.753" y="40.411" fill="#C8DBF4" width="7.33" height="0.791"/>
		
			<rect x="109.704" y="37.771" transform="matrix(0.9851 0.1719 -0.1719 0.9851 8.9756 -18.3761)" fill="#B7D3F3" width="1.824" height="9.758"/>
		<rect x="102.901" y="28.501" fill="#C8DBF4" width="1.823" height="7.28"/>
		<rect x="71.182" y="28.501" fill="#C8DBF4" width="1.824" height="7.28"/>
		<rect x="104.724" y="28.109" fill="#95C0F4" width="1.825" height="7.672"/>
		<rect x="106.84" y="28.109" fill="#D2E3FC" width="1.824" height="7.672"/>
		<rect x="69.104" y="28.109" fill="#D2E3FC" width="1.824" height="7.672"/>
		<rect x="104.147" y="38.617" fill="#E4EEF9" width="1.824" height="9.029"/>
		<rect x="101.761" y="40.365" fill="#C8DBF4" width="1.825" height="7.28"/>
		<rect x="99.684" y="39.974" fill="#D2E3FC" width="1.824" height="7.671"/>
		<rect x="93.588" y="39.974" fill="#D2E3FC" width="1.824" height="7.671"/>
		<rect x="91.043" y="39.974" fill="#D2E3FC" width="1.824" height="7.671"/>
		<rect x="62.328" y="38.617" fill="#E4EEF9" width="1.824" height="9.029"/>
		
			<rect x="64.697" y="38.617" transform="matrix(0.9926 -0.1215 0.1215 0.9926 -4.7554 8.2931)" fill="#E4EEF9" width="1.824" height="9.029"/>
		<rect x="59.941" y="40.365" fill="#C8DBF4" width="1.824" height="7.28"/>
		<rect x="57.864" y="39.974" fill="#D2E3FC" width="1.824" height="7.671"/>
		<rect x="109.005" y="27.44" fill="#AFCDFB" width="1.824" height="8.341"/>
		<rect x="89.565" y="51.168" fill="#C1D9F4" width="1.443" height="8.341"/>
		<rect x="91.008" y="50.481" fill="#E4EEF9" width="1.824" height="9.028"/>
		<rect x="92.832" y="50.911" fill="#B7D3F3" width="1.824" height="8.598"/>
		<rect x="94.656" y="52.23" fill="#C8DBF4" width="1.824" height="7.279"/>
		<rect x="96.479" y="51.838" fill="#95C0F4" width="1.824" height="7.671"/>
		<rect x="98.594" y="51.838" fill="#D2E3FC" width="1.825" height="7.671"/>
		<rect x="100.76" y="51.168" fill="#AFCDFB" width="1.824" height="8.341"/>
		<rect x="123.176" y="39.304" fill="#C1D9F4" width="1.443" height="8.341"/>
		<rect x="124.619" y="38.617" fill="#E4EEF9" width="1.824" height="9.029"/>
		<rect x="126.443" y="39.047" fill="#B7D3F3" width="1.823" height="8.599"/>
		<rect x="128.267" y="40.365" fill="#C8DBF4" width="1.823" height="7.28"/>
		<rect x="130.09" y="39.974" fill="#95C0F4" width="1.825" height="7.671"/>
		<rect x="132.206" y="39.974" fill="#D2E3FC" width="1.824" height="7.671"/>
		<rect x="134.37" y="39.304" fill="#AFCDFB" width="1.825" height="8.341"/>
		<rect x="77.321" y="27.44" fill="#AFCDFB" width="1.824" height="8.341"/>
		<rect x="120.287" y="58.04" fill="#D2E3FC" width="8.466" height="1.507"/>
		<rect x="121.322" y="57.004" fill="#B7D3F3" width="8.466" height="1.036"/>
		<rect x="120.84" y="55.967" fill="#D2E3FC" width="8.116" height="1.037"/>
		<rect x="121.822" y="55.176" fill="#C8DBF4" width="7.331" height="0.792"/>
		<rect x="121.602" y="54.14" fill="#B7D3F3" width="8.465" height="1.036"/>
		<rect x="121.118" y="53.104" fill="#D2E3FC" width="8.115" height="1.037"/>
		<rect x="122.102" y="52.312" fill="#C8DBF4" width="7.329" height="0.792"/>
		<rect x="115.91" y="50.79" fill="#C1D9F4" width="1.443" height="8.724"/>
		<rect x="111.539" y="51.173" fill="#C1D9F4" width="1.443" height="8.341"/>
		<rect x="109.414" y="50.485" fill="#E4EEF9" width="1.823" height="9.029"/>
		
			<rect x="119.052" y="49.672" transform="matrix(0.9851 0.1722 -0.1722 0.9851 11.1865 -19.8442)" fill="#B7D3F3" width="1.823" height="9.757"/>
		<rect x="107.028" y="52.233" fill="#C8DBF4" width="1.823" height="7.28"/>
		<rect x="104.951" y="51.841" fill="#D2E3FC" width="1.824" height="7.672"/>
		<rect x="85.761" y="50.485" fill="#E4EEF9" width="1.825" height="9.029"/>
		<rect x="83.375" y="52.233" fill="#C8DBF4" width="1.824" height="7.28"/>
		<rect x="81.297" y="51.841" fill="#D2E3FC" width="1.823" height="7.672"/>
		<rect x="78.456" y="50.485" fill="#E4EEF9" width="1.824" height="9.029"/>
		<rect x="76.069" y="52.233" fill="#C8DBF4" width="1.824" height="7.28"/>
		<rect x="73.992" y="51.841" fill="#D2E3FC" width="1.824" height="7.672"/>
		<rect x="113.166" y="51.173" fill="#AFCDFB" width="1.825" height="8.341"/>
	</g>
</g>
<g>
	<g>
		<path fill="#C8DBF4" d="M1.223,85.413c0,0,2.179-2.541,0.135-4.156c0,0-1.493-0.903-2.711-0.83c0,0,1.726,2.893,1.168,3.181
			c-0.559,0.287-1.69-3.362-1.69-3.362s-3.398-0.33-4.491,0.196c0,0,2.905,2.378,2.293,2.518c-0.612,0.143-3.75-2.19-3.75-2.19
			s-3.163,0.538-2.994,2.467c0.168,1.93,1.258,2.525,1.737,2.474c0.479-0.051,3.281-1.121,3.342-0.728
			c0.061,0.393-1.625,1.675-2.807,1.735c0,0,2.229,2.458,3.712,1.748c1.481-0.709,1.608-1.834,2.532-2.256
			c0.924-0.422,1.712-0.421,1.331,0.009c-0.382,0.431-2.053,0.85-2.581,1.783c-0.528,0.935-1.003,1.564,0.531,1.334
			c1.533-0.23,4.025-1.353,4.134-2.637C1.223,85.413,1.223,85.413,1.223,85.413z"/>
		<g>
			<path fill="#C8DBF4" d="M-9.264,83.288c0,0,8.59-0.331,10.487,2.125c0,0,0.42,1.256,1.711,2.401l0.201,0.547
				c0,0-1.488-1.568-2.021-1.663C1.113,86.698,1.946,83.655-9.264,83.288z"/>
			<path fill="#C8DBF4" d="M2.934,87.814c0,0,1.844,1.362,1.972,3.8L4.57,91.644c0,0-0.588-2.519-1.653-3.505
				C1.853,87.154,2.934,87.814,2.934,87.814z"/>
		</g>
	</g>
	<g>
		<path fill="#C8DBF4" d="M8.84,82.217c0,0-3.466-1.94-1.848-4.574c0,0,1.294-1.617,2.68-2.034c0,0-0.74,3.928,0,4.02
			c0.739,0.093,0.508-4.436,0.508-4.436s3.65-1.756,5.083-1.618c0,0-2.264,3.835-1.524,3.744c0.739-0.094,3.281-3.974,3.281-3.974
			s3.743-0.693,4.343,1.524c0.601,2.218-0.37,3.328-0.924,3.466c-0.554,0.138-4.112,0.092-4.02,0.555
			c0.092,0.461,2.495,1.201,3.835,0.784c0,0-1.479,3.65-3.419,3.466s-2.542-1.386-3.743-1.478c-1.201-0.094-2.079,0.23-1.479,0.554
			c0.601,0.324,2.634,0.105,3.604,0.932c0.97,0.824,1.756,1.333-0.046,1.702s-5.037,0.139-5.684-1.247
			C8.84,82.217,8.84,82.217,8.84,82.217z"/>
		<g>
			<path fill="#C8DBF4" d="M19.652,75.563c0,0-9.704,3.142-10.813,6.654c0,0,0.046,1.571-0.924,3.373v0.692
				c0,0,1.016-2.355,1.571-2.679C9.487,83.604,7.315,80.553,19.652,75.563z"/>
			<path fill="#C8DBF4" d="M7.916,85.59c0,0-1.497,2.273-0.644,5.039l0.385-0.104c0,0-0.373-3.047,0.409-4.579
				C8.85,84.414,7.916,85.59,7.916,85.59z"/>
		</g>
	</g>
	<g>
		<path fill="#D4E4F8" d="M3.326,79.54c0,0,4.568-2.559,2.437-6.03c0,0-1.706-2.132-3.533-2.68c0,0,0.975,5.176,0,5.298
			s-0.67-5.847-0.67-5.847s-4.812-2.314-6.7-2.132c0,0,2.985,5.056,2.01,4.934c-0.975-0.122-4.325-5.238-4.325-5.238
			s-4.934-0.913-5.726,2.01c-0.792,2.924,0.487,4.386,1.218,4.568c0.731,0.182,5.421,0.122,5.299,0.731
			c-0.122,0.609-3.289,1.583-5.056,1.035c0,0,1.95,4.813,4.508,4.568c2.558-0.242,3.35-1.826,4.934-1.948
			c1.583-0.122,2.74,0.305,1.949,0.73c-0.792,0.427-3.472,0.141-4.751,1.228c-1.279,1.087-2.314,1.757,0.061,2.245
			c2.375,0.487,6.639,0.183,7.492-1.646C3.326,79.54,3.326,79.54,3.326,79.54z"/>
		<g>
			<path fill="#D4E4F8" d="M-10.927,70.769c0,0,12.792,4.142,14.253,8.771c0,0-0.061,2.071,1.219,4.447V84.9
				c0,0-1.34-3.106-2.071-3.533C2.474,81.367,5.336,77.347-10.927,70.769z"/>
			<path fill="#D4E4F8" d="M4.545,83.987c0,0,1.972,2.995,0.848,6.642l-0.507-0.137c0,0,0.493-4.016-0.54-6.036
				C3.313,82.437,4.545,83.987,4.545,83.987z"/>
		</g>
	</g>
	<path fill="#D4E4F8" d="M3.48,98.537c-4.941,0-8.948-4.007-8.948-8.949h17.896C12.429,94.53,8.422,98.537,3.48,98.537z"/>
	<path fill="#D4E4F8" d="M-5.592,98.991h18.144l0,0c0-0.609-0.494-1.104-1.104-1.104H-4.488
		C-5.098,97.888-5.592,98.382-5.592,98.991L-5.592,98.991z"/>
	<rect x="-5.671" y="89.588" fill="#9FC1F4" width="18.395" height="0.273"/>
</g>
<g opacity="0.5">
	<g>
		<rect x="195.122" y="19.334" fill="#BAD4F4" width="42.603" height="80.852"/>
		<rect x="196.992" y="20.754" fill="#DFEBFD" width="38.914" height="79.432"/>
		<ellipse fill="#C8DBF4" cx="231.026" cy="59.926" rx="1.72" ry="1.786"/>
	</g>
</g>
<rect x="-15.239" y="98.991" opacity="0.8" fill="#FFFFFF" width="260.507" height="50.983"/>
<g>
	<g>
		<g>
			<g>
				<g>
					<path fill="#84A6F4" d="M92.816,103.395c-0.02,0.002-0.037,0.004-0.054,0.004c-0.146,0-0.275-0.088-0.306-0.217l-3.458-14.807
						l-0.001-0.001l-0.251-1.078l1.183-0.051l0.387,2.018l2.667,13.929C92.999,103.286,92.926,103.378,92.816,103.395z"/>
				</g>
				<g>
					<path fill="#84A6F4" d="M75.236,87.296l-0.569,2.438l-3.142,13.448c-0.03,0.129-0.159,0.217-0.306,0.217
						c-0.018,0-0.035-0.002-0.054-0.004c-0.109-0.017-0.183-0.108-0.166-0.203l2.843-14.85l0.21-1.097L75.236,87.296z"/>
				</g>
				<path fill="#84A6F4" d="M75.236,87.296l-0.569,2.438c-0.082-0.989-0.824-1.392-0.824-1.392l0.21-1.097L75.236,87.296z"/>
				<path fill="#84A6F4" d="M90.315,89.263c-0.584-0.853-1.294-0.854-1.317-0.888l-0.001-0.001l-0.251-1.078l1.183-0.051
					L90.315,89.263z"/>
			</g>
			<path fill="#84A6F4" d="M90.022,87.402H72.876c-0.839,0-1.525-0.686-1.525-1.524v-1.204c0-0.84,0.687-1.526,1.525-1.526h17.146
				c0.839,0,1.526,0.687,1.526,1.526v1.204C91.549,86.717,90.862,87.402,90.022,87.402z"/>
		</g>
		<path fill="#84A6F4" d="M90.996,84.498H71.958c-0.534,0-0.971-0.438-0.971-0.971V67.25c0-0.534,0.437-0.972,0.971-0.972h19.038
			c0.534,0,0.971,0.438,0.971,0.972v16.277C91.967,84.061,91.53,84.498,90.996,84.498z"/>
	</g>
	<path fill="#B5493F" d="M81.928,52.131c0,0-2.3-0.872-3.626,0.228c-1.326,1.099-2.236,6.756-1.781,7.812
		c0.455,1.055,1.781,1.684,1.781,1.684s-0.278-0.622-0.177-1.105c0,0,0.379,1.222,1.389,1.456c1.011,0.234,4.609-0.055,5.306-0.351
		c0.804-0.34,1.263-0.693,1.465-1.684C86.486,59.179,87.296,50.388,81.928,52.131z"/>
	<path fill="#FFB27D" d="M87.826,79.453c-0.494-2.724-1.937-5.827-1.937-5.827c1.047-4.344-0.021-9.229-0.021-9.229
		c-0.568-0.154-1.161-0.262-1.756-0.333c-0.073-0.388-0.285-1.554-0.375-2.558c-0.009-0.117-0.018-0.231-0.026-0.342
		c-0.017-0.285-0.021-0.547-0.003-0.759l-0.738,0.048l-3.037,0.2l-0.129,0.008c0,0,0.019,0.27,0.023,0.676
		c0.009,0.73-0.026,1.899-0.291,2.738c-1.307,0.134-2.192,0.323-2.192,0.323c-0.855,0.145-0.676,5.415,0.922,9.51
		c0.736,1.886-1.342,4.805-1.342,5.542C76.925,80.192,88.004,80.438,87.826,79.453z"/>
	<path fill="#EF9E67" d="M83.736,61.508c-0.285,0.332-1.004,1.046-1.92,1.063c-1.192,0.021-1.989-1.23-1.989-1.23
		c0.023-0.259,0.059-0.487,0.105-0.685l3.037-0.2c0.319,0.275,0.584,0.543,0.741,0.71C83.719,61.277,83.727,61.391,83.736,61.508z"
		/>
	<path fill="#FFB27D" d="M81.794,61.863L81.794,61.863c-1.653,0-3.005-1.352-3.005-3.004v-2.504c0-1.113,0.911-2.024,2.024-2.024
		h1.822c1.114,0,2.024,0.911,2.024,2.024v2.643C84.66,60.573,83.37,61.863,81.794,61.863z"/>
	<path fill="#FFFFFF" d="M80.803,59.997c0,0,0.063,0.397,1.038,0.411c0,0,0.819,0.011,0.827-0.42
		C82.667,59.988,81.9,59.624,80.803,59.997z"/>
	<path fill="#22356B" d="M73.626,84.331c0,0,2.021-4.68,3.873-5.595c1.851-0.914,9.22-0.102,10.327,0.717
		c1.106,0.821,2.52,4.878,2.52,4.878H73.626z"/>
	<path fill="#1B2E59" d="M75.47,84.331c0,0,0.721-2.808,2.325-2.93c1.604-0.122,3.744,1.362,4.506,0.962
		c0.761-0.399,2.213-1.401,3.561-1.146c1.349,0.254,3.376,3.113,3.376,3.113H75.47z"/>
	<g>
		<path fill="#FFB27D" d="M84.263,101.825l-1.908,0.135c0,0-1.072-2.992-2.266-6.489c-0.111-0.327-0.226-0.657-0.338-0.993
			c-0.989-2.915-2.002-6.011-2.521-7.928c-0.124-0.46-0.217-0.877-0.282-1.256c-0.577-3.314,0.909-3.678,1.265-3.766
			c0.396-0.095,2.784-1.364,4.407,2.909c0.548,1.44,1.439,5.445,1.41,9.235C84.003,97.321,84.263,101.825,84.263,101.825z"/>
		<path fill="#E9F3FE" d="M84.263,101.825l-1.913,0.417l-0.487,0.108c0,0-0.79-3.97-2.112-7.873c0,0,1.091,0.102,2.505-0.24
			c0.502-0.121,1.044-0.298,1.593-0.554C84.24,97.722,84.263,101.825,84.263,101.825z"/>
		<path fill="#C7DCF2" d="M82.351,102.242l-0.487,0.108c0,0-0.79-3.97-2.112-7.873c0,0,1.091,0.102,2.505-0.24
			C82.256,94.237,81.615,100.091,82.351,102.242z"/>
		<g>
			<path fill="#22356B" d="M84.69,102.876c0.026,0.091,0.047,0.174,0.066,0.247c0.043,0.17-0.063,0.341-0.233,0.377l-2.224,0.477
				c-0.162,0.036-0.327-0.065-0.364-0.229c-0.033-0.148-0.057-0.29-0.072-0.426c-0.052-0.438-0.025-0.786,0-0.973
				c0.011-0.094,0.064-0.178,0.146-0.224c1.029-0.6,1.79-0.505,2.073-0.434c0.075,0.019,0.142,0.067,0.181,0.134
				C84.455,102.145,84.597,102.551,84.69,102.876z"/>
			<g>
				<path fill="#22356B" d="M84.159,101.771c-0.004-0.003-0.367-0.385-1.13-0.305c-0.762,0.08-1.054,0.699-1.058,0.706l-0.1,0.137
					c0.014-0.031,0.313-0.879,1.146-0.965c0.828-0.087,1.232,0.463,1.248,0.481L84.159,101.771z"/>
			</g>
			<path fill="#22356B" d="M84.69,102.876c0.026,0.091,0.047,0.174,0.066,0.247c0.043,0.17-0.063,0.341-0.233,0.377l-2.224,0.477
				c-0.162,0.036-0.327-0.065-0.364-0.229c-0.033-0.148-0.057-0.29-0.072-0.426c0,0,0.256,0.471,1.604,0.162
				C84.283,103.298,84.583,103.046,84.69,102.876z"/>
		</g>
	</g>
	<path fill="#2B478B" d="M91.155,75.89l-3.081,0.05c-0.236-0.536-0.647-2.323-1.054-3.401c0.152,0.659,0.3,1.339,0.439,2.008
		c0.543,2.594,0.956,5.034,0.891,5.557c-0.146,1.189-4.796,0.653-5.994,0.367c-1.199-0.288-3.925,0.368-6.104,0.326
		c-1.254-0.022-0.869-3.514-0.317-6.472c0.131-0.71,0.274-1.389,0.406-1.982c-0.705,1.402-1.024,3.13-1.195,3.597
		c0,0-3.011-0.194-3.012-0.202c-0.102-0.532,1.032-8.955,3.337-10.676c0,0,1.3-1.168,3.319-0.896c0,0,0.759,1.348,2.946,1.45
		c2.187,0.102,3.351-1.398,3.351-1.398s1.827,0.046,2.564,0.845C88.378,65.849,90.02,68.728,91.155,75.89z"/>
	<path fill="#233F77" d="M88.35,80.104c-0.146,1.189-4.796,0.653-5.994,0.367c-1.199-0.288-3.925,0.368-6.104,0.326
		c-1.254-0.022-0.869-3.514-0.317-6.472c0,0,2.363,4.137,5.309,4.107c2.946-0.027,6.216-3.886,6.216-3.886
		C88.002,77.141,88.415,79.581,88.35,80.104z"/>
	<path fill="#FFFFFF" d="M79.712,63.288c0,0,1.025,2.013,2.023,2.327c0,0-1.419,0.537-3.489-1.49
		C78.246,64.125,78.657,63.31,79.712,63.288z"/>
	<path fill="#FFFFFF" d="M84.015,63.288c0,0-1.282,2.013-2.28,2.327c0,0,1.677,0.537,3.746-1.49
		C85.481,64.125,85.069,63.31,84.015,63.288z"/>
	<circle fill="#35488B" cx="81.755" cy="65.608" r="0.163"/>
	<circle fill="#233F77" cx="81.736" cy="69.747" r="0.31"/>
	<circle fill="#233F77" cx="81.736" cy="74.723" r="0.31"/>
	<path fill="#FFB27D" d="M88.601,76.142l0.49,7.022h1.528c0,0,1.196-7.35,0.368-7.577C90.16,75.359,88.601,76.142,88.601,76.142z"/>
	<path fill="#FFB27D" d="M90.649,84.717c0.169-0.101,0.119-0.567-0.038-0.687c-0.376-0.283-1.068-0.54-1.653-0.372
		c-0.813,0.23-0.324,1.903,0.281,1.932C89.684,85.612,90.26,84.945,90.649,84.717z"/>
	<path fill="#FFB27D" d="M90.62,83.164l-0.011,1.192c-0.196-0.019-1.302,0.394-1.646-0.06c-0.134-0.178,0.113-0.645,0.128-1.133
		C89.135,81.703,90.62,83.164,90.62,83.164z"/>
	<path fill="#233F77" d="M88.074,75.94c0,0-0.193,1.036,0.283,1.187c0.475,0.152,2.899,0.229,3.051,0
		c0.152-0.228-0.06-1.966-0.42-2.094C90.625,74.905,88.299,75.379,88.074,75.94z"/>
	<path fill="#FFB27D" d="M74.617,76.142l-0.49,7.022h-1.528c0,0-1.195-7.35-0.368-7.577C73.059,75.359,74.617,76.142,74.617,76.142z
		"/>
	<path fill="#FFB27D" d="M72.57,84.717c-0.169-0.101-0.12-0.567,0.038-0.687c0.377-0.283,1.068-0.54,1.653-0.372
		c0.813,0.23,0.324,1.903-0.282,1.932C73.535,85.612,72.959,84.945,72.57,84.717z"/>
	<path fill="#FFB27D" d="M72.599,83.164l0.011,1.192c0.196-0.019,1.302,0.394,1.646-0.06c0.134-0.178-0.114-0.645-0.128-1.133
		C74.083,81.703,72.599,83.164,72.599,83.164z"/>
	<path fill="#233F77" d="M75.145,75.94c0,0,0.192,1.036-0.283,1.187c-0.476,0.152-2.9,0.229-3.052,0
		c-0.151-0.228,0.059-1.966,0.421-2.094C72.593,74.905,74.919,75.379,75.145,75.94z"/>
	<path fill="#B5493F" d="M82.119,54.727c0,0,0.451,1.61,1.618,2.065c0,0-0.538-0.929-0.348-1.383c0,0,0.516,1.819,1.272,2.444
		c0,0,1.076-3.771-1.993-3.96s-4.3,1.421-4.319,2.577c-0.019,1.157,0.441,2.047,0.441,2.047s0.335-2.141,1.681-2.767
		C81.815,55.125,82.119,54.727,82.119,54.727z"/>
	<g>
		<path fill="#FFB27D" d="M85.304,94.483c-1.225,4.029-2.522,7.833-2.522,7.833l-2.185-0.449c0,0,0.45-4.151,0.517-8.041
			c0.006-0.309,0.279-6.259,0.522-8.133c0.599-4.606,2.431-4.324,2.834-4.26c0.402,0.063,3.094-0.192,2.954,4.376
			C87.378,87.293,86.369,90.975,85.304,94.483z"/>
		<path fill="#FFFFFF" d="M85.304,94.483c-0.695,2.288-1.414,4.501-1.906,5.988c-0.373,1.134-0.616,1.845-0.616,1.845l-2.324-0.426
			c0,0,0.169-3.555,0.656-8.064c0.3,0.178,0.999,0.406,2.437,0.547C84.045,94.423,84.625,94.461,85.304,94.483z"/>
		<g>
			<path fill="#35488B" d="M82.792,103.598c-0.009,0.093-0.02,0.178-0.03,0.253c-0.023,0.174-0.186,0.293-0.357,0.264l-2.242-0.384
				c-0.164-0.026-0.278-0.183-0.253-0.348c0.025-0.15,0.056-0.29,0.091-0.421c0.114-0.426,0.27-0.74,0.361-0.905
				c0.045-0.081,0.126-0.14,0.219-0.152c1.178-0.175,1.849,0.196,2.085,0.368c0.063,0.045,0.108,0.113,0.12,0.19
				C82.845,102.83,82.826,103.261,82.792,103.598z"/>
			<g>
				<path fill="#35488B" d="M82.708,102.374c-0.002-0.006-0.198-0.493-0.936-0.703c-0.738-0.208-1.239,0.258-1.244,0.263
					l-0.144,0.09c0.024-0.023,0.616-0.699,1.421-0.471c0.8,0.228,0.972,0.888,0.979,0.91L82.708,102.374z"/>
			</g>
			<path fill="#35488B" d="M82.792,103.598c-0.009,0.093-0.02,0.178-0.03,0.253c-0.023,0.174-0.186,0.293-0.357,0.264l-2.242-0.384
				c-0.164-0.026-0.278-0.183-0.253-0.348c0.025-0.15,0.056-0.29,0.091-0.421c0,0,0.063,0.532,1.43,0.745
				C82.257,103.836,82.629,103.713,82.792,103.598z"/>
		</g>
	</g>
</g>
<g>
	<rect x="60.37" y="81.641" fill="#2B478B" width="2.086" height="28.337"/>
	<path fill="#AEC3FF" d="M105.279,81.641H58.937c-0.692,0-1.253-0.562-1.253-1.253v-0.382c0-0.692,0.561-1.254,1.253-1.254h46.342
		c0.692,0,1.253,0.562,1.253,1.254v0.382C106.532,81.079,105.971,81.641,105.279,81.641z"/>
	<rect x="102.605" y="81.641" fill="#2B478B" width="2.086" height="28.337"/>
	<rect x="60.289" y="86.233" fill="#AEC3FF" width="44.402" height="10.831"/>
</g>
<g>
	<g>
		<g>
			<g>
				<g>
					<path fill="#84A6F4" d="M173.881,103.826c-0.017,0.003-0.034,0.004-0.051,0.004c-0.139,0-0.262-0.084-0.29-0.205l-3.283-14.053
						l-0.001-0.001l-0.238-1.023l1.123-0.049l0.366,1.915l2.531,13.219C174.056,103.725,173.986,103.811,173.881,103.826z"/>
				</g>
				<g>
					<path fill="#84A6F4" d="M157.195,88.548l-0.541,2.313l-2.982,12.765c-0.028,0.121-0.15,0.205-0.289,0.205
						c-0.018,0-0.034-0.001-0.052-0.004c-0.104-0.016-0.174-0.102-0.156-0.193l2.697-14.093l0.2-1.041L157.195,88.548z"/>
				</g>
				<path fill="#84A6F4" d="M157.195,88.548l-0.541,2.313c-0.077-0.938-0.782-1.32-0.782-1.32l0.2-1.041L157.195,88.548z"/>
				<path fill="#84A6F4" d="M171.507,90.414c-0.555-0.81-1.229-0.811-1.25-0.842l-0.001-0.001l-0.238-1.023l1.123-0.049
					L171.507,90.414z"/>
			</g>
			<path fill="#84A6F4" d="M171.229,88.649h-16.274c-0.795,0-1.447-0.651-1.447-1.449v-1.143c0-0.796,0.652-1.448,1.447-1.448
				h16.274c0.798,0,1.448,0.652,1.448,1.448V87.2C172.678,87.998,172.027,88.649,171.229,88.649z"/>
		</g>
		<path fill="#84A6F4" d="M172.642,85.892h-18.07c-0.507,0-0.922-0.414-0.922-0.921v-15.45c0-0.507,0.415-0.922,0.922-0.922h18.07
			c0.507,0,0.921,0.415,0.921,0.922v15.45C173.563,85.478,173.148,85.892,172.642,85.892z"/>
		<path fill="#1B2E59" d="M163.789,52.397c0,0-3.019-0.644-4.869,0.725c-1.852,1.369-0.604,4.629-1.33,5.475
			c-0.723,0.846-1.569,1.167-0.723,2.858c0.844,1.691-0.847,2.153-0.847,3.372c0,1.217,1.755,1.58,1.805,2.667
			c0.048,1.087,5.522,2.093,7.856,2.133c2.335,0.041,5.03-2.769,5.354-3.317c0.323-0.547,1.166-3.003,0-4.251
			c-1.167-1.247-0.241-2.938-0.685-3.904c-0.441-0.966-2.132-1.53-1.852-2.334C168.781,55.013,168.178,51.512,163.789,52.397z"/>
		<path fill="#FFB27D" d="M169.729,79.77c-0.485-2.676-1.903-5.724-1.903-5.724c1.029-4.267-0.021-9.065-0.021-9.065
			c-0.559-0.151-1.14-0.257-1.725-0.326c-0.072-0.381-0.28-1.527-0.368-2.512c-0.01-0.115-0.019-0.228-0.025-0.336
			c-0.017-0.28-0.021-0.538-0.004-0.745l-0.725,0.047l-2.982,0.197l-0.127,0.009c0,0,0.018,0.264,0.022,0.665
			c0.01,0.717-0.025,1.865-0.286,2.688c-1.283,0.131-2.152,0.317-2.152,0.317c-0.84,0.143-0.664,5.319,0.906,9.343
			c0.724,1.853-1.317,4.719-1.317,5.443C159.022,80.495,169.904,80.736,169.729,79.77z"/>
		<path fill="#EF9E67" d="M165.713,62.143c-0.28,0.326-0.987,1.028-1.887,1.043c-1.172,0.02-1.954-1.208-1.954-1.208
			c0.024-0.255,0.058-0.479,0.104-0.673l2.982-0.197c0.313,0.271,0.574,0.534,0.729,0.698
			C165.694,61.915,165.703,62.027,165.713,62.143z"/>
		<path fill="#FFB27D" d="M163.805,62.491L163.805,62.491c-1.623,0-2.952-1.328-2.952-2.952V57.08c0-1.093,0.895-1.988,1.989-1.988
			h1.79c1.093,0,1.987,0.895,1.987,1.988v2.597C166.619,61.225,165.353,62.491,163.805,62.491z"/>
		<path fill="#FFFFFF" d="M162.831,60.658c0,0,0.061,0.39,1.019,0.404c0,0,0.806,0.011,0.813-0.412
			C164.662,60.65,163.908,60.292,162.831,60.658z"/>
		<path fill="#1B2E59" d="M163.908,54.287c0,0-0.256,3.049-2.974,3.699c-2.717,0.651-0.348-5.146,1.487-4.703
			C164.256,53.726,163.908,54.287,163.908,54.287z"/>
		<path fill="#1B2E59" d="M163.584,54.287c0,0,0.258,3.049,2.974,3.699c2.718,0.651,0.348-5.146-1.486-4.703
			C163.237,53.726,163.584,54.287,163.584,54.287z"/>
		<path fill="#22356B" d="M155.781,84.561c0,0,1.985-4.598,3.804-5.495c1.818-0.898,9.057-0.102,10.145,0.704
			c1.087,0.807,2.476,4.791,2.476,4.791H155.781z"/>
		<path fill="#1B2E59" d="M157.594,84.561c0,0,0.707-2.758,2.283-2.878c1.575-0.12,3.678,1.337,4.426,0.945
			c0.747-0.393,2.174-1.376,3.498-1.126s3.317,3.059,3.317,3.059H157.594z"/>
		<path fill="#FFB27D" d="M164.657,101.93l-1.878,0.023c0,0-0.881-2.995-1.854-6.491c-0.09-0.327-0.184-0.659-0.275-0.993
			c-0.804-2.915-1.622-6.009-2.021-7.918c-0.095-0.458-0.163-0.872-0.205-1.248c-0.378-3.282,1.1-3.555,1.454-3.619
			c0.394-0.072,2.808-1.181,4.155,3.102c0.456,1.443,0.924,5.421,0.682,9.137C164.479,97.499,164.657,101.93,164.657,101.93z"/>
		<path fill="#FFB27D" d="M169.053,94.134c-0.783,4.062-1.66,7.911-1.66,7.911l-2.18-0.215c0,0,0.013-4.101-0.32-7.908
			c-0.027-0.303-0.372-6.143-0.326-7.999c0.111-4.562,1.93-4.474,2.33-4.453c0.399,0.021,3.003-0.504,3.335,3.973
			C170.34,86.896,169.731,90.597,169.053,94.134z"/>
		<path fill="#FFFFFF" d="M169.053,94.134c-0.445,2.307-0.919,4.542-1.247,6.046c-0.249,1.145-0.413,1.865-0.413,1.865l-2.313-0.178
			c0,0-0.201-3.49-0.187-7.945c0.31,0.143,1.016,0.295,2.437,0.284C167.815,94.203,168.386,94.182,169.053,94.134z"/>
		<g>
			<path fill="#35488B" d="M167.546,103.258c0,0.092-0.001,0.176-0.003,0.251c-0.006,0.172-0.152,0.304-0.322,0.294l-2.229-0.145
				c-0.163-0.01-0.291-0.149-0.282-0.314c0.009-0.148,0.024-0.289,0.046-0.42c0.067-0.428,0.188-0.75,0.261-0.921
				c0.035-0.085,0.108-0.15,0.197-0.173c1.133-0.291,1.826,0.002,2.074,0.146c0.066,0.038,0.117,0.101,0.137,0.175
				C167.519,102.503,167.545,102.926,167.546,103.258z"/>
			<g>
				<path fill="#35488B" d="M167.339,102.071c-0.003-0.004-0.243-0.462-0.986-0.591c-0.742-0.127-1.185,0.38-1.188,0.385
					l-0.132,0.102c0.021-0.024,0.532-0.745,1.341-0.605c0.806,0.14,1.04,0.768,1.052,0.789L167.339,102.071z"/>
			</g>
			<path fill="#22356B" d="M167.546,103.258c0,0.092-0.001,0.176-0.003,0.251c-0.006,0.172-0.152,0.304-0.322,0.294l-2.229-0.145
				c-0.163-0.01-0.291-0.149-0.282-0.314c0.009-0.148,0.024-0.289,0.046-0.42c0,0,0.115,0.513,1.474,0.581
				C167.048,103.546,167.397,103.388,167.546,103.258z"/>
		</g>
		<path fill="#FFFFFF" d="M164.657,101.93l-1.899,0.301l-0.484,0.078c0,0-0.548-3.938-1.624-7.84c0,0,1.064,0.161,2.471-0.095
			c0.499-0.09,1.04-0.232,1.594-0.452C164.868,97.903,164.657,101.93,164.657,101.93z"/>
		<g>
			<path fill="#35488B" d="M165.017,102.985c0.02,0.089,0.036,0.172,0.051,0.246c0.032,0.168-0.082,0.329-0.251,0.354l-2.207,0.343
				c-0.161,0.025-0.317-0.084-0.344-0.246c-0.023-0.147-0.039-0.287-0.047-0.421c-0.026-0.433,0.021-0.773,0.055-0.955
				c0.018-0.09,0.074-0.169,0.156-0.211c1.043-0.529,1.783-0.393,2.058-0.306c0.072,0.021,0.135,0.072,0.171,0.14
				C164.827,102.254,164.943,102.661,165.017,102.985z"/>
			<g>
				<path fill="#35488B" d="M164.558,101.871c-0.003-0.004-0.338-0.397-1.09-0.363c-0.753,0.036-1.074,0.626-1.077,0.632
					l-0.106,0.129c0.015-0.029,0.356-0.843,1.177-0.881c0.817-0.039,1.182,0.524,1.197,0.542L164.558,101.871z"/>
			</g>
			<path fill="#22356B" d="M165.017,102.985c0.02,0.089,0.036,0.172,0.051,0.246c0.032,0.168-0.082,0.329-0.251,0.354l-2.207,0.343
				c-0.161,0.025-0.317-0.084-0.344-0.246c-0.023-0.147-0.039-0.287-0.047-0.421c0,0,0.224,0.476,1.564,0.25
				C164.593,103.374,164.9,103.145,165.017,102.985z"/>
		</g>
		<path fill="#C65447" d="M173.818,77.785l-2.6-1.3l-0.783-0.391c-0.231-0.527-1.014-2.174-1.498-3.117
			c0.148,0.647,0.294,1.315,0.431,1.972c0.534,2.549,0.938,4.945,0.876,5.458c-0.145,1.17-4.711,0.643-5.889,0.361
			c-1.178-0.282-3.854,0.363-5.996,0.321c-1.23-0.022-0.854-3.452-0.312-6.358c0.13-0.697,0.271-1.365,0.398-1.947
			c-0.691,1.377-1.406,2.832-1.574,3.29l-1.475,0.775l-1.672,0.88c-0.004-0.007-0.007-0.015-0.008-0.021
			c-0.1-0.523,1.61-10.386,3.876-12.077c0,0,1.276-1.146,3.259-0.88c0,0,0.746,1.324,2.895,1.423
			c2.148,0.101,3.292-1.373,3.292-1.373s1.795,0.045,2.519,0.829C170.271,66.407,173.746,73.046,173.818,77.785z"/>
		<path fill="#B5493F" d="M170.244,80.407c-0.145,1.17-4.711,0.643-5.889,0.361c-1.178-0.282-3.854,0.363-5.996,0.321
			c-1.23-0.022-0.854-3.452-0.312-6.358c0,0,2.321,4.063,5.216,4.037c2.893-0.029,6.104-3.819,6.104-3.819
			C169.902,77.498,170.307,79.895,170.244,80.407z"/>
		<path fill="#FFFFFF" d="M161.759,63.891c0,0,1.007,1.977,1.987,2.285c0,0-1.394,0.528-3.427-1.463
			C160.319,64.713,160.724,63.912,161.759,63.891z"/>
		<path fill="#FFFFFF" d="M165.986,63.891c0,0-1.26,1.977-2.24,2.285c0,0,1.646,0.528,3.68-1.463
			C167.426,64.713,167.022,63.912,165.986,63.891z"/>
		<path fill="#FFFFFF" d="M158.043,76.827l-0.729,0.636l-1.533,1.385c-1.621,0.228-2.136-1.063-2.136-1.063
			c0.367-0.588,0.927-1.016,1.485-1.32c0.438-0.239,0.874-0.403,1.214-0.509c0.385-0.12,0.804-0.016,1.09,0.267L158.043,76.827z"/>
		<path fill="#FFFFFF" d="M173.818,77.785c0,0-0.938,1.25-3.487,1.071l-0.438-1.619l-0.707-0.729l0.666-0.408
			c0.312-0.191,0.688-0.247,1.041-0.152c0.242,0.064,0.54,0.157,0.858,0.284C172.491,76.53,173.339,77.017,173.818,77.785z"/>
		<circle fill="#35488B" cx="163.766" cy="66.17" r="0.16"/>
		<circle fill="#A53D38" cx="163.746" cy="70.236" r="0.305"/>
		<circle fill="#A53D38" cx="163.746" cy="75.123" r="0.305"/>
	</g>
	<g>
		<rect x="145.879" y="81.704" fill="#2B478B" width="2.049" height="27.833"/>
		<path fill="#AEC3FF" d="M189.992,81.704h-45.521c-0.68,0-1.23-0.552-1.23-1.231v-0.375c0-0.68,0.551-1.23,1.23-1.23h45.521
			c0.679,0,1.23,0.551,1.23,1.23v0.375C191.223,81.152,190.671,81.704,189.992,81.704z"/>
		<rect x="187.365" y="81.704" fill="#2B478B" width="2.048" height="27.833"/>
		<rect x="145.801" y="86.215" fill="#AEC3FF" width="43.612" height="10.639"/>
	</g>
	<path fill="#EF9E67" d="M169.76,76.344l-5.171,1.474v1.049c0,0,6.438,0.247,6.786-0.24c0.263-0.371,0.121-1.102-0.043-1.475
		C171.066,76.545,170.409,76.208,169.76,76.344z"/>
	<path fill="#EF9E67" d="M164.589,77.817c0,0-1.964,0.091-2.196,0.186c-0.234,0.097-1.095,0.872-1.095,0.872h3.291V77.817z"/>
	<path fill="#FFB27D" d="M156.875,76.344l5.316,1.474l-0.145,1.049c0,0-6.651,0.313-6.899-0.23
		c-0.169-0.367-0.008-1.111,0.155-1.484C155.568,76.545,156.228,76.208,156.875,76.344z"/>
	<path fill="#FFB27D" d="M162.191,77.817c0,0,1.703,0.091,1.937,0.186c0.234,0.097,1.209,0.872,1.209,0.872h-3.29L162.191,77.817z"
		/>
</g>
<g>
	<path fill="#C0D8FB" d="M173.867,29.249h-13.791c-0.633,0-1.15-0.518-1.15-1.151v-13.31c0-0.633,0.518-1.151,1.15-1.151h13.791
		c0.634,0,1.15,0.518,1.15,1.151v13.31C175.018,28.73,174.501,29.249,173.867,29.249z"/>
	<path fill="#DFEBFD" d="M173.27,28.572h-12.595c-0.579,0-1.052-0.473-1.052-1.051V15.364c0-0.578,0.473-1.052,1.052-1.052h12.595
		c0.579,0,1.052,0.474,1.052,1.052v12.157C174.321,28.099,173.849,28.572,173.27,28.572z"/>
	<g>
		<g>
			<circle fill="#B7D3F3" cx="166.972" cy="15.737" r="0.333"/>
			<circle fill="#B7D3F3" cx="169.62" cy="16.37" r="0.333"/>
			<circle fill="#B7D3F3" cx="171.813" cy="18.319" r="0.333"/>
			<circle fill="#B7D3F3" cx="172.774" cy="21.206" r="0.333"/>
			<circle fill="#B7D3F3" cx="171.955" cy="24.397" r="0.334"/>
			<circle fill="#B7D3F3" cx="169.862" cy="26.496" r="0.333"/>
			<circle fill="#B7D3F3" cx="166.972" cy="27.342" r="0.333"/>
		</g>
		<g>
			<circle fill="#B7D3F3" cx="164.313" cy="16.37" r="0.333"/>
			<circle fill="#B7D3F3" cx="162.119" cy="18.319" r="0.333"/>
			<circle fill="#B7D3F3" cx="161.158" cy="21.206" r="0.333"/>
			<circle fill="#B7D3F3" cx="161.977" cy="24.397" r="0.333"/>
			<circle fill="#B7D3F3" cx="164.071" cy="26.496" r="0.333"/>
		</g>
	</g>
	<g>
		<circle fill="#B7D3F3" cx="167.215" cy="21.206" r="0.333"/>
		<g>
			<rect x="167.169" y="17.042" fill="#B7D3F3" width="0.092" height="4.165"/>
		</g>
		<g>
			
				<rect x="168.14" y="18.93" transform="matrix(0.6203 0.7843 -0.7843 0.6203 79.837 -124.2658)" fill="#B7D3F3" width="0.274" height="2.808"/>
		</g>
	</g>
</g>
<g>
	<g>
		<g>
			<g>
				<path fill="#A6C6F4" d="M140.382,132.053c-0.027,0.004-0.052,0.006-0.076,0.006c-0.204,0-0.385-0.124-0.427-0.303l-4.839-20.713
					l-0.003-0.001l-0.351-1.509l1.654-0.072l0.541,2.824l3.731,19.483C140.638,131.902,140.535,132.029,140.382,132.053z"/>
			</g>
			<g>
				<path fill="#A6C6F4" d="M115.788,109.533l-0.797,3.409l-4.395,18.813c-0.042,0.179-0.223,0.303-0.428,0.303
					c-0.025,0-0.049-0.002-0.075-0.006c-0.154-0.023-0.257-0.15-0.233-0.284l3.978-20.771l0.296-1.536L115.788,109.533z"/>
			</g>
			<path fill="#A6C6F4" d="M115.788,109.533l-0.797,3.409c-0.115-1.384-1.153-1.945-1.153-1.945l0.296-1.536L115.788,109.533z"/>
			<path fill="#A6C6F4" d="M136.882,112.285c-0.817-1.194-1.811-1.195-1.842-1.242l-0.003-0.001l-0.351-1.509l1.654-0.072
				L136.882,112.285z"/>
		</g>
		<path fill="#A6C6F4" d="M136.474,109.682h-23.986c-1.173,0-2.134-0.96-2.134-2.133v-1.685c0-1.174,0.961-2.135,2.134-2.135h23.986
			c1.174,0,2.134,0.961,2.134,2.135v1.685C138.607,108.722,137.647,109.682,136.474,109.682z"/>
	</g>
	<path fill="#A6C6F4" d="M138.554,105.619h-26.632c-0.747,0-1.358-0.611-1.358-1.358V81.49c0-0.747,0.611-1.358,1.358-1.358h26.632
		c0.746,0,1.357,0.611,1.357,1.358v22.771C139.911,105.008,139.3,105.619,138.554,105.619z"/>
	<path fill="#35488B" d="M129.468,68.374c0,0,1.542-2.344,1.915-2.944c1.121-1.803,1.306-9.422-6.012-8.319
		c0,0-2.526-0.683-4.276,0.532c-1.855,1.287-3.657,5.641,0.236,10.731H129.468z"/>
	<path fill="#FFB27D" d="M134.261,96.969c-0.719-3.971-2.821-8.491-2.821-8.491c1.524-6.329-0.032-13.447-0.032-13.447
		c-0.827-0.225-1.69-0.38-2.558-0.484c-0.107-0.565-0.416-2.265-0.547-3.727c-0.015-0.17-0.027-0.337-0.037-0.499
		c-0.025-0.415-0.031-0.796-0.005-1.104l-1.075,0.07l-4.425,0.292l-0.188,0.012c0,0,0.026,0.393,0.034,0.986
		c0.014,1.064-0.038,2.767-0.424,3.988c-1.904,0.196-3.193,0.471-3.193,0.471c-1.245,0.21-0.984,7.89,1.345,13.858
		c1.073,2.748-1.956,7.001-1.956,8.076C118.378,98.043,134.521,98.403,134.261,96.969z"/>
	<path fill="#EF9E67" d="M128.303,70.82c-0.416,0.483-1.464,1.524-2.797,1.548c-1.739,0.03-2.899-1.792-2.899-1.792
		c0.034-0.378,0.086-0.709,0.154-0.998l4.425-0.292c0.465,0.401,0.851,0.792,1.08,1.035
		C128.275,70.483,128.288,70.649,128.303,70.82z"/>
	<path fill="#FFB27D" d="M125.473,71.338L125.473,71.338c-2.408,0-4.378-1.971-4.378-4.379v-3.648c0-1.622,1.327-2.949,2.949-2.949
		h2.655c1.622,0,2.949,1.327,2.949,2.949v3.852C129.648,69.458,127.77,71.338,125.473,71.338z"/>
	<path fill="#35488B" d="M125.628,59.168c0,0-0.382,4.523-4.412,5.487c-4.031,0.965-0.515-7.633,2.205-6.977
		C126.142,58.335,125.628,59.168,125.628,59.168z"/>
	<path fill="#35488B" d="M125.146,59.168c0,0,0.381,4.523,4.411,5.487c4.031,0.965,0.516-7.633-2.205-6.977
		S125.146,59.168,125.146,59.168z"/>
	<path fill="#22356B" d="M113.57,104.074c0,0,2.946-6.818,5.644-8.151c2.696-1.331,13.435-0.148,15.047,1.046
		c1.612,1.193,3.672,7.105,3.672,7.105H113.57z"/>
	<path fill="#1B2E59" d="M116.258,104.074c0,0,1.052-4.091,3.388-4.269c2.337-0.178,5.456,1.984,6.565,1.402
		c1.109-0.583,3.225-2.042,5.19-1.67c1.964,0.371,4.92,4.536,4.92,4.536H116.258z"/>
	<path fill="#FFB27D" d="M126.738,129.843l-2.788,0.035c0,0-1.306-4.355-2.749-9.438c-0.134-0.475-0.272-0.956-0.409-1.442
		c-1.192-4.238-2.405-8.734-2.998-11.51c-0.142-0.665-0.241-1.269-0.305-1.813c-0.561-4.771,1.632-5.168,2.157-5.264
		c0.584-0.103,4.164-1.715,6.166,4.511c0.675,2.099,1.368,7.88,1.008,13.281C126.474,123.401,126.738,129.843,126.738,129.843z"/>
	<path fill="#FFB27D" d="M133.257,118.51c-1.161,5.905-2.462,11.5-2.462,11.5l-3.234-0.312c0,0-0.656-18.184-0.959-23.123
		c-0.406-6.62,2.864-6.502,3.458-6.473c0.593,0.03,4.454-0.733,4.947,5.774C135.166,107.99,134.266,113.368,133.257,118.51z"/>
	<path fill="#FFFFFF" d="M133.257,118.275c-0.659,3.42-1.363,6.738-1.849,8.969c-0.369,1.698-0.613,2.766-0.613,2.766l-3.431-0.264
		c0,0-0.299-5.177-0.278-11.785c0.461,0.212,1.508,0.438,3.614,0.421C131.422,118.379,132.268,118.346,133.257,118.275z"/>
	<g>
		<path fill="#B5493F" d="M131.021,131.81c0,0.136-0.001,0.261-0.005,0.372c-0.007,0.254-0.224,0.451-0.477,0.435l-3.307-0.212
			c-0.241-0.015-0.432-0.223-0.419-0.466c0.012-0.223,0.036-0.43,0.068-0.626c0.1-0.634,0.277-1.112,0.385-1.364
			c0.054-0.126,0.161-0.223,0.293-0.256c1.681-0.432,2.709,0.003,3.077,0.216c0.1,0.056,0.175,0.149,0.203,0.259
			C130.982,130.689,131.021,131.316,131.021,131.81z"/>
		<g>
			<path fill="#B5493F" d="M130.715,130.049c-0.003-0.007-0.362-0.685-1.463-0.876c-1.101-0.188-1.756,0.563-1.763,0.57
				l-0.195,0.152c0.032-0.037,0.788-1.107,1.988-0.898c1.196,0.207,1.544,1.138,1.559,1.17L130.715,130.049z"/>
		</g>
		<path fill="#B5493F" d="M131.021,131.81c0,0.136-0.001,0.261-0.005,0.372c-0.007,0.254-0.224,0.451-0.477,0.435l-3.307-0.212
			c-0.241-0.015-0.432-0.223-0.419-0.466c0.012-0.223,0.036-0.43,0.068-0.626c0,0,0.172,0.762,2.185,0.864
			C130.284,132.238,130.803,132.003,131.021,131.81z"/>
	</g>
	<path fill="#FFFFFF" d="M126.738,129.84l-2.817,0.445l-0.719,0.114c0,0-0.813-5.839-2.41-11.627c0,0,1.578,0.238,3.665-0.14
		c0.741-0.134,1.543-0.346,2.363-0.672C127.05,123.867,126.738,129.84,126.738,129.84z"/>
	<g>
		<path fill="#B5493F" d="M127.27,131.405c0.03,0.133,0.056,0.255,0.076,0.364c0.047,0.25-0.121,0.489-0.371,0.527l-3.275,0.507
			c-0.239,0.039-0.469-0.123-0.51-0.364c-0.036-0.219-0.059-0.428-0.067-0.624c-0.04-0.642,0.029-1.146,0.08-1.417
			c0.025-0.133,0.109-0.251,0.231-0.313c1.547-0.783,2.646-0.582,3.052-0.453c0.107,0.033,0.202,0.107,0.253,0.208
			C126.989,130.32,127.162,130.924,127.27,131.405z"/>
		<g>
			<path fill="#B5493F" d="M126.589,129.753c-0.004-0.007-0.5-0.59-1.617-0.539c-1.115,0.054-1.593,0.929-1.598,0.938l-0.158,0.19
				c0.023-0.043,0.53-1.25,1.748-1.307c1.211-0.057,1.753,0.778,1.774,0.805L126.589,129.753z"/>
		</g>
		<path fill="#B5493F" d="M127.27,131.405c0.03,0.133,0.056,0.255,0.076,0.364c0.047,0.25-0.121,0.489-0.371,0.527l-3.275,0.507
			c-0.239,0.039-0.469-0.123-0.51-0.364c-0.036-0.219-0.059-0.428-0.067-0.624c0,0,0.331,0.705,2.318,0.37
			C126.642,131.982,127.099,131.641,127.27,131.405z"/>
	</g>
	<path fill="#C65447" d="M140.327,94.023l-3.857-1.927l-1.161-0.581c-0.342-0.78-1.504-3.225-2.223-4.624
		c0.221,0.961,0.438,1.951,0.64,2.926c0.792,3.78,1.393,7.336,1.3,8.097c-0.214,1.734-6.988,0.954-8.735,0.535
		c-1.747-0.418-5.717,0.538-8.894,0.478c-1.827-0.034-1.267-5.122-0.462-9.432c0.191-1.034,0.399-2.023,0.591-2.888
		c-1.026,2.043-2.087,4.198-2.336,4.88l-2.188,1.149l-2.481,1.307c-0.005-0.011-0.009-0.022-0.01-0.032
		c-0.148-0.775,2.389-15.406,5.748-17.914c0,0,1.896-1.702,4.836-1.306c0,0,1.106,1.962,4.293,2.113
		c3.187,0.147,4.883-2.038,4.883-2.038s2.662,0.067,3.737,1.231C135.066,77.146,140.219,86.994,140.327,94.023z"/>
	<path fill="#B5493F" d="M135.025,97.914c-0.214,1.734-6.988,0.954-8.735,0.535c-1.747-0.418-5.717,0.538-8.894,0.478
		c-1.827-0.034-1.267-5.122-0.462-9.432c0,0,3.442,6.028,7.735,5.986c4.291-0.041,9.056-5.664,9.056-5.664
		C134.518,93.598,135.118,97.153,135.025,97.914z"/>
	<path fill="#E8945B" d="M135.54,91.487c0,0-6.487,4.691-9.479,6.112l0.499,1.876c0,0,9.302-1.843,13.659-5.564L135.54,91.487z"/>
	<path fill="#E8945B" d="M126.061,97.6c0,0-2.232-0.692-2.919-0.305c-0.687,0.389-1.643,2.151-0.985,2.181s4.403,0,4.403,0
		L126.061,97.6z"/>
	<path fill="#FFFFFF" d="M122.438,73.413c0,0,1.494,2.933,2.948,3.392c0,0-2.068,0.782-5.084-2.172
		C120.303,74.633,120.902,73.446,122.438,73.413z"/>
	<path fill="#FFFFFF" d="M128.709,73.413c0,0-1.868,2.933-3.322,3.392c0,0,2.443,0.782,5.459-2.172
		C130.846,74.633,130.245,73.446,128.709,73.413z"/>
	<path fill="#FFB27D" d="M115.189,91.487c0,0,6.487,4.691,9.48,6.112l-0.501,1.876c0,0-9.3-1.843-13.658-5.564L115.189,91.487z"/>
	<path fill="#FFB27D" d="M124.67,97.6c0,0,2.23-0.692,2.918-0.305c0.687,0.389,1.642,2.151,0.985,2.181
		c-0.657,0.029-4.404,0-4.404,0L124.67,97.6z"/>
	<path fill="#FFFFFF" d="M116.926,92.603l-1.08,0.943l-2.788,2.427c-1.542-0.12-2.654-1.949-2.654-1.949
		c0.543-0.872,1.375-1.507,2.203-1.958c1.388-0.76,2.766-1.005,2.766-1.005L116.926,92.603z"/>
	<path fill="#FFFFFF" d="M140.327,94.023c0,0-1.114,1.829-2.655,1.949l-3.169-2.761l-0.698-0.609l1.32-1.495
		c0,0,0.982,0.152,2.135,0.614C138.358,92.162,139.616,92.884,140.327,94.023z"/>
	<circle fill="#35488B" cx="125.416" cy="76.794" r="0.237"/>
	<circle fill="#A53D38" cx="125.387" cy="82.825" r="0.452"/>
	<circle fill="#A53D38" cx="125.387" cy="90.073" r="0.452"/>
	<path fill="#35488B" d="M121.502,68.795c0,0-0.705,2.008-3.41,2.543c-2.703,0.534-2.336,3.663-2.336,3.663s0.479-1.48,1.142-1.587
		c0,0-1.325,3.096-0.073,5.269c1.251,2.171,1.715,4.076,1.429,4.596c0,0,2.879-1.614,2.842-3.639
		c-0.038-2.025-0.074-4.712,0.662-5.191c0,0,0.886-0.284,0.682-1.035c-0.204-0.75-0.335-3.666-0.335-3.666
		S121.615,69.058,121.502,68.795z"/>
	<path fill="#FFFFFF" d="M123.829,68.955c0,0,0.056,0.575,1.453,0.678c0,0,1.173,0.087,1.22-0.529
		C126.502,69.103,125.435,68.513,123.829,68.955z"/>
</g>
<g>
	<g>
		<g>
			<g>
				<path fill="#A6C6F4" d="M53.24,131.065c-0.026,0.003-0.051,0.005-0.076,0.005c-0.205,0-0.384-0.123-0.427-0.303l-4.839-20.711
					l-0.001-0.003l-0.352-1.509l1.655-0.071l0.541,2.823l3.731,19.483C53.496,130.915,53.394,131.042,53.24,131.065z"/>
			</g>
			<g>
				<path fill="#A6C6F4" d="M28.646,108.545l-0.797,3.41l-4.395,18.813c-0.042,0.18-0.223,0.303-0.427,0.303
					c-0.024,0-0.05-0.002-0.076-0.005c-0.154-0.023-0.257-0.15-0.231-0.285l3.977-20.771l0.295-1.535L28.646,108.545z"/>
			</g>
			<path fill="#A6C6F4" d="M28.646,108.545l-0.797,3.41c-0.114-1.384-1.153-1.946-1.153-1.946l0.295-1.535L28.646,108.545z"/>
			<path fill="#A6C6F4" d="M49.741,111.297c-0.818-1.192-1.811-1.194-1.842-1.24l-0.001-0.003l-0.352-1.509l1.655-0.071
				L49.741,111.297z"/>
		</g>
		<path fill="#A6C6F4" d="M49.333,108.695H25.347c-1.174,0-2.135-0.961-2.135-2.135v-1.685c0-1.173,0.96-2.133,2.135-2.133h23.986
			c1.174,0,2.134,0.96,2.134,2.133v1.685C51.467,107.734,50.506,108.695,49.333,108.695z"/>
	</g>
	<path fill="#A6C6F4" d="M51.412,104.631H24.78c-0.747,0-1.358-0.611-1.358-1.357V80.503c0-0.747,0.611-1.358,1.358-1.358h26.632
		c0.747,0,1.358,0.611,1.358,1.358v22.771C52.77,104.02,52.159,104.631,51.412,104.631z"/>
	<path fill="#1B2E59" d="M39.111,56.523c0,0-3.293-1.277-5.21,0.287c-1.917,1.563-3.287,9.679-2.646,11.2
		c0.641,1.521,2.54,2.438,2.54,2.438s-0.392-0.896-0.242-1.589c0,0,0.531,1.759,1.979,2.106s6.62-0.027,7.624-0.443
		c1.159-0.481,1.822-0.982,2.123-2.403S46.842,54.08,39.111,56.523z"/>
	<path fill="#FFB27D" d="M47.09,95.816c-0.71-3.914-2.782-8.369-2.782-8.369c1.503-6.241-0.031-13.257-0.031-13.257
		c-0.816-0.222-1.667-0.375-2.522-0.478c-0.105-0.558-0.409-2.232-0.539-3.674c-0.014-0.168-0.026-0.332-0.037-0.491
		c-0.025-0.409-0.03-0.786-0.005-1.089l-1.06,0.068l-4.361,0.288l-0.186,0.012c0,0,0.027,0.387,0.034,0.972
		c0.013,1.049-0.039,2.728-0.419,3.931c-1.876,0.193-3.147,0.464-3.147,0.464c-1.229,0.208-0.971,7.777,1.326,13.661
		c1.057,2.709-1.928,6.901-1.928,7.961S47.347,97.23,47.09,95.816z"/>
	<path fill="#EF9E67" d="M41.216,70.039c-0.41,0.477-1.442,1.502-2.758,1.525c-1.713,0.03-2.857-1.766-2.857-1.766
		c0.033-0.373,0.084-0.7,0.151-0.984l4.361-0.288c0.459,0.396,0.839,0.781,1.065,1.021C41.19,69.707,41.202,69.871,41.216,70.039z"
		/>
	<path fill="#FFB27D" d="M38.811,70.501L38.811,70.501c-2.374-0.019-4.3-1.976-4.283-4.35l0.028-3.596
		c0.012-1.599,1.331-2.897,2.93-2.884l2.618,0.02c1.599,0.012,2.897,1.331,2.884,2.93l-0.029,3.796
		C42.942,68.681,41.075,70.519,38.811,70.501z"/>
	<path fill="#FFFFFF" d="M37.409,67.811c0,0,0.084,0.571,1.486,0.601c0,0,1.176,0.025,1.191-0.594
		C40.086,67.818,38.988,67.285,37.409,67.811z"/>
	<path fill="#22356B" d="M26.694,102.822c0,0,2.904-6.723,5.563-8.035c2.659-1.313,13.245-0.148,14.834,1.029
		c1.589,1.178,3.62,7.006,3.62,7.006H26.694z"/>
	<path fill="#1B2E59" d="M29.343,102.822c0,0,1.035-4.033,3.339-4.209c2.304-0.175,5.379,1.956,6.472,1.383
		c1.093-0.574,3.18-2.014,5.117-1.646c1.937,0.365,4.851,4.473,4.851,4.473H29.343z"/>
	<path fill="#FFB27D" d="M46.726,116.344c-0.043,6.05-0.28,11.817-0.28,11.817l-3.192,0.271c0,0-1.12-4.926-2.613-10.311
		c-0.119-0.428-0.197-0.868-0.294-1.307c-0.921-4.126-1.827-8.402-2.256-11.084c-1.053-6.588,1.586-6.945,2.166-7.022
		c0.58-0.076,4.185-1.525,5.853,4.824C46.65,105.595,46.762,111.077,46.726,116.344z"/>
	<path fill="#FFFFFF" d="M46.726,116.344c-0.025,3.435-0.112,6.776-0.182,9.026c-0.053,1.712-0.098,2.791-0.098,2.791l-3.375,0.36
		c0,0-1.502-5.046-2.67-11.456c0.485,0.122,1.827,0.235,3.866-0.158C44.966,116.773,45.78,116.59,46.726,116.344z"/>
	<g>
		<path fill="#35488B" d="M46.989,129.864c0.024,0.133,0.045,0.254,0.062,0.362c0.039,0.248-0.136,0.478-0.384,0.508l-3.244,0.387
			c-0.237,0.029-0.458-0.139-0.49-0.377c-0.027-0.217-0.042-0.423-0.046-0.618c-0.017-0.633,0.069-1.127,0.128-1.392
			c0.029-0.132,0.116-0.244,0.238-0.302c1.551-0.719,2.626-0.482,3.022-0.342c0.105,0.036,0.195,0.113,0.242,0.214
			C46.749,128.786,46.898,129.388,46.989,129.864z"/>
		<g>
			<path fill="#35488B" d="M46.375,128.214c-0.004-0.006-0.473-0.599-1.575-0.587c-1.101,0.014-1.601,0.86-1.607,0.869l-0.162,0.182
				c0.024-0.041,0.565-1.214,1.767-1.227c1.195-0.015,1.7,0.825,1.721,0.854L46.375,128.214z"/>
		</g>
		<path fill="#22356B" d="M46.989,129.864c0.024,0.133,0.045,0.254,0.062,0.362c0.039,0.248-0.136,0.478-0.384,0.508l-3.244,0.387
			c-0.237,0.029-0.458-0.139-0.49-0.377c-0.027-0.217-0.042-0.423-0.046-0.618c0,0,0.303,0.708,2.273,0.445
			C46.35,130.411,46.811,130.091,46.989,129.864z"/>
	</g>
	<path fill="#FFB27D" d="M34.583,128.772l-2.656-0.708c0,0-0.057-4.566-0.048-9.873c0.001-0.497,0.001-0.999,0.004-1.506
		c0.017-4.423,0.087-9.102,0.278-11.947c0.046-0.683,0.114-1.293,0.203-1.838c0.763-4.771,2.952-4.572,3.476-4.524
		c0.583,0.055,4.419-0.554,4.629,6.009c0.071,2.211-0.588,8.068-2.396,13.204C36.332,122.531,34.583,128.772,34.583,128.772z"/>
	<path fill="#FFFFFF" d="M34.583,128.772l-2.793-0.326l-0.712-0.083c0,0,0.781-5.76,0.806-11.678c0,0,1.434,0.646,3.516,0.842
		c0.738,0.069,1.853,0.023,2.718-0.067C36.764,123.127,34.583,128.772,34.583,128.772z"/>
	<g>
		<path fill="#35488B" d="M34.791,130.32c0.009,0.133,0.015,0.257,0.019,0.367c0.009,0.25-0.191,0.458-0.44,0.458l-3.267,0.004
			c-0.238,0.002-0.439-0.19-0.442-0.431c-0.001-0.22,0.007-0.426,0.026-0.619c0.058-0.631,0.202-1.112,0.291-1.367
			c0.044-0.128,0.144-0.23,0.272-0.271c1.625-0.534,2.664-0.172,3.041,0.014c0.101,0.048,0.181,0.136,0.216,0.241
			C34.68,129.221,34.757,129.836,34.791,130.32z"/>
		<g>
			<path fill="#35488B" d="M34.375,128.609c-0.004-0.008-0.4-0.651-1.496-0.768c-1.095-0.115-1.69,0.666-1.697,0.675L31,128.678
				c0.029-0.038,0.703-1.139,1.898-1.012c1.189,0.127,1.591,1.02,1.609,1.05L34.375,128.609z"/>
		</g>
		<path fill="#22356B" d="M34.791,130.32c0.009,0.133,0.015,0.257,0.019,0.367c0.009,0.25-0.191,0.458-0.44,0.458l-3.267,0.004
			c-0.238,0.002-0.439-0.19-0.442-0.431c-0.001-0.22,0.007-0.426,0.026-0.619c0,0,0.219,0.737,2.206,0.707
			C34.092,130.788,34.588,130.523,34.791,130.32z"/>
	</g>
	<path fill="#C65447" d="M50.995,89.548h-3.901c-0.339-0.771-0.73-1.741-0.53-0.781c0.78,3.727,1.372,7.232,1.28,7.982
		c-0.209,1.71-6.889,0.939-8.61,0.528c-1.722-0.414-5.637,0.53-8.768,0.47c-1.801-0.033-1.249-5.049-0.456-9.297
		c0.188-1.02-0.5,0.495-0.746,1.166c0,0-4.697,0.565-5.142-0.77c-0.551-1.654,1.91-11.231,5.222-13.704c0,0,1.868-1.677,4.768-1.287
		c0,0,1.089,1.935,4.231,2.082c3.142,0.146,4.814-2.008,4.814-2.008s2.624,0.065,3.684,1.213c0.987,1.071,3.804,3.798,5.488,12.796
		C52.484,88.774,51.844,89.548,50.995,89.548z"/>
	<path fill="#B5493F" d="M47.843,96.749c-0.209,1.71-6.889,0.939-8.61,0.528c-1.722-0.414-5.637,0.53-8.768,0.47
		c-1.801-0.033-1.249-5.049-0.456-9.297c0,0,3.394,5.941,7.625,5.9s8.929-5.584,8.929-5.584
		C47.343,92.493,47.935,95.999,47.843,96.749z"/>
	<path fill="#FFFFFF" d="M35.436,72.596c0,0,1.473,2.891,2.906,3.343c0,0-2.039,0.771-5.011-2.141
		C33.331,73.798,33.921,72.627,35.436,72.596z"/>
	<path fill="#FFFFFF" d="M41.617,72.596c0,0-1.841,2.891-3.275,3.343c0,0,2.408,0.945,5.38-1.967
		C43.722,73.972,43.131,72.627,41.617,72.596z"/>
	<circle fill="#35488B" cx="38.37" cy="75.928" r="0.234"/>
	<circle fill="#A53D38" cx="38.342" cy="81.874" r="0.446"/>
	<circle fill="#A53D38" cx="38.342" cy="89.021" r="0.446"/>
	<path fill="#1B2E59" d="M39.356,60.255c0,0,0.631,2.317,2.302,2.983c0,0-0.763-1.339-0.486-1.99c0,0,0.722,2.618,1.8,3.525
		c0,0,1.587-5.403-2.818-5.71c-4.406-0.306-6.192,1.993-6.232,3.653s0.611,2.944,0.611,2.944s0.505-3.072,2.445-3.955
		C38.917,60.822,39.356,60.255,39.356,60.255z"/>
	<g>
		<rect x="9.733" y="93.611" fill="#2B478B" width="2.942" height="39.966"/>
		<path fill="#84A6F4" d="M73.075,93.611H7.712c-0.977,0-1.768-0.791-1.768-1.768v-0.539c0-0.976,0.792-1.768,1.768-1.768h65.363
			c0.976,0,1.767,0.792,1.767,1.768v0.539C74.842,92.82,74.051,93.611,73.075,93.611z"/>
		<rect x="69.303" y="93.611" fill="#2B478B" width="2.942" height="39.966"/>
		<rect x="9.62" y="100.09" fill="#84A6F4" width="62.625" height="15.276"/>
	</g>
	<path fill="#EF9E67" d="M48.143,85.606l-8.032,2.29v1.626c0,0,10.001,0.385,10.539-0.372c0.41-0.577,0.189-1.712-0.063-2.29
		C50.172,85.918,49.15,85.396,48.143,85.606z"/>
	<path fill="#EF9E67" d="M40.11,87.896c0,0-3.049,0.138-3.412,0.287c-0.362,0.148-1.7,1.354-1.7,1.354h5.112V87.896z"/>
	<path fill="#FFB27D" d="M28.13,85.606l8.255,2.29l-0.223,1.626c0,0-10.332,0.487-10.717-0.356c-0.26-0.57-0.011-1.728,0.242-2.306
		C26.1,85.918,27.122,85.396,28.13,85.606z"/>
	<path fill="#FFB27D" d="M36.385,87.896c0,0,2.646,0.138,3.009,0.287c0.362,0.148,1.879,1.354,1.879,1.354h-5.111L36.385,87.896z"/>
</g>
<g>
	<rect x="93.667" y="94.339" fill="#2B478B" width="2.942" height="39.966"/>
	<path fill="#84A6F4" d="M157.009,94.339H91.645c-0.975,0-1.767-0.791-1.767-1.768v-0.54c0-0.975,0.792-1.767,1.767-1.767h65.364
		c0.977,0,1.769,0.792,1.769,1.767v0.54C158.777,93.548,157.985,94.339,157.009,94.339z"/>
	<rect x="153.236" y="94.339" fill="#2B478B" width="2.942" height="39.966"/>
	<rect x="93.554" y="100.816" fill="#84A6F4" width="62.625" height="15.277"/>
</g>
<g>
	<g>
		<g>
			<g>
				<path fill="#A6C6F4" d="M222.496,134.245c-0.027,0.003-0.053,0.006-0.077,0.006c-0.205,0-0.385-0.124-0.427-0.304l-4.838-20.711
					l-0.003-0.003l-0.351-1.509l1.654-0.071l0.54,2.823l3.731,19.484C222.752,134.095,222.649,134.222,222.496,134.245z"/>
			</g>
			<g>
				<path fill="#A6C6F4" d="M197.902,111.725l-0.797,3.41l-4.396,18.813c-0.042,0.18-0.223,0.304-0.428,0.304
					c-0.024,0-0.049-0.003-0.075-0.006c-0.153-0.023-0.257-0.15-0.232-0.284l3.978-20.772l0.294-1.535L197.902,111.725z"/>
			</g>
			<path fill="#A6C6F4" d="M197.902,111.725l-0.797,3.41c-0.115-1.384-1.153-1.946-1.153-1.946l0.294-1.535L197.902,111.725z"/>
			<path fill="#A6C6F4" d="M218.995,114.477c-0.817-1.192-1.81-1.194-1.841-1.24l-0.003-0.003l-0.351-1.509l1.654-0.071
				L218.995,114.477z"/>
		</g>
		<path fill="#A6C6F4" d="M218.587,111.875h-23.985c-1.175,0-2.135-0.961-2.135-2.135v-1.685c0-1.173,0.96-2.133,2.135-2.133h23.985
			c1.175,0,2.135,0.96,2.135,2.133v1.685C220.722,110.914,219.762,111.875,218.587,111.875z"/>
	</g>
	<path fill="#A6C6F4" d="M220.667,107.811h-26.632c-0.748,0-1.359-0.611-1.359-1.357V83.683c0-0.747,0.611-1.358,1.359-1.358h26.632
		c0.747,0,1.358,0.611,1.358,1.358v22.771C222.025,107.199,221.414,107.811,220.667,107.811z"/>
	<path fill="#22356B" d="M201.623,134.477c0,0-0.027-3.345,1.455-3.608c1.481-0.264,3.628-1.065,3.928,3.608H201.623z"/>
	<path fill="#22356B" d="M209.266,134.477c0,0-0.026-3.345,1.454-3.608c1.482-0.264,3.628-1.065,3.93,3.608H209.266z"/>
	<path fill="#1B2E59" d="M199.158,98.786c0,0-1.3,2.794-1.696,6.301h20.914c0,0-1.916-6.126-3.633-6.804
		C213.026,97.606,199.158,98.786,199.158,98.786z"/>
	<path fill="#35488B" d="M203.373,67.532c0,0-1.402-2.973-2.256-5.306c-1.017-2.786,0.608-6.627,6.255-6.404
		c0,0,1.836-0.029,2.429-0.397c0,0-0.152,0.646-0.345,0.787c0,0,4.479,0.287,4.413,2.288c-0.204,6.127-1.748,8.077-1.748,8.077
		L203.373,67.532z"/>
	<path fill="#FFB27D" d="M216.89,97.818c-0.736-4.061-2.885-8.685-2.885-8.685c1.56-6.473-0.034-13.753-0.034-13.753
		c-0.847-0.229-1.729-0.389-2.615-0.495c-0.11-0.579-0.425-2.316-0.56-3.812c-0.016-0.174-0.027-0.344-0.039-0.509
		c-0.025-0.425-0.03-0.815-0.005-1.13l-1.1,0.071l-4.524,0.298l-0.192,0.013c0,0,0.026,0.401,0.033,1.008
		c0.015,1.088-0.039,2.83-0.433,4.08c-1.947,0.199-3.267,0.48-3.267,0.48c-1.274,0.215-1.006,8.069,1.375,14.174
		c1.098,2.811-2,7.16-2,8.26S217.155,99.285,216.89,97.818z"/>
	<path fill="#EF9E67" d="M210.796,71.074c-0.426,0.495-1.496,1.559-2.861,1.583c-1.777,0.031-2.966-1.832-2.966-1.832
		c0.035-0.386,0.089-0.726,0.159-1.021l5.405-0.817c0.212,0.134,0.176,1.077,0.224,1.578C210.769,70.729,210.78,70.9,210.796,71.074
		z"/>
	<path fill="#FFB27D" d="M207.854,71.172L207.854,71.172c-2.464,0.001-4.48-2.013-4.481-4.475l-0.002-3.732
		c0-1.658,1.355-3.017,3.016-3.018l2.715-0.002c1.659-0.001,3.018,1.356,3.019,3.015l0.002,3.938
		C212.122,69.248,210.201,71.17,207.854,71.172z"/>
	<path fill="#FFFFFF" d="M206.374,68.392c0,0,0.094,0.592,1.547,0.611c0,0,1.221,0.016,1.232-0.626
		C209.153,68.377,208.009,67.834,206.374,68.392z"/>
	<path fill="#C65447" d="M223.095,94.807l-3.944-1.972l-1.187-0.594c-0.354-0.798-1.541-3.298-2.276-4.729
		c0.165,0.716,0.328,1.448,0.484,2.18c0.059,0.271,0.114,0.542,0.171,0.813c0.811,3.865,1.423,7.501,1.328,8.281
		c-0.218,1.773-7.147,0.975-8.934,0.548c-1.786-0.429-5.849,0.551-9.097,0.486c-1.869-0.033-1.297-5.237-0.472-9.646
		c0.194-1.058,0.408-2.069,0.603-2.953c-1.048,2.09-2.134,4.295-2.388,4.99l-2.237,1.178l-2.474,1.301l-0.064,0.035
		c-0.006-0.012-0.009-0.023-0.01-0.034v-0.001c-0.151-0.805,2.444-15.756,5.878-18.32c0,0,0.11-0.1,0.32-0.245
		c0.667-0.463,2.337-1.399,4.628-1.091c0,0,1.13,2.008,4.39,2.161c3.259,0.151,4.994-2.084,4.994-2.084s1.594,0.04,2.835,0.592
		c0.381,0.169,0.729,0.387,0.986,0.667C217.713,77.544,222.984,87.617,223.095,94.807z"/>
	<path fill="#B5493F" d="M217.67,98.786c-0.217,1.773-7.146,0.975-8.933,0.548c-1.786-0.429-5.849,0.55-9.097,0.486
		c-1.869-0.033-1.296-5.236-0.472-9.646c0,0,3.521,6.165,7.91,6.123s9.263-5.793,9.263-5.793
		C217.153,94.37,217.767,98.008,217.67,98.786z"/>
	<path fill="#E8945B" d="M218.135,92.06c0,0-5.595,5.979-8.32,7.991l0.869,1.786c0,0,8.643-3.271,12.289-7.86L218.135,92.06z"/>
	<path fill="#E8945B" d="M210.519,99.631c0,0-2.302,0.646-2.677,1.359c-0.374,0.715-0.216,2.76,0.363,2.421
		c0.581-0.34,3.784-2.444,3.784-2.444L210.519,99.631z"/>
	<path fill="#FFFFFF" d="M204.798,73.727c0,0,1.528,3,3.016,3.468c0,0-2.115,0.801-5.199-2.221
		C202.614,74.973,203.227,73.759,204.798,73.727z"/>
	<path fill="#FFFFFF" d="M211.212,73.727c0,0-1.911,3-3.398,3.468c0,0,2.497,0.801,5.583-2.221
		C213.396,74.973,212.783,73.759,211.212,73.727z"/>
	<path fill="#FFB27D" d="M197.4,92.06c0,0,5.824,5.757,8.625,7.662l-0.799,1.818c0,0-8.26-2.808-12.083-7.252L197.4,92.06z"/>
	<path fill="#FFB27D" d="M203.943,99.214c0,0,2.384,0.163,2.896,0.786c0.513,0.624,0.774,2.659,0.137,2.443
		c-0.638-0.214-4.201-1.622-4.201-1.622L203.943,99.214z"/>
	<circle fill="#A53D38" cx="207.814" cy="83.353" r="0.462"/>
	<circle fill="#A53D38" cx="207.814" cy="90.767" r="0.462"/>
	<path fill="#35488B" d="M212.562,58.831c-0.114-0.076-7.945-1.162-7.945-1.162l-2.22,1.582l-0.337,2.231l1.311,1.483
		c0,0,0.421-1.438,1.399-1.485c0.979-0.048,4.217,1.871,5.158,1.004c0.94-0.866,1.597-1.174,2.002-0.569
		C212.337,62.52,212.673,58.905,212.562,58.831z"/>
	<path fill="#2B478B" d="M208.049,131.363c0,0-1.334,0.553-3.36,0.569c-1.202,0.007-2.648-0.172-4.206-0.771
		c0,0-1.168-8.191-1.867-15.199c-0.397-3.984-0.642-7.586-0.434-9.079c0.577-4.118,2.451-6.498,4.815-6.3
		c2.365,0.198,4.576,1.837,4.741,3.823C207.902,106.396,208.049,131.363,208.049,131.363z"/>
	<path fill="#2B478B" d="M216.125,125.283c-0.424,3.394-0.769,5.869-0.769,5.869c-4.173,1.62-7.566,0.225-7.566,0.225
		s0.051-19.291,0.172-25.309c0.016-0.828,0.034-1.404,0.053-1.646c0.157-1.987,2.365-3.635,4.729-3.84
		c2.363-0.206,4.245,2.167,4.835,6.285C217.962,109.543,216.909,118.991,216.125,125.283z"/>
	<path fill="#FFFFFF" d="M200.645,84.109l-0.873,3.111c-1.048,2.09-2.134,4.295-2.388,4.99l-2.237,1.178l-2.474,1.301h-0.074
		c-0.151-0.805,2.444-15.756,5.878-18.32c0,0,0.11-0.1,0.32-0.245C199.903,78.214,201.94,82.56,200.645,84.109z"/>
	<path fill="#FFFFFF" d="M199.158,93.354l-1.104,0.965l-2.852,2.481c-1.576-0.123-2.714-1.993-2.714-1.993
		c0.557-0.893,1.406-1.541,2.254-2.003c1.419-0.776,2.827-1.027,2.827-1.027L199.158,93.354z"/>
	<path fill="#FFFFFF" d="M223.095,94.807l-2.306-1.152l-1.639-0.819l-1.187-0.594c-0.354-0.798-1.541-3.298-2.276-4.729
		c0.165,0.716,0.328,1.448,0.484,2.18l-1.711-6.34c-0.76-1.12,0.845-6.551,1.183-7.65c0.381,0.169,0.729,0.387,0.986,0.667
		c0.35,0.38,1.137,1.688,2.047,3.529l0.001,0.001c0,0.001,0,0.002,0.001,0.006C220.583,83.76,223.021,89.943,223.095,94.807z"/>
	<path fill="#FFFFFF" d="M223.094,94.807c0,0-1.14,1.87-2.715,1.993l-3.241-2.823l-0.715-0.623l1.351-1.53
		c0,0,1.005,0.156,2.185,0.629C221.081,92.903,222.367,93.641,223.094,94.807z"/>
	<path fill="#233F77" d="M216.125,125.283c-0.424,3.394-0.769,5.869-0.769,5.869c-4.173,1.62-7.566,0.225-7.566,0.225
		s0.051-19.291,0.172-25.309c0.134-0.585,0.214-0.932,0.224-0.977C208.159,105.47,206.997,122.851,216.125,125.283z"/>
	<path fill="#233F77" d="M204.688,131.933c-1.202,0.007-2.648-0.172-4.206-0.771c0,0-1.168-8.191-1.867-15.199
		C198.654,116.157,201.08,127.933,204.688,131.933z"/>
</g>
<g>
	<rect x="174.979" y="93.611" fill="#2B478B" width="2.943" height="39.966"/>
	<path fill="#84A6F4" d="M237.346,93.611h-65.363c-0.975,0-1.766-0.791-1.766-1.768v-0.539c0-0.976,0.791-1.768,1.766-1.768h65.363
		c0.977,0,1.769,0.792,1.769,1.768v0.539C239.114,92.82,238.322,93.611,237.346,93.611z"/>
	<rect x="234.549" y="93.611" fill="#2B478B" width="2.942" height="39.966"/>
	<rect x="174.866" y="100.09" fill="#84A6F4" width="62.625" height="15.276"/>
</g>
<g opacity="0.5">
	<rect x="-3.397" y="13.617" fill="#8EB2DD" width="47.983" height="34.35"/>
	<rect x="-2.407" y="14.509" fill="#AFCDFB" width="45.87" height="32.464"/>
	<g opacity="0.4">
		<g>
			<rect x="-2.34" y="14.591" fill="#CFDCE5" width="15.282" height="10.705"/>
			<rect x="12.941" y="14.591" fill="#D9E6ED" width="15.282" height="10.705"/>
			<rect x="28.248" y="14.591" fill="#EAF4F9" width="15.282" height="10.705"/>
		</g>
		<g>
			<rect x="-2.34" y="35.978" fill="#CFDCE5" width="15.282" height="10.705"/>
			<rect x="12.941" y="35.978" fill="#D9E6ED" width="15.282" height="10.705"/>
			<rect x="28.248" y="35.978" fill="#EAF4F9" width="15.282" height="10.705"/>
		</g>
		<g>
			<rect x="28.248" y="25.196" fill="#CFDCE5" width="15.282" height="10.705"/>
			<rect x="12.967" y="25.196" fill="#D9E6ED" width="15.281" height="10.705"/>
			<rect x="-2.34" y="25.196" fill="#EAF4F9" width="15.282" height="10.705"/>
		</g>
	</g>
	<g>
		<path fill="#699FF0" d="M36.872,35.945c0,0-0.357,1.071-1.487,1.041s-1.25,1.071-1.189,1.904c0.059,0.833,0.178,1.458,1.1,1.189
			c0.922-0.268,1.1-0.476,1.934,0.417c0.833,0.893,2.32-0.446,2.23-1.279c-0.089-0.833-0.327-2.231-0.981-2.379
			C37.824,36.689,37.377,35.648,36.872,35.945z"/>
		<g>
			<path fill="#A8D29F" d="M37.782,35.292c-0.219-0.022-0.408,0.26-0.451,0.66c-0.043,0.4-0.357,0.638-0.238,0.908
				c0.119,0.271,0.44,0.054,0.689,0.113c0.932,0.222,0.6-0.52,0.503-0.844C38.188,35.804,38.395,35.35,37.782,35.292z"/>
			<polygon fill="#AFCDFB" points="37.782,36.107 37.682,37.54 37.876,37.54 			"/>
		</g>
		<g>
			<path fill="#A8D29F" d="M35.861,35.787c-0.22-0.021-0.409,0.261-0.452,0.661c-0.043,0.4-0.356,0.638-0.238,0.908
				c0.119,0.271,0.44,0.054,0.69,0.113c0.931,0.222,0.6-0.521,0.502-0.845C36.267,36.3,36.473,35.846,35.861,35.787z"/>
			<polygon fill="#AFCDFB" points="35.861,36.603 35.76,38.036 35.955,38.036 			"/>
		</g>
		<path fill="#699FF0" d="M6.442,20.24c0,0-1.844,0.208-2.291-0.744c-0.446-0.952-2.112-0.457-2.32,0.381
			c-0.208,0.838-1.755,1.76-1.279,2.444c0.476,0.684,2.855-0.357,3.064,0.476c0.208,0.833,0,1.518,0.744,2.499
			s-0.536,1.844-0.119,3.332s2.677,2.439,3.242,1.814c0.565-0.625-0.089-1.666,0.803-2.023c0.892-0.357,2.945-0.981,3.123-2.112
			c0.179-1.13,0.327-3.123-0.922-2.855c-1.25,0.268-2.915,0.654-2.737-0.178C7.929,22.441,8.286,20.15,6.442,20.24z"/>
		<path fill="#699FF0" d="M22.338,29.562c0,0-1.101,0.238-1.547-0.327c-0.446-0.565-1.279-0.328-1.844,0
			c-0.565,0.327-2.142,1.189-1.755,2.439c0.386,1.249,1.16,2.201,2.26,2.052c1.101-0.149,1.904,0.684,1.547,1.458
			c-0.357,0.773-0.268,1.814,0.327,2.618c0.595,0.803,1.458,2.171,2.291,1.339c0.833-0.833,1.13-1.726,1.755-2.439
			c0.625-0.714-0.119-2.32,0.327-2.796c0.447-0.476,0.447-1.279-0.773-1.458C23.707,32.269,22.948,29.324,22.338,29.562z"/>
		<path fill="#699FF0" d="M14.218,34.589c0,0-1.398,0.127-1.667-0.443c-0.267-0.569-1.071-1.907-2.231-1.64
			c-1.16,0.268-2.558,0.833-2.499,1.517s1.517,2.945,1.101,4.016c-0.416,1.071,1.667,5.384,2.499,4.61
			c0.833-0.773,0.06-2.23,0.773-2.795c0.714-0.565,0.625-3.094,1.042-3.272C13.652,36.403,15.208,34.634,14.218,34.589z"/>
		<path fill="#F1A34F" d="M16.016,19.891c-0.616,0-1.115,0.5-1.115,1.116s1.115,1.986,1.115,1.986s1.116-1.37,1.116-1.986
			S16.632,19.891,16.016,19.891z M16.016,21.517c-0.288,0-0.521-0.233-0.521-0.521s0.233-0.521,0.521-0.521s0.521,0.233,0.521,0.521
			S16.304,21.517,16.016,21.517z"/>
		<path fill="#F1A34F" d="M22.989,36.511c-0.397,0-0.718,0.321-0.718,0.718s0.718,1.279,0.718,1.279s0.719-0.882,0.719-1.279
			S23.386,36.511,22.989,36.511z M22.989,37.558c-0.186,0-0.336-0.15-0.336-0.336s0.15-0.336,0.336-0.336s0.336,0.15,0.336,0.336
			S23.174,37.558,22.989,37.558z"/>
		<path fill="#EBF3FA" d="M10.677,17.038c0,0-0.625,0.892-1.487,1.101c-0.863,0.208-1.637,0.833-1.072,1.428
			c0.565,0.594,0.744,1.76,1.786,1.95c1.041,0.191,2.35-2.278,2.32-2.873C12.194,18.049,11.231,16.445,10.677,17.038z"/>
		<path fill="#F1A34F" d="M6.512,23.969c-0.616,0-1.116,0.5-1.116,1.116s1.116,1.986,1.116,1.986s1.116-1.37,1.116-1.986
			S7.128,23.969,6.512,23.969z M6.512,25.595c-0.288,0-0.521-0.233-0.521-0.521c0-0.288,0.233-0.521,0.521-0.521
			c0.288,0,0.522,0.233,0.522,0.521C7.034,25.361,6.8,25.595,6.512,25.595z"/>
		<path fill="#699FF0" d="M32.395,18.977c0,0-1.427,1.055-2.721,0.653c-1.294-0.401-2.767,2.053-3.614,2.231
			c-0.848,0.179-2.633,2.187-3.436,1.293c-0.803-0.892-3.57,0.851-3.034,1.653c0.535,0.801-2.722,3.033-1.696,3.39
			c1.026,0.357,4.552-1.339,4.909,0c0.357,1.338,0.981,3.569,2.587,2.989c1.606-0.58,3.436-0.837,3.659,0.094
			c0.223,0.932,0.625,2.092,1.293,1.601c0.669-0.491,1.383-2.142,2.052-1.651c0.67,0.491,3.793-1.383,3.659-2.811
			C35.92,26.992,37.927,17.61,32.395,18.977z"/>
		<g>
			<polygon fill="#CA5F00" points="23.625,19.896 20.637,18.356 23.309,18.407 23.121,18.866 23.696,19.454 			"/>
			<polygon fill="#F99746" points="20.637,18.356 23.721,18.795 26.013,20.255 			"/>
			<polygon fill="#F99746" points="23.309,18.407 20.637,18.356 23.393,17.428 			"/>
		</g>
		<g>
			<g>
				<polygon fill="#AFCDFB" points="30.759,28.147 27.561,28.118 28.886,25.599 29.27,24.868 29.68,25.769 				"/>
				<path fill="#E9F3FE" d="M29.68,25.769c-0.085-0.011-0.17-0.087-0.284-0.076c-0.147,0.015-0.245,0.142-0.334,0
					c-0.03-0.047-0.099-0.077-0.176-0.094l0.384-0.731L29.68,25.769z"/>
			</g>
			<g>
				<polygon fill="#AFCDFB" points="28.964,28.147 26.533,28.124 27.541,26.21 27.832,25.654 28.144,26.339 				"/>
				<path fill="#E9F3FE" d="M28.144,26.339c-0.065-0.008-0.129-0.067-0.216-0.058c-0.111,0.011-0.186,0.107-0.254,0
					c-0.023-0.037-0.076-0.059-0.134-0.072l0.292-0.556L28.144,26.339z"/>
			</g>
		</g>
		<g>
			<path fill="#A8D29F" d="M29.583,22.111c0.151,0.005,0.357-0.073,0.357-0.073c-0.479-0.246-0.714-1.043-0.714-1.043
				s-0.234,0.798-0.714,1.043c0,0,0.206,0.078,0.357,0.073c0,0-0.14,0.396-0.462,0.468c0,0,0.646,0.145,0.819,0
				c0.173,0.145,0.82,0,0.82,0C29.723,22.507,29.583,22.111,29.583,22.111z"/>
			<polygon fill="#A9453D" points="29.227,22.206 29.142,22.935 29.327,22.935 			"/>
		</g>
		<g>
			<path fill="#A8D29F" d="M30.838,23.091c0.151,0.005,0.357-0.072,0.357-0.072c-0.479-0.246-0.713-1.044-0.713-1.044
				s-0.234,0.798-0.714,1.044c0,0,0.206,0.078,0.357,0.072c0,0-0.139,0.396-0.463,0.468c0,0,0.646,0.145,0.82,0
				c0.172,0.145,0.82,0,0.82,0C30.978,23.487,30.838,23.091,30.838,23.091z"/>
			<polygon fill="#A9453D" points="30.481,23.185 30.396,23.914 30.582,23.914 			"/>
		</g>
		<g>
			<path fill="#A8D29F" d="M28.242,23.205c0.15,0.005,0.357-0.073,0.357-0.073c-0.48-0.245-0.714-1.043-0.714-1.043
				s-0.234,0.798-0.714,1.043c0,0,0.207,0.078,0.357,0.073c0,0-0.139,0.396-0.463,0.468c0,0,0.647,0.145,0.82,0
				c0.173,0.145,0.82,0,0.82,0C28.381,23.6,28.242,23.205,28.242,23.205z"/>
			<polygon fill="#A9453D" points="27.884,23.299 27.799,24.028 27.985,24.028 			"/>
		</g>
		<path fill="#699FF0" d="M14.297,30.507c0,0,0.656-1.022,1.513-1.21c0,0-1.306,1.075-1.153,1.834c0,0-0.966-0.794-1.247-0.648
			C13.41,30.482,13.916,30.292,14.297,30.507z"/>
		<path fill="#699FF0" d="M12.592,30.066c0,0,0.417-0.65,0.962-0.77c0,0-0.831,0.684-0.734,1.167c0,0-0.615-0.506-0.793-0.412
			C12.028,30.052,12.349,29.93,12.592,30.066z"/>
		<path fill="#699FF0" d="M20.494,41.491c-0.237,0.099-0.873,0.484-0.873,0.484c-0.365-0.082-0.942-0.188-1.596-0.225
			c0.035-0.087,0.094-0.26,0.025-0.26c-0.066,0-0.308,0.157-0.442,0.247c-0.399-0.001-0.816,0.028-1.222,0.106
			c-0.278,0.055-0.675,0.388,0.009,0.502c0.601,0.098,1.607,0.111,3.227-0.189v0l0.565,0.249c0,0-0.088-0.164-0.157-0.329
			C19.96,41.912,20.494,41.491,20.494,41.491z"/>
		<path fill="#699FF0" d="M3.799,37.476c-0.177,0.074-0.651,0.361-0.651,0.361c-0.272-0.061-0.702-0.14-1.189-0.167
			c0.026-0.066,0.07-0.194,0.019-0.194c-0.049,0-0.229,0.116-0.33,0.185c-0.297-0.002-0.608,0.02-0.911,0.08
			c-0.208,0.041-0.503,0.289,0.007,0.373c0.447,0.074,1.197,0.083,2.404-0.14l0,0l0.422,0.186c0,0-0.066-0.122-0.118-0.245
			C3.401,37.791,3.799,37.476,3.799,37.476z"/>
		<path fill="#699FF0" d="M5.286,38.856c-0.178,0.073-0.651,0.361-0.651,0.361c-0.272-0.061-0.702-0.14-1.189-0.167
			c0.026-0.065,0.07-0.193,0.019-0.193c-0.049,0-0.23,0.117-0.33,0.184c-0.298-0.001-0.608,0.021-0.911,0.08
			c-0.208,0.041-0.503,0.289,0.006,0.374c0.448,0.074,1.197,0.083,2.404-0.14l0,0l0.422,0.185c0,0-0.066-0.122-0.118-0.245
			C4.888,39.17,5.286,38.856,5.286,38.856z"/>
	</g>
	<g>
		<circle fill="#E9F3FE" cx="39.937" cy="17.833" r="2.074"/>
		<g>
			<g>
				<polygon fill="#CFDCE5" points="39.956,16.272 39.784,17.833 40.091,17.833 				"/>
				<polygon fill="#CFDCE5" points="39.919,19.394 40.091,17.833 39.784,17.833 				"/>
			</g>
			<g>
				<polygon fill="#CFDCE5" points="41.498,17.829 39.938,17.657 39.938,17.964 				"/>
				<polygon fill="#CFDCE5" points="38.376,17.792 39.938,17.964 39.938,17.657 				"/>
			</g>
			<g>
				<polygon fill="#CFDCE5" points="40.929,18.719 39.981,17.753 39.879,17.868 				"/>
				<polygon fill="#CFDCE5" points="38.932,16.902 39.879,17.868 39.981,17.753 				"/>
			</g>
			<g>
				<polygon fill="#CFDCE5" points="39.059,18.809 40.024,17.862 39.91,17.76 				"/>
				<polygon fill="#CFDCE5" points="40.876,16.812 39.91,17.76 40.024,17.862 				"/>
			</g>
			<g>
				<polygon fill="#699FF0" points="40.317,16.318 39.788,17.797 40.087,17.868 				"/>
				<polygon fill="#C65447" points="39.558,19.347 40.087,17.868 39.788,17.797 				"/>
				<circle fill="#FFFFFF" cx="39.937" cy="17.833" r="0.121"/>
			</g>
		</g>
	</g>
	<g>
		<polygon fill="#AFCDFB" points="29.952,13.62 22.984,10.745 16.61,13.617 16.48,13.617 22.987,10.425 30.103,13.617 		"/>
	</g>
	<circle fill="#A9453D" cx="22.972" cy="10.821" r="0.223"/>
</g>
<g>
	<g>
		<g>
			<rect x="97.651" y="88.09" fill="#EFDECE" width="8.41" height="1.416"/>
			<path fill="#2A4E96" d="M106.239,89.354H93.581l-0.038-1.265h12.69c0.04,0,0.074-0.033,0.073-0.072
				c-0.001-0.044-0.036-0.077-0.079-0.077H93.538h-0.371c-0.091,0-0.177,0.048-0.223,0.128c-0.143,0.25-0.374,0.831,0.085,1.438
				h0.008h0.548h12.635c0.047,0,0.085-0.038,0.085-0.086C106.307,89.385,106.276,89.354,106.239,89.354z"/>
			<path fill="#FCECDB" d="M101.438,89.354l-8.152,0.009c-0.143,0-0.257-0.115-0.257-0.258v-0.859c0-0.085,0.069-0.156,0.155-0.156
				h8.255V89.354z"/>
			<polygon fill="#EFDECE" points="99.004,88.77 101.438,88.747 101.438,88.83 			"/>
			<polygon fill="#EFDECE" points="100.562,89.064 101.438,89.021 101.438,89.078 			"/>
		</g>
		<g>
			<rect x="96.388" y="86.525" fill="#EFDECE" width="7.43" height="1.415"/>
			<path fill="#A9453D" d="M103.976,87.789H92.791l-0.033-1.264h11.212c0.036,0,0.065-0.032,0.064-0.073
				c-0.001-0.043-0.032-0.077-0.07-0.077H92.754h-0.328c-0.081,0-0.156,0.048-0.197,0.129c-0.126,0.25-0.331,0.83,0.075,1.437h0.007
				h0.484h11.165c0.042,0,0.075-0.038,0.075-0.084C104.036,87.819,104.008,87.789,103.976,87.789z"/>
			<path fill="#FCECDB" d="M99.735,87.789l-7.204,0.009c-0.126,0-0.228-0.115-0.228-0.258v-0.858c0-0.086,0.062-0.156,0.138-0.156
				h7.293V87.789z"/>
			<polygon fill="#EFDECE" points="97.584,87.205 99.735,87.183 99.735,87.266 			"/>
			<polygon fill="#EFDECE" points="98.959,87.499 99.735,87.456 99.735,87.514 			"/>
		</g>
	</g>
	<g>
		<path fill="#C94C43" d="M99.252,88.768c0,0-0.125,0.029-0.237,0.101c-0.091,0.059-0.171,0.145-0.169,0.268
			c0.001,0.024-0.003,0.046-0.011,0.064h-0.677c0.021-0.039,0.035-0.085,0.035-0.137c0-0.081,0.033-0.146,0.071-0.195
			c0.052-0.066,0.114-0.101,0.114-0.101H99.252z"/>
		<path fill="#A9453D" d="M98.834,89.2c-0.051,0.124-0.256,0.154-0.256,0.154l-0.237-0.06l-0.343,0.06c0,0,0.104-0.051,0.16-0.154
			H98.834z"/>
		<path fill="#A9453D" d="M99.252,88.768c0,0-0.125,0.029-0.237,0.101h-0.751c0.052-0.066,0.114-0.101,0.114-0.101H99.252z"/>
	</g>
</g>
<g>
	<g>
		<g>
			<path fill="#FCECDB" d="M17.552,88.284h-4.575v-1.616h4.59c0.357,0,0.646,0.29,0.646,0.646v0.309
				C18.213,87.988,17.917,88.284,17.552,88.284z"/>
			<path fill="#699DEE" d="M22.118,87.333v0.243c0,0.13-0.035,0.252-0.096,0.355c-0.123,0.212-0.351,0.353-0.612,0.353h-8.573
				c-0.056,0-0.103-0.046-0.103-0.103v-0.036c0-0.057,0.046-0.103,0.103-0.103h5.226c0.028-0.034,0.053-0.071,0.073-0.111
				c0.049-0.091,0.077-0.196,0.077-0.309v-0.309c0-0.058-0.008-0.111-0.021-0.164c-0.024-0.089-0.066-0.171-0.122-0.24h-5.234
				c-0.056,0-0.103-0.046-0.103-0.103v-0.037c0-0.056,0.046-0.103,0.103-0.103h8.617c0.303,0,0.559,0.204,0.639,0.482
				C22.109,87.208,22.118,87.27,22.118,87.333z"/>
			<path fill="#548EE2" d="M22.092,87.15h-3.9c-0.024-0.089-0.066-0.171-0.122-0.24h-5.234c-0.056,0-0.103-0.046-0.103-0.103v-0.037
				c0-0.056,0.046-0.103,0.103-0.103h8.617C21.756,86.668,22.012,86.872,22.092,87.15z"/>
		</g>
		<polygon fill="#F4D2B8" points="12.977,87.477 13.611,87.503 12.977,87.52 		"/>
		<polygon fill="#F4D2B8" points="12.977,87.729 14.487,87.757 12.977,87.773 		"/>
	</g>
	<g>
		<g>
			<g>
				<path fill="#2B478B" d="M14.068,89.538h4.871V88.28h-4.91c-0.336,0-0.609,0.273-0.609,0.608l0,0
					C13.419,89.248,13.71,89.538,14.068,89.538z"/>
				<path fill="#FCECDB" d="M18.658,89.538h5.543V88.28h-5.557c-0.341,0-0.619,0.277-0.619,0.619v0.005
					C18.025,89.254,18.309,89.538,18.658,89.538z"/>
				<path fill="#2B478B" d="M17.655,89.538h6.739c0.052,0,0.094-0.042,0.094-0.095l0,0c0-0.052-0.042-0.094-0.094-0.094h-6.739
					c-0.052,0-0.094,0.042-0.094,0.094l0,0C17.562,89.496,17.604,89.538,17.655,89.538z"/>
				<path fill="#2B478B" d="M17.655,88.469h6.739c0.052,0,0.094-0.042,0.094-0.094l0,0c0-0.052-0.042-0.095-0.094-0.095h-6.739
					c-0.052,0-0.094,0.043-0.094,0.095l0,0C17.562,88.427,17.604,88.469,17.655,88.469z"/>
			</g>
			<polygon fill="#F4D2B8" points="24.201,88.909 23.453,88.93 24.201,88.943 			"/>
			<polygon fill="#F4D2B8" points="24.201,88.62 22.42,88.641 24.201,88.654 			"/>
		</g>
		<g>
			<path fill="#699DEE" d="M22.438,88.637c0,0,0.077,0.055,0.102,0.143c0.004,0.017,0.007,0.033,0.008,0.05
				c0.004,0.118,0,0.385,0,0.385l0.225-0.133l0.225,0.133v-0.362c0-0.067-0.02-0.134-0.055-0.178
				c-0.017-0.021-0.038-0.037-0.062-0.037H22.438z"/>
			<path fill="#568CDB" d="M22.438,88.637c0,0,0.077,0.055,0.102,0.143l0.451,0.006c0,0-0.017-0.127-0.11-0.148H22.438z"/>
		</g>
	</g>
	<g>
		<g>
			<g>
				<path fill="#FCECDB" d="M18.092,86.673h4.976v-1.848h-4.993c-0.398,0-0.721,0.323-0.721,0.721v0.388
					C17.354,86.341,17.685,86.673,18.092,86.673z"/>
				<path fill="#B5453C" d="M17.471,85.541v0.398c0.001,0.169,0.095,0.316,0.233,0.396c0.067,0.038,0.146,0.061,0.229,0.061h5.404
					c0.063,0,0.115,0.051,0.115,0.115v0.047c0,0.063-0.051,0.115-0.115,0.115h-9.335c-0.268,0-0.505-0.135-0.648-0.338
					c-0.09-0.129-0.143-0.285-0.143-0.453v-0.314c0-0.115,0.027-0.226,0.074-0.322c0.12-0.249,0.375-0.42,0.669-0.42h9.383
					c0.063,0,0.115,0.051,0.115,0.115v0.047c0,0.063-0.051,0.113-0.115,0.113h-5.42c-0.13,0-0.247,0.056-0.329,0.145
					C17.516,85.322,17.472,85.426,17.471,85.541z"/>
			</g>
			<polygon fill="#F4D2B8" points="23.068,85.748 22.375,85.779 23.068,85.799 			"/>
			<polygon fill="#F4D2B8" points="23.068,85.323 21.419,85.354 23.068,85.374 			"/>
		</g>
		<g>
			<path fill="#F99746" d="M21.437,85.349c0,0,0.109,0.058,0.145,0.154c0.006,0.017,0.01,0.035,0.011,0.054
				c0.006,0.128,0,0.417,0,0.417l0.321-0.145l0.32,0.145v-0.392c0-0.074-0.027-0.146-0.079-0.193
				c-0.024-0.023-0.054-0.04-0.088-0.04H21.437z"/>
			<path fill="#ED7D2B" d="M21.437,85.349c0,0,0.109,0.058,0.145,0.154l0.644,0.007c0,0-0.025-0.139-0.158-0.161H21.437z"/>
		</g>
	</g>
</g>
<g>
	<g>
		<g>
			<path fill="#FCECDB" d="M224.415,87.859h-6.128v-2.165h6.147c0.479,0,0.866,0.388,0.866,0.865v0.413
				C225.301,87.462,224.904,87.859,224.415,87.859z"/>
			<path fill="#699DEE" d="M230.531,86.584v0.326c0,0.175-0.046,0.338-0.128,0.478c-0.165,0.28-0.471,0.472-0.82,0.472h-11.484
				c-0.074,0-0.137-0.062-0.137-0.139v-0.048c0-0.076,0.063-0.138,0.137-0.138h7.001c0.038-0.046,0.07-0.096,0.099-0.147
				c0.065-0.124,0.103-0.265,0.103-0.415V86.56c0-0.076-0.01-0.149-0.029-0.221c-0.03-0.119-0.087-0.228-0.162-0.321h-7.011
				c-0.074,0-0.137-0.062-0.137-0.137v-0.05c0-0.075,0.063-0.137,0.137-0.137h11.543c0.405,0,0.749,0.272,0.856,0.645
				C230.52,86.417,230.531,86.5,230.531,86.584z"/>
			<path fill="#548EE2" d="M230.498,86.339h-5.227c-0.03-0.119-0.087-0.228-0.162-0.321h-7.011c-0.074,0-0.137-0.062-0.137-0.137
				v-0.05c0-0.075,0.063-0.137,0.137-0.137h11.543C230.047,85.694,230.391,85.967,230.498,86.339z"/>
		</g>
		<polygon fill="#F4D2B8" points="218.287,86.776 219.138,86.813 218.287,86.835 		"/>
		<polygon fill="#F4D2B8" points="218.287,87.116 220.311,87.152 218.287,87.174 		"/>
	</g>
	<g>
		<g>
			<g>
				<path fill="#2B478B" d="M219.748,89.538h6.524v-1.684h-6.576c-0.45,0-0.815,0.364-0.815,0.815l0,0
					C218.881,89.148,219.27,89.538,219.748,89.538z"/>
				<path fill="#FCECDB" d="M225.898,89.538h7.424v-1.684h-7.442c-0.458,0-0.83,0.371-0.83,0.828v0.008
					C225.05,89.157,225.43,89.538,225.898,89.538z"/>
				<path fill="#2B478B" d="M224.555,89.538h9.026c0.068,0,0.125-0.058,0.125-0.126l0,0c0-0.069-0.057-0.126-0.125-0.126h-9.026
					c-0.069,0-0.126,0.057-0.126,0.126l0,0C224.429,89.48,224.485,89.538,224.555,89.538z"/>
				<path fill="#2B478B" d="M224.555,88.106h9.026c0.068,0,0.125-0.058,0.125-0.126l0,0c0-0.07-0.057-0.126-0.125-0.126h-9.026
					c-0.069,0-0.126,0.056-0.126,0.126l0,0C224.429,88.049,224.485,88.106,224.555,88.106z"/>
			</g>
			<polygon fill="#F4D2B8" points="233.322,88.695 232.319,88.724 233.322,88.741 			"/>
			<polygon fill="#F4D2B8" points="233.322,88.309 230.937,88.337 233.322,88.354 			"/>
		</g>
		<g>
			<path fill="#699DEE" d="M230.961,88.331c0,0,0.102,0.072,0.136,0.191c0.007,0.021,0.01,0.043,0.011,0.067
				c0.007,0.156,0,0.515,0,0.515l0.302-0.18l0.302,0.18V88.62c0-0.092-0.025-0.182-0.074-0.24c-0.023-0.027-0.051-0.049-0.084-0.049
				H230.961z"/>
			<path fill="#568CDB" d="M230.961,88.331c0,0,0.102,0.072,0.136,0.191l0.605,0.008c0,0-0.024-0.171-0.149-0.199H230.961z"/>
		</g>
	</g>
	<g>
		<g>
			<g>
				<path fill="#FCECDB" d="M225.139,85.698h6.666v-2.474h-6.688c-0.535,0-0.968,0.434-0.968,0.967v0.519
					C224.149,85.256,224.593,85.698,225.139,85.698z"/>
				<path fill="#B5453C" d="M224.307,84.186v0.532c0.002,0.228,0.128,0.424,0.313,0.53c0.092,0.051,0.197,0.081,0.309,0.081h7.238
					c0.086,0,0.153,0.068,0.153,0.153v0.063c0,0.085-0.067,0.153-0.153,0.153h-12.505c-0.359,0-0.676-0.178-0.868-0.45
					c-0.119-0.173-0.19-0.382-0.19-0.608v-0.42c0-0.155,0.035-0.302,0.099-0.433c0.161-0.332,0.502-0.563,0.896-0.563h12.569
					c0.086,0,0.153,0.069,0.153,0.154v0.063c0,0.085-0.067,0.154-0.153,0.154h-7.261c-0.173,0-0.33,0.073-0.44,0.191
					C224.368,83.892,224.309,84.031,224.307,84.186z"/>
			</g>
			<polygon fill="#F4D2B8" points="231.805,84.462 230.876,84.504 231.805,84.528 			"/>
			<polygon fill="#F4D2B8" points="231.805,83.893 229.596,83.934 231.805,83.959 			"/>
		</g>
		<g>
			<path fill="#F99746" d="M229.619,83.926c0,0,0.146,0.079,0.194,0.207c0.008,0.022,0.014,0.047,0.015,0.073
				c0.008,0.171,0,0.559,0,0.559l0.431-0.194l0.429,0.194v-0.525c0-0.1-0.037-0.196-0.104-0.26c-0.034-0.03-0.074-0.054-0.119-0.054
				H229.619z"/>
			<path fill="#ED7D2B" d="M229.619,83.926c0,0,0.146,0.079,0.194,0.207l0.861,0.008c0,0-0.033-0.185-0.211-0.215H229.619z"/>
		</g>
	</g>
</g>
<g>
	<g>
		<g>
			<path fill="#FCECDB" d="M182.691,77.617h-4.53v-1.6h4.544c0.354,0,0.64,0.287,0.64,0.64v0.306
				C183.345,77.325,183.052,77.617,182.691,77.617z"/>
			<path fill="#699DEE" d="M187.21,76.676v0.241c0,0.128-0.034,0.248-0.095,0.353c-0.121,0.208-0.347,0.348-0.605,0.348h-8.486
				c-0.057,0-0.101-0.045-0.101-0.102V77.48c0-0.057,0.044-0.102,0.101-0.102h5.173c0.028-0.034,0.052-0.071,0.073-0.109
				c0.048-0.091,0.075-0.195,0.075-0.307v-0.306c0-0.056-0.007-0.11-0.021-0.163c-0.022-0.087-0.065-0.168-0.12-0.236h-5.181
				c-0.057,0-0.101-0.046-0.101-0.102v-0.037c0-0.056,0.044-0.102,0.101-0.102h8.529c0.301,0,0.554,0.202,0.632,0.477
				C187.201,76.553,187.21,76.613,187.21,76.676z"/>
			<path fill="#548EE2" d="M187.185,76.494h-3.86c-0.022-0.087-0.065-0.168-0.12-0.236h-5.181c-0.057,0-0.101-0.046-0.101-0.102
				v-0.037c0-0.056,0.044-0.102,0.101-0.102h8.529C186.854,76.018,187.106,76.22,187.185,76.494z"/>
		</g>
		<polygon fill="#F4D2B8" points="178.161,76.817 178.79,76.844 178.161,76.86 		"/>
		<polygon fill="#F4D2B8" points="178.161,77.068 179.657,77.096 178.161,77.112 		"/>
	</g>
	<g>
		<g>
			<g>
				<path fill="#2B478B" d="M179.242,78.858h4.821v-1.244h-4.859c-0.334,0-0.604,0.27-0.604,0.603l0,0
					C178.601,78.571,178.889,78.858,179.242,78.858z"/>
				<path fill="#FCECDB" d="M183.786,78.858h5.486v-1.244h-5.499c-0.339,0-0.613,0.274-0.613,0.612v0.006
					C183.16,78.578,183.44,78.858,183.786,78.858z"/>
				<path fill="#2B478B" d="M182.794,78.858h6.67c0.051,0,0.092-0.042,0.092-0.093l0,0c0-0.052-0.041-0.094-0.092-0.094h-6.67
					c-0.052,0-0.094,0.042-0.094,0.094l0,0C182.7,78.816,182.742,78.858,182.794,78.858z"/>
				<path fill="#2B478B" d="M182.794,77.8h6.67c0.051,0,0.092-0.041,0.092-0.093l0,0c0-0.052-0.041-0.093-0.092-0.093h-6.67
					c-0.052,0-0.094,0.041-0.094,0.093l0,0C182.7,77.759,182.742,77.8,182.794,77.8z"/>
			</g>
			<polygon fill="#F4D2B8" points="189.272,78.236 188.531,78.258 189.272,78.27 			"/>
			<polygon fill="#F4D2B8" points="189.272,77.95 187.51,77.971 189.272,77.983 			"/>
		</g>
		<g>
			<path fill="#699DEE" d="M187.527,77.967c0,0,0.077,0.054,0.102,0.141c0.004,0.016,0.007,0.032,0.007,0.05
				c0.005,0.117,0,0.382,0,0.382l0.224-0.133l0.223,0.133V78.18c0-0.067-0.02-0.134-0.055-0.177
				c-0.018-0.021-0.038-0.036-0.062-0.036H187.527z"/>
			<path fill="#568CDB" d="M187.527,77.967c0,0,0.077,0.054,0.102,0.141l0.447,0.006c0,0-0.019-0.126-0.11-0.146H187.527z"/>
		</g>
	</g>
</g>
</svg>
