<?xml version="1.0" encoding="utf-8"?>
<!-- Generator: Adobe Illustrator 16.0.0, SVG Export Plug-In . SVG Version: 6.00 Build 0)  -->
<!DOCTYPE svg PUBLIC "-//W3C//DTD SVG 1.1//EN" "http://www.w3.org/Graphics/SVG/1.1/DTD/svg11.dtd">
<svg version="1.1" id="Layer_1" xmlns="http://www.w3.org/2000/svg" xmlns:xlink="http://www.w3.org/1999/xlink" x="0px" y="0px"
	 width="100px" height="100px" viewBox="0 0 100 100" enable-background="new 0 0 100 100" xml:space="preserve">
<path display="none" fill="#E86481" d="M8.767,73.18c0-15.463,0-30.926,0-46.388c0.128-0.018,0.153-0.115,0.19-0.219
	c1.416-3.984,3.671-5.58,7.884-5.58c16.122,0,32.244,0,48.365,0c6.224,0,12.446-0.01,18.67,0.004
	c3.442,0.008,6.173,2.11,7.125,5.413c0.052,0.181-0.049,0.453,0.231,0.543c0,15.409,0,30.818,0,46.227
	c-0.176,0.021-0.172,0.174-0.213,0.295c-1.297,3.797-3.688,5.504-7.701,5.504c-9.174,0-18.352,0-27.523,0
	c-13.198,0-26.397,0.004-39.595-0.004c-3.444-0.002-6.136-2.009-7.15-5.269C8.993,73.521,9.035,73.26,8.767,73.18z M82.816,26.035
	c-0.043-0.056-0.088-0.111-0.131-0.167c-21.797,0-43.595,0-65.392,0c-0.049,0.063-0.098,0.125-0.146,0.188
	c0.198,0.129,0.426,0.229,0.59,0.393c9.988,10.009,19.971,20.023,29.956,30.037c1.552,1.557,3.054,1.563,4.595,0.02
	c7.162-7.181,14.314-14.37,21.486-21.542C76.773,31.969,79.803,29.01,82.816,26.035z M17.05,74.096c22.072,0,43.868,0,65.722,0
	c-0.092-0.119-0.131-0.186-0.184-0.238c-6.648-6.67-13.303-13.336-19.938-20.021c-0.414-0.419-0.604-0.284-0.93,0.048
	c-2.035,2.064-4.088,4.112-6.134,6.164c-3.235,3.246-7.951,3.241-11.184-0.009c-1.987-1.998-3.992-3.978-5.954-5.999
	c-0.48-0.495-0.738-0.582-1.281-0.031c-4.787,4.852-9.605,9.672-14.425,14.49C20.911,70.334,19.045,72.137,17.05,74.096z
	 M13.658,29.396c0,13.71,0,27.506,0,41.4c0.7-0.706,1.32-1.335,1.944-1.962c6.083-6.102,12.163-12.209,18.262-18.295
	c0.444-0.443,0.466-0.68,0-1.11c-0.927-0.854-1.789-1.779-2.685-2.667C25.33,40.962,19.478,35.163,13.658,29.396z M86.376,29.316
	c-0.051-0.034-0.103-0.068-0.153-0.102c-0.17,0.203-0.328,0.418-0.514,0.605c-6.496,6.522-12.988,13.046-19.506,19.547
	c-0.492,0.49-0.52,0.721-0.01,1.229c6.574,6.555,13.125,13.137,19.675,19.719c0.139,0.142,0.212,0.348,0.315,0.521
	c0.063-0.061,0.129-0.115,0.189-0.174C86.376,56.879,86.376,43.098,86.376,29.316z"/>
<g>
	<path fill="#C2CFCF" d="M48.719,11.988c5.186,0,10.369,0,15.553,0c-0.002,3.938-0.018,7.875,0.012,11.812
		c0.003,0.592-0.141,0.754-0.742,0.748c-3.175-0.033-6.352,0.003-9.525-0.032c-0.623-0.006-0.783,0.188-0.729,0.764
		c0.045,0.503,0.04,1.017,0,1.521c-0.038,0.453,0.121,0.737,0.477,1.021c1.629,1.298,3.229,2.629,4.842,3.947
		c5.563,4.548,11.125,9.095,16.688,13.645c0.23,0.189,0.602,0.31,0.225,0.748c-0.895,1.037-1.74,2.113-2.623,3.194
		c-1.272-1.036-2.521-2.053-3.883-3.158c0,2.531,0.026,4.909-0.02,7.286c-0.014,0.656,0.183,0.773,0.797,0.771
		c5.105-0.026,10.213-0.005,15.316-0.026c0.561-0.004,0.773,0.142,0.888,0.717c0.313,1.615,0.719,3.214,1.083,4.82
		c0.822,3.627,1.646,7.258,2.486,10.975c-1.219,0-2.383,0.029-3.543-0.018c-0.596-0.023-0.764,0.142-0.762,0.75
		c0.023,5.994,0.014,11.99,0.016,17.984c0,0.201,0.028,0.404,0.045,0.604c-22.875,0-45.747,0-68.618,0
		c0.013-0.047,0.038-0.097,0.038-0.146c0.004-6.226,0.001-12.45,0.014-18.675c0.001-0.407-0.137-0.518-0.528-0.512
		c-1.24,0.021-2.479,0.01-3.776,0.01c1.213-5.325,2.419-10.562,3.58-15.803c0.128-0.582,0.342-0.709,0.892-0.707
		c5.132,0.02,10.264,0.002,15.396,0.024c0.57,0.003,0.715-0.134,0.706-0.705c-0.037-2.262-0.013-4.522-0.021-6.784
		c-0.001-0.176,0.12-0.402-0.13-0.548c-1.104,0.901-2.222,1.78-3.296,2.709c-0.376,0.326-0.549,0.263-0.823-0.093
		c-0.65-0.845-1.305-1.692-2.027-2.474c-0.459-0.497-0.393-0.735,0.119-1.151c7.116-5.78,14.208-11.59,21.318-17.376
		c0.414-0.336,0.574-0.671,0.571-1.208C48.708,21.744,48.719,16.866,48.719,11.988z M37.58,63.834
		c0,6.988,0.008,13.977-0.015,20.966c-0.001,0.575,0.138,0.722,0.706,0.7c1.269-0.048,2.542-0.046,3.811,0
		c0.583,0.02,0.755-0.124,0.751-0.734c-0.028-4.678,0-9.353-0.032-14.026c-0.006-0.729,0.112-0.979,0.926-0.972
		c4.854,0.047,9.708,0.039,14.562,0.006c0.706-0.006,0.934,0.123,0.928,0.892c-0.041,4.701-0.008,9.401-0.035,14.104
		c-0.005,0.613,0.176,0.748,0.752,0.729c1.32-0.044,2.644-0.032,3.965-0.004c0.433,0.009,0.543-0.115,0.543-0.546
		c-0.01-14.002-0.01-28.006-0.002-42.007c0-0.367-0.113-0.593-0.397-0.825c-4.217-3.431-8.429-6.869-12.618-10.329
		c-0.396-0.325-0.604-0.253-0.946,0.027c-4.122,3.384-8.252,6.76-12.393,10.123c-0.371,0.3-0.515,0.601-0.514,1.082
		C37.585,49.959,37.58,56.896,37.58,63.834z M21.317,78.087c0,2.259,0.015,4.521-0.012,6.778c-0.005,0.498,0.126,0.637,0.631,0.632
		c3.479-0.022,6.957-0.026,10.436,0.003c0.562,0.004,0.646-0.18,0.645-0.684c-0.02-4.469-0.02-8.938,0-13.408
		c0.002-0.51-0.101-0.692-0.656-0.688c-3.453,0.025-6.906,0.029-10.359-0.002c-0.605-0.007-0.703,0.199-0.696,0.74
		C21.333,73.669,21.317,75.877,21.317,78.087z M80.693,78.136c0-2.235-0.012-4.469,0.011-6.704c0.004-0.486-0.063-0.717-0.646-0.711
		c-3.479,0.027-6.957,0.023-10.437,0.002c-0.504-0.002-0.631,0.142-0.629,0.639c0.021,4.521,0.021,9.039-0.001,13.56
		c-0.003,0.488,0.146,0.58,0.596,0.576c3.504-0.019,7.012-0.021,10.516,0.005c0.547,0.004,0.604-0.211,0.6-0.661
		C80.686,82.604,80.693,80.37,80.693,78.136z M25.592,66.158c2.259,0,4.519-0.012,6.779,0.01c0.465,0.005,0.657-0.07,0.648-0.607
		c-0.035-2.056-0.029-4.109-0.002-6.168c0.006-0.475-0.127-0.591-0.594-0.59c-4.011,0.021-8.022,0.021-12.033,0
		c-0.462-0.001-0.585,0.164-0.676,0.59c-0.437,2.056-0.893,4.106-1.397,6.146c-0.135,0.546-0.018,0.636,0.498,0.63
		C21.073,66.146,23.333,66.158,25.592,66.158z M76.475,66.158c2.258,0,4.519-0.004,6.775,0.006c0.396,0.001,0.602-0.008,0.475-0.529
		c-0.512-2.092-0.983-4.191-1.436-6.297c-0.087-0.406-0.234-0.533-0.645-0.531c-4.037,0.014-8.074,0.017-12.11-0.002
		c-0.449-0.003-0.54,0.151-0.536,0.563c0.02,2.083,0.027,4.164-0.006,6.245c-0.008,0.527,0.213,0.556,0.627,0.553
		C71.902,66.15,74.188,66.158,76.475,66.158z M54.621,80.031c0-1.674-0.016-3.35,0.009-5.023c0.007-0.462-0.069-0.667-0.61-0.656
		c-2.004,0.033-4.006,0.031-6.012,0c-0.517-0.009-0.629,0.157-0.626,0.644c0.018,3.298,0.017,6.597,0,9.896
		c-0.002,0.441,0.074,0.617,0.573,0.611c2.029-0.029,4.061-0.027,6.089-0.003c0.474,0.006,0.599-0.128,0.59-0.597
		C54.604,83.279,54.621,81.656,54.621,80.031z M56.492,19.956c0.912,0,1.826-0.016,2.738,0.008c0.367,0.009,0.479-0.105,0.469-0.472
		c-0.024-0.836-0.022-1.674,0-2.511c0.009-0.34-0.105-0.427-0.432-0.426c-1.854,0.014-3.705,0.016-5.559,0
		c-0.335-0.003-0.436,0.096-0.425,0.428c0.021,0.837,0.022,1.675-0.001,2.512c-0.012,0.364,0.098,0.479,0.466,0.469
		C54.664,19.939,55.578,19.956,56.492,19.956z"/>
	<path fill="#C2CFCF" d="M59.175,52.975c-0.286,4.6-4.106,8.176-8.452,7.909c-4.583-0.278-8.176-4.144-7.882-8.478
		c0.313-4.618,4.101-8.124,8.486-7.855C55.873,44.831,59.441,48.662,59.175,52.975z M47.404,52.738
		c0.025,1.955,1.672,3.586,3.61,3.576c1.948-0.01,3.584-1.646,3.592-3.598c0.011-1.98-1.672-3.642-3.646-3.603
		C48.984,49.155,47.379,50.789,47.404,52.738z"/>
</g>
</svg>
