<?xml version="1.0" encoding="utf-8"?>
<!-- Generator: Adobe Illustrator 16.0.0, SVG Export Plug-In . SVG Version: 6.00 Build 0)  -->
<!DOCTYPE svg PUBLIC "-//W3C//DTD SVG 1.1//EN" "http://www.w3.org/Graphics/SVG/1.1/DTD/svg11.dtd">
<svg version="1.1" id="Layer_1" xmlns="http://www.w3.org/2000/svg" xmlns:xlink="http://www.w3.org/1999/xlink" x="0px" y="0px"
	 width="250px" height="250px" viewBox="0 0 250 250" enable-background="new 0 0 250 250" xml:space="preserve">
<path fill-rule="evenodd" clip-rule="evenodd" fill="#5A6C76" d="M135.26,16.374c2.279,0.908,4.483,1.931,5.89,4.09
	c0.372,0.572,0.751,0.583,1.401,0.368c6.816-2.254,10.894-0.418,13.453,6.038c0.229,0.578,0.491,0.958,1.119,1.076
	c3.027,0.569,5.087,2.473,6.742,4.924c1.053,2.767,1.384,5.547,0.054,8.319c-0.303,0.63-0.189,1.011,0.373,1.385
	c2.712,1.804,3.794,4.519,4.196,7.603c-0.279,2.156-0.658,4.287-2.13,6.008c-0.668,0.783-0.059,1.26,0.308,1.818
	c1.953,2.969,2.178,6.088,0.812,9.345c-2.714-4.496-6.545-7.003-11.949-6.707c-0.037-1.051-0.061-2.102-0.111-3.153
	c-0.304-6.177-4.218-10.665-9.662-10.719c-9.967-0.099-19.936-0.021-29.903-0.017c-2.678-0.065-5.356-0.13-8.035-0.195
	c-0.119-2.31,1.193-3.987,2.629-5.516c0.959-1.022,1.232-1.915,0.963-3.356c-0.887-4.746,0.282-9.662,6.251-11.698
	c0.741-0.253,1.6-0.601,1.848-1.305c0.992-2.822,3.052-4.752,5.207-6.631c0.839,0.02,1.116,1.807,2.163,0.85
	c1.24-1.136,2.856-1.557,4.163-2.526C132.446,16.374,133.853,16.374,135.26,16.374z"/>
<path fill-rule="evenodd" clip-rule="evenodd" fill="#475A61" d="M124.714,18.051c-2.154,1.879-4.214,3.809-5.207,6.631
	c-0.248,0.704-1.106,1.052-1.848,1.305c-5.97,2.036-7.138,6.952-6.251,11.698c0.27,1.441-0.003,2.334-0.963,3.356
	c-1.436,1.529-2.748,3.206-2.629,5.517c-6.352,0.907-10.066,4.338-10.483,9.736c-0.097,1.253,0.307,2.688-0.18,3.732
	c-0.643,1.378-2.374,0.5-3.6,0.849c-3.729,1.06-6.372,3.372-8.325,6.609c-1.462-3.429-1.175-6.696,1.014-9.721
	c0.517-0.713,0.391-1.126-0.037-1.812c-3.083-4.953-2.406-9.408,1.989-13.247c0.513-0.447,0.978-0.741,0.612-1.516
	c-1.315-2.786-0.96-5.57,0.066-8.343c1.628-2.496,3.746-4.372,6.74-4.965c0.946-0.188,0.99-0.845,1.213-1.471
	c2.029-5.682,7.398-8.083,13.053-5.839c0.535,0.212,1.099,0.824,1.625-0.019c1.327-2.123,3.479-3.135,5.608-4.178
	c1.406,0,2.813,0,4.22,0C122.45,16.955,123.8,17.064,124.714,18.051z"/>
<path fill-rule="evenodd" clip-rule="evenodd" fill="#FEFEFE" d="M124.714,18.051c-0.915-0.986-2.264-1.096-3.38-1.677
	c3.235,0,6.47,0,9.706,0c-1.307,0.97-2.923,1.391-4.163,2.526C125.83,19.858,125.554,18.07,124.714,18.051z"/>
<path fill-rule="evenodd" clip-rule="evenodd" fill="#C3E1FE" d="M201.525,58.537c2.376,1.555,3.946,3.895,5.662,6.047
	c9.984,12.524,16.739,26.616,20.167,42.275c1.03,4.706,1.881,9.443,2.021,14.281c0.044,1.535,0.398,3.034,0.428,4.587
	c0.238,12.563-1.49,24.816-5.569,36.719c-1.938-0.027-3.876-0.056-5.813-0.084c-0.012-0.42-0.029-0.84-0.035-1.261
	c-0.169-12.127-10.512-20.921-22.535-19.09c-1.281,0.194-1.446-0.22-1.628-1.339c-1.46-8.992-7.574-14.739-16.275-15.413
	c-0.017-1.958,0.017-3.919-0.063-5.875c-0.152-3.766-1.701-6.851-4.646-9.234c-4.445-3.598-9.66-3.055-14.827-2.793
	c-4.405-0.065-8.811-0.161-13.216-0.174c-1.089-0.003-2.236-0.341-3.277,0.295c-1.359,0.006-2.72,0.012-4.08,0.018
	c-0.036-0.974-0.071-1.947-0.107-2.92c0.373-0.391,0.884-0.357,1.357-0.462c8.284-1.819,15.003-9.227,16.02-17.654
	c7.666,0.32,12.646-4.689,13.553-11.012c9,0.001,18.001,0.006,27.002,0c2.786-0.001,5.052-1.98,4.973-4.309
	c-0.079-2.292-2.256-4.121-4.944-4.126c-4.781-0.009-9.563-0.009-14.345,0c-1.632,0.003-3.053-0.418-3.97-1.883
	c-0.788-1.259-1.17-2.611-0.345-3.973c0.949-1.568,2.208-2.623,4.245-2.608C188.024,58.597,194.774,58.548,201.525,58.537z
	 M179.622,100.768c2.669,0,5.337,0.024,8.005-0.007c2.72-0.031,4.559-1.721,4.595-4.155c0.036-2.417-1.825-4.248-4.479-4.266
	c-5.337-0.038-10.674-0.037-16.011,0.001c-2.313,0.017-4.411,2.124-4.373,4.254c0.038,2.146,2.132,4.132,4.469,4.164
	C174.426,100.795,177.024,100.768,179.622,100.768z"/>
<path fill-rule="evenodd" clip-rule="evenodd" fill="#C3E1FE" d="M88.875,32.845c-1.026,2.773-1.382,5.558-0.066,8.343
	c0.366,0.774-0.099,1.068-0.612,1.516c-4.395,3.838-5.071,8.293-1.989,13.247c0.427,0.686,0.553,1.099,0.037,1.812
	c-2.189,3.024-2.476,6.292-1.015,9.72c-0.972,2.394-1.167,4.887-1.052,7.446c0.266,5.915,5.279,11.19,11.215,11.404
	c1.783,0.064,2.298,0.657,2.69,2.245c1.905,7.725,6.79,12.817,14.338,15.128c2.22,0.68,3.028,1.599,2.513,3.765
	c-2.776,0.025-5.553,0.05-8.328,0.076c-1.365-0.921-2.888-0.24-4.325-0.427c-3.609,0.019-7.218,0.037-10.828,0.056
	c0.392-2.699,0.783-5.397,1.175-8.095c0.856,0.038,1.856,0.081,2.198-0.826c0.702-1.867,0.656-3.906,0.092-5.729
	c-0.498-1.608-2.258-0.911-3.515-1.043c-0.371-1.413-0.704-2.837-1.123-4.235c-0.431-1.44-1.374-2.132-2.96-2.111
	c-4.971,0.067-9.943,0.044-14.914,0.056c-0.28-0.011-0.56-0.029-0.839-0.032c-5.556-0.063-5.559-0.064-7.669,5.071
	c-0.276,0.673-0.546,1.291-1.442,1.263c-1.577-0.049-2.665,0.732-2.665,2.289c0,1.888-0.914,4.276,1.777,5.209
	c0.825,0.287,1.05,0.617,1.145,1.422c0.171,1.451,0.531,2.879,0.398,4.357c-0.346,0.037-0.692,0.092-1.039,0.106
	c-4.782,0.191-6.978,2.45-6.985,7.182c-0.008,5.236-0.022,10.472-0.034,15.708c-2.651,2.975-3.701,6.559-3.715,10.436
	c-0.005,1.479-0.376,1.838-1.855,1.853c-8.475,0.086-15.251,5.918-16.897,14.211c-0.55,2.771-0.013,5.431,0.239,8.136
	c-1.419,0.015-2.839,0.029-4.259,0.045c-2.815-8.464-4.523-17.111-5.21-26.038c-1.32-17.138,1.695-33.44,8.508-49.127
	c4.281-9.856,10.12-18.688,17.201-26.771c7.664-8.748,16.633-15.802,26.682-21.568C79.949,36.529,84.276,34.4,88.875,32.845z
	 M65.278,69.964c1.895,0,3.791,0.014,5.686-0.002c2.9-0.025,4.763-1.654,4.794-4.168c0.032-2.515-1.844-4.245-4.696-4.263
	c-3.72-0.023-7.441-0.017-11.162-0.002c-2.624,0.011-4.832,2.001-4.785,4.272c0.047,2.225,2.184,4.134,4.687,4.16
	C61.627,69.979,63.453,69.964,65.278,69.964z M47.354,88.947c1.228,0,2.286,0.066,3.332-0.014c2.219-0.169,3.934-1.989,3.975-4.126
	c0.042-2.22-1.713-4.155-4.036-4.27c-1.96-0.097-3.934-0.117-5.891,0.009c-1.858,0.12-3.001,1.291-3.663,3.003
	c-0.655,1.692,0.042,2.936,1.138,4.158C43.717,89.388,45.682,88.862,47.354,88.947z"/>
<path fill-rule="evenodd" clip-rule="evenodd" fill="#FDDE30" d="M140.767,219.26c-8.385,0.027-16.769,0.053-25.153,0.084
	c-1.047,0.004-2.094,0.044-3.141,0.067c-3.374-0.001-6.748-0.001-10.123-0.001c-0.772-0.023-1.544-0.063-2.316-0.065
	c-4.074-0.01-4.44-0.372-4.44-4.445c0-25.241,0-50.482,0-75.724c0-0.563-0.026-1.126,0.009-1.687c0.1-1.578,0.954-2.455,2.533-2.529
	c1.403-0.067,2.81-0.058,4.214-0.081c3.375-0.001,6.748-0.001,10.122-0.002c1.047,0.023,2.094,0.063,3.141,0.067
	c8.384,0.032,16.768,0.057,25.152,0.084c0.001,4.309,0.003,8.616,0.005,12.926c-0.771,0.024-1.541,0.071-2.312,0.071
	c-9.615,0.001-19.23,0.011-28.845-0.024c-1.813-0.007-3.055,0.528-3.054,2.554c0.004,6.034,0.04,12.069,0.063,18.104
	c-1.667-0.213-3.027,0.458-3.621,1.931c-0.59,1.464-0.525,3.064,0.96,4.178c0.747,0.561,0.649,0.876-0.037,1.543
	c-1.722,1.672-1.656,3.772,0.07,5.568c0.437,0.454,0.741,0.58,0.205,1.264c-2.284,2.91-2.118,3.979,0.899,6.567
	c-2.271,0.719-2.677,2.449-2.208,4.391c0.438,1.814,1.846,2.546,3.677,2.475c-0.005,0.982-0.015,1.965-0.015,2.947
	c-0.001,4.158,0.405,4.57,4.533,4.568c9.889-0.003,19.779-0.009,29.667-0.014C140.758,209.138,140.763,214.199,140.767,219.26z"/>
<path fill-rule="evenodd" clip-rule="evenodd" fill="#97D62A" d="M28.563,162.445c1.42-0.016,2.839-0.03,4.258-0.045
	c8.806-0.006,17.612-0.011,26.418-0.016c0.024,4.132,0.396,8.298-0.006,12.388c-0.628,6.398,6.567,12.981,13.988,9.43
	c1.327-0.516,2.195-1.671,3.363-2.408c-0.011,12.572-0.021,25.146-0.032,37.719c-13.617-7.363-24.838-17.453-33.931-29.934
	C36.559,181.257,31.862,172.209,28.563,162.445z"/>
<path fill-rule="evenodd" clip-rule="evenodd" fill="#9FACB9" d="M102.351,134.879c-1.405,0.023-2.812,0.014-4.214,0.081
	c-1.58,0.074-2.434,0.951-2.533,2.529c-0.036,0.561-0.009,1.124-0.009,1.687c0,25.241,0,50.482,0,75.724
	c0,4.073,0.367,4.436,4.44,4.445c0.772,0.002,1.544,0.042,2.316,0.065c-0.003,3.351-0.005,6.702-0.008,10.053
	c-5.408-1.065-10.591-2.822-15.615-5.069c0.002-29.53,0.004-59.061,0.006-88.591c0.376-0.747,0.717-1.484,0.842-2.346
	c1.27-8.764,2.579-17.522,3.877-26.282c3.609-0.019,7.218-0.038,10.828-0.057C102.304,116.372,102.327,125.625,102.351,134.879z"/>
<path fill-rule="evenodd" clip-rule="evenodd" fill="#97D62A" d="M218.42,162.361c1.938,0.028,3.876,0.057,5.813,0.084
	c-8.494,24.178-23.8,42.778-45.78,55.91c-0.718,0.429-1.492,0.762-2.241,1.139c0.007-4.553,0.014-9.105,0.021-13.657
	c10.974-0.07,19.104-6.778,20.432-17.333c0.53-4.226,0.034-8.571,0.239-12.852c0.224-4.673-0.498-9.089-2.673-13.245
	C202.293,162.392,210.356,162.376,218.42,162.361z"/>
<path fill-rule="evenodd" clip-rule="evenodd" fill="#7A8C98" d="M86.733,135.803c-0.002,29.53-0.004,59.061-0.006,88.591
	c-3.602-1.189-6.96-2.884-10.174-4.882c0.01-12.572,0.021-25.146,0.032-37.718c0.934-1.948,2.15-3.768,2.144-6.081
	c-0.036-13.144-0.027-26.288-0.033-39.433C81.364,135.928,84.098,136.698,86.733,135.803z"/>
<path fill-rule="evenodd" clip-rule="evenodd" fill="#9FACB9" d="M176.232,205.837c-0.007,4.552-0.014,9.104-0.021,13.657
	c-5.918,3.666-12.379,6.088-18.96,8.223c-1.723,0.56-3.52,0.897-5.233,1.481c-1.268,0.432-1.607,0.067-1.584-1.186
	c0.051-2.866,0.013-5.734,0.011-8.602c0.769-0.023,1.536-0.063,2.304-0.066c3.45-0.01,4.007-0.563,4.018-3.99
	c0.02-6.572,0.045-13.146,0.068-19.718c5.807,0.014,11.613,0.087,17.417,0.003c1.604-0.023,2.033,0.469,1.972,2.016
	C176.114,200.378,176.218,203.109,176.232,205.837z"/>
<path fill-rule="evenodd" clip-rule="evenodd" fill="#E9F5FE" d="M201.525,58.537c-6.751,0.012-13.501,0.06-20.251,0.012
	c-2.037-0.015-3.296,1.04-4.245,2.608c-0.825,1.362-0.443,2.714,0.345,3.973c0.917,1.465,2.338,1.886,3.97,1.883
	c4.781-0.009,9.563-0.009,14.345,0c2.688,0.005,4.865,1.834,4.944,4.126c0.079,2.329-2.187,4.307-4.973,4.309
	c-9.001,0.006-18.002,0.001-27.002,0c0.028-2.761-0.029-5.51-1.182-8.1c1.367-3.257,1.143-6.375-0.811-9.345
	c-0.366-0.558-0.976-1.036-0.308-1.818c1.472-1.722,1.851-3.852,2.129-6.008c7.335-0.015,14.669-0.022,22.004-0.057
	c0.733-0.003,1.556,0.278,2.171-0.415c2.806,2.348,5.535,4.778,8.054,7.438C201.099,57.546,201.508,57.924,201.525,58.537z"/>
<path fill-rule="evenodd" clip-rule="evenodd" fill="#F9C501" d="M156.835,195.636c-0.023,6.573-0.049,13.146-0.068,19.719
	c-0.011,3.428-0.567,3.98-4.018,3.99c-0.768,0.003-1.535,0.043-2.304,0.066c-3.227-0.051-6.452-0.101-9.679-0.151
	c-0.004-5.061-0.009-10.122-0.013-15.183c2.009-0.354,4.035-0.176,6.055-0.196c3.413-0.036,3.938-0.556,3.943-4.055
	c0.002-2.232,0.001-4.465,0.001-6.696c2.01,0.003,4.02,0.006,6.029,0.009C156.801,193.971,156.817,194.804,156.835,195.636z"/>
<path fill-rule="evenodd" clip-rule="evenodd" fill="#C3E1FE" d="M192.662,49.704c-0.615,0.693-1.438,0.412-2.171,0.415
	c-7.335,0.035-14.669,0.042-22.004,0.057c-0.401-3.084-1.483-5.799-4.195-7.603c-0.563-0.374-0.676-0.755-0.373-1.385
	c1.33-2.772,0.999-5.552-0.054-8.319c4.081,1.116,7.81,3.067,11.479,5.081C181.479,41.316,187.327,45.142,192.662,49.704z"/>
<path fill-rule="evenodd" clip-rule="evenodd" fill="#E9F5FE" d="M102.343,229.463c0.002-3.351,0.005-6.702,0.008-10.053
	c3.375,0,6.749,0,10.123,0.001c0.007,3.698-0.008,7.397,0.044,11.097c0.009,0.62,0.12,1.249-0.72,1.038
	C108.664,230.762,105.307,230.997,102.343,229.463z"/>
<path fill-rule="evenodd" clip-rule="evenodd" fill="#F5A86B" d="M155.105,86.459c-1.017,8.427-7.735,15.835-16.02,17.654
	c-0.474,0.104-0.984,0.071-1.357,0.462c-3.229-0.002-6.464,0.105-9.688-0.03c-8.913-0.374-16.537-6.465-18.941-14.931
	c-1.698-5.978-0.542-12.137-0.832-18.208c-0.024-0.5-0.191-1.081,0.222-1.54c3.77,1.97,5.988,0.629,6.096-3.591
	c0.011-0.421,0.003-0.843,0.001-1.264c-0.013-4.572-2.142-5.908-6.215-3.901c-0.49-5.758-0.142-7.281,1.913-10.455
	c1.354-2.092,3.61-2.754,5.569-3.906c9.967-0.004,19.936-0.082,29.903,0.017c5.444,0.054,9.358,4.542,9.662,10.719
	c0.051,1.051,0.074,2.102,0.111,3.153C155.293,69.246,155.959,77.865,155.105,86.459z M125.974,95.735
	c5.042,0.112,9.024-1.46,12.211-4.876c1.222-1.311,1.211-2.796,0.057-4.181c-1.128-1.352-2.791-1.465-4.331-0.37
	c-6.134,4.363-8.655,4.354-15.11-0.071c-1.409-0.966-2.77-0.905-4.03,0.22c-1.42,1.269-1.469,3.163,0.068,4.626
	C118.043,94.133,121.785,95.993,125.974,95.735z M129.382,66.884c0.162-1.292-0.472-2.399-1.837-2.746
	c-1.549-0.394-3.113-0.231-4.01,1.433c-1.23,2.28-2.438,4.572-3.648,6.862c-1.509,2.855-1.45,3.375,0.898,5.634
	c1.106,1.064,2.279,2.068,3.492,3.008c1.224,0.95,2.608,1.042,3.927,0.206c1.247-0.792,1.236-2.1,1.146-3.389
	c-0.061-0.868-0.708-1.382-1.298-1.836c-1.612-1.242-1.898-2.408-0.585-4.204C128.46,70.495,129.465,68.939,129.382,66.884z
	 M144.979,65.038c-0.02-0.307,0.006-1.156-0.142-1.974c-0.32-1.771-1.395-3.028-3.204-3.052c-1.806-0.023-2.988,1.174-3.258,2.966
	c-0.279,1.857-0.38,3.738,0.145,5.602c0.455,1.612,1.585,2.246,3.128,2.227c1.449-0.018,2.493-0.645,2.998-2.134
	C144.997,67.638,144.943,66.611,144.979,65.038z"/>
<path fill-rule="evenodd" clip-rule="evenodd" fill="#E99A58" d="M115.852,46.752c-1.959,1.151-4.215,1.814-5.569,3.906
	c-2.054,3.174-2.402,4.697-1.913,10.455c4.073-2.007,6.202-0.671,6.215,3.901c0.001,0.421,0.009,0.842-0.001,1.264
	c-0.107,4.22-2.326,5.561-6.096,3.591c-0.413,0.459-0.246,1.04-0.222,1.54c0.29,6.071-0.866,12.229,0.832,18.208
	c2.404,8.465,10.028,14.557,18.941,14.931c3.225,0.135,6.459,0.027,9.688,0.03c0.036,0.974,0.071,1.947,0.107,2.92
	c-0.029,1.402-0.039,2.804-0.09,4.204c-0.215,5.939-4.704,10.871-10.359,11.391c-5.639,0.519-10.729-3.319-12.135-9.129
	c-0.52-2.147-0.032-4.337-0.32-6.492c0.516-2.165-0.292-3.084-2.512-3.764c-7.548-2.312-12.433-7.403-14.338-15.128
	c-0.392-1.587-0.907-2.181-2.69-2.245c-5.936-0.213-10.949-5.489-11.215-11.404c-0.115-2.559,0.081-5.052,1.052-7.446
	c1.954-3.236,4.597-5.548,8.326-6.608c1.226-0.349,2.957,0.53,3.6-0.849c0.486-1.044,0.083-2.479,0.18-3.732
	c0.417-5.398,4.131-8.83,10.483-9.736C110.496,46.622,113.174,46.687,115.852,46.752z"/>
<path fill-rule="evenodd" clip-rule="evenodd" fill="#E99A58" d="M155.105,86.459c0.854-8.594,0.188-17.213,0.423-25.818
	c5.404-0.296,9.235,2.211,11.949,6.707c1.151,2.59,1.209,5.338,1.181,8.1C167.752,81.77,162.771,86.78,155.105,86.459z"/>
<path fill-rule="evenodd" clip-rule="evenodd" fill="#7A8C98" d="M158.409,107.356c5.167-0.262,10.382-0.804,14.827,2.793
	c2.945,2.383,4.494,5.468,4.646,9.234c0.08,1.956,0.047,3.917,0.063,5.875c-0.017,2.851-0.091,5.702-0.026,8.551
	c0.047,2.067-0.367,4.166,0.325,6.201c-0.631,0.734-0.321,1.615-0.323,2.422c-0.034,11.716-0.038,23.431-0.049,35.146
	c-2.731,6.638-5.452,8.423-12.824,8.425c-14.131,0.003-28.263,0.008-42.393,0.013c-0.046-4.207-0.092-8.414-0.139-12.62
	c9.403-0.011,18.807-0.021,28.211-0.031c2.019-0.006,4.038-0.013,6.058-0.019c1.523,0.315,1.711-0.526,1.704-1.783
	c-0.039-7.157-0.013-14.315-0.021-21.473C158.453,135.845,158.43,121.601,158.409,107.356z"/>
<path fill-rule="evenodd" clip-rule="evenodd" fill="#8AC628" d="M178.245,140.011c-0.692-2.035-0.278-4.134-0.325-6.201
	c-0.064-2.849,0.01-5.7,0.026-8.551c8.701,0.674,14.815,6.421,16.275,15.413c0.182,1.119,0.347,1.533,1.628,1.339
	c12.023-1.831,22.366,6.963,22.535,19.09c0.006,0.421,0.023,0.841,0.035,1.261c-8.063,0.015-16.127,0.03-24.189,0.045
	C188.902,154.941,183.573,147.476,178.245,140.011z"/>
<path fill-rule="evenodd" clip-rule="evenodd" fill="#0693FA" d="M158.409,107.356c0.021,14.245,0.044,28.488,0.06,42.733
	c0.008,7.157-0.019,14.315,0.021,21.473c0.007,1.257-0.181,2.099-1.704,1.783c-0.001-11.713,0.003-23.426-0.008-35.138
	c-0.002-2.481-0.795-3.26-3.247-3.274c-3.855-0.023-7.711-0.038-11.566-0.056c-0.022-3.601-0.045-7.202-0.066-10.803
	c0.006-5.532,0.013-11.064,0.019-16.597c1.041-0.636,2.188-0.299,3.277-0.295C149.599,107.196,154.004,107.292,158.409,107.356z"/>
<path fill-rule="evenodd" clip-rule="evenodd" fill="#8AC8FD" d="M141.916,107.478c-0.006,5.532-0.013,11.064-0.019,16.597
	c-0.462,0.429-0.937,0.843-1.381,1.289c-5.466,5.482-11.97,7.191-19.442,5.334c-3.274-0.814-5.918-2.789-8.57-4.74
	c-0.35-1.216-1.485-1.827-2.167-2.8c-3.304-4.727-4.192-10-3.734-15.611c2.775-0.025,5.552-0.05,8.328-0.076
	c0.287,2.154-0.201,4.343,0.319,6.491c1.406,5.811,6.496,9.648,12.135,9.129c5.655-0.521,10.145-5.452,10.359-11.391
	c0.051-1.4,0.061-2.802,0.09-4.204C139.196,107.49,140.557,107.484,141.916,107.478z"/>
<path fill-rule="evenodd" clip-rule="evenodd" fill="#E9F5FE" d="M179.622,100.768c-2.598,0-5.196,0.027-7.794-0.008
	c-2.337-0.032-4.431-2.018-4.469-4.164c-0.038-2.13,2.061-4.238,4.373-4.254c5.337-0.039,10.674-0.039,16.011-0.001
	c2.653,0.019,4.515,1.85,4.479,4.266c-0.036,2.434-1.875,4.124-4.595,4.155C184.959,100.792,182.291,100.768,179.622,100.768z"/>
<path fill-rule="evenodd" clip-rule="evenodd" fill="#8AC628" d="M59.24,162.385c-8.806,0.005-17.612,0.01-26.418,0.016
	c-0.252-2.705-0.789-5.365-0.239-8.136c1.646-8.293,8.422-14.125,16.897-14.211c1.479-0.015,1.85-0.373,1.855-1.853
	c0.014-3.877,1.064-7.461,3.715-10.436c0.693,2.275,2.039,3.981,4.284,4.902C59.303,142.573,59.271,152.479,59.24,162.385z"/>
<path fill-rule="evenodd" clip-rule="evenodd" fill="#FEFEFE" d="M86.733,135.803c-2.635,0.896-5.369,0.125-8.036,0.478
	c-0.981-0.046-1.961-0.092-2.942-0.138c-1.355-1.309-1.303-3.012-1.315-4.697c0.868-2.815,0.604-3.668-1.821-5.709
	c1.857-0.85,2.421-2.389,2.306-4.279c2.017,0.537,4.016,0.836,5.904-0.425c0.896-0.284,1.566-0.892,2.185-1.557
	c3.322-3.574,2.297-9.498-1.928-11.185c-1.868-1.748-4.002-1.336-6.158-0.762c-0.759-2.261-2.573-2.708-4.65-2.7
	c-0.144-1.312-0.126-2.668-0.471-3.925c-0.51-1.859,0.451-1.848,1.803-1.84c7.005,0.04,14.011,0.018,21.016,0.017
	c-0.392,2.698-0.783,5.396-1.175,8.095c-1.297,8.76-2.606,17.519-3.876,26.283C87.45,134.318,87.11,135.056,86.733,135.803z"/>
<path fill-rule="evenodd" clip-rule="evenodd" fill="#E9F5FE" d="M92.626,99.079c-7.005,0.001-14.011,0.023-21.016-0.017
	c-1.353-0.008-2.313-0.019-1.803,1.84c0.345,1.256,0.327,2.613,0.471,3.925c-1.257,0.037-2.514,0.074-3.771,0.111
	c-1.133-0.056-2.266-0.112-3.399-0.168c0.133-1.479-0.227-2.907-0.398-4.357c-0.095-0.806-0.32-1.136-1.145-1.422
	c-2.691-0.934-1.776-3.321-1.777-5.209c0-1.556,1.087-2.338,2.665-2.289c0.896,0.028,1.166-0.59,1.442-1.263
	c2.11-5.136,2.114-5.134,7.669-5.071c0.28,0.003,0.56,0.021,0.839,0.032c-0.428,1.464-0.751,2.969-1.312,4.381
	c-0.617,1.552-0.159,1.95,1.406,1.936c6.301-0.057,12.602-0.025,18.903-0.026c1.256,0.132,3.017-0.565,3.515,1.043
	c0.564,1.824,0.61,3.863-0.092,5.729C94.483,99.16,93.483,99.117,92.626,99.079z"/>
<path fill-rule="evenodd" clip-rule="evenodd" fill="#E99A58" d="M63.109,104.771c1.133,0.056,2.266,0.112,3.399,0.169
	c-3.583,1.854-4.515,4.906-4.297,8.729c0.218,3.834,0.15,7.693,0.019,11.535c-0.124,3.631,1.282,6.166,4.661,7.563
	c-2.52,0.072-5.041,0.219-7.555-0.098c-2.245-0.921-3.591-2.627-4.284-4.902c0.011-5.236,0.026-10.472,0.034-15.708
	c0.007-4.731,2.204-6.991,6.985-7.182C62.417,104.862,62.763,104.807,63.109,104.771z"/>
<path fill-rule="evenodd" clip-rule="evenodd" fill="#E9F5FE" d="M106.604,107.546c-0.458,5.61,0.43,10.884,3.734,15.611
	c0.681,0.974,1.816,1.584,2.167,2.801c-0.011,2.974-0.021,5.946-0.032,8.919c-3.374,0.001-6.747,0.001-10.122,0.002
	c-0.023-9.254-0.047-18.507-0.071-27.761C103.716,107.306,105.239,106.625,106.604,107.546z"/>
<path fill-rule="evenodd" clip-rule="evenodd" fill="#E9F5FE" d="M65.278,69.964c-1.825,0-3.651,0.016-5.476-0.003
	c-2.503-0.026-4.64-1.936-4.687-4.16c-0.047-2.271,2.161-4.261,4.785-4.272c3.721-0.015,7.442-0.021,11.162,0.002
	c2.852,0.019,4.728,1.748,4.696,4.263c-0.031,2.514-1.894,4.143-4.794,4.168C69.069,69.978,67.173,69.964,65.278,69.964z"/>
<path fill-rule="evenodd" clip-rule="evenodd" fill="#FEFEFE" d="M91.401,91.481c-6.301,0.001-12.602-0.03-18.903,0.026
	c-1.565,0.014-2.023-0.384-1.406-1.936c0.561-1.412,0.884-2.917,1.312-4.381c4.972-0.011,9.944,0.012,14.915-0.055
	c1.587-0.021,2.53,0.671,2.96,2.111C90.697,88.644,91.031,90.068,91.401,91.481z"/>
<path fill-rule="evenodd" clip-rule="evenodd" fill="#E9F5FE" d="M47.354,88.947c-1.671-0.085-3.637,0.44-5.145-1.24
	c-1.096-1.222-1.793-2.465-1.138-4.158c0.662-1.712,1.805-2.883,3.663-3.003c1.957-0.126,3.931-0.105,5.891-0.009
	c2.322,0.115,4.078,2.05,4.036,4.27c-0.041,2.137-1.755,3.957-3.975,4.126C49.639,89.014,48.582,88.947,47.354,88.947z"/>
<path fill-rule="evenodd" clip-rule="evenodd" fill="#8379C0" d="M150.728,173.364c-9.404,0.01-18.808,0.021-28.21,0.03
	c-1.456-3.904-4.401-5.177-8.33-4.708c-2.521-0.01-5.043-0.019-7.564-0.028c-0.023-6.034-0.059-12.069-0.063-18.104
	c-0.001-2.025,1.242-2.561,3.054-2.554c9.614,0.035,19.229,0.025,28.845,0.024c0.771,0,1.541-0.047,2.312-0.071
	c2.167,0.024,4.335,0.055,6.503,0.074c2.726,0.024,3.466,0.729,3.471,3.502C150.757,158.808,150.735,166.086,150.728,173.364z"/>
<path fill-rule="evenodd" clip-rule="evenodd" fill="#8379C0" d="M150.753,193.129c0,2.232,0.001,4.465-0.001,6.697
	c-0.005,3.499-0.53,4.019-3.943,4.055c-2.02,0.021-4.046-0.157-6.055,0.196c-9.889,0.005-19.778,0.011-29.667,0.014
	c-4.128,0.002-4.535-0.41-4.533-4.568c0-0.982,0.01-1.965,0.015-2.947c2.669-0.033,5.339-0.066,8.008-0.1
	c3.34,0.454,5.831-0.84,7.569-3.68c8.712-0.001,17.423-0.002,26.135,0.001C149.118,192.797,149.975,192.681,150.753,193.129z"/>
<path fill-rule="evenodd" clip-rule="evenodd" fill="#F9C501" d="M150.728,173.364c0.008-7.278,0.029-14.557,0.017-21.834
	c-0.005-2.772-0.745-3.478-3.471-3.502c-2.168-0.02-4.336-0.05-6.503-0.074c-0.002-4.31-0.004-8.617-0.005-12.926
	c0.398-0.05,0.798-0.101,1.198-0.15c3.855,0.018,7.711,0.032,11.566,0.056c2.452,0.015,3.245,0.793,3.247,3.274
	c0.011,11.712,0.007,23.425,0.008,35.138C154.766,173.352,152.746,173.358,150.728,173.364z"/>
<path fill-rule="evenodd" clip-rule="evenodd" fill="#E99A58" d="M114.577,196.476c-2.669,0.033-5.339,0.066-8.008,0.1
	c-1.831,0.071-3.239-0.66-3.677-2.475c-0.469-1.941-0.063-3.672,2.208-4.391c-3.018-2.588-3.183-3.657-0.899-6.567
	c0.536-0.684,0.232-0.81-0.205-1.264c-1.726-1.796-1.792-3.896-0.07-5.568c0.686-0.667,0.784-0.982,0.037-1.543
	c-1.485-1.113-1.55-2.714-0.96-4.178c0.594-1.473,1.955-2.144,3.621-1.931c2.521,0.009,5.043,0.018,7.564,0.027
	c-3.425,1.763-4.499,4.62-4.295,8.355c0.218,3.995,0.141,8.014,0.022,12.017C109.807,192.648,111.345,195.058,114.577,196.476z"/>
<path fill-rule="evenodd" clip-rule="evenodd" fill="#FEFEFE" d="M141.964,134.878c-0.4,0.05-0.8,0.101-1.198,0.15
	c-8.385-0.027-16.769-0.052-25.152-0.084c-1.047-0.004-2.094-0.044-3.141-0.067c0.011-2.973,0.021-5.945,0.032-8.919
	c2.652,1.95,5.296,3.925,8.57,4.739c7.473,1.857,13.977,0.148,19.442-5.334c0.444-0.445,0.919-0.86,1.381-1.289
	C141.919,127.676,141.941,131.277,141.964,134.878z"/>
<path fill-rule="evenodd" clip-rule="evenodd" fill="#475A61" d="M59.335,132.668c2.515,0.316,5.035,0.17,7.555,0.098
	c0.215,0.043,0.431,0.085,0.646,0.127c0.253,1.087,0.129,2.315,1.163,3.109c-0.034,0.35-0.096,0.699-0.097,1.049
	c-0.008,12.862-0.012,25.725-0.004,38.587c0,0.484,0.121,0.968,0.182,1.451c0.383,3.058,2.495,5.033,4.443,7.113
	c-7.421,3.552-14.616-3.031-13.988-9.43c0.401-4.09,0.03-8.256,0.006-12.388C59.271,152.479,59.303,142.573,59.335,132.668z"/>
<path fill-rule="evenodd" clip-rule="evenodd" fill="#5A6C76" d="M73.223,184.202c-1.948-2.08-4.06-4.056-4.443-7.113
	c-0.061-0.483-0.181-0.967-0.182-1.451c-0.007-12.862-0.003-25.725,0.004-38.587c0-0.35,0.063-0.699,0.097-1.048
	c2.344,0.418,4.702,0.177,7.056,0.14c0.98,0.046,1.961,0.092,2.942,0.138c0.006,13.145-0.003,26.289,0.033,39.433
	c0.006,2.313-1.21,4.133-2.144,6.081C75.418,182.531,74.549,183.687,73.223,184.202z"/>
<path fill-rule="evenodd" clip-rule="evenodd" fill="#0693FA" d="M178.245,140.011c5.328,7.465,10.657,14.931,15.985,22.396
	c2.175,4.157,2.896,8.573,2.673,13.246c-0.205,4.28,0.291,8.626-0.239,12.852c-1.327,10.555-9.458,17.263-20.432,17.333
	c-0.015-2.728-0.118-5.459-0.009-8.182c0.062-1.547-0.368-2.039-1.972-2.016c-5.804,0.084-11.61,0.011-17.417-0.003
	c-0.018-0.833-0.034-1.666-0.053-2.498c3.219-0.006,6.438-0.003,9.656-0.023c7.225-0.046,12.01-5.23,11.518-11.552
	c-0.104-1.322-0.06-2.656-0.083-3.985c0.011-11.715,0.015-23.43,0.049-35.146C177.924,141.626,177.614,140.745,178.245,140.011z"/>
<path fill-rule="evenodd" clip-rule="evenodd" fill="#5A6C76" d="M177.873,177.578c0.023,1.329-0.021,2.663,0.083,3.985
	c0.492,6.321-4.293,11.506-11.518,11.552c-3.219,0.021-6.438,0.018-9.656,0.023c-2.01-0.003-4.02-0.006-6.029-0.009
	c-0.778-0.449-1.635-0.333-2.472-0.333c-8.712-0.003-17.423-0.002-26.135-0.002c0.691-2.221,0.318-4.521,0.51-6.779
	c14.13-0.005,28.262-0.01,42.393-0.013C172.421,186.001,175.142,184.216,177.873,177.578z"/>
<path fill-rule="evenodd" clip-rule="evenodd" fill="#E99A58" d="M125.974,95.735c-4.189,0.258-7.931-1.602-11.135-4.652
	c-1.537-1.463-1.489-3.357-0.068-4.626c1.26-1.125,2.621-1.186,4.03-0.22c6.455,4.425,8.976,4.435,15.11,0.071
	c1.54-1.096,3.203-0.982,4.331,0.37c1.154,1.385,1.165,2.87-0.057,4.181C134.998,94.275,131.016,95.847,125.974,95.735z"/>
<path fill-rule="evenodd" clip-rule="evenodd" fill="#E99A58" d="M129.382,66.884c0.083,2.055-0.922,3.611-1.914,4.968
	c-1.313,1.796-1.027,2.962,0.585,4.204c0.59,0.454,1.237,0.968,1.298,1.836c0.09,1.289,0.101,2.597-1.146,3.389
	c-1.319,0.837-2.703,0.744-3.927-0.206c-1.213-0.94-2.386-1.944-3.492-3.008c-2.349-2.26-2.407-2.779-0.898-5.634
	c1.21-2.29,2.418-4.582,3.648-6.862c0.897-1.664,2.461-1.827,4.01-1.433C128.91,64.485,129.544,65.593,129.382,66.884z"/>
<path fill-rule="evenodd" clip-rule="evenodd" fill="#E99A58" d="M144.979,65.038c-0.036,1.573,0.018,2.6-0.333,3.635
	c-0.505,1.489-1.549,2.117-2.998,2.134c-1.543,0.019-2.673-0.615-3.128-2.227c-0.524-1.863-0.424-3.744-0.145-5.602
	c0.27-1.792,1.452-2.989,3.258-2.966c1.81,0.023,2.884,1.281,3.204,3.052C144.985,63.882,144.96,64.731,144.979,65.038z"/>
<path fill-rule="evenodd" clip-rule="evenodd" fill="#F5A86B" d="M122.656,186.016c-0.192,2.258,0.181,4.559-0.51,6.779
	c-1.739,2.841-4.229,4.135-7.569,3.681c-3.231-1.418-4.77-3.827-4.663-7.417c0.119-4.003,0.196-8.021-0.022-12.017
	c-0.203-3.735,0.87-6.593,4.295-8.355c3.929-0.469,6.874,0.804,8.33,4.708C122.563,177.602,122.609,181.809,122.656,186.016z"/>
<path fill-rule="evenodd" clip-rule="evenodd" fill="#F5A86B" d="M67.537,132.893c-0.216-0.042-0.431-0.084-0.646-0.127
	c-3.378-1.396-4.785-3.932-4.661-7.563c0.131-3.842,0.2-7.701-0.019-11.535c-0.218-3.823,0.713-6.875,4.297-8.729
	c1.257-0.037,2.514-0.074,3.771-0.111c2.077-0.008,3.891,0.439,4.65,2.7c0.161,1.921-0.543,3.393-2.446,4.285
	c1.849,1.294,3.067,2.707,2.074,4.958c-0.797,1.807-0.767,2.697,0.181,4.313c0.07,0.12,0.125,0.249,0.188,0.374
	c0.115,1.89-0.449,3.43-2.306,4.279c2.424,2.041,2.689,2.894,1.821,5.71C72.491,133.609,69.87,132.565,67.537,132.893z"/>
<path fill-rule="evenodd" clip-rule="evenodd" fill="#97D62A" d="M81.086,108.29c4.226,1.688,5.25,7.611,1.928,11.185
	c-0.619,0.666-1.29,1.273-2.185,1.557c-0.77-0.702-1.621-1.333-2.292-2.119C75.781,115.688,77.002,109.479,81.086,108.29z"/>
<path fill-rule="evenodd" clip-rule="evenodd" fill="#8AC628" d="M81.086,108.29c-4.084,1.188-5.305,7.398-2.549,10.623
	c0.671,0.786,1.523,1.417,2.292,2.119c-1.888,1.261-3.887,0.962-5.904,0.425c-0.062-0.125-0.117-0.253-0.188-0.374
	c-0.948-1.616-0.978-2.506-0.181-4.313c0.993-2.251-0.225-3.663-2.074-4.958c1.903-0.893,2.607-2.364,2.446-4.285
	C77.083,106.954,79.218,106.542,81.086,108.29z"/>
<path fill-rule="evenodd" clip-rule="evenodd" fill="#E9F5FE" d="M67.537,132.893c2.333-0.327,4.955,0.717,6.904-1.446
	c0.012,1.685-0.04,3.388,1.315,4.696c-2.354,0.037-4.712,0.278-7.056-0.14C67.666,135.208,67.79,133.979,67.537,132.893z"/>
</svg>
