<?xml version="1.0" encoding="utf-8"?>
<!-- Generator: Adobe Illustrator 16.0.0, SVG Export Plug-In . SVG Version: 6.00 Build 0)  -->
<!DOCTYPE svg PUBLIC "-//W3C//DTD SVG 1.1//EN" "http://www.w3.org/Graphics/SVG/1.1/DTD/svg11.dtd">
<svg version="1.1" id="Layer_1" xmlns="http://www.w3.org/2000/svg" xmlns:xlink="http://www.w3.org/1999/xlink" x="0px" y="0px"
	 width="250px" height="250px" viewBox="0 0 250 250" enable-background="new 0 0 250 250" xml:space="preserve">
<g>
	<path fill-rule="evenodd" clip-rule="evenodd" fill="#C70A50" d="M143.431,221.997c-1.419,0.024-2.837,0.07-4.255,0.07
		c-28.845,0.004-57.69,0.004-86.536,0c-0.895,0-1.79-0.046-2.685-0.07c0.003-13.328,0.008-26.655,0.005-39.983
		c0-0.595,0.039-1.223-0.131-1.776c-0.231-0.757-0.801-1.267-1.662-1.266c-0.859,0.001-1.431,0.509-1.662,1.266
		c-0.169,0.554-0.13,1.182-0.13,1.776c-0.003,13.328,0.001,26.655,0.005,39.983c-6.729,0.024-13.459,0.003-20.187,0.107
		c-1.572,0.024-1.396-0.843-1.395-1.833c0.009-9.423,0.005-18.846,0.005-28.269c0-10.396-0.015-20.791,0.004-31.187
		c0.028-15.842,8.893-28.729,23.654-34.463c4.102-1.594,8.185-3.239,12.276-4.861c3.987,7.94,7.958,15.888,11.97,23.816
		c1.585,3.133,3.865,3.628,6.499,1.397c5.707-4.834,11.375-9.714,17.058-14.575c0.286-0.001,0.573-0.003,0.86-0.004
		c5.514,4.713,11.03,9.424,16.542,14.142c3.271,2.8,5.352,2.363,7.32-1.555c3.889-7.741,7.776-15.482,11.664-23.224
		c4.85,1.933,9.817,3.618,14.526,5.847c13.604,6.437,21.035,17.333,21.309,32.359c0.368,20.187,0.094,40.383,0.104,60.575
		c0,0.989,0.177,1.857-1.395,1.833c-6.729-0.104-13.458-0.083-20.187-0.107c0.003-13.328,0.007-26.655,0.004-39.983
		c0-0.595,0.039-1.223-0.13-1.776c-0.231-0.757-0.802-1.267-1.662-1.266s-1.432,0.509-1.663,1.266
		c-0.169,0.554-0.13,1.182-0.13,1.776C143.423,195.342,143.428,208.669,143.431,221.997z"/>
	<path fill-rule="evenodd" clip-rule="evenodd" fill="#01153D" d="M65.685,114.302c-2.694-0.022-5.388-0.019-8.081-0.073
		c-2.65-0.053-4.032-1.382-4.034-4.021c-0.014-18.415-0.235-36.834,0.082-55.244c0.308-17.923,15.583-33.298,33.61-34.073
		c7.235-0.311,14.523-0.599,21.753,0.302c16.711,2.083,30.426,16.885,30.715,33.767c0.313,18.41,0.098,36.83,0.084,55.244
		c-0.002,2.639-1.389,3.972-4.034,4.025c-2.692,0.055-5.387,0.052-8.08,0.075c-1.349-0.669-1.883-2.063-2.745-3.151
		c-2.29-2.889-4.135-3.021-6.843-0.447c-1.12,1.064-2.041,2.352-3.429,3.122c-0.031-3.15-0.063-6.301-0.093-9.452
		c0.007-1.207,0.013-2.414,0.02-3.621c4.729-4.87,8.095-10.516,9.774-17.128c1.591-6.264,0.962-12.653,1.048-19
		c0.041-3.032-1.316-4.284-4.43-4.306c-3.594-0.025-7.19,0.043-10.782-0.05c-12.716-0.33-25.211-1.724-36.831-7.521
		c-2.959-1.477-5.41,0.208-5.44,3.565c-0.049,5.241,0.138,10.488-0.045,15.723c-0.388,11.124,3.071,20.724,10.87,28.715
		c0.006,1.208,0.013,2.416,0.019,3.624c-0.031,3.147-0.063,6.295-0.094,9.442c-1.592-0.99-2.679-2.533-4.082-3.729
		c-2.077-1.773-4.016-1.569-5.777,0.535C67.804,111.863,67.162,113.443,65.685,114.302z"/>
	<path fill-rule="evenodd" clip-rule="evenodd" fill="#F9B301" d="M193.224,92.669c-8.306,0-16.612,0.027-24.918-0.028
		c-1.306-0.009-2.244,0.342-3.125,1.308c-1.461,1.602-3.021,3.118-4.599,4.606c-1.788,1.685-3.898,1.717-5.37,0.17
		c-1.41-1.481-1.314-3.471,0.255-5.215c0.149-0.167,0.293-0.352,0.476-0.474c4.896-3.264,5.807-7.9,5.566-13.518
		c-0.416-9.71-0.123-19.451-0.112-29.179c0.006-5.04,2.91-7.986,7.899-7.99c16.313-0.012,32.625-0.013,48.938,0
		c4.887,0.003,7.848,2.944,7.854,7.804c0.018,11.599,0.021,23.197-0.001,34.796c-0.009,4.742-2.976,7.698-7.722,7.711
		C209.985,92.686,201.604,92.668,193.224,92.669z M204.529,68.483c0.124-0.002,0.248-0.003,0.372-0.006
		c1.78,4.424,3.558,8.85,5.345,13.271c1.158,2.863,2.888,4.092,5.127,3.668c2.313-0.438,3.528-2.214,3.531-5.225
		c0.008-8.682,0.009-17.363,0-26.044c-0.003-2.974-1.374-4.663-3.687-4.601c-2.244,0.06-3.491,1.665-3.499,4.559
		c-0.013,4.139-0.003,8.279-0.003,12.418c-2.152-4.421-3.947-8.899-5.759-13.369c-1.136-2.801-2.95-4.023-5.199-3.537
		c-2.23,0.482-3.414,2.215-3.417,5.089c-0.01,8.756-0.011,17.513,0.001,26.269c0.003,2.839,1.327,4.476,3.57,4.489
		c2.244,0.014,3.602-1.632,3.613-4.449C204.541,76.839,204.529,72.662,204.529,68.483z M168.582,67.51
		c0,4.638-0.028,9.277,0.011,13.915c0.023,2.656,1.369,4.017,4.01,4.042c4.488,0.044,8.978,0.038,13.467,0.002
		c2.468-0.019,4.035-1.434,4.064-3.538c0.03-2.114-1.536-3.573-3.969-3.634c-1.645-0.041-3.291-0.009-4.938-0.009
		c-5.627,0-5.581,0.001-5.489-5.592c0.021-1.271,0.353-1.66,1.632-1.624c3.064,0.087,6.135,0.088,9.2-0.001
		c2.122-0.063,3.567-1.617,3.563-3.571c-0.003-1.956-1.451-3.465-3.573-3.565c-1.792-0.084-3.59-0.023-5.386-0.024
		c-5.602-0.001-5.55,0-5.439-5.646c0.026-1.341,0.489-1.598,1.688-1.565c2.766,0.076,5.535,0.038,8.303,0.02
		c2.798-0.019,4.447-1.4,4.408-3.651c-0.037-2.174-1.639-3.517-4.299-3.53c-4.339-0.021-8.679-0.028-13.018,0.001
		c-2.919,0.021-4.212,1.332-4.229,4.279C168.563,58.383,168.582,62.947,168.582,67.51z"/>
	<path fill-rule="evenodd" clip-rule="evenodd" fill="#EEEEEE" d="M65.685,114.302c1.477-0.858,2.119-2.439,3.155-3.677
		c1.762-2.104,3.701-2.308,5.777-0.535c1.403,1.197,2.49,2.739,4.082,3.729c5.351,5.395,10.708,10.785,16.045,16.193
		c0.61,0.618,1.467,1.088,1.519,2.117c-5.684,4.862-11.351,9.742-17.058,14.576c-2.634,2.23-4.914,1.735-6.499-1.397
		c-4.012-7.928-7.982-15.876-11.97-23.816C62.267,119.014,64.546,117.05,65.685,114.302z"/>
	<path fill-rule="evenodd" clip-rule="evenodd" fill="#EEEEEE" d="M114.684,113.827c1.388-0.771,2.309-2.058,3.429-3.122
		c2.708-2.574,4.553-2.441,6.843,0.447c0.862,1.088,1.396,2.481,2.745,3.151c1.141,2.746,3.416,4.711,4.949,7.187
		c-3.888,7.741-7.775,15.482-11.664,23.224c-1.968,3.918-4.049,4.354-7.32,1.555c-5.512-4.718-11.028-9.429-16.542-14.142
		c0.052-1.029,0.911-1.497,1.521-2.114C103.98,124.607,109.334,119.22,114.684,113.827z"/>
	<path fill-rule="evenodd" clip-rule="evenodd" fill="#9F0028" d="M46.379,221.997c-0.003-13.328-0.008-26.655-0.005-39.983
		c0-0.595-0.039-1.223,0.13-1.776c0.231-0.757,0.803-1.265,1.662-1.266c0.861-0.001,1.431,0.509,1.662,1.266
		c0.169,0.554,0.131,1.182,0.131,1.776c0.003,13.328-0.001,26.655-0.005,39.983C48.763,221.997,47.571,221.997,46.379,221.997z"/>
	<path fill-rule="evenodd" clip-rule="evenodd" fill="#9F0028" d="M143.431,221.997c-0.003-13.328-0.008-26.655-0.005-39.983
		c0-0.595-0.039-1.223,0.13-1.776c0.231-0.757,0.803-1.265,1.663-1.266s1.431,0.509,1.662,1.266c0.169,0.554,0.13,1.182,0.13,1.776
		c0.003,13.328-0.001,26.655-0.004,39.983C145.814,221.997,144.622,221.997,143.431,221.997z"/>
	<path fill-rule="evenodd" clip-rule="evenodd" fill="#F1C7A0" d="M114.684,113.827c-5.349,5.393-10.704,10.78-16.04,16.186
		c-0.609,0.617-1.468,1.085-1.521,2.114c-0.288,0.001-0.575,0.003-0.861,0.004c-0.051-1.03-0.908-1.5-1.518-2.118
		c-5.337-5.408-10.694-10.798-16.045-16.193c0.031-3.147,0.063-6.295,0.094-9.442c2.394,1.996,4.794,3.976,7.526,5.519
		c5.542,3.129,11.135,4.638,17.36,1.7c4.02-1.897,7.616-4.296,10.91-7.22C114.621,107.526,114.652,110.677,114.684,113.827z"/>
	<path fill-rule="evenodd" clip-rule="evenodd" fill="#F0C79F" d="M78.775,100.753c-7.799-7.991-11.258-17.591-10.87-28.715
		c0.183-5.235-0.003-10.482,0.045-15.723c0.031-3.357,2.481-5.042,5.44-3.565c11.62,5.797,24.114,7.191,36.831,7.521
		c3.592,0.093,7.188,0.025,10.782,0.05c3.113,0.021,4.471,1.274,4.43,4.306c-0.086,6.346,0.543,12.735-1.048,19
		c-1.679,6.612-5.045,12.258-9.774,17.128c-2.895,2.59-5.984,4.88-9.5,6.593c-4.982,2.426-9.911,3.171-15.196,0.708
		C85.813,106.146,82.115,103.756,78.775,100.753z M96.597,98.063c4.505,0.041,8.427-3.328,9.021-7.767
		c0.178-1.336,0.154-2.745-1.537-2.954c-1.54-0.19-1.871,0.989-2.074,2.318c-0.443,2.904-2.639,4.792-5.332,4.784
		c-2.684-0.008-4.861-1.909-5.303-4.817c-0.202-1.332-0.547-2.503-2.097-2.279c-1.68,0.243-1.687,1.65-1.505,2.982
		C88.364,94.674,92.197,98.024,96.597,98.063z M85.902,71.138c0.022-1.943-1.551-3.575-3.496-3.627
		c-1.943-0.052-3.599,1.494-3.682,3.438c-0.086,2.025,1.579,3.752,3.605,3.742C84.27,74.681,85.881,73.078,85.902,71.138z
		 M110.985,67.511c-1.945,0.046-3.52,1.67-3.504,3.615c0.015,1.943,1.617,3.548,3.559,3.565c2.024,0.018,3.7-1.709,3.619-3.73
		C114.581,69.019,112.927,67.464,110.985,67.511z M94.902,76.563c0,1.116-0.027,2.232,0.007,3.346c0.034,1.111,0.6,1.891,1.74,1.921
		c1.147,0.031,1.791-0.727,1.816-1.834c0.053-2.304,0.038-4.61,0.009-6.916c-0.014-1.112-0.601-1.907-1.739-1.918
		c-1.265-0.013-1.817,0.846-1.833,2.055C94.888,74.332,94.899,75.447,94.902,76.563z"/>
	<path fill-rule="evenodd" clip-rule="evenodd" fill="#D1AA81" d="M78.775,100.753c3.34,3.003,7.039,5.393,11.138,7.302
		c5.286,2.463,10.214,1.718,15.196-0.708c3.516-1.712,6.606-4.003,9.5-6.593c-0.007,1.207-0.013,2.414-0.02,3.621
		c-3.294,2.924-6.891,5.323-10.91,7.22c-6.225,2.938-11.818,1.429-17.36-1.7c-2.732-1.542-5.133-3.522-7.526-5.519
		C78.788,103.169,78.781,101.961,78.775,100.753z"/>
	<path fill-rule="evenodd" clip-rule="evenodd" fill="#02153C" d="M204.529,68.483c0,4.178,0.012,8.355-0.004,12.533
		c-0.012,2.817-1.369,4.463-3.613,4.449c-2.243-0.014-3.567-1.65-3.57-4.489c-0.012-8.756-0.011-17.513-0.001-26.269
		c0.003-2.874,1.187-4.606,3.417-5.089c2.249-0.486,4.063,0.736,5.199,3.537c1.812,4.47,3.606,8.948,5.759,13.369
		c0-4.139-0.01-8.279,0.003-12.418c0.008-2.894,1.255-4.499,3.499-4.559c2.313-0.062,3.684,1.626,3.687,4.601
		c0.009,8.681,0.008,17.363,0,26.044c-0.003,3.011-1.219,4.787-3.531,5.225c-2.239,0.424-3.969-0.806-5.127-3.668
		c-1.787-4.421-3.564-8.847-5.345-13.271C204.777,68.48,204.653,68.481,204.529,68.483z"/>
	<path fill-rule="evenodd" clip-rule="evenodd" fill="#02153C" d="M168.582,67.51c0-4.563-0.02-9.127,0.007-13.69
		c0.017-2.947,1.31-4.258,4.229-4.279c4.339-0.029,8.679-0.023,13.018-0.001c2.66,0.013,4.262,1.356,4.299,3.53
		c0.039,2.25-1.61,3.632-4.408,3.651c-2.768,0.018-5.537,0.056-8.303-0.02c-1.198-0.032-1.661,0.225-1.688,1.565
		c-0.11,5.646-0.162,5.645,5.439,5.646c1.796,0,3.594-0.061,5.386,0.024c2.122,0.1,3.57,1.609,3.573,3.565
		c0.004,1.955-1.441,3.508-3.563,3.571c-3.065,0.09-6.136,0.088-9.2,0.001c-1.279-0.036-1.61,0.352-1.632,1.624
		c-0.092,5.593-0.138,5.592,5.489,5.592c1.646,0,3.293-0.032,4.938,0.009c2.433,0.061,3.999,1.52,3.969,3.634
		c-0.029,2.104-1.597,3.519-4.064,3.538c-4.489,0.036-8.979,0.042-13.467-0.002c-2.641-0.026-3.986-1.387-4.01-4.042
		C168.554,76.787,168.582,72.148,168.582,67.51z"/>
	<path fill-rule="evenodd" clip-rule="evenodd" fill="#091B41" d="M96.597,98.063c-4.399-0.039-8.232-3.389-8.828-7.733
		c-0.182-1.332-0.175-2.74,1.505-2.982c1.55-0.225,1.895,0.947,2.097,2.279c0.442,2.908,2.619,4.809,5.303,4.817
		c2.693,0.009,4.889-1.88,5.332-4.784c0.203-1.329,0.534-2.508,2.074-2.318c1.691,0.209,1.715,1.618,1.537,2.954
		C105.023,94.735,101.102,98.104,96.597,98.063z"/>
	<path fill-rule="evenodd" clip-rule="evenodd" fill="#0B1C41" d="M85.902,71.138c-0.021,1.94-1.633,3.543-3.572,3.553
		c-2.027,0.01-3.691-1.717-3.605-3.742c0.083-1.944,1.739-3.49,3.682-3.438C84.351,67.563,85.924,69.195,85.902,71.138z"/>
	<path fill-rule="evenodd" clip-rule="evenodd" fill="#0B1C41" d="M110.985,67.511c1.941-0.047,3.596,1.507,3.673,3.45
		c0.081,2.021-1.594,3.748-3.619,3.73c-1.942-0.017-3.544-1.622-3.559-3.565C107.466,69.181,109.041,67.557,110.985,67.511z"/>
	<path fill-rule="evenodd" clip-rule="evenodd" fill="#D1AA81" d="M94.9,76.563c-0.001-1.116-0.013-2.231,0.002-3.346
		c0.016-1.208,0.568-2.067,1.833-2.055c1.138,0.011,1.725,0.806,1.739,1.918c0.029,2.305,0.044,4.612-0.009,6.916
		c-0.025,1.107-0.668,1.865-1.816,1.834c-1.141-0.03-1.706-0.81-1.74-1.921C94.875,78.794,94.902,77.678,94.9,76.563z"/>
</g>
</svg>
