<?xml version="1.0" encoding="utf-8"?>
<!-- Generator: Adobe Illustrator 16.0.0, SVG Export Plug-In . SVG Version: 6.00 Build 0)  -->
<!DOCTYPE svg PUBLIC "-//W3C//DTD SVG 1.1//EN" "http://www.w3.org/Graphics/SVG/1.1/DTD/svg11.dtd">
<svg version="1.1" id="Layer_1" xmlns="http://www.w3.org/2000/svg" xmlns:xlink="http://www.w3.org/1999/xlink" x="0px" y="0px"
	 width="100px" height="100px" viewBox="0 0 100 100" enable-background="new 0 0 100 100" xml:space="preserve">
<path display="none" fill="#E86481" d="M8.767,73.18c0-15.463,0-30.926,0-46.388c0.128-0.018,0.153-0.115,0.19-0.219
	c1.416-3.984,3.671-5.58,7.884-5.58c16.122,0,32.244,0,48.365,0c6.224,0,12.446-0.01,18.67,0.004
	c3.442,0.008,6.173,2.11,7.125,5.413c0.052,0.181-0.049,0.453,0.231,0.543c0,15.409,0,30.818,0,46.227
	c-0.176,0.021-0.172,0.174-0.213,0.295c-1.297,3.797-3.688,5.504-7.701,5.504c-9.174,0-18.353,0-27.523,0
	c-13.198,0-26.397,0.004-39.595-0.004c-3.444-0.002-6.136-2.009-7.15-5.269C8.993,73.521,9.035,73.26,8.767,73.18z M82.816,26.035
	c-0.043-0.056-0.088-0.111-0.131-0.167c-21.797,0-43.596,0-65.393,0c-0.049,0.063-0.098,0.125-0.146,0.188
	c0.198,0.129,0.426,0.229,0.59,0.393c9.988,10.009,19.971,20.023,29.956,30.037c1.552,1.557,3.054,1.563,4.595,0.02
	c7.162-7.181,14.313-14.37,21.485-21.542C76.773,31.969,79.803,29.01,82.816,26.035z M17.05,74.096c22.072,0,43.868,0,65.722,0
	c-0.092-0.119-0.131-0.186-0.184-0.238c-6.648-6.67-13.303-13.336-19.938-20.021c-0.414-0.419-0.604-0.284-0.93,0.048
	c-2.035,2.064-4.089,4.112-6.135,6.164c-3.234,3.246-7.951,3.241-11.184-0.009c-1.987-1.998-3.992-3.978-5.954-5.999
	c-0.48-0.495-0.738-0.582-1.281-0.031c-4.787,4.852-9.605,9.672-14.425,14.49C20.911,70.334,19.045,72.137,17.05,74.096z
	 M13.658,29.396c0,13.71,0,27.506,0,41.4c0.7-0.706,1.32-1.335,1.944-1.962c6.083-6.102,12.163-12.209,18.262-18.295
	c0.444-0.443,0.466-0.68,0-1.11c-0.927-0.854-1.789-1.779-2.685-2.667C25.33,40.962,19.478,35.163,13.658,29.396z M86.376,29.316
	c-0.051-0.034-0.103-0.068-0.153-0.102c-0.17,0.203-0.328,0.418-0.514,0.605c-6.496,6.522-12.988,13.046-19.506,19.547
	c-0.492,0.49-0.52,0.721-0.01,1.229c6.574,6.555,13.125,13.137,19.675,19.719c0.139,0.143,0.212,0.349,0.315,0.521
	c0.063-0.061,0.129-0.115,0.188-0.174C86.376,56.879,86.376,43.098,86.376,29.316z"/>
<path fill="#C2CFCF" d="M32.127,35.635c4.369,0,8.738-0.015,13.108,0.017c0.646,0.004,0.79-0.178,0.769-0.792
	c-0.049-1.404-0.053-2.814,0.001-4.218c0.025-0.653-0.186-0.769-0.794-0.767c-7.153,0.023-14.305,0.016-21.458,0.014
	c-3.242,0-5.06-1.813-5.062-5.041c-0.001-2.485-0.007-4.969,0.001-7.452c0.01-2.816,1.92-4.741,4.727-4.744
	c7.242-0.008,14.485-0.015,21.728,0.016c0.727,0.004,0.89-0.21,0.856-0.886c-0.054-1.105-0.03-2.214-0.009-3.321
	c0.02-1.001,0.563-1.547,1.572-1.553c2.784-0.015,5.567-0.016,8.35,0c1.002,0.006,1.544,0.559,1.564,1.564
	c0.021,1.137,0.044,2.275-0.012,3.411c-0.031,0.631,0.147,0.784,0.779,0.782c7.151-0.024,14.305-0.016,21.456-0.015
	c3.292,0,5.075,1.8,5.078,5.117c0,2.334,0,4.668,0,7.002c-0.003,3.348-1.788,5.12-5.164,5.12c-7.093,0-14.185,0.011-21.277-0.017
	c-0.699-0.002-0.903,0.165-0.874,0.872c0.062,1.403,0.048,2.812,0.004,4.218c-0.02,0.56,0.137,0.691,0.69,0.688
	c4.431-0.024,8.86-0.016,13.288-0.013c2.93,0.001,4.709,1.762,4.713,4.669c0.005,2.633,0.005,5.267,0,7.9
	c-0.004,2.905-1.78,4.668-4.714,4.671c-4.398,0.002-8.798,0.016-13.197-0.017c-0.63-0.004-0.804,0.147-0.781,0.781
	c0.053,1.404,0.053,2.813,0,4.218c-0.025,0.637,0.156,0.782,0.785,0.78c8.616-0.024,17.236-0.007,25.855-0.029
	c0.83-0.003,1.477,0.22,2.11,0.757c2.577,2.191,5.188,4.334,7.784,6.501c1.15,0.957,1.134,1.808-0.047,2.79
	c-2.597,2.162-5.208,4.309-7.784,6.498c-0.614,0.52-1.242,0.722-2.035,0.72c-8.591-0.021-17.179,0-25.769-0.032
	c-0.771-0.003-0.906,0.214-0.901,0.934c0.035,4.789,0.019,9.577,0.017,14.365c0,1.518-0.449,1.961-1.983,1.961
	c-2.572,0.002-5.147,0.006-7.72,0c-1.284-0.005-1.786-0.508-1.787-1.798c-0.004-4.878-0.018-9.756,0.017-14.634
	c0.004-0.673-0.158-0.831-0.829-0.827c-4.369,0.033-8.738,0.021-13.106,0.02c-2.995-0.002-4.756-1.748-4.76-4.716
	c-0.002-2.635-0.004-5.267,0-7.901c0.006-2.843,1.801-4.622,4.668-4.624c4.399-0.003,8.798-0.017,13.197,0.019
	c0.667,0.005,0.86-0.147,0.83-0.826c-0.061-1.375-0.06-2.754,0-4.129c0.029-0.675-0.156-0.829-0.827-0.827
	c-8.619,0.024-17.238,0.009-25.856,0.028c-0.797,0.003-1.421-0.211-2.032-0.73c-2.597-2.208-5.231-4.376-7.849-6.562
	c-1.095-0.914-1.105-1.756-0.024-2.66c2.686-2.244,5.382-4.476,8.057-6.731c0.489-0.413,1-0.581,1.634-0.579
	C23.449,35.644,27.789,35.635,32.127,35.635z M51.712,15.521c-9.335,0-18.67,0-28.005,0c-1.611,0-2.138,0.534-2.139,2.158
	c-0.002,2.454-0.006,4.907,0.001,7.359c0.003,1.379,0.59,1.972,1.964,1.974c18.788,0.002,37.579,0.002,56.367,0
	c1.429,0,2.002-0.583,2.006-2.024c0.006-2.394,0.002-4.788,0.002-7.181C81.905,16,81.428,15.52,79.625,15.52
	C70.32,15.521,61.016,15.521,51.712,15.521z M57.74,72.989c8.585,0,17.17-0.005,25.756,0.011c0.543,0.001,0.945-0.144,1.361-0.496
	c1.89-1.61,3.802-3.189,5.722-4.764c0.408-0.334,0.616-0.516,0.057-0.962c-2.007-1.609-3.971-3.269-5.932-4.93
	c-0.326-0.275-0.648-0.359-1.053-0.359c-17.229,0.007-34.46,0.005-51.691,0.007c-1.279,0-1.769,0.506-1.771,1.81
	c-0.005,2.542-0.002,5.084-0.001,7.627c0.001,1.646,0.413,2.057,2.067,2.057C40.748,72.989,49.244,72.989,57.74,72.989z
	 M45.72,38.508c-8.59,0-17.18,0-25.77-0.001c-0.418,0-0.786,0.015-1.153,0.33c-1.977,1.692-3.975,3.36-5.994,5.001
	c-0.436,0.354-0.404,0.501,0.009,0.839c2.016,1.645,4.015,3.313,5.994,5.001c0.337,0.288,0.67,0.326,1.064,0.326
	c17.181-0.003,34.36-0.002,51.54-0.003c1.398,0,1.872-0.481,1.875-1.891c0.002-2.544,0.002-5.088,0-7.632
	c-0.001-1.526-0.445-1.968-1.977-1.969C62.78,38.508,54.25,38.508,45.72,38.508z M54.61,83.043c0-2.183-0.018-4.367,0.012-6.552
	c0.007-0.508-0.134-0.653-0.642-0.642c-1.495,0.033-2.993,0.033-4.488,0c-0.51-0.012-0.643,0.138-0.641,0.644
	c0.02,4.367,0.02,8.737,0,13.104c-0.002,0.509,0.134,0.653,0.642,0.643c1.496-0.034,2.992-0.034,4.487,0
	c0.511,0.011,0.648-0.137,0.642-0.644C54.593,87.414,54.61,85.229,54.61,83.043z M51.734,35.593
	c0.942-0.035,2.207,0.448,2.738-0.145c0.465-0.519,0.152-1.762,0.128-2.685c-0.023-0.944,0.412-2.21-0.179-2.74
	c-0.514-0.465-1.761-0.15-2.686-0.128c-0.943,0.023-2.208-0.41-2.738,0.178c-0.466,0.516-0.15,1.762-0.128,2.685
	c0.023,0.944-0.41,2.213,0.179,2.739C49.564,35.957,50.811,35.593,51.734,35.593z M54.61,55.758c0-0.776-0.021-1.555,0.008-2.332
	c0.016-0.417-0.091-0.569-0.538-0.562c-1.556,0.028-3.111,0.024-4.667,0.002c-0.416-0.005-0.568,0.093-0.56,0.539
	c0.027,1.557,0.024,3.11,0.001,4.668c-0.006,0.414,0.092,0.566,0.538,0.56c1.558-0.026,3.111-0.024,4.668-0.002
	c0.415,0.007,0.581-0.091,0.56-0.539C54.584,57.315,54.61,56.538,54.61,55.758z M51.825,9.774c-0.241,0-0.479,0-0.72,0
	c-2.358,0-2.358,0-2.242,2.336c0.001,0.029,0.003,0.061,0,0.09c-0.05,0.354,0.106,0.457,0.453,0.454c1.614-0.015,3.23-0.017,4.846,0
	c0.353,0.003,0.431-0.117,0.458-0.458c0.197-2.422,0.206-2.422-2.169-2.422C52.242,9.774,52.032,9.774,51.825,9.774z"/>
</svg>
